%TF.GenerationSoftware,KiCad,Pcbnew,9.0.0*%
%TF.CreationDate,2025-08-08T14:04:16-04:00*%
%TF.ProjectId,Messages4,4d657373-6167-4657-9334-2e6b69636164,rev?*%
%TF.SameCoordinates,Original*%
%TF.FileFunction,Paste,Top*%
%TF.FilePolarity,Positive*%
%FSLAX46Y46*%
G04 Gerber Fmt 4.6, Leading zero omitted, Abs format (unit mm)*
G04 Created by KiCad (PCBNEW 9.0.0) date 2025-08-08 14:04:16*
%MOMM*%
%LPD*%
G01*
G04 APERTURE LIST*
G04 Aperture macros list*
%AMRoundRect*
0 Rectangle with rounded corners*
0 $1 Rounding radius*
0 $2 $3 $4 $5 $6 $7 $8 $9 X,Y pos of 4 corners*
0 Add a 4 corners polygon primitive as box body*
4,1,4,$2,$3,$4,$5,$6,$7,$8,$9,$2,$3,0*
0 Add four circle primitives for the rounded corners*
1,1,$1+$1,$2,$3*
1,1,$1+$1,$4,$5*
1,1,$1+$1,$6,$7*
1,1,$1+$1,$8,$9*
0 Add four rect primitives between the rounded corners*
20,1,$1+$1,$2,$3,$4,$5,0*
20,1,$1+$1,$4,$5,$6,$7,0*
20,1,$1+$1,$6,$7,$8,$9,0*
20,1,$1+$1,$8,$9,$2,$3,0*%
G04 Aperture macros list end*
%ADD10RoundRect,0.250000X0.262500X0.450000X-0.262500X0.450000X-0.262500X-0.450000X0.262500X-0.450000X0*%
%ADD11RoundRect,0.250000X0.250000X0.475000X-0.250000X0.475000X-0.250000X-0.475000X0.250000X-0.475000X0*%
%ADD12RoundRect,0.250000X-0.262500X-0.450000X0.262500X-0.450000X0.262500X0.450000X-0.262500X0.450000X0*%
%ADD13RoundRect,0.250000X-0.250000X-0.475000X0.250000X-0.475000X0.250000X0.475000X-0.250000X0.475000X0*%
%ADD14R,0.760000X1.910000*%
%ADD15R,0.150000X1.000000*%
%ADD16RoundRect,0.112500X0.187500X0.112500X-0.187500X0.112500X-0.187500X-0.112500X0.187500X-0.112500X0*%
%ADD17RoundRect,0.150000X-0.587500X-0.150000X0.587500X-0.150000X0.587500X0.150000X-0.587500X0.150000X0*%
%ADD18R,3.302000X1.117600*%
%ADD19R,6.400800X5.689600*%
%ADD20R,2.260000X1.510000*%
%ADD21RoundRect,0.243750X0.243750X0.456250X-0.243750X0.456250X-0.243750X-0.456250X0.243750X-0.456250X0*%
%ADD22RoundRect,0.250000X0.450000X-0.262500X0.450000X0.262500X-0.450000X0.262500X-0.450000X-0.262500X0*%
%ADD23RoundRect,0.218750X0.256250X-0.218750X0.256250X0.218750X-0.256250X0.218750X-0.256250X-0.218750X0*%
%ADD24RoundRect,0.250000X-0.650000X-2.450000X0.650000X-2.450000X0.650000X2.450000X-0.650000X2.450000X0*%
%ADD25RoundRect,0.250000X-1.425000X0.362500X-1.425000X-0.362500X1.425000X-0.362500X1.425000X0.362500X0*%
%ADD26R,1.500000X0.449999*%
%ADD27RoundRect,0.250000X-0.450000X0.262500X-0.450000X-0.262500X0.450000X-0.262500X0.450000X0.262500X0*%
%ADD28RoundRect,0.250000X0.375000X0.850000X-0.375000X0.850000X-0.375000X-0.850000X0.375000X-0.850000X0*%
%ADD29R,0.890000X1.130000*%
%ADD30RoundRect,0.250000X-0.325000X-0.650000X0.325000X-0.650000X0.325000X0.650000X-0.325000X0.650000X0*%
%ADD31RoundRect,0.150000X-0.850000X-0.150000X0.850000X-0.150000X0.850000X0.150000X-0.850000X0.150000X0*%
%ADD32RoundRect,0.250000X-0.362500X-1.425000X0.362500X-1.425000X0.362500X1.425000X-0.362500X1.425000X0*%
%ADD33R,0.650000X1.050000*%
%ADD34RoundRect,0.250000X-0.475000X0.250000X-0.475000X-0.250000X0.475000X-0.250000X0.475000X0.250000X0*%
%ADD35RoundRect,0.250000X0.312500X1.075000X-0.312500X1.075000X-0.312500X-1.075000X0.312500X-1.075000X0*%
%ADD36RoundRect,0.150000X-0.512500X-0.150000X0.512500X-0.150000X0.512500X0.150000X-0.512500X0.150000X0*%
%ADD37R,0.600000X1.150000*%
%ADD38R,0.300000X1.200000*%
%ADD39RoundRect,0.250000X0.475000X-0.250000X0.475000X0.250000X-0.475000X0.250000X-0.475000X-0.250000X0*%
%ADD40RoundRect,0.100000X-0.637500X-0.100000X0.637500X-0.100000X0.637500X0.100000X-0.637500X0.100000X0*%
%ADD41R,1.500000X0.900000*%
%ADD42R,0.900000X1.500000*%
%ADD43R,0.900000X0.900000*%
%ADD44RoundRect,0.112500X0.112500X-0.187500X0.112500X0.187500X-0.112500X0.187500X-0.112500X-0.187500X0*%
G04 APERTURE END LIST*
D10*
%TO.C,R44*%
X96087500Y-178575000D03*
X94262500Y-178575000D03*
%TD*%
%TO.C,R43*%
X88187500Y-169675000D03*
X86362500Y-169675000D03*
%TD*%
D11*
%TO.C,C33*%
X89225000Y-175975000D03*
X87325000Y-175975000D03*
%TD*%
D12*
%TO.C,R3*%
X63087508Y-105450000D03*
X64912508Y-105450000D03*
%TD*%
D10*
%TO.C,R30*%
X91900000Y-148825000D03*
X90075000Y-148825000D03*
%TD*%
D13*
%TO.C,C17*%
X78750000Y-92200000D03*
X80650000Y-92200000D03*
%TD*%
D14*
%TO.C,T1*%
X48912500Y-142405000D03*
X50512500Y-142405000D03*
X52112500Y-142405000D03*
X53712500Y-142405000D03*
D15*
X55282500Y-142405000D03*
D14*
X56912500Y-142405000D03*
X55942500Y-111475000D03*
X50342500Y-111475000D03*
X48912500Y-111435000D03*
%TD*%
D10*
%TO.C,R21*%
X87112500Y-85475000D03*
X85287500Y-85475000D03*
%TD*%
%TO.C,R12*%
X105712500Y-77500000D03*
X103887500Y-77500000D03*
%TD*%
D16*
%TO.C,D10*%
X64050000Y-174350000D03*
X61950000Y-174350000D03*
%TD*%
D10*
%TO.C,R39*%
X92837500Y-102750000D03*
X91012500Y-102750000D03*
%TD*%
D17*
%TO.C,Q1*%
X51200000Y-82800000D03*
X51200000Y-84700000D03*
X53075000Y-83750000D03*
%TD*%
D10*
%TO.C,R26*%
X53712500Y-183250000D03*
X51887500Y-183250000D03*
%TD*%
%TO.C,R37*%
X92812500Y-98575000D03*
X90987500Y-98575000D03*
%TD*%
D13*
%TO.C,C3*%
X48000000Y-107000000D03*
X49900000Y-107000000D03*
%TD*%
D18*
%TO.C,U2*%
X65371800Y-126639000D03*
D19*
X71925000Y-128925000D03*
D18*
X65371800Y-131211000D03*
%TD*%
D10*
%TO.C,R31*%
X91900000Y-146625000D03*
X90075000Y-146625000D03*
%TD*%
%TO.C,R13*%
X98912500Y-77600000D03*
X97087500Y-77600000D03*
%TD*%
D20*
%TO.C,D2*%
X40030000Y-70300000D03*
X43370000Y-70300000D03*
%TD*%
D13*
%TO.C,C8*%
X70573100Y-124125000D03*
X72473100Y-124125000D03*
%TD*%
D21*
%TO.C,D5*%
X101437500Y-116200000D03*
X99562500Y-116200000D03*
%TD*%
D10*
%TO.C,R23*%
X87137500Y-83230000D03*
X85312500Y-83230000D03*
%TD*%
D13*
%TO.C,C27*%
X94525000Y-160850000D03*
X96425000Y-160850000D03*
%TD*%
%TO.C,C19*%
X94900000Y-146625000D03*
X96800000Y-146625000D03*
%TD*%
D22*
%TO.C,R9*%
X58900000Y-88112500D03*
X58900000Y-86287500D03*
%TD*%
D13*
%TO.C,C12*%
X65950000Y-146240000D03*
X67850000Y-146240000D03*
%TD*%
%TO.C,C25*%
X94500000Y-158550000D03*
X96400000Y-158550000D03*
%TD*%
%TO.C,C31*%
X99150000Y-173950000D03*
X101050000Y-173950000D03*
%TD*%
D23*
%TO.C,FB2*%
X90925000Y-181987500D03*
X90925000Y-180412500D03*
%TD*%
D24*
%TO.C,C2*%
X47900000Y-90400000D03*
X53000000Y-90400000D03*
%TD*%
D10*
%TO.C,R16*%
X97400000Y-118500000D03*
X95575000Y-118500000D03*
%TD*%
D13*
%TO.C,C11*%
X97050000Y-79900000D03*
X98950000Y-79900000D03*
%TD*%
%TO.C,C24*%
X91125000Y-175900000D03*
X93025000Y-175900000D03*
%TD*%
D24*
%TO.C,C4*%
X47750000Y-76300000D03*
X52850000Y-76300000D03*
%TD*%
D10*
%TO.C,R14*%
X97450000Y-113900000D03*
X95625000Y-113900000D03*
%TD*%
D25*
%TO.C,R6*%
X50500000Y-147237500D03*
X50500000Y-153162500D03*
%TD*%
D26*
%TO.C,U1*%
X63000024Y-107275001D03*
X63000024Y-107924999D03*
X63000024Y-108575001D03*
X63000024Y-109224999D03*
X68799992Y-109224999D03*
X68799992Y-108575001D03*
X68799992Y-107924999D03*
X68799992Y-107275001D03*
%TD*%
D27*
%TO.C,R29*%
X58900000Y-81375000D03*
X58900000Y-83200000D03*
%TD*%
D10*
%TO.C,R27*%
X58612500Y-174050000D03*
X56787500Y-174050000D03*
%TD*%
D28*
%TO.C,L1*%
X72700000Y-144350000D03*
X70550000Y-144350000D03*
%TD*%
D29*
%TO.C,C28*%
X95355000Y-175925000D03*
X97095000Y-175925000D03*
%TD*%
D16*
%TO.C,D12*%
X64050000Y-176650000D03*
X61950000Y-176650000D03*
%TD*%
D10*
%TO.C,R17*%
X97450000Y-120800000D03*
X95625000Y-120800000D03*
%TD*%
D13*
%TO.C,C16*%
X78750000Y-89740000D03*
X80650000Y-89740000D03*
%TD*%
D12*
%TO.C,R11*%
X70487500Y-153250000D03*
X72312500Y-153250000D03*
%TD*%
D10*
%TO.C,R24*%
X87037500Y-80950000D03*
X85212500Y-80950000D03*
%TD*%
%TO.C,R41*%
X106012500Y-92100000D03*
X104187500Y-92100000D03*
%TD*%
D30*
%TO.C,C29*%
X99125000Y-168750000D03*
X102075000Y-168750000D03*
%TD*%
D11*
%TO.C,C23*%
X89387500Y-158900000D03*
X87487500Y-158900000D03*
%TD*%
D31*
%TO.C,U5*%
X91575000Y-164980000D03*
X91575000Y-166250000D03*
X91575000Y-167520000D03*
X91575000Y-168790000D03*
X91575000Y-170060000D03*
X91575000Y-171330000D03*
X91575000Y-172600000D03*
X91575000Y-173870000D03*
X96575000Y-173870000D03*
X96575000Y-172600000D03*
X96575000Y-171330000D03*
X96575000Y-170060000D03*
X96575000Y-168790000D03*
X96575000Y-167520000D03*
X96575000Y-166250000D03*
X96575000Y-164980000D03*
%TD*%
D21*
%TO.C,D6*%
X101425000Y-118500000D03*
X99550000Y-118500000D03*
%TD*%
D10*
%TO.C,R32*%
X58587500Y-171200000D03*
X56762500Y-171200000D03*
%TD*%
%TO.C,R38*%
X92837500Y-100700000D03*
X91012500Y-100700000D03*
%TD*%
D27*
%TO.C,R25*%
X58000000Y-70087500D03*
X58000000Y-71912500D03*
%TD*%
D16*
%TO.C,D11*%
X64050000Y-172050000D03*
X61950000Y-172050000D03*
%TD*%
D11*
%TO.C,C18*%
X88875000Y-172600000D03*
X86975000Y-172600000D03*
%TD*%
D10*
%TO.C,R22*%
X58612500Y-176450000D03*
X56787500Y-176450000D03*
%TD*%
D20*
%TO.C,D1*%
X52495000Y-98300000D03*
X49155000Y-98300000D03*
%TD*%
D10*
%TO.C,R8*%
X87300000Y-76330000D03*
X85475000Y-76330000D03*
%TD*%
D13*
%TO.C,C32*%
X96750000Y-106525000D03*
X98650000Y-106525000D03*
%TD*%
D32*
%TO.C,R4*%
X47700000Y-102900000D03*
X53625000Y-102900000D03*
%TD*%
D33*
%TO.C,S1*%
X105875000Y-71125000D03*
X105875000Y-75275000D03*
X103725000Y-71125000D03*
X103725000Y-75275000D03*
%TD*%
D10*
%TO.C,R42*%
X106037500Y-89750000D03*
X104212500Y-89750000D03*
%TD*%
%TO.C,R15*%
X97425000Y-116300000D03*
X95600000Y-116300000D03*
%TD*%
D13*
%TO.C,C20*%
X94850000Y-148825000D03*
X96750000Y-148825000D03*
%TD*%
D34*
%TO.C,C26*%
X85975000Y-155075000D03*
X85975000Y-156975000D03*
%TD*%
D13*
%TO.C,C1*%
X67000008Y-105440000D03*
X68900008Y-105440000D03*
%TD*%
D35*
%TO.C,R7*%
X64812500Y-102550000D03*
X61887500Y-102550000D03*
%TD*%
D13*
%TO.C,C22*%
X99137500Y-151300000D03*
X101037500Y-151300000D03*
%TD*%
D10*
%TO.C,R18*%
X97450000Y-123100000D03*
X95625000Y-123100000D03*
%TD*%
D13*
%TO.C,C30*%
X99150000Y-176250000D03*
X101050000Y-176250000D03*
%TD*%
D33*
%TO.C,S2*%
X99075000Y-71225000D03*
X99075000Y-75375000D03*
X96925000Y-71225000D03*
X96925000Y-75375000D03*
%TD*%
D36*
%TO.C,U3*%
X70125000Y-146950000D03*
X70125000Y-147900000D03*
X70125000Y-148850000D03*
X72400000Y-148850000D03*
X72400000Y-146950000D03*
%TD*%
D27*
%TO.C,R28*%
X61400000Y-81387500D03*
X61400000Y-83212500D03*
%TD*%
D13*
%TO.C,C13*%
X65950000Y-148750000D03*
X67850000Y-148750000D03*
%TD*%
D21*
%TO.C,D8*%
X101475000Y-123100000D03*
X99600000Y-123100000D03*
%TD*%
D34*
%TO.C,C5*%
X61300000Y-86200000D03*
X61300000Y-88100000D03*
%TD*%
%TO.C,C6*%
X48300000Y-82850000D03*
X48300000Y-84750000D03*
%TD*%
D13*
%TO.C,C9*%
X70873100Y-133525000D03*
X72773100Y-133525000D03*
%TD*%
D37*
%TO.C,J1*%
X56900000Y-179495000D03*
X57700000Y-179495000D03*
D38*
X58850000Y-179470000D03*
X59850000Y-179470000D03*
X60350000Y-179470000D03*
X61350000Y-179470000D03*
D37*
X63300000Y-179495000D03*
X62500000Y-179495000D03*
D38*
X61850000Y-179470000D03*
X60850000Y-179470000D03*
X59350000Y-179470000D03*
X58350000Y-179470000D03*
%TD*%
D12*
%TO.C,R34*%
X100925000Y-133300000D03*
X102750000Y-133300000D03*
%TD*%
D13*
%TO.C,C21*%
X99137500Y-148900000D03*
X101037500Y-148900000D03*
%TD*%
D10*
%TO.C,R2*%
X65037500Y-111300000D03*
X63212500Y-111300000D03*
%TD*%
D27*
%TO.C,R20*%
X58000000Y-73987500D03*
X58000000Y-75812500D03*
%TD*%
D10*
%TO.C,R19*%
X97250000Y-125300000D03*
X95425000Y-125300000D03*
%TD*%
D39*
%TO.C,C14*%
X60900000Y-71950000D03*
X60900000Y-70050000D03*
%TD*%
D21*
%TO.C,D7*%
X101475000Y-120800000D03*
X99600000Y-120800000D03*
%TD*%
D40*
%TO.C,U6*%
X90062500Y-150650000D03*
X90062500Y-151300000D03*
X90062500Y-151950000D03*
X90062500Y-152600000D03*
X90062500Y-153250000D03*
X90062500Y-153900000D03*
X90062500Y-154550000D03*
X90062500Y-155200000D03*
X90062500Y-155850000D03*
X90062500Y-156500000D03*
X95787500Y-156500000D03*
X95787500Y-155850000D03*
X95787500Y-155200000D03*
X95787500Y-154550000D03*
X95787500Y-153900000D03*
X95787500Y-153250000D03*
X95787500Y-152600000D03*
X95787500Y-151950000D03*
X95787500Y-151300000D03*
X95787500Y-150650000D03*
%TD*%
D21*
%TO.C,D9*%
X101475000Y-125300000D03*
X99600000Y-125300000D03*
%TD*%
D10*
%TO.C,R5*%
X68812500Y-111300000D03*
X66987500Y-111300000D03*
%TD*%
%TO.C,R40*%
X92837500Y-104925000D03*
X91012500Y-104925000D03*
%TD*%
D21*
%TO.C,D4*%
X101450000Y-113900000D03*
X99575000Y-113900000D03*
%TD*%
D41*
%TO.C,U4*%
X65050000Y-68680000D03*
X65050000Y-69950000D03*
X65050000Y-71220000D03*
X65050000Y-72490000D03*
X65050000Y-73760000D03*
X65050000Y-75030000D03*
X65050000Y-76300000D03*
X65050000Y-77570000D03*
X65050000Y-78840000D03*
X65050000Y-80110000D03*
X65050000Y-81380000D03*
X65050000Y-82650000D03*
X65050000Y-83920000D03*
X65050000Y-85190000D03*
D42*
X66815000Y-86440000D03*
X68085000Y-86440000D03*
X69355000Y-86440000D03*
X70625000Y-86440000D03*
X71895000Y-86440000D03*
X73165000Y-86440000D03*
X74435000Y-86440000D03*
X75705000Y-86440000D03*
X76975000Y-86440000D03*
X78245000Y-86440000D03*
X79515000Y-86440000D03*
X80785000Y-86440000D03*
D41*
X82550000Y-85190000D03*
X82550000Y-83920000D03*
X82550000Y-82650000D03*
X82550000Y-81380000D03*
X82550000Y-80110000D03*
X82550000Y-78840000D03*
X82550000Y-77570000D03*
X82550000Y-76300000D03*
X82550000Y-75030000D03*
X82550000Y-73760000D03*
X82550000Y-72490000D03*
X82550000Y-71220000D03*
X82550000Y-69950000D03*
X82550000Y-68680000D03*
D43*
X72300000Y-76400000D03*
X72300000Y-75000000D03*
X70900000Y-75000000D03*
X70900000Y-76400000D03*
X70900000Y-77800000D03*
X72300000Y-77800000D03*
X73700000Y-77800000D03*
X73700000Y-76400000D03*
X73700000Y-75000000D03*
%TD*%
D10*
%TO.C,R10*%
X68787500Y-103100000D03*
X66962500Y-103100000D03*
%TD*%
D23*
%TO.C,FB1*%
X86925000Y-182112500D03*
X86925000Y-180537500D03*
%TD*%
D27*
%TO.C,R1*%
X56850000Y-145812500D03*
X56850000Y-147637500D03*
%TD*%
D13*
%TO.C,C10*%
X103850000Y-79900000D03*
X105750000Y-79900000D03*
%TD*%
D11*
%TO.C,C7*%
X72350000Y-150950000D03*
X70450000Y-150950000D03*
%TD*%
D13*
%TO.C,C15*%
X51862500Y-185400000D03*
X53762500Y-185400000D03*
%TD*%
D44*
%TO.C,D3*%
X74900000Y-148900000D03*
X74900000Y-146800000D03*
%TD*%
D10*
%TO.C,R33*%
X98887500Y-133300000D03*
X97062500Y-133300000D03*
%TD*%
M02*
