M48
; DRILL file {KiCad 9.0.0} date 2025-08-08T14:04:50-0400
; FORMAT={-:-/ absolute / metric / decimal}
; #@! TF.CreationDate,2025-08-08T14:04:50-04:00
; #@! TF.GenerationSoftware,Kicad,Pcbnew,9.0.0
; #@! TF.FileFunction,Plated,1,4,PTH
FMAT,2
METRIC
; #@! TA.AperFunction,Plated,PTH,ViaDrill
T1C0.300
; #@! TA.AperFunction,Plated,PTH,ViaDrill
T2C0.400
; #@! TA.AperFunction,Plated,PTH,ViaDrill
T3C0.600
; #@! TA.AperFunction,Plated,PTH,ComponentDrill
T4C0.600
; #@! TA.AperFunction,Plated,PTH,ComponentDrill
T5C0.850
; #@! TA.AperFunction,Plated,PTH,ComponentDrill
T6C1.000
; #@! TA.AperFunction,Plated,PTH,ComponentDrill
T7C1.020
%
G90
G05
T1
X49.775Y-84.75
X49.975Y-105.725
X51.887Y-181.537
X53.7Y-120.625
X53.7Y-181.825
X54.8Y-83.325
X56.787Y-175.3
X56.8Y-83.5
X57.325Y-88.875
X59.275Y-100.5
X60.175Y-107.3
X61.45Y-176.325
X61.575Y-109.45
X61.725Y-145.475
X61.85Y-178.225
X61.95Y-126.675
X62.25Y-77.575
X62.4Y-69.9
X62.7Y-71.0
X62.8Y-112.625
X64.075Y-114.55
X65.5Y-170.6
X66.15Y-118.325
X68.638Y-69.138
X69.375Y-112.7
X69.4Y-95.9
X70.2Y-103.1
X70.625Y-95.3
X70.9Y-79.1
X71.0Y-73.5
X71.5Y-159.9
X71.5Y-160.725
X71.895Y-94.525
X72.773Y-135.777
X73.165Y-93.75
X74.1Y-151.0
X74.435Y-93.125
X74.65Y-122.675
X75.025Y-143.675
X75.1Y-75.0
X75.1Y-77.8
X75.8Y-139.275
X76.362Y-149.338
X77.375Y-120.125
X78.325Y-159.05
X79.225Y-98.6
X80.0Y-155.125
X80.325Y-109.625
X80.337Y-156.713
X80.65Y-93.85
X81.425Y-157.725
X81.57Y-110.555
X81.6Y-93.975
X81.85Y-142.9
X82.5Y-154.575
X83.425Y-149.1
X83.9Y-143.025
X84.263Y-162.887
X84.4Y-110.1
X84.55Y-91.9
X84.75Y-69.525
X85.025Y-140.475
X85.075Y-166.425
X86.25Y-105.625
X86.362Y-170.625
X86.7Y-178.925
X86.975Y-70.25
X87.075Y-151.975
X87.8Y-74.425
X87.975Y-156.525
X88.025Y-152.95
X88.087Y-151.162
X88.15Y-154.575
X88.875Y-155.275
X89.0Y-150.125
X89.625Y-173.75
X89.75Y-100.8
X89.75Y-164.98
X89.775Y-129.075
X89.775Y-166.25
X89.825Y-178.7
X89.85Y-167.52
X90.025Y-95.75
X90.18Y-171.33
X90.225Y-102.75
X90.325Y-108.25
X90.675Y-158.925
X91.087Y-93.987
X91.225Y-119.95
X91.225Y-137.675
X91.7Y-121.6
X91.9Y-145.5
X92.5Y-138.3
X93.025Y-177.25
X93.175Y-157.35
X93.287Y-140.112
X93.375Y-142.55
X93.425Y-86.65
X93.725Y-147.7
X93.775Y-116.2
X93.938Y-101.662
X94.1Y-145.325
X94.3Y-92.3
X94.4Y-98.4
X95.3Y-76.675
X95.45Y-133.25
X95.525Y-69.525
X95.785Y-174.66
X97.025Y-156.525
X97.05Y-81.475
X97.05Y-151.3
X97.1Y-150.25
X97.1Y-177.15
X97.125Y-153.225
X97.825Y-148.8
X98.025Y-146.9
X98.037Y-151.787
X98.1Y-168.79
X98.125Y-167.35
X98.425Y-164.25
X98.55Y-171.33
X98.912Y-145.912
X99.15Y-177.625
X100.2Y-106.4
X100.725Y-170.625
X101.4Y-78.55
X101.537Y-112.425
X101.55Y-153.45
X101.85Y-69.325
X101.875Y-155.5
X102.25Y-151.225
X102.312Y-154.213
X103.537Y-125.8
X103.625Y-146.95
X103.85Y-81.35
X104.075Y-97.75
X104.3Y-135.15
X104.55Y-148.15
X106.012Y-94.4
X107.45Y-103.175
X108.775Y-99.925
X108.925Y-91.603
X109.628Y-109.6
T2
X57.7Y-178.275
X67.468Y-124.543
X73.3Y-99.475
X78.7Y-93.675
T3
X67.8Y-144.175
T5
X108.137Y-131.36
X108.137Y-133.9
X108.137Y-136.44
T6
X47.425Y-69.25
X50.4Y-157.85
X50.4Y-162.675
X53.175Y-69.15
X56.9Y-94.5
X60.9Y-94.5
X63.55Y-153.175
X63.9Y-134.625
X65.15Y-94.5
X71.05Y-182.525
X74.675Y-182.525
X78.4Y-182.5
X86.75Y-184.5
X91.175Y-184.5
X95.025Y-184.5
X99.125Y-184.5
X101.925Y-136.4
X105.65Y-142.5
X105.7Y-146.075
X105.8Y-149.675
X105.825Y-154.35
X105.925Y-159.45
T4
G00X55.78Y-179.52
M15
G01X55.78Y-180.62
M16
G05
G00X55.78Y-183.85
M15
G01X55.78Y-184.65
M16
G05
G00X64.42Y-179.52
M15
G01X64.42Y-180.62
M16
G05
G00X64.42Y-183.85
M15
G01X64.42Y-184.65
M16
G05
T6
G00X103.7Y-172.94
M15
G01X103.7Y-173.44
M16
G05
G00X107.95Y-178.24
M15
G01X107.95Y-178.74
M16
G05
G00X109.2Y-172.94
M15
G01X109.2Y-173.44
M16
G05
T7
G00X41.12Y-74.962
M15
G01X40.27Y-74.962
M16
G05
G00X41.12Y-82.582
M15
G01X40.27Y-82.582
M16
G05
G00X40.275Y-176.857
M15
G01X41.125Y-176.857
M16
G05
G00X40.275Y-184.477
M15
G01X41.125Y-184.477
M16
G05
M30
