%TF.GenerationSoftware,KiCad,Pcbnew,9.0.0*%
%TF.CreationDate,2025-08-08T14:04:16-04:00*%
%TF.ProjectId,Messages4,4d657373-6167-4657-9334-2e6b69636164,rev?*%
%TF.SameCoordinates,Original*%
%TF.FileFunction,Copper,L4,Bot*%
%TF.FilePolarity,Positive*%
%FSLAX46Y46*%
G04 Gerber Fmt 4.6, Leading zero omitted, Abs format (unit mm)*
G04 Created by KiCad (PCBNEW 9.0.0) date 2025-08-08 14:04:16*
%MOMM*%
%LPD*%
G01*
G04 APERTURE LIST*
G04 Aperture macros list*
%AMRoundRect*
0 Rectangle with rounded corners*
0 $1 Rounding radius*
0 $2 $3 $4 $5 $6 $7 $8 $9 X,Y pos of 4 corners*
0 Add a 4 corners polygon primitive as box body*
4,1,4,$2,$3,$4,$5,$6,$7,$8,$9,$2,$3,0*
0 Add four circle primitives for the rounded corners*
1,1,$1+$1,$2,$3*
1,1,$1+$1,$4,$5*
1,1,$1+$1,$6,$7*
1,1,$1+$1,$8,$9*
0 Add four rect primitives between the rounded corners*
20,1,$1+$1,$2,$3,$4,$5,0*
20,1,$1+$1,$4,$5,$6,$7,0*
20,1,$1+$1,$6,$7,$8,$9,0*
20,1,$1+$1,$8,$9,$2,$3,0*%
G04 Aperture macros list end*
%TA.AperFunction,ComponentPad*%
%ADD10C,2.000000*%
%TD*%
%TA.AperFunction,ComponentPad*%
%ADD11RoundRect,0.635000X-0.635000X-0.635000X0.635000X-0.635000X0.635000X0.635000X-0.635000X0.635000X0*%
%TD*%
%TA.AperFunction,ComponentPad*%
%ADD12RoundRect,0.635000X0.635000X0.635000X-0.635000X0.635000X-0.635000X-0.635000X0.635000X-0.635000X0*%
%TD*%
%TA.AperFunction,ComponentPad*%
%ADD13RoundRect,0.412500X0.412500X-0.412500X0.412500X0.412500X-0.412500X0.412500X-0.412500X-0.412500X0*%
%TD*%
%TA.AperFunction,ComponentPad*%
%ADD14C,1.650000*%
%TD*%
%TA.AperFunction,ComponentPad*%
%ADD15O,1.498600X2.006600*%
%TD*%
%TA.AperFunction,ComponentPad*%
%ADD16O,1.000000X2.100000*%
%TD*%
%TA.AperFunction,ComponentPad*%
%ADD17RoundRect,0.250000X-0.250000X-0.650000X0.250000X-0.650000X0.250000X0.650000X-0.250000X0.650000X0*%
%TD*%
%TA.AperFunction,SMDPad,CuDef*%
%ADD18R,1.397000X1.803400*%
%TD*%
%TA.AperFunction,SMDPad,CuDef*%
%ADD19R,1.905000X1.397000*%
%TD*%
%TA.AperFunction,SMDPad,CuDef*%
%ADD20R,2.006600X0.812800*%
%TD*%
%TA.AperFunction,ViaPad*%
%ADD21C,0.600000*%
%TD*%
%TA.AperFunction,ViaPad*%
%ADD22C,0.700000*%
%TD*%
%TA.AperFunction,ViaPad*%
%ADD23C,0.800000*%
%TD*%
%TA.AperFunction,Conductor*%
%ADD24C,0.254000*%
%TD*%
%TA.AperFunction,Conductor*%
%ADD25C,0.400000*%
%TD*%
%TA.AperFunction,Conductor*%
%ADD26C,0.500000*%
%TD*%
G04 APERTURE END LIST*
D10*
%TO.P,-OUTL,1,1*%
%TO.N,Net-(-OUT_L1-Pad1)*%
X91175000Y-184500000D03*
%TD*%
%TO.P,-OUTR,1,1*%
%TO.N,Net-(U5--OUT_R)*%
X95025000Y-184500000D03*
%TD*%
%TO.P,+OUTR,1,1*%
%TO.N,Net-(U5-+OUT_R)*%
X99125000Y-184500000D03*
%TD*%
%TO.P,+OUTL,1,1*%
%TO.N,Net-(+OUT_L1-Pad1)*%
X86750000Y-184500000D03*
%TD*%
%TO.P,OUTL1,1,1*%
%TO.N,/Audio4/OUTL*%
X105925000Y-159450000D03*
%TD*%
%TO.P,GND1,1,1*%
%TO.N,GND*%
X50400000Y-162675000D03*
%TD*%
%TO.P,5V1,1,1*%
%TO.N,+5V*%
X63550000Y-153175000D03*
%TD*%
D11*
%TO.P,F1,1,1*%
%TO.N,/Power4/ANODE*%
X40700000Y-184477500D03*
X40700000Y-176857500D03*
D12*
%TO.P,F1,2,2*%
%TO.N,/Power4/CATHODE*%
X40695000Y-82582500D03*
X40695000Y-74962500D03*
%TD*%
D13*
%TO.P,RV1,1,1*%
%TO.N,/Audio4/DAC_MONO*%
X108137500Y-136440000D03*
D14*
%TO.P,RV1,2,2*%
%TO.N,/Audio4/AMP_MONO*%
X108137500Y-133900000D03*
%TO.P,RV1,3,3*%
%TO.N,AGND*%
X108137500Y-131360000D03*
%TD*%
D10*
%TO.P,LRCK1,1,1*%
%TO.N,/I2S_LRCK*%
X105700000Y-146075000D03*
%TD*%
%TO.P,DRAIN1,1,1*%
%TO.N,Net-(Q1-D)*%
X65150000Y-94500000D03*
%TD*%
%TO.P,+5V1,1,1*%
%TO.N,+5V*%
X78400000Y-182500000D03*
%TD*%
D15*
%TO.P,J2,1,1*%
%TO.N,AGND*%
X107950124Y-178490435D03*
%TO.P,J2,2,2*%
%TO.N,/Audio4/OUTL*%
X103699942Y-173190433D03*
%TO.P,J2,3,3*%
%TO.N,/Audio4/OUTR*%
X109199941Y-173190433D03*
%TD*%
D10*
%TO.P,VBUS1,1,1*%
%TO.N,VBUS*%
X50400000Y-157850000D03*
%TD*%
%TO.P,OUTR1,1,1*%
%TO.N,/Audio4/OUTR*%
X105825000Y-154350000D03*
%TD*%
%TO.P,HIV-1,1,1*%
%TO.N,/Power4/CATHODE*%
X47425000Y-69250000D03*
%TD*%
%TO.P,DOUT1,1,1*%
%TO.N,/I2S_DOUT*%
X105650000Y-142500000D03*
%TD*%
%TO.P,BCK1,1,1*%
%TO.N,/I2S_BCK*%
X105800000Y-149675000D03*
%TD*%
%TO.P,STG1,1,1*%
%TO.N,Net-(D1-A)*%
X60900000Y-94500000D03*
%TD*%
%TO.P,+3.3V1,1,1*%
%TO.N,+3.3V*%
X63900000Y-134625000D03*
%TD*%
D16*
%TO.P,J1,SH1,SHELL_GND*%
%TO.N,/MCU4/SHELL_GND*%
X55780000Y-180070000D03*
%TO.P,J1,SH2,SHELL_GND*%
X64420000Y-180070000D03*
D17*
%TO.P,J1,SH3,SHELL_GND*%
X55780000Y-184250000D03*
%TO.P,J1,SH4,SHELL_GND*%
X64420000Y-184250000D03*
%TD*%
D10*
%TO.P,LAMP1,1,1*%
%TO.N,/LAMP*%
X74675000Y-182525000D03*
%TD*%
%TO.P,PWM1,1,1*%
%TO.N,Net-(Q1-G)*%
X53175000Y-69150000D03*
%TD*%
%TO.P,GND2,1,1*%
%TO.N,GND*%
X71050000Y-182525000D03*
%TD*%
%TO.P,HIV+1,1,1*%
%TO.N,Net-(D1-K)*%
X56900000Y-94500000D03*
%TD*%
%TO.P,DAC_MONO1,1,1*%
%TO.N,/Audio4/DAC_MONO*%
X101925000Y-136400000D03*
%TD*%
D18*
%TO.P,J3,9,CARD_DETECT*%
%TO.N,unconnected-(J3-CARD_DETECT-Pad9)*%
X95478399Y-96350000D03*
%TO.P,J3,10,CARD_DETECT*%
%TO.N,unconnected-(J3-CARD_DETECT-Pad10)*%
X95478399Y-102050001D03*
D19*
%TO.P,J3,11,GROUND*%
%TO.N,GND*%
X108628401Y-94750000D03*
%TO.P,J3,12,GROUND*%
X109628401Y-107900002D03*
D20*
%TO.P,J3,P1,DAT2*%
%TO.N,Net-(J3-DAT2)*%
X106028401Y-103240001D03*
%TO.P,J3,P2,DAT3/CS*%
%TO.N,/CS*%
X105628402Y-102139927D03*
%TO.P,J3,P3,CMD/MOSI*%
%TO.N,/MOSI*%
X106028401Y-101040001D03*
%TO.P,J3,P4,VDD*%
%TO.N,+3.3V*%
X106228401Y-99940000D03*
%TO.P,J3,P5,SCLK*%
%TO.N,/SCK*%
X106028401Y-98840000D03*
%TO.P,J3,P6,VSS*%
%TO.N,GND*%
X106228401Y-97740000D03*
%TO.P,J3,P7,DAT0/MISO*%
%TO.N,/MISO*%
X106028401Y-96639999D03*
%TO.P,J3,P8,DAT1*%
%TO.N,Net-(J3-DAT1)*%
X106028401Y-95539999D03*
%TD*%
D21*
%TO.N,Net-(C18-Pad1)*%
X86362500Y-170625000D03*
X89625000Y-173750000D03*
%TO.N,PGND*%
X93025000Y-177250000D03*
%TO.N,AGND*%
X97825000Y-148800000D03*
%TO.N,Net-(C3-Pad2)*%
X59275000Y-100500000D03*
%TO.N,/I2S_DOUT*%
X89775000Y-129075000D03*
X91225000Y-119950000D03*
%TO.N,/MOSI*%
X93937500Y-101662500D03*
X94400000Y-98400000D03*
X90225000Y-102750000D03*
%TO.N,/CS*%
X89750000Y-100800000D03*
%TO.N,+5V*%
X75800000Y-139275000D03*
X77375000Y-120125000D03*
%TO.N,VBUS*%
X91700000Y-121600000D03*
X54800000Y-83325000D03*
D22*
X67467900Y-124542900D03*
D21*
%TO.N,/BAT_SENSE*%
X90325000Y-108250000D03*
%TO.N,/Audio4/DAC_MONO*%
X93287500Y-140112500D03*
%TO.N,+3.3V*%
X88875000Y-155275000D03*
%TO.N,+5V*%
X93775000Y-116200000D03*
%TO.N,GND*%
X100200000Y-106400000D03*
%TO.N,/SCK*%
X90025000Y-95750000D03*
%TO.N,/MISO*%
X91087500Y-93987500D03*
%TO.N,Net-(J3-DAT2)*%
X107450000Y-103175000D03*
%TO.N,Net-(J3-DAT1)*%
X106012500Y-94400000D03*
%TO.N,GND*%
X108925000Y-91603400D03*
%TO.N,/Audio4/DAC_MONO*%
X92500000Y-138300000D03*
X91900000Y-145500000D03*
%TO.N,Net-(JP6-A)*%
X91225000Y-137675000D03*
X95450000Y-133250000D03*
%TO.N,/Audio4/AMP_MONO*%
X85025000Y-140475000D03*
X104300000Y-135150000D03*
%TO.N,/Audio4/OUTL*%
X98912500Y-145912500D03*
%TO.N,/I2S_DOUT*%
X104550000Y-148150000D03*
%TO.N,AGND*%
X87075000Y-151975000D03*
%TO.N,GND*%
X81850000Y-142900000D03*
%TO.N,AGND*%
X83900000Y-143025000D03*
%TO.N,+3.3V*%
X93175000Y-157350000D03*
%TO.N,Net-(U6-CAPP)*%
X88087500Y-151162500D03*
%TO.N,Net-(U6-CAPM)*%
X88025000Y-152950000D03*
X98025000Y-146900000D03*
%TO.N,Net-(U6-CAPP)*%
X94100000Y-145325000D03*
%TO.N,+5V*%
X78325000Y-159050000D03*
X74100000Y-151000000D03*
X61725000Y-145475000D03*
X76362500Y-149337500D03*
%TO.N,Net-(Q1-D)*%
X53700000Y-120625000D03*
%TO.N,/Audio4/OUTR*%
X83425000Y-149100000D03*
X81425000Y-157725000D03*
X93725000Y-147700000D03*
X71500000Y-160725000D03*
X93375000Y-142550000D03*
%TO.N,Net-(Q1-G)*%
X87800000Y-74425000D03*
%TO.N,/MOSI*%
X71895000Y-94525000D03*
%TO.N,/I2S_LRCK*%
X101550000Y-153450000D03*
%TO.N,/I2S_DOUT*%
X103625000Y-146950000D03*
X102312500Y-154212500D03*
%TO.N,/I2S_BCK*%
X101875000Y-155500000D03*
%TO.N,/MUTE*%
X86250000Y-105625000D03*
X79225000Y-98600000D03*
%TO.N,Net-(C3-Pad2)*%
X49975000Y-105725000D03*
%TO.N,/MISO*%
X74435000Y-93125000D03*
%TO.N,/CS*%
X70625000Y-95300000D03*
%TO.N,/EN*%
X86975000Y-70250000D03*
X68637500Y-69137500D03*
%TO.N,GND*%
X51887500Y-181537500D03*
D23*
X67800000Y-144175000D03*
D21*
X74650000Y-122675000D03*
X103537500Y-125800000D03*
X101537500Y-112425000D03*
X101850000Y-69325000D03*
X75100000Y-77800000D03*
X109628401Y-109600000D03*
X61575000Y-109450000D03*
X49775000Y-84750000D03*
X72773100Y-135776900D03*
X70900000Y-79100000D03*
X75100000Y-75000000D03*
X103850000Y-81350000D03*
X65500000Y-170600000D03*
X84750000Y-69525000D03*
X69375000Y-112700000D03*
X62400000Y-69900000D03*
X97050000Y-81475000D03*
X57325000Y-88875000D03*
X56787500Y-175300000D03*
X71000000Y-73500000D03*
X80650000Y-93850000D03*
X104075000Y-97750000D03*
X70200000Y-103100000D03*
X95525000Y-69525000D03*
X66150000Y-118325000D03*
%TO.N,/SCK*%
X73165000Y-93750000D03*
%TO.N,Net-(J1-CC2)*%
X53700000Y-181825000D03*
X61850000Y-178225000D03*
%TO.N,+3.3V*%
X56800000Y-83500000D03*
X94300000Y-92300000D03*
X62700000Y-71000000D03*
X101400000Y-78550000D03*
X64075000Y-114550000D03*
X95300000Y-76675000D03*
X97100000Y-150250000D03*
X62800000Y-112625000D03*
D22*
X73300000Y-99475000D03*
D21*
X89000000Y-150125000D03*
X108775000Y-99925000D03*
D22*
X78700000Y-93675000D03*
D21*
X75025000Y-143675000D03*
%TO.N,/GPIO0*%
X93425000Y-86650000D03*
X84550000Y-91900000D03*
%TO.N,VBUS*%
X99150000Y-177625000D03*
X98100000Y-168790000D03*
D22*
X57700000Y-178275000D03*
D21*
X90180000Y-171330000D03*
X95785000Y-174660000D03*
X61950000Y-126675000D03*
X61450000Y-176325000D03*
%TO.N,AGND*%
X97125000Y-153225000D03*
X87975000Y-156525000D03*
X97050000Y-151300000D03*
X84262500Y-162887500D03*
X97025000Y-156525000D03*
X102250000Y-151225000D03*
%TO.N,/BAT_SENSE*%
X69400000Y-95900000D03*
%TO.N,/RAD_IN*%
X62250000Y-77575000D03*
X81569916Y-110555084D03*
X81600000Y-93975000D03*
X60175000Y-107300000D03*
%TO.N,/MUTE_AMP*%
X80325000Y-109625000D03*
X84400000Y-110100000D03*
%TO.N,/AMP*%
X80000000Y-155125000D03*
X100725000Y-170625000D03*
%TO.N,Net-(U5-+OUT_R)*%
X98425000Y-164250000D03*
%TO.N,Net-(U5--OUT_R)*%
X98125000Y-167350000D03*
%TO.N,Net-(U6-LDOO)*%
X98037500Y-151787500D03*
X90675000Y-158925000D03*
%TO.N,Net-(U5-+OUT_L)*%
X89750000Y-164980000D03*
X86700000Y-178925000D03*
%TO.N,Net-(U5--OUT_L)*%
X89825000Y-178700000D03*
X89850000Y-167520000D03*
%TO.N,Net-(U6-OUTR)*%
X88150000Y-154575000D03*
X82500000Y-154575000D03*
X80337500Y-156712500D03*
X71500000Y-159900000D03*
%TO.N,PGND*%
X97100000Y-177150000D03*
X85075000Y-166425000D03*
X98550000Y-171330000D03*
X89775000Y-166250000D03*
%TD*%
D24*
%TO.N,Net-(C18-Pad1)*%
X89625000Y-173750000D02*
X89487500Y-173750000D01*
X89487500Y-173750000D02*
X86362500Y-170625000D01*
%TO.N,Net-(U5--OUT_L)*%
X89850000Y-167520000D02*
X87355000Y-167520000D01*
X87355000Y-167520000D02*
X85600000Y-169275000D01*
X85600000Y-169275000D02*
X85600000Y-176650000D01*
X87650000Y-178700000D02*
X89825000Y-178700000D01*
X85600000Y-176650000D02*
X87650000Y-178700000D01*
%TO.N,Net-(U5-+OUT_R)*%
X98425000Y-164250000D02*
X101550000Y-164250000D01*
X101550000Y-164250000D02*
X102000000Y-164700000D01*
X102000000Y-180550000D02*
X98700000Y-183850000D01*
X102000000Y-164700000D02*
X102000000Y-180550000D01*
%TO.N,Net-(U5--OUT_R)*%
X98125000Y-167350000D02*
X99225000Y-167350000D01*
X95950000Y-184600000D02*
X94900000Y-184600000D01*
X99225000Y-167350000D02*
X101475000Y-169600000D01*
X101475000Y-169600000D02*
X101475000Y-179075000D01*
X101475000Y-179075000D02*
X95950000Y-184600000D01*
%TO.N,Net-(U6-OUTR)*%
X80337500Y-156712500D02*
X80150000Y-156525000D01*
X80150000Y-156525000D02*
X76175000Y-156525000D01*
X72800000Y-159900000D02*
X71500000Y-159900000D01*
X76175000Y-156525000D02*
X72800000Y-159900000D01*
%TO.N,/MUTE_AMP*%
X80325000Y-109625000D02*
X83925000Y-109625000D01*
%TO.N,Net-(C3-Pad2)*%
X49975000Y-105725000D02*
X53325000Y-105725000D01*
X58550000Y-100500000D02*
X59275000Y-100500000D01*
X53325000Y-105725000D02*
X58550000Y-100500000D01*
%TO.N,/I2S_DOUT*%
X89775000Y-121400000D02*
X89775000Y-129075000D01*
X91225000Y-119950000D02*
X89775000Y-121400000D01*
%TO.N,/MOSI*%
X93937500Y-101662500D02*
X92825000Y-102775000D01*
X92825000Y-102775000D02*
X90250000Y-102775000D01*
X90250000Y-102775000D02*
X90225000Y-102750000D01*
X94400000Y-98400000D02*
X98525000Y-98400000D01*
%TO.N,/CS*%
X89750000Y-100800000D02*
X89525000Y-100575000D01*
X89525000Y-100575000D02*
X89525000Y-97625000D01*
X89525000Y-97625000D02*
X92475000Y-97625000D01*
X70625000Y-95300000D02*
X72950000Y-97625000D01*
X72950000Y-97625000D02*
X89525000Y-97625000D01*
X92475000Y-97625000D02*
X94050000Y-99200000D01*
%TO.N,/I2S_DOUT*%
X102312500Y-154212500D02*
X104300000Y-152225000D01*
X104300000Y-152225000D02*
X104300000Y-148400000D01*
X104300000Y-148400000D02*
X104550000Y-148150000D01*
%TO.N,/I2S_LRCK*%
X103775000Y-147975000D02*
X103800000Y-147975000D01*
X103775000Y-152075000D02*
X103775000Y-147975000D01*
X101550000Y-153450000D02*
X102400000Y-153450000D01*
X102400000Y-153450000D02*
X103775000Y-152075000D01*
X103800000Y-147975000D02*
X105700000Y-146075000D01*
%TO.N,Net-(U6-CAPP)*%
X88087500Y-151162500D02*
X91412500Y-151162500D01*
X91412500Y-151162500D02*
X94900000Y-147675000D01*
X94900000Y-147675000D02*
X94900000Y-146125000D01*
X94900000Y-146125000D02*
X94100000Y-145325000D01*
%TO.N,Net-(U6-CAPM)*%
X98025000Y-146900000D02*
X91975000Y-152950000D01*
X91975000Y-152950000D02*
X88025000Y-152950000D01*
%TO.N,/BAT_SENSE*%
X89950000Y-108250000D02*
X90325000Y-108250000D01*
X69400000Y-95900000D02*
X72025000Y-98525000D01*
X75300000Y-103250000D02*
X81750000Y-103250000D01*
X72025000Y-99975000D02*
X75300000Y-103250000D01*
X86742172Y-108242172D02*
X89942172Y-108242172D01*
X81750000Y-103250000D02*
X86742172Y-108242172D01*
X72025000Y-98525000D02*
X72025000Y-99975000D01*
X89942172Y-108242172D02*
X89950000Y-108250000D01*
%TO.N,/MISO*%
X74435000Y-93310000D02*
X76150000Y-95025000D01*
X74435000Y-93125000D02*
X74435000Y-93310000D01*
X76150000Y-95025000D02*
X90050000Y-95025000D01*
X90050000Y-95025000D02*
X91087500Y-93987500D01*
%TO.N,/SCK*%
X90025000Y-95750000D02*
X90100000Y-95675000D01*
X91150000Y-95675000D02*
X92225000Y-94600000D01*
X90100000Y-95675000D02*
X91150000Y-95675000D01*
X92225000Y-94600000D02*
X96975000Y-94600000D01*
X96975000Y-94600000D02*
X101215000Y-98840000D01*
X101215000Y-98840000D02*
X106028401Y-98840000D01*
X73165000Y-93764829D02*
X73165000Y-93750000D01*
X90025000Y-95750000D02*
X89250000Y-95750000D01*
X89250000Y-95750000D02*
X89200000Y-95800000D01*
X89200000Y-95800000D02*
X75200171Y-95800000D01*
X75200171Y-95800000D02*
X73165000Y-93764829D01*
%TO.N,/MOSI*%
X71895000Y-94525000D02*
X71895000Y-94542680D01*
X71895000Y-94542680D02*
X73927320Y-96575000D01*
X98525000Y-98400000D02*
X101165001Y-101040001D01*
X73927320Y-96575000D02*
X92150000Y-96575000D01*
X101165001Y-101040001D02*
X106028401Y-101040001D01*
X93975000Y-98400000D02*
X94400000Y-98400000D01*
X92150000Y-96575000D02*
X93975000Y-98400000D01*
%TO.N,/MUTE*%
X86250000Y-105625000D02*
X79225000Y-98600000D01*
%TO.N,/RAD_IN*%
X81569916Y-110555084D02*
X81569916Y-110580084D01*
X68125000Y-110975000D02*
X67375000Y-110225000D01*
X61100000Y-110225000D02*
X60175000Y-109300000D01*
X67375000Y-110225000D02*
X61100000Y-110225000D01*
X81569916Y-110580084D02*
X81175000Y-110975000D01*
X81175000Y-110975000D02*
X68125000Y-110975000D01*
X60175000Y-109300000D02*
X60175000Y-107300000D01*
%TO.N,Net-(Q1-G)*%
X87800000Y-74425000D02*
X87800000Y-69200000D01*
X86900000Y-68300000D02*
X54025000Y-68300000D01*
X87800000Y-69200000D02*
X86900000Y-68300000D01*
X54025000Y-68300000D02*
X53175000Y-69150000D01*
%TO.N,/GPIO0*%
X84550000Y-91900000D02*
X84650000Y-92000000D01*
X91575000Y-92000000D02*
X93450000Y-90125000D01*
X93450000Y-90125000D02*
X93425000Y-90100000D01*
X93425000Y-90100000D02*
X93425000Y-86650000D01*
X84650000Y-92000000D02*
X91575000Y-92000000D01*
%TO.N,/Audio4/DAC_MONO*%
X93287500Y-140112500D02*
X93300000Y-140100000D01*
X91900000Y-141500000D02*
X93287500Y-140112500D01*
X91900000Y-145500000D02*
X91900000Y-141500000D01*
%TO.N,/MISO*%
X91150000Y-93925000D02*
X91087500Y-93987500D01*
X97675000Y-93925000D02*
X91150000Y-93925000D01*
X106028401Y-96639999D02*
X100389999Y-96639999D01*
X100389999Y-96639999D02*
X97675000Y-93925000D01*
%TO.N,Net-(J3-DAT2)*%
X107450000Y-103175000D02*
X106093402Y-103175000D01*
X106093402Y-103175000D02*
X106028401Y-103240001D01*
%TO.N,Net-(J3-DAT1)*%
X106012500Y-94400000D02*
X106012500Y-95524098D01*
X106012500Y-95524098D02*
X106028401Y-95539999D01*
%TO.N,/Audio4/DAC_MONO*%
X100025000Y-138300000D02*
X92500000Y-138300000D01*
X101925000Y-136400000D02*
X100025000Y-138300000D01*
%TO.N,/Audio4/AMP_MONO*%
X104300000Y-135150000D02*
X104300000Y-136825000D01*
X86300000Y-139225000D02*
X85050000Y-140475000D01*
X104300000Y-136825000D02*
X101900000Y-139225000D01*
X101900000Y-139225000D02*
X86300000Y-139225000D01*
%TO.N,Net-(JP6-A)*%
X95450000Y-133250000D02*
X91225000Y-137475000D01*
X91225000Y-137475000D02*
X91225000Y-137675000D01*
%TO.N,/Audio4/OUTR*%
X105825000Y-154350000D02*
X104075000Y-154350000D01*
X100425000Y-146100000D02*
X96875000Y-142550000D01*
X104075000Y-154350000D02*
X101925000Y-156500000D01*
X101925000Y-156500000D02*
X100525000Y-156500000D01*
X100525000Y-156500000D02*
X100425000Y-156400000D01*
X100425000Y-156400000D02*
X100425000Y-146100000D01*
X96875000Y-142550000D02*
X93375000Y-142550000D01*
%TO.N,/Audio4/OUTL*%
X98912500Y-145912500D02*
X99750000Y-146750000D01*
X99750000Y-146750000D02*
X99750000Y-158200000D01*
X99750000Y-158200000D02*
X101000000Y-159450000D01*
X101000000Y-159450000D02*
X105925000Y-159450000D01*
%TO.N,/I2S_BCK*%
X101875000Y-155500000D02*
X102100000Y-155500000D01*
X102100000Y-155500000D02*
X105800000Y-151800000D01*
X105800000Y-151800000D02*
X105800000Y-149675000D01*
D25*
%TO.N,Net-(Q1-D)*%
X65150000Y-95900000D02*
X65150000Y-94500000D01*
X53725000Y-107325000D02*
X65150000Y-95900000D01*
X53700000Y-120625000D02*
X53700000Y-107350000D01*
D24*
%TO.N,/Audio4/OUTR*%
X84825000Y-147700000D02*
X83425000Y-149100000D01*
X74250000Y-160725000D02*
X77250000Y-157725000D01*
X93725000Y-147700000D02*
X84825000Y-147700000D01*
X77250000Y-157725000D02*
X81425000Y-157725000D01*
X71500000Y-160725000D02*
X74250000Y-160725000D01*
X93375000Y-142550000D02*
X93375000Y-147350000D01*
X93375000Y-147350000D02*
X93725000Y-147700000D01*
%TO.N,/I2S_DOUT*%
X103625000Y-144525000D02*
X105650000Y-142500000D01*
X103625000Y-146950000D02*
X103625000Y-144525000D01*
%TO.N,/CS*%
X101050000Y-102075000D02*
X101114927Y-102139927D01*
X98175000Y-99200000D02*
X101050000Y-102075000D01*
X101114927Y-102139927D02*
X105628402Y-102139927D01*
X94050000Y-99200000D02*
X98175000Y-99200000D01*
%TO.N,/EN*%
X68637500Y-69137500D02*
X82062500Y-69137500D01*
X86675000Y-70550000D02*
X86975000Y-70250000D01*
X83650000Y-70625000D02*
X86675000Y-70625000D01*
X86675000Y-70625000D02*
X86675000Y-70550000D01*
X83600000Y-70675000D02*
X83650000Y-70625000D01*
X82062500Y-69137500D02*
X83600000Y-70675000D01*
D26*
%TO.N,GND*%
X108628401Y-94750000D02*
X108925000Y-94453401D01*
D25*
X109628401Y-109600000D02*
X109628401Y-107900002D01*
D26*
X108925000Y-94453401D02*
X108925000Y-91603400D01*
D24*
X104085000Y-97740000D02*
X104075000Y-97750000D01*
X106228401Y-97740000D02*
X104085000Y-97740000D01*
%TO.N,Net-(J1-CC2)*%
X53975000Y-182100000D02*
X59925000Y-182100000D01*
X59925000Y-182100000D02*
X61825000Y-180200000D01*
X61825000Y-180200000D02*
X61825000Y-178250000D01*
X53700000Y-181825000D02*
X53975000Y-182100000D01*
X61825000Y-178250000D02*
X61850000Y-178225000D01*
%TO.N,+3.3V*%
X108760000Y-99940000D02*
X106228401Y-99940000D01*
X108775000Y-99925000D02*
X108760000Y-99940000D01*
%TO.N,/RAD_IN*%
X81600000Y-92600000D02*
X66550000Y-77550000D01*
X62275000Y-77550000D02*
X62250000Y-77575000D01*
X66550000Y-77550000D02*
X62275000Y-77550000D01*
X81600000Y-93975000D02*
X81600000Y-92600000D01*
%TO.N,/MUTE_AMP*%
X83925000Y-109625000D02*
X84400000Y-110100000D01*
%TO.N,/AMP*%
X97350000Y-164925000D02*
X97350000Y-169300000D01*
X88775000Y-163900000D02*
X96325000Y-163900000D01*
X98325000Y-170275000D02*
X100375000Y-170275000D01*
X100375000Y-170275000D02*
X100725000Y-170625000D01*
X80000000Y-155125000D02*
X88775000Y-163900000D01*
X96325000Y-163900000D02*
X97350000Y-164925000D01*
X97350000Y-169300000D02*
X98325000Y-170275000D01*
%TO.N,Net-(U6-LDOO)*%
X90675000Y-158925000D02*
X90675000Y-158800000D01*
X92325000Y-157150000D02*
X92325000Y-154850000D01*
X90675000Y-158800000D02*
X92325000Y-157150000D01*
X95225000Y-151950000D02*
X97875000Y-151950000D01*
X92325000Y-154850000D02*
X95225000Y-151950000D01*
X90675000Y-159100000D02*
X90675000Y-158925000D01*
X97875000Y-151950000D02*
X98037500Y-151787500D01*
%TO.N,Net-(U5-+OUT_L)*%
X84475000Y-169150000D02*
X84475000Y-176700000D01*
X84475000Y-176700000D02*
X86700000Y-178925000D01*
X89750000Y-164980000D02*
X88645000Y-164980000D01*
X88645000Y-164980000D02*
X84475000Y-169150000D01*
%TO.N,Net-(U6-OUTR)*%
X82800000Y-154575000D02*
X88150000Y-154575000D01*
%TD*%
M02*
