%TF.GenerationSoftware,KiCad,Pcbnew,9.0.0*%
%TF.CreationDate,2025-08-08T14:04:16-04:00*%
%TF.ProjectId,Messages4,4d657373-6167-4657-9334-2e6b69636164,rev?*%
%TF.SameCoordinates,Original*%
%TF.FileFunction,Copper,L1,Top*%
%TF.FilePolarity,Positive*%
%FSLAX46Y46*%
G04 Gerber Fmt 4.6, Leading zero omitted, Abs format (unit mm)*
G04 Created by KiCad (PCBNEW 9.0.0) date 2025-08-08 14:04:16*
%MOMM*%
%LPD*%
G01*
G04 APERTURE LIST*
G04 Aperture macros list*
%AMRoundRect*
0 Rectangle with rounded corners*
0 $1 Rounding radius*
0 $2 $3 $4 $5 $6 $7 $8 $9 X,Y pos of 4 corners*
0 Add a 4 corners polygon primitive as box body*
4,1,4,$2,$3,$4,$5,$6,$7,$8,$9,$2,$3,0*
0 Add four circle primitives for the rounded corners*
1,1,$1+$1,$2,$3*
1,1,$1+$1,$4,$5*
1,1,$1+$1,$6,$7*
1,1,$1+$1,$8,$9*
0 Add four rect primitives between the rounded corners*
20,1,$1+$1,$2,$3,$4,$5,0*
20,1,$1+$1,$4,$5,$6,$7,0*
20,1,$1+$1,$6,$7,$8,$9,0*
20,1,$1+$1,$8,$9,$2,$3,0*%
%AMFreePoly0*
4,1,23,0.500000,-0.750000,0.000000,-0.750000,0.000000,-0.745722,-0.065263,-0.745722,-0.191342,-0.711940,-0.304381,-0.646677,-0.396677,-0.554381,-0.461940,-0.441342,-0.495722,-0.315263,-0.495722,-0.250000,-0.500000,-0.250000,-0.500000,0.250000,-0.495722,0.250000,-0.495722,0.315263,-0.461940,0.441342,-0.396677,0.554381,-0.304381,0.646677,-0.191342,0.711940,-0.065263,0.745722,0.000000,0.745722,
0.000000,0.750000,0.500000,0.750000,0.500000,-0.750000,0.500000,-0.750000,$1*%
%AMFreePoly1*
4,1,23,0.000000,0.745722,0.065263,0.745722,0.191342,0.711940,0.304381,0.646677,0.396677,0.554381,0.461940,0.441342,0.495722,0.315263,0.495722,0.250000,0.500000,0.250000,0.500000,-0.250000,0.495722,-0.250000,0.495722,-0.315263,0.461940,-0.441342,0.396677,-0.554381,0.304381,-0.646677,0.191342,-0.711940,0.065263,-0.745722,0.000000,-0.745722,0.000000,-0.750000,-0.500000,-0.750000,
-0.500000,0.750000,0.000000,0.750000,0.000000,0.745722,0.000000,0.745722,$1*%
G04 Aperture macros list end*
%TA.AperFunction,ComponentPad*%
%ADD10C,2.000000*%
%TD*%
%TA.AperFunction,SMDPad,CuDef*%
%ADD11RoundRect,0.250000X0.262500X0.450000X-0.262500X0.450000X-0.262500X-0.450000X0.262500X-0.450000X0*%
%TD*%
%TA.AperFunction,SMDPad,CuDef*%
%ADD12RoundRect,0.250000X0.250000X0.475000X-0.250000X0.475000X-0.250000X-0.475000X0.250000X-0.475000X0*%
%TD*%
%TA.AperFunction,SMDPad,CuDef*%
%ADD13RoundRect,0.250000X-0.262500X-0.450000X0.262500X-0.450000X0.262500X0.450000X-0.262500X0.450000X0*%
%TD*%
%TA.AperFunction,SMDPad,CuDef*%
%ADD14RoundRect,0.250000X-0.250000X-0.475000X0.250000X-0.475000X0.250000X0.475000X-0.250000X0.475000X0*%
%TD*%
%TA.AperFunction,SMDPad,CuDef*%
%ADD15R,0.760000X1.910000*%
%TD*%
%TA.AperFunction,SMDPad,CuDef*%
%ADD16R,0.150000X1.000000*%
%TD*%
%TA.AperFunction,SMDPad,CuDef*%
%ADD17RoundRect,0.112500X0.187500X0.112500X-0.187500X0.112500X-0.187500X-0.112500X0.187500X-0.112500X0*%
%TD*%
%TA.AperFunction,SMDPad,CuDef*%
%ADD18RoundRect,0.150000X-0.587500X-0.150000X0.587500X-0.150000X0.587500X0.150000X-0.587500X0.150000X0*%
%TD*%
%TA.AperFunction,SMDPad,CuDef*%
%ADD19R,3.302000X1.117600*%
%TD*%
%TA.AperFunction,SMDPad,CuDef*%
%ADD20R,6.400800X5.689600*%
%TD*%
%TA.AperFunction,SMDPad,CuDef*%
%ADD21R,2.260000X1.510000*%
%TD*%
%TA.AperFunction,SMDPad,CuDef*%
%ADD22RoundRect,0.243750X0.243750X0.456250X-0.243750X0.456250X-0.243750X-0.456250X0.243750X-0.456250X0*%
%TD*%
%TA.AperFunction,ComponentPad*%
%ADD23RoundRect,0.635000X-0.635000X-0.635000X0.635000X-0.635000X0.635000X0.635000X-0.635000X0.635000X0*%
%TD*%
%TA.AperFunction,ComponentPad*%
%ADD24RoundRect,0.635000X0.635000X0.635000X-0.635000X0.635000X-0.635000X-0.635000X0.635000X-0.635000X0*%
%TD*%
%TA.AperFunction,SMDPad,CuDef*%
%ADD25RoundRect,0.250000X0.450000X-0.262500X0.450000X0.262500X-0.450000X0.262500X-0.450000X-0.262500X0*%
%TD*%
%TA.AperFunction,SMDPad,CuDef*%
%ADD26RoundRect,0.218750X0.256250X-0.218750X0.256250X0.218750X-0.256250X0.218750X-0.256250X-0.218750X0*%
%TD*%
%TA.AperFunction,SMDPad,CuDef*%
%ADD27RoundRect,0.250000X-0.650000X-2.450000X0.650000X-2.450000X0.650000X2.450000X-0.650000X2.450000X0*%
%TD*%
%TA.AperFunction,ComponentPad*%
%ADD28RoundRect,0.412500X0.412500X-0.412500X0.412500X0.412500X-0.412500X0.412500X-0.412500X-0.412500X0*%
%TD*%
%TA.AperFunction,ComponentPad*%
%ADD29C,1.650000*%
%TD*%
%TA.AperFunction,SMDPad,CuDef*%
%ADD30FreePoly0,90.000000*%
%TD*%
%TA.AperFunction,SMDPad,CuDef*%
%ADD31FreePoly1,90.000000*%
%TD*%
%TA.AperFunction,SMDPad,CuDef*%
%ADD32RoundRect,0.250000X-1.425000X0.362500X-1.425000X-0.362500X1.425000X-0.362500X1.425000X0.362500X0*%
%TD*%
%TA.AperFunction,SMDPad,CuDef*%
%ADD33R,1.500000X0.449999*%
%TD*%
%TA.AperFunction,SMDPad,CuDef*%
%ADD34RoundRect,0.250000X-0.450000X0.262500X-0.450000X-0.262500X0.450000X-0.262500X0.450000X0.262500X0*%
%TD*%
%TA.AperFunction,SMDPad,CuDef*%
%ADD35RoundRect,0.250000X0.375000X0.850000X-0.375000X0.850000X-0.375000X-0.850000X0.375000X-0.850000X0*%
%TD*%
%TA.AperFunction,SMDPad,CuDef*%
%ADD36R,0.890000X1.130000*%
%TD*%
%TA.AperFunction,ComponentPad*%
%ADD37O,1.498600X2.006600*%
%TD*%
%TA.AperFunction,SMDPad,CuDef*%
%ADD38FreePoly0,0.000000*%
%TD*%
%TA.AperFunction,SMDPad,CuDef*%
%ADD39FreePoly1,0.000000*%
%TD*%
%TA.AperFunction,SMDPad,CuDef*%
%ADD40RoundRect,0.250000X-0.325000X-0.650000X0.325000X-0.650000X0.325000X0.650000X-0.325000X0.650000X0*%
%TD*%
%TA.AperFunction,SMDPad,CuDef*%
%ADD41FreePoly0,180.000000*%
%TD*%
%TA.AperFunction,SMDPad,CuDef*%
%ADD42FreePoly1,180.000000*%
%TD*%
%TA.AperFunction,SMDPad,CuDef*%
%ADD43RoundRect,0.150000X-0.850000X-0.150000X0.850000X-0.150000X0.850000X0.150000X-0.850000X0.150000X0*%
%TD*%
%TA.AperFunction,SMDPad,CuDef*%
%ADD44RoundRect,0.250000X-0.362500X-1.425000X0.362500X-1.425000X0.362500X1.425000X-0.362500X1.425000X0*%
%TD*%
%TA.AperFunction,SMDPad,CuDef*%
%ADD45R,0.650000X1.050000*%
%TD*%
%TA.AperFunction,SMDPad,CuDef*%
%ADD46RoundRect,0.250000X-0.475000X0.250000X-0.475000X-0.250000X0.475000X-0.250000X0.475000X0.250000X0*%
%TD*%
%TA.AperFunction,SMDPad,CuDef*%
%ADD47RoundRect,0.250000X0.312500X1.075000X-0.312500X1.075000X-0.312500X-1.075000X0.312500X-1.075000X0*%
%TD*%
%TA.AperFunction,SMDPad,CuDef*%
%ADD48RoundRect,0.150000X-0.512500X-0.150000X0.512500X-0.150000X0.512500X0.150000X-0.512500X0.150000X0*%
%TD*%
%TA.AperFunction,SMDPad,CuDef*%
%ADD49R,0.600000X1.150000*%
%TD*%
%TA.AperFunction,SMDPad,CuDef*%
%ADD50R,0.300000X1.200000*%
%TD*%
%TA.AperFunction,ComponentPad*%
%ADD51O,1.000000X2.100000*%
%TD*%
%TA.AperFunction,ComponentPad*%
%ADD52RoundRect,0.250000X-0.250000X-0.650000X0.250000X-0.650000X0.250000X0.650000X-0.250000X0.650000X0*%
%TD*%
%TA.AperFunction,SMDPad,CuDef*%
%ADD53RoundRect,0.250000X0.475000X-0.250000X0.475000X0.250000X-0.475000X0.250000X-0.475000X-0.250000X0*%
%TD*%
%TA.AperFunction,SMDPad,CuDef*%
%ADD54RoundRect,0.100000X-0.637500X-0.100000X0.637500X-0.100000X0.637500X0.100000X-0.637500X0.100000X0*%
%TD*%
%TA.AperFunction,SMDPad,CuDef*%
%ADD55R,1.500000X0.900000*%
%TD*%
%TA.AperFunction,SMDPad,CuDef*%
%ADD56R,0.900000X1.500000*%
%TD*%
%TA.AperFunction,SMDPad,CuDef*%
%ADD57R,0.900000X0.900000*%
%TD*%
%TA.AperFunction,SMDPad,CuDef*%
%ADD58RoundRect,0.112500X0.112500X-0.187500X0.112500X0.187500X-0.112500X0.187500X-0.112500X-0.187500X0*%
%TD*%
%TA.AperFunction,ViaPad*%
%ADD59C,0.600000*%
%TD*%
%TA.AperFunction,ViaPad*%
%ADD60C,0.700000*%
%TD*%
%TA.AperFunction,ViaPad*%
%ADD61C,0.800000*%
%TD*%
%TA.AperFunction,Conductor*%
%ADD62C,0.254000*%
%TD*%
%TA.AperFunction,Conductor*%
%ADD63C,0.500000*%
%TD*%
%TA.AperFunction,Conductor*%
%ADD64C,2.540000*%
%TD*%
%TA.AperFunction,Conductor*%
%ADD65C,0.400000*%
%TD*%
%TA.AperFunction,Conductor*%
%ADD66C,1.000000*%
%TD*%
%TA.AperFunction,Conductor*%
%ADD67C,0.600000*%
%TD*%
%TA.AperFunction,Conductor*%
%ADD68C,0.200000*%
%TD*%
G04 APERTURE END LIST*
D10*
%TO.P,-OUTL,1,1*%
%TO.N,Net-(-OUT_L1-Pad1)*%
X91175000Y-184500000D03*
%TD*%
%TO.P,-OUTR,1,1*%
%TO.N,Net-(U5--OUT_R)*%
X95025000Y-184500000D03*
%TD*%
%TO.P,+OUTR,1,1*%
%TO.N,Net-(U5-+OUT_R)*%
X99125000Y-184500000D03*
%TD*%
%TO.P,+OUTL,1,1*%
%TO.N,Net-(+OUT_L1-Pad1)*%
X86750000Y-184500000D03*
%TD*%
D11*
%TO.P,R44,1*%
%TO.N,/Audio4/POT_OUTR*%
X96087500Y-178575000D03*
%TO.P,R44,2*%
%TO.N,Net-(C33-Pad1)*%
X94262500Y-178575000D03*
%TD*%
%TO.P,R43,1*%
%TO.N,/Audio4/POT_OUTL*%
X88187500Y-169675000D03*
%TO.P,R43,2*%
%TO.N,Net-(C18-Pad1)*%
X86362500Y-169675000D03*
%TD*%
D12*
%TO.P,C33,1*%
%TO.N,Net-(C33-Pad1)*%
X89225000Y-175975000D03*
%TO.P,C33,2*%
%TO.N,/Audio4/AMP_MONO*%
X87325000Y-175975000D03*
%TD*%
D13*
%TO.P,R3,1*%
%TO.N,/RAD_IN*%
X63087508Y-105450000D03*
%TO.P,R3,2*%
%TO.N,+3.3V*%
X64912508Y-105450000D03*
%TD*%
D11*
%TO.P,R30,1*%
%TO.N,/Audio4/OUTL*%
X91900000Y-148825000D03*
%TO.P,R30,2*%
%TO.N,Net-(U6-OUTL)*%
X90075000Y-148825000D03*
%TD*%
D10*
%TO.P,OUTL1,1,1*%
%TO.N,/Audio4/OUTL*%
X105925000Y-159450000D03*
%TD*%
D14*
%TO.P,C17,1*%
%TO.N,+3.3V*%
X78750000Y-92200000D03*
%TO.P,C17,2*%
%TO.N,GND*%
X80650000Y-92200000D03*
%TD*%
D15*
%TO.P,T1,1,1*%
%TO.N,unconnected-(T1-Pad1)*%
X48912500Y-142405000D03*
%TO.P,T1,2*%
%TO.N,Net-(R6-Pad1)*%
X50512500Y-142405000D03*
%TO.P,T1,3*%
%TO.N,unconnected-(T1-Pad3)*%
X52112500Y-142405000D03*
%TO.P,T1,4*%
%TO.N,Net-(Q1-D)*%
X53712500Y-142405000D03*
D16*
%TO.P,T1,5,5*%
%TO.N,unconnected-(T1-Pad5)*%
X55282500Y-142405000D03*
D15*
%TO.P,T1,6*%
%TO.N,Net-(D1-A)*%
X56912500Y-142405000D03*
%TO.P,T1,7*%
%TO.N,Net-(C2-Pad1)*%
X55942500Y-111475000D03*
%TO.P,T1,8,8*%
%TO.N,unconnected-(T1-Pad8)*%
X50342500Y-111475000D03*
%TO.P,T1,9,9*%
%TO.N,unconnected-(T1-Pad9)*%
X48912500Y-111435000D03*
%TD*%
D11*
%TO.P,R21,1*%
%TO.N,/I2S_BCK*%
X87112500Y-85475000D03*
%TO.P,R21,2*%
%TO.N,Net-(U4-IO35)*%
X85287500Y-85475000D03*
%TD*%
%TO.P,R12,1*%
%TO.N,/GPIO0*%
X105712500Y-77500000D03*
%TO.P,R12,2*%
%TO.N,+3.3V*%
X103887500Y-77500000D03*
%TD*%
D17*
%TO.P,D10,1,1*%
%TO.N,GND*%
X64050000Y-174350000D03*
%TO.P,D10,2,2*%
%TO.N,/USB_D+*%
X61950000Y-174350000D03*
%TD*%
D11*
%TO.P,R39,1*%
%TO.N,+3.3V*%
X92837500Y-102750000D03*
%TO.P,R39,2*%
%TO.N,/MOSI*%
X91012500Y-102750000D03*
%TD*%
D18*
%TO.P,Q1,1,G*%
%TO.N,Net-(Q1-G)*%
X51200000Y-82800000D03*
%TO.P,Q1,2,S*%
%TO.N,GND*%
X51200000Y-84700000D03*
%TO.P,Q1,3,D*%
%TO.N,Net-(Q1-D)*%
X53075000Y-83750000D03*
%TD*%
D10*
%TO.P,GND1,1,1*%
%TO.N,GND*%
X50400000Y-162675000D03*
%TD*%
D11*
%TO.P,R26,1*%
%TO.N,Net-(J1-CC2)*%
X53712500Y-183250000D03*
%TO.P,R26,2*%
%TO.N,GND*%
X51887500Y-183250000D03*
%TD*%
%TO.P,R37,1*%
%TO.N,+3.3V*%
X92812500Y-98575000D03*
%TO.P,R37,2*%
%TO.N,/MISO*%
X90987500Y-98575000D03*
%TD*%
D14*
%TO.P,C3,1*%
%TO.N,/Power4/ANODE*%
X48000000Y-107000000D03*
%TO.P,C3,2*%
%TO.N,Net-(C3-Pad2)*%
X49900000Y-107000000D03*
%TD*%
D19*
%TO.P,U2,1,IN*%
%TO.N,VBUS*%
X65371800Y-126639000D03*
D20*
%TO.P,U2,2,GND*%
%TO.N,GND*%
X71925000Y-128925000D03*
D19*
%TO.P,U2,3,OUT*%
%TO.N,+3.3V*%
X65371800Y-131211000D03*
%TD*%
D10*
%TO.P,5V1,1,1*%
%TO.N,+5V*%
X63550000Y-153175000D03*
%TD*%
D11*
%TO.P,R31,1*%
%TO.N,/Audio4/DAC_MONO*%
X91900000Y-146625000D03*
%TO.P,R31,2*%
%TO.N,Net-(JP4-A)*%
X90075000Y-146625000D03*
%TD*%
%TO.P,R13,1*%
%TO.N,/EN*%
X98912500Y-77600000D03*
%TO.P,R13,2*%
%TO.N,+3.3V*%
X97087500Y-77600000D03*
%TD*%
D21*
%TO.P,D2,1,K*%
%TO.N,Net-(D1-A)*%
X40030000Y-70300000D03*
%TO.P,D2,2,A*%
%TO.N,/Power4/CATHODE*%
X43370000Y-70300000D03*
%TD*%
D14*
%TO.P,C8,1*%
%TO.N,VBUS*%
X70573100Y-124125000D03*
%TO.P,C8,2*%
%TO.N,GND*%
X72473100Y-124125000D03*
%TD*%
D22*
%TO.P,D5,1,K*%
%TO.N,GND*%
X101437500Y-116200000D03*
%TO.P,D5,2,A*%
%TO.N,Net-(D5-A)*%
X99562500Y-116200000D03*
%TD*%
D23*
%TO.P,F1,1,1*%
%TO.N,/Power4/ANODE*%
X40700000Y-184477500D03*
X40700000Y-176857500D03*
D24*
%TO.P,F1,2,2*%
%TO.N,/Power4/CATHODE*%
X40695000Y-82582500D03*
X40695000Y-74962500D03*
%TD*%
D11*
%TO.P,R23,1*%
%TO.N,/I2S_LRCK*%
X87137500Y-83230000D03*
%TO.P,R23,2*%
%TO.N,Net-(U4-IO36)*%
X85312500Y-83230000D03*
%TD*%
D14*
%TO.P,C27,1*%
%TO.N,+3.3V*%
X94525000Y-160850000D03*
%TO.P,C27,2*%
%TO.N,AGND*%
X96425000Y-160850000D03*
%TD*%
%TO.P,C19,1*%
%TO.N,Net-(U6-CAPP)*%
X94900000Y-146625000D03*
%TO.P,C19,2*%
%TO.N,Net-(U6-CAPM)*%
X96800000Y-146625000D03*
%TD*%
D25*
%TO.P,R9,1*%
%TO.N,GND*%
X58900000Y-88112500D03*
%TO.P,R9,2*%
%TO.N,Net-(Q1-D)*%
X58900000Y-86287500D03*
%TD*%
D14*
%TO.P,C12,1*%
%TO.N,+5V*%
X65950000Y-146240000D03*
%TO.P,C12,2*%
%TO.N,GND*%
X67850000Y-146240000D03*
%TD*%
%TO.P,C25,1*%
%TO.N,Net-(U6-VNEG)*%
X94500000Y-158550000D03*
%TO.P,C25,2*%
%TO.N,AGND*%
X96400000Y-158550000D03*
%TD*%
%TO.P,C31,1*%
%TO.N,VBUS*%
X99150000Y-173950000D03*
%TO.P,C31,2*%
%TO.N,PGND*%
X101050000Y-173950000D03*
%TD*%
D26*
%TO.P,FB2,1*%
%TO.N,Net-(-OUT_L1-Pad1)*%
X90925000Y-181987500D03*
%TO.P,FB2,2*%
%TO.N,Net-(U5--OUT_L)*%
X90925000Y-180412500D03*
%TD*%
D27*
%TO.P,C2,1*%
%TO.N,Net-(C2-Pad1)*%
X47900000Y-90400000D03*
%TO.P,C2,2*%
%TO.N,Net-(D1-K)*%
X53000000Y-90400000D03*
%TD*%
D28*
%TO.P,RV1,1,1*%
%TO.N,/Audio4/DAC_MONO*%
X108137500Y-136440000D03*
D29*
%TO.P,RV1,2,2*%
%TO.N,/Audio4/AMP_MONO*%
X108137500Y-133900000D03*
%TO.P,RV1,3,3*%
%TO.N,AGND*%
X108137500Y-131360000D03*
%TD*%
D11*
%TO.P,R16,1*%
%TO.N,Net-(D6-A)*%
X97400000Y-118500000D03*
%TO.P,R16,2*%
%TO.N,+3.3V*%
X95575000Y-118500000D03*
%TD*%
D10*
%TO.P,LRCK1,1,1*%
%TO.N,/I2S_LRCK*%
X105700000Y-146075000D03*
%TD*%
D14*
%TO.P,C11,1*%
%TO.N,GND*%
X97050000Y-79900000D03*
%TO.P,C11,2*%
%TO.N,/EN*%
X98950000Y-79900000D03*
%TD*%
%TO.P,C24,1*%
%TO.N,Net-(U5-VREF)*%
X91125000Y-175900000D03*
%TO.P,C24,2*%
%TO.N,PGND*%
X93025000Y-175900000D03*
%TD*%
D27*
%TO.P,C4,1*%
%TO.N,/Power4/CATHODE*%
X47750000Y-76300000D03*
%TO.P,C4,2*%
%TO.N,Net-(C2-Pad1)*%
X52850000Y-76300000D03*
%TD*%
D11*
%TO.P,R14,1*%
%TO.N,Net-(D4-A)*%
X97450000Y-113900000D03*
%TO.P,R14,2*%
%TO.N,/I2S_DOUT*%
X95625000Y-113900000D03*
%TD*%
D10*
%TO.P,DRAIN1,1,1*%
%TO.N,Net-(Q1-D)*%
X65150000Y-94500000D03*
%TD*%
D30*
%TO.P,JP8,1,A*%
%TO.N,PGND*%
X85775000Y-164750000D03*
D31*
%TO.P,JP8,2,B*%
%TO.N,AGND*%
X85775000Y-163450000D03*
%TD*%
D32*
%TO.P,R6,1*%
%TO.N,Net-(R6-Pad1)*%
X50500000Y-147237500D03*
%TO.P,R6,2*%
%TO.N,VBUS*%
X50500000Y-153162500D03*
%TD*%
D33*
%TO.P,U1,1,1OUT*%
%TO.N,/RAD_IN*%
X63000024Y-107275001D03*
%TO.P,U1,2,1IN-*%
%TO.N,Net-(U1A-1IN-)*%
X63000024Y-107924999D03*
%TO.P,U1,3,1IN+*%
%TO.N,Net-(U1A-1IN+)*%
X63000024Y-108575001D03*
%TO.P,U1,4,GND*%
%TO.N,GND*%
X63000024Y-109224999D03*
%TO.P,U1,5,2IN+*%
%TO.N,Net-(JP1-A)*%
X68799992Y-109224999D03*
%TO.P,U1,6,2IN-*%
%TO.N,Net-(JP3-A)*%
X68799992Y-108575001D03*
%TO.P,U1,7,2OUT*%
%TO.N,Net-(JP2-B)*%
X68799992Y-107924999D03*
%TO.P,U1,8,VCC*%
%TO.N,+3.3V*%
X68799992Y-107275001D03*
%TD*%
D34*
%TO.P,R29,1*%
%TO.N,/SCL*%
X58900000Y-81375000D03*
%TO.P,R29,2*%
%TO.N,+3.3V*%
X58900000Y-83200000D03*
%TD*%
D11*
%TO.P,R27,1*%
%TO.N,/MCU4/SHELL_GND*%
X58612500Y-174050000D03*
%TO.P,R27,2*%
%TO.N,GND*%
X56787500Y-174050000D03*
%TD*%
D35*
%TO.P,L1,1,1*%
%TO.N,+3.3V*%
X72700000Y-144350000D03*
%TO.P,L1,2,2*%
%TO.N,Net-(D3-A)*%
X70550000Y-144350000D03*
%TD*%
D36*
%TO.P,C28,1*%
%TO.N,VBUS*%
X95355000Y-175925000D03*
%TO.P,C28,2*%
%TO.N,PGND*%
X97095000Y-175925000D03*
%TD*%
D10*
%TO.P,+5V1,1,1*%
%TO.N,+5V*%
X78400000Y-182500000D03*
%TD*%
D37*
%TO.P,J2,1,1*%
%TO.N,AGND*%
X107950124Y-178490435D03*
%TO.P,J2,2,2*%
%TO.N,/Audio4/OUTL*%
X103699942Y-173190433D03*
%TO.P,J2,3,3*%
%TO.N,/Audio4/OUTR*%
X109199941Y-173190433D03*
%TD*%
D17*
%TO.P,D12,1,1*%
%TO.N,GND*%
X64050000Y-176650000D03*
%TO.P,D12,2,2*%
%TO.N,VBUS*%
X61950000Y-176650000D03*
%TD*%
D11*
%TO.P,R17,1*%
%TO.N,Net-(D7-A)*%
X97450000Y-120800000D03*
%TO.P,R17,2*%
%TO.N,VBUS*%
X95625000Y-120800000D03*
%TD*%
D14*
%TO.P,C16,1*%
%TO.N,+3.3V*%
X78750000Y-89740000D03*
%TO.P,C16,2*%
%TO.N,GND*%
X80650000Y-89740000D03*
%TD*%
D13*
%TO.P,R11,1*%
%TO.N,Net-(C7-Pad2)*%
X70487500Y-153250000D03*
%TO.P,R11,2*%
%TO.N,Net-(D3-A)*%
X72312500Y-153250000D03*
%TD*%
D11*
%TO.P,R24,1*%
%TO.N,/I2S_DOUT*%
X87037500Y-80950000D03*
%TO.P,R24,2*%
%TO.N,Net-(U4-IO37)*%
X85212500Y-80950000D03*
%TD*%
D38*
%TO.P,JP2,1,A*%
%TO.N,unconnected-(JP2-A-Pad1)*%
X68550000Y-119925000D03*
D39*
%TO.P,JP2,2,B*%
%TO.N,Net-(JP2-B)*%
X69850000Y-119925000D03*
%TD*%
D11*
%TO.P,R41,1*%
%TO.N,Net-(J3-DAT1)*%
X106012500Y-92100000D03*
%TO.P,R41,2*%
%TO.N,+3.3V*%
X104187500Y-92100000D03*
%TD*%
D40*
%TO.P,C29,1*%
%TO.N,VBUS*%
X99125000Y-168750000D03*
%TO.P,C29,2*%
%TO.N,PGND*%
X102075000Y-168750000D03*
%TD*%
D12*
%TO.P,C23,1*%
%TO.N,Net-(U6-LDOO)*%
X89387500Y-158900000D03*
%TO.P,C23,2*%
%TO.N,AGND*%
X87487500Y-158900000D03*
%TD*%
D41*
%TO.P,JP7,1,A*%
%TO.N,AGND*%
X83650000Y-141450000D03*
D42*
%TO.P,JP7,2,B*%
%TO.N,GND*%
X82350000Y-141450000D03*
%TD*%
D41*
%TO.P,JP3,1,A*%
%TO.N,Net-(JP3-A)*%
X69850000Y-117225000D03*
D42*
%TO.P,JP3,2,B*%
%TO.N,GND*%
X68550000Y-117225000D03*
%TD*%
D43*
%TO.P,U5,1,+OUT_L*%
%TO.N,Net-(U5-+OUT_L)*%
X91575000Y-164980000D03*
%TO.P,U5,2,PGNDL*%
%TO.N,PGND*%
X91575000Y-166250000D03*
%TO.P,U5,3,-OUT_L*%
%TO.N,Net-(U5--OUT_L)*%
X91575000Y-167520000D03*
%TO.P,U5,4,PVDDL*%
%TO.N,VBUS*%
X91575000Y-168790000D03*
%TO.P,U5,5,~{MUTE}*%
%TO.N,/MUTE_AMP*%
X91575000Y-170060000D03*
%TO.P,U5,6,VDD*%
%TO.N,VBUS*%
X91575000Y-171330000D03*
%TO.P,U5,7,INL*%
%TO.N,/Audio4/POT_OUTL*%
X91575000Y-172600000D03*
%TO.P,U5,8,VREF*%
%TO.N,Net-(U5-VREF)*%
X91575000Y-173870000D03*
%TO.P,U5,9,MODE*%
%TO.N,VBUS*%
X96575000Y-173870000D03*
%TO.P,U5,10,INR*%
%TO.N,/Audio4/POT_OUTR*%
X96575000Y-172600000D03*
%TO.P,U5,11,GND*%
%TO.N,PGND*%
X96575000Y-171330000D03*
%TO.P,U5,12,~{SHND}*%
%TO.N,/AMP*%
X96575000Y-170060000D03*
%TO.P,U5,13,PVDDR*%
%TO.N,VBUS*%
X96575000Y-168790000D03*
%TO.P,U5,14,-OUT_R*%
%TO.N,Net-(U5--OUT_R)*%
X96575000Y-167520000D03*
%TO.P,U5,15,PGNDR*%
%TO.N,PGND*%
X96575000Y-166250000D03*
%TO.P,U5,16,+OUT_R*%
%TO.N,Net-(U5-+OUT_R)*%
X96575000Y-164980000D03*
%TD*%
D22*
%TO.P,D6,1,K*%
%TO.N,GND*%
X101425000Y-118500000D03*
%TO.P,D6,2,A*%
%TO.N,Net-(D6-A)*%
X99550000Y-118500000D03*
%TD*%
D10*
%TO.P,VBUS1,1,1*%
%TO.N,VBUS*%
X50400000Y-157850000D03*
%TD*%
%TO.P,OUTR1,1,1*%
%TO.N,/Audio4/OUTR*%
X105825000Y-154350000D03*
%TD*%
D11*
%TO.P,R32,1*%
%TO.N,/Audio4/OUTR*%
X58587500Y-171200000D03*
%TO.P,R32,2*%
%TO.N,Net-(U6-OUTR)*%
X56762500Y-171200000D03*
%TD*%
%TO.P,R38,1*%
%TO.N,+3.3V*%
X92837500Y-100700000D03*
%TO.P,R38,2*%
%TO.N,/SCK*%
X91012500Y-100700000D03*
%TD*%
D34*
%TO.P,R25,1*%
%TO.N,GND*%
X58000000Y-70087500D03*
%TO.P,R25,2*%
%TO.N,Net-(U4-IO4{slash}ADC1_CH3)*%
X58000000Y-71912500D03*
%TD*%
D17*
%TO.P,D11,1,1*%
%TO.N,GND*%
X64050000Y-172050000D03*
%TO.P,D11,2,2*%
%TO.N,/USB_D-*%
X61950000Y-172050000D03*
%TD*%
D10*
%TO.P,HIV-1,1,1*%
%TO.N,/Power4/CATHODE*%
X47425000Y-69250000D03*
%TD*%
D12*
%TO.P,C18,1*%
%TO.N,Net-(C18-Pad1)*%
X88875000Y-172600000D03*
%TO.P,C18,2*%
%TO.N,/Audio4/AMP_MONO*%
X86975000Y-172600000D03*
%TD*%
D10*
%TO.P,DOUT1,1,1*%
%TO.N,/I2S_DOUT*%
X105650000Y-142500000D03*
%TD*%
D11*
%TO.P,R22,1*%
%TO.N,Net-(J1-CC1)*%
X58612500Y-176450000D03*
%TO.P,R22,2*%
%TO.N,GND*%
X56787500Y-176450000D03*
%TD*%
D21*
%TO.P,D1,1,K*%
%TO.N,Net-(D1-K)*%
X52495000Y-98300000D03*
%TO.P,D1,2,A*%
%TO.N,Net-(D1-A)*%
X49155000Y-98300000D03*
%TD*%
D11*
%TO.P,R8,1*%
%TO.N,Net-(Q1-G)*%
X87300000Y-76330000D03*
%TO.P,R8,2*%
%TO.N,/PWM*%
X85475000Y-76330000D03*
%TD*%
D14*
%TO.P,C32,1*%
%TO.N,+3.3V*%
X96750000Y-106525000D03*
%TO.P,C32,2*%
%TO.N,GND*%
X98650000Y-106525000D03*
%TD*%
D44*
%TO.P,R4,1*%
%TO.N,/Power4/ANODE*%
X47700000Y-102900000D03*
%TO.P,R4,2*%
%TO.N,Net-(D1-K)*%
X53625000Y-102900000D03*
%TD*%
D45*
%TO.P,S1,1*%
%TO.N,/GPIO0*%
X105875000Y-71125000D03*
%TO.P,S1,2*%
X105875000Y-75275000D03*
%TO.P,S1,3*%
%TO.N,GND*%
X103725000Y-71125000D03*
%TO.P,S1,4*%
X103725000Y-75275000D03*
%TD*%
D11*
%TO.P,R42,1*%
%TO.N,Net-(J3-DAT2)*%
X106037500Y-89750000D03*
%TO.P,R42,2*%
%TO.N,+3.3V*%
X104212500Y-89750000D03*
%TD*%
%TO.P,R15,1*%
%TO.N,Net-(D5-A)*%
X97425000Y-116300000D03*
%TO.P,R15,2*%
%TO.N,+5V*%
X95600000Y-116300000D03*
%TD*%
D14*
%TO.P,C20,1*%
%TO.N,/Audio4/OUTR*%
X94850000Y-148825000D03*
%TO.P,C20,2*%
%TO.N,AGND*%
X96750000Y-148825000D03*
%TD*%
D46*
%TO.P,C26,1*%
%TO.N,+3.3V*%
X85975000Y-155075000D03*
%TO.P,C26,2*%
%TO.N,AGND*%
X85975000Y-156975000D03*
%TD*%
D14*
%TO.P,C1,1*%
%TO.N,GND*%
X67000008Y-105440000D03*
%TO.P,C1,2*%
%TO.N,+3.3V*%
X68900008Y-105440000D03*
%TD*%
D47*
%TO.P,R7,1*%
%TO.N,Net-(U1A-1IN-)*%
X64812500Y-102550000D03*
%TO.P,R7,2*%
%TO.N,Net-(C3-Pad2)*%
X61887500Y-102550000D03*
%TD*%
D14*
%TO.P,C22,1*%
%TO.N,Net-(U6-LDOO)*%
X99137500Y-151300000D03*
%TO.P,C22,2*%
%TO.N,AGND*%
X101037500Y-151300000D03*
%TD*%
D11*
%TO.P,R18,1*%
%TO.N,Net-(D8-A)*%
X97450000Y-123100000D03*
%TO.P,R18,2*%
%TO.N,/BAT_SENSE*%
X95625000Y-123100000D03*
%TD*%
D14*
%TO.P,C30,1*%
%TO.N,VBUS*%
X99150000Y-176250000D03*
%TO.P,C30,2*%
%TO.N,PGND*%
X101050000Y-176250000D03*
%TD*%
D45*
%TO.P,S2,1*%
%TO.N,/EN*%
X99075000Y-71225000D03*
%TO.P,S2,2*%
X99075000Y-75375000D03*
%TO.P,S2,3*%
%TO.N,GND*%
X96925000Y-71225000D03*
%TO.P,S2,4*%
X96925000Y-75375000D03*
%TD*%
D48*
%TO.P,U3,1,SW*%
%TO.N,Net-(D3-A)*%
X70125000Y-146950000D03*
%TO.P,U3,2,GND*%
%TO.N,GND*%
X70125000Y-147900000D03*
%TO.P,U3,3,NC*%
%TO.N,unconnected-(U3-NC-Pad3)*%
X70125000Y-148850000D03*
%TO.P,U3,4,VOUT*%
%TO.N,+5V*%
X72400000Y-148850000D03*
%TO.P,U3,5,NC*%
%TO.N,unconnected-(U3-NC-Pad5)*%
X72400000Y-146950000D03*
%TD*%
D34*
%TO.P,R28,1*%
%TO.N,/SDA*%
X61400000Y-81387500D03*
%TO.P,R28,2*%
%TO.N,+3.3V*%
X61400000Y-83212500D03*
%TD*%
D38*
%TO.P,JP4,1,A*%
%TO.N,Net-(JP4-A)*%
X90250000Y-143700000D03*
D39*
%TO.P,JP4,2,B*%
%TO.N,/Audio4/OUTL*%
X91550000Y-143700000D03*
%TD*%
D10*
%TO.P,BCK1,1,1*%
%TO.N,/I2S_BCK*%
X105800000Y-149675000D03*
%TD*%
D14*
%TO.P,C13,1*%
%TO.N,+5V*%
X65950000Y-148750000D03*
%TO.P,C13,2*%
%TO.N,GND*%
X67850000Y-148750000D03*
%TD*%
D10*
%TO.P,STG1,1,1*%
%TO.N,Net-(D1-A)*%
X60900000Y-94500000D03*
%TD*%
D41*
%TO.P,JP1,1,A*%
%TO.N,Net-(JP1-A)*%
X69825000Y-114550000D03*
D42*
%TO.P,JP1,2,B*%
%TO.N,+3.3V*%
X68525000Y-114550000D03*
%TD*%
D22*
%TO.P,D8,1,K*%
%TO.N,GND*%
X101475000Y-123100000D03*
%TO.P,D8,2,A*%
%TO.N,Net-(D8-A)*%
X99600000Y-123100000D03*
%TD*%
D46*
%TO.P,C5,1*%
%TO.N,Net-(Q1-D)*%
X61300000Y-86200000D03*
%TO.P,C5,2*%
%TO.N,GND*%
X61300000Y-88100000D03*
%TD*%
%TO.P,C6,1*%
%TO.N,Net-(Q1-G)*%
X48300000Y-82850000D03*
%TO.P,C6,2*%
%TO.N,GND*%
X48300000Y-84750000D03*
%TD*%
D14*
%TO.P,C9,1*%
%TO.N,+3.3V*%
X70873100Y-133525000D03*
%TO.P,C9,2*%
%TO.N,GND*%
X72773100Y-133525000D03*
%TD*%
D10*
%TO.P,+3.3V1,1,1*%
%TO.N,+3.3V*%
X63900000Y-134625000D03*
%TD*%
D49*
%TO.P,J1,A1_B12,GND*%
%TO.N,GND*%
X56900000Y-179495000D03*
%TO.P,J1,A4_B9,VBUS*%
%TO.N,VBUS*%
X57700000Y-179495000D03*
D50*
%TO.P,J1,A5,CC1*%
%TO.N,Net-(J1-CC1)*%
X58850000Y-179470000D03*
%TO.P,J1,A6,DP+*%
%TO.N,/USB_D+*%
X59850000Y-179470000D03*
%TO.P,J1,A7,DN-*%
%TO.N,/USB_D-*%
X60350000Y-179470000D03*
%TO.P,J1,A8,SBU1*%
%TO.N,unconnected-(J1-SBU1-PadA8)*%
X61350000Y-179470000D03*
D49*
%TO.P,J1,B1_A12,GND*%
%TO.N,GND*%
X63300000Y-179495000D03*
%TO.P,J1,B4_A9,VBUS*%
%TO.N,VBUS*%
X62500000Y-179495000D03*
D50*
%TO.P,J1,B5,CC2*%
%TO.N,Net-(J1-CC2)*%
X61850000Y-179470000D03*
%TO.P,J1,B6,DP2+*%
%TO.N,/USB_D+*%
X60850000Y-179470000D03*
%TO.P,J1,B7,DN2-*%
%TO.N,/USB_D-*%
X59350000Y-179470000D03*
%TO.P,J1,B8,SBU2*%
%TO.N,unconnected-(J1-SBU2-PadB8)*%
X58350000Y-179470000D03*
D51*
%TO.P,J1,SH1,SHELL_GND*%
%TO.N,/MCU4/SHELL_GND*%
X55780000Y-180070000D03*
%TO.P,J1,SH2,SHELL_GND*%
X64420000Y-180070000D03*
D52*
%TO.P,J1,SH3,SHELL_GND*%
X55780000Y-184250000D03*
%TO.P,J1,SH4,SHELL_GND*%
X64420000Y-184250000D03*
%TD*%
D10*
%TO.P,LAMP1,1,1*%
%TO.N,/LAMP*%
X74675000Y-182525000D03*
%TD*%
D13*
%TO.P,R34,1*%
%TO.N,/Audio4/DAC_MONO*%
X100925000Y-133300000D03*
%TO.P,R34,2*%
%TO.N,AGND*%
X102750000Y-133300000D03*
%TD*%
D10*
%TO.P,PWM1,1,1*%
%TO.N,Net-(Q1-G)*%
X53175000Y-69150000D03*
%TD*%
%TO.P,GND2,1,1*%
%TO.N,GND*%
X71050000Y-182525000D03*
%TD*%
D14*
%TO.P,C21,1*%
%TO.N,/Audio4/OUTL*%
X99137500Y-148900000D03*
%TO.P,C21,2*%
%TO.N,AGND*%
X101037500Y-148900000D03*
%TD*%
D11*
%TO.P,R2,1*%
%TO.N,Net-(U1A-1IN+)*%
X65037500Y-111300000D03*
%TO.P,R2,2*%
%TO.N,+3.3V*%
X63212500Y-111300000D03*
%TD*%
D38*
%TO.P,JP6,1,A*%
%TO.N,Net-(JP6-A)*%
X90250000Y-140725000D03*
D39*
%TO.P,JP6,2,B*%
%TO.N,/Audio4/OUTR*%
X91550000Y-140725000D03*
%TD*%
D34*
%TO.P,R20,1*%
%TO.N,Net-(U4-IO4{slash}ADC1_CH3)*%
X58000000Y-73987500D03*
%TO.P,R20,2*%
%TO.N,VBUS*%
X58000000Y-75812500D03*
%TD*%
D11*
%TO.P,R19,1*%
%TO.N,Net-(D9-A)*%
X97250000Y-125300000D03*
%TO.P,R19,2*%
%TO.N,/BLINK*%
X95425000Y-125300000D03*
%TD*%
D53*
%TO.P,C14,1*%
%TO.N,Net-(U4-IO4{slash}ADC1_CH3)*%
X60900000Y-71950000D03*
%TO.P,C14,2*%
%TO.N,GND*%
X60900000Y-70050000D03*
%TD*%
D22*
%TO.P,D7,1,K*%
%TO.N,GND*%
X101475000Y-120800000D03*
%TO.P,D7,2,A*%
%TO.N,Net-(D7-A)*%
X99600000Y-120800000D03*
%TD*%
D54*
%TO.P,U6,1,CPVDD*%
%TO.N,+3.3V*%
X90062500Y-150650000D03*
%TO.P,U6,2,CAPP*%
%TO.N,Net-(U6-CAPP)*%
X90062500Y-151300000D03*
%TO.P,U6,3,CPGND*%
%TO.N,AGND*%
X90062500Y-151950000D03*
%TO.P,U6,4,CAPM*%
%TO.N,Net-(U6-CAPM)*%
X90062500Y-152600000D03*
%TO.P,U6,5,VNEG*%
%TO.N,Net-(U6-VNEG)*%
X90062500Y-153250000D03*
%TO.P,U6,6,OUTL*%
%TO.N,Net-(U6-OUTL)*%
X90062500Y-153900000D03*
%TO.P,U6,7,OUTR*%
%TO.N,Net-(U6-OUTR)*%
X90062500Y-154550000D03*
%TO.P,U6,8,AVDD*%
%TO.N,+3.3V*%
X90062500Y-155200000D03*
%TO.P,U6,9,AGND*%
%TO.N,AGND*%
X90062500Y-155850000D03*
%TO.P,U6,10,DEMP*%
X90062500Y-156500000D03*
%TO.P,U6,11,FLT*%
X95787500Y-156500000D03*
%TO.P,U6,12,SCK*%
X95787500Y-155850000D03*
%TO.P,U6,13,BCK*%
%TO.N,/I2S_BCK*%
X95787500Y-155200000D03*
%TO.P,U6,14,DIN*%
%TO.N,/I2S_DOUT*%
X95787500Y-154550000D03*
%TO.P,U6,15,LRCK*%
%TO.N,/I2S_LRCK*%
X95787500Y-153900000D03*
%TO.P,U6,16,FMT*%
%TO.N,AGND*%
X95787500Y-153250000D03*
%TO.P,U6,17,XSMT*%
%TO.N,/MUTE*%
X95787500Y-152600000D03*
%TO.P,U6,18,LDOO*%
%TO.N,Net-(U6-LDOO)*%
X95787500Y-151950000D03*
%TO.P,U6,19,DGND*%
%TO.N,AGND*%
X95787500Y-151300000D03*
%TO.P,U6,20,DVDD*%
%TO.N,+3.3V*%
X95787500Y-150650000D03*
%TD*%
D22*
%TO.P,D9,1,K*%
%TO.N,GND*%
X101475000Y-125300000D03*
%TO.P,D9,2,A*%
%TO.N,Net-(D9-A)*%
X99600000Y-125300000D03*
%TD*%
D11*
%TO.P,R5,1*%
%TO.N,GND*%
X68812500Y-111300000D03*
%TO.P,R5,2*%
%TO.N,Net-(U1A-1IN+)*%
X66987500Y-111300000D03*
%TD*%
%TO.P,R40,1*%
%TO.N,+3.3V*%
X92837500Y-104925000D03*
%TO.P,R40,2*%
%TO.N,/CS*%
X91012500Y-104925000D03*
%TD*%
D22*
%TO.P,D4,1,K*%
%TO.N,GND*%
X101450000Y-113900000D03*
%TO.P,D4,2,A*%
%TO.N,Net-(D4-A)*%
X99575000Y-113900000D03*
%TD*%
D55*
%TO.P,U4,1,GND_1*%
%TO.N,GND*%
X65050000Y-68680000D03*
%TO.P,U4,2,3V3*%
%TO.N,+3.3V*%
X65050000Y-69950000D03*
%TO.P,U4,3,EN*%
%TO.N,/EN*%
X65050000Y-71220000D03*
%TO.P,U4,4,IO4/ADC1_CH3*%
%TO.N,Net-(U4-IO4{slash}ADC1_CH3)*%
X65050000Y-72490000D03*
%TO.P,U4,5,IO5/ADC1_CH4*%
%TO.N,unconnected-(U4-IO5{slash}ADC1_CH4-Pad5)*%
X65050000Y-73760000D03*
%TO.P,U4,6,IO6*%
%TO.N,unconnected-(U4-IO6-Pad6)*%
X65050000Y-75030000D03*
%TO.P,U4,7,IO7*%
%TO.N,unconnected-(U4-IO7-Pad7)*%
X65050000Y-76300000D03*
%TO.P,U4,8,IO15*%
%TO.N,/RAD_IN*%
X65050000Y-77570000D03*
%TO.P,U4,9,IO16*%
%TO.N,/GPIO16*%
X65050000Y-78840000D03*
%TO.P,U4,10,IO17*%
%TO.N,/SCL*%
X65050000Y-80110000D03*
%TO.P,U4,11,IO18*%
%TO.N,/SDA*%
X65050000Y-81380000D03*
%TO.P,U4,12,IO8*%
%TO.N,unconnected-(U4-IO8-Pad12)*%
X65050000Y-82650000D03*
%TO.P,U4,13,IO19*%
%TO.N,/USB_D-*%
X65050000Y-83920000D03*
%TO.P,U4,14,IO20*%
%TO.N,/USB_D+*%
X65050000Y-85190000D03*
D56*
%TO.P,U4,15,IO3*%
%TO.N,unconnected-(U4-IO3-Pad15)*%
X66815000Y-86440000D03*
%TO.P,U4,16,IO46*%
%TO.N,unconnected-(U4-IO46-Pad16)*%
X68085000Y-86440000D03*
%TO.P,U4,17,IO9*%
%TO.N,/BAT_SENSE*%
X69355000Y-86440000D03*
%TO.P,U4,18,IO10/CS*%
%TO.N,/CS*%
X70625000Y-86440000D03*
%TO.P,U4,19,IO11/MOSI*%
%TO.N,/MOSI*%
X71895000Y-86440000D03*
%TO.P,U4,20,IO12/CLK*%
%TO.N,/SCK*%
X73165000Y-86440000D03*
%TO.P,U4,21,IO13/MISO*%
%TO.N,/MISO*%
X74435000Y-86440000D03*
%TO.P,U4,22,IO14*%
%TO.N,/MUTE*%
X75705000Y-86440000D03*
%TO.P,U4,23,IO21*%
%TO.N,/MUTE_AMP*%
X76975000Y-86440000D03*
%TO.P,U4,24,IO47*%
%TO.N,/AMP*%
X78245000Y-86440000D03*
%TO.P,U4,25,IO48*%
%TO.N,/LAMP*%
X79515000Y-86440000D03*
%TO.P,U4,26,IO45*%
%TO.N,unconnected-(U4-IO45-Pad26)*%
X80785000Y-86440000D03*
D55*
%TO.P,U4,27,IO0*%
%TO.N,/GPIO0*%
X82550000Y-85190000D03*
%TO.P,U4,28,IO35*%
%TO.N,Net-(U4-IO35)*%
X82550000Y-83920000D03*
%TO.P,U4,29,IO36*%
%TO.N,Net-(U4-IO36)*%
X82550000Y-82650000D03*
%TO.P,U4,30,IO37*%
%TO.N,Net-(U4-IO37)*%
X82550000Y-81380000D03*
%TO.P,U4,31,IO38*%
%TO.N,/GPIO38*%
X82550000Y-80110000D03*
%TO.P,U4,32,IO39*%
%TO.N,/GPIO39*%
X82550000Y-78840000D03*
%TO.P,U4,33,IO40*%
%TO.N,/GPIO40*%
X82550000Y-77570000D03*
%TO.P,U4,34,IO41*%
%TO.N,/PWM*%
X82550000Y-76300000D03*
%TO.P,U4,35,IO42*%
%TO.N,/GPIO42*%
X82550000Y-75030000D03*
%TO.P,U4,36,RXD0*%
%TO.N,unconnected-(U4-RXD0-Pad36)*%
X82550000Y-73760000D03*
%TO.P,U4,37,TXD0*%
%TO.N,unconnected-(U4-TXD0-Pad37)*%
X82550000Y-72490000D03*
%TO.P,U4,38,IO2*%
%TO.N,/BLINK*%
X82550000Y-71220000D03*
%TO.P,U4,39,IO1*%
%TO.N,unconnected-(U4-IO1-Pad39)*%
X82550000Y-69950000D03*
%TO.P,U4,40,GND_2*%
%TO.N,GND*%
X82550000Y-68680000D03*
D57*
%TO.P,U4,41,GND_3*%
X72300000Y-76400000D03*
%TO.P,U4,42,GND_4*%
X72300000Y-75000000D03*
%TO.P,U4,43,GND_5*%
X70900000Y-75000000D03*
%TO.P,U4,44,GND_6*%
X70900000Y-76400000D03*
%TO.P,U4,45,GND_7*%
X70900000Y-77800000D03*
%TO.P,U4,46,GND_8*%
X72300000Y-77800000D03*
%TO.P,U4,47,GND_9*%
X73700000Y-77800000D03*
%TO.P,U4,48,GND_10*%
X73700000Y-76400000D03*
%TO.P,U4,49,GND_11*%
X73700000Y-75000000D03*
%TD*%
D10*
%TO.P,HIV+1,1,1*%
%TO.N,Net-(D1-K)*%
X56900000Y-94500000D03*
%TD*%
D11*
%TO.P,R10,1*%
%TO.N,GND*%
X68787500Y-103100000D03*
%TO.P,R10,2*%
%TO.N,Net-(U1A-1IN-)*%
X66962500Y-103100000D03*
%TD*%
D26*
%TO.P,FB1,1*%
%TO.N,Net-(+OUT_L1-Pad1)*%
X86925000Y-182112500D03*
%TO.P,FB1,2*%
%TO.N,Net-(U5-+OUT_L)*%
X86925000Y-180537500D03*
%TD*%
D34*
%TO.P,R1,1*%
%TO.N,Net-(Q1-D)*%
X56850000Y-145812500D03*
%TO.P,R1,2*%
%TO.N,+5V*%
X56850000Y-147637500D03*
%TD*%
D10*
%TO.P,DAC_MONO1,1,1*%
%TO.N,/Audio4/DAC_MONO*%
X101925000Y-136400000D03*
%TD*%
D14*
%TO.P,C10,1*%
%TO.N,GND*%
X103850000Y-79900000D03*
%TO.P,C10,2*%
%TO.N,/GPIO0*%
X105750000Y-79900000D03*
%TD*%
D12*
%TO.P,C7,1*%
%TO.N,+5V*%
X72350000Y-150950000D03*
%TO.P,C7,2*%
%TO.N,Net-(C7-Pad2)*%
X70450000Y-150950000D03*
%TD*%
D14*
%TO.P,C15,1*%
%TO.N,GND*%
X51862500Y-185400000D03*
%TO.P,C15,2*%
%TO.N,/MCU4/SHELL_GND*%
X53762500Y-185400000D03*
%TD*%
D58*
%TO.P,D3,1,K*%
%TO.N,+5V*%
X74900000Y-148900000D03*
%TO.P,D3,2,A*%
%TO.N,Net-(D3-A)*%
X74900000Y-146800000D03*
%TD*%
D11*
%TO.P,R33,1*%
%TO.N,/Audio4/DAC_MONO*%
X98887500Y-133300000D03*
%TO.P,R33,2*%
%TO.N,Net-(JP6-A)*%
X97062500Y-133300000D03*
%TD*%
D59*
%TO.N,Net-(C18-Pad1)*%
X86362500Y-170625000D03*
X89625000Y-173750000D03*
%TO.N,PGND*%
X93025000Y-177250000D03*
%TO.N,AGND*%
X97825000Y-148800000D03*
%TO.N,Net-(C3-Pad2)*%
X59275000Y-100500000D03*
%TO.N,/I2S_DOUT*%
X89775000Y-129075000D03*
X91225000Y-119950000D03*
%TO.N,/MOSI*%
X93937500Y-101662500D03*
X94400000Y-98400000D03*
X90225000Y-102750000D03*
%TO.N,/CS*%
X89750000Y-100800000D03*
%TO.N,+5V*%
X75800000Y-139275000D03*
X77375000Y-120125000D03*
%TO.N,VBUS*%
X91700000Y-121600000D03*
X54800000Y-83325000D03*
D60*
X67467900Y-124542900D03*
D59*
%TO.N,/BAT_SENSE*%
X90325000Y-108250000D03*
%TO.N,/Audio4/DAC_MONO*%
X93287500Y-140112500D03*
%TO.N,+3.3V*%
X88875000Y-155275000D03*
%TO.N,+5V*%
X93775000Y-116200000D03*
%TO.N,GND*%
X100200000Y-106400000D03*
%TO.N,/SCK*%
X90025000Y-95750000D03*
%TO.N,/MISO*%
X91087500Y-93987500D03*
%TO.N,Net-(J3-DAT2)*%
X107450000Y-103175000D03*
%TO.N,Net-(J3-DAT1)*%
X106012500Y-94400000D03*
%TO.N,GND*%
X108925000Y-91603400D03*
%TO.N,/Audio4/DAC_MONO*%
X92500000Y-138300000D03*
X91900000Y-145500000D03*
%TO.N,Net-(JP6-A)*%
X91225000Y-137675000D03*
X95450000Y-133250000D03*
%TO.N,/Audio4/AMP_MONO*%
X85025000Y-140475000D03*
X104300000Y-135150000D03*
%TO.N,/Audio4/OUTL*%
X98912500Y-145912500D03*
%TO.N,/I2S_DOUT*%
X104550000Y-148150000D03*
%TO.N,AGND*%
X87075000Y-151975000D03*
%TO.N,GND*%
X81850000Y-142900000D03*
%TO.N,AGND*%
X83900000Y-143025000D03*
%TO.N,+3.3V*%
X93175000Y-157350000D03*
%TO.N,Net-(U6-CAPP)*%
X88087500Y-151162500D03*
%TO.N,Net-(U6-CAPM)*%
X88025000Y-152950000D03*
X98025000Y-146900000D03*
%TO.N,Net-(U6-CAPP)*%
X94100000Y-145325000D03*
%TO.N,+5V*%
X78325000Y-159050000D03*
X74100000Y-151000000D03*
X61725000Y-145475000D03*
X76362500Y-149337500D03*
%TO.N,Net-(Q1-D)*%
X53700000Y-120625000D03*
%TO.N,/Audio4/OUTR*%
X83425000Y-149100000D03*
X81425000Y-157725000D03*
X93725000Y-147700000D03*
X71500000Y-160725000D03*
X93375000Y-142550000D03*
%TO.N,Net-(Q1-G)*%
X87800000Y-74425000D03*
%TO.N,/MOSI*%
X71895000Y-94525000D03*
%TO.N,/I2S_LRCK*%
X101550000Y-153450000D03*
%TO.N,/I2S_DOUT*%
X103625000Y-146950000D03*
X102312500Y-154212500D03*
%TO.N,/I2S_BCK*%
X101875000Y-155500000D03*
%TO.N,/MUTE*%
X86250000Y-105625000D03*
X79225000Y-98600000D03*
%TO.N,Net-(C3-Pad2)*%
X49975000Y-105725000D03*
%TO.N,/MISO*%
X74435000Y-93125000D03*
%TO.N,/CS*%
X70625000Y-95300000D03*
%TO.N,/EN*%
X86975000Y-70250000D03*
X68637500Y-69137500D03*
%TO.N,GND*%
X51887500Y-181537500D03*
D61*
X67800000Y-144175000D03*
D59*
X74650000Y-122675000D03*
X103537500Y-125800000D03*
X101537500Y-112425000D03*
X101850000Y-69325000D03*
X75100000Y-77800000D03*
X109628401Y-109600000D03*
X61575000Y-109450000D03*
X49775000Y-84750000D03*
X72773100Y-135776900D03*
X70900000Y-79100000D03*
X75100000Y-75000000D03*
X103850000Y-81350000D03*
X65500000Y-170600000D03*
X84750000Y-69525000D03*
X69375000Y-112700000D03*
X62400000Y-69900000D03*
X97050000Y-81475000D03*
X57325000Y-88875000D03*
X56787500Y-175300000D03*
X71000000Y-73500000D03*
X80650000Y-93850000D03*
X104075000Y-97750000D03*
X70200000Y-103100000D03*
X95525000Y-69525000D03*
X66150000Y-118325000D03*
%TO.N,/SCK*%
X73165000Y-93750000D03*
%TO.N,Net-(J1-CC2)*%
X53700000Y-181825000D03*
X61850000Y-178225000D03*
%TO.N,+3.3V*%
X56800000Y-83500000D03*
X94300000Y-92300000D03*
X62700000Y-71000000D03*
X101400000Y-78550000D03*
X64075000Y-114550000D03*
X95300000Y-76675000D03*
X97100000Y-150250000D03*
X62800000Y-112625000D03*
D60*
X73300000Y-99475000D03*
D59*
X89000000Y-150125000D03*
X108775000Y-99925000D03*
D60*
X78700000Y-93675000D03*
D59*
X75025000Y-143675000D03*
%TO.N,/GPIO0*%
X93425000Y-86650000D03*
X84550000Y-91900000D03*
%TO.N,VBUS*%
X99150000Y-177625000D03*
X98100000Y-168790000D03*
D60*
X57700000Y-178275000D03*
D59*
X90180000Y-171330000D03*
X95785000Y-174660000D03*
X61950000Y-126675000D03*
X61450000Y-176325000D03*
%TO.N,AGND*%
X97125000Y-153225000D03*
X87975000Y-156525000D03*
X97050000Y-151300000D03*
X84262500Y-162887500D03*
X97025000Y-156525000D03*
X102250000Y-151225000D03*
%TO.N,/BAT_SENSE*%
X69400000Y-95900000D03*
%TO.N,/RAD_IN*%
X62250000Y-77575000D03*
X81569916Y-110555084D03*
X81600000Y-93975000D03*
X60175000Y-107300000D03*
%TO.N,/MUTE_AMP*%
X80325000Y-109625000D03*
X84400000Y-110100000D03*
%TO.N,/AMP*%
X80000000Y-155125000D03*
X100725000Y-170625000D03*
%TO.N,Net-(U5-+OUT_R)*%
X98425000Y-164250000D03*
%TO.N,Net-(U5--OUT_R)*%
X98125000Y-167350000D03*
%TO.N,Net-(U6-LDOO)*%
X98037500Y-151787500D03*
X90675000Y-158925000D03*
%TO.N,Net-(U5-+OUT_L)*%
X89750000Y-164980000D03*
X86700000Y-178925000D03*
%TO.N,Net-(U5--OUT_L)*%
X89825000Y-178700000D03*
X89850000Y-167520000D03*
%TO.N,Net-(U6-OUTR)*%
X88150000Y-154575000D03*
X82500000Y-154575000D03*
X80337500Y-156712500D03*
X71500000Y-159900000D03*
%TO.N,PGND*%
X97100000Y-177150000D03*
X85075000Y-166425000D03*
X98550000Y-171330000D03*
X89775000Y-166250000D03*
%TD*%
D62*
%TO.N,/Audio4/AMP_MONO*%
X86975000Y-172600000D02*
X86975000Y-175625000D01*
X86975000Y-175625000D02*
X87325000Y-175975000D01*
%TO.N,Net-(C18-Pad1)*%
X86362500Y-170625000D02*
X86362500Y-170762500D01*
X86362500Y-169675000D02*
X86362500Y-170625000D01*
X86375000Y-170775000D02*
X86362500Y-170762500D01*
X88875000Y-173000000D02*
X89625000Y-173750000D01*
X88875000Y-172600000D02*
X88875000Y-173000000D01*
%TO.N,/Audio4/POT_OUTL*%
X88187500Y-169675000D02*
X88187500Y-170362500D01*
X88187500Y-170362500D02*
X90425000Y-172600000D01*
X90425000Y-172600000D02*
X91575000Y-172600000D01*
D63*
%TO.N,VBUS*%
X90180000Y-171330000D02*
X91575000Y-171330000D01*
D62*
%TO.N,/MUTE_AMP*%
X90760000Y-170060000D02*
X89075000Y-168375000D01*
X84725000Y-146275000D02*
X86275000Y-144725000D01*
X84725000Y-158200000D02*
X84725000Y-146275000D01*
X89075000Y-168375000D02*
X89075000Y-162550000D01*
X89075000Y-162550000D02*
X84725000Y-158200000D01*
X91575000Y-170060000D02*
X90760000Y-170060000D01*
X86275000Y-144725000D02*
X86275000Y-139000000D01*
X86275000Y-139000000D02*
X84400000Y-137125000D01*
X84400000Y-137125000D02*
X84400000Y-110100000D01*
%TO.N,/Audio4/POT_OUTR*%
X96087500Y-178575000D02*
X96087500Y-178512500D01*
X94350000Y-173000000D02*
X94725000Y-172625000D01*
X96087500Y-178512500D02*
X94350000Y-176775000D01*
X94350000Y-176775000D02*
X94350000Y-173000000D01*
X94725000Y-172625000D02*
X96550000Y-172625000D01*
X96550000Y-172625000D02*
X96575000Y-172600000D01*
%TO.N,Net-(C33-Pad1)*%
X94262500Y-178575000D02*
X91825000Y-178575000D01*
X91825000Y-178575000D02*
X89225000Y-175975000D01*
%TO.N,PGND*%
X93025000Y-177250000D02*
X93025000Y-175900000D01*
%TO.N,Net-(U6-OUTR)*%
X80412500Y-156712500D02*
X80337500Y-156712500D01*
X82312500Y-154812500D02*
X80412500Y-156712500D01*
%TO.N,Net-(C3-Pad2)*%
X59275000Y-100500000D02*
X60125000Y-100500000D01*
X60125000Y-100500000D02*
X61887500Y-102262500D01*
X61887500Y-102262500D02*
X61887500Y-102550000D01*
%TO.N,AGND*%
X97800000Y-148825000D02*
X97825000Y-148800000D01*
X96750000Y-148825000D02*
X97800000Y-148825000D01*
%TO.N,+3.3V*%
X104212500Y-89750000D02*
X104212500Y-92075000D01*
X104212500Y-92075000D02*
X104187500Y-92100000D01*
%TO.N,Net-(C3-Pad2)*%
X49975000Y-105725000D02*
X49975000Y-106975000D01*
X49975000Y-106975000D02*
X49925000Y-107025000D01*
%TO.N,/I2S_DOUT*%
X88525000Y-129225000D02*
X89750000Y-130450000D01*
X89775000Y-129075000D02*
X89775000Y-130425000D01*
X89775000Y-130425000D02*
X89750000Y-130450000D01*
X91225000Y-114275000D02*
X91225000Y-119950000D01*
X95625000Y-113900000D02*
X91600000Y-113900000D01*
X91600000Y-113900000D02*
X91225000Y-114275000D01*
%TO.N,+3.3V*%
X105262500Y-88700000D02*
X108225000Y-88700000D01*
X104212500Y-89750000D02*
X105262500Y-88700000D01*
X108225000Y-88700000D02*
X108225000Y-99375000D01*
X108225000Y-99375000D02*
X108775000Y-99925000D01*
%TO.N,/MOSI*%
X93937500Y-101662500D02*
X94075000Y-101525000D01*
X94075000Y-101525000D02*
X94075000Y-98725000D01*
X94075000Y-98725000D02*
X94400000Y-98400000D01*
X90225000Y-102750000D02*
X90200000Y-102750000D01*
X90200000Y-102750000D02*
X90175000Y-102725000D01*
X91012500Y-102750000D02*
X90225000Y-102750000D01*
%TO.N,/CS*%
X89750000Y-100800000D02*
X89550000Y-101000000D01*
X89550000Y-104425000D02*
X90050000Y-104925000D01*
X90050000Y-104925000D02*
X91012500Y-104925000D01*
X89550000Y-101000000D02*
X89550000Y-104425000D01*
%TO.N,/SCK*%
X90025000Y-95750000D02*
X90025000Y-99775000D01*
X90025000Y-99775000D02*
X90950000Y-100700000D01*
X90950000Y-100700000D02*
X91012500Y-100700000D01*
%TO.N,/BLINK*%
X82550000Y-71220000D02*
X88595000Y-71220000D01*
X88595000Y-71220000D02*
X89025000Y-71650000D01*
X89025000Y-71650000D02*
X89025000Y-123350000D01*
X89025000Y-123350000D02*
X90975000Y-125300000D01*
X90975000Y-125300000D02*
X95425000Y-125300000D01*
%TO.N,/I2S_DOUT*%
X87300000Y-80930000D02*
X87855000Y-80930000D01*
X89750000Y-130450000D02*
X101800000Y-142500000D01*
X87855000Y-80930000D02*
X88525000Y-81600000D01*
X88525000Y-81600000D02*
X88525000Y-129225000D01*
X101800000Y-142500000D02*
X105650000Y-142500000D01*
%TO.N,/I2S_LRCK*%
X87312500Y-83230000D02*
X87730000Y-83230000D01*
X87730000Y-83230000D02*
X88025000Y-83525000D01*
X88025000Y-83525000D02*
X88025000Y-129650000D01*
X104450000Y-146075000D02*
X105700000Y-146075000D01*
X88025000Y-129650000D02*
X104450000Y-146075000D01*
%TO.N,/I2S_BCK*%
X87300000Y-85430000D02*
X86900000Y-85830000D01*
X86900000Y-129250000D02*
X105800000Y-148150000D01*
X105800000Y-148150000D02*
X105800000Y-149675000D01*
X86900000Y-85830000D02*
X86900000Y-129250000D01*
%TO.N,Net-(U4-IO37)*%
X82550000Y-81380000D02*
X82980000Y-80950000D01*
X82980000Y-80950000D02*
X85455000Y-80950000D01*
X85455000Y-80950000D02*
X85475000Y-80930000D01*
%TO.N,/I2S_DOUT*%
X102312500Y-154212500D02*
X101975000Y-154550000D01*
X95787500Y-154550000D02*
X101975000Y-154550000D01*
%TO.N,/I2S_LRCK*%
X101550000Y-153450000D02*
X101525000Y-153475000D01*
X101525000Y-153475000D02*
X98675000Y-153475000D01*
X98675000Y-153475000D02*
X98225000Y-153925000D01*
X98225000Y-153925000D02*
X95550000Y-153925000D01*
%TO.N,+3.3V*%
X85975000Y-155075000D02*
X86175000Y-155275000D01*
X86175000Y-155275000D02*
X88875000Y-155275000D01*
%TO.N,AGND*%
X85975000Y-156975000D02*
X87525000Y-156975000D01*
X87525000Y-156975000D02*
X87975000Y-156525000D01*
%TO.N,+5V*%
X77375000Y-137700000D02*
X75800000Y-139275000D01*
X77375000Y-120125000D02*
X77375000Y-137700000D01*
%TO.N,VBUS*%
X92500000Y-120800000D02*
X91700000Y-121600000D01*
X95625000Y-120800000D02*
X92500000Y-120800000D01*
D63*
%TO.N,Net-(D1-K)*%
X53000000Y-90400000D02*
X52495000Y-90905000D01*
X52495000Y-90905000D02*
X52495000Y-98300000D01*
D62*
%TO.N,VBUS*%
X54800000Y-81800000D02*
X54800000Y-83325000D01*
X58000000Y-75812500D02*
X58000000Y-78600000D01*
X58000000Y-78600000D02*
X54800000Y-81800000D01*
D63*
X67467900Y-124542900D02*
X65371800Y-126639000D01*
D62*
%TO.N,/BAT_SENSE*%
X90325000Y-108250000D02*
X90325000Y-121800000D01*
X90325000Y-121800000D02*
X91625000Y-123100000D01*
X91625000Y-123100000D02*
X95625000Y-123100000D01*
%TO.N,+5V*%
X93775000Y-116200000D02*
X95500000Y-116200000D01*
X95500000Y-116200000D02*
X95600000Y-116300000D01*
%TO.N,/MUTE*%
X96775000Y-152575000D02*
X96725000Y-152625000D01*
X103050000Y-152175000D02*
X102650000Y-152575000D01*
X86250000Y-105625000D02*
X86250000Y-130625000D01*
X86250000Y-130625000D02*
X103050000Y-147425000D01*
X103050000Y-147425000D02*
X103050000Y-152175000D01*
X102650000Y-152575000D02*
X96775000Y-152575000D01*
X96725000Y-152625000D02*
X95550000Y-152625000D01*
%TO.N,/MUTE_AMP*%
X76975000Y-86440000D02*
X76975000Y-90475000D01*
X76675000Y-90775000D02*
X76675000Y-95075000D01*
X80325000Y-98725000D02*
X80325000Y-109625000D01*
X76975000Y-90475000D02*
X76675000Y-90775000D01*
X76675000Y-95075000D02*
X80325000Y-98725000D01*
%TO.N,/RAD_IN*%
X81569916Y-94005084D02*
X81600000Y-93975000D01*
X81569916Y-110555084D02*
X81569916Y-94005084D01*
%TO.N,Net-(Q1-G)*%
X87300000Y-76330000D02*
X88175000Y-75455000D01*
X88175000Y-75455000D02*
X88175000Y-74800000D01*
X88175000Y-74800000D02*
X87800000Y-74425000D01*
%TO.N,/LAMP*%
X74675000Y-182525000D02*
X74675000Y-161425000D01*
X81025000Y-155075000D02*
X81025000Y-113100000D01*
X74675000Y-161425000D02*
X81025000Y-155075000D01*
X79515000Y-87215000D02*
X79515000Y-86440000D01*
X81025000Y-113100000D02*
X83175000Y-110950000D01*
X80450000Y-87900000D02*
X80200000Y-87900000D01*
X83175000Y-110950000D02*
X83175000Y-90625000D01*
X83175000Y-90625000D02*
X80450000Y-87900000D01*
X80200000Y-87900000D02*
X79515000Y-87215000D01*
%TO.N,/GPIO0*%
X84550000Y-91900000D02*
X84475000Y-91900000D01*
X84075000Y-91500000D02*
X84075000Y-90500000D01*
X84475000Y-91900000D02*
X84075000Y-91500000D01*
X84075000Y-90500000D02*
X82550000Y-88975000D01*
X82550000Y-88975000D02*
X82550000Y-85190000D01*
%TO.N,+3.3V*%
X93275000Y-157450000D02*
X93275000Y-160225000D01*
X91025000Y-155200000D02*
X90062500Y-155200000D01*
X93275000Y-160225000D02*
X93900000Y-160850000D01*
X93900000Y-160850000D02*
X94525000Y-160850000D01*
X93175000Y-157350000D02*
X93275000Y-157450000D01*
X93175000Y-157350000D02*
X91025000Y-155200000D01*
%TO.N,/Audio4/DAC_MONO*%
X93287500Y-140112500D02*
X93287500Y-139087500D01*
X93287500Y-139087500D02*
X92500000Y-138300000D01*
%TO.N,+3.3V*%
X88875000Y-155275000D02*
X89100000Y-155275000D01*
X89175000Y-155200000D02*
X90062500Y-155200000D01*
X89100000Y-155275000D02*
X89175000Y-155200000D01*
X95575000Y-118500000D02*
X96550000Y-117525000D01*
X96550000Y-106725000D02*
X96750000Y-106525000D01*
X96550000Y-117525000D02*
X96550000Y-106725000D01*
%TO.N,GND*%
X100075000Y-106525000D02*
X100200000Y-106400000D01*
X98650000Y-106525000D02*
X100075000Y-106525000D01*
%TO.N,/CS*%
X91012500Y-104925000D02*
X91012500Y-105487500D01*
%TO.N,+3.3V*%
X92837500Y-104925000D02*
X95150000Y-104925000D01*
X95150000Y-104925000D02*
X96750000Y-106525000D01*
X92812500Y-98575000D02*
X92812500Y-104900000D01*
X92812500Y-104900000D02*
X92837500Y-104925000D01*
X94300000Y-92300000D02*
X92812500Y-93787500D01*
X92812500Y-93787500D02*
X92812500Y-98575000D01*
%TO.N,/MISO*%
X90987500Y-98575000D02*
X90987500Y-94087500D01*
X90987500Y-94087500D02*
X91087500Y-93987500D01*
%TO.N,Net-(J3-DAT2)*%
X106037500Y-89750000D02*
X107475000Y-89750000D01*
X107475000Y-89750000D02*
X107675000Y-89950000D01*
X107675000Y-89950000D02*
X107675000Y-102950000D01*
X107675000Y-102950000D02*
X107450000Y-103175000D01*
%TO.N,Net-(J3-DAT1)*%
X106012500Y-94400000D02*
X106012500Y-94512500D01*
X106012500Y-94512500D02*
X106000000Y-94525000D01*
X106012500Y-92100000D02*
X106012500Y-94400000D01*
%TO.N,/Audio4/DAC_MONO*%
X91900000Y-146625000D02*
X91900000Y-145500000D01*
%TO.N,Net-(JP6-A)*%
X90250000Y-138650000D02*
X91225000Y-137675000D01*
X90250000Y-140725000D02*
X90250000Y-138650000D01*
X95450000Y-133250000D02*
X95425000Y-133225000D01*
X95500000Y-133300000D02*
X95450000Y-133250000D01*
X97062500Y-133300000D02*
X95500000Y-133300000D01*
%TO.N,/Audio4/AMP_MONO*%
X85025000Y-145100000D02*
X85025000Y-140475000D01*
X105550000Y-133900000D02*
X104300000Y-135150000D01*
X108137500Y-133900000D02*
X105550000Y-133900000D01*
%TO.N,/Audio4/DAC_MONO*%
X98887500Y-133300000D02*
X100925000Y-133300000D01*
X100925000Y-133300000D02*
X100925000Y-135400000D01*
X100925000Y-135400000D02*
X101925000Y-136400000D01*
%TO.N,AGND*%
X102750000Y-133300000D02*
X104690000Y-131360000D01*
X104690000Y-131360000D02*
X108137500Y-131360000D01*
%TO.N,/Audio4/DAC_MONO*%
X101925000Y-136400000D02*
X108097500Y-136400000D01*
X108097500Y-136400000D02*
X108137500Y-136440000D01*
%TO.N,/I2S_BCK*%
X97425000Y-155500000D02*
X97150000Y-155225000D01*
X101875000Y-155500000D02*
X97425000Y-155500000D01*
X97150000Y-155225000D02*
X95550000Y-155225000D01*
X101875000Y-155500000D02*
X97475000Y-155500000D01*
%TO.N,/Audio4/OUTL*%
X98912500Y-145912500D02*
X99137500Y-146137500D01*
%TO.N,/I2S_DOUT*%
X103625000Y-147225000D02*
X104550000Y-148150000D01*
X103625000Y-146950000D02*
X103625000Y-147225000D01*
%TO.N,GND*%
X81850000Y-141950000D02*
X81850000Y-142900000D01*
X82350000Y-141450000D02*
X81850000Y-141950000D01*
%TO.N,AGND*%
X83900000Y-141700000D02*
X83650000Y-141450000D01*
X83900000Y-143025000D02*
X83900000Y-141700000D01*
X89825000Y-151975000D02*
X87075000Y-151975000D01*
%TO.N,Net-(U6-CAPP)*%
X88087500Y-151162500D02*
X88075000Y-151150000D01*
X88225000Y-151300000D02*
X88087500Y-151162500D01*
X90062500Y-151300000D02*
X88225000Y-151300000D01*
%TO.N,Net-(U6-CAPM)*%
X88850000Y-152600000D02*
X90062500Y-152600000D01*
X88025000Y-152950000D02*
X88500000Y-152950000D01*
X88500000Y-152950000D02*
X88850000Y-152600000D01*
X97750000Y-146625000D02*
X98025000Y-146900000D01*
X96800000Y-146625000D02*
X97750000Y-146625000D01*
%TO.N,Net-(U6-CAPP)*%
X94100000Y-145825000D02*
X94100000Y-145325000D01*
X94900000Y-146625000D02*
X94100000Y-145825000D01*
D64*
%TO.N,/Power4/ANODE*%
X40700000Y-176857500D02*
X40700000Y-105300000D01*
X40700000Y-184477500D02*
X40700000Y-176857500D01*
D63*
X48000000Y-107000000D02*
X48000000Y-103200000D01*
D64*
X47600000Y-103000000D02*
X47700000Y-102900000D01*
X40700000Y-105300000D02*
X43000000Y-103000000D01*
X43000000Y-103000000D02*
X47600000Y-103000000D01*
D62*
X48000000Y-103200000D02*
X47700000Y-102900000D01*
D63*
%TO.N,+5V*%
X65950000Y-146240000D02*
X62490000Y-146240000D01*
X56850000Y-151950000D02*
X58075000Y-153175000D01*
X62490000Y-146240000D02*
X61725000Y-145475000D01*
D62*
X78400000Y-182500000D02*
X78400000Y-159125000D01*
D63*
X56850000Y-147637500D02*
X56850000Y-151950000D01*
D62*
X74900000Y-148900000D02*
X75975000Y-148900000D01*
X76362500Y-149337500D02*
X76325000Y-149300000D01*
X72400000Y-148850000D02*
X74850000Y-148850000D01*
X72350000Y-150950000D02*
X72350000Y-148900000D01*
D63*
X65950000Y-146240000D02*
X65950000Y-148750000D01*
D62*
X72350000Y-150950000D02*
X74050000Y-150950000D01*
X74050000Y-150950000D02*
X74100000Y-151000000D01*
D63*
X65950000Y-148750000D02*
X63550000Y-151150000D01*
D62*
X74850000Y-148850000D02*
X74900000Y-148900000D01*
X75975000Y-148900000D02*
X76500000Y-149425000D01*
D63*
X58075000Y-153175000D02*
X63550000Y-153175000D01*
D62*
X72350000Y-148900000D02*
X72400000Y-148850000D01*
D63*
X63550000Y-151150000D02*
X63550000Y-153175000D01*
D62*
X78400000Y-159125000D02*
X78325000Y-159050000D01*
X76450000Y-149425000D02*
X76362500Y-149337500D01*
D65*
%TO.N,Net-(Q1-D)*%
X53712500Y-140087500D02*
X53712500Y-142405000D01*
X53700000Y-140075000D02*
X53700000Y-120625000D01*
D62*
X55612500Y-86287500D02*
X53075000Y-83750000D01*
X62375000Y-90825000D02*
X65150000Y-93600000D01*
X58900000Y-86287500D02*
X55612500Y-86287500D01*
D65*
X55737500Y-145812500D02*
X56850000Y-145812500D01*
D62*
X61300000Y-86200000D02*
X61800000Y-86200000D01*
X65150000Y-93600000D02*
X65150000Y-94500000D01*
D65*
X53712500Y-143787500D02*
X55737500Y-145812500D01*
X53700000Y-140075000D02*
X53712500Y-140087500D01*
D62*
X62375000Y-86775000D02*
X62375000Y-90825000D01*
X61800000Y-86200000D02*
X62375000Y-86775000D01*
X58900000Y-86287500D02*
X61212500Y-86287500D01*
D65*
X53712500Y-142405000D02*
X53712500Y-143787500D01*
D62*
%TO.N,Net-(D3-A)*%
X73850000Y-147850000D02*
X74900000Y-146800000D01*
X71350000Y-147850000D02*
X71350000Y-147400000D01*
X70125000Y-144775000D02*
X70550000Y-144350000D01*
X71350000Y-147850000D02*
X73850000Y-147850000D01*
X70125000Y-146950000D02*
X70125000Y-144775000D01*
X70900000Y-146950000D02*
X70125000Y-146950000D01*
X71350000Y-152625000D02*
X71350000Y-147850000D01*
X71975000Y-153250000D02*
X71350000Y-152625000D01*
X71350000Y-147400000D02*
X70900000Y-146950000D01*
X72312500Y-153250000D02*
X71975000Y-153250000D01*
D66*
%TO.N,/Power4/CATHODE*%
X40695000Y-74962500D02*
X46412500Y-74962500D01*
X46375000Y-70300000D02*
X47425000Y-69250000D01*
X43370000Y-70300000D02*
X43370000Y-72287500D01*
X43370000Y-72287500D02*
X40695000Y-74962500D01*
X43370000Y-70300000D02*
X46375000Y-70300000D01*
D64*
X40695000Y-74962500D02*
X40695000Y-82582500D01*
D66*
X46412500Y-74962500D02*
X47750000Y-76300000D01*
D62*
%TO.N,/MCU4/SHELL_GND*%
X55780000Y-184250000D02*
X64420000Y-184250000D01*
X58175000Y-172800000D02*
X55850000Y-172800000D01*
X53762500Y-185650000D02*
X54380000Y-185650000D01*
X54380000Y-185650000D02*
X55780000Y-184250000D01*
X54975000Y-173675000D02*
X54975000Y-179265000D01*
X64420000Y-184250000D02*
X64420000Y-180070000D01*
X58612500Y-173237500D02*
X58175000Y-172800000D01*
X58612500Y-174050000D02*
X58612500Y-173237500D01*
X55850000Y-172800000D02*
X54975000Y-173675000D01*
X54975000Y-179265000D02*
X55780000Y-180070000D01*
X55780000Y-180070000D02*
X55780000Y-184250000D01*
D65*
%TO.N,Net-(D1-A)*%
X57775000Y-120000000D02*
X56912500Y-120862500D01*
D63*
X38500000Y-71830000D02*
X40030000Y-70300000D01*
D65*
X51550000Y-102600000D02*
X49155000Y-100205000D01*
X54462500Y-118412500D02*
X51550000Y-115500000D01*
X49155000Y-100205000D02*
X49155000Y-98300000D01*
X51550000Y-115500000D02*
X51550000Y-102600000D01*
D63*
X47300000Y-98300000D02*
X38500000Y-89500000D01*
X49155000Y-98300000D02*
X47300000Y-98300000D01*
D65*
X60900000Y-94500000D02*
X60900000Y-97625000D01*
X56912500Y-142405000D02*
X56912500Y-120862500D01*
X56912500Y-120862500D02*
X54462500Y-118412500D01*
D63*
X38500000Y-89500000D02*
X38500000Y-71830000D01*
D65*
X57775000Y-100750000D02*
X57775000Y-120000000D01*
X60900000Y-97625000D02*
X57775000Y-100750000D01*
D62*
%TO.N,/Audio4/OUTR*%
X109475000Y-158000000D02*
X109475000Y-172565250D01*
X91550000Y-140725000D02*
X93375000Y-142550000D01*
X83425000Y-155725000D02*
X83425000Y-149100000D01*
X81425000Y-157725000D02*
X83425000Y-155725000D01*
X58587500Y-171200000D02*
X69062500Y-160725000D01*
X109475000Y-172565250D02*
X108849817Y-173190433D01*
X93725000Y-147700000D02*
X94850000Y-148825000D01*
X69062500Y-160725000D02*
X71500000Y-160725000D01*
X94850000Y-148825000D02*
X94850000Y-149150000D01*
X105825000Y-154350000D02*
X109475000Y-158000000D01*
%TO.N,Net-(Q1-G)*%
X51150000Y-82850000D02*
X51200000Y-82800000D01*
X55100000Y-80275000D02*
X55100000Y-71075000D01*
X52575000Y-82800000D02*
X55100000Y-80275000D01*
X51200000Y-82800000D02*
X52575000Y-82800000D01*
X48300000Y-82850000D02*
X51150000Y-82850000D01*
X55100000Y-71075000D02*
X53175000Y-69150000D01*
D63*
%TO.N,Net-(D1-K)*%
X56900000Y-92850000D02*
X54450000Y-90400000D01*
X54450000Y-90400000D02*
X53000000Y-90400000D01*
X56900000Y-94500000D02*
X56900000Y-92850000D01*
D62*
X53625000Y-99430000D02*
X53625000Y-102900000D01*
X52495000Y-98300000D02*
X53625000Y-99430000D01*
%TO.N,/Audio4/OUTL*%
X93075000Y-144875000D02*
X91900000Y-143700000D01*
X103699942Y-173190433D02*
X103349818Y-173190433D01*
X96700000Y-143700000D02*
X98912500Y-145912500D01*
X105925000Y-159450000D02*
X105925000Y-170965375D01*
X91900000Y-148600000D02*
X93075000Y-147425000D01*
X93075000Y-147425000D02*
X93075000Y-144875000D01*
X105925000Y-170965375D02*
X103699942Y-173190433D01*
X91550000Y-143700000D02*
X96700000Y-143700000D01*
X91900000Y-143700000D02*
X91550000Y-143700000D01*
X99137500Y-146137500D02*
X99137500Y-148900000D01*
X91900000Y-148825000D02*
X91900000Y-148600000D01*
D63*
%TO.N,Net-(C2-Pad1)*%
X47900000Y-93850000D02*
X50850000Y-96800000D01*
X55617500Y-111800000D02*
X55942500Y-111475000D01*
X47900000Y-90400000D02*
X47900000Y-93850000D01*
X50850000Y-100800000D02*
X52425000Y-102375000D01*
X45450000Y-88801597D02*
X47048403Y-90400000D01*
X50850000Y-96800000D02*
X50850000Y-100800000D01*
X52425000Y-110125000D02*
X54100000Y-111800000D01*
X52850000Y-76300000D02*
X52850000Y-78450000D01*
X52425000Y-102375000D02*
X52425000Y-110125000D01*
X52850000Y-78450000D02*
X51500000Y-79800000D01*
X45450000Y-81725000D02*
X45450000Y-88801597D01*
X47375000Y-79800000D02*
X45450000Y-81725000D01*
X51500000Y-79800000D02*
X47375000Y-79800000D01*
X54100000Y-111800000D02*
X55617500Y-111800000D01*
X47048403Y-90400000D02*
X47900000Y-90400000D01*
D62*
%TO.N,/PWM*%
X82550000Y-76300000D02*
X85445000Y-76300000D01*
X85445000Y-76300000D02*
X85475000Y-76330000D01*
%TO.N,/MOSI*%
X71895000Y-86440000D02*
X71895000Y-94525000D01*
%TO.N,/I2S_DOUT*%
X103625000Y-146975000D02*
X103625000Y-146950000D01*
%TO.N,/MUTE*%
X78687500Y-98062500D02*
X78612500Y-98062500D01*
X78612500Y-98062500D02*
X75705000Y-95155000D01*
X75705000Y-95155000D02*
X75705000Y-86440000D01*
X79225000Y-98600000D02*
X78687500Y-98062500D01*
%TO.N,/MISO*%
X74435000Y-93140000D02*
X74400000Y-93175000D01*
X74435000Y-86440000D02*
X74435000Y-93125000D01*
X74435000Y-93125000D02*
X74435000Y-93140000D01*
%TO.N,/CS*%
X70625000Y-86440000D02*
X70625000Y-95300000D01*
%TO.N,/EN*%
X94329235Y-68720765D02*
X92800000Y-70250000D01*
X99075000Y-75375000D02*
X98912500Y-75537500D01*
X65050000Y-71220000D02*
X66555000Y-71220000D01*
X66555000Y-71220000D02*
X68637500Y-69137500D01*
X98912500Y-77600000D02*
X98912500Y-79862500D01*
X99075000Y-69041529D02*
X98754236Y-68720765D01*
X99075000Y-71225000D02*
X99075000Y-75375000D01*
X99075000Y-71225000D02*
X99075000Y-69041529D01*
X98754236Y-68720765D02*
X94329235Y-68720765D01*
X98912500Y-79862500D02*
X98950000Y-79900000D01*
X98912500Y-75537500D02*
X98912500Y-77600000D01*
X92800000Y-70250000D02*
X86975000Y-70250000D01*
%TO.N,Net-(U4-IO4{slash}ADC1_CH3)*%
X58000000Y-71912500D02*
X60862500Y-71912500D01*
X63190000Y-72490000D02*
X62900000Y-72200000D01*
X62900000Y-72200000D02*
X61150000Y-72200000D01*
X58000000Y-71912500D02*
X58000000Y-73987500D01*
X60862500Y-71912500D02*
X60900000Y-71950000D01*
X61150000Y-72200000D02*
X60900000Y-71950000D01*
X65050000Y-72490000D02*
X63190000Y-72490000D01*
%TO.N,GND*%
X101850000Y-69325000D02*
X101850000Y-69250000D01*
X97050000Y-79900000D02*
X97050000Y-81475000D01*
X62500000Y-69900000D02*
X62400000Y-69900000D01*
X72773100Y-135776900D02*
X72725000Y-135825000D01*
X101450000Y-113900000D02*
X101450000Y-125275000D01*
X51887500Y-181537500D02*
X51900000Y-181525000D01*
X72300000Y-76400000D02*
X70900000Y-76400000D01*
X56787500Y-174050000D02*
X56787500Y-175300000D01*
X61050000Y-69900000D02*
X60900000Y-70050000D01*
X69425000Y-147900000D02*
X68575000Y-148750000D01*
X70900000Y-75000000D02*
X70900000Y-76400000D01*
X64050000Y-174350000D02*
X64050000Y-172050000D01*
X72773100Y-129773100D02*
X71925000Y-128925000D01*
X58137500Y-88875000D02*
X57325000Y-88875000D01*
X70900000Y-73600000D02*
X71000000Y-73500000D01*
X82630000Y-68600000D02*
X82550000Y-68680000D01*
X67000008Y-104887492D02*
X68787500Y-103100000D01*
X61212500Y-88012500D02*
X61300000Y-88100000D01*
X64050000Y-172050000D02*
X65500000Y-170600000D01*
X70900000Y-77800000D02*
X72300000Y-77800000D01*
X95525000Y-70325000D02*
X95525000Y-69525000D01*
X58900000Y-88112500D02*
X58137500Y-88875000D01*
X51150000Y-84750000D02*
X51200000Y-84700000D01*
X84750000Y-69525000D02*
X83825000Y-68600000D01*
X62400000Y-69900000D02*
X61050000Y-69900000D01*
X67450000Y-118325000D02*
X66150000Y-118325000D01*
X68787500Y-103100000D02*
X70200000Y-103100000D01*
X72473100Y-124125000D02*
X73923100Y-122675000D01*
X96925000Y-71225000D02*
X96425000Y-71225000D01*
X101450000Y-113900000D02*
X101450000Y-112512500D01*
X60900000Y-70050000D02*
X58037500Y-70050000D01*
X72300000Y-75000000D02*
X73700000Y-75000000D01*
X95525000Y-69525000D02*
X95525000Y-69475000D01*
X56787500Y-179382500D02*
X56900000Y-179495000D01*
X68812500Y-111300000D02*
X69375000Y-111862500D01*
X97050000Y-81550000D02*
X97025000Y-81575000D01*
X63300000Y-179495000D02*
X63300000Y-177400000D01*
X56787500Y-175300000D02*
X56787500Y-176450000D01*
X80650000Y-92200000D02*
X80650000Y-93850000D01*
X56787500Y-176450000D02*
X56787500Y-179382500D01*
X72773100Y-133525000D02*
X72773100Y-135776900D01*
X67000008Y-105440000D02*
X67000008Y-104887492D01*
X64050000Y-176650000D02*
X64050000Y-174350000D01*
X103850000Y-79900000D02*
X103850000Y-81350000D01*
X73700000Y-75000000D02*
X73700000Y-76400000D01*
X70900000Y-77800000D02*
X70900000Y-79100000D01*
X51862500Y-183275000D02*
X51887500Y-183250000D01*
X73700000Y-76400000D02*
X72300000Y-76400000D01*
X101837500Y-125300000D02*
X101475000Y-125300000D01*
X70125000Y-147900000D02*
X69425000Y-147900000D01*
X103512500Y-125825000D02*
X102362500Y-125825000D01*
X68550000Y-117225000D02*
X67450000Y-118325000D01*
X70200000Y-103100000D02*
X70225000Y-103100000D01*
X101450000Y-125275000D02*
X101475000Y-125300000D01*
X61575000Y-109450000D02*
X61800001Y-109224999D01*
X101450000Y-112512500D02*
X101537500Y-112425000D01*
X49775000Y-84750000D02*
X51150000Y-84750000D01*
X48300000Y-84750000D02*
X49775000Y-84750000D01*
X80650000Y-89740000D02*
X80650000Y-92200000D01*
D63*
X67850000Y-144225000D02*
X67800000Y-144175000D01*
D62*
X83825000Y-68600000D02*
X82630000Y-68600000D01*
D63*
X67850000Y-146240000D02*
X67850000Y-144225000D01*
D62*
X73700000Y-77800000D02*
X73700000Y-76400000D01*
X70900000Y-75000000D02*
X70900000Y-73600000D01*
X73923100Y-122675000D02*
X74650000Y-122675000D01*
D63*
X67850000Y-148750000D02*
X67850000Y-146240000D01*
D62*
X58900000Y-88012500D02*
X61212500Y-88012500D01*
X69375000Y-111862500D02*
X69375000Y-112700000D01*
X97050000Y-81475000D02*
X97050000Y-81550000D01*
X65050000Y-68680000D02*
X63720000Y-68680000D01*
X70900000Y-75000000D02*
X72300000Y-75000000D01*
X63300000Y-177400000D02*
X64050000Y-176650000D01*
X103725000Y-71125000D02*
X103000000Y-71125000D01*
X61800001Y-109224999D02*
X63000024Y-109224999D01*
X96425000Y-71225000D02*
X95525000Y-70325000D01*
X72300000Y-77800000D02*
X73700000Y-77800000D01*
X101850000Y-69975000D02*
X101850000Y-69325000D01*
X51887500Y-183250000D02*
X51887500Y-181537500D01*
X63720000Y-68680000D02*
X62500000Y-69900000D01*
X103725000Y-71125000D02*
X103725000Y-75275000D01*
X68575000Y-148750000D02*
X67850000Y-148750000D01*
X51862500Y-185650000D02*
X51862500Y-183275000D01*
X70900000Y-76400000D02*
X70900000Y-77800000D01*
X96925000Y-71225000D02*
X96925000Y-75375000D01*
X73700000Y-77800000D02*
X75100000Y-77800000D01*
X103537500Y-125800000D02*
X103512500Y-125825000D01*
X102362500Y-125825000D02*
X101837500Y-125300000D01*
X73700000Y-75000000D02*
X75100000Y-75000000D01*
D63*
X72773100Y-133525000D02*
X72773100Y-129773100D01*
D62*
X58037500Y-70050000D02*
X58000000Y-70087500D01*
X103000000Y-71125000D02*
X101850000Y-69975000D01*
%TO.N,Net-(C7-Pad2)*%
X70487500Y-153250000D02*
X70487500Y-150987500D01*
X70487500Y-150987500D02*
X70450000Y-150950000D01*
%TO.N,/SCK*%
X73165000Y-93750000D02*
X73165000Y-86440000D01*
%TO.N,Net-(D5-A)*%
X97525000Y-116200000D02*
X97425000Y-116300000D01*
X99562500Y-116200000D02*
X97525000Y-116200000D01*
%TO.N,Net-(J1-CC1)*%
X58612500Y-177762500D02*
X58850000Y-178000000D01*
X58850000Y-178000000D02*
X58850000Y-179470000D01*
X58612500Y-176450000D02*
X58612500Y-177762500D01*
%TO.N,Net-(J1-CC2)*%
X61850000Y-179470000D02*
X61850000Y-178225000D01*
X53712500Y-183250000D02*
X53712500Y-181837500D01*
X53975000Y-183250000D02*
X53712500Y-183250000D01*
X53712500Y-181837500D02*
X53700000Y-181825000D01*
%TO.N,Net-(D6-A)*%
X99550000Y-118500000D02*
X97400000Y-118500000D01*
%TO.N,Net-(D7-A)*%
X99600000Y-120800000D02*
X97450000Y-120800000D01*
%TO.N,Net-(D8-A)*%
X99600000Y-123100000D02*
X97450000Y-123100000D01*
%TO.N,Net-(D9-A)*%
X99600000Y-125300000D02*
X97250000Y-125300000D01*
%TO.N,Net-(U4-IO35)*%
X83965000Y-83920000D02*
X85475000Y-85430000D01*
X82550000Y-83920000D02*
X83965000Y-83920000D01*
%TO.N,Net-(JP1-A)*%
X70975000Y-109750000D02*
X70449999Y-109224999D01*
X70449999Y-109224999D02*
X68799992Y-109224999D01*
X69825000Y-114550000D02*
X70975000Y-113400000D01*
X70975000Y-113400000D02*
X70975000Y-109750000D01*
%TO.N,Net-(U4-IO36)*%
X84907500Y-82650000D02*
X85487500Y-83230000D01*
X82550000Y-82650000D02*
X84907500Y-82650000D01*
%TO.N,+3.3V*%
X103887500Y-77500000D02*
X103425000Y-77500000D01*
D65*
X96675000Y-150675000D02*
X97100000Y-150250000D01*
D62*
X68799992Y-107275001D02*
X68799991Y-107275000D01*
D63*
X70873100Y-139523100D02*
X75025000Y-143675000D01*
D62*
X66800000Y-107275000D02*
X64975000Y-105450000D01*
X72700000Y-144350000D02*
X74350000Y-144350000D01*
X103425000Y-77500000D02*
X102375000Y-78550000D01*
D65*
X68525000Y-114550000D02*
X64075000Y-114550000D01*
D67*
X73300000Y-99475000D02*
X73300000Y-104530000D01*
D63*
X65371800Y-133578200D02*
X64325000Y-134625000D01*
D62*
X58900000Y-83200000D02*
X57100000Y-83200000D01*
D63*
X65371800Y-132950000D02*
X65946800Y-133525000D01*
D67*
X68900008Y-105440000D02*
X69810008Y-104530000D01*
D65*
X63212500Y-112212500D02*
X62800000Y-112625000D01*
X63212500Y-111300000D02*
X63212500Y-112212500D01*
D63*
X65946800Y-133525000D02*
X70873100Y-133525000D01*
X64325000Y-134625000D02*
X63900000Y-134625000D01*
D62*
X68799992Y-105540016D02*
X68900008Y-105440000D01*
X68799992Y-107275001D02*
X68799992Y-105540016D01*
X102375000Y-78550000D02*
X101400000Y-78550000D01*
X58900000Y-83200000D02*
X61387500Y-83200000D01*
D63*
X70873100Y-133525000D02*
X70873100Y-139523100D01*
D67*
X73325000Y-99450000D02*
X73300000Y-99475000D01*
D62*
X89275000Y-150125000D02*
X89825000Y-150675000D01*
D67*
X69810008Y-104530000D02*
X73300000Y-104530000D01*
D62*
X63750000Y-69950000D02*
X62700000Y-71000000D01*
X95725000Y-76675000D02*
X95300000Y-76675000D01*
X64975000Y-105450000D02*
X64912508Y-105450000D01*
X96650000Y-77600000D02*
X95725000Y-76675000D01*
D63*
X65371800Y-131211000D02*
X65371800Y-132950000D01*
D65*
X95550000Y-150675000D02*
X96675000Y-150675000D01*
D62*
X65050000Y-69950000D02*
X65100000Y-69900000D01*
X63212500Y-111300000D02*
X63212500Y-110812500D01*
X57100000Y-83200000D02*
X56800000Y-83500000D01*
X97087500Y-77600000D02*
X96650000Y-77600000D01*
X64912508Y-105612508D02*
X64912508Y-105450000D01*
X61387500Y-83200000D02*
X61400000Y-83212500D01*
D65*
X78700000Y-92250000D02*
X78700000Y-93675000D01*
D62*
X67850000Y-107275000D02*
X66800000Y-107275000D01*
X78750000Y-89740000D02*
X78750000Y-92200000D01*
X89000000Y-150125000D02*
X89275000Y-150125000D01*
D63*
X65371800Y-132950000D02*
X65371800Y-133578200D01*
D62*
X63212500Y-110812500D02*
X66750000Y-107275000D01*
X66750000Y-107275000D02*
X67850000Y-107275000D01*
X74350000Y-144350000D02*
X75025000Y-143675000D01*
X65050000Y-69950000D02*
X63750000Y-69950000D01*
X68799991Y-107275000D02*
X67850000Y-107275000D01*
%TO.N,/SDA*%
X61400000Y-81387500D02*
X65042500Y-81387500D01*
X65042500Y-81387500D02*
X65050000Y-81380000D01*
%TO.N,/SCL*%
X59300000Y-80400000D02*
X64760000Y-80400000D01*
X64760000Y-80400000D02*
X65050000Y-80110000D01*
X58900000Y-80800000D02*
X59300000Y-80400000D01*
X58900000Y-81375000D02*
X58900000Y-80800000D01*
D68*
%TO.N,/USB_D-*%
X60175000Y-173825000D02*
X60175000Y-178375000D01*
X67475000Y-96425000D02*
X67475000Y-91275000D01*
X79250000Y-154375000D02*
X79250000Y-100275000D01*
X61950000Y-171675000D02*
X79250000Y-154375000D01*
X79250000Y-100275000D02*
X77550000Y-98575000D01*
X77550000Y-98575000D02*
X69625000Y-98575000D01*
X64350000Y-89725000D02*
X62900000Y-88275000D01*
X62900000Y-88275000D02*
X62900000Y-84900000D01*
X59350000Y-178650000D02*
X59625000Y-178375000D01*
X61950000Y-172050000D02*
X60175000Y-173825000D01*
X69625000Y-98575000D02*
X67475000Y-96425000D01*
X65925000Y-89725000D02*
X64350000Y-89725000D01*
X59625000Y-178375000D02*
X60175000Y-178375000D01*
X61950000Y-172050000D02*
X61950000Y-171675000D01*
X62900000Y-84900000D02*
X63880000Y-83920000D01*
X60175000Y-178375000D02*
X60350000Y-178550000D01*
X67475000Y-91275000D02*
X65925000Y-89725000D01*
X59350000Y-179470000D02*
X59350000Y-178650000D01*
X63880000Y-83920000D02*
X65050000Y-83920000D01*
X60350000Y-178550000D02*
X60350000Y-179470000D01*
%TO.N,/USB_D+*%
X60098000Y-180548000D02*
X60627000Y-180548000D01*
X61950000Y-174350000D02*
X60850000Y-175450000D01*
X67950000Y-96100000D02*
X70000000Y-98150000D01*
X63400000Y-85800000D02*
X63400000Y-88050000D01*
X60850000Y-175450000D02*
X60850000Y-179470000D01*
X77925000Y-98150000D02*
X79650000Y-99875000D01*
X65050000Y-85190000D02*
X64010000Y-85190000D01*
X63075000Y-171150000D02*
X63075000Y-172975000D01*
X66200000Y-89225000D02*
X67950000Y-90975000D01*
X64575000Y-89225000D02*
X66200000Y-89225000D01*
X60627000Y-180548000D02*
X60850000Y-180325000D01*
X59850000Y-179470000D02*
X59850000Y-180300000D01*
X79650000Y-99875000D02*
X79650000Y-154575000D01*
X63400000Y-88050000D02*
X64575000Y-89225000D01*
X70000000Y-98150000D02*
X77925000Y-98150000D01*
X79650000Y-154575000D02*
X63075000Y-171150000D01*
X63075000Y-172975000D02*
X61950000Y-174100000D01*
X64010000Y-85190000D02*
X63400000Y-85800000D01*
X60850000Y-180325000D02*
X60850000Y-179470000D01*
X61950000Y-174100000D02*
X61950000Y-174350000D01*
X59850000Y-180300000D02*
X60098000Y-180548000D01*
X67950000Y-90975000D02*
X67950000Y-96100000D01*
D62*
%TO.N,/GPIO0*%
X105712500Y-75437500D02*
X105875000Y-75275000D01*
X105712500Y-77500000D02*
X105712500Y-75437500D01*
X105712500Y-79862500D02*
X105750000Y-79900000D01*
X105750000Y-79900000D02*
X105750000Y-82875000D01*
X105750000Y-82875000D02*
X102126397Y-86498603D01*
X93576397Y-86498603D02*
X93425000Y-86650000D01*
X102126397Y-86498603D02*
X93576397Y-86498603D01*
X105712500Y-77500000D02*
X105712500Y-79862500D01*
X105875000Y-75275000D02*
X105875000Y-71125000D01*
D63*
%TO.N,VBUS*%
X92270000Y-171330000D02*
X94810000Y-168790000D01*
D62*
X62500000Y-180067222D02*
X62275000Y-180292222D01*
D63*
X91575000Y-171330000D02*
X92270000Y-171330000D01*
D62*
X62500000Y-179495000D02*
X62500000Y-177200000D01*
X62500000Y-179495000D02*
X62500000Y-180067222D01*
X61625000Y-176325000D02*
X61450000Y-176325000D01*
X50500000Y-157750000D02*
X50400000Y-157850000D01*
X62086000Y-126639000D02*
X62075000Y-126650000D01*
D63*
X50500000Y-153162500D02*
X50500000Y-157750000D01*
D62*
X99150000Y-176250000D02*
X99150000Y-177625000D01*
X62500000Y-177200000D02*
X61950000Y-176650000D01*
X57700000Y-180050000D02*
X57700000Y-179495000D01*
X61550000Y-181025000D02*
X58675000Y-181025000D01*
X96575000Y-173870000D02*
X99070000Y-173870000D01*
X96575000Y-168790000D02*
X91575000Y-168790000D01*
D63*
X67885800Y-124125000D02*
X67467900Y-124542900D01*
D62*
X95355000Y-175925000D02*
X95355000Y-175090000D01*
X95785000Y-174660000D02*
X96575000Y-173870000D01*
X62275000Y-180292222D02*
X62275000Y-180300000D01*
X99150000Y-176250000D02*
X99150000Y-173950000D01*
X61925000Y-180650000D02*
X61550000Y-181025000D01*
X98100000Y-168790000D02*
X96575000Y-168790000D01*
X99085000Y-168790000D02*
X98100000Y-168790000D01*
X99070000Y-173870000D02*
X99150000Y-173950000D01*
X99125000Y-168750000D02*
X99085000Y-168790000D01*
D63*
X70573100Y-124125000D02*
X67885800Y-124125000D01*
D62*
X57700000Y-178275000D02*
X57725000Y-178250000D01*
X62275000Y-180300000D02*
X61925000Y-180650000D01*
D63*
X65371800Y-126639000D02*
X62086000Y-126639000D01*
D62*
X58675000Y-181025000D02*
X57700000Y-180050000D01*
X95355000Y-175090000D02*
X95785000Y-174660000D01*
D63*
X94810000Y-168790000D02*
X96575000Y-168790000D01*
D62*
X61950000Y-176650000D02*
X61625000Y-176325000D01*
D63*
X57700000Y-179495000D02*
X57700000Y-178275000D01*
D62*
X61450000Y-176325000D02*
X61375000Y-176325000D01*
%TO.N,AGND*%
X101037500Y-148900000D02*
X101037500Y-151300000D01*
X95550000Y-153275000D02*
X97075000Y-153275000D01*
X95550000Y-155875000D02*
X95550000Y-156525000D01*
X84262500Y-162887500D02*
X84225000Y-162850000D01*
X89825000Y-155875000D02*
X89825000Y-156525000D01*
X89825000Y-156525000D02*
X89825000Y-157100000D01*
X96400000Y-157150000D02*
X97025000Y-156525000D01*
X88175000Y-157450000D02*
X87487500Y-158137500D01*
X95550000Y-151325000D02*
X97025000Y-151325000D01*
X89475000Y-157450000D02*
X88175000Y-157450000D01*
X85800000Y-163775000D02*
X85150000Y-163775000D01*
X87487500Y-158137500D02*
X87487500Y-158900000D01*
X95550000Y-151325000D02*
X95525000Y-151300000D01*
X96400000Y-158425000D02*
X96400000Y-157150000D01*
X95550000Y-156525000D02*
X97025000Y-156525000D01*
X101037500Y-151300000D02*
X101112500Y-151225000D01*
X89825000Y-157100000D02*
X89475000Y-157450000D01*
X97025000Y-151325000D02*
X97050000Y-151300000D01*
X85150000Y-163775000D02*
X84262500Y-162887500D01*
X87975000Y-156525000D02*
X89825000Y-156525000D01*
X96400000Y-158550000D02*
X96400000Y-160825000D01*
X96400000Y-160825000D02*
X96425000Y-160850000D01*
X97075000Y-153275000D02*
X97125000Y-153225000D01*
D65*
X101112500Y-151225000D02*
X102250000Y-151225000D01*
D62*
%TO.N,Net-(JP2-B)*%
X72200000Y-112700000D02*
X72200000Y-108625000D01*
X72200000Y-108625000D02*
X71499999Y-107924999D01*
X70675000Y-119925000D02*
X72175000Y-118425000D01*
X71499999Y-107924999D02*
X68799992Y-107924999D01*
X72175000Y-118425000D02*
X72175000Y-112725000D01*
X69850000Y-119925000D02*
X70675000Y-119925000D01*
X72175000Y-112725000D02*
X72200000Y-112700000D01*
%TO.N,Net-(JP3-A)*%
X71525000Y-109125000D02*
X71525000Y-112750000D01*
X69850000Y-117225000D02*
X71525000Y-115550000D01*
X70975001Y-108575001D02*
X71525000Y-109125000D01*
X68799992Y-108575001D02*
X70975001Y-108575001D01*
X71525000Y-115550000D02*
X71525000Y-112750000D01*
%TO.N,Net-(U1A-1IN+)*%
X61249999Y-108575001D02*
X63000024Y-108575001D01*
X65037500Y-111300000D02*
X66987500Y-111300000D01*
X60875000Y-113300000D02*
X60175000Y-112600000D01*
X63875000Y-113300000D02*
X60875000Y-113300000D01*
X60175000Y-112600000D02*
X60175000Y-109650000D01*
X60175000Y-109650000D02*
X61249999Y-108575001D01*
X65037500Y-111300000D02*
X65037500Y-112137500D01*
X65037500Y-112137500D02*
X63875000Y-113300000D01*
%TO.N,Net-(D4-A)*%
X97450000Y-113900000D02*
X99575000Y-113900000D01*
%TO.N,/BLINK*%
X82550000Y-71220000D02*
X82470000Y-71300000D01*
%TO.N,Net-(R6-Pad1)*%
X50500000Y-147237500D02*
X50512500Y-147225000D01*
D63*
X50512500Y-147225000D02*
X50512500Y-142405000D01*
D62*
%TO.N,/BAT_SENSE*%
X69355000Y-95855000D02*
X69400000Y-95900000D01*
X69355000Y-86440000D02*
X69355000Y-95855000D01*
%TO.N,Net-(U1A-1IN-)*%
X63925001Y-107924999D02*
X64200000Y-107650000D01*
X64025000Y-106575000D02*
X64025000Y-103200000D01*
X66412500Y-102550000D02*
X66962500Y-103100000D01*
X64200000Y-106750000D02*
X64025000Y-106575000D01*
X64812500Y-102550000D02*
X66412500Y-102550000D01*
X63000024Y-107924999D02*
X63925001Y-107924999D01*
X64675000Y-102550000D02*
X64812500Y-102550000D01*
X64200000Y-107650000D02*
X64200000Y-106750000D01*
X64025000Y-103200000D02*
X64675000Y-102550000D01*
%TO.N,/RAD_IN*%
X62590000Y-77575000D02*
X62595000Y-77570000D01*
X63000024Y-107275001D02*
X60199999Y-107275001D01*
X60199999Y-107275001D02*
X60175000Y-107300000D01*
X62250000Y-77575000D02*
X62590000Y-77575000D01*
X63000024Y-107275001D02*
X63000024Y-105537484D01*
X63000024Y-105537484D02*
X63087508Y-105450000D01*
X62595000Y-77570000D02*
X65050000Y-77570000D01*
%TO.N,Net-(+OUT_L1-Pad1)*%
X86925000Y-182112500D02*
X86925000Y-184675000D01*
X86925000Y-184675000D02*
X86950000Y-184700000D01*
%TO.N,/AMP*%
X77700000Y-88150000D02*
X77700000Y-94475000D01*
X100160000Y-170060000D02*
X100725000Y-170625000D01*
X77700000Y-94475000D02*
X81000000Y-97775000D01*
X78245000Y-86440000D02*
X78245000Y-87605000D01*
X78245000Y-87605000D02*
X77700000Y-88150000D01*
X80175000Y-154950000D02*
X80000000Y-155125000D01*
X81000000Y-97775000D02*
X81000000Y-110100000D01*
X80175000Y-110925000D02*
X80175000Y-154950000D01*
X81000000Y-110100000D02*
X80175000Y-110925000D01*
X96575000Y-170060000D02*
X100160000Y-170060000D01*
%TO.N,Net-(U5-+OUT_R)*%
X96575000Y-164775000D02*
X97050000Y-164300000D01*
X97050000Y-164300000D02*
X98375000Y-164300000D01*
X98375000Y-164300000D02*
X98425000Y-164250000D01*
X96575000Y-164980000D02*
X96575000Y-164775000D01*
%TO.N,Net-(-OUT_L1-Pad1)*%
X90925000Y-181987500D02*
X90925000Y-184675000D01*
%TO.N,Net-(U5--OUT_R)*%
X96745000Y-167350000D02*
X98125000Y-167350000D01*
X96575000Y-167520000D02*
X96745000Y-167350000D01*
%TO.N,Net-(U6-CAPM)*%
X96750000Y-146675000D02*
X96800000Y-146625000D01*
X96800000Y-146075000D02*
X96800000Y-146625000D01*
%TO.N,Net-(U6-LDOO)*%
X97875000Y-151950000D02*
X98037500Y-151787500D01*
X95787500Y-151950000D02*
X97875000Y-151950000D01*
X98525000Y-151300000D02*
X99137500Y-151300000D01*
X90375000Y-158900000D02*
X89387500Y-158900000D01*
X98037500Y-151787500D02*
X98525000Y-151300000D01*
%TO.N,/Audio4/AMP_MONO*%
X84150000Y-145975000D02*
X85025000Y-145100000D01*
X87325000Y-172600000D02*
X87325000Y-161550000D01*
X84150000Y-158375000D02*
X84150000Y-145975000D01*
X87325000Y-161550000D02*
X84150000Y-158375000D01*
%TO.N,Net-(U5-VREF)*%
X91575000Y-175450000D02*
X91125000Y-175900000D01*
X91575000Y-173870000D02*
X91575000Y-175450000D01*
%TO.N,Net-(U6-VNEG)*%
X90062500Y-153250000D02*
X91250000Y-153250000D01*
X94500000Y-156500000D02*
X94500000Y-158550000D01*
X91250000Y-153250000D02*
X94500000Y-156500000D01*
%TO.N,Net-(U5-+OUT_L)*%
X86700000Y-178925000D02*
X87025000Y-179250000D01*
X87025000Y-179250000D02*
X87025000Y-180437500D01*
X89750000Y-164980000D02*
X91575000Y-164980000D01*
X87025000Y-180437500D02*
X86925000Y-180537500D01*
%TO.N,Net-(U5--OUT_L)*%
X89850000Y-167520000D02*
X91575000Y-167520000D01*
X90950000Y-180387500D02*
X90925000Y-180412500D01*
X90950000Y-179800000D02*
X90950000Y-180387500D01*
X89850000Y-178700000D02*
X90950000Y-179800000D01*
X89825000Y-178700000D02*
X89850000Y-178700000D01*
%TO.N,Net-(JP4-A)*%
X90250000Y-143700000D02*
X90250000Y-146450000D01*
X90250000Y-146450000D02*
X90075000Y-146625000D01*
%TO.N,/LAMP*%
X79515000Y-86440000D02*
X79875000Y-86800000D01*
%TO.N,Net-(U6-OUTL)*%
X85300000Y-153575000D02*
X85650000Y-153925000D01*
X85300000Y-149375000D02*
X85300000Y-153575000D01*
X90075000Y-148825000D02*
X85850000Y-148825000D01*
X85650000Y-153925000D02*
X89825000Y-153925000D01*
X85850000Y-148825000D02*
X85300000Y-149375000D01*
%TO.N,Net-(U6-OUTR)*%
X88175000Y-154550000D02*
X88150000Y-154575000D01*
X90062500Y-154550000D02*
X88175000Y-154550000D01*
X68062500Y-159900000D02*
X71500000Y-159900000D01*
X56762500Y-171200000D02*
X68062500Y-159900000D01*
%TO.N,PGND*%
X102075000Y-172925000D02*
X101050000Y-173950000D01*
X85075000Y-165800000D02*
X85800000Y-165075000D01*
X99880000Y-171330000D02*
X101050000Y-172500000D01*
X102075000Y-168750000D02*
X102075000Y-172925000D01*
X101050000Y-172500000D02*
X101050000Y-173950000D01*
X102075000Y-168750000D02*
X101725000Y-168750000D01*
X91575000Y-166250000D02*
X96575000Y-166250000D01*
X97100000Y-175930000D02*
X97095000Y-175925000D01*
X96575000Y-171330000D02*
X98550000Y-171330000D01*
X89775000Y-166250000D02*
X91575000Y-166250000D01*
X98550000Y-171330000D02*
X99880000Y-171330000D01*
X97100000Y-177300000D02*
X97100000Y-175930000D01*
X101050000Y-176250000D02*
X101050000Y-173950000D01*
X85075000Y-166425000D02*
X85075000Y-165800000D01*
%TD*%
M02*
