%TF.GenerationSoftware,KiCad,Pcbnew,9.0.0*%
%TF.CreationDate,2025-07-21T23:18:41-04:00*%
%TF.ProjectId,Radiation3,52616469-6174-4696-9f6e-332e6b696361,rev?*%
%TF.SameCoordinates,Original*%
%TF.FileFunction,Copper,L1,Top*%
%TF.FilePolarity,Positive*%
%FSLAX46Y46*%
G04 Gerber Fmt 4.6, Leading zero omitted, Abs format (unit mm)*
G04 Created by KiCad (PCBNEW 9.0.0) date 2025-07-21 23:18:41*
%MOMM*%
%LPD*%
G01*
G04 APERTURE LIST*
G04 Aperture macros list*
%AMRoundRect*
0 Rectangle with rounded corners*
0 $1 Rounding radius*
0 $2 $3 $4 $5 $6 $7 $8 $9 X,Y pos of 4 corners*
0 Add a 4 corners polygon primitive as box body*
4,1,4,$2,$3,$4,$5,$6,$7,$8,$9,$2,$3,0*
0 Add four circle primitives for the rounded corners*
1,1,$1+$1,$2,$3*
1,1,$1+$1,$4,$5*
1,1,$1+$1,$6,$7*
1,1,$1+$1,$8,$9*
0 Add four rect primitives between the rounded corners*
20,1,$1+$1,$2,$3,$4,$5,0*
20,1,$1+$1,$4,$5,$6,$7,0*
20,1,$1+$1,$6,$7,$8,$9,0*
20,1,$1+$1,$8,$9,$2,$3,0*%
%AMFreePoly0*
4,1,23,0.500000,-0.750000,0.000000,-0.750000,0.000000,-0.745722,-0.065263,-0.745722,-0.191342,-0.711940,-0.304381,-0.646677,-0.396677,-0.554381,-0.461940,-0.441342,-0.495722,-0.315263,-0.495722,-0.250000,-0.500000,-0.250000,-0.500000,0.250000,-0.495722,0.250000,-0.495722,0.315263,-0.461940,0.441342,-0.396677,0.554381,-0.304381,0.646677,-0.191342,0.711940,-0.065263,0.745722,0.000000,0.745722,
0.000000,0.750000,0.500000,0.750000,0.500000,-0.750000,0.500000,-0.750000,$1*%
%AMFreePoly1*
4,1,23,0.000000,0.745722,0.065263,0.745722,0.191342,0.711940,0.304381,0.646677,0.396677,0.554381,0.461940,0.441342,0.495722,0.315263,0.495722,0.250000,0.500000,0.250000,0.500000,-0.250000,0.495722,-0.250000,0.495722,-0.315263,0.461940,-0.441342,0.396677,-0.554381,0.304381,-0.646677,0.191342,-0.711940,0.065263,-0.745722,0.000000,-0.745722,0.000000,-0.750000,-0.500000,-0.750000,
-0.500000,0.750000,0.000000,0.750000,0.000000,0.745722,0.000000,0.745722,$1*%
G04 Aperture macros list end*
%TA.AperFunction,SMDPad,CuDef*%
%ADD10RoundRect,0.250000X-0.262500X-0.450000X0.262500X-0.450000X0.262500X0.450000X-0.262500X0.450000X0*%
%TD*%
%TA.AperFunction,SMDPad,CuDef*%
%ADD11RoundRect,0.250000X0.262500X0.450000X-0.262500X0.450000X-0.262500X-0.450000X0.262500X-0.450000X0*%
%TD*%
%TA.AperFunction,ComponentPad*%
%ADD12C,2.000000*%
%TD*%
%TA.AperFunction,SMDPad,CuDef*%
%ADD13RoundRect,0.250000X-0.250000X-0.475000X0.250000X-0.475000X0.250000X0.475000X-0.250000X0.475000X0*%
%TD*%
%TA.AperFunction,SMDPad,CuDef*%
%ADD14R,0.760000X1.910000*%
%TD*%
%TA.AperFunction,SMDPad,CuDef*%
%ADD15R,0.150000X1.000000*%
%TD*%
%TA.AperFunction,SMDPad,CuDef*%
%ADD16RoundRect,0.112500X0.187500X0.112500X-0.187500X0.112500X-0.187500X-0.112500X0.187500X-0.112500X0*%
%TD*%
%TA.AperFunction,SMDPad,CuDef*%
%ADD17RoundRect,0.150000X-0.587500X-0.150000X0.587500X-0.150000X0.587500X0.150000X-0.587500X0.150000X0*%
%TD*%
%TA.AperFunction,SMDPad,CuDef*%
%ADD18R,3.302000X1.117600*%
%TD*%
%TA.AperFunction,SMDPad,CuDef*%
%ADD19R,6.400800X5.689600*%
%TD*%
%TA.AperFunction,SMDPad,CuDef*%
%ADD20R,2.260000X1.510000*%
%TD*%
%TA.AperFunction,SMDPad,CuDef*%
%ADD21RoundRect,0.243750X0.243750X0.456250X-0.243750X0.456250X-0.243750X-0.456250X0.243750X-0.456250X0*%
%TD*%
%TA.AperFunction,ComponentPad*%
%ADD22RoundRect,0.635000X-0.635000X-0.635000X0.635000X-0.635000X0.635000X0.635000X-0.635000X0.635000X0*%
%TD*%
%TA.AperFunction,ComponentPad*%
%ADD23RoundRect,0.635000X0.635000X0.635000X-0.635000X0.635000X-0.635000X-0.635000X0.635000X-0.635000X0*%
%TD*%
%TA.AperFunction,SMDPad,CuDef*%
%ADD24RoundRect,0.250000X0.450000X-0.262500X0.450000X0.262500X-0.450000X0.262500X-0.450000X-0.262500X0*%
%TD*%
%TA.AperFunction,SMDPad,CuDef*%
%ADD25RoundRect,0.250000X-0.650000X-2.450000X0.650000X-2.450000X0.650000X2.450000X-0.650000X2.450000X0*%
%TD*%
%TA.AperFunction,SMDPad,CuDef*%
%ADD26RoundRect,0.250000X-1.425000X0.362500X-1.425000X-0.362500X1.425000X-0.362500X1.425000X0.362500X0*%
%TD*%
%TA.AperFunction,SMDPad,CuDef*%
%ADD27R,1.500000X0.449999*%
%TD*%
%TA.AperFunction,SMDPad,CuDef*%
%ADD28RoundRect,0.250000X-0.450000X0.262500X-0.450000X-0.262500X0.450000X-0.262500X0.450000X0.262500X0*%
%TD*%
%TA.AperFunction,SMDPad,CuDef*%
%ADD29RoundRect,0.250000X0.375000X0.850000X-0.375000X0.850000X-0.375000X-0.850000X0.375000X-0.850000X0*%
%TD*%
%TA.AperFunction,ComponentPad*%
%ADD30O,1.498600X2.006600*%
%TD*%
%TA.AperFunction,SMDPad,CuDef*%
%ADD31FreePoly0,0.000000*%
%TD*%
%TA.AperFunction,SMDPad,CuDef*%
%ADD32FreePoly1,0.000000*%
%TD*%
%TA.AperFunction,SMDPad,CuDef*%
%ADD33RoundRect,0.250000X0.250000X0.475000X-0.250000X0.475000X-0.250000X-0.475000X0.250000X-0.475000X0*%
%TD*%
%TA.AperFunction,SMDPad,CuDef*%
%ADD34FreePoly0,180.000000*%
%TD*%
%TA.AperFunction,SMDPad,CuDef*%
%ADD35FreePoly1,180.000000*%
%TD*%
%TA.AperFunction,SMDPad,CuDef*%
%ADD36RoundRect,0.100000X-0.637500X-0.100000X0.637500X-0.100000X0.637500X0.100000X-0.637500X0.100000X0*%
%TD*%
%TA.AperFunction,SMDPad,CuDef*%
%ADD37RoundRect,0.250000X-0.475000X0.250000X-0.475000X-0.250000X0.475000X-0.250000X0.475000X0.250000X0*%
%TD*%
%TA.AperFunction,SMDPad,CuDef*%
%ADD38FreePoly0,270.000000*%
%TD*%
%TA.AperFunction,SMDPad,CuDef*%
%ADD39FreePoly1,270.000000*%
%TD*%
%TA.AperFunction,SMDPad,CuDef*%
%ADD40RoundRect,0.250000X-0.362500X-1.425000X0.362500X-1.425000X0.362500X1.425000X-0.362500X1.425000X0*%
%TD*%
%TA.AperFunction,SMDPad,CuDef*%
%ADD41R,0.650000X1.050000*%
%TD*%
%TA.AperFunction,SMDPad,CuDef*%
%ADD42RoundRect,0.250000X0.312500X1.075000X-0.312500X1.075000X-0.312500X-1.075000X0.312500X-1.075000X0*%
%TD*%
%TA.AperFunction,SMDPad,CuDef*%
%ADD43RoundRect,0.150000X-0.512500X-0.150000X0.512500X-0.150000X0.512500X0.150000X-0.512500X0.150000X0*%
%TD*%
%TA.AperFunction,SMDPad,CuDef*%
%ADD44R,0.600000X1.150000*%
%TD*%
%TA.AperFunction,SMDPad,CuDef*%
%ADD45R,0.300000X1.200000*%
%TD*%
%TA.AperFunction,ComponentPad*%
%ADD46O,1.000000X2.100000*%
%TD*%
%TA.AperFunction,ComponentPad*%
%ADD47RoundRect,0.250000X-0.250000X-0.650000X0.250000X-0.650000X0.250000X0.650000X-0.250000X0.650000X0*%
%TD*%
%TA.AperFunction,SMDPad,CuDef*%
%ADD48R,1.500000X1.100000*%
%TD*%
%TA.AperFunction,SMDPad,CuDef*%
%ADD49RoundRect,0.250000X0.475000X-0.250000X0.475000X0.250000X-0.475000X0.250000X-0.475000X-0.250000X0*%
%TD*%
%TA.AperFunction,ComponentPad*%
%ADD50R,1.700000X1.700000*%
%TD*%
%TA.AperFunction,ComponentPad*%
%ADD51O,1.700000X1.700000*%
%TD*%
%TA.AperFunction,SMDPad,CuDef*%
%ADD52R,1.500000X0.900000*%
%TD*%
%TA.AperFunction,SMDPad,CuDef*%
%ADD53R,0.900000X1.500000*%
%TD*%
%TA.AperFunction,SMDPad,CuDef*%
%ADD54R,0.900000X0.900000*%
%TD*%
%TA.AperFunction,SMDPad,CuDef*%
%ADD55RoundRect,0.112500X0.112500X-0.187500X0.112500X0.187500X-0.112500X0.187500X-0.112500X-0.187500X0*%
%TD*%
%TA.AperFunction,ViaPad*%
%ADD56C,0.600000*%
%TD*%
%TA.AperFunction,ViaPad*%
%ADD57C,0.800000*%
%TD*%
%TA.AperFunction,ViaPad*%
%ADD58C,0.700000*%
%TD*%
%TA.AperFunction,Conductor*%
%ADD59C,0.254000*%
%TD*%
%TA.AperFunction,Conductor*%
%ADD60C,0.500000*%
%TD*%
%TA.AperFunction,Conductor*%
%ADD61C,0.400000*%
%TD*%
%TA.AperFunction,Conductor*%
%ADD62C,1.000000*%
%TD*%
%TA.AperFunction,Conductor*%
%ADD63C,2.540000*%
%TD*%
%TA.AperFunction,Conductor*%
%ADD64C,0.600000*%
%TD*%
%TA.AperFunction,Conductor*%
%ADD65C,0.200000*%
%TD*%
G04 APERTURE END LIST*
D10*
%TO.P,R3,1*%
%TO.N,/RAD_IN*%
X63087508Y-105450000D03*
%TO.P,R3,2*%
%TO.N,+3.3V*%
X64912508Y-105450000D03*
%TD*%
D11*
%TO.P,R30,1*%
%TO.N,/Audio3/OUTL*%
X91900000Y-148825000D03*
%TO.P,R30,2*%
%TO.N,Net-(U5-OUTL)*%
X90075000Y-148825000D03*
%TD*%
D12*
%TO.P,OUTL1,1,1*%
%TO.N,/Audio3/OUTL*%
X105925000Y-159450000D03*
%TD*%
D13*
%TO.P,C17,1*%
%TO.N,+3.3V*%
X78750000Y-92200000D03*
%TO.P,C17,2*%
%TO.N,GND*%
X80650000Y-92200000D03*
%TD*%
D14*
%TO.P,T1,1,1*%
%TO.N,unconnected-(T1-Pad1)*%
X48912500Y-142405000D03*
%TO.P,T1,2*%
%TO.N,Net-(R6-Pad1)*%
X50512500Y-142405000D03*
%TO.P,T1,3*%
%TO.N,unconnected-(T1-Pad3)*%
X52112500Y-142405000D03*
%TO.P,T1,4*%
%TO.N,Net-(Q1-D)*%
X53712500Y-142405000D03*
D15*
%TO.P,T1,5,5*%
%TO.N,unconnected-(T1-Pad5)*%
X55282500Y-142405000D03*
D14*
%TO.P,T1,6*%
%TO.N,Net-(D1-A)*%
X56912500Y-142405000D03*
%TO.P,T1,7*%
%TO.N,Net-(C2-Pad1)*%
X55942500Y-111475000D03*
%TO.P,T1,8,8*%
%TO.N,unconnected-(T1-Pad8)*%
X50342500Y-111475000D03*
%TO.P,T1,9,9*%
%TO.N,unconnected-(T1-Pad9)*%
X48912500Y-111435000D03*
%TD*%
D11*
%TO.P,R21,1*%
%TO.N,/I2S_BCK*%
X87300000Y-85430000D03*
%TO.P,R21,2*%
%TO.N,Net-(U4-IO35)*%
X85475000Y-85430000D03*
%TD*%
%TO.P,R12,1*%
%TO.N,/GPIO0*%
X105712500Y-77500000D03*
%TO.P,R12,2*%
%TO.N,+3.3V*%
X103887500Y-77500000D03*
%TD*%
D16*
%TO.P,D10,1,1*%
%TO.N,GND*%
X74350000Y-174200000D03*
%TO.P,D10,2,2*%
%TO.N,/USB_D+*%
X72250000Y-174200000D03*
%TD*%
D17*
%TO.P,Q1,1,G*%
%TO.N,Net-(Q1-G)*%
X51200000Y-82800000D03*
%TO.P,Q1,2,S*%
%TO.N,GND*%
X51200000Y-84700000D03*
%TO.P,Q1,3,D*%
%TO.N,Net-(Q1-D)*%
X53075000Y-83750000D03*
%TD*%
D12*
%TO.P,GND1,1,1*%
%TO.N,GND*%
X50400000Y-162675000D03*
%TD*%
D11*
%TO.P,R26,1*%
%TO.N,Net-(J1-CC2)*%
X64012500Y-183100000D03*
%TO.P,R26,2*%
%TO.N,GND*%
X62187500Y-183100000D03*
%TD*%
D13*
%TO.P,C3,1*%
%TO.N,/Power3/ANODE*%
X48000000Y-107000000D03*
%TO.P,C3,2*%
%TO.N,Net-(C3-Pad2)*%
X49900000Y-107000000D03*
%TD*%
D18*
%TO.P,U2,1,IN*%
%TO.N,VBUS*%
X65371800Y-126639000D03*
D19*
%TO.P,U2,2,GND*%
%TO.N,GND*%
X71925000Y-128925000D03*
D18*
%TO.P,U2,3,OUT*%
%TO.N,+3.3V*%
X65371800Y-131211000D03*
%TD*%
D12*
%TO.P,5V1,1,1*%
%TO.N,+5V*%
X63550000Y-153175000D03*
%TD*%
D11*
%TO.P,R31,1*%
%TO.N,/Audio3/OUTR*%
X91900000Y-146625000D03*
%TO.P,R31,2*%
%TO.N,Net-(U5-OUTR)*%
X90075000Y-146625000D03*
%TD*%
%TO.P,R13,1*%
%TO.N,/EN*%
X98912500Y-77600000D03*
%TO.P,R13,2*%
%TO.N,+3.3V*%
X97087500Y-77600000D03*
%TD*%
D20*
%TO.P,D2,1,K*%
%TO.N,Net-(D1-A)*%
X40030000Y-70300000D03*
%TO.P,D2,2,A*%
%TO.N,/Power3/CATHODE*%
X43370000Y-70300000D03*
%TD*%
D13*
%TO.P,C8,1*%
%TO.N,VBUS*%
X70573100Y-124125000D03*
%TO.P,C8,2*%
%TO.N,GND*%
X72473100Y-124125000D03*
%TD*%
D21*
%TO.P,D5,1,K*%
%TO.N,GND*%
X91100000Y-176100000D03*
%TO.P,D5,2,A*%
%TO.N,Net-(D5-A)*%
X89225000Y-176100000D03*
%TD*%
D22*
%TO.P,F1,1,1*%
%TO.N,/Power3/ANODE*%
X40700000Y-184477500D03*
X40700000Y-176857500D03*
D23*
%TO.P,F1,2,2*%
%TO.N,/Power3/CATHODE*%
X40695000Y-82582500D03*
X40695000Y-74962500D03*
%TD*%
D11*
%TO.P,R23,1*%
%TO.N,/I2S_LRCK*%
X87312500Y-83230000D03*
%TO.P,R23,2*%
%TO.N,Net-(U4-IO36)*%
X85487500Y-83230000D03*
%TD*%
D13*
%TO.P,C19,1*%
%TO.N,/Audio3/OUTR*%
X94900000Y-146625000D03*
%TO.P,C19,2*%
%TO.N,AGND*%
X96800000Y-146625000D03*
%TD*%
D24*
%TO.P,R9,1*%
%TO.N,GND*%
X58900000Y-88112500D03*
%TO.P,R9,2*%
%TO.N,Net-(Q1-D)*%
X58900000Y-86287500D03*
%TD*%
D13*
%TO.P,C12,1*%
%TO.N,+5V*%
X65950000Y-146240000D03*
%TO.P,C12,2*%
%TO.N,GND*%
X67850000Y-146240000D03*
%TD*%
%TO.P,C25,1*%
%TO.N,+3.3V*%
X94500000Y-160625000D03*
%TO.P,C25,2*%
%TO.N,AGND*%
X96400000Y-160625000D03*
%TD*%
D25*
%TO.P,C2,1*%
%TO.N,Net-(C2-Pad1)*%
X47900000Y-90400000D03*
%TO.P,C2,2*%
%TO.N,Net-(D1-K)*%
X53000000Y-90400000D03*
%TD*%
D11*
%TO.P,R16,1*%
%TO.N,Net-(D6-A)*%
X87062500Y-178400000D03*
%TO.P,R16,2*%
%TO.N,+3.3V*%
X85237500Y-178400000D03*
%TD*%
D12*
%TO.P,LRCK1,1,1*%
%TO.N,/I2S_LRCK*%
X105700000Y-146075000D03*
%TD*%
D13*
%TO.P,C11,1*%
%TO.N,GND*%
X97050000Y-79900000D03*
%TO.P,C11,2*%
%TO.N,/EN*%
X98950000Y-79900000D03*
%TD*%
%TO.P,C24,1*%
%TO.N,+3.3V*%
X94500000Y-158425000D03*
%TO.P,C24,2*%
%TO.N,AGND*%
X96400000Y-158425000D03*
%TD*%
D25*
%TO.P,C4,1*%
%TO.N,/Power3/CATHODE*%
X47750000Y-76300000D03*
%TO.P,C4,2*%
%TO.N,Net-(C2-Pad1)*%
X52850000Y-76300000D03*
%TD*%
D11*
%TO.P,R14,1*%
%TO.N,Net-(D4-A)*%
X87112500Y-173800000D03*
%TO.P,R14,2*%
%TO.N,/I2S_DOUT*%
X85287500Y-173800000D03*
%TD*%
D12*
%TO.P,DRAIN1,1,1*%
%TO.N,Net-(Q1-D)*%
X65150000Y-94500000D03*
%TD*%
D26*
%TO.P,R6,1*%
%TO.N,Net-(R6-Pad1)*%
X50500000Y-147237500D03*
%TO.P,R6,2*%
%TO.N,VBUS*%
X50500000Y-153162500D03*
%TD*%
D27*
%TO.P,U1,1,1OUT*%
%TO.N,/RAD_IN*%
X63000024Y-107275001D03*
%TO.P,U1,2,1IN-*%
%TO.N,Net-(U1A-1IN-)*%
X63000024Y-107924999D03*
%TO.P,U1,3,1IN+*%
%TO.N,Net-(U1A-1IN+)*%
X63000024Y-108575001D03*
%TO.P,U1,4,GND*%
%TO.N,GND*%
X63000024Y-109224999D03*
%TO.P,U1,5,2IN+*%
%TO.N,Net-(JP1-A)*%
X68799992Y-109224999D03*
%TO.P,U1,6,2IN-*%
%TO.N,Net-(JP3-A)*%
X68799992Y-108575001D03*
%TO.P,U1,7,2OUT*%
%TO.N,Net-(JP2-B)*%
X68799992Y-107924999D03*
%TO.P,U1,8,VCC*%
%TO.N,+3.3V*%
X68799992Y-107275001D03*
%TD*%
D28*
%TO.P,R29,1*%
%TO.N,/SCL*%
X58900000Y-81375000D03*
%TO.P,R29,2*%
%TO.N,+3.3V*%
X58900000Y-83200000D03*
%TD*%
D11*
%TO.P,R27,1*%
%TO.N,/MCU3/SHELL_GND*%
X68912500Y-173900000D03*
%TO.P,R27,2*%
%TO.N,GND*%
X67087500Y-173900000D03*
%TD*%
D29*
%TO.P,L1,1,1*%
%TO.N,+3.3V*%
X72700000Y-144350000D03*
%TO.P,L1,2,2*%
%TO.N,Net-(D3-A)*%
X70550000Y-144350000D03*
%TD*%
D30*
%TO.P,J2,1,1*%
%TO.N,AGND*%
X107600000Y-178490435D03*
%TO.P,J2,2,2*%
%TO.N,/Audio3/OUTL*%
X103349818Y-173190433D03*
%TO.P,J2,3,3*%
%TO.N,/Audio3/OUTR*%
X108849817Y-173190433D03*
%TD*%
D16*
%TO.P,D12,1,1*%
%TO.N,GND*%
X74350000Y-176500000D03*
%TO.P,D12,2,2*%
%TO.N,VBUS*%
X72250000Y-176500000D03*
%TD*%
D11*
%TO.P,R17,1*%
%TO.N,Net-(D7-A)*%
X87112500Y-180700000D03*
%TO.P,R17,2*%
%TO.N,VBUS*%
X85287500Y-180700000D03*
%TD*%
D13*
%TO.P,C16,1*%
%TO.N,+3.3V*%
X78750000Y-89740000D03*
%TO.P,C16,2*%
%TO.N,GND*%
X80650000Y-89740000D03*
%TD*%
D10*
%TO.P,R11,1*%
%TO.N,Net-(C7-Pad2)*%
X70487500Y-153250000D03*
%TO.P,R11,2*%
%TO.N,Net-(D3-A)*%
X72312500Y-153250000D03*
%TD*%
D11*
%TO.P,R24,1*%
%TO.N,/I2S_DOUT*%
X87300000Y-80930000D03*
%TO.P,R24,2*%
%TO.N,Net-(U4-IO37)*%
X85475000Y-80930000D03*
%TD*%
D31*
%TO.P,JP2,1,A*%
%TO.N,unconnected-(JP2-A-Pad1)*%
X68550000Y-119925000D03*
D32*
%TO.P,JP2,2,B*%
%TO.N,Net-(JP2-B)*%
X69850000Y-119925000D03*
%TD*%
D33*
%TO.P,C23,1*%
%TO.N,Net-(U5-VNEG)*%
X89387500Y-158900000D03*
%TO.P,C23,2*%
%TO.N,AGND*%
X87487500Y-158900000D03*
%TD*%
D34*
%TO.P,JP3,1,A*%
%TO.N,Net-(JP3-A)*%
X69850000Y-117225000D03*
D35*
%TO.P,JP3,2,B*%
%TO.N,GND*%
X68550000Y-117225000D03*
%TD*%
D36*
%TO.P,U5,1,CPVDD*%
%TO.N,+3.3V*%
X89825000Y-150675000D03*
%TO.P,U5,2,CAPP*%
%TO.N,Net-(U5-CAPP)*%
X89825000Y-151325000D03*
%TO.P,U5,3,CPGND*%
%TO.N,AGND*%
X89825000Y-151975000D03*
%TO.P,U5,4,CAPM*%
%TO.N,Net-(U5-CAPM)*%
X89825000Y-152625000D03*
%TO.P,U5,5,VNEG*%
%TO.N,Net-(U5-VNEG)*%
X89825000Y-153275000D03*
%TO.P,U5,6,OUTL*%
%TO.N,Net-(U5-OUTL)*%
X89825000Y-153925000D03*
%TO.P,U5,7,OUTR*%
%TO.N,Net-(U5-OUTR)*%
X89825000Y-154575000D03*
%TO.P,U5,8,AVDD*%
%TO.N,+3.3V*%
X89825000Y-155225000D03*
%TO.P,U5,9,AGND*%
%TO.N,AGND*%
X89825000Y-155875000D03*
%TO.P,U5,10,DEMP*%
X89825000Y-156525000D03*
%TO.P,U5,11,FLT*%
X95550000Y-156525000D03*
%TO.P,U5,12,SCK*%
X95550000Y-155875000D03*
%TO.P,U5,13,BCK*%
%TO.N,/I2S_BCK*%
X95550000Y-155225000D03*
%TO.P,U5,14,DIN*%
%TO.N,/I2S_DOUT*%
X95550000Y-154575000D03*
%TO.P,U5,15,LRCK*%
%TO.N,/I2S_LRCK*%
X95550000Y-153925000D03*
%TO.P,U5,16,FMT*%
%TO.N,AGND*%
X95550000Y-153275000D03*
%TO.P,U5,17,XSMT*%
%TO.N,/MUTE*%
X95550000Y-152625000D03*
%TO.P,U5,18,LDOO*%
%TO.N,Net-(U5-LDOO)*%
X95550000Y-151975000D03*
%TO.P,U5,19,DGND*%
%TO.N,AGND*%
X95550000Y-151325000D03*
%TO.P,U5,20,DVDD*%
%TO.N,+3.3V*%
X95550000Y-150675000D03*
%TD*%
D21*
%TO.P,D6,1,K*%
%TO.N,GND*%
X91087500Y-178400000D03*
%TO.P,D6,2,A*%
%TO.N,Net-(D6-A)*%
X89212500Y-178400000D03*
%TD*%
D12*
%TO.P,VBUS1,1,1*%
%TO.N,VBUS*%
X50400000Y-157850000D03*
%TD*%
%TO.P,OUTR1,1,1*%
%TO.N,/Audio3/OUTR*%
X105825000Y-154350000D03*
%TD*%
D11*
%TO.P,R32,1*%
%TO.N,+3.3V*%
X68887500Y-171050000D03*
%TO.P,R32,2*%
%TO.N,/CS*%
X67062500Y-171050000D03*
%TD*%
D28*
%TO.P,R25,1*%
%TO.N,GND*%
X58000000Y-70087500D03*
%TO.P,R25,2*%
%TO.N,Net-(U4-IO4{slash}ADC1_CH3)*%
X58000000Y-71912500D03*
%TD*%
D16*
%TO.P,D11,1,1*%
%TO.N,GND*%
X74350000Y-171900000D03*
%TO.P,D11,2,2*%
%TO.N,/USB_D-*%
X72250000Y-171900000D03*
%TD*%
D12*
%TO.P,HIV-1,1,1*%
%TO.N,/Power3/CATHODE*%
X47425000Y-69250000D03*
%TD*%
D37*
%TO.P,C18,1*%
%TO.N,Net-(U5-CAPP)*%
X86887500Y-151050000D03*
%TO.P,C18,2*%
%TO.N,Net-(U5-CAPM)*%
X86887500Y-152950000D03*
%TD*%
D12*
%TO.P,DOUT1,1,1*%
%TO.N,/I2S_DOUT*%
X105650000Y-142500000D03*
%TD*%
D11*
%TO.P,R22,1*%
%TO.N,Net-(J1-CC1)*%
X68912500Y-176300000D03*
%TO.P,R22,2*%
%TO.N,GND*%
X67087500Y-176300000D03*
%TD*%
D20*
%TO.P,D1,1,K*%
%TO.N,Net-(D1-K)*%
X52495000Y-98300000D03*
%TO.P,D1,2,A*%
%TO.N,Net-(D1-A)*%
X49155000Y-98300000D03*
%TD*%
D38*
%TO.P,JP4,1,A*%
%TO.N,GND*%
X84525000Y-138600000D03*
D39*
%TO.P,JP4,2,B*%
%TO.N,AGND*%
X84525000Y-139900000D03*
%TD*%
D11*
%TO.P,R8,1*%
%TO.N,Net-(Q1-G)*%
X87300000Y-76330000D03*
%TO.P,R8,2*%
%TO.N,/PWM*%
X85475000Y-76330000D03*
%TD*%
D40*
%TO.P,R4,1*%
%TO.N,/Power3/ANODE*%
X47700000Y-102900000D03*
%TO.P,R4,2*%
%TO.N,Net-(D1-K)*%
X53625000Y-102900000D03*
%TD*%
D41*
%TO.P,S1,1*%
%TO.N,/GPIO0*%
X105875000Y-71125000D03*
%TO.P,S1,2*%
X105875000Y-75275000D03*
%TO.P,S1,3*%
%TO.N,GND*%
X103725000Y-71125000D03*
%TO.P,S1,4*%
X103725000Y-75275000D03*
%TD*%
D11*
%TO.P,R15,1*%
%TO.N,Net-(D5-A)*%
X87087500Y-176200000D03*
%TO.P,R15,2*%
%TO.N,+5V*%
X85262500Y-176200000D03*
%TD*%
D13*
%TO.P,C20,1*%
%TO.N,/Audio3/OUTL*%
X94850000Y-148825000D03*
%TO.P,C20,2*%
%TO.N,AGND*%
X96750000Y-148825000D03*
%TD*%
%TO.P,C26,1*%
%TO.N,+3.3V*%
X96000000Y-92300000D03*
%TO.P,C26,2*%
%TO.N,GND*%
X97900000Y-92300000D03*
%TD*%
%TO.P,C1,1*%
%TO.N,GND*%
X67000008Y-105440000D03*
%TO.P,C1,2*%
%TO.N,+3.3V*%
X68900008Y-105440000D03*
%TD*%
D42*
%TO.P,R7,1*%
%TO.N,Net-(U1A-1IN-)*%
X64812500Y-102550000D03*
%TO.P,R7,2*%
%TO.N,Net-(C3-Pad2)*%
X61887500Y-102550000D03*
%TD*%
D13*
%TO.P,C22,1*%
%TO.N,Net-(U5-LDOO)*%
X99137500Y-151300000D03*
%TO.P,C22,2*%
%TO.N,AGND*%
X101037500Y-151300000D03*
%TD*%
D11*
%TO.P,R18,1*%
%TO.N,Net-(D8-A)*%
X87112500Y-183000000D03*
%TO.P,R18,2*%
%TO.N,/BAT_SENSE*%
X85287500Y-183000000D03*
%TD*%
D41*
%TO.P,S2,1*%
%TO.N,/EN*%
X99075000Y-71225000D03*
%TO.P,S2,2*%
X99075000Y-75375000D03*
%TO.P,S2,3*%
%TO.N,GND*%
X96925000Y-71225000D03*
%TO.P,S2,4*%
X96925000Y-75375000D03*
%TD*%
D43*
%TO.P,U3,1,SW*%
%TO.N,Net-(D3-A)*%
X70125000Y-146950000D03*
%TO.P,U3,2,GND*%
%TO.N,GND*%
X70125000Y-147900000D03*
%TO.P,U3,3,NC*%
%TO.N,unconnected-(U3-NC-Pad3)*%
X70125000Y-148850000D03*
%TO.P,U3,4,VOUT*%
%TO.N,+5V*%
X72400000Y-148850000D03*
%TO.P,U3,5,NC*%
%TO.N,unconnected-(U3-NC-Pad5)*%
X72400000Y-146950000D03*
%TD*%
D28*
%TO.P,R28,1*%
%TO.N,/SDA*%
X61400000Y-81387500D03*
%TO.P,R28,2*%
%TO.N,+3.3V*%
X61400000Y-83212500D03*
%TD*%
D12*
%TO.P,GND3,1,1*%
%TO.N,GND*%
X107450000Y-114125000D03*
%TD*%
%TO.P,BCK1,1,1*%
%TO.N,/I2S_BCK*%
X105800000Y-149675000D03*
%TD*%
D13*
%TO.P,C13,1*%
%TO.N,+5V*%
X65950000Y-148750000D03*
%TO.P,C13,2*%
%TO.N,GND*%
X67850000Y-148750000D03*
%TD*%
D12*
%TO.P,STG1,1,1*%
%TO.N,Net-(D1-A)*%
X60900000Y-94500000D03*
%TD*%
D34*
%TO.P,JP1,1,A*%
%TO.N,Net-(JP1-A)*%
X69825000Y-114550000D03*
D35*
%TO.P,JP1,2,B*%
%TO.N,+3.3V*%
X68525000Y-114550000D03*
%TD*%
D21*
%TO.P,D8,1,K*%
%TO.N,GND*%
X91137500Y-183000000D03*
%TO.P,D8,2,A*%
%TO.N,Net-(D8-A)*%
X89262500Y-183000000D03*
%TD*%
D37*
%TO.P,C5,1*%
%TO.N,Net-(Q1-D)*%
X61300000Y-86200000D03*
%TO.P,C5,2*%
%TO.N,GND*%
X61300000Y-88100000D03*
%TD*%
%TO.P,C6,1*%
%TO.N,Net-(Q1-G)*%
X48300000Y-82850000D03*
%TO.P,C6,2*%
%TO.N,GND*%
X48300000Y-84750000D03*
%TD*%
D13*
%TO.P,C9,1*%
%TO.N,+3.3V*%
X70873100Y-133525000D03*
%TO.P,C9,2*%
%TO.N,GND*%
X72773100Y-133525000D03*
%TD*%
D12*
%TO.P,+3.3V1,1,1*%
%TO.N,+3.3V*%
X63900000Y-134625000D03*
%TD*%
D44*
%TO.P,J1,A1_B12,GND*%
%TO.N,GND*%
X67200000Y-179345000D03*
%TO.P,J1,A4_B9,VBUS*%
%TO.N,VBUS*%
X68000000Y-179345000D03*
D45*
%TO.P,J1,A5,CC1*%
%TO.N,Net-(J1-CC1)*%
X69150000Y-179320000D03*
%TO.P,J1,A6,DP+*%
%TO.N,/USB_D+*%
X70150000Y-179320000D03*
%TO.P,J1,A7,DN-*%
%TO.N,/USB_D-*%
X70650000Y-179320000D03*
%TO.P,J1,A8,SBU1*%
%TO.N,unconnected-(J1-SBU1-PadA8)*%
X71650000Y-179320000D03*
D44*
%TO.P,J1,B1_A12,GND*%
%TO.N,GND*%
X73600000Y-179345000D03*
%TO.P,J1,B4_A9,VBUS*%
%TO.N,VBUS*%
X72800000Y-179345000D03*
D45*
%TO.P,J1,B5,CC2*%
%TO.N,Net-(J1-CC2)*%
X72150000Y-179320000D03*
%TO.P,J1,B6,DP2+*%
%TO.N,/USB_D+*%
X71150000Y-179320000D03*
%TO.P,J1,B7,DN2-*%
%TO.N,/USB_D-*%
X69650000Y-179320000D03*
%TO.P,J1,B8,SBU2*%
%TO.N,unconnected-(J1-SBU2-PadB8)*%
X68650000Y-179320000D03*
D46*
%TO.P,J1,SH1,SHELL_GND*%
%TO.N,/MCU3/SHELL_GND*%
X66080000Y-179920000D03*
%TO.P,J1,SH2,SHELL_GND*%
X74720000Y-179920000D03*
D47*
%TO.P,J1,SH3,SHELL_GND*%
X66080000Y-184100000D03*
%TO.P,J1,SH4,SHELL_GND*%
X74720000Y-184100000D03*
%TD*%
D12*
%TO.P,PWM1,1,1*%
%TO.N,Net-(Q1-G)*%
X53175000Y-69150000D03*
%TD*%
%TO.P,GND2,1,1*%
%TO.N,GND*%
X107300000Y-89800000D03*
%TD*%
D48*
%TO.P,S3,1A*%
%TO.N,+3.3V*%
X75537500Y-99450000D03*
%TO.P,S3,1B*%
%TO.N,/GPIO38*%
X84437500Y-99450000D03*
%TO.P,S3,2A*%
%TO.N,+3.3V*%
X75537500Y-101990000D03*
%TO.P,S3,2B*%
%TO.N,/GPIO39*%
X84437500Y-101990000D03*
%TO.P,S3,3A*%
%TO.N,+3.3V*%
X75537500Y-104530000D03*
%TO.P,S3,3B*%
%TO.N,/GPIO40*%
X84437500Y-104530000D03*
%TO.P,S3,4A*%
%TO.N,+3.3V*%
X75537500Y-107070000D03*
%TO.P,S3,4B*%
%TO.N,/GPIO42*%
X84437500Y-107070000D03*
%TO.P,S3,5A*%
%TO.N,+3.3V*%
X75537500Y-109610000D03*
%TO.P,S3,5B*%
%TO.N,/GPIO16*%
X84437500Y-109610000D03*
%TO.P,S3,6A*%
%TO.N,/RAD_IN*%
X75537500Y-112150000D03*
%TO.P,S3,6B*%
%TO.N,/RAD_IN2*%
X84437500Y-112150000D03*
%TD*%
D13*
%TO.P,C21,1*%
%TO.N,Net-(U5-LDOO)*%
X99137500Y-148900000D03*
%TO.P,C21,2*%
%TO.N,AGND*%
X101037500Y-148900000D03*
%TD*%
D11*
%TO.P,R2,1*%
%TO.N,Net-(U1A-1IN+)*%
X65037500Y-111300000D03*
%TO.P,R2,2*%
%TO.N,+3.3V*%
X63212500Y-111300000D03*
%TD*%
D28*
%TO.P,R20,1*%
%TO.N,Net-(U4-IO4{slash}ADC1_CH3)*%
X58000000Y-73987500D03*
%TO.P,R20,2*%
%TO.N,VBUS*%
X58000000Y-75812500D03*
%TD*%
D11*
%TO.P,R19,1*%
%TO.N,Net-(D9-A)*%
X86912500Y-185200000D03*
%TO.P,R19,2*%
%TO.N,/BLINK*%
X85087500Y-185200000D03*
%TD*%
D49*
%TO.P,C14,1*%
%TO.N,Net-(U4-IO4{slash}ADC1_CH3)*%
X60900000Y-71950000D03*
%TO.P,C14,2*%
%TO.N,GND*%
X60900000Y-70050000D03*
%TD*%
D21*
%TO.P,D7,1,K*%
%TO.N,GND*%
X91137500Y-180700000D03*
%TO.P,D7,2,A*%
%TO.N,Net-(D7-A)*%
X89262500Y-180700000D03*
%TD*%
%TO.P,D9,1,K*%
%TO.N,GND*%
X91137500Y-185200000D03*
%TO.P,D9,2,A*%
%TO.N,Net-(D9-A)*%
X89262500Y-185200000D03*
%TD*%
D50*
%TO.P,J4,1,Pin_1*%
%TO.N,/CS*%
X105600000Y-124380000D03*
D51*
%TO.P,J4,2,Pin_2*%
%TO.N,/MOSI*%
X105600000Y-126920000D03*
%TO.P,J4,3,Pin_3*%
%TO.N,/MISO*%
X105600000Y-129460000D03*
%TO.P,J4,4,Pin_4*%
%TO.N,/SCK*%
X105600000Y-132000000D03*
%TO.P,J4,5,Pin_5*%
%TO.N,+3.3V*%
X105600000Y-134540000D03*
%TO.P,J4,6,Pin_6*%
%TO.N,GND*%
X105600000Y-137080000D03*
%TD*%
D11*
%TO.P,R5,1*%
%TO.N,GND*%
X68812500Y-111300000D03*
%TO.P,R5,2*%
%TO.N,Net-(U1A-1IN+)*%
X66987500Y-111300000D03*
%TD*%
D21*
%TO.P,D4,1,K*%
%TO.N,GND*%
X91112500Y-173800000D03*
%TO.P,D4,2,A*%
%TO.N,Net-(D4-A)*%
X89237500Y-173800000D03*
%TD*%
D52*
%TO.P,U4,1,GND_1*%
%TO.N,GND*%
X65050000Y-68680000D03*
%TO.P,U4,2,3V3*%
%TO.N,+3.3V*%
X65050000Y-69950000D03*
%TO.P,U4,3,EN*%
%TO.N,/EN*%
X65050000Y-71220000D03*
%TO.P,U4,4,IO4/ADC1_CH3*%
%TO.N,Net-(U4-IO4{slash}ADC1_CH3)*%
X65050000Y-72490000D03*
%TO.P,U4,5,IO5/ADC1_CH4*%
%TO.N,unconnected-(U4-IO5{slash}ADC1_CH4-Pad5)*%
X65050000Y-73760000D03*
%TO.P,U4,6,IO6*%
%TO.N,unconnected-(U4-IO6-Pad6)*%
X65050000Y-75030000D03*
%TO.P,U4,7,IO7*%
%TO.N,unconnected-(U4-IO7-Pad7)*%
X65050000Y-76300000D03*
%TO.P,U4,8,IO15*%
%TO.N,/RAD_IN2*%
X65050000Y-77570000D03*
%TO.P,U4,9,IO16*%
%TO.N,/GPIO16*%
X65050000Y-78840000D03*
%TO.P,U4,10,IO17*%
%TO.N,/SCL*%
X65050000Y-80110000D03*
%TO.P,U4,11,IO18*%
%TO.N,/SDA*%
X65050000Y-81380000D03*
%TO.P,U4,12,IO8*%
%TO.N,unconnected-(U4-IO8-Pad12)*%
X65050000Y-82650000D03*
%TO.P,U4,13,IO19*%
%TO.N,/USB_D-*%
X65050000Y-83920000D03*
%TO.P,U4,14,IO20*%
%TO.N,/USB_D+*%
X65050000Y-85190000D03*
D53*
%TO.P,U4,15,IO3*%
%TO.N,unconnected-(U4-IO3-Pad15)*%
X66815000Y-86440000D03*
%TO.P,U4,16,IO46*%
%TO.N,unconnected-(U4-IO46-Pad16)*%
X68085000Y-86440000D03*
%TO.P,U4,17,IO9*%
%TO.N,/BAT_SENSE*%
X69355000Y-86440000D03*
%TO.P,U4,18,IO10/CS*%
%TO.N,/CS*%
X70625000Y-86440000D03*
%TO.P,U4,19,IO11/MOSI*%
%TO.N,/MOSI*%
X71895000Y-86440000D03*
%TO.P,U4,20,IO12/CLK*%
%TO.N,/SCK*%
X73165000Y-86440000D03*
%TO.P,U4,21,IO13/MISO*%
%TO.N,/MISO*%
X74435000Y-86440000D03*
%TO.P,U4,22,IO14*%
%TO.N,/MUTE*%
X75705000Y-86440000D03*
%TO.P,U4,23,IO21*%
%TO.N,unconnected-(U4-IO21-Pad23)*%
X76975000Y-86440000D03*
%TO.P,U4,24,IO47*%
%TO.N,unconnected-(U4-IO47-Pad24)*%
X78245000Y-86440000D03*
%TO.P,U4,25,IO48*%
%TO.N,unconnected-(U4-IO48-Pad25)*%
X79515000Y-86440000D03*
%TO.P,U4,26,IO45*%
%TO.N,unconnected-(U4-IO45-Pad26)*%
X80785000Y-86440000D03*
D52*
%TO.P,U4,27,IO0*%
%TO.N,/GPIO0*%
X82550000Y-85190000D03*
%TO.P,U4,28,IO35*%
%TO.N,Net-(U4-IO35)*%
X82550000Y-83920000D03*
%TO.P,U4,29,IO36*%
%TO.N,Net-(U4-IO36)*%
X82550000Y-82650000D03*
%TO.P,U4,30,IO37*%
%TO.N,Net-(U4-IO37)*%
X82550000Y-81380000D03*
%TO.P,U4,31,IO38*%
%TO.N,/GPIO38*%
X82550000Y-80110000D03*
%TO.P,U4,32,IO39*%
%TO.N,/GPIO39*%
X82550000Y-78840000D03*
%TO.P,U4,33,IO40*%
%TO.N,/GPIO40*%
X82550000Y-77570000D03*
%TO.P,U4,34,IO41*%
%TO.N,/PWM*%
X82550000Y-76300000D03*
%TO.P,U4,35,IO42*%
%TO.N,/GPIO42*%
X82550000Y-75030000D03*
%TO.P,U4,36,RXD0*%
%TO.N,unconnected-(U4-RXD0-Pad36)*%
X82550000Y-73760000D03*
%TO.P,U4,37,TXD0*%
%TO.N,unconnected-(U4-TXD0-Pad37)*%
X82550000Y-72490000D03*
%TO.P,U4,38,IO2*%
%TO.N,/BLINK*%
X82550000Y-71220000D03*
%TO.P,U4,39,IO1*%
%TO.N,unconnected-(U4-IO1-Pad39)*%
X82550000Y-69950000D03*
%TO.P,U4,40,GND_2*%
%TO.N,GND*%
X82550000Y-68680000D03*
D54*
%TO.P,U4,41,GND_3*%
X72300000Y-76400000D03*
%TO.P,U4,42,GND_4*%
X72300000Y-75000000D03*
%TO.P,U4,43,GND_5*%
X70900000Y-75000000D03*
%TO.P,U4,44,GND_6*%
X70900000Y-76400000D03*
%TO.P,U4,45,GND_7*%
X70900000Y-77800000D03*
%TO.P,U4,46,GND_8*%
X72300000Y-77800000D03*
%TO.P,U4,47,GND_9*%
X73700000Y-77800000D03*
%TO.P,U4,48,GND_10*%
X73700000Y-76400000D03*
%TO.P,U4,49,GND_11*%
X73700000Y-75000000D03*
%TD*%
D12*
%TO.P,HIV+1,1,1*%
%TO.N,Net-(D1-K)*%
X56900000Y-94500000D03*
%TD*%
D11*
%TO.P,R10,1*%
%TO.N,GND*%
X68787500Y-103100000D03*
%TO.P,R10,2*%
%TO.N,Net-(U1A-1IN-)*%
X66962500Y-103100000D03*
%TD*%
D28*
%TO.P,R1,1*%
%TO.N,Net-(Q1-D)*%
X56850000Y-145812500D03*
%TO.P,R1,2*%
%TO.N,+5V*%
X56850000Y-147637500D03*
%TD*%
D13*
%TO.P,C10,1*%
%TO.N,GND*%
X103850000Y-79900000D03*
%TO.P,C10,2*%
%TO.N,/GPIO0*%
X105750000Y-79900000D03*
%TD*%
D33*
%TO.P,C7,1*%
%TO.N,+5V*%
X72350000Y-150950000D03*
%TO.P,C7,2*%
%TO.N,Net-(C7-Pad2)*%
X70450000Y-150950000D03*
%TD*%
D13*
%TO.P,C15,1*%
%TO.N,GND*%
X62162500Y-185500000D03*
%TO.P,C15,2*%
%TO.N,/MCU3/SHELL_GND*%
X64062500Y-185500000D03*
%TD*%
D55*
%TO.P,D3,1,K*%
%TO.N,+5V*%
X74900000Y-148900000D03*
%TO.P,D3,2,A*%
%TO.N,Net-(D3-A)*%
X74900000Y-146800000D03*
%TD*%
D56*
%TO.N,GND*%
X62187500Y-181387500D03*
D57*
X67800000Y-144175000D03*
D56*
X74650000Y-122675000D03*
X93200000Y-185700000D03*
X91200000Y-172325000D03*
X101850000Y-69325000D03*
X84525000Y-136250000D03*
X75100000Y-77800000D03*
X61575000Y-109450000D03*
X49775000Y-84750000D03*
X72773100Y-135776900D03*
X70900000Y-79100000D03*
X75100000Y-75000000D03*
X103850000Y-81350000D03*
X75800000Y-170450000D03*
X84750000Y-69525000D03*
X69375000Y-112700000D03*
X62400000Y-69900000D03*
X97050000Y-81475000D03*
X57325000Y-88875000D03*
X67087500Y-175150000D03*
X71000000Y-73500000D03*
X80650000Y-93850000D03*
X104075000Y-97750000D03*
X99262500Y-92287500D03*
X70200000Y-103100000D03*
X95525000Y-69525000D03*
X66150000Y-118325000D03*
%TO.N,+5V*%
X80875000Y-176200000D03*
X74800000Y-150900000D03*
X61725000Y-145475000D03*
X76362500Y-149337500D03*
%TO.N,Net-(Q1-D)*%
X53700000Y-140075000D03*
%TO.N,/MCU3/SHELL_GND*%
X68912500Y-172462500D03*
%TO.N,/Audio3/OUTL*%
X93425000Y-148825000D03*
%TO.N,Net-(Q1-G)*%
X87800000Y-74425000D03*
%TO.N,/MOSI*%
X71895000Y-94900000D03*
%TO.N,/I2S_LRCK*%
X98250000Y-153900000D03*
%TO.N,/I2S_DOUT*%
X100225000Y-156825000D03*
%TO.N,/I2S_BCK*%
X97162500Y-155212500D03*
%TO.N,/MUTE*%
X80300000Y-98525000D03*
X97550000Y-143800000D03*
%TO.N,Net-(C3-Pad2)*%
X50350000Y-108700000D03*
X59475000Y-105275000D03*
%TO.N,/MISO*%
X74435000Y-93675000D03*
%TO.N,/CS*%
X78675000Y-162075000D03*
X70625000Y-95300000D03*
X96825000Y-120000000D03*
X82450000Y-160075000D03*
%TO.N,/EN*%
X86975000Y-70250000D03*
X68637500Y-69137500D03*
%TO.N,/GPIO40*%
X89875000Y-87750000D03*
X85900000Y-78100000D03*
%TO.N,/GPIO38*%
X85175000Y-79625000D03*
X88450000Y-89025000D03*
%TO.N,/GPIO39*%
X89200000Y-88450000D03*
X86550000Y-78900000D03*
%TO.N,/GPIO42*%
X83850000Y-75030000D03*
X83850000Y-93250000D03*
%TO.N,/GPIO16*%
X82625000Y-108425000D03*
X62625000Y-78425000D03*
X81125000Y-99250000D03*
X79700000Y-93725000D03*
%TO.N,/SCK*%
X109025000Y-104050000D03*
X73165000Y-94200000D03*
X108085000Y-98840000D03*
%TO.N,Net-(U5-VNEG)*%
X88425000Y-153275000D03*
X90675000Y-159200000D03*
%TO.N,Net-(J1-CC2)*%
X64000000Y-181675000D03*
X72150000Y-178075000D03*
%TO.N,+3.3V*%
X56800000Y-83500000D03*
X70975000Y-171075000D03*
X94300000Y-92300000D03*
X62700000Y-71000000D03*
X101400000Y-78550000D03*
X64075000Y-114550000D03*
X92625000Y-155225000D03*
X80925000Y-178400000D03*
X95300000Y-76675000D03*
X97100000Y-150250000D03*
X62800000Y-112625000D03*
D58*
X73300000Y-99475000D03*
D56*
X89000000Y-150125000D03*
X108775000Y-99925000D03*
D58*
X78700000Y-93675000D03*
D56*
X75025000Y-143675000D03*
%TO.N,/GPIO0*%
X93425000Y-86650000D03*
X87125000Y-92000000D03*
%TO.N,VBUS*%
X63066400Y-124333600D03*
X80900000Y-180700000D03*
X55950000Y-85050000D03*
X56850000Y-90025000D03*
X69000000Y-181300000D03*
%TO.N,AGND*%
X97125000Y-153225000D03*
X87975000Y-156525000D03*
X97050000Y-151300000D03*
X97637500Y-145237500D03*
X88325000Y-151975000D03*
X86875000Y-141175000D03*
X97025000Y-156525000D03*
X102250000Y-151225000D03*
%TO.N,/BLINK*%
X80525000Y-123175000D03*
X90800000Y-87625000D03*
X90600000Y-81675000D03*
X82600000Y-121175000D03*
%TO.N,/RAD_IN*%
X60175000Y-107300000D03*
X74100000Y-112225000D03*
%TO.N,/RAD_IN2*%
X62250000Y-77575000D03*
X81600000Y-93975000D03*
%TD*%
D59*
%TO.N,GND*%
X101850000Y-69325000D02*
X101850000Y-69250000D01*
X97050000Y-79900000D02*
X97050000Y-81475000D01*
X62500000Y-69900000D02*
X62400000Y-69900000D01*
X72773100Y-135776900D02*
X72725000Y-135825000D01*
X91112500Y-173800000D02*
X91112500Y-185175000D01*
X62187500Y-181387500D02*
X62200000Y-181375000D01*
X72300000Y-76400000D02*
X70900000Y-76400000D01*
X67087500Y-173900000D02*
X67087500Y-175150000D01*
X61050000Y-69900000D02*
X60900000Y-70050000D01*
X99262500Y-92287500D02*
X99300000Y-92250000D01*
X69425000Y-147900000D02*
X68575000Y-148750000D01*
X70900000Y-75000000D02*
X70900000Y-76400000D01*
X74350000Y-174200000D02*
X74350000Y-171900000D01*
X72773100Y-129773100D02*
X71925000Y-128925000D01*
X58137500Y-88875000D02*
X57325000Y-88875000D01*
X70900000Y-73600000D02*
X71000000Y-73500000D01*
X82630000Y-68600000D02*
X82550000Y-68680000D01*
X67000008Y-104887492D02*
X68787500Y-103100000D01*
X61212500Y-88012500D02*
X61300000Y-88100000D01*
X74350000Y-171900000D02*
X75800000Y-170450000D01*
X70900000Y-77800000D02*
X72300000Y-77800000D01*
X95525000Y-70325000D02*
X95525000Y-69525000D01*
X58900000Y-88112500D02*
X58137500Y-88875000D01*
X51150000Y-84750000D02*
X51200000Y-84700000D01*
X84750000Y-69525000D02*
X83825000Y-68600000D01*
X62400000Y-69900000D02*
X61050000Y-69900000D01*
X67450000Y-118325000D02*
X66150000Y-118325000D01*
X68787500Y-103100000D02*
X70200000Y-103100000D01*
X72473100Y-124125000D02*
X73923100Y-122675000D01*
X96925000Y-71225000D02*
X96425000Y-71225000D01*
X91112500Y-173800000D02*
X91112500Y-172412500D01*
X60900000Y-70050000D02*
X58037500Y-70050000D01*
X72300000Y-75000000D02*
X73700000Y-75000000D01*
X95525000Y-69525000D02*
X95525000Y-69475000D01*
X67087500Y-179232500D02*
X67200000Y-179345000D01*
X68812500Y-111300000D02*
X69375000Y-111862500D01*
X97050000Y-81550000D02*
X97025000Y-81575000D01*
X73600000Y-179345000D02*
X73600000Y-177250000D01*
X67087500Y-175150000D02*
X67087500Y-176300000D01*
X80650000Y-92200000D02*
X80650000Y-93850000D01*
X67087500Y-176300000D02*
X67087500Y-179232500D01*
X72773100Y-133525000D02*
X72773100Y-135776900D01*
X67000008Y-105440000D02*
X67000008Y-104887492D01*
X74350000Y-176500000D02*
X74350000Y-174200000D01*
X103850000Y-79900000D02*
X103850000Y-81350000D01*
X73700000Y-75000000D02*
X73700000Y-76400000D01*
X70900000Y-77800000D02*
X70900000Y-79100000D01*
X62162500Y-183125000D02*
X62187500Y-183100000D01*
X73700000Y-76400000D02*
X72300000Y-76400000D01*
X91500000Y-185200000D02*
X91137500Y-185200000D01*
X70125000Y-147900000D02*
X69425000Y-147900000D01*
X93175000Y-185725000D02*
X92025000Y-185725000D01*
X68550000Y-117225000D02*
X67450000Y-118325000D01*
X70200000Y-103100000D02*
X70225000Y-103100000D01*
X91112500Y-185175000D02*
X91137500Y-185200000D01*
X97900000Y-92300000D02*
X99250000Y-92300000D01*
X61575000Y-109450000D02*
X61800001Y-109224999D01*
X91112500Y-172412500D02*
X91200000Y-172325000D01*
X49775000Y-84750000D02*
X51150000Y-84750000D01*
X48300000Y-84750000D02*
X49775000Y-84750000D01*
X80650000Y-89740000D02*
X80650000Y-92200000D01*
D60*
X67850000Y-144225000D02*
X67800000Y-144175000D01*
D59*
X83825000Y-68600000D02*
X82630000Y-68600000D01*
D60*
X67850000Y-146240000D02*
X67850000Y-144225000D01*
D59*
X73700000Y-77800000D02*
X73700000Y-76400000D01*
X70900000Y-75000000D02*
X70900000Y-73600000D01*
X73923100Y-122675000D02*
X74650000Y-122675000D01*
D60*
X67850000Y-148750000D02*
X67850000Y-146240000D01*
D59*
X58900000Y-88012500D02*
X61212500Y-88012500D01*
X69375000Y-111862500D02*
X69375000Y-112700000D01*
X97050000Y-81475000D02*
X97050000Y-81550000D01*
X65050000Y-68680000D02*
X63720000Y-68680000D01*
X70900000Y-75000000D02*
X72300000Y-75000000D01*
X73600000Y-177250000D02*
X74350000Y-176500000D01*
X103725000Y-71125000D02*
X103000000Y-71125000D01*
X84525000Y-136250000D02*
X84525000Y-136225000D01*
X61800001Y-109224999D02*
X63000024Y-109224999D01*
X96425000Y-71225000D02*
X95525000Y-70325000D01*
X72300000Y-77800000D02*
X73700000Y-77800000D01*
X101850000Y-69975000D02*
X101850000Y-69325000D01*
X62187500Y-183100000D02*
X62187500Y-181387500D01*
X63720000Y-68680000D02*
X62500000Y-69900000D01*
X103725000Y-71125000D02*
X103725000Y-75275000D01*
X68575000Y-148750000D02*
X67850000Y-148750000D01*
X84525000Y-138600000D02*
X84525000Y-136250000D01*
X62162500Y-185500000D02*
X62162500Y-183125000D01*
X70900000Y-76400000D02*
X70900000Y-77800000D01*
X96925000Y-71225000D02*
X96925000Y-75375000D01*
X73700000Y-77800000D02*
X75100000Y-77800000D01*
X99250000Y-92300000D02*
X99262500Y-92287500D01*
X93200000Y-185700000D02*
X93175000Y-185725000D01*
X92025000Y-185725000D02*
X91500000Y-185200000D01*
X73700000Y-75000000D02*
X75100000Y-75000000D01*
D60*
X72773100Y-133525000D02*
X72773100Y-129773100D01*
D59*
X58037500Y-70050000D02*
X58000000Y-70087500D01*
X103000000Y-71125000D02*
X101850000Y-69975000D01*
D60*
%TO.N,+5V*%
X65950000Y-146240000D02*
X62490000Y-146240000D01*
X56850000Y-151950000D02*
X58075000Y-153175000D01*
X62490000Y-146240000D02*
X61725000Y-145475000D01*
X56850000Y-147637500D02*
X56850000Y-151950000D01*
D59*
X74900000Y-148900000D02*
X75975000Y-148900000D01*
X76362500Y-149337500D02*
X76325000Y-149300000D01*
X72400000Y-148850000D02*
X74850000Y-148850000D01*
X72350000Y-150950000D02*
X72350000Y-148900000D01*
X72350000Y-150950000D02*
X74750000Y-150950000D01*
D60*
X65950000Y-146240000D02*
X65950000Y-148750000D01*
D59*
X74750000Y-150950000D02*
X74800000Y-150900000D01*
D60*
X65950000Y-148750000D02*
X63550000Y-151150000D01*
D59*
X74850000Y-148850000D02*
X74900000Y-148900000D01*
X75975000Y-148900000D02*
X76500000Y-149425000D01*
D60*
X58075000Y-153175000D02*
X63550000Y-153175000D01*
D59*
X72350000Y-148900000D02*
X72400000Y-148850000D01*
D60*
X63550000Y-151150000D02*
X63550000Y-153175000D01*
D59*
X85262500Y-176200000D02*
X80875000Y-176200000D01*
X76450000Y-149425000D02*
X76362500Y-149337500D01*
D61*
%TO.N,Net-(Q1-D)*%
X53712500Y-140087500D02*
X53712500Y-142405000D01*
D59*
X55612500Y-86287500D02*
X53075000Y-83750000D01*
X62375000Y-90825000D02*
X65150000Y-93600000D01*
X58900000Y-86287500D02*
X55612500Y-86287500D01*
D61*
X55737500Y-145812500D02*
X56850000Y-145812500D01*
D59*
X61300000Y-86200000D02*
X61800000Y-86200000D01*
X65150000Y-93600000D02*
X65150000Y-94500000D01*
D61*
X53712500Y-143787500D02*
X55737500Y-145812500D01*
X53700000Y-140075000D02*
X53712500Y-140087500D01*
D59*
X62375000Y-86775000D02*
X62375000Y-90825000D01*
X61800000Y-86200000D02*
X62375000Y-86775000D01*
X58900000Y-86287500D02*
X61212500Y-86287500D01*
D61*
X53712500Y-142405000D02*
X53712500Y-143787500D01*
D59*
%TO.N,Net-(D3-A)*%
X73850000Y-147850000D02*
X74900000Y-146800000D01*
X71350000Y-147850000D02*
X71350000Y-147400000D01*
X70125000Y-144775000D02*
X70550000Y-144350000D01*
X71350000Y-147850000D02*
X73850000Y-147850000D01*
X70125000Y-146950000D02*
X70125000Y-144775000D01*
X70900000Y-146950000D02*
X70125000Y-146950000D01*
X71350000Y-152625000D02*
X71350000Y-147850000D01*
X71975000Y-153250000D02*
X71350000Y-152625000D01*
X71350000Y-147400000D02*
X70900000Y-146950000D01*
X72312500Y-153250000D02*
X71975000Y-153250000D01*
%TO.N,/MCU3/SHELL_GND*%
X66080000Y-184100000D02*
X74720000Y-184100000D01*
X68912500Y-173900000D02*
X68912500Y-172462500D01*
X64062500Y-185500000D02*
X64680000Y-185500000D01*
X64680000Y-185500000D02*
X66080000Y-184100000D01*
X74720000Y-184100000D02*
X74720000Y-179920000D01*
X66080000Y-179920000D02*
X66080000Y-184100000D01*
%TO.N,/Audio3/OUTR*%
X105825000Y-153125000D02*
X103725000Y-151025000D01*
X105825000Y-154350000D02*
X105825000Y-153125000D01*
X97675000Y-142825000D02*
X95875000Y-142825000D01*
X95875000Y-142825000D02*
X94900000Y-143800000D01*
X108849817Y-157374817D02*
X108849817Y-173190433D01*
X94900000Y-143800000D02*
X94900000Y-146625000D01*
X105825000Y-154350000D02*
X108849817Y-157374817D01*
X91900000Y-146625000D02*
X94900000Y-146625000D01*
X103725000Y-148875000D02*
X97675000Y-142825000D01*
X103725000Y-151025000D02*
X103725000Y-148875000D01*
D61*
%TO.N,Net-(D1-A)*%
X57775000Y-120000000D02*
X56912500Y-120862500D01*
D60*
X38500000Y-71830000D02*
X40030000Y-70300000D01*
D61*
X51550000Y-102600000D02*
X49155000Y-100205000D01*
X54462500Y-118412500D02*
X51550000Y-115500000D01*
X49155000Y-100205000D02*
X49155000Y-98300000D01*
X51550000Y-115500000D02*
X51550000Y-102600000D01*
D60*
X47300000Y-98300000D02*
X38500000Y-89500000D01*
X49155000Y-98300000D02*
X47300000Y-98300000D01*
D61*
X60900000Y-94500000D02*
X60900000Y-97625000D01*
X56912500Y-142405000D02*
X56912500Y-120862500D01*
X56912500Y-120862500D02*
X54462500Y-118412500D01*
D60*
X38500000Y-89500000D02*
X38500000Y-71830000D01*
D61*
X57775000Y-100750000D02*
X57775000Y-120000000D01*
X60900000Y-97625000D02*
X57775000Y-100750000D01*
D59*
%TO.N,/Audio3/OUTL*%
X93425000Y-148825000D02*
X94850000Y-148825000D01*
X105925000Y-159450000D02*
X105925000Y-170615251D01*
X91900000Y-148825000D02*
X93425000Y-148825000D01*
X105925000Y-170615251D02*
X103349818Y-173190433D01*
%TO.N,Net-(Q1-G)*%
X51150000Y-82850000D02*
X51200000Y-82800000D01*
X55100000Y-80275000D02*
X55100000Y-71075000D01*
X52575000Y-82800000D02*
X55100000Y-80275000D01*
X87300000Y-76330000D02*
X87300000Y-74925000D01*
X51200000Y-82800000D02*
X52575000Y-82800000D01*
X87300000Y-74925000D02*
X87800000Y-74425000D01*
X48300000Y-82850000D02*
X51150000Y-82850000D01*
X55100000Y-71075000D02*
X53175000Y-69150000D01*
%TO.N,Net-(D1-K)*%
X56900000Y-92850000D02*
X54450000Y-90400000D01*
X54450000Y-90400000D02*
X53000000Y-90400000D01*
X52495000Y-90905000D02*
X53000000Y-90400000D01*
X56900000Y-94500000D02*
X56900000Y-92850000D01*
X53625000Y-99430000D02*
X53625000Y-102900000D01*
X52495000Y-98300000D02*
X52495000Y-90905000D01*
X52495000Y-98300000D02*
X53625000Y-99430000D01*
D62*
%TO.N,/Power3/CATHODE*%
X40695000Y-74962500D02*
X46412500Y-74962500D01*
X46375000Y-70300000D02*
X47425000Y-69250000D01*
X43370000Y-70300000D02*
X43370000Y-72287500D01*
X43370000Y-72287500D02*
X40695000Y-74962500D01*
X43370000Y-70300000D02*
X46375000Y-70300000D01*
D63*
X40695000Y-74962500D02*
X40695000Y-82582500D01*
D62*
X46412500Y-74962500D02*
X47750000Y-76300000D01*
D63*
%TO.N,/Power3/ANODE*%
X40700000Y-176857500D02*
X40700000Y-105300000D01*
X40700000Y-184477500D02*
X40700000Y-176857500D01*
D60*
X48000000Y-107000000D02*
X48000000Y-103200000D01*
D63*
X47600000Y-103000000D02*
X47700000Y-102900000D01*
X40700000Y-105300000D02*
X43000000Y-103000000D01*
X43000000Y-103000000D02*
X47600000Y-103000000D01*
D59*
X48000000Y-103200000D02*
X47700000Y-102900000D01*
D60*
%TO.N,Net-(C2-Pad1)*%
X47900000Y-93850000D02*
X50850000Y-96800000D01*
X55617500Y-111800000D02*
X55942500Y-111475000D01*
X47900000Y-90400000D02*
X47900000Y-93850000D01*
X50850000Y-100800000D02*
X52425000Y-102375000D01*
X45450000Y-88801597D02*
X47048403Y-90400000D01*
X50850000Y-96800000D02*
X50850000Y-100800000D01*
X52425000Y-110125000D02*
X54100000Y-111800000D01*
X52850000Y-76300000D02*
X52850000Y-78450000D01*
X52425000Y-102375000D02*
X52425000Y-110125000D01*
X52850000Y-78450000D02*
X51500000Y-79800000D01*
X45450000Y-81725000D02*
X45450000Y-88801597D01*
X47375000Y-79800000D02*
X45450000Y-81725000D01*
X51500000Y-79800000D02*
X47375000Y-79800000D01*
X54100000Y-111800000D02*
X55617500Y-111800000D01*
X47048403Y-90400000D02*
X47900000Y-90400000D01*
D59*
%TO.N,/PWM*%
X82550000Y-76300000D02*
X85445000Y-76300000D01*
X85445000Y-76300000D02*
X85475000Y-76330000D01*
%TO.N,/MOSI*%
X71895000Y-86440000D02*
X71895000Y-94900000D01*
%TO.N,/I2S_LRCK*%
X88920000Y-83230000D02*
X88925000Y-83225000D01*
X95550000Y-153925000D02*
X98225000Y-153925000D01*
X87312500Y-83230000D02*
X88920000Y-83230000D01*
X92025000Y-109025000D02*
X98800000Y-115800000D01*
X89375000Y-83225000D02*
X92025000Y-85875000D01*
X98225000Y-153925000D02*
X98250000Y-153900000D01*
X88925000Y-83225000D02*
X89375000Y-83225000D01*
X98800000Y-115800000D02*
X98800000Y-141175000D01*
X98800000Y-141175000D02*
X103700000Y-146075000D01*
X103700000Y-146075000D02*
X105700000Y-146075000D01*
X92025000Y-85875000D02*
X92025000Y-109025000D01*
%TO.N,/I2S_DOUT*%
X99550000Y-115850000D02*
X99575000Y-115850000D01*
X99575000Y-140275000D02*
X101800000Y-142500000D01*
X88680000Y-80930000D02*
X92650000Y-84900000D01*
X87300000Y-80930000D02*
X88680000Y-80930000D01*
X98075000Y-154575000D02*
X95550000Y-154575000D01*
X92737500Y-166350000D02*
X85287500Y-173800000D01*
X99575000Y-115850000D02*
X99575000Y-140275000D01*
X100225000Y-156725000D02*
X98075000Y-154575000D01*
X100225000Y-156825000D02*
X100225000Y-156725000D01*
X96875000Y-166350000D02*
X92737500Y-166350000D01*
X100225000Y-163000000D02*
X96875000Y-166350000D01*
X101800000Y-142500000D02*
X105650000Y-142500000D01*
X92650000Y-108950000D02*
X99550000Y-115850000D01*
X100225000Y-156825000D02*
X100225000Y-163000000D01*
X92650000Y-84900000D02*
X92650000Y-108950000D01*
%TO.N,/I2S_BCK*%
X95550000Y-155225000D02*
X97150000Y-155225000D01*
X91500000Y-87350000D02*
X91500000Y-109775000D01*
X97150000Y-155225000D02*
X97162500Y-155212500D01*
X87300000Y-85430000D02*
X89580000Y-85430000D01*
X89580000Y-85430000D02*
X91500000Y-87350000D01*
X91500000Y-109775000D02*
X97825000Y-116100000D01*
X97162500Y-155212500D02*
X97175000Y-155200000D01*
X97825000Y-141700000D02*
X105800000Y-149675000D01*
X97825000Y-116100000D02*
X97825000Y-141700000D01*
%TO.N,/MUTE*%
X96725000Y-152625000D02*
X96775000Y-152575000D01*
X80300000Y-98525000D02*
X80300000Y-98475000D01*
X95550000Y-152625000D02*
X96725000Y-152625000D01*
X96775000Y-152575000D02*
X102025000Y-152575000D01*
X75705000Y-93880000D02*
X75705000Y-86440000D01*
X103225000Y-149175000D02*
X97850000Y-143800000D01*
X80300000Y-98475000D02*
X75705000Y-93880000D01*
X97850000Y-143800000D02*
X97550000Y-143800000D01*
X103225000Y-151375000D02*
X103225000Y-149175000D01*
X102025000Y-152575000D02*
X103225000Y-151375000D01*
%TO.N,Net-(C3-Pad2)*%
X49900000Y-107000000D02*
X49925000Y-107025000D01*
X59475000Y-103250000D02*
X59475000Y-105275000D01*
X50350000Y-108700000D02*
X50175000Y-108700000D01*
X49900000Y-108425000D02*
X49900000Y-107000000D01*
X50175000Y-108700000D02*
X49900000Y-108425000D01*
X61887500Y-102550000D02*
X60175000Y-102550000D01*
X60175000Y-102550000D02*
X59475000Y-103250000D01*
%TO.N,/MISO*%
X74435000Y-93675000D02*
X74435000Y-86440000D01*
%TO.N,/CS*%
X82450000Y-133275000D02*
X95725000Y-120000000D01*
X67062500Y-171050000D02*
X76037500Y-162075000D01*
X70625000Y-86440000D02*
X70625000Y-95300000D01*
X82450000Y-160075000D02*
X82450000Y-133275000D01*
X76037500Y-162075000D02*
X78675000Y-162075000D01*
X95725000Y-120000000D02*
X96825000Y-120000000D01*
%TO.N,/EN*%
X94329235Y-68720765D02*
X92800000Y-70250000D01*
X99075000Y-75375000D02*
X98912500Y-75537500D01*
X65050000Y-71220000D02*
X66555000Y-71220000D01*
X66555000Y-71220000D02*
X68637500Y-69137500D01*
X98912500Y-77600000D02*
X98912500Y-79862500D01*
X99075000Y-69041529D02*
X98754236Y-68720765D01*
X99075000Y-71225000D02*
X99075000Y-75375000D01*
X99075000Y-71225000D02*
X99075000Y-69041529D01*
X98754236Y-68720765D02*
X94329235Y-68720765D01*
X98912500Y-79862500D02*
X98950000Y-79900000D01*
X98912500Y-75537500D02*
X98912500Y-77600000D01*
X92800000Y-70250000D02*
X86975000Y-70250000D01*
%TO.N,Net-(U4-IO4{slash}ADC1_CH3)*%
X58000000Y-71912500D02*
X60862500Y-71912500D01*
X63190000Y-72490000D02*
X62900000Y-72200000D01*
X62900000Y-72200000D02*
X61150000Y-72200000D01*
X58000000Y-71912500D02*
X58000000Y-73987500D01*
X60862500Y-71912500D02*
X60900000Y-71950000D01*
X61150000Y-72200000D02*
X60900000Y-71950000D01*
X65050000Y-72490000D02*
X63190000Y-72490000D01*
%TO.N,/GPIO40*%
X85770000Y-104530000D02*
X84437500Y-104530000D01*
X89875000Y-100425000D02*
X85770000Y-104530000D01*
X84325000Y-78100000D02*
X85900000Y-78100000D01*
X89875000Y-87750000D02*
X89875000Y-100425000D01*
X82550000Y-77570000D02*
X83795000Y-77570000D01*
X83795000Y-77570000D02*
X84325000Y-78100000D01*
%TO.N,/GPIO38*%
X88425000Y-89050000D02*
X88450000Y-89025000D01*
X88425000Y-98475000D02*
X88425000Y-89050000D01*
X85175000Y-79625000D02*
X84690000Y-80110000D01*
X84437500Y-99450000D02*
X87450000Y-99450000D01*
X87450000Y-99450000D02*
X88425000Y-98475000D01*
X84690000Y-80110000D02*
X82550000Y-80110000D01*
%TO.N,/GPIO39*%
X86135000Y-101990000D02*
X84437500Y-101990000D01*
X86490000Y-78840000D02*
X86550000Y-78900000D01*
X82550000Y-78840000D02*
X86490000Y-78840000D01*
X89200000Y-88450000D02*
X89200000Y-98925000D01*
X89200000Y-98925000D02*
X86135000Y-101990000D01*
%TO.N,Net-(C7-Pad2)*%
X70487500Y-153250000D02*
X70487500Y-150987500D01*
X70487500Y-150987500D02*
X70450000Y-150950000D01*
%TO.N,/GPIO42*%
X83850000Y-75030000D02*
X82550000Y-75030000D01*
X82825000Y-94275000D02*
X82825000Y-106175000D01*
X83850000Y-93250000D02*
X82825000Y-94275000D01*
X82825000Y-106175000D02*
X83720000Y-107070000D01*
X83720000Y-107070000D02*
X84437500Y-107070000D01*
%TO.N,/GPIO16*%
X62625000Y-78575000D02*
X62890000Y-78840000D01*
X81125000Y-99250000D02*
X81125000Y-98100000D01*
X62625000Y-78425000D02*
X62625000Y-78575000D01*
X81125000Y-98100000D02*
X79700000Y-96675000D01*
X82625000Y-108425000D02*
X83810000Y-109610000D01*
X79700000Y-96675000D02*
X79700000Y-93725000D01*
X83810000Y-109610000D02*
X84437500Y-109610000D01*
X62890000Y-78840000D02*
X65050000Y-78840000D01*
%TO.N,Net-(U5-CAPM)*%
X87900000Y-152625000D02*
X89825000Y-152625000D01*
X87575000Y-152950000D02*
X87900000Y-152625000D01*
X86887500Y-152950000D02*
X87575000Y-152950000D01*
%TO.N,/SCK*%
X73165000Y-94200000D02*
X73165000Y-86440000D01*
%TO.N,Net-(U5-CAPP)*%
X88375000Y-151050000D02*
X88650000Y-151325000D01*
X88650000Y-151325000D02*
X89825000Y-151325000D01*
X86887500Y-151050000D02*
X88375000Y-151050000D01*
%TO.N,Net-(U5-LDOO)*%
X98462500Y-151975000D02*
X99137500Y-151300000D01*
X95550000Y-151975000D02*
X98462500Y-151975000D01*
X99137500Y-148900000D02*
X99137500Y-151300000D01*
%TO.N,Net-(U5-VNEG)*%
X89387500Y-158900000D02*
X90375000Y-158900000D01*
X88425000Y-153275000D02*
X88350000Y-153350000D01*
X89825000Y-153275000D02*
X88425000Y-153275000D01*
X90375000Y-158900000D02*
X90675000Y-159200000D01*
%TO.N,Net-(D5-A)*%
X87187500Y-176100000D02*
X87087500Y-176200000D01*
X89225000Y-176100000D02*
X87187500Y-176100000D01*
%TO.N,Net-(J1-CC1)*%
X68912500Y-177612500D02*
X69150000Y-177850000D01*
X69150000Y-177850000D02*
X69150000Y-179320000D01*
X68912500Y-176300000D02*
X68912500Y-177612500D01*
%TO.N,Net-(J1-CC2)*%
X72150000Y-179320000D02*
X72150000Y-178075000D01*
X64012500Y-183100000D02*
X64012500Y-181687500D01*
X64275000Y-183100000D02*
X64012500Y-183100000D01*
X64012500Y-181687500D02*
X64000000Y-181675000D01*
%TO.N,Net-(D6-A)*%
X89212500Y-178400000D02*
X87062500Y-178400000D01*
%TO.N,Net-(D7-A)*%
X89262500Y-180700000D02*
X87112500Y-180700000D01*
%TO.N,Net-(D8-A)*%
X89262500Y-183000000D02*
X87112500Y-183000000D01*
%TO.N,Net-(D9-A)*%
X89262500Y-185200000D02*
X86912500Y-185200000D01*
%TO.N,Net-(U4-IO35)*%
X83965000Y-83920000D02*
X85475000Y-85430000D01*
X82550000Y-83920000D02*
X83965000Y-83920000D01*
%TO.N,Net-(JP1-A)*%
X70975000Y-109750000D02*
X70449999Y-109224999D01*
X70449999Y-109224999D02*
X68799992Y-109224999D01*
X69825000Y-114550000D02*
X70975000Y-113400000D01*
X70975000Y-113400000D02*
X70975000Y-109750000D01*
%TO.N,Net-(U4-IO36)*%
X84907500Y-82650000D02*
X85487500Y-83230000D01*
X82550000Y-82650000D02*
X84907500Y-82650000D01*
%TO.N,+3.3V*%
X103887500Y-77500000D02*
X103425000Y-77500000D01*
D61*
X96675000Y-150675000D02*
X97100000Y-150250000D01*
D59*
X68799992Y-107275001D02*
X68799991Y-107275000D01*
D60*
X70873100Y-139523100D02*
X75025000Y-143675000D01*
D59*
X66800000Y-107275000D02*
X64975000Y-105450000D01*
X72700000Y-144350000D02*
X74350000Y-144350000D01*
X103425000Y-77500000D02*
X102375000Y-78550000D01*
D61*
X68525000Y-114550000D02*
X64075000Y-114550000D01*
D64*
X73325000Y-99450000D02*
X73300000Y-99475000D01*
D60*
X65371800Y-133578200D02*
X64325000Y-134625000D01*
D59*
X79625000Y-169425000D02*
X79625000Y-177975000D01*
X58900000Y-83200000D02*
X57100000Y-83200000D01*
D60*
X65371800Y-132950000D02*
X65946800Y-133525000D01*
D59*
X68887500Y-171050000D02*
X70950000Y-171050000D01*
D64*
X68900008Y-105440000D02*
X69810008Y-104530000D01*
D61*
X92675000Y-155225000D02*
X94500000Y-157050000D01*
X63212500Y-112212500D02*
X62800000Y-112625000D01*
X63212500Y-111300000D02*
X63212500Y-112212500D01*
D60*
X65946800Y-133525000D02*
X70873100Y-133525000D01*
D59*
X81625000Y-167425000D02*
X79625000Y-169425000D01*
D60*
X64325000Y-134625000D02*
X63900000Y-134625000D01*
D59*
X68799992Y-105540016D02*
X68900008Y-105440000D01*
X68799992Y-107275001D02*
X68799992Y-105540016D01*
D61*
X94500000Y-158425000D02*
X94500000Y-160625000D01*
D59*
X102375000Y-78550000D02*
X101400000Y-78550000D01*
X94500000Y-160625000D02*
X87700000Y-167425000D01*
X58900000Y-83200000D02*
X61387500Y-83200000D01*
D64*
X75537500Y-101990000D02*
X75537500Y-99450000D01*
D60*
X70873100Y-133525000D02*
X70873100Y-139523100D01*
D59*
X89275000Y-150125000D02*
X89825000Y-150675000D01*
D64*
X75537500Y-101990000D02*
X75537500Y-109610000D01*
D61*
X94500000Y-157050000D02*
X94500000Y-158425000D01*
X89825000Y-155225000D02*
X92625000Y-155225000D01*
D59*
X94300000Y-92300000D02*
X96000000Y-92300000D01*
X63750000Y-69950000D02*
X62700000Y-71000000D01*
X95725000Y-76675000D02*
X95300000Y-76675000D01*
X64975000Y-105450000D02*
X64912508Y-105450000D01*
X96650000Y-77600000D02*
X95725000Y-76675000D01*
X79625000Y-177975000D02*
X80050000Y-178400000D01*
X85237500Y-178400000D02*
X80925000Y-178400000D01*
D60*
X65371800Y-131211000D02*
X65371800Y-132950000D01*
D61*
X95550000Y-150675000D02*
X96675000Y-150675000D01*
D59*
X92625000Y-155225000D02*
X92675000Y-155225000D01*
X65050000Y-69950000D02*
X65100000Y-69900000D01*
X63212500Y-111300000D02*
X63212500Y-110812500D01*
X57100000Y-83200000D02*
X56800000Y-83500000D01*
D64*
X75537500Y-99450000D02*
X73325000Y-99450000D01*
D59*
X97087500Y-77600000D02*
X96650000Y-77600000D01*
X64912508Y-105612508D02*
X64912508Y-105450000D01*
X61387500Y-83200000D02*
X61400000Y-83212500D01*
D61*
X78700000Y-92250000D02*
X78700000Y-93675000D01*
D59*
X67850000Y-107275000D02*
X66800000Y-107275000D01*
X78750000Y-89740000D02*
X78750000Y-92200000D01*
X89000000Y-150125000D02*
X89275000Y-150125000D01*
D60*
X65371800Y-132950000D02*
X65371800Y-133578200D01*
D59*
X63212500Y-110812500D02*
X66750000Y-107275000D01*
X87700000Y-167425000D02*
X81625000Y-167425000D01*
X66750000Y-107275000D02*
X67850000Y-107275000D01*
D64*
X69810008Y-104530000D02*
X75537500Y-104530000D01*
D59*
X74350000Y-144350000D02*
X75025000Y-143675000D01*
X65050000Y-69950000D02*
X63750000Y-69950000D01*
X68799991Y-107275000D02*
X67850000Y-107275000D01*
X70950000Y-171050000D02*
X70975000Y-171075000D01*
X80050000Y-178400000D02*
X80925000Y-178400000D01*
%TO.N,/SDA*%
X61400000Y-81387500D02*
X65042500Y-81387500D01*
X65042500Y-81387500D02*
X65050000Y-81380000D01*
%TO.N,/SCL*%
X59300000Y-80400000D02*
X64760000Y-80400000D01*
X64760000Y-80400000D02*
X65050000Y-80110000D01*
X58900000Y-80800000D02*
X59300000Y-80400000D01*
X58900000Y-81375000D02*
X58900000Y-80800000D01*
D65*
%TO.N,/USB_D-*%
X70475000Y-173675000D02*
X70475000Y-178225000D01*
X64350000Y-89725000D02*
X62900000Y-88275000D01*
X77100000Y-98125000D02*
X70700000Y-98125000D01*
X62900000Y-84900000D02*
X63880000Y-83920000D01*
X68175000Y-95600000D02*
X68175000Y-91975000D01*
X62900000Y-88275000D02*
X62900000Y-84900000D01*
X79275000Y-164125000D02*
X79275000Y-100300000D01*
X79275000Y-100300000D02*
X77100000Y-98125000D01*
X65925000Y-89725000D02*
X64350000Y-89725000D01*
X69650000Y-178500000D02*
X69925000Y-178225000D01*
X68175000Y-91975000D02*
X65925000Y-89725000D01*
X72250000Y-171150000D02*
X79275000Y-164125000D01*
X72250000Y-171900000D02*
X70475000Y-173675000D01*
X70700000Y-98125000D02*
X68175000Y-95600000D01*
X63880000Y-83920000D02*
X65050000Y-83920000D01*
X69925000Y-178225000D02*
X70475000Y-178225000D01*
X70475000Y-178225000D02*
X70650000Y-178400000D01*
X69650000Y-179320000D02*
X69650000Y-178500000D01*
X70650000Y-178400000D02*
X70650000Y-179320000D01*
X72250000Y-171900000D02*
X72250000Y-171150000D01*
%TO.N,/USB_D+*%
X63400000Y-88050000D02*
X64575000Y-89225000D01*
X70398000Y-180398000D02*
X70927000Y-180398000D01*
X72250000Y-174200000D02*
X71150000Y-175300000D01*
X71150000Y-175300000D02*
X71150000Y-179320000D01*
X64575000Y-89225000D02*
X66200000Y-89225000D01*
X66200000Y-89225000D02*
X68625000Y-91650000D01*
X72250000Y-173950000D02*
X72250000Y-174200000D01*
X70927000Y-180398000D02*
X71150000Y-180175000D01*
X65050000Y-85190000D02*
X64010000Y-85190000D01*
X77425000Y-97650000D02*
X79850000Y-100075000D01*
X70150000Y-179320000D02*
X70150000Y-180150000D01*
X79850000Y-164525000D02*
X72875000Y-171500000D01*
X79850000Y-100075000D02*
X79850000Y-164525000D01*
X63400000Y-85800000D02*
X63400000Y-88050000D01*
X68625000Y-91650000D02*
X68625000Y-95250000D01*
X64010000Y-85190000D02*
X63400000Y-85800000D01*
X71150000Y-180175000D02*
X71150000Y-179320000D01*
X68625000Y-95250000D02*
X71025000Y-97650000D01*
X70150000Y-180150000D02*
X70398000Y-180398000D01*
X72875000Y-173325000D02*
X72250000Y-173950000D01*
X71025000Y-97650000D02*
X77425000Y-97650000D01*
X72875000Y-171500000D02*
X72875000Y-173325000D01*
D59*
%TO.N,/GPIO0*%
X105712500Y-75437500D02*
X105875000Y-75275000D01*
X105712500Y-77500000D02*
X105712500Y-75437500D01*
X87125000Y-92000000D02*
X87150000Y-92025000D01*
X105712500Y-79862500D02*
X105750000Y-79900000D01*
X105750000Y-79900000D02*
X105750000Y-82875000D01*
X105750000Y-82875000D02*
X102126397Y-86498603D01*
X82550000Y-85190000D02*
X82550000Y-87425000D01*
X93576397Y-86498603D02*
X93425000Y-86650000D01*
X102126397Y-86498603D02*
X93576397Y-86498603D01*
X82550000Y-87425000D02*
X87125000Y-92000000D01*
X105712500Y-77500000D02*
X105712500Y-79862500D01*
X105875000Y-75275000D02*
X105875000Y-71125000D01*
%TO.N,VBUS*%
X72800000Y-177050000D02*
X72250000Y-176500000D01*
D60*
X60175000Y-90025000D02*
X56850000Y-90025000D01*
X63250000Y-96650000D02*
X63250000Y-93100000D01*
D59*
X58000000Y-75812500D02*
X55950000Y-77862500D01*
X55950000Y-77862500D02*
X55950000Y-85050000D01*
X85287500Y-180700000D02*
X80900000Y-180700000D01*
X80800000Y-180675000D02*
X80825000Y-180700000D01*
X72800000Y-179345000D02*
X72800000Y-177050000D01*
X72800000Y-179900000D02*
X72800000Y-179345000D01*
D60*
X58500000Y-119767200D02*
X58500000Y-101400000D01*
D59*
X68000000Y-179917222D02*
X68000000Y-179345000D01*
X69000000Y-180917222D02*
X68000000Y-179917222D01*
D60*
X63066400Y-124333600D02*
X58500000Y-119767200D01*
D59*
X80900000Y-180700000D02*
X80825000Y-180700000D01*
D60*
X65371800Y-126639000D02*
X67885800Y-124125000D01*
D59*
X69000000Y-181300000D02*
X69000000Y-180917222D01*
D60*
X67885800Y-124125000D02*
X70573100Y-124125000D01*
X63250000Y-93100000D02*
X60175000Y-90025000D01*
D59*
X50500000Y-157750000D02*
X50400000Y-157850000D01*
X69000000Y-181300000D02*
X69475000Y-180825000D01*
D60*
X65371800Y-126639000D02*
X63066400Y-124333600D01*
X58500000Y-101400000D02*
X63250000Y-96650000D01*
D59*
X71875000Y-180825000D02*
X72800000Y-179900000D01*
D60*
X50500000Y-153162500D02*
X50500000Y-157750000D01*
D59*
X69475000Y-180825000D02*
X71875000Y-180825000D01*
%TO.N,Net-(U4-IO37)*%
X82550000Y-81380000D02*
X85025000Y-81380000D01*
X85025000Y-81380000D02*
X85475000Y-80930000D01*
%TO.N,AGND*%
X101037500Y-148900000D02*
X101037500Y-151300000D01*
X96750000Y-148825000D02*
X96750000Y-146675000D01*
X95550000Y-153275000D02*
X97075000Y-153275000D01*
X97637500Y-145237500D02*
X96800000Y-146075000D01*
X96750000Y-146675000D02*
X96800000Y-146625000D01*
X95550000Y-155875000D02*
X95550000Y-156525000D01*
X89825000Y-155875000D02*
X89825000Y-156525000D01*
X89825000Y-156525000D02*
X89825000Y-157100000D01*
X85800000Y-141175000D02*
X86875000Y-141175000D01*
X84525000Y-139900000D02*
X85800000Y-141175000D01*
X96400000Y-158425000D02*
X96400000Y-160625000D01*
X96400000Y-157150000D02*
X97025000Y-156525000D01*
X88175000Y-157450000D02*
X87487500Y-158137500D01*
X95550000Y-151325000D02*
X97025000Y-151325000D01*
X89475000Y-157450000D02*
X88175000Y-157450000D01*
X87487500Y-158137500D02*
X87487500Y-158900000D01*
X95550000Y-151325000D02*
X95525000Y-151300000D01*
X96400000Y-158425000D02*
X96400000Y-157150000D01*
X95550000Y-156525000D02*
X97025000Y-156525000D01*
X101037500Y-151300000D02*
X101112500Y-151225000D01*
X89825000Y-157100000D02*
X89475000Y-157450000D01*
X97025000Y-151325000D02*
X97050000Y-151300000D01*
X87975000Y-156525000D02*
X89825000Y-156525000D01*
X86875000Y-141175000D02*
X86900000Y-141175000D01*
X89825000Y-151975000D02*
X88325000Y-151975000D01*
X97075000Y-153275000D02*
X97125000Y-153225000D01*
D61*
X101112500Y-151225000D02*
X102250000Y-151225000D01*
D59*
X96800000Y-146075000D02*
X96800000Y-146625000D01*
%TO.N,Net-(JP2-B)*%
X72200000Y-112700000D02*
X72200000Y-108625000D01*
X72200000Y-108625000D02*
X71499999Y-107924999D01*
X70675000Y-119925000D02*
X72175000Y-118425000D01*
X71499999Y-107924999D02*
X68799992Y-107924999D01*
X72175000Y-118425000D02*
X72175000Y-112725000D01*
X69850000Y-119925000D02*
X70675000Y-119925000D01*
X72175000Y-112725000D02*
X72200000Y-112700000D01*
%TO.N,Net-(JP3-A)*%
X71525000Y-109125000D02*
X71525000Y-112750000D01*
X69850000Y-117225000D02*
X71525000Y-115550000D01*
X70975001Y-108575001D02*
X71525000Y-109125000D01*
X68799992Y-108575001D02*
X70975001Y-108575001D01*
X71525000Y-115550000D02*
X71525000Y-112750000D01*
%TO.N,Net-(U1A-1IN+)*%
X61249999Y-108575001D02*
X63000024Y-108575001D01*
X65037500Y-111300000D02*
X66987500Y-111300000D01*
X60875000Y-113300000D02*
X60175000Y-112600000D01*
X63875000Y-113300000D02*
X60875000Y-113300000D01*
X60175000Y-112600000D02*
X60175000Y-109650000D01*
X60175000Y-109650000D02*
X61249999Y-108575001D01*
X65037500Y-111300000D02*
X65037500Y-112137500D01*
X65037500Y-112137500D02*
X63875000Y-113300000D01*
%TO.N,Net-(D4-A)*%
X87112500Y-173800000D02*
X89237500Y-173800000D01*
%TO.N,/BLINK*%
X90600000Y-74325000D02*
X90600000Y-81675000D01*
X84100000Y-71200000D02*
X87475000Y-71200000D01*
X78625000Y-168725000D02*
X78625000Y-181475000D01*
X87475000Y-71200000D02*
X90600000Y-74325000D01*
X82350000Y-185200000D02*
X85087500Y-185200000D01*
X78625000Y-181475000D02*
X82350000Y-185200000D01*
X82570000Y-71200000D02*
X84100000Y-71200000D01*
X82550000Y-71220000D02*
X82470000Y-71300000D01*
X82550000Y-71220000D02*
X82570000Y-71200000D01*
X80525000Y-123175000D02*
X80525000Y-166825000D01*
X90800000Y-112975000D02*
X82600000Y-121175000D01*
X80525000Y-166825000D02*
X78625000Y-168725000D01*
X90800000Y-87625000D02*
X90800000Y-112975000D01*
%TO.N,Net-(R6-Pad1)*%
X50500000Y-147237500D02*
X50512500Y-147225000D01*
D60*
X50512500Y-147225000D02*
X50512500Y-142405000D01*
D59*
%TO.N,/BAT_SENSE*%
X69355000Y-86440000D02*
X69355000Y-95255000D01*
X81325000Y-100750000D02*
X81325000Y-166756608D01*
X79125000Y-180500000D02*
X81575000Y-182950000D01*
X77750000Y-97175000D02*
X81325000Y-100750000D01*
X85237500Y-182950000D02*
X85287500Y-183000000D01*
X81325000Y-166756608D02*
X79125000Y-168956608D01*
X81575000Y-182950000D02*
X85237500Y-182950000D01*
X71275000Y-97175000D02*
X77750000Y-97175000D01*
X69355000Y-95255000D02*
X71275000Y-97175000D01*
X79125000Y-168956608D02*
X79125000Y-180500000D01*
%TO.N,Net-(U1A-1IN-)*%
X63925001Y-107924999D02*
X64200000Y-107650000D01*
X64025000Y-106575000D02*
X64025000Y-103200000D01*
X66412500Y-102550000D02*
X66962500Y-103100000D01*
X64200000Y-106750000D02*
X64025000Y-106575000D01*
X64812500Y-102550000D02*
X66412500Y-102550000D01*
X63000024Y-107924999D02*
X63925001Y-107924999D01*
X64675000Y-102550000D02*
X64812500Y-102550000D01*
X64200000Y-107650000D02*
X64200000Y-106750000D01*
X64025000Y-103200000D02*
X64675000Y-102550000D01*
%TO.N,/RAD_IN*%
X74100000Y-112225000D02*
X75462500Y-112225000D01*
X63000024Y-107275001D02*
X60199999Y-107275001D01*
X75462500Y-112225000D02*
X75537500Y-112150000D01*
X60199999Y-107275001D02*
X60175000Y-107300000D01*
X63000024Y-107275001D02*
X63000024Y-105537484D01*
X63000024Y-105537484D02*
X63087508Y-105450000D01*
%TO.N,/RAD_IN2*%
X81875000Y-109587500D02*
X81875000Y-94275000D01*
X62590000Y-77575000D02*
X62595000Y-77570000D01*
X81875000Y-94275000D02*
X81875000Y-94250000D01*
X62250000Y-77575000D02*
X62590000Y-77575000D01*
X81875000Y-94250000D02*
X81600000Y-93975000D01*
X62595000Y-77570000D02*
X65050000Y-77570000D01*
X84437500Y-112150000D02*
X81875000Y-109587500D01*
%TO.N,Net-(U5-OUTL)*%
X85300000Y-153575000D02*
X85650000Y-153925000D01*
X85300000Y-149375000D02*
X85300000Y-153575000D01*
X90075000Y-148825000D02*
X85850000Y-148825000D01*
X85650000Y-153925000D02*
X89825000Y-153925000D01*
X85850000Y-148825000D02*
X85300000Y-149375000D01*
%TO.N,Net-(U5-OUTR)*%
X86275000Y-146625000D02*
X84775000Y-148125000D01*
X84775000Y-154075000D02*
X85275000Y-154575000D01*
X85275000Y-154575000D02*
X89825000Y-154575000D01*
X84775000Y-148125000D02*
X84775000Y-154075000D01*
X90075000Y-146625000D02*
X86275000Y-146625000D01*
%TD*%
M02*
