%TF.GenerationSoftware,KiCad,Pcbnew,9.0.0*%
%TF.CreationDate,2025-04-11T15:06:13-04:00*%
%TF.ProjectId,Radiation3,52616469-6174-4696-9f6e-332e6b696361,rev?*%
%TF.SameCoordinates,Original*%
%TF.FileFunction,Copper,L4,Bot*%
%TF.FilePolarity,Positive*%
%FSLAX46Y46*%
G04 Gerber Fmt 4.6, Leading zero omitted, Abs format (unit mm)*
G04 Created by KiCad (PCBNEW 9.0.0) date 2025-04-11 15:06:13*
%MOMM*%
%LPD*%
G01*
G04 APERTURE LIST*
G04 Aperture macros list*
%AMRoundRect*
0 Rectangle with rounded corners*
0 $1 Rounding radius*
0 $2 $3 $4 $5 $6 $7 $8 $9 X,Y pos of 4 corners*
0 Add a 4 corners polygon primitive as box body*
4,1,4,$2,$3,$4,$5,$6,$7,$8,$9,$2,$3,0*
0 Add four circle primitives for the rounded corners*
1,1,$1+$1,$2,$3*
1,1,$1+$1,$4,$5*
1,1,$1+$1,$6,$7*
1,1,$1+$1,$8,$9*
0 Add four rect primitives between the rounded corners*
20,1,$1+$1,$2,$3,$4,$5,0*
20,1,$1+$1,$4,$5,$6,$7,0*
20,1,$1+$1,$6,$7,$8,$9,0*
20,1,$1+$1,$8,$9,$2,$3,0*%
G04 Aperture macros list end*
%TA.AperFunction,ComponentPad*%
%ADD10C,2.000000*%
%TD*%
%TA.AperFunction,ComponentPad*%
%ADD11RoundRect,0.635000X-0.635000X-0.635000X0.635000X-0.635000X0.635000X0.635000X-0.635000X0.635000X0*%
%TD*%
%TA.AperFunction,ComponentPad*%
%ADD12RoundRect,0.635000X0.635000X0.635000X-0.635000X0.635000X-0.635000X-0.635000X0.635000X-0.635000X0*%
%TD*%
%TA.AperFunction,ComponentPad*%
%ADD13O,1.498600X2.006600*%
%TD*%
%TA.AperFunction,ComponentPad*%
%ADD14O,1.000000X2.100000*%
%TD*%
%TA.AperFunction,ComponentPad*%
%ADD15RoundRect,0.250000X-0.250000X-0.650000X0.250000X-0.650000X0.250000X0.650000X-0.250000X0.650000X0*%
%TD*%
%TA.AperFunction,ComponentPad*%
%ADD16R,1.700000X1.700000*%
%TD*%
%TA.AperFunction,ComponentPad*%
%ADD17O,1.700000X1.700000*%
%TD*%
%TA.AperFunction,SMDPad,CuDef*%
%ADD18R,1.397000X1.803400*%
%TD*%
%TA.AperFunction,SMDPad,CuDef*%
%ADD19R,1.905000X1.397000*%
%TD*%
%TA.AperFunction,SMDPad,CuDef*%
%ADD20R,2.006600X0.812800*%
%TD*%
%TA.AperFunction,ViaPad*%
%ADD21C,0.600000*%
%TD*%
%TA.AperFunction,ViaPad*%
%ADD22C,0.700000*%
%TD*%
%TA.AperFunction,ViaPad*%
%ADD23C,0.800000*%
%TD*%
%TA.AperFunction,Conductor*%
%ADD24C,0.254000*%
%TD*%
%TA.AperFunction,Conductor*%
%ADD25C,0.400000*%
%TD*%
%TA.AperFunction,Conductor*%
%ADD26C,0.500000*%
%TD*%
G04 APERTURE END LIST*
D10*
%TO.P,OUTL1,1,1*%
%TO.N,/Audio3/OUTL*%
X105925000Y-159450000D03*
%TD*%
%TO.P,GND1,1,1*%
%TO.N,GND*%
X50400000Y-162675000D03*
%TD*%
%TO.P,5V1,1,1*%
%TO.N,+5V*%
X63550000Y-153175000D03*
%TD*%
D11*
%TO.P,F1,1,1*%
%TO.N,/Power3/ANODE*%
X40700000Y-184477500D03*
X40700000Y-176857500D03*
D12*
%TO.P,F1,2,2*%
%TO.N,/Power3/CATHODE*%
X40695000Y-82582500D03*
X40695000Y-74962500D03*
%TD*%
D10*
%TO.P,LRCK1,1,1*%
%TO.N,/I2S_LRCK*%
X105700000Y-146075000D03*
%TD*%
%TO.P,DRAIN1,1,1*%
%TO.N,Net-(Q1-D)*%
X65150000Y-94500000D03*
%TD*%
D13*
%TO.P,J2,1,1*%
%TO.N,AGND*%
X107600000Y-178490435D03*
%TO.P,J2,2,2*%
%TO.N,/Audio3/OUTL*%
X103349818Y-173190433D03*
%TO.P,J2,3,3*%
%TO.N,/Audio3/OUTR*%
X108849817Y-173190433D03*
%TD*%
D10*
%TO.P,VBUS1,1,1*%
%TO.N,VBUS*%
X50400000Y-157850000D03*
%TD*%
%TO.P,OUTR1,1,1*%
%TO.N,/Audio3/OUTR*%
X105825000Y-154350000D03*
%TD*%
%TO.P,HIV-1,1,1*%
%TO.N,/Power3/CATHODE*%
X47425000Y-69250000D03*
%TD*%
%TO.P,DOUT1,1,1*%
%TO.N,/I2S_DOUT*%
X105650000Y-142500000D03*
%TD*%
%TO.P,GND3,1,1*%
%TO.N,GND*%
X107450000Y-114125000D03*
%TD*%
%TO.P,BCK1,1,1*%
%TO.N,/I2S_BCK*%
X105800000Y-149675000D03*
%TD*%
%TO.P,STG1,1,1*%
%TO.N,Net-(D1-A)*%
X60900000Y-94500000D03*
%TD*%
%TO.P,+3.3V1,1,1*%
%TO.N,+3.3V*%
X63900000Y-134625000D03*
%TD*%
D14*
%TO.P,J1,SH1,SHELL_GND*%
%TO.N,/MCU3/SHELL_GND*%
X66080000Y-179920000D03*
%TO.P,J1,SH2,SHELL_GND*%
X74720000Y-179920000D03*
D15*
%TO.P,J1,SH3,SHELL_GND*%
X66080000Y-184100000D03*
%TO.P,J1,SH4,SHELL_GND*%
X74720000Y-184100000D03*
%TD*%
D10*
%TO.P,PWM1,1,1*%
%TO.N,Net-(Q1-G)*%
X53175000Y-69150000D03*
%TD*%
%TO.P,GND2,1,1*%
%TO.N,GND*%
X107300000Y-89800000D03*
%TD*%
D16*
%TO.P,J4,1,Pin_1*%
%TO.N,/CS*%
X105600000Y-124380000D03*
D17*
%TO.P,J4,2,Pin_2*%
%TO.N,/MOSI*%
X105600000Y-126920000D03*
%TO.P,J4,3,Pin_3*%
%TO.N,/MISO*%
X105600000Y-129460000D03*
%TO.P,J4,4,Pin_4*%
%TO.N,/SCK*%
X105600000Y-132000000D03*
%TO.P,J4,5,Pin_5*%
%TO.N,+3.3V*%
X105600000Y-134540000D03*
%TO.P,J4,6,Pin_6*%
%TO.N,GND*%
X105600000Y-137080000D03*
%TD*%
D10*
%TO.P,HIV+1,1,1*%
%TO.N,Net-(D1-K)*%
X56900000Y-94500000D03*
%TD*%
D18*
%TO.P,J3,9,CARD_DETECT*%
%TO.N,unconnected-(J3-CARD_DETECT-Pad9)*%
X95478399Y-96350000D03*
%TO.P,J3,10,CARD_DETECT*%
%TO.N,unconnected-(J3-CARD_DETECT-Pad10)*%
X95478399Y-102050001D03*
D19*
%TO.P,J3,11,GROUND*%
%TO.N,GND*%
X108628401Y-94750000D03*
%TO.P,J3,12,GROUND*%
X109628401Y-107900002D03*
D20*
%TO.P,J3,P1,DAT2*%
%TO.N,unconnected-(J3-DAT2-PadP1)*%
X106028401Y-103240001D03*
%TO.P,J3,P2,DAT3/CS*%
%TO.N,/CS*%
X105628402Y-102139927D03*
%TO.P,J3,P3,CMD/MOSI*%
%TO.N,/MOSI*%
X106028401Y-101040001D03*
%TO.P,J3,P4,VDD*%
%TO.N,+3.3V*%
X106228401Y-99940000D03*
%TO.P,J3,P5,SCLK*%
%TO.N,/SCK*%
X106028401Y-98840000D03*
%TO.P,J3,P6,VSS*%
%TO.N,GND*%
X106228401Y-97740000D03*
%TO.P,J3,P7,DAT0/MISO*%
%TO.N,/MISO*%
X106028401Y-96639999D03*
%TO.P,J3,P8,DAT1*%
%TO.N,unconnected-(J3-DAT1-PadP8)*%
X106028401Y-95539999D03*
%TD*%
D21*
%TO.N,Net-(U5-VNEG)*%
X90675000Y-159200000D03*
X88425000Y-153275000D03*
%TO.N,/EN*%
X86975000Y-70250000D03*
X68637500Y-69137500D03*
%TO.N,+5V*%
X76362500Y-149337500D03*
X61725000Y-145475000D03*
%TO.N,/GPIO0*%
X93425000Y-86650000D03*
X87125000Y-92000000D03*
%TO.N,/CS*%
X96825000Y-120000000D03*
%TO.N,/BLINK*%
X80525000Y-123175000D03*
X82600000Y-121175000D03*
X90800000Y-87625000D03*
X90600000Y-81675000D03*
%TO.N,/GPIO42*%
X83850000Y-75030000D03*
%TO.N,/GPIO38*%
X85175000Y-79625000D03*
X88450000Y-89025000D03*
%TO.N,+3.3V*%
X62800000Y-112625000D03*
X64075000Y-114550000D03*
%TO.N,GND*%
X66150000Y-118325000D03*
%TO.N,/GPIO39*%
X89200000Y-88450000D03*
X86550000Y-78900000D03*
%TO.N,/GPIO40*%
X85900000Y-78100000D03*
X89875000Y-87750000D03*
%TO.N,/GPIO16*%
X82625000Y-108425000D03*
X81125000Y-99250000D03*
X79700000Y-93725000D03*
D22*
%TO.N,+3.3V*%
X73300000Y-99475000D03*
D21*
%TO.N,/RAD_IN2*%
X81600000Y-93975000D03*
%TO.N,/GPIO42*%
X83850000Y-93250000D03*
%TO.N,/GPIO16*%
X62625000Y-78425000D03*
%TO.N,/RAD_IN2*%
X62250000Y-77575000D03*
%TO.N,+3.3V*%
X95300000Y-76675000D03*
X101400000Y-78550000D03*
%TO.N,/MUTE*%
X97550000Y-143800000D03*
%TO.N,+3.3V*%
X92625000Y-155225000D03*
X97100000Y-150250000D03*
X75025000Y-143675000D03*
X89000000Y-150125000D03*
%TO.N,/Audio3/OUTL*%
X93425000Y-148825000D03*
%TO.N,/I2S_DOUT*%
X100225000Y-156825000D03*
%TO.N,/I2S_BCK*%
X97162500Y-155212500D03*
%TO.N,/I2S_LRCK*%
X98250000Y-153900000D03*
%TO.N,/CS*%
X82450000Y-160075000D03*
X78675000Y-162075000D03*
%TO.N,AGND*%
X87975000Y-156525000D03*
X88325000Y-151975000D03*
X97025000Y-156525000D03*
X97125000Y-153225000D03*
X102250000Y-151225000D03*
X97050000Y-151300000D03*
X97637500Y-145237500D03*
%TO.N,GND*%
X84525000Y-136250000D03*
%TO.N,AGND*%
X86875000Y-141175000D03*
%TO.N,+5V*%
X74800000Y-150900000D03*
%TO.N,+3.3V*%
X70975000Y-171075000D03*
%TO.N,VBUS*%
X69000000Y-181300000D03*
X80900000Y-180700000D03*
%TO.N,+3.3V*%
X80925000Y-178400000D03*
%TO.N,+5V*%
X80875000Y-176200000D03*
%TO.N,Net-(J1-CC2)*%
X64000000Y-181675000D03*
X72150000Y-178075000D03*
%TO.N,GND*%
X62187500Y-181387500D03*
D23*
X67800000Y-144175000D03*
D21*
X74650000Y-122675000D03*
X93200000Y-185700000D03*
X91200000Y-172325000D03*
X101850000Y-69325000D03*
X75100000Y-77800000D03*
X61575000Y-109450000D03*
X49775000Y-84750000D03*
X72773100Y-135776900D03*
X70900000Y-79100000D03*
X75100000Y-75000000D03*
X103850000Y-81350000D03*
X75800000Y-170450000D03*
X84750000Y-69525000D03*
X69375000Y-112700000D03*
X62400000Y-69900000D03*
X97050000Y-81475000D03*
X57325000Y-88875000D03*
X67087500Y-175150000D03*
X71000000Y-73500000D03*
X80650000Y-93850000D03*
X104075000Y-97750000D03*
X99262500Y-92287500D03*
X70200000Y-103100000D03*
X95525000Y-69525000D03*
%TO.N,Net-(Q1-D)*%
X53700000Y-140075000D03*
%TO.N,/MCU3/SHELL_GND*%
X68912500Y-172462500D03*
%TO.N,Net-(Q1-G)*%
X87800000Y-74425000D03*
%TO.N,/MOSI*%
X71895000Y-94900000D03*
%TO.N,/MUTE*%
X80300000Y-98525000D03*
%TO.N,Net-(C3-Pad2)*%
X50350000Y-108700000D03*
X59475000Y-105275000D03*
%TO.N,/MISO*%
X74435000Y-93675000D03*
%TO.N,/CS*%
X70625000Y-95300000D03*
%TO.N,/SCK*%
X109025000Y-104050000D03*
X73165000Y-94200000D03*
X108085000Y-98840000D03*
%TO.N,+3.3V*%
X56800000Y-83500000D03*
X94300000Y-92300000D03*
X62700000Y-71000000D03*
X108775000Y-99925000D03*
D22*
X78700000Y-93675000D03*
D21*
%TO.N,VBUS*%
X63066400Y-124333600D03*
X55950000Y-85050000D03*
X56850000Y-90025000D03*
%TO.N,/RAD_IN*%
X60175000Y-107300000D03*
X74100000Y-112225000D03*
%TD*%
D24*
%TO.N,Net-(U5-VNEG)*%
X88425000Y-155550000D02*
X90625000Y-157750000D01*
X88425000Y-153275000D02*
X88425000Y-155550000D01*
X90625000Y-157750000D02*
X90625000Y-159150000D01*
X90625000Y-159150000D02*
X90675000Y-159200000D01*
%TO.N,Net-(Q1-G)*%
X87800000Y-74425000D02*
X87800000Y-69200000D01*
X87800000Y-69200000D02*
X86900000Y-68300000D01*
X86900000Y-68300000D02*
X54025000Y-68300000D01*
X54025000Y-68300000D02*
X53175000Y-69150000D01*
%TO.N,/EN*%
X86675000Y-70550000D02*
X86975000Y-70250000D01*
X86675000Y-70625000D02*
X86675000Y-70550000D01*
X68637500Y-69137500D02*
X82062500Y-69137500D01*
X83650000Y-70625000D02*
X86675000Y-70625000D01*
X82062500Y-69137500D02*
X83600000Y-70675000D01*
X83600000Y-70675000D02*
X83650000Y-70625000D01*
D25*
%TO.N,Net-(Q1-D)*%
X53700000Y-140075000D02*
X53700000Y-107350000D01*
X65150000Y-95900000D02*
X65150000Y-94500000D01*
X53700000Y-107350000D02*
X65150000Y-95900000D01*
D24*
%TO.N,/CS*%
X94050000Y-99200000D02*
X98175000Y-99200000D01*
X71875000Y-96550000D02*
X91400000Y-96550000D01*
X70625000Y-95300000D02*
X71875000Y-96550000D01*
X91400000Y-96550000D02*
X94050000Y-99200000D01*
X98175000Y-99200000D02*
X101050000Y-102075000D01*
%TO.N,/MOSI*%
X72920000Y-95925000D02*
X91500000Y-95925000D01*
X71895000Y-94900000D02*
X72920000Y-95925000D01*
X98525000Y-98400000D02*
X101165001Y-101040001D01*
X91500000Y-95925000D02*
X93975000Y-98400000D01*
X93975000Y-98400000D02*
X98525000Y-98400000D01*
X101165001Y-101040001D02*
X106028401Y-101040001D01*
%TO.N,/GPIO0*%
X91575000Y-92000000D02*
X93450000Y-90125000D01*
X87125000Y-92000000D02*
X91575000Y-92000000D01*
X93425000Y-90100000D02*
X93425000Y-86650000D01*
X93450000Y-90125000D02*
X93425000Y-90100000D01*
%TO.N,/BLINK*%
X90800000Y-87625000D02*
X90800000Y-81875000D01*
X90800000Y-81875000D02*
X90600000Y-81675000D01*
%TO.N,/CS*%
X101050000Y-102075000D02*
X100950000Y-102175000D01*
X100950000Y-102175000D02*
X100950000Y-119975000D01*
X100950000Y-119975000D02*
X100975000Y-120000000D01*
X105600000Y-124380000D02*
X105355000Y-124380000D01*
X105355000Y-124380000D02*
X100975000Y-120000000D01*
X100975000Y-120000000D02*
X96825000Y-120000000D01*
%TO.N,/MUTE*%
X97550000Y-143800000D02*
X95700000Y-141950000D01*
X95700000Y-115275000D02*
X90375000Y-109950000D01*
X95700000Y-141950000D02*
X95700000Y-115275000D01*
X90375000Y-109950000D02*
X90375000Y-99025000D01*
X90375000Y-99025000D02*
X89875000Y-98525000D01*
X89875000Y-98525000D02*
X80300000Y-98525000D01*
%TO.N,/BLINK*%
X80525000Y-123175000D02*
X82525000Y-121175000D01*
X82525000Y-121175000D02*
X82600000Y-121175000D01*
%TO.N,/RAD_IN2*%
X81600000Y-93975000D02*
X81600000Y-92600000D01*
X81600000Y-92600000D02*
X66550000Y-77550000D01*
X66550000Y-77550000D02*
X62275000Y-77550000D01*
X62275000Y-77550000D02*
X62250000Y-77575000D01*
%TO.N,/GPIO16*%
X62625000Y-78425000D02*
X66000000Y-78425000D01*
X66000000Y-78425000D02*
X79700000Y-92125000D01*
X79700000Y-92125000D02*
X79700000Y-93725000D01*
%TO.N,/GPIO42*%
X83850000Y-93250000D02*
X83850000Y-75030000D01*
%TO.N,/GPIO38*%
X85175000Y-79625000D02*
X85200000Y-79650000D01*
X85200000Y-79650000D02*
X87700000Y-79650000D01*
X87700000Y-79650000D02*
X88450000Y-80400000D01*
X88450000Y-80400000D02*
X88450000Y-89025000D01*
%TO.N,/GPIO39*%
X89200000Y-88450000D02*
X89200000Y-79875000D01*
X88225000Y-78900000D02*
X86550000Y-78900000D01*
X89200000Y-79875000D02*
X88225000Y-78900000D01*
%TO.N,/RAD_IN*%
X60175000Y-107300000D02*
X60175000Y-109300000D01*
X60175000Y-109300000D02*
X61100000Y-110225000D01*
X61100000Y-110225000D02*
X67375000Y-110225000D01*
X67375000Y-110225000D02*
X68775000Y-111625000D01*
X68775000Y-111625000D02*
X73425000Y-111625000D01*
X73425000Y-111625000D02*
X74025000Y-112225000D01*
X74025000Y-112225000D02*
X74100000Y-112225000D01*
%TO.N,/GPIO40*%
X89875000Y-87750000D02*
X89875000Y-79325000D01*
X89875000Y-79325000D02*
X88650000Y-78100000D01*
X88650000Y-78100000D02*
X85900000Y-78100000D01*
%TO.N,/GPIO16*%
X82625000Y-108425000D02*
X82350000Y-108150000D01*
X82350000Y-108150000D02*
X82350000Y-100500000D01*
X82350000Y-100500000D02*
X81125000Y-99275000D01*
X81125000Y-99275000D02*
X81125000Y-99250000D01*
%TO.N,/Audio3/OUTL*%
X98400000Y-159450000D02*
X93325000Y-154375000D01*
X105925000Y-159450000D02*
X98400000Y-159450000D01*
X93325000Y-154375000D02*
X93325000Y-148925000D01*
X93325000Y-148925000D02*
X93425000Y-148825000D01*
%TO.N,/I2S_BCK*%
X105800000Y-149675000D02*
X105800000Y-150250000D01*
X105800000Y-150250000D02*
X100825000Y-155225000D01*
X97175000Y-155225000D02*
X97162500Y-155212500D01*
X100825000Y-155225000D02*
X97175000Y-155225000D01*
%TO.N,/I2S_DOUT*%
X100225000Y-156825000D02*
X104975000Y-152075000D01*
X106900000Y-142500000D02*
X105650000Y-142500000D01*
X106175000Y-152075000D02*
X108325000Y-149925000D01*
X108325000Y-149925000D02*
X108325000Y-143925000D01*
X104975000Y-152075000D02*
X106175000Y-152075000D01*
X108325000Y-143925000D02*
X106900000Y-142500000D01*
%TO.N,/I2S_LRCK*%
X105700000Y-146075000D02*
X103800000Y-147975000D01*
X103800000Y-147975000D02*
X103775000Y-147975000D01*
X103775000Y-147975000D02*
X103775000Y-151200000D01*
X103775000Y-151200000D02*
X101075000Y-153900000D01*
X101075000Y-153900000D02*
X98250000Y-153900000D01*
%TO.N,/CS*%
X82450000Y-160075000D02*
X82475000Y-160050000D01*
X80450000Y-162075000D02*
X82450000Y-160075000D01*
X78675000Y-162075000D02*
X80450000Y-162075000D01*
%TO.N,Net-(J1-CC2)*%
X64000000Y-181675000D02*
X64275000Y-181950000D01*
X64275000Y-181950000D02*
X70225000Y-181950000D01*
X70225000Y-181950000D02*
X72125000Y-180050000D01*
X72125000Y-180050000D02*
X72125000Y-178100000D01*
X72125000Y-178100000D02*
X72150000Y-178075000D01*
D25*
%TO.N,GND*%
X109628401Y-111946599D02*
X109628401Y-107900002D01*
D24*
X104085000Y-97740000D02*
X104075000Y-97750000D01*
D25*
X107450000Y-114125000D02*
X109628401Y-111946599D01*
D26*
X108628401Y-94750000D02*
X107300000Y-93421599D01*
D24*
X106228401Y-97740000D02*
X104085000Y-97740000D01*
D26*
X107300000Y-93421599D02*
X107300000Y-89978401D01*
D24*
%TO.N,/MOSI*%
X101550000Y-109700000D02*
X108125000Y-103125000D01*
X107075000Y-122825000D02*
X104687052Y-122825000D01*
X107265001Y-101040001D02*
X106028401Y-101040001D01*
X108125000Y-126325000D02*
X108125000Y-123875000D01*
X108125000Y-103125000D02*
X108125000Y-101900000D01*
X108125000Y-101900000D02*
X107265001Y-101040001D01*
X108125000Y-123875000D02*
X107075000Y-122825000D01*
X107525000Y-126925000D02*
X108125000Y-126325000D01*
X104687052Y-122825000D02*
X101550000Y-119687948D01*
X105600000Y-126920000D02*
X105605000Y-126925000D01*
X101550000Y-119687948D02*
X101550000Y-109700000D01*
X105605000Y-126925000D02*
X107525000Y-126925000D01*
%TO.N,/MISO*%
X106028401Y-96639999D02*
X100139999Y-96639999D01*
X100139999Y-96639999D02*
X97375000Y-93875000D01*
X110250000Y-98650000D02*
X108239999Y-96639999D01*
X75500000Y-94775000D02*
X91275000Y-94775000D01*
X108239999Y-96639999D02*
X106028401Y-96639999D01*
X91275000Y-94775000D02*
X92175000Y-93875000D01*
X105600000Y-129460000D02*
X106565000Y-129460000D01*
X102075000Y-110075000D02*
X110250000Y-101900000D01*
X102075000Y-119500000D02*
X102075000Y-110075000D01*
X74435000Y-93675000D02*
X74435000Y-93710000D01*
X104850000Y-122275000D02*
X102075000Y-119500000D01*
X108900000Y-123799999D02*
X107375001Y-122275000D01*
X106565000Y-129460000D02*
X108900000Y-127125000D01*
X108900000Y-127125000D02*
X108900000Y-123799999D01*
X97375000Y-93875000D02*
X92175000Y-93875000D01*
X74435000Y-93710000D02*
X75500000Y-94775000D01*
X110250000Y-101900000D02*
X110250000Y-98650000D01*
X107375001Y-122275000D02*
X104850000Y-122275000D01*
%TO.N,/CS*%
X101050000Y-102075000D02*
X101114927Y-102139927D01*
X101114927Y-102139927D02*
X105628402Y-102139927D01*
%TO.N,/SCK*%
X101215000Y-98840000D02*
X106028401Y-98840000D01*
X91475000Y-95350000D02*
X92225000Y-94600000D01*
X104967052Y-121750000D02*
X102650000Y-119432948D01*
X108085000Y-98840000D02*
X108100000Y-98825000D01*
X73165000Y-94200000D02*
X74315000Y-95350000D01*
X105600000Y-132000000D02*
X105600000Y-131850000D01*
X106028401Y-98840000D02*
X108085000Y-98840000D01*
X109600000Y-123725000D02*
X107625000Y-121750000D01*
X74315000Y-95350000D02*
X91475000Y-95350000D01*
X109600000Y-127850000D02*
X109600000Y-123725000D01*
X96975000Y-94600000D02*
X101215000Y-98840000D01*
X108900000Y-104050000D02*
X109025000Y-104050000D01*
X92225000Y-94600000D02*
X96975000Y-94600000D01*
X107625000Y-121750000D02*
X104967052Y-121750000D01*
X102650000Y-119432948D02*
X102650000Y-110300000D01*
X105600000Y-131850000D02*
X109600000Y-127850000D01*
X102650000Y-110300000D02*
X108900000Y-104050000D01*
%TO.N,+3.3V*%
X108760000Y-99940000D02*
X106228401Y-99940000D01*
X108775000Y-99925000D02*
X108760000Y-99940000D01*
%TD*%
M02*
