M48
; DRILL file {KiCad 9.0.0} date 2025-04-11T15:06:18-0400
; FORMAT={-:-/ absolute / metric / decimal}
; #@! TF.CreationDate,2025-04-11T15:06:18-04:00
; #@! TF.GenerationSoftware,Kicad,Pcbnew,9.0.0
; #@! TF.FileFunction,Plated,1,4,PTH
FMAT,2
METRIC
; #@! TA.AperFunction,Plated,PTH,ViaDrill
T1C0.300
; #@! TA.AperFunction,Plated,PTH,ViaDrill
T2C0.400
; #@! TA.AperFunction,Plated,PTH,ViaDrill
T3C0.600
; #@! TA.AperFunction,Plated,PTH,ComponentDrill
T4C0.600
; #@! TA.AperFunction,Plated,PTH,ComponentDrill
T5C1.000
; #@! TA.AperFunction,Plated,PTH,ComponentDrill
T6C1.020
%
G90
G05
T1
X49.775Y-84.75
X50.35Y-108.7
X53.7Y-140.075
X55.95Y-85.05
X56.8Y-83.5
X56.85Y-90.025
X57.325Y-88.875
X59.475Y-105.275
X60.175Y-107.3
X61.575Y-109.45
X61.725Y-145.475
X62.188Y-181.387
X62.25Y-77.575
X62.4Y-69.9
X62.625Y-78.425
X62.7Y-71.0
X62.8Y-112.625
X63.066Y-124.334
X64.0Y-181.675
X64.075Y-114.55
X66.15Y-118.325
X67.087Y-175.15
X68.638Y-69.138
X68.912Y-172.463
X69.0Y-181.3
X69.375Y-112.7
X70.2Y-103.1
X70.625Y-95.3
X70.9Y-79.1
X70.975Y-171.075
X71.0Y-73.5
X71.895Y-94.9
X72.15Y-178.075
X72.773Y-135.777
X73.165Y-94.2
X74.1Y-112.225
X74.435Y-93.675
X74.65Y-122.675
X74.8Y-150.9
X75.025Y-143.675
X75.1Y-75.0
X75.1Y-77.8
X75.8Y-170.45
X76.362Y-149.338
X78.675Y-162.075
X79.7Y-93.725
X80.3Y-98.525
X80.525Y-123.175
X80.65Y-93.85
X80.875Y-176.2
X80.9Y-180.7
X80.925Y-178.4
X81.125Y-99.25
X81.6Y-93.975
X82.45Y-160.075
X82.6Y-121.175
X82.625Y-108.425
X83.85Y-75.03
X83.85Y-93.25
X84.525Y-136.25
X84.75Y-69.525
X85.175Y-79.625
X85.9Y-78.1
X86.55Y-78.9
X86.875Y-141.175
X86.975Y-70.25
X87.125Y-92.0
X87.8Y-74.425
X87.975Y-156.525
X88.325Y-151.975
X88.425Y-153.275
X88.45Y-89.025
X89.0Y-150.125
X89.2Y-88.45
X89.875Y-87.75
X90.6Y-81.675
X90.675Y-159.2
X90.8Y-87.625
X91.2Y-172.325
X92.625Y-155.225
X93.2Y-185.7
X93.425Y-86.65
X93.425Y-148.825
X94.3Y-92.3
X95.3Y-76.675
X95.525Y-69.525
X96.825Y-120.0
X97.025Y-156.525
X97.05Y-81.475
X97.05Y-151.3
X97.1Y-150.25
X97.125Y-153.225
X97.162Y-155.213
X97.55Y-143.8
X97.637Y-145.237
X98.25Y-153.9
X99.262Y-92.287
X100.225Y-156.825
X101.4Y-78.55
X101.85Y-69.325
X102.25Y-151.225
X103.85Y-81.35
X104.075Y-97.75
X108.085Y-98.84
X108.775Y-99.925
X109.025Y-104.05
T2
X73.3Y-99.475
X78.7Y-93.675
T3
X67.8Y-144.175
T5
X47.425Y-69.25
X50.4Y-157.85
X50.4Y-162.675
X53.175Y-69.15
X56.9Y-94.5
X60.9Y-94.5
X63.55Y-153.175
X63.9Y-134.625
X65.15Y-94.5
X105.6Y-124.38
X105.6Y-126.92
X105.6Y-129.46
X105.6Y-132.0
X105.6Y-134.54
X105.6Y-137.08
X105.65Y-142.5
X105.7Y-146.075
X105.8Y-149.675
X105.825Y-154.35
X105.925Y-159.45
X107.3Y-89.8
X107.45Y-114.125
T4
G00X66.08Y-179.37
M15
G01X66.08Y-180.47
M16
G05
G00X66.08Y-183.7
M15
G01X66.08Y-184.5
M16
G05
G00X74.72Y-179.37
M15
G01X74.72Y-180.47
M16
G05
G00X74.72Y-183.7
M15
G01X74.72Y-184.5
M16
G05
T5
G00X103.35Y-172.94
M15
G01X103.35Y-173.44
M16
G05
G00X107.6Y-178.24
M15
G01X107.6Y-178.74
M16
G05
G00X108.85Y-172.94
M15
G01X108.85Y-173.44
M16
G05
T6
G00X41.12Y-74.962
M15
G01X40.27Y-74.962
M16
G05
G00X41.12Y-82.582
M15
G01X40.27Y-82.582
M16
G05
G00X40.275Y-176.857
M15
G01X41.125Y-176.857
M16
G05
G00X40.275Y-184.477
M15
G01X41.125Y-184.477
M16
G05
M30
