%TF.GenerationSoftware,KiCad,Pcbnew,8.0.4*%
%TF.CreationDate,2025-01-31T21:40:56-05:00*%
%TF.ProjectId,Radiation,52616469-6174-4696-9f6e-2e6b69636164,rev?*%
%TF.SameCoordinates,Original*%
%TF.FileFunction,Soldermask,Bot*%
%TF.FilePolarity,Negative*%
%FSLAX46Y46*%
G04 Gerber Fmt 4.6, Leading zero omitted, Abs format (unit mm)*
G04 Created by KiCad (PCBNEW 8.0.4) date 2025-01-31 21:40:56*
%MOMM*%
%LPD*%
G01*
G04 APERTURE LIST*
G04 Aperture macros list*
%AMRoundRect*
0 Rectangle with rounded corners*
0 $1 Rounding radius*
0 $2 $3 $4 $5 $6 $7 $8 $9 X,Y pos of 4 corners*
0 Add a 4 corners polygon primitive as box body*
4,1,4,$2,$3,$4,$5,$6,$7,$8,$9,$2,$3,0*
0 Add four circle primitives for the rounded corners*
1,1,$1+$1,$2,$3*
1,1,$1+$1,$4,$5*
1,1,$1+$1,$6,$7*
1,1,$1+$1,$8,$9*
0 Add four rect primitives between the rounded corners*
20,1,$1+$1,$2,$3,$4,$5,0*
20,1,$1+$1,$4,$5,$6,$7,0*
20,1,$1+$1,$6,$7,$8,$9,0*
20,1,$1+$1,$8,$9,$2,$3,0*%
G04 Aperture macros list end*
%ADD10R,2.006600X0.812800*%
%ADD11R,1.397000X1.803400*%
%ADD12R,1.905000X1.397000*%
%ADD13C,0.650000*%
%ADD14O,1.204000X2.304000*%
%ADD15RoundRect,0.301000X-0.301000X-0.701000X0.301000X-0.701000X0.301000X0.701000X-0.301000X0.701000X0*%
%ADD16C,0.990600*%
%ADD17O,1.498600X2.006600*%
%ADD18C,2.000000*%
%ADD19R,1.500000X1.050000*%
%ADD20O,1.500000X1.050000*%
%ADD21RoundRect,0.635000X0.635000X-0.635000X0.635000X0.635000X-0.635000X0.635000X-0.635000X-0.635000X0*%
%ADD22R,1.700000X1.700000*%
%ADD23O,1.700000X1.700000*%
%ADD24C,2.204000*%
G04 APERTURE END LIST*
D10*
%TO.C,J4*%
X133428401Y-111400000D03*
X133028402Y-110299926D03*
X133428401Y-109200000D03*
X133628401Y-108099999D03*
X133428401Y-106999999D03*
X133628401Y-105899999D03*
X133428401Y-104799998D03*
X133428401Y-103699998D03*
D11*
X122878399Y-104509999D03*
X122878399Y-110210000D03*
D12*
X136028401Y-102909999D03*
X137028401Y-116060001D03*
%TD*%
D13*
%TO.C,J1*%
X107710000Y-180420000D03*
X113490000Y-180420000D03*
D14*
X106280000Y-179920000D03*
X114920000Y-179920000D03*
D15*
X106280000Y-184100000D03*
X114920000Y-184100000D03*
%TD*%
D16*
%TO.C,J3*%
X127800000Y-182600000D03*
X127800000Y-175100000D03*
D17*
X129300124Y-178500000D03*
X125049942Y-173199998D03*
X130549941Y-173199998D03*
%TD*%
D13*
%TO.C,J2*%
X80532500Y-180520000D03*
X86312500Y-180520000D03*
D14*
X79102500Y-180020000D03*
X87742500Y-180020000D03*
D15*
X79102500Y-184200000D03*
X87742500Y-184200000D03*
%TD*%
D18*
%TO.C,3.3V1*%
X86100000Y-131100000D03*
%TD*%
D19*
%TO.C,Q2*%
X71040000Y-168430000D03*
D20*
X71040000Y-169700000D03*
X71040000Y-170970000D03*
%TD*%
D18*
%TO.C,TP5*%
X61000000Y-67600000D03*
%TD*%
%TO.C,TP3*%
X56500000Y-67500000D03*
%TD*%
%TO.C,5V1*%
X93500000Y-148900000D03*
%TD*%
D21*
%TO.C,F1*%
X41642500Y-177727500D03*
X49262500Y-177727500D03*
X41737500Y-73577500D03*
X49357500Y-73577500D03*
%TD*%
D18*
%TO.C,HI-V1*%
X61100000Y-77600000D03*
%TD*%
%TO.C,TP8*%
X52200000Y-67500000D03*
%TD*%
%TO.C,LRCK*%
X134800000Y-148000000D03*
%TD*%
%TO.C,DOUT1*%
X135500000Y-151900000D03*
%TD*%
%TO.C,OUT R*%
X135800000Y-174100000D03*
%TD*%
%TO.C,VHIGH1*%
X93400000Y-131700000D03*
%TD*%
%TO.C,PWM1*%
X109400000Y-84200000D03*
%TD*%
D19*
%TO.C,Q3*%
X71115000Y-161860000D03*
D20*
X71115000Y-163130000D03*
X71115000Y-164400000D03*
%TD*%
D18*
%TO.C,OUT L*%
X135800000Y-178800000D03*
%TD*%
D22*
%TO.C,J5*%
X113500000Y-103560000D03*
D23*
X113500000Y-106100000D03*
X113500000Y-108640000D03*
X113500000Y-111180000D03*
X113500000Y-113720000D03*
X113500000Y-116260000D03*
%TD*%
D18*
%TO.C,VBUS1*%
X74000000Y-184037500D03*
%TD*%
%TO.C,STAT1*%
X74122500Y-180400000D03*
%TD*%
D24*
%TO.C,LS1*%
X64800000Y-178200000D03*
X57200000Y-178200000D03*
%TD*%
D18*
%TO.C,BCK*%
X136100000Y-156000000D03*
%TD*%
M02*
