%TF.GenerationSoftware,KiCad,Pcbnew,8.0.4*%
%TF.CreationDate,2025-02-20T16:09:48-05:00*%
%TF.ProjectId,Radiation2,52616469-6174-4696-9f6e-322e6b696361,rev?*%
%TF.SameCoordinates,Original*%
%TF.FileFunction,Copper,L3,Inr*%
%TF.FilePolarity,Positive*%
%FSLAX46Y46*%
G04 Gerber Fmt 4.6, Leading zero omitted, Abs format (unit mm)*
G04 Created by KiCad (PCBNEW 8.0.4) date 2025-02-20 16:09:48*
%MOMM*%
%LPD*%
G01*
G04 APERTURE LIST*
G04 Aperture macros list*
%AMRoundRect*
0 Rectangle with rounded corners*
0 $1 Rounding radius*
0 $2 $3 $4 $5 $6 $7 $8 $9 X,Y pos of 4 corners*
0 Add a 4 corners polygon primitive as box body*
4,1,4,$2,$3,$4,$5,$6,$7,$8,$9,$2,$3,0*
0 Add four circle primitives for the rounded corners*
1,1,$1+$1,$2,$3*
1,1,$1+$1,$4,$5*
1,1,$1+$1,$6,$7*
1,1,$1+$1,$8,$9*
0 Add four rect primitives between the rounded corners*
20,1,$1+$1,$2,$3,$4,$5,0*
20,1,$1+$1,$4,$5,$6,$7,0*
20,1,$1+$1,$6,$7,$8,$9,0*
20,1,$1+$1,$8,$9,$2,$3,0*%
G04 Aperture macros list end*
%TA.AperFunction,ComponentPad*%
%ADD10RoundRect,0.635000X-0.635000X-0.635000X0.635000X-0.635000X0.635000X0.635000X-0.635000X0.635000X0*%
%TD*%
%TA.AperFunction,ComponentPad*%
%ADD11RoundRect,0.635000X0.635000X0.635000X-0.635000X0.635000X-0.635000X-0.635000X0.635000X-0.635000X0*%
%TD*%
%TA.AperFunction,ComponentPad*%
%ADD12C,2.000000*%
%TD*%
%TA.AperFunction,ComponentPad*%
%ADD13O,1.498600X2.006600*%
%TD*%
%TA.AperFunction,ComponentPad*%
%ADD14O,1.000000X2.100000*%
%TD*%
%TA.AperFunction,ComponentPad*%
%ADD15RoundRect,0.250000X-0.250000X-0.650000X0.250000X-0.650000X0.250000X0.650000X-0.250000X0.650000X0*%
%TD*%
%TA.AperFunction,ComponentPad*%
%ADD16R,1.700000X1.700000*%
%TD*%
%TA.AperFunction,ComponentPad*%
%ADD17O,1.700000X1.700000*%
%TD*%
%TA.AperFunction,ViaPad*%
%ADD18C,1.000000*%
%TD*%
%TA.AperFunction,ViaPad*%
%ADD19C,0.600000*%
%TD*%
%TA.AperFunction,ViaPad*%
%ADD20C,0.800000*%
%TD*%
%TA.AperFunction,ViaPad*%
%ADD21C,0.889000*%
%TD*%
%TA.AperFunction,ViaPad*%
%ADD22C,1.500000*%
%TD*%
%TA.AperFunction,ViaPad*%
%ADD23C,0.762000*%
%TD*%
%TA.AperFunction,Conductor*%
%ADD24C,1.000000*%
%TD*%
%TA.AperFunction,Conductor*%
%ADD25C,0.200000*%
%TD*%
%TA.AperFunction,Conductor*%
%ADD26C,0.254000*%
%TD*%
%TA.AperFunction,Conductor*%
%ADD27C,0.700000*%
%TD*%
%TA.AperFunction,Conductor*%
%ADD28C,0.400000*%
%TD*%
%TA.AperFunction,Conductor*%
%ADD29C,0.500000*%
%TD*%
%TA.AperFunction,Conductor*%
%ADD30C,0.762000*%
%TD*%
%TA.AperFunction,Conductor*%
%ADD31C,0.300000*%
%TD*%
G04 APERTURE END LIST*
D10*
%TO.N,/Power2/ANODE*%
%TO.C,F1*%
X40700000Y-184477500D03*
X40700000Y-176857500D03*
D11*
%TO.N,/Power2/CATHODE*%
X40695000Y-82582500D03*
X40695000Y-74962500D03*
%TD*%
D12*
%TO.N,VBUS*%
%TO.C,VBUS1*%
X76100000Y-90100000D03*
%TD*%
%TO.N,/Audio2/OUTL*%
%TO.C,OUTL1*%
X136400000Y-179100000D03*
%TD*%
%TO.N,GND*%
%TO.C,GND1*%
X112700000Y-166900000D03*
%TD*%
%TO.N,+5V*%
%TO.C,5V1*%
X93500000Y-148900000D03*
%TD*%
%TO.N,/I2S_LRCK*%
%TO.C,LRCK1*%
X134700000Y-147800000D03*
%TD*%
%TO.N,Net-(JP1-A)*%
%TO.C,DRAIN1*%
X60700000Y-66900000D03*
%TD*%
D13*
%TO.N,AGND*%
%TO.C,J3*%
X129300124Y-178500000D03*
%TO.N,/Audio2/OUTL*%
X125049942Y-173199998D03*
%TO.N,/Audio2/OUTR*%
X130549941Y-173199998D03*
%TD*%
D12*
%TO.N,/Audio2/OUTR*%
%TO.C,OUTR1*%
X136400000Y-174300000D03*
%TD*%
%TO.N,/Power2/CATHODE*%
%TO.C,HIV-1*%
X66900000Y-81900000D03*
%TD*%
%TO.N,/I2S_DOUT*%
%TO.C,DOUT1*%
X135500000Y-151900000D03*
%TD*%
D14*
%TO.N,/MCU2/SHELL_GND*%
%TO.C,J2*%
X79102500Y-179820000D03*
X87742500Y-179820000D03*
D15*
X79102500Y-184000000D03*
X87742500Y-184000000D03*
%TD*%
D12*
%TO.N,/I2S_BCK*%
%TO.C,BCK1*%
X136000000Y-155900000D03*
%TD*%
%TO.N,Net-(D1-A)*%
%TO.C,STG1*%
X70200000Y-83300000D03*
%TD*%
D14*
%TO.N,/MCU2/SHELL_GND*%
%TO.C,J1*%
X106280000Y-179820000D03*
X114920000Y-179820000D03*
D15*
X106280000Y-184000000D03*
X114920000Y-184000000D03*
%TD*%
D12*
%TO.N,Net-(Q1-G)*%
%TO.C,PWM1*%
X109400000Y-84200000D03*
%TD*%
%TO.N,GND*%
%TO.C,GND2*%
X128400000Y-120200000D03*
%TD*%
D16*
%TO.N,/CS*%
%TO.C,J5*%
X113500000Y-103560000D03*
D17*
%TO.N,/MOSI*%
X113500000Y-106100000D03*
%TO.N,/MISO*%
X113500000Y-108640000D03*
%TO.N,/SCK*%
X113500000Y-111180000D03*
%TO.N,+3.3V*%
X113500000Y-113720000D03*
%TO.N,GND*%
X113500000Y-116260000D03*
%TD*%
D12*
%TO.N,Net-(D1-K)*%
%TO.C,HIV+1*%
X62600000Y-82900000D03*
%TD*%
%TO.N,Net-(Q4-C)*%
%TO.C,LS1*%
X64800000Y-178200000D03*
%TO.N,+3.3V*%
X57200000Y-178200000D03*
%TD*%
D18*
%TO.N,+3.3V*%
X80200000Y-135400000D03*
X85800000Y-135500000D03*
%TO.N,VBUS*%
X66900000Y-72200000D03*
D19*
%TO.N,+3.3V*%
X98200000Y-172600000D03*
%TO.N,GND*%
X51500000Y-74500000D03*
X131900000Y-94300000D03*
%TO.N,Net-(Q1-G)*%
X58200000Y-72300000D03*
D20*
%TO.N,VBUS*%
X73900000Y-183900000D03*
D19*
%TO.N,/RAD_IN*%
X104600000Y-99600000D03*
X111600000Y-99800000D03*
X92100000Y-103500000D03*
X111700000Y-88400000D03*
X111200000Y-82700000D03*
%TO.N,/GPIO16*%
X78100000Y-73000000D03*
%TO.N,GND*%
X66000000Y-78400000D03*
D18*
%TO.N,+3.3V*%
X81300000Y-113200000D03*
X93500000Y-109000000D03*
D19*
%TO.N,Net-(C30-Pad2)*%
X77600000Y-100600000D03*
X59300000Y-104500000D03*
D18*
%TO.N,VBUS*%
X57100000Y-147200000D03*
D19*
%TO.N,GND*%
X106800000Y-126000000D03*
%TO.N,+3.3V*%
X109500000Y-126500000D03*
%TO.N,GND*%
X79750000Y-103650000D03*
D18*
X81100000Y-119500000D03*
X89400000Y-106300000D03*
X84000000Y-112900000D03*
%TO.N,VBUS*%
X70500000Y-99200000D03*
D19*
%TO.N,GND*%
X125600000Y-68800000D03*
D18*
X130800000Y-79500000D03*
D19*
X79100000Y-177900000D03*
X82250000Y-145250000D03*
D20*
X90000000Y-182500000D03*
D19*
X89600000Y-171000000D03*
X80600000Y-63700000D03*
D20*
X94900000Y-180700000D03*
D19*
X113900000Y-178100000D03*
X96400000Y-62800000D03*
X74600000Y-172500000D03*
X136028401Y-101500000D03*
X86622500Y-178000000D03*
%TO.N,Net-(Q1-G)*%
X53200000Y-77800000D03*
%TO.N,GND*%
X58800000Y-167300000D03*
X132800000Y-74100000D03*
X83922500Y-174300000D03*
D18*
X94698100Y-138800000D03*
D19*
X120400000Y-100000000D03*
X118200000Y-66600000D03*
X110300000Y-171400000D03*
X131928401Y-105900000D03*
X73922500Y-177500000D03*
X118800000Y-74700000D03*
X94850000Y-89000000D03*
D20*
X102400000Y-181000000D03*
D19*
X82250000Y-150650000D03*
X67100000Y-65200000D03*
X132400000Y-68700000D03*
X86400000Y-71970000D03*
X83300000Y-166400000D03*
X113500000Y-134500000D03*
X125900000Y-74300000D03*
%TO.N,+5V*%
X80800000Y-151300000D03*
X120000000Y-85800000D03*
X88900000Y-152700000D03*
%TO.N,/MCU2/SHELL_GND*%
X94900000Y-183200000D03*
%TO.N,/Audio2/OUTL*%
X121700000Y-161100000D03*
X123400000Y-142725000D03*
D21*
%TO.N,Net-(D1-A)*%
X55200000Y-90500000D03*
D18*
X67400000Y-133400000D03*
D19*
%TO.N,/MCU2/RX_LED*%
X113800000Y-138200000D03*
X97600000Y-159400000D03*
%TO.N,Net-(Q1-G)*%
X66500000Y-62900000D03*
X101300000Y-84300000D03*
X91800000Y-63400000D03*
X92200000Y-65600000D03*
%TO.N,/MOSI*%
X120300000Y-107900000D03*
X101700000Y-106100000D03*
%TO.N,/I2S_LRCK*%
X103200000Y-81400000D03*
X135000000Y-97600000D03*
%TO.N,/I2S_DOUT*%
X135500000Y-96800000D03*
X104200000Y-81100000D03*
%TO.N,/I2S_BCK*%
X102100000Y-81300000D03*
X137600000Y-98600000D03*
%TO.N,/MUTE*%
X118700000Y-131800000D03*
X124400000Y-146100000D03*
%TO.N,/MCU2/TX_LED*%
X113700000Y-139800000D03*
X96100000Y-161500000D03*
%TO.N,/MISO*%
X108000000Y-108600000D03*
%TO.N,/CS*%
X118900000Y-104800000D03*
X121900000Y-108600000D03*
X99000000Y-105500000D03*
X99000000Y-120100000D03*
%TO.N,Net-(Q3-G)*%
X73300000Y-159400000D03*
X70400000Y-160200000D03*
%TO.N,/EN*%
X114700000Y-82100000D03*
X81500000Y-77900000D03*
X96800000Y-81500000D03*
X74900000Y-164300000D03*
X112900000Y-84100000D03*
%TO.N,/GPIO16*%
X97900000Y-64900000D03*
%TO.N,/RAD_IN2*%
X78200000Y-71700000D03*
X96900000Y-64000000D03*
%TO.N,/BEEP*%
X75350000Y-101450000D03*
X80700000Y-78500000D03*
X74000000Y-117300000D03*
X74000000Y-134000000D03*
X70900000Y-137100000D03*
%TO.N,/SCK*%
X109200000Y-111180000D03*
%TO.N,Net-(J1-CC2)*%
X104700000Y-181700000D03*
X107600000Y-181900000D03*
%TO.N,Net-(J2-CC2)*%
X85222500Y-178200000D03*
X79522500Y-174600000D03*
%TO.N,Net-(U4-IO35)*%
X97100000Y-79700000D03*
X110850000Y-112150000D03*
X92500000Y-78100000D03*
%TO.N,Net-(U4-IO36)*%
X92600000Y-76800000D03*
X96800000Y-77200000D03*
D18*
%TO.N,+3.3V*%
X109800000Y-163600000D03*
D19*
X123300000Y-144600000D03*
D18*
X123200000Y-154700000D03*
X89100000Y-82800000D03*
X71800000Y-78500000D03*
D20*
X135828401Y-108100000D03*
D18*
X118900000Y-95500000D03*
X78000000Y-64200000D03*
D19*
X124000000Y-149300000D03*
X121200000Y-149100000D03*
X112300000Y-81300000D03*
%TO.N,/USB_D+*%
X95800000Y-106900000D03*
X114600000Y-173200000D03*
X114600000Y-176300000D03*
X95800000Y-104800000D03*
%TO.N,/GPIO0*%
X93300000Y-82000000D03*
X113900000Y-87000000D03*
X74400000Y-165700000D03*
X99300000Y-87300000D03*
X116800000Y-83600000D03*
X103400000Y-86800000D03*
%TO.N,VBUS*%
X84800000Y-181500000D03*
D18*
X115800000Y-78000000D03*
X119075000Y-80525000D03*
D19*
X108200000Y-178000000D03*
X113000000Y-178000000D03*
D18*
X83298100Y-126200000D03*
D19*
X90400000Y-173600000D03*
%TO.N,/GPIO46*%
X97100000Y-95200000D03*
X103900000Y-92000000D03*
X112400000Y-83200000D03*
X94600000Y-102200000D03*
X114200000Y-81300000D03*
X104500000Y-86400000D03*
%TO.N,Net-(U5-3V3OUT)*%
X82001765Y-174520735D03*
X84200000Y-169600000D03*
%TO.N,AGND*%
X117700000Y-151300000D03*
X128100000Y-152300000D03*
X131362500Y-141325000D03*
X128000000Y-154500000D03*
X117900000Y-135500000D03*
X128100000Y-147200000D03*
X118500000Y-145900000D03*
X118600000Y-150700000D03*
X128062500Y-139225000D03*
X127200000Y-145200000D03*
%TO.N,/MCU2/TX*%
X96500000Y-66400000D03*
X96800000Y-120500000D03*
%TO.N,/MCU2/RX*%
X98600000Y-67800000D03*
X98300000Y-121000000D03*
D22*
%TO.N,Net-(C1-Pad1)*%
X56200000Y-64200000D03*
D23*
X61900000Y-99800000D03*
D22*
X52000000Y-82800000D03*
D19*
%TO.N,/BLINK*%
X122200000Y-96200000D03*
X101200000Y-67500000D03*
%TO.N,/BAT_SENSE*%
X87100000Y-93700000D03*
X119400000Y-83900000D03*
X96300000Y-92900000D03*
%TD*%
D24*
%TO.N,VBUS*%
X76100000Y-90100000D02*
X76100000Y-86300000D01*
X66900000Y-77100000D02*
X66900000Y-72200000D01*
X76100000Y-86300000D02*
X66900000Y-77100000D01*
X72700000Y-97000000D02*
X76100000Y-93600000D01*
X76100000Y-93600000D02*
X76100000Y-90100000D01*
X83600000Y-97000000D02*
X83500000Y-97000000D01*
X83500000Y-97000000D02*
X75700000Y-104800000D01*
X75700000Y-104800000D02*
X75700000Y-145500000D01*
X75700000Y-145500000D02*
X67700000Y-153500000D01*
D25*
%TO.N,+3.3V*%
X98200000Y-172600000D02*
X107200000Y-163600000D01*
X107200000Y-163600000D02*
X109800000Y-163600000D01*
D24*
%TO.N,Net-(D1-A)*%
X70500000Y-83100000D02*
X70500000Y-83200000D01*
X70500000Y-83200000D02*
X63200000Y-90500000D01*
X63200000Y-90500000D02*
X55200000Y-90500000D01*
D26*
%TO.N,/RAD_IN*%
X92100000Y-103500000D02*
X101200000Y-103500000D01*
X101200000Y-103500000D02*
X104600000Y-100100000D01*
X104600000Y-100100000D02*
X104600000Y-99600000D01*
D24*
%TO.N,VBUS*%
X70500000Y-99200000D02*
X72700000Y-97000000D01*
X96000000Y-89700000D02*
X113500000Y-89700000D01*
X72700000Y-97000000D02*
X88700000Y-97000000D01*
X113500000Y-89700000D02*
X115500000Y-87700000D01*
X88700000Y-97000000D02*
X96000000Y-89700000D01*
X115500000Y-87700000D02*
X115500000Y-83100000D01*
X115500000Y-83100000D02*
X118075000Y-80525000D01*
%TO.N,+3.3V*%
X93500000Y-110900000D02*
X93500000Y-109000000D01*
X89600000Y-114800000D02*
X93500000Y-110900000D01*
X82900000Y-114800000D02*
X89600000Y-114800000D01*
X81300000Y-113200000D02*
X82900000Y-114800000D01*
%TO.N,VBUS*%
X63400000Y-153500000D02*
X57100000Y-147200000D01*
X67700000Y-153500000D02*
X63400000Y-153500000D01*
D27*
%TO.N,+3.3V*%
X109500000Y-126500000D02*
X109500000Y-117720000D01*
X109500000Y-117720000D02*
X113500000Y-113720000D01*
D28*
%TO.N,/BEEP*%
X75350000Y-101450000D02*
X74000000Y-102800000D01*
X74000000Y-102800000D02*
X74000000Y-117300000D01*
D24*
%TO.N,VBUS*%
X67700000Y-153500000D02*
X67700000Y-177737500D01*
X67700000Y-177737500D02*
X74000000Y-184037500D01*
%TO.N,+3.3V*%
X89100000Y-82800000D02*
X89300000Y-83000000D01*
X89100000Y-82800000D02*
X88100000Y-82800000D01*
X89300000Y-83000000D02*
X106600000Y-83000000D01*
X108300000Y-81300000D02*
X112300000Y-81300000D01*
X81900000Y-76600000D02*
X75200000Y-76600000D01*
X88100000Y-82800000D02*
X81900000Y-76600000D01*
X75200000Y-76600000D02*
X73700000Y-78100000D01*
X72200000Y-78100000D02*
X71800000Y-78500000D01*
X73700000Y-78100000D02*
X72200000Y-78100000D01*
X106600000Y-83000000D02*
X108300000Y-81300000D01*
D29*
%TO.N,+5V*%
X88900000Y-152700000D02*
X82100000Y-152700000D01*
X82100000Y-152700000D02*
X80800000Y-151400000D01*
X80800000Y-151400000D02*
X80800000Y-151300000D01*
X99900000Y-105900000D02*
X99900000Y-146100000D01*
X99900000Y-146100000D02*
X97100000Y-148900000D01*
X120000000Y-85800000D02*
X99900000Y-105900000D01*
X80700000Y-151300000D02*
X80750000Y-151350000D01*
X90000000Y-152700000D02*
X88900000Y-152700000D01*
X97100000Y-148900000D02*
X93500000Y-148900000D01*
X93600000Y-149100000D02*
X90000000Y-152700000D01*
X80800000Y-151300000D02*
X80700000Y-151300000D01*
D30*
%TO.N,Net-(D1-A)*%
X55200000Y-90500000D02*
X55200000Y-91300000D01*
X58500000Y-93900000D02*
X67400000Y-102800000D01*
X55200000Y-91300000D02*
X57800000Y-93900000D01*
X67400000Y-102800000D02*
X67400000Y-133400000D01*
X57800000Y-93900000D02*
X58500000Y-93900000D01*
D26*
%TO.N,/MOSI*%
X120300000Y-107900000D02*
X118000000Y-107900000D01*
X118000000Y-107900000D02*
X116200000Y-106100000D01*
X116200000Y-106100000D02*
X113500000Y-106100000D01*
%TO.N,/CS*%
X118900000Y-104800000D02*
X118900000Y-105600000D01*
X118900000Y-105600000D02*
X121900000Y-108600000D01*
%TO.N,Net-(J1-CC2)*%
X107400000Y-181700000D02*
X107600000Y-181900000D01*
X104700000Y-181700000D02*
X107400000Y-181700000D01*
D25*
%TO.N,Net-(J2-CC2)*%
X85222500Y-178200000D02*
X83122500Y-178200000D01*
X83122500Y-178200000D02*
X79522500Y-174600000D01*
D24*
%TO.N,+3.3V*%
X71800000Y-67000000D02*
X74400000Y-64400000D01*
X74400000Y-64400000D02*
X77800000Y-64400000D01*
X77800000Y-64400000D02*
X78000000Y-64200000D01*
D27*
X124500000Y-111300000D02*
X122080000Y-113720000D01*
X121300000Y-142600000D02*
X123300000Y-144600000D01*
X131900000Y-100200000D02*
X135828401Y-104128401D01*
X135828401Y-104128401D02*
X135828401Y-108100000D01*
X126800000Y-100200000D02*
X123600000Y-100200000D01*
D24*
X118700000Y-154700000D02*
X123200000Y-154700000D01*
X109800000Y-163600000D02*
X118700000Y-154700000D01*
D27*
X131900000Y-100200000D02*
X126800000Y-100200000D01*
X123600000Y-100200000D02*
X118900000Y-95500000D01*
X121900000Y-113720000D02*
X121300000Y-113720000D01*
D24*
X71800000Y-78500000D02*
X71800000Y-67000000D01*
D27*
X121300000Y-113720000D02*
X113500000Y-113720000D01*
X126800000Y-100200000D02*
X124500000Y-102500000D01*
X121300000Y-113720000D02*
X121300000Y-142600000D01*
D26*
X123800000Y-149100000D02*
X123900000Y-149200000D01*
X121200000Y-149100000D02*
X123800000Y-149100000D01*
D27*
X124500000Y-102500000D02*
X124500000Y-111300000D01*
X122080000Y-113720000D02*
X121900000Y-113720000D01*
D25*
%TO.N,/USB_D+*%
X114600000Y-176300000D02*
X114600000Y-173200000D01*
D31*
%TO.N,VBUS*%
X89400000Y-174500000D02*
X89400000Y-181300000D01*
X89200000Y-181500000D02*
X84800000Y-181500000D01*
D24*
X83298100Y-126400000D02*
X83398100Y-126500000D01*
D31*
X108200000Y-178000000D02*
X105000000Y-178000000D01*
X89400000Y-181300000D02*
X89200000Y-181500000D01*
D24*
X115800000Y-78000000D02*
X115800000Y-78250000D01*
X115800000Y-78250000D02*
X118075000Y-80525000D01*
D31*
X100500000Y-173500000D02*
X90400000Y-173500000D01*
X105000000Y-178000000D02*
X100500000Y-173500000D01*
X108200000Y-178000000D02*
X113000000Y-178000000D01*
D24*
X77598100Y-128400000D02*
X75998100Y-128400000D01*
X83298100Y-126200000D02*
X79798100Y-126200000D01*
X119075000Y-80525000D02*
X118925000Y-80525000D01*
X79798100Y-126200000D02*
X77598100Y-128400000D01*
X83298100Y-126200000D02*
X83298100Y-126400000D01*
X119075000Y-80525000D02*
X118075000Y-80525000D01*
D31*
X90400000Y-173500000D02*
X89400000Y-174500000D01*
D24*
%TO.N,Net-(C1-Pad1)*%
X56000000Y-77800000D02*
X56000000Y-64400000D01*
X61900000Y-99800000D02*
X61000000Y-98900000D01*
X52000000Y-96600000D02*
X52000000Y-82800000D01*
X61000000Y-98900000D02*
X54300000Y-98900000D01*
X54300000Y-98900000D02*
X52000000Y-96600000D01*
X52000000Y-82800000D02*
X52000000Y-81800000D01*
X56000000Y-64400000D02*
X56200000Y-64200000D01*
X52000000Y-81800000D02*
X56000000Y-77800000D01*
D26*
%TO.N,/BAT_SENSE*%
X98700000Y-90600000D02*
X96400000Y-92900000D01*
X96400000Y-92900000D02*
X96300000Y-92900000D01*
X116700000Y-86600000D02*
X116700000Y-88000000D01*
X114100000Y-90600000D02*
X98700000Y-90600000D01*
X96300000Y-92900000D02*
X96300000Y-93000000D01*
X116700000Y-88000000D02*
X114100000Y-90600000D01*
X96300000Y-93000000D02*
X96400000Y-92900000D01*
X119400000Y-83900000D02*
X116700000Y-86600000D01*
%TD*%
%TA.AperFunction,Conductor*%
%TO.N,+3.3V*%
G36*
X96739078Y-121619979D02*
G01*
X96785096Y-121672553D01*
X96796552Y-121726149D01*
X96599587Y-137778745D01*
X96579081Y-137845538D01*
X96525720Y-137890642D01*
X96476842Y-137901218D01*
X95195425Y-137914097D01*
X95135726Y-137899461D01*
X95114512Y-137888122D01*
X95082830Y-137871187D01*
X94894229Y-137813975D01*
X94698100Y-137794659D01*
X94501970Y-137813975D01*
X94313370Y-137871187D01*
X94241459Y-137909624D01*
X94184253Y-137924259D01*
X76825746Y-138098716D01*
X76758512Y-138079706D01*
X76712229Y-138027364D01*
X76700500Y-137974722D01*
X76700500Y-137706828D01*
X76700502Y-137706072D01*
X76750395Y-129523744D01*
X76770488Y-129456826D01*
X76823570Y-129411394D01*
X76874393Y-129400500D01*
X77696642Y-129400500D01*
X77715970Y-129396655D01*
X77793288Y-129381275D01*
X77889936Y-129362051D01*
X77943265Y-129339961D01*
X78072014Y-129286632D01*
X78235882Y-129177139D01*
X78375239Y-129037782D01*
X78375240Y-129037779D01*
X78382306Y-129030714D01*
X78382308Y-129030710D01*
X80176201Y-127236819D01*
X80237524Y-127203334D01*
X80263882Y-127200500D01*
X82632317Y-127200500D01*
X82699356Y-127220185D01*
X82719999Y-127236820D01*
X82760314Y-127277136D01*
X82760318Y-127277139D01*
X82924178Y-127386627D01*
X82924187Y-127386632D01*
X82955253Y-127399500D01*
X83106264Y-127462051D01*
X83299554Y-127500499D01*
X83299557Y-127500500D01*
X83299559Y-127500500D01*
X83496642Y-127500500D01*
X83496643Y-127500499D01*
X83689935Y-127462051D01*
X83872014Y-127386631D01*
X84035881Y-127277139D01*
X84175239Y-127137781D01*
X84284731Y-126973914D01*
X84360151Y-126791835D01*
X84398600Y-126598540D01*
X84398600Y-126401459D01*
X84398600Y-126401456D01*
X84398599Y-126401454D01*
X84360152Y-126208171D01*
X84360151Y-126208164D01*
X84293843Y-126048084D01*
X84285002Y-126012783D01*
X84284124Y-126003870D01*
X84284124Y-126003868D01*
X84271550Y-125962419D01*
X84268599Y-125950640D01*
X84260151Y-125908165D01*
X84243580Y-125868160D01*
X84239482Y-125856706D01*
X84226914Y-125815273D01*
X84206504Y-125777091D01*
X84201301Y-125766090D01*
X84184732Y-125726086D01*
X84160672Y-125690078D01*
X84154416Y-125679640D01*
X84134011Y-125641464D01*
X84134010Y-125641462D01*
X84106538Y-125607988D01*
X84099294Y-125598219D01*
X84075240Y-125562219D01*
X84075236Y-125562214D01*
X84044620Y-125531599D01*
X84036446Y-125522581D01*
X84008984Y-125489118D01*
X83975516Y-125461651D01*
X83966501Y-125453479D01*
X83935887Y-125422865D01*
X83935883Y-125422862D01*
X83899872Y-125398799D01*
X83890102Y-125391552D01*
X83856643Y-125364094D01*
X83856635Y-125364088D01*
X83839536Y-125354948D01*
X83818450Y-125343678D01*
X83808018Y-125337425D01*
X83772018Y-125313370D01*
X83772014Y-125313368D01*
X83732015Y-125296800D01*
X83721013Y-125291597D01*
X83682829Y-125271187D01*
X83682828Y-125271186D01*
X83682827Y-125271186D01*
X83641377Y-125258612D01*
X83629934Y-125254517D01*
X83589934Y-125237948D01*
X83589927Y-125237946D01*
X83547478Y-125229503D01*
X83535675Y-125226547D01*
X83494234Y-125213976D01*
X83494230Y-125213975D01*
X83451135Y-125209730D01*
X83439106Y-125207945D01*
X83396644Y-125199500D01*
X83396641Y-125199500D01*
X83353344Y-125199500D01*
X83341190Y-125198903D01*
X83298100Y-125194659D01*
X83255010Y-125198903D01*
X83242856Y-125199500D01*
X79699557Y-125199500D01*
X79651126Y-125209134D01*
X79626784Y-125213976D01*
X79506267Y-125237947D01*
X79506259Y-125237950D01*
X79452934Y-125260037D01*
X79452934Y-125260038D01*
X79407415Y-125278892D01*
X79324189Y-125313366D01*
X79324179Y-125313371D01*
X79160319Y-125422859D01*
X79125390Y-125457789D01*
X79020961Y-125562218D01*
X79020958Y-125562221D01*
X77219999Y-127363181D01*
X77158676Y-127396666D01*
X77132318Y-127399500D01*
X76888106Y-127399500D01*
X76821067Y-127379815D01*
X76775312Y-127327011D01*
X76764108Y-127274744D01*
X76797352Y-121822628D01*
X76817445Y-121755710D01*
X76870527Y-121710278D01*
X76920725Y-121699386D01*
X96671943Y-121600630D01*
X96739078Y-121619979D01*
G37*
%TD.AperFunction*%
%TD*%
%TA.AperFunction,Conductor*%
%TO.N,Net-(D1-A)*%
G36*
X50942539Y-86919685D02*
G01*
X50988294Y-86972489D01*
X50999500Y-87024000D01*
X50999500Y-96698541D01*
X50999500Y-96698543D01*
X50999499Y-96698543D01*
X51037947Y-96891829D01*
X51037950Y-96891839D01*
X51113364Y-97073907D01*
X51113371Y-97073920D01*
X51222860Y-97237781D01*
X51222863Y-97237785D01*
X51366537Y-97381459D01*
X51366559Y-97381479D01*
X53519735Y-99534655D01*
X53519764Y-99534686D01*
X53662214Y-99677136D01*
X53662218Y-99677139D01*
X53826079Y-99786628D01*
X53826092Y-99786635D01*
X53954833Y-99839961D01*
X53997744Y-99857735D01*
X54008164Y-99862051D01*
X54104812Y-99881275D01*
X54153135Y-99890887D01*
X54201458Y-99900500D01*
X54201459Y-99900500D01*
X54201460Y-99900500D01*
X54398540Y-99900500D01*
X60534218Y-99900500D01*
X60601257Y-99920185D01*
X60621899Y-99936819D01*
X61262215Y-100577136D01*
X61262219Y-100577139D01*
X61426079Y-100686627D01*
X61426083Y-100686629D01*
X61426086Y-100686631D01*
X61608164Y-100762051D01*
X61801455Y-100800499D01*
X61801458Y-100800500D01*
X61801460Y-100800500D01*
X61998542Y-100800500D01*
X61998543Y-100800499D01*
X62191836Y-100762051D01*
X62373914Y-100686631D01*
X62537781Y-100577139D01*
X62677139Y-100437781D01*
X62786631Y-100273914D01*
X62862051Y-100091836D01*
X62900500Y-99898540D01*
X62900500Y-99701460D01*
X62900500Y-99701457D01*
X62900499Y-99701455D01*
X62867942Y-99537782D01*
X62862051Y-99508164D01*
X62786631Y-99326086D01*
X62786629Y-99326083D01*
X62786627Y-99326079D01*
X62677139Y-99162219D01*
X62677136Y-99162215D01*
X61781479Y-98266559D01*
X61781459Y-98266537D01*
X61637785Y-98122863D01*
X61637781Y-98122860D01*
X61473920Y-98013371D01*
X61473911Y-98013366D01*
X61401315Y-97983296D01*
X61345165Y-97960038D01*
X61291836Y-97937949D01*
X61291832Y-97937948D01*
X61291828Y-97937946D01*
X61195188Y-97918724D01*
X61098544Y-97899500D01*
X61098541Y-97899500D01*
X54765782Y-97899500D01*
X54698743Y-97879815D01*
X54678101Y-97863181D01*
X53036819Y-96221899D01*
X53003334Y-96160576D01*
X53000500Y-96134218D01*
X53000500Y-87024000D01*
X53020185Y-86956961D01*
X53072989Y-86911206D01*
X53124500Y-86900000D01*
X67278067Y-86900000D01*
X67345106Y-86919685D01*
X67390861Y-86972489D01*
X67402049Y-87021916D01*
X68197888Y-134374351D01*
X68179333Y-134441712D01*
X68127306Y-134488348D01*
X68074335Y-134500434D01*
X39424951Y-134599567D01*
X39357844Y-134580115D01*
X39311907Y-134527469D01*
X39300523Y-134475052D01*
X39426205Y-104499996D01*
X58494435Y-104499996D01*
X58494435Y-104500003D01*
X58514630Y-104679249D01*
X58514631Y-104679254D01*
X58574211Y-104849523D01*
X58670184Y-105002262D01*
X58797738Y-105129816D01*
X58950478Y-105225789D01*
X59120745Y-105285368D01*
X59120750Y-105285369D01*
X59299996Y-105305565D01*
X59300000Y-105305565D01*
X59300004Y-105305565D01*
X59479249Y-105285369D01*
X59479252Y-105285368D01*
X59479255Y-105285368D01*
X59649522Y-105225789D01*
X59802262Y-105129816D01*
X59929816Y-105002262D01*
X60025789Y-104849522D01*
X60085368Y-104679255D01*
X60105565Y-104500000D01*
X60085368Y-104320745D01*
X60025789Y-104150478D01*
X59929816Y-103997738D01*
X59802262Y-103870184D01*
X59649523Y-103774211D01*
X59479254Y-103714631D01*
X59479249Y-103714630D01*
X59300004Y-103694435D01*
X59299996Y-103694435D01*
X59120750Y-103714630D01*
X59120745Y-103714631D01*
X58950476Y-103774211D01*
X58797737Y-103870184D01*
X58670184Y-103997737D01*
X58574211Y-104150476D01*
X58514631Y-104320745D01*
X58514630Y-104320750D01*
X58494435Y-104499996D01*
X39426205Y-104499996D01*
X39499482Y-87023479D01*
X39519448Y-86956524D01*
X39572443Y-86910991D01*
X39623481Y-86900000D01*
X50875500Y-86900000D01*
X50942539Y-86919685D01*
G37*
%TD.AperFunction*%
%TD*%
%TA.AperFunction,Conductor*%
%TO.N,+3.3V*%
G36*
X125600000Y-151000000D02*
G01*
X125600000Y-155576000D01*
X125580315Y-155643039D01*
X125527511Y-155688794D01*
X125476000Y-155700000D01*
X116299362Y-155700000D01*
X116232323Y-155680315D01*
X116186568Y-155627511D01*
X116176624Y-155558353D01*
X116205649Y-155494797D01*
X116211681Y-155488319D01*
X117563681Y-154136319D01*
X117625004Y-154102834D01*
X117651362Y-154100000D01*
X120900000Y-154100000D01*
X120900000Y-151000000D01*
X120900000Y-150900000D01*
X125600000Y-150900000D01*
X125600000Y-151000000D01*
G37*
%TD.AperFunction*%
%TD*%
%TA.AperFunction,Conductor*%
%TO.N,+3.3V*%
G36*
X126643039Y-144019685D02*
G01*
X126688794Y-144072489D01*
X126700000Y-144124000D01*
X126700000Y-144516560D01*
X126680315Y-144583599D01*
X126663681Y-144604241D01*
X126570184Y-144697737D01*
X126474211Y-144850476D01*
X126414631Y-145020745D01*
X126414630Y-145020750D01*
X126394435Y-145199996D01*
X126394435Y-145200003D01*
X126414630Y-145379249D01*
X126414631Y-145379254D01*
X126474211Y-145549523D01*
X126570184Y-145702262D01*
X126663681Y-145795759D01*
X126697166Y-145857082D01*
X126700000Y-145883440D01*
X126700000Y-150876000D01*
X126680315Y-150943039D01*
X126627511Y-150988794D01*
X126576000Y-151000000D01*
X125600000Y-151000000D01*
X125600000Y-150900000D01*
X120900000Y-150900000D01*
X120900000Y-151000000D01*
X119510520Y-151000000D01*
X119443481Y-150980315D01*
X119397726Y-150927511D01*
X119387300Y-150862117D01*
X119405565Y-150700003D01*
X119405565Y-150699996D01*
X119385369Y-150520750D01*
X119385368Y-150520745D01*
X119325788Y-150350476D01*
X119229815Y-150197737D01*
X119136319Y-150104241D01*
X119102834Y-150042918D01*
X119100000Y-150016560D01*
X119100000Y-146483039D01*
X119119685Y-146416000D01*
X119127055Y-146405724D01*
X119129810Y-146402267D01*
X119129816Y-146402262D01*
X119225789Y-146249522D01*
X119278110Y-146099996D01*
X123594435Y-146099996D01*
X123594435Y-146100003D01*
X123614630Y-146279249D01*
X123614631Y-146279254D01*
X123674211Y-146449523D01*
X123695271Y-146483039D01*
X123770184Y-146602262D01*
X123897738Y-146729816D01*
X124050478Y-146825789D01*
X124220745Y-146885368D01*
X124220750Y-146885369D01*
X124399996Y-146905565D01*
X124400000Y-146905565D01*
X124400004Y-146905565D01*
X124579249Y-146885369D01*
X124579252Y-146885368D01*
X124579255Y-146885368D01*
X124749522Y-146825789D01*
X124902262Y-146729816D01*
X125029816Y-146602262D01*
X125125789Y-146449522D01*
X125185368Y-146279255D01*
X125205565Y-146100000D01*
X125192649Y-145985368D01*
X125185369Y-145920750D01*
X125185368Y-145920745D01*
X125163091Y-145857082D01*
X125125789Y-145750478D01*
X125107106Y-145720745D01*
X125029815Y-145597737D01*
X124902262Y-145470184D01*
X124749523Y-145374211D01*
X124579254Y-145314631D01*
X124579249Y-145314630D01*
X124400004Y-145294435D01*
X124399996Y-145294435D01*
X124220750Y-145314630D01*
X124220745Y-145314631D01*
X124050476Y-145374211D01*
X123897737Y-145470184D01*
X123770184Y-145597737D01*
X123674211Y-145750476D01*
X123614631Y-145920745D01*
X123614630Y-145920750D01*
X123594435Y-146099996D01*
X119278110Y-146099996D01*
X119285368Y-146079255D01*
X119293671Y-146005565D01*
X119305565Y-145900003D01*
X119305565Y-145899996D01*
X119285369Y-145720750D01*
X119285368Y-145720745D01*
X119225789Y-145550478D01*
X119225188Y-145549522D01*
X119129813Y-145397734D01*
X119127050Y-145394269D01*
X119100644Y-145329582D01*
X119100000Y-145316960D01*
X119100000Y-144124000D01*
X119119685Y-144056961D01*
X119172489Y-144011206D01*
X119224000Y-144000000D01*
X126576000Y-144000000D01*
X126643039Y-144019685D01*
G37*
%TD.AperFunction*%
%TD*%
%TA.AperFunction,Conductor*%
%TO.N,+5V*%
G36*
X95743039Y-140619685D02*
G01*
X95788794Y-140672489D01*
X95800000Y-140724000D01*
X95800000Y-156776644D01*
X95780315Y-156843683D01*
X95727511Y-156889438D01*
X95676646Y-156900642D01*
X76725408Y-156999346D01*
X76658267Y-156980011D01*
X76612237Y-156927446D01*
X76600764Y-156874595D01*
X76638719Y-150649996D01*
X81444435Y-150649996D01*
X81444435Y-150650003D01*
X81464630Y-150829249D01*
X81464631Y-150829254D01*
X81524211Y-150999523D01*
X81620184Y-151152262D01*
X81747738Y-151279816D01*
X81900478Y-151375789D01*
X82070745Y-151435368D01*
X82070750Y-151435369D01*
X82249996Y-151455565D01*
X82250000Y-151455565D01*
X82250004Y-151455565D01*
X82429249Y-151435369D01*
X82429252Y-151435368D01*
X82429255Y-151435368D01*
X82599522Y-151375789D01*
X82752262Y-151279816D01*
X82879816Y-151152262D01*
X82975789Y-150999522D01*
X83035368Y-150829255D01*
X83055565Y-150650000D01*
X83035368Y-150470745D01*
X82975789Y-150300478D01*
X82879816Y-150147738D01*
X82752262Y-150020184D01*
X82599523Y-149924211D01*
X82429254Y-149864631D01*
X82429249Y-149864630D01*
X82250004Y-149844435D01*
X82249996Y-149844435D01*
X82070750Y-149864630D01*
X82070745Y-149864631D01*
X81900476Y-149924211D01*
X81747737Y-150020184D01*
X81620184Y-150147737D01*
X81524211Y-150300476D01*
X81464631Y-150470745D01*
X81464630Y-150470750D01*
X81444435Y-150649996D01*
X76638719Y-150649996D01*
X76649390Y-148899994D01*
X91994859Y-148899994D01*
X91994859Y-148900005D01*
X92015385Y-149147729D01*
X92015387Y-149147738D01*
X92076412Y-149388717D01*
X92176266Y-149616364D01*
X92276564Y-149769882D01*
X93017037Y-149029409D01*
X93034075Y-149092993D01*
X93099901Y-149207007D01*
X93192993Y-149300099D01*
X93307007Y-149365925D01*
X93370590Y-149382962D01*
X92629942Y-150123609D01*
X92676768Y-150160055D01*
X92676770Y-150160056D01*
X92895385Y-150278364D01*
X92895396Y-150278369D01*
X93130506Y-150359083D01*
X93375707Y-150400000D01*
X93624293Y-150400000D01*
X93869493Y-150359083D01*
X94104603Y-150278369D01*
X94104614Y-150278364D01*
X94323228Y-150160057D01*
X94323231Y-150160055D01*
X94370056Y-150123609D01*
X93629409Y-149382962D01*
X93692993Y-149365925D01*
X93807007Y-149300099D01*
X93900099Y-149207007D01*
X93965925Y-149092993D01*
X93982962Y-149029409D01*
X94723434Y-149769882D01*
X94823731Y-149616369D01*
X94923587Y-149388717D01*
X94984612Y-149147738D01*
X94984614Y-149147729D01*
X95005141Y-148900005D01*
X95005141Y-148899994D01*
X94984614Y-148652270D01*
X94984612Y-148652261D01*
X94923587Y-148411282D01*
X94823731Y-148183630D01*
X94723434Y-148030116D01*
X93982962Y-148770589D01*
X93965925Y-148707007D01*
X93900099Y-148592993D01*
X93807007Y-148499901D01*
X93692993Y-148434075D01*
X93629410Y-148417037D01*
X94370057Y-147676390D01*
X94370056Y-147676389D01*
X94323229Y-147639943D01*
X94104614Y-147521635D01*
X94104603Y-147521630D01*
X93869493Y-147440916D01*
X93624293Y-147400000D01*
X93375707Y-147400000D01*
X93130506Y-147440916D01*
X92895396Y-147521630D01*
X92895390Y-147521632D01*
X92676761Y-147639949D01*
X92629942Y-147676388D01*
X92629942Y-147676390D01*
X93370590Y-148417037D01*
X93307007Y-148434075D01*
X93192993Y-148499901D01*
X93099901Y-148592993D01*
X93034075Y-148707007D01*
X93017037Y-148770589D01*
X92276564Y-148030116D01*
X92176267Y-148183632D01*
X92076412Y-148411282D01*
X92015387Y-148652261D01*
X92015385Y-148652270D01*
X91994859Y-148899994D01*
X76649390Y-148899994D01*
X76668469Y-145771020D01*
X76670847Y-145747613D01*
X76700500Y-145598541D01*
X76700500Y-145249996D01*
X81444435Y-145249996D01*
X81444435Y-145250003D01*
X81464630Y-145429249D01*
X81464631Y-145429254D01*
X81524211Y-145599523D01*
X81617253Y-145747597D01*
X81620184Y-145752262D01*
X81747738Y-145879816D01*
X81900478Y-145975789D01*
X82070745Y-146035368D01*
X82070750Y-146035369D01*
X82249996Y-146055565D01*
X82250000Y-146055565D01*
X82250004Y-146055565D01*
X82429249Y-146035369D01*
X82429252Y-146035368D01*
X82429255Y-146035368D01*
X82599522Y-145975789D01*
X82752262Y-145879816D01*
X82879816Y-145752262D01*
X82975789Y-145599522D01*
X83035368Y-145429255D01*
X83055565Y-145250000D01*
X83037039Y-145085579D01*
X83035369Y-145070750D01*
X83035368Y-145070745D01*
X82975788Y-144900476D01*
X82879815Y-144747737D01*
X82752262Y-144620184D01*
X82599523Y-144524211D01*
X82429254Y-144464631D01*
X82429249Y-144464630D01*
X82250004Y-144444435D01*
X82249996Y-144444435D01*
X82070750Y-144464630D01*
X82070745Y-144464631D01*
X81900476Y-144524211D01*
X81747737Y-144620184D01*
X81620184Y-144747737D01*
X81524211Y-144900476D01*
X81464631Y-145070745D01*
X81464630Y-145070750D01*
X81444435Y-145249996D01*
X76700500Y-145249996D01*
X76700500Y-140724000D01*
X76720185Y-140656961D01*
X76772989Y-140611206D01*
X76824500Y-140600000D01*
X95676000Y-140600000D01*
X95743039Y-140619685D01*
G37*
%TD.AperFunction*%
%TD*%
%TA.AperFunction,Conductor*%
%TO.N,Net-(D1-A)*%
G36*
X55644500Y-90500000D02*
G01*
X55532340Y-91093525D01*
X54993525Y-91632340D01*
X54789336Y-90670103D01*
X55199293Y-90499293D01*
X55644500Y-90500000D01*
G37*
%TD.AperFunction*%
%TD*%
M02*
