%TF.GenerationSoftware,KiCad,Pcbnew,8.0.4*%
%TF.CreationDate,2025-02-20T16:09:48-05:00*%
%TF.ProjectId,Radiation2,52616469-6174-4696-9f6e-322e6b696361,rev?*%
%TF.SameCoordinates,Original*%
%TF.FileFunction,Copper,L4,Bot*%
%TF.FilePolarity,Positive*%
%FSLAX46Y46*%
G04 Gerber Fmt 4.6, Leading zero omitted, Abs format (unit mm)*
G04 Created by KiCad (PCBNEW 8.0.4) date 2025-02-20 16:09:48*
%MOMM*%
%LPD*%
G01*
G04 APERTURE LIST*
G04 Aperture macros list*
%AMRoundRect*
0 Rectangle with rounded corners*
0 $1 Rounding radius*
0 $2 $3 $4 $5 $6 $7 $8 $9 X,Y pos of 4 corners*
0 Add a 4 corners polygon primitive as box body*
4,1,4,$2,$3,$4,$5,$6,$7,$8,$9,$2,$3,0*
0 Add four circle primitives for the rounded corners*
1,1,$1+$1,$2,$3*
1,1,$1+$1,$4,$5*
1,1,$1+$1,$6,$7*
1,1,$1+$1,$8,$9*
0 Add four rect primitives between the rounded corners*
20,1,$1+$1,$2,$3,$4,$5,0*
20,1,$1+$1,$4,$5,$6,$7,0*
20,1,$1+$1,$6,$7,$8,$9,0*
20,1,$1+$1,$8,$9,$2,$3,0*%
G04 Aperture macros list end*
%TA.AperFunction,ComponentPad*%
%ADD10RoundRect,0.635000X-0.635000X-0.635000X0.635000X-0.635000X0.635000X0.635000X-0.635000X0.635000X0*%
%TD*%
%TA.AperFunction,ComponentPad*%
%ADD11RoundRect,0.635000X0.635000X0.635000X-0.635000X0.635000X-0.635000X-0.635000X0.635000X-0.635000X0*%
%TD*%
%TA.AperFunction,ComponentPad*%
%ADD12C,2.000000*%
%TD*%
%TA.AperFunction,ComponentPad*%
%ADD13O,1.498600X2.006600*%
%TD*%
%TA.AperFunction,ComponentPad*%
%ADD14O,1.000000X2.100000*%
%TD*%
%TA.AperFunction,ComponentPad*%
%ADD15RoundRect,0.250000X-0.250000X-0.650000X0.250000X-0.650000X0.250000X0.650000X-0.250000X0.650000X0*%
%TD*%
%TA.AperFunction,ComponentPad*%
%ADD16R,1.700000X1.700000*%
%TD*%
%TA.AperFunction,ComponentPad*%
%ADD17O,1.700000X1.700000*%
%TD*%
%TA.AperFunction,SMDPad,CuDef*%
%ADD18R,1.397000X1.803400*%
%TD*%
%TA.AperFunction,SMDPad,CuDef*%
%ADD19R,1.905000X1.397000*%
%TD*%
%TA.AperFunction,SMDPad,CuDef*%
%ADD20R,2.006600X0.812800*%
%TD*%
%TA.AperFunction,ViaPad*%
%ADD21C,1.000000*%
%TD*%
%TA.AperFunction,ViaPad*%
%ADD22C,0.600000*%
%TD*%
%TA.AperFunction,ViaPad*%
%ADD23C,0.800000*%
%TD*%
%TA.AperFunction,ViaPad*%
%ADD24C,0.889000*%
%TD*%
%TA.AperFunction,ViaPad*%
%ADD25C,1.500000*%
%TD*%
%TA.AperFunction,ViaPad*%
%ADD26C,0.762000*%
%TD*%
%TA.AperFunction,Conductor*%
%ADD27C,2.000000*%
%TD*%
%TA.AperFunction,Conductor*%
%ADD28C,0.254000*%
%TD*%
%TA.AperFunction,Conductor*%
%ADD29C,0.500000*%
%TD*%
%TA.AperFunction,Conductor*%
%ADD30C,0.400000*%
%TD*%
%TA.AperFunction,Conductor*%
%ADD31C,0.300000*%
%TD*%
%TA.AperFunction,Conductor*%
%ADD32C,1.016000*%
%TD*%
%TA.AperFunction,Conductor*%
%ADD33C,0.200000*%
%TD*%
%TA.AperFunction,Conductor*%
%ADD34C,0.700000*%
%TD*%
G04 APERTURE END LIST*
D10*
%TO.P,F1,1,1*%
%TO.N,/Power2/ANODE*%
X40700000Y-184477500D03*
X40700000Y-176857500D03*
D11*
%TO.P,F1,2,2*%
%TO.N,/Power2/CATHODE*%
X40695000Y-82582500D03*
X40695000Y-74962500D03*
%TD*%
D12*
%TO.P,VBUS1,1,1*%
%TO.N,VBUS*%
X76100000Y-90100000D03*
%TD*%
%TO.P,OUTL1,1,1*%
%TO.N,/Audio2/OUTL*%
X136400000Y-179100000D03*
%TD*%
%TO.P,GND1,1,1*%
%TO.N,GND*%
X112700000Y-166900000D03*
%TD*%
%TO.P,5V1,1,1*%
%TO.N,+5V*%
X93500000Y-148900000D03*
%TD*%
%TO.P,LRCK1,1,1*%
%TO.N,/I2S_LRCK*%
X134700000Y-147800000D03*
%TD*%
%TO.P,DRAIN1,1,1*%
%TO.N,Net-(JP1-A)*%
X60700000Y-66900000D03*
%TD*%
D13*
%TO.P,J3,1,1*%
%TO.N,AGND*%
X129300124Y-178500000D03*
%TO.P,J3,2,2*%
%TO.N,/Audio2/OUTL*%
X125049942Y-173199998D03*
%TO.P,J3,3,3*%
%TO.N,/Audio2/OUTR*%
X130549941Y-173199998D03*
%TD*%
D12*
%TO.P,OUTR1,1,1*%
%TO.N,/Audio2/OUTR*%
X136400000Y-174300000D03*
%TD*%
%TO.P,HIV-1,1,1*%
%TO.N,/Power2/CATHODE*%
X66900000Y-81900000D03*
%TD*%
%TO.P,DOUT1,1,1*%
%TO.N,/I2S_DOUT*%
X135500000Y-151900000D03*
%TD*%
D14*
%TO.P,J2,SH1,SHELL_GND*%
%TO.N,/MCU2/SHELL_GND*%
X79102500Y-179820000D03*
%TO.P,J2,SH2,SHELL_GND*%
X87742500Y-179820000D03*
D15*
%TO.P,J2,SH3,SHELL_GND*%
X79102500Y-184000000D03*
%TO.P,J2,SH4,SHELL_GND*%
X87742500Y-184000000D03*
%TD*%
D12*
%TO.P,BCK1,1,1*%
%TO.N,/I2S_BCK*%
X136000000Y-155900000D03*
%TD*%
%TO.P,STG1,1,1*%
%TO.N,Net-(D1-A)*%
X70200000Y-83300000D03*
%TD*%
D14*
%TO.P,J1,SH1,SHELL_GND*%
%TO.N,/MCU2/SHELL_GND*%
X106280000Y-179820000D03*
%TO.P,J1,SH2,SHELL_GND*%
X114920000Y-179820000D03*
D15*
%TO.P,J1,SH3,SHELL_GND*%
X106280000Y-184000000D03*
%TO.P,J1,SH4,SHELL_GND*%
X114920000Y-184000000D03*
%TD*%
D12*
%TO.P,PWM1,1,1*%
%TO.N,Net-(Q1-G)*%
X109400000Y-84200000D03*
%TD*%
%TO.P,GND2,1,1*%
%TO.N,GND*%
X128400000Y-120200000D03*
%TD*%
D16*
%TO.P,J5,1,Pin_1*%
%TO.N,/CS*%
X113500000Y-103560000D03*
D17*
%TO.P,J5,2,Pin_2*%
%TO.N,/MOSI*%
X113500000Y-106100000D03*
%TO.P,J5,3,Pin_3*%
%TO.N,/MISO*%
X113500000Y-108640000D03*
%TO.P,J5,4,Pin_4*%
%TO.N,/SCK*%
X113500000Y-111180000D03*
%TO.P,J5,5,Pin_5*%
%TO.N,+3.3V*%
X113500000Y-113720000D03*
%TO.P,J5,6,Pin_6*%
%TO.N,GND*%
X113500000Y-116260000D03*
%TD*%
D12*
%TO.P,HIV+1,1,1*%
%TO.N,Net-(D1-K)*%
X62600000Y-82900000D03*
%TD*%
%TO.P,LS1,N*%
%TO.N,Net-(Q4-C)*%
X64800000Y-178200000D03*
%TO.P,LS1,P*%
%TO.N,+3.3V*%
X57200000Y-178200000D03*
%TD*%
D18*
%TO.P,J4,9,CARD_DETECT*%
%TO.N,unconnected-(J4-CARD_DETECT-Pad9)*%
X122878399Y-104509999D03*
%TO.P,J4,10,CARD_DETECT*%
%TO.N,unconnected-(J4-CARD_DETECT-Pad10)*%
X122878399Y-110210000D03*
D19*
%TO.P,J4,11,GROUND*%
%TO.N,GND*%
X136028401Y-102909999D03*
%TO.P,J4,12,GROUND*%
X137028401Y-116060001D03*
D20*
%TO.P,J4,P1,DAT2*%
%TO.N,unconnected-(J4-DAT2-PadP1)*%
X133428401Y-111400000D03*
%TO.P,J4,P2,DAT3/CS*%
%TO.N,/CS*%
X133028402Y-110299926D03*
%TO.P,J4,P3,CMD/MOSI*%
%TO.N,/MOSI*%
X133428401Y-109200000D03*
%TO.P,J4,P4,VDD*%
%TO.N,+3.3V*%
X133628401Y-108099999D03*
%TO.P,J4,P5,SCLK*%
%TO.N,/SCK*%
X133428401Y-106999999D03*
%TO.P,J4,P6,VSS*%
%TO.N,GND*%
X133628401Y-105899999D03*
%TO.P,J4,P7,DAT0/MISO*%
%TO.N,/MISO*%
X133428401Y-104799998D03*
%TO.P,J4,P8,DAT1*%
%TO.N,unconnected-(J4-DAT1-PadP8)*%
X133428401Y-103699998D03*
%TD*%
D21*
%TO.N,+3.3V*%
X80200000Y-135400000D03*
X85800000Y-135500000D03*
%TO.N,VBUS*%
X66900000Y-72200000D03*
D22*
%TO.N,+3.3V*%
X98200000Y-172600000D03*
%TO.N,GND*%
X51500000Y-74500000D03*
X131900000Y-94300000D03*
%TO.N,Net-(Q1-G)*%
X58200000Y-72300000D03*
D23*
%TO.N,VBUS*%
X73900000Y-183900000D03*
D22*
%TO.N,/RAD_IN*%
X104600000Y-99600000D03*
X111600000Y-99800000D03*
X92100000Y-103500000D03*
X111700000Y-88400000D03*
X111200000Y-82700000D03*
%TO.N,/GPIO16*%
X78100000Y-73000000D03*
%TO.N,GND*%
X66000000Y-78400000D03*
D21*
%TO.N,+3.3V*%
X81300000Y-113200000D03*
X93500000Y-109000000D03*
D22*
%TO.N,Net-(C30-Pad2)*%
X77600000Y-100600000D03*
X59300000Y-104500000D03*
D21*
%TO.N,VBUS*%
X57100000Y-147200000D03*
D22*
%TO.N,GND*%
X106800000Y-126000000D03*
%TO.N,+3.3V*%
X109500000Y-126500000D03*
%TO.N,GND*%
X79750000Y-103650000D03*
D21*
X81100000Y-119500000D03*
X89400000Y-106300000D03*
X84000000Y-112900000D03*
%TO.N,VBUS*%
X70500000Y-99200000D03*
D22*
%TO.N,GND*%
X125600000Y-68800000D03*
D21*
X130800000Y-79500000D03*
D22*
X79100000Y-177900000D03*
X82250000Y-145250000D03*
D23*
X90000000Y-182500000D03*
D22*
X89600000Y-171000000D03*
X80600000Y-63700000D03*
D23*
X94900000Y-180700000D03*
D22*
X113900000Y-178100000D03*
X96400000Y-62800000D03*
X74600000Y-172500000D03*
X136028401Y-101500000D03*
X86622500Y-178000000D03*
%TO.N,Net-(Q1-G)*%
X53200000Y-77800000D03*
%TO.N,GND*%
X58800000Y-167300000D03*
X132800000Y-74100000D03*
X83922500Y-174300000D03*
D21*
X94698100Y-138800000D03*
D22*
X120400000Y-100000000D03*
X118200000Y-66600000D03*
X110300000Y-171400000D03*
X131928401Y-105900000D03*
X73922500Y-177500000D03*
X118800000Y-74700000D03*
X94850000Y-89000000D03*
D23*
X102400000Y-181000000D03*
D22*
X82250000Y-150650000D03*
X67100000Y-65200000D03*
X132400000Y-68700000D03*
X86400000Y-71970000D03*
X83300000Y-166400000D03*
X113500000Y-134500000D03*
X125900000Y-74300000D03*
%TO.N,+5V*%
X80800000Y-151300000D03*
X120000000Y-85800000D03*
X88900000Y-152700000D03*
%TO.N,/MCU2/SHELL_GND*%
X94900000Y-183200000D03*
%TO.N,/Audio2/OUTL*%
X121700000Y-161100000D03*
X123400000Y-142725000D03*
D24*
%TO.N,Net-(D1-A)*%
X55200000Y-90500000D03*
D21*
X67400000Y-133400000D03*
D22*
%TO.N,/MCU2/RX_LED*%
X113800000Y-138200000D03*
X97600000Y-159400000D03*
%TO.N,Net-(Q1-G)*%
X66500000Y-62900000D03*
X101300000Y-84300000D03*
X91800000Y-63400000D03*
X92200000Y-65600000D03*
%TO.N,/MOSI*%
X120300000Y-107900000D03*
X101700000Y-106100000D03*
%TO.N,/I2S_LRCK*%
X103200000Y-81400000D03*
X135000000Y-97600000D03*
%TO.N,/I2S_DOUT*%
X135500000Y-96800000D03*
X104200000Y-81100000D03*
%TO.N,/I2S_BCK*%
X102100000Y-81300000D03*
X137600000Y-98600000D03*
%TO.N,/MUTE*%
X118700000Y-131800000D03*
X124400000Y-146100000D03*
%TO.N,/MCU2/TX_LED*%
X113700000Y-139800000D03*
X96100000Y-161500000D03*
%TO.N,/MISO*%
X108000000Y-108600000D03*
%TO.N,/CS*%
X118900000Y-104800000D03*
X121900000Y-108600000D03*
X99000000Y-105500000D03*
X99000000Y-120100000D03*
%TO.N,Net-(Q3-G)*%
X73300000Y-159400000D03*
X70400000Y-160200000D03*
%TO.N,/EN*%
X114700000Y-82100000D03*
X81500000Y-77900000D03*
X96800000Y-81500000D03*
X74900000Y-164300000D03*
X112900000Y-84100000D03*
%TO.N,/GPIO16*%
X97900000Y-64900000D03*
%TO.N,/RAD_IN2*%
X78200000Y-71700000D03*
X96900000Y-64000000D03*
%TO.N,/BEEP*%
X75350000Y-101450000D03*
X80700000Y-78500000D03*
X74000000Y-117300000D03*
X74000000Y-134000000D03*
X70900000Y-137100000D03*
%TO.N,/SCK*%
X109200000Y-111180000D03*
%TO.N,Net-(J1-CC2)*%
X104700000Y-181700000D03*
X107600000Y-181900000D03*
%TO.N,Net-(J2-CC2)*%
X85222500Y-178200000D03*
X79522500Y-174600000D03*
%TO.N,Net-(U4-IO35)*%
X97100000Y-79700000D03*
X110850000Y-112150000D03*
X92500000Y-78100000D03*
%TO.N,Net-(U4-IO36)*%
X92600000Y-76800000D03*
X96800000Y-77200000D03*
D21*
%TO.N,+3.3V*%
X109800000Y-163600000D03*
D22*
X123300000Y-144600000D03*
D21*
X123200000Y-154700000D03*
X89100000Y-82800000D03*
X71800000Y-78500000D03*
D23*
X135828401Y-108100000D03*
D21*
X118900000Y-95500000D03*
X78000000Y-64200000D03*
D22*
X124000000Y-149300000D03*
X121200000Y-149100000D03*
X112300000Y-81300000D03*
%TO.N,/USB_D+*%
X95800000Y-106900000D03*
X114600000Y-173200000D03*
X114600000Y-176300000D03*
X95800000Y-104800000D03*
%TO.N,/GPIO0*%
X93300000Y-82000000D03*
X113900000Y-87000000D03*
X74400000Y-165700000D03*
X99300000Y-87300000D03*
X116800000Y-83600000D03*
X103400000Y-86800000D03*
%TO.N,VBUS*%
X84800000Y-181500000D03*
D21*
X115800000Y-78000000D03*
X119075000Y-80525000D03*
D22*
X108200000Y-178000000D03*
X113000000Y-178000000D03*
D21*
X83298100Y-126200000D03*
D22*
X90400000Y-173600000D03*
%TO.N,/GPIO46*%
X97100000Y-95200000D03*
X103900000Y-92000000D03*
X112400000Y-83200000D03*
X94600000Y-102200000D03*
X114200000Y-81300000D03*
X104500000Y-86400000D03*
%TO.N,Net-(U5-3V3OUT)*%
X82001765Y-174520735D03*
X84200000Y-169600000D03*
%TO.N,AGND*%
X117700000Y-151300000D03*
X128100000Y-152300000D03*
X131362500Y-141325000D03*
X128000000Y-154500000D03*
X117900000Y-135500000D03*
X128100000Y-147200000D03*
X118500000Y-145900000D03*
X118600000Y-150700000D03*
X128062500Y-139225000D03*
X127200000Y-145200000D03*
%TO.N,/MCU2/TX*%
X96500000Y-66400000D03*
X96800000Y-120500000D03*
%TO.N,/MCU2/RX*%
X98600000Y-67800000D03*
X98300000Y-121000000D03*
D25*
%TO.N,Net-(C1-Pad1)*%
X56200000Y-64200000D03*
D26*
X61900000Y-99800000D03*
D25*
X52000000Y-82800000D03*
D22*
%TO.N,/BLINK*%
X122200000Y-96200000D03*
X101200000Y-67500000D03*
%TO.N,/BAT_SENSE*%
X87100000Y-93700000D03*
X119400000Y-83900000D03*
X96300000Y-92900000D03*
%TD*%
D27*
%TO.N,/Power2/CATHODE*%
X40695000Y-82582500D02*
X48417500Y-82582500D01*
X65200000Y-80200000D02*
X66900000Y-81900000D01*
X48417500Y-82582500D02*
X51100000Y-79900000D01*
X51100000Y-79900000D02*
X65200000Y-79900000D01*
X65200000Y-79900000D02*
X65200000Y-80200000D01*
D28*
%TO.N,Net-(Q1-G)*%
X58200000Y-72300000D02*
X58200000Y-72800000D01*
X58200000Y-72800000D02*
X53200000Y-77800000D01*
%TO.N,/RAD_IN*%
X104600000Y-99600000D02*
X111400000Y-99600000D01*
X111400000Y-99600000D02*
X111600000Y-99800000D01*
X111200000Y-87900000D02*
X111200000Y-82700000D01*
X111700000Y-88400000D02*
X111200000Y-87900000D01*
%TO.N,/GPIO0*%
X113900000Y-87000000D02*
X113900000Y-84400000D01*
X113900000Y-84400000D02*
X114700000Y-83600000D01*
X114700000Y-83600000D02*
X116800000Y-83600000D01*
X103400000Y-86800000D02*
X99800000Y-86800000D01*
X99800000Y-86800000D02*
X99300000Y-87300000D01*
%TO.N,/GPIO16*%
X97900000Y-64900000D02*
X81300000Y-64900000D01*
X81300000Y-64900000D02*
X79300000Y-66900000D01*
X79300000Y-66900000D02*
X79300000Y-71800000D01*
X79300000Y-71800000D02*
X78100000Y-73000000D01*
%TO.N,/RAD_IN2*%
X78200000Y-71700000D02*
X78600000Y-71300000D01*
X78600000Y-71300000D02*
X78600000Y-66800000D01*
X78600000Y-66800000D02*
X81300000Y-64100000D01*
X96800000Y-64100000D02*
X96900000Y-64000000D01*
X81300000Y-64100000D02*
X96800000Y-64100000D01*
%TO.N,Net-(C30-Pad2)*%
X73700000Y-104500000D02*
X77600000Y-100600000D01*
X59300000Y-104500000D02*
X73700000Y-104500000D01*
D29*
%TO.N,GND*%
X137028401Y-116060001D02*
X136168400Y-115200000D01*
X136168400Y-115200000D02*
X131500000Y-115200000D01*
X131500000Y-115200000D02*
X128200000Y-118500000D01*
X128200000Y-118500000D02*
X128200000Y-120600000D01*
D30*
%TO.N,/BEEP*%
X77500000Y-94700000D02*
X80700000Y-91500000D01*
X80700000Y-91500000D02*
X80700000Y-78500000D01*
X75350000Y-101450000D02*
X77500000Y-99300000D01*
X77500000Y-99300000D02*
X77500000Y-94700000D01*
D28*
%TO.N,/CS*%
X99000000Y-105500000D02*
X99000000Y-120100000D01*
%TO.N,/MCU2/RX*%
X98600000Y-67800000D02*
X98300000Y-68100000D01*
X98300000Y-68100000D02*
X98300000Y-121000000D01*
%TO.N,/MCU2/TX*%
X96500000Y-66400000D02*
X97800000Y-67700000D01*
X97800000Y-67700000D02*
X97800000Y-114000000D01*
X97800000Y-114000000D02*
X96800000Y-115000000D01*
X96800000Y-115000000D02*
X96800000Y-120500000D01*
%TO.N,GND*%
X137028401Y-103909999D02*
X137028401Y-116060001D01*
X132028402Y-105899999D02*
X132028401Y-105900000D01*
X133628401Y-105899999D02*
X132028402Y-105899999D01*
D31*
X136028401Y-102909999D02*
X136028401Y-101500000D01*
D28*
X132028401Y-105900000D02*
X131928401Y-105900000D01*
X136198400Y-102740000D02*
X136028401Y-102909999D01*
X136028401Y-102909999D02*
X137028401Y-103909999D01*
X131928401Y-105900000D02*
X131928401Y-106000000D01*
X131928401Y-106000000D02*
X132028401Y-105900000D01*
%TO.N,/MCU2/SHELL_GND*%
X94900000Y-183200000D02*
X95000000Y-183300000D01*
D32*
X87742500Y-184200000D02*
X95000000Y-184200000D01*
X106180000Y-184200000D02*
X106280000Y-184100000D01*
D28*
X95000000Y-183300000D02*
X95000000Y-184200000D01*
D32*
X95000000Y-184200000D02*
X106180000Y-184200000D01*
D30*
%TO.N,/Audio2/OUTL*%
X123400000Y-142725000D02*
X122200000Y-143925000D01*
X122700000Y-147100000D02*
X122700000Y-152700000D01*
X122200000Y-146600000D02*
X122700000Y-147100000D01*
X122200000Y-143925000D02*
X122200000Y-146600000D01*
X122700000Y-152700000D02*
X121700000Y-153700000D01*
X121700000Y-153700000D02*
X121700000Y-161100000D01*
D33*
%TO.N,/MCU2/RX_LED*%
X112800000Y-144200000D02*
X112800000Y-139000000D01*
X112800000Y-139000000D02*
X113600000Y-138200000D01*
X97600000Y-159400000D02*
X112800000Y-144200000D01*
X113600000Y-138200000D02*
X113800000Y-138200000D01*
D28*
%TO.N,Net-(Q1-G)*%
X100300000Y-83300000D02*
X100300000Y-66400000D01*
X91800000Y-63400000D02*
X91700000Y-63300000D01*
X91700000Y-63300000D02*
X89300000Y-63300000D01*
X100300000Y-66400000D02*
X99500000Y-65600000D01*
X89300000Y-63300000D02*
X88900000Y-62900000D01*
X101300000Y-84300000D02*
X100300000Y-83300000D01*
X99500000Y-65600000D02*
X92200000Y-65600000D01*
X88900000Y-62900000D02*
X66500000Y-62900000D01*
%TO.N,/MOSI*%
X126800000Y-107900000D02*
X128100000Y-109200000D01*
X101700000Y-106100000D02*
X113500000Y-106100000D01*
X120300000Y-107900000D02*
X126800000Y-107900000D01*
X128100000Y-109200000D02*
X133428401Y-109200000D01*
%TO.N,/I2S_LRCK*%
X103200000Y-81400000D02*
X103200000Y-82900000D01*
X118000000Y-97700000D02*
X134900000Y-97700000D01*
X134900000Y-97700000D02*
X135000000Y-97600000D01*
X103200000Y-82900000D02*
X118000000Y-97700000D01*
%TO.N,/I2S_DOUT*%
X118100000Y-97000000D02*
X134400000Y-97000000D01*
X104200000Y-83100000D02*
X118100000Y-97000000D01*
X134400000Y-97000000D02*
X134750000Y-96650000D01*
X104200000Y-81100000D02*
X104200000Y-83100000D01*
X135350000Y-96650000D02*
X135500000Y-96800000D01*
X134750000Y-96650000D02*
X135350000Y-96650000D01*
%TO.N,/I2S_BCK*%
X102300000Y-81500000D02*
X102300000Y-83200000D01*
X102100000Y-81300000D02*
X102300000Y-81500000D01*
X117700000Y-98600000D02*
X137600000Y-98600000D01*
X102300000Y-83200000D02*
X117700000Y-98600000D01*
%TO.N,/MUTE*%
X124400000Y-137500000D02*
X124400000Y-146100000D01*
X118700000Y-131800000D02*
X124400000Y-137500000D01*
%TO.N,/MCU2/TX_LED*%
X97100000Y-161500000D02*
X113700000Y-144900000D01*
X96100000Y-161500000D02*
X97100000Y-161500000D01*
X113700000Y-144900000D02*
X113700000Y-139800000D01*
%TO.N,/MISO*%
X113500000Y-108640000D02*
X108040000Y-108640000D01*
X133428401Y-104799998D02*
X126500002Y-104799998D01*
X108040000Y-108640000D02*
X108000000Y-108600000D01*
X124700000Y-106600000D02*
X117380000Y-106600000D01*
X126500002Y-104799998D02*
X124700000Y-106600000D01*
X117380000Y-106600000D02*
X115340000Y-108640000D01*
X115340000Y-108640000D02*
X113500000Y-108640000D01*
%TO.N,/CS*%
X99700000Y-105500000D02*
X101640000Y-103560000D01*
X113500000Y-103560000D02*
X117660000Y-103560000D01*
X133028402Y-110299926D02*
X127799926Y-110299926D01*
X126100000Y-108600000D02*
X121900000Y-108600000D01*
X101640000Y-103560000D02*
X113500000Y-103560000D01*
X117660000Y-103560000D02*
X118900000Y-104800000D01*
X121900000Y-108600000D02*
X121800000Y-108500000D01*
X127799926Y-110299926D02*
X126100000Y-108600000D01*
X99000000Y-105500000D02*
X99700000Y-105500000D01*
%TO.N,Net-(Q3-G)*%
X70400000Y-160200000D02*
X72500000Y-160200000D01*
X72500000Y-160200000D02*
X73300000Y-159400000D01*
%TO.N,/EN*%
X81500000Y-77900000D02*
X89900000Y-77900000D01*
X81600000Y-91700000D02*
X81600000Y-78000000D01*
X74900000Y-164300000D02*
X78300000Y-160900000D01*
X96800000Y-81500000D02*
X96900000Y-81500000D01*
X95000000Y-79600000D02*
X96800000Y-81400000D01*
X96800000Y-81400000D02*
X96800000Y-81500000D01*
X112700000Y-84100000D02*
X114700000Y-82100000D01*
X74800000Y-164400000D02*
X74900000Y-164300000D01*
X78300000Y-95000000D02*
X81600000Y-91700000D01*
X91600000Y-79600000D02*
X95000000Y-79600000D01*
X96900000Y-81500000D02*
X96800000Y-81400000D01*
X81600000Y-78000000D02*
X81500000Y-77900000D01*
X89900000Y-77900000D02*
X91600000Y-79600000D01*
X78300000Y-160900000D02*
X78300000Y-95000000D01*
D30*
%TO.N,/BEEP*%
X74000000Y-134000000D02*
X70900000Y-137100000D01*
D28*
%TO.N,/SCK*%
X117900000Y-107100000D02*
X114200000Y-110800000D01*
X113880000Y-110800000D02*
X113500000Y-111180000D01*
X114200000Y-110800000D02*
X113880000Y-110800000D01*
X109200000Y-111180000D02*
X109120000Y-111100000D01*
X125600000Y-107100000D02*
X117900000Y-107100000D01*
X133228402Y-106800000D02*
X125900000Y-106800000D01*
X113500000Y-111180000D02*
X109200000Y-111180000D01*
X133428401Y-106999999D02*
X133228402Y-106800000D01*
X125900000Y-106800000D02*
X125600000Y-107100000D01*
%TO.N,Net-(U4-IO35)*%
X110850000Y-112150000D02*
X110900000Y-112200000D01*
X92500000Y-78100000D02*
X95500000Y-78100000D01*
X95500000Y-78100000D02*
X97100000Y-79700000D01*
%TO.N,Net-(U4-IO36)*%
X93000000Y-77200000D02*
X92600000Y-76800000D01*
X96800000Y-77200000D02*
X93000000Y-77200000D01*
D34*
%TO.N,+3.3V*%
X135828400Y-108099999D02*
X135828401Y-108100000D01*
X133628401Y-108099999D02*
X135828400Y-108099999D01*
D33*
%TO.N,/USB_D+*%
X95800000Y-106900000D02*
X95800000Y-104800000D01*
D28*
%TO.N,/GPIO0*%
X78900000Y-161200000D02*
X74400000Y-165700000D01*
X91500000Y-83800000D02*
X90500000Y-83800000D01*
X93300000Y-82000000D02*
X91500000Y-83800000D01*
X78900000Y-95400000D02*
X78900000Y-161200000D01*
X90500000Y-83800000D02*
X78900000Y-95400000D01*
%TO.N,/GPIO46*%
X97100000Y-99700000D02*
X97100000Y-95200000D01*
X112400000Y-83200000D02*
X112300000Y-83200000D01*
X114200000Y-81300000D02*
X112400000Y-83100000D01*
X94600000Y-102200000D02*
X97100000Y-99700000D01*
X104600000Y-91300000D02*
X104500000Y-86400000D01*
X104500000Y-86400000D02*
X104600000Y-86300000D01*
X112400000Y-83100000D02*
X112400000Y-83200000D01*
X103900000Y-92000000D02*
X104600000Y-91300000D01*
X112300000Y-83200000D02*
X112400000Y-83100000D01*
D33*
%TO.N,Net-(U5-3V3OUT)*%
X82001765Y-171798235D02*
X82001765Y-174520735D01*
X84200000Y-169600000D02*
X82001765Y-171798235D01*
D28*
%TO.N,/BLINK*%
X105100000Y-71400000D02*
X101200000Y-67500000D01*
X115500000Y-89500000D02*
X111700000Y-89500000D01*
X122200000Y-96200000D02*
X115500000Y-89500000D01*
X105100000Y-82900000D02*
X105100000Y-71400000D01*
X111700000Y-89500000D02*
X105100000Y-82900000D01*
%TO.N,/BAT_SENSE*%
X95500000Y-93700000D02*
X96300000Y-92900000D01*
X87100000Y-93700000D02*
X95500000Y-93700000D01*
%TD*%
M02*
