%TF.GenerationSoftware,KiCad,Pcbnew,8.0.4*%
%TF.CreationDate,2025-02-20T16:09:48-05:00*%
%TF.ProjectId,Radiation2,52616469-6174-4696-9f6e-322e6b696361,rev?*%
%TF.SameCoordinates,Original*%
%TF.FileFunction,Copper,L1,Top*%
%TF.FilePolarity,Positive*%
%FSLAX46Y46*%
G04 Gerber Fmt 4.6, Leading zero omitted, Abs format (unit mm)*
G04 Created by KiCad (PCBNEW 8.0.4) date 2025-02-20 16:09:48*
%MOMM*%
%LPD*%
G01*
G04 APERTURE LIST*
G04 Aperture macros list*
%AMRoundRect*
0 Rectangle with rounded corners*
0 $1 Rounding radius*
0 $2 $3 $4 $5 $6 $7 $8 $9 X,Y pos of 4 corners*
0 Add a 4 corners polygon primitive as box body*
4,1,4,$2,$3,$4,$5,$6,$7,$8,$9,$2,$3,0*
0 Add four circle primitives for the rounded corners*
1,1,$1+$1,$2,$3*
1,1,$1+$1,$4,$5*
1,1,$1+$1,$6,$7*
1,1,$1+$1,$8,$9*
0 Add four rect primitives between the rounded corners*
20,1,$1+$1,$2,$3,$4,$5,0*
20,1,$1+$1,$4,$5,$6,$7,0*
20,1,$1+$1,$6,$7,$8,$9,0*
20,1,$1+$1,$8,$9,$2,$3,0*%
%AMFreePoly0*
4,1,19,0.500000,-0.750000,0.000000,-0.750000,0.000000,-0.744911,-0.071157,-0.744911,-0.207708,-0.704816,-0.327430,-0.627875,-0.420627,-0.520320,-0.479746,-0.390866,-0.500000,-0.250000,-0.500000,0.250000,-0.479746,0.390866,-0.420627,0.520320,-0.327430,0.627875,-0.207708,0.704816,-0.071157,0.744911,0.000000,0.744911,0.000000,0.750000,0.500000,0.750000,0.500000,-0.750000,0.500000,-0.750000,
$1*%
%AMFreePoly1*
4,1,19,0.000000,0.744911,0.071157,0.744911,0.207708,0.704816,0.327430,0.627875,0.420627,0.520320,0.479746,0.390866,0.500000,0.250000,0.500000,-0.250000,0.479746,-0.390866,0.420627,-0.520320,0.327430,-0.627875,0.207708,-0.704816,0.071157,-0.744911,0.000000,-0.744911,0.000000,-0.750000,-0.500000,-0.750000,-0.500000,0.750000,0.000000,0.750000,0.000000,0.744911,0.000000,0.744911,
$1*%
G04 Aperture macros list end*
%TA.AperFunction,SMDPad,CuDef*%
%ADD10R,1.358900X0.457200*%
%TD*%
%TA.AperFunction,SMDPad,CuDef*%
%ADD11R,1.500000X0.449999*%
%TD*%
%TA.AperFunction,SMDPad,CuDef*%
%ADD12R,3.302000X1.117600*%
%TD*%
%TA.AperFunction,SMDPad,CuDef*%
%ADD13R,6.400800X5.689600*%
%TD*%
%TA.AperFunction,ComponentPad*%
%ADD14RoundRect,0.635000X-0.635000X-0.635000X0.635000X-0.635000X0.635000X0.635000X-0.635000X0.635000X0*%
%TD*%
%TA.AperFunction,ComponentPad*%
%ADD15RoundRect,0.635000X0.635000X0.635000X-0.635000X0.635000X-0.635000X-0.635000X0.635000X-0.635000X0*%
%TD*%
%TA.AperFunction,SMDPad,CuDef*%
%ADD16RoundRect,0.250000X-0.312500X-1.075000X0.312500X-1.075000X0.312500X1.075000X-0.312500X1.075000X0*%
%TD*%
%TA.AperFunction,ComponentPad*%
%ADD17C,2.000000*%
%TD*%
%TA.AperFunction,SMDPad,CuDef*%
%ADD18RoundRect,0.250000X-0.262500X-0.450000X0.262500X-0.450000X0.262500X0.450000X-0.262500X0.450000X0*%
%TD*%
%TA.AperFunction,SMDPad,CuDef*%
%ADD19RoundRect,0.250000X0.262500X0.450000X-0.262500X0.450000X-0.262500X-0.450000X0.262500X-0.450000X0*%
%TD*%
%TA.AperFunction,SMDPad,CuDef*%
%ADD20RoundRect,0.250000X0.450000X-0.262500X0.450000X0.262500X-0.450000X0.262500X-0.450000X-0.262500X0*%
%TD*%
%TA.AperFunction,SMDPad,CuDef*%
%ADD21FreePoly0,180.000000*%
%TD*%
%TA.AperFunction,SMDPad,CuDef*%
%ADD22FreePoly1,180.000000*%
%TD*%
%TA.AperFunction,SMDPad,CuDef*%
%ADD23FreePoly0,0.000000*%
%TD*%
%TA.AperFunction,SMDPad,CuDef*%
%ADD24FreePoly1,0.000000*%
%TD*%
%TA.AperFunction,SMDPad,CuDef*%
%ADD25RoundRect,0.250000X-0.250000X-0.475000X0.250000X-0.475000X0.250000X0.475000X-0.250000X0.475000X0*%
%TD*%
%TA.AperFunction,SMDPad,CuDef*%
%ADD26RoundRect,0.250000X-0.475000X0.250000X-0.475000X-0.250000X0.475000X-0.250000X0.475000X0.250000X0*%
%TD*%
%TA.AperFunction,SMDPad,CuDef*%
%ADD27R,0.760000X1.910000*%
%TD*%
%TA.AperFunction,SMDPad,CuDef*%
%ADD28R,0.150000X1.000000*%
%TD*%
%TA.AperFunction,SMDPad,CuDef*%
%ADD29R,0.400000X1.200000*%
%TD*%
%TA.AperFunction,SMDPad,CuDef*%
%ADD30RoundRect,0.150000X-0.587500X-0.150000X0.587500X-0.150000X0.587500X0.150000X-0.587500X0.150000X0*%
%TD*%
%TA.AperFunction,SMDPad,CuDef*%
%ADD31RoundRect,0.150000X-0.150000X0.587500X-0.150000X-0.587500X0.150000X-0.587500X0.150000X0.587500X0*%
%TD*%
%TA.AperFunction,SMDPad,CuDef*%
%ADD32R,2.260000X1.510000*%
%TD*%
%TA.AperFunction,SMDPad,CuDef*%
%ADD33RoundRect,0.243750X0.243750X0.456250X-0.243750X0.456250X-0.243750X-0.456250X0.243750X-0.456250X0*%
%TD*%
%TA.AperFunction,SMDPad,CuDef*%
%ADD34FreePoly0,270.000000*%
%TD*%
%TA.AperFunction,SMDPad,CuDef*%
%ADD35FreePoly1,270.000000*%
%TD*%
%TA.AperFunction,SMDPad,CuDef*%
%ADD36RoundRect,0.250000X-0.650000X-2.450000X0.650000X-2.450000X0.650000X2.450000X-0.650000X2.450000X0*%
%TD*%
%TA.AperFunction,SMDPad,CuDef*%
%ADD37RoundRect,0.250000X-1.425000X0.362500X-1.425000X-0.362500X1.425000X-0.362500X1.425000X0.362500X0*%
%TD*%
%TA.AperFunction,SMDPad,CuDef*%
%ADD38RoundRect,0.250000X-0.450000X0.262500X-0.450000X-0.262500X0.450000X-0.262500X0.450000X0.262500X0*%
%TD*%
%TA.AperFunction,SMDPad,CuDef*%
%ADD39RoundRect,0.250000X0.375000X0.850000X-0.375000X0.850000X-0.375000X-0.850000X0.375000X-0.850000X0*%
%TD*%
%TA.AperFunction,ComponentPad*%
%ADD40O,1.498600X2.006600*%
%TD*%
%TA.AperFunction,SMDPad,CuDef*%
%ADD41RoundRect,0.250000X0.250000X0.475000X-0.250000X0.475000X-0.250000X-0.475000X0.250000X-0.475000X0*%
%TD*%
%TA.AperFunction,SMDPad,CuDef*%
%ADD42RoundRect,0.100000X-0.637500X-0.100000X0.637500X-0.100000X0.637500X0.100000X-0.637500X0.100000X0*%
%TD*%
%TA.AperFunction,SMDPad,CuDef*%
%ADD43R,0.600000X1.150000*%
%TD*%
%TA.AperFunction,SMDPad,CuDef*%
%ADD44R,0.300000X1.150000*%
%TD*%
%TA.AperFunction,ComponentPad*%
%ADD45O,1.000000X2.100000*%
%TD*%
%TA.AperFunction,ComponentPad*%
%ADD46RoundRect,0.250000X-0.250000X-0.650000X0.250000X-0.650000X0.250000X0.650000X-0.250000X0.650000X0*%
%TD*%
%TA.AperFunction,SMDPad,CuDef*%
%ADD47RoundRect,0.250000X-0.362500X-1.425000X0.362500X-1.425000X0.362500X1.425000X-0.362500X1.425000X0*%
%TD*%
%TA.AperFunction,SMDPad,CuDef*%
%ADD48R,0.650000X1.050000*%
%TD*%
%TA.AperFunction,SMDPad,CuDef*%
%ADD49RoundRect,0.150000X-0.512500X-0.150000X0.512500X-0.150000X0.512500X0.150000X-0.512500X0.150000X0*%
%TD*%
%TA.AperFunction,SMDPad,CuDef*%
%ADD50RoundRect,0.250000X0.475000X-0.250000X0.475000X0.250000X-0.475000X0.250000X-0.475000X-0.250000X0*%
%TD*%
%TA.AperFunction,SMDPad,CuDef*%
%ADD51R,1.500000X1.100000*%
%TD*%
%TA.AperFunction,ComponentPad*%
%ADD52R,1.700000X1.700000*%
%TD*%
%TA.AperFunction,ComponentPad*%
%ADD53O,1.700000X1.700000*%
%TD*%
%TA.AperFunction,SMDPad,CuDef*%
%ADD54R,1.500000X0.900000*%
%TD*%
%TA.AperFunction,SMDPad,CuDef*%
%ADD55R,0.900000X1.500000*%
%TD*%
%TA.AperFunction,SMDPad,CuDef*%
%ADD56R,0.900000X0.900000*%
%TD*%
%TA.AperFunction,SMDPad,CuDef*%
%ADD57RoundRect,0.112500X0.112500X-0.187500X0.112500X0.187500X-0.112500X0.187500X-0.112500X-0.187500X0*%
%TD*%
%TA.AperFunction,ViaPad*%
%ADD58C,1.000000*%
%TD*%
%TA.AperFunction,ViaPad*%
%ADD59C,0.600000*%
%TD*%
%TA.AperFunction,ViaPad*%
%ADD60C,0.800000*%
%TD*%
%TA.AperFunction,ViaPad*%
%ADD61C,0.889000*%
%TD*%
%TA.AperFunction,ViaPad*%
%ADD62C,1.500000*%
%TD*%
%TA.AperFunction,ViaPad*%
%ADD63C,0.762000*%
%TD*%
%TA.AperFunction,Conductor*%
%ADD64C,0.200000*%
%TD*%
%TA.AperFunction,Conductor*%
%ADD65C,0.254000*%
%TD*%
%TA.AperFunction,Conductor*%
%ADD66C,1.000000*%
%TD*%
%TA.AperFunction,Conductor*%
%ADD67C,0.500000*%
%TD*%
%TA.AperFunction,Conductor*%
%ADD68C,0.600000*%
%TD*%
%TA.AperFunction,Conductor*%
%ADD69C,2.000000*%
%TD*%
%TA.AperFunction,Conductor*%
%ADD70C,0.762000*%
%TD*%
%TA.AperFunction,Conductor*%
%ADD71C,0.400000*%
%TD*%
%TA.AperFunction,Conductor*%
%ADD72C,0.300000*%
%TD*%
%TA.AperFunction,Conductor*%
%ADD73C,0.508000*%
%TD*%
%TA.AperFunction,Conductor*%
%ADD74C,1.016000*%
%TD*%
%TA.AperFunction,Conductor*%
%ADD75C,0.800000*%
%TD*%
%TA.AperFunction,Conductor*%
%ADD76C,1.524000*%
%TD*%
G04 APERTURE END LIST*
D10*
%TO.P,D12,1,1*%
%TO.N,GND*%
X93922350Y-179600000D03*
%TO.P,D12,2,2*%
%TO.N,/MCU2/DP_P*%
X91877650Y-179600000D03*
%TD*%
%TO.P,D11,1,1*%
%TO.N,GND*%
X93922350Y-177300000D03*
%TO.P,D11,2,2*%
%TO.N,/MCU2/DP_N*%
X91877650Y-177300000D03*
%TD*%
%TO.P,D10,1,1*%
%TO.N,GND*%
X93922350Y-174900000D03*
%TO.P,D10,2,2*%
%TO.N,VBUS*%
X91877650Y-174900000D03*
%TD*%
%TO.P,D7,1,1*%
%TO.N,GND*%
X119122350Y-178600000D03*
%TO.P,D7,2,2*%
%TO.N,VBUS*%
X117077650Y-178600000D03*
%TD*%
%TO.P,D6,1,1*%
%TO.N,GND*%
X119122350Y-174000000D03*
%TO.P,D6,2,2*%
%TO.N,/USB_D-*%
X117077650Y-174000000D03*
%TD*%
%TO.P,D5,1,1*%
%TO.N,GND*%
X119122350Y-176300000D03*
%TO.P,D5,2,2*%
%TO.N,/USB_D+*%
X117077650Y-176300000D03*
%TD*%
D11*
%TO.P,U2,1,1OUT*%
%TO.N,/RAD_IN*%
X84000016Y-109825001D03*
%TO.P,U2,2,1IN-*%
%TO.N,Net-(U2A-1IN-)*%
X84000016Y-110474999D03*
%TO.P,U2,3,1IN+*%
%TO.N,Net-(U2A-1IN+)*%
X84000016Y-111125001D03*
%TO.P,U2,4,GND*%
%TO.N,GND*%
X84000016Y-111774999D03*
%TO.P,U2,5,2IN+*%
%TO.N,Net-(JP4-A)*%
X89799984Y-111774999D03*
%TO.P,U2,6,2IN-*%
%TO.N,Net-(JP5-A)*%
X89799984Y-111125001D03*
%TO.P,U2,7,2OUT*%
%TO.N,Net-(JP6-B)*%
X89799984Y-110474999D03*
%TO.P,U2,8,VCC*%
%TO.N,+3.3V*%
X89799984Y-109825001D03*
%TD*%
D12*
%TO.P,U1,1,IN*%
%TO.N,VBUS*%
X83446800Y-128614000D03*
D13*
%TO.P,U1,2,GND*%
%TO.N,GND*%
X90000000Y-130900000D03*
D12*
%TO.P,U1,3,OUT*%
%TO.N,+3.3V*%
X83446800Y-133186000D03*
%TD*%
D14*
%TO.P,F1,1,1*%
%TO.N,/Power2/ANODE*%
X40700000Y-184477500D03*
X40700000Y-176857500D03*
D15*
%TO.P,F1,2,2*%
%TO.N,/Power2/CATHODE*%
X40695000Y-82582500D03*
X40695000Y-74962500D03*
%TD*%
D16*
%TO.P,R38,2*%
%TO.N,Net-(C30-Pad2)*%
X87362500Y-104700000D03*
%TO.P,R38,1*%
%TO.N,Net-(U2A-1IN-)*%
X84437500Y-104700000D03*
%TD*%
D17*
%TO.P,VBUS1,1,1*%
%TO.N,VBUS*%
X76100000Y-90100000D03*
%TD*%
D18*
%TO.P,R41,2*%
%TO.N,Net-(U2A-1IN-)*%
X82512500Y-104800000D03*
%TO.P,R41,1*%
%TO.N,GND*%
X80687500Y-104800000D03*
%TD*%
%TO.P,R40,1*%
%TO.N,GND*%
X81187500Y-117700000D03*
%TO.P,R40,2*%
%TO.N,Net-(U2A-1IN+)*%
X83012500Y-117700000D03*
%TD*%
D19*
%TO.P,R39,1*%
%TO.N,Net-(U2A-1IN+)*%
X83025000Y-115600000D03*
%TO.P,R39,2*%
%TO.N,+3.3V*%
X81200000Y-115600000D03*
%TD*%
D20*
%TO.P,R37,1*%
%TO.N,GND*%
X63600000Y-77112500D03*
%TO.P,R37,2*%
%TO.N,Net-(JP1-A)*%
X63600000Y-75287500D03*
%TD*%
D21*
%TO.P,JP6,1,A*%
%TO.N,unconnected-(JP6-A-Pad1)*%
X105200000Y-121700000D03*
D22*
%TO.P,JP6,2,B*%
%TO.N,Net-(JP6-B)*%
X103900000Y-121700000D03*
%TD*%
D23*
%TO.P,JP5,1,A*%
%TO.N,Net-(JP5-A)*%
X103950000Y-124700000D03*
D24*
%TO.P,JP5,2,B*%
%TO.N,GND*%
X105250000Y-124700000D03*
%TD*%
D23*
%TO.P,JP4,1,A*%
%TO.N,Net-(JP4-A)*%
X103950000Y-127800000D03*
D24*
%TO.P,JP4,2,B*%
%TO.N,+3.3V*%
X105250000Y-127800000D03*
%TD*%
D25*
%TO.P,C30,1*%
%TO.N,/Power2/ANODE*%
X55650000Y-98900000D03*
%TO.P,C30,2*%
%TO.N,Net-(C30-Pad2)*%
X57550000Y-98900000D03*
%TD*%
%TO.P,C6,1*%
%TO.N,GND*%
X88850000Y-108000000D03*
%TO.P,C6,2*%
%TO.N,+3.3V*%
X90750000Y-108000000D03*
%TD*%
D26*
%TO.P,C5,1*%
%TO.N,Net-(JP1-A)*%
X66000000Y-75262500D03*
%TO.P,C5,2*%
%TO.N,GND*%
X66000000Y-77162500D03*
%TD*%
D18*
%TO.P,R4,1*%
%TO.N,/RAD_IN*%
X84087500Y-108000000D03*
%TO.P,R4,2*%
%TO.N,+3.3V*%
X85912500Y-108000000D03*
%TD*%
D19*
%TO.P,R29,1*%
%TO.N,/Audio2/OUTL*%
X122112500Y-142725000D03*
%TO.P,R29,2*%
%TO.N,Net-(U6-OUTL)*%
X120287500Y-142725000D03*
%TD*%
D17*
%TO.P,OUTL1,1,1*%
%TO.N,/Audio2/OUTL*%
X136400000Y-179100000D03*
%TD*%
D25*
%TO.P,C10,1*%
%TO.N,+3.3V*%
X92200000Y-87500000D03*
%TO.P,C10,2*%
%TO.N,GND*%
X94100000Y-87500000D03*
%TD*%
D27*
%TO.P,T1,1,1*%
%TO.N,unconnected-(T1-Pad1)*%
X55712500Y-133505000D03*
%TO.P,T1,2*%
%TO.N,Net-(R35-Pad1)*%
X57312500Y-133505000D03*
%TO.P,T1,3*%
%TO.N,unconnected-(T1-Pad3)*%
X58912500Y-133505000D03*
%TO.P,T1,4*%
%TO.N,Net-(JP1-A)*%
X60512500Y-133505000D03*
D28*
%TO.P,T1,5,5*%
%TO.N,unconnected-(T1-Pad5)*%
X62082500Y-133505000D03*
D27*
%TO.P,T1,6*%
%TO.N,Net-(D1-A)*%
X63712500Y-133505000D03*
%TO.P,T1,7*%
%TO.N,Net-(C1-Pad1)*%
X62742500Y-102575000D03*
%TO.P,T1,8,8*%
%TO.N,unconnected-(T1-Pad8)*%
X57142500Y-102575000D03*
%TO.P,T1,9,9*%
%TO.N,unconnected-(T1-Pad9)*%
X55712500Y-102535000D03*
%TD*%
D19*
%TO.P,R25,1*%
%TO.N,/I2S_BCK*%
X100812500Y-80000000D03*
%TO.P,R25,2*%
%TO.N,Net-(U4-IO35)*%
X98987500Y-80000000D03*
%TD*%
%TO.P,R32,1*%
%TO.N,/GPIO0*%
X135712500Y-70800000D03*
%TO.P,R32,2*%
%TO.N,+3.3V*%
X133887500Y-70800000D03*
%TD*%
D29*
%TO.P,U5,1,~{DTR}*%
%TO.N,Net-(Q2-S)*%
X86447500Y-167857500D03*
%TO.P,U5,2,~{RTS}*%
%TO.N,Net-(Q3-D)*%
X85812500Y-167857500D03*
%TO.P,U5,3,VCCIO*%
%TO.N,Net-(U5-3V3OUT)*%
X85177500Y-167857500D03*
%TO.P,U5,4,RXD*%
%TO.N,/MCU2/TX*%
X84542500Y-167857500D03*
%TO.P,U5,5,~{RI}*%
%TO.N,unconnected-(U5-~{RI}-Pad5)*%
X83907500Y-167857500D03*
%TO.P,U5,6,GND*%
%TO.N,GND*%
X83272500Y-167857500D03*
%TO.P,U5,7,~{DSR}*%
%TO.N,unconnected-(U5-~{DSR}-Pad7)*%
X82637500Y-167857500D03*
%TO.P,U5,8,~{DCD}*%
%TO.N,unconnected-(U5-~{DCD}-Pad8)*%
X82002500Y-167857500D03*
%TO.P,U5,9,~{CTS}*%
%TO.N,unconnected-(U5-~{CTS}-Pad9)*%
X81367500Y-167857500D03*
%TO.P,U5,10,CBUS2*%
%TO.N,/MCU2/TX_LED*%
X80732500Y-167857500D03*
%TO.P,U5,11,USBDP*%
%TO.N,/MCU2/DP_P*%
X80732500Y-173057500D03*
%TO.P,U5,12,USBDM*%
%TO.N,/MCU2/DP_N*%
X81367500Y-173057500D03*
%TO.P,U5,13,3V3OUT*%
%TO.N,Net-(U5-3V3OUT)*%
X82002500Y-173057500D03*
%TO.P,U5,14,~{RESET}*%
%TO.N,unconnected-(U5-~{RESET}-Pad14)*%
X82637500Y-173057500D03*
%TO.P,U5,15,VCC*%
%TO.N,+3.3V*%
X83272500Y-173057500D03*
%TO.P,U5,16,GND*%
%TO.N,GND*%
X83907500Y-173057500D03*
%TO.P,U5,17,CBUS1*%
%TO.N,/MCU2/RX_LED*%
X84542500Y-173057500D03*
%TO.P,U5,18,CBUS0*%
%TO.N,unconnected-(U5-CBUS0-Pad18)*%
X85177500Y-173057500D03*
%TO.P,U5,19,CBUS3*%
%TO.N,unconnected-(U5-CBUS3-Pad19)*%
X85812500Y-173057500D03*
%TO.P,U5,20,TXD*%
%TO.N,/MCU2/RX*%
X86447500Y-173057500D03*
%TD*%
D30*
%TO.P,Q1,1,G*%
%TO.N,Net-(Q1-G)*%
X56100000Y-74400000D03*
%TO.P,Q1,2,S*%
%TO.N,GND*%
X56100000Y-76300000D03*
%TO.P,Q1,3,D*%
%TO.N,Net-(JP1-A)*%
X57975000Y-75350000D03*
%TD*%
D17*
%TO.P,GND1,1,1*%
%TO.N,GND*%
X112700000Y-166900000D03*
%TD*%
D19*
%TO.P,R14,1*%
%TO.N,Net-(J1-CC2)*%
X104212500Y-183000000D03*
%TO.P,R14,2*%
%TO.N,GND*%
X102387500Y-183000000D03*
%TD*%
D31*
%TO.P,Q2,1,D*%
%TO.N,/GPIO0*%
X72050000Y-166162500D03*
%TO.P,Q2,2,G*%
%TO.N,Net-(Q2-G)*%
X70150000Y-166162500D03*
%TO.P,Q2,3,S*%
%TO.N,Net-(Q2-S)*%
X71100000Y-168037500D03*
%TD*%
D18*
%TO.P,R17,1*%
%TO.N,+3.3V*%
X122375000Y-91900000D03*
%TO.P,R17,2*%
%TO.N,Net-(D8-A)*%
X124200000Y-91900000D03*
%TD*%
D17*
%TO.P,5V1,1,1*%
%TO.N,+5V*%
X93500000Y-148900000D03*
%TD*%
D19*
%TO.P,R30,1*%
%TO.N,/Audio2/OUTR*%
X122112500Y-140525000D03*
%TO.P,R30,2*%
%TO.N,Net-(U6-OUTR)*%
X120287500Y-140525000D03*
%TD*%
%TO.P,R33,1*%
%TO.N,/EN*%
X128912500Y-70900000D03*
%TO.P,R33,2*%
%TO.N,+3.3V*%
X127087500Y-70900000D03*
%TD*%
D32*
%TO.P,D15,1,K*%
%TO.N,Net-(D1-A)*%
X43230000Y-68600000D03*
%TO.P,D15,2,A*%
%TO.N,/Power2/CATHODE*%
X46570000Y-68600000D03*
%TD*%
D25*
%TO.P,C2,1*%
%TO.N,VBUS*%
X88648100Y-126100000D03*
%TO.P,C2,2*%
%TO.N,GND*%
X90548100Y-126100000D03*
%TD*%
D19*
%TO.P,R21,1*%
%TO.N,Net-(J2-CC2)*%
X75335000Y-173900000D03*
%TO.P,R21,2*%
%TO.N,GND*%
X73510000Y-173900000D03*
%TD*%
D33*
%TO.P,D16,1,K*%
%TO.N,GND*%
X128337500Y-85000000D03*
%TO.P,D16,2,A*%
%TO.N,Net-(D16-A)*%
X126462500Y-85000000D03*
%TD*%
D19*
%TO.P,R26,1*%
%TO.N,/I2S_LRCK*%
X100712500Y-77800000D03*
%TO.P,R26,2*%
%TO.N,Net-(U4-IO36)*%
X98887500Y-77800000D03*
%TD*%
%TO.P,R18,1*%
%TO.N,Net-(J2-CC1)*%
X75335000Y-176200000D03*
%TO.P,R18,2*%
%TO.N,GND*%
X73510000Y-176200000D03*
%TD*%
D25*
%TO.P,C14,1*%
%TO.N,/Audio2/OUTR*%
X125112500Y-140525000D03*
%TO.P,C14,2*%
%TO.N,AGND*%
X127012500Y-140525000D03*
%TD*%
%TO.P,C7,1*%
%TO.N,+5V*%
X80350000Y-146790000D03*
%TO.P,C7,2*%
%TO.N,GND*%
X82250000Y-146790000D03*
%TD*%
%TO.P,C19,1*%
%TO.N,+3.3V*%
X124712500Y-154525000D03*
%TO.P,C19,2*%
%TO.N,AGND*%
X126612500Y-154525000D03*
%TD*%
D34*
%TO.P,JP2,1,A*%
%TO.N,Net-(JP1-A)*%
X66000000Y-91050000D03*
D35*
%TO.P,JP2,2,B*%
%TO.N,Net-(JP2-B)*%
X66000000Y-92350000D03*
%TD*%
D19*
%TO.P,R34,1*%
%TO.N,/GPIO46*%
X120312500Y-70971500D03*
%TO.P,R34,2*%
%TO.N,VBUS*%
X118487500Y-70971500D03*
%TD*%
D36*
%TO.P,C1,1*%
%TO.N,Net-(C1-Pad1)*%
X54050000Y-82800000D03*
%TO.P,C1,2*%
%TO.N,Net-(D1-K)*%
X59150000Y-82800000D03*
%TD*%
D19*
%TO.P,R6,1*%
%TO.N,Net-(D2-A)*%
X124300000Y-87300000D03*
%TO.P,R6,2*%
%TO.N,+3.3V*%
X122475000Y-87300000D03*
%TD*%
D17*
%TO.P,LRCK1,1,1*%
%TO.N,/I2S_LRCK*%
X134700000Y-147800000D03*
%TD*%
D25*
%TO.P,C22,1*%
%TO.N,GND*%
X127050000Y-73200000D03*
%TO.P,C22,2*%
%TO.N,/EN*%
X128950000Y-73200000D03*
%TD*%
%TO.P,C18,1*%
%TO.N,+3.3V*%
X124712500Y-152325000D03*
%TO.P,C18,2*%
%TO.N,AGND*%
X126612500Y-152325000D03*
%TD*%
D36*
%TO.P,C29,1*%
%TO.N,/Power2/CATHODE*%
X51050000Y-68600000D03*
%TO.P,C29,2*%
%TO.N,Net-(C1-Pad1)*%
X56150000Y-68600000D03*
%TD*%
D17*
%TO.P,DRAIN1,1,1*%
%TO.N,Net-(JP1-A)*%
X60700000Y-66900000D03*
%TD*%
D37*
%TO.P,R35,1*%
%TO.N,Net-(R35-Pad1)*%
X57300000Y-138337500D03*
%TO.P,R35,2*%
%TO.N,VBUS*%
X57300000Y-144262500D03*
%TD*%
D19*
%TO.P,R28,1*%
%TO.N,Net-(Q4-B)*%
X61762500Y-164737500D03*
%TO.P,R28,2*%
%TO.N,/BEEP*%
X59937500Y-164737500D03*
%TD*%
D38*
%TO.P,R11,1*%
%TO.N,/SCL*%
X69300000Y-75087500D03*
%TO.P,R11,2*%
%TO.N,+3.3V*%
X69300000Y-76912500D03*
%TD*%
D18*
%TO.P,R15,1*%
%TO.N,/MCU2/SHELL_GND*%
X107287500Y-173800000D03*
%TO.P,R15,2*%
%TO.N,GND*%
X109112500Y-173800000D03*
%TD*%
D39*
%TO.P,L1,1,1*%
%TO.N,+3.3V*%
X87500000Y-144900000D03*
%TO.P,L1,2,2*%
%TO.N,Net-(D3-A)*%
X85350000Y-144900000D03*
%TD*%
D40*
%TO.P,J3,1,1*%
%TO.N,AGND*%
X129300124Y-178500000D03*
%TO.P,J3,2,2*%
%TO.N,/Audio2/OUTL*%
X125049942Y-173199998D03*
%TO.P,J3,3,3*%
%TO.N,/Audio2/OUTR*%
X130549941Y-173199998D03*
%TD*%
D19*
%TO.P,R23,1*%
%TO.N,Net-(D13-A)*%
X124300000Y-80700000D03*
%TO.P,R23,2*%
%TO.N,VBUS*%
X122475000Y-80700000D03*
%TD*%
D25*
%TO.P,C25,1*%
%TO.N,GND*%
X89850000Y-169600000D03*
%TO.P,C25,2*%
%TO.N,Net-(U5-3V3OUT)*%
X91750000Y-169600000D03*
%TD*%
%TO.P,C9,1*%
%TO.N,+3.3V*%
X92250000Y-85300000D03*
%TO.P,C9,2*%
%TO.N,GND*%
X94150000Y-85300000D03*
%TD*%
D18*
%TO.P,R19,1*%
%TO.N,+3.3V*%
X122375000Y-89600000D03*
%TO.P,R19,2*%
%TO.N,Net-(D9-A)*%
X124200000Y-89600000D03*
%TD*%
D19*
%TO.P,R7,1*%
%TO.N,Net-(C4-Pad2)*%
X87112500Y-153800000D03*
%TO.P,R7,2*%
%TO.N,Net-(D3-A)*%
X85287500Y-153800000D03*
%TD*%
%TO.P,R27,1*%
%TO.N,/I2S_DOUT*%
X98812500Y-75500000D03*
%TO.P,R27,2*%
%TO.N,Net-(U4-IO37)*%
X96987500Y-75500000D03*
%TD*%
D41*
%TO.P,C26,1*%
%TO.N,Net-(U6-VNEG)*%
X119600000Y-152800000D03*
%TO.P,C26,2*%
%TO.N,AGND*%
X117700000Y-152800000D03*
%TD*%
D42*
%TO.P,U6,1,CPVDD*%
%TO.N,+3.3V*%
X120037500Y-144575000D03*
%TO.P,U6,2,CAPP*%
%TO.N,Net-(U6-CAPP)*%
X120037500Y-145225000D03*
%TO.P,U6,3,CPGND*%
%TO.N,AGND*%
X120037500Y-145875000D03*
%TO.P,U6,4,CAPM*%
%TO.N,Net-(U6-CAPM)*%
X120037500Y-146525000D03*
%TO.P,U6,5,VNEG*%
%TO.N,Net-(U6-VNEG)*%
X120037500Y-147175000D03*
%TO.P,U6,6,OUTL*%
%TO.N,Net-(U6-OUTL)*%
X120037500Y-147825000D03*
%TO.P,U6,7,OUTR*%
%TO.N,Net-(U6-OUTR)*%
X120037500Y-148475000D03*
%TO.P,U6,8,AVDD*%
%TO.N,+3.3V*%
X120037500Y-149125000D03*
%TO.P,U6,9,AGND*%
%TO.N,AGND*%
X120037500Y-149775000D03*
%TO.P,U6,10,DEMP*%
X120037500Y-150425000D03*
%TO.P,U6,11,FLT*%
X125762500Y-150425000D03*
%TO.P,U6,12,SCK*%
X125762500Y-149775000D03*
%TO.P,U6,13,BCK*%
%TO.N,/I2S_BCK*%
X125762500Y-149125000D03*
%TO.P,U6,14,DIN*%
%TO.N,/I2S_DOUT*%
X125762500Y-148475000D03*
%TO.P,U6,15,LRCK*%
%TO.N,/I2S_LRCK*%
X125762500Y-147825000D03*
%TO.P,U6,16,FMT*%
%TO.N,AGND*%
X125762500Y-147175000D03*
%TO.P,U6,17,XSMT*%
%TO.N,/MUTE*%
X125762500Y-146525000D03*
%TO.P,U6,18,LDOO*%
%TO.N,Net-(U6-LDOO)*%
X125762500Y-145875000D03*
%TO.P,U6,19,DGND*%
%TO.N,AGND*%
X125762500Y-145225000D03*
%TO.P,U6,20,DVDD*%
%TO.N,+3.3V*%
X125762500Y-144575000D03*
%TD*%
D33*
%TO.P,D2,1,K*%
%TO.N,GND*%
X128325000Y-87300000D03*
%TO.P,D2,2,A*%
%TO.N,Net-(D2-A)*%
X126450000Y-87300000D03*
%TD*%
D17*
%TO.P,OUTR1,1,1*%
%TO.N,/Audio2/OUTR*%
X136400000Y-174300000D03*
%TD*%
D18*
%TO.P,R22,1*%
%TO.N,+3.3V*%
X91287500Y-184600000D03*
%TO.P,R22,2*%
%TO.N,/CS*%
X93112500Y-184600000D03*
%TD*%
D38*
%TO.P,R13,1*%
%TO.N,GND*%
X68900000Y-65187500D03*
%TO.P,R13,2*%
%TO.N,Net-(U4-IO4{slash}ADC1_CH3)*%
X68900000Y-67012500D03*
%TD*%
D17*
%TO.P,HIV-1,1,1*%
%TO.N,/Power2/CATHODE*%
X66900000Y-81900000D03*
%TD*%
D26*
%TO.P,C13,1*%
%TO.N,Net-(U6-CAPP)*%
X117100000Y-144950000D03*
%TO.P,C13,2*%
%TO.N,Net-(U6-CAPM)*%
X117100000Y-146850000D03*
%TD*%
D17*
%TO.P,DOUT1,1,1*%
%TO.N,/I2S_DOUT*%
X135500000Y-151900000D03*
%TD*%
D19*
%TO.P,R12,1*%
%TO.N,Net-(J1-CC1)*%
X109112500Y-176200000D03*
%TO.P,R12,2*%
%TO.N,GND*%
X107287500Y-176200000D03*
%TD*%
D43*
%TO.P,J2,A1_B12,GND*%
%TO.N,GND*%
X80222500Y-179245000D03*
%TO.P,J2,A4_B9,VBUS*%
%TO.N,VBUS*%
X81022500Y-179245000D03*
D44*
%TO.P,J2,A5,CC1*%
%TO.N,Net-(J2-CC1)*%
X82172500Y-179245000D03*
%TO.P,J2,A6,DP+*%
%TO.N,/MCU2/DP_P*%
X83172500Y-179245000D03*
%TO.P,J2,A7,DN-*%
%TO.N,/MCU2/DP_N*%
X83672500Y-179245000D03*
%TO.P,J2,A8,SBU1*%
%TO.N,unconnected-(J2-SBU1-PadA8)*%
X84672500Y-179245000D03*
D43*
%TO.P,J2,B1_A12,GND*%
%TO.N,GND*%
X86622500Y-179245000D03*
%TO.P,J2,B4_A9,VBUS*%
%TO.N,VBUS*%
X85822500Y-179245000D03*
D44*
%TO.P,J2,B5,CC2*%
%TO.N,Net-(J2-CC2)*%
X85172500Y-179245000D03*
%TO.P,J2,B6,DP2+*%
%TO.N,/MCU2/DP_P*%
X84172500Y-179245000D03*
%TO.P,J2,B7,DN2-*%
%TO.N,/MCU2/DP_N*%
X82672500Y-179245000D03*
%TO.P,J2,B8,SBU2*%
%TO.N,unconnected-(J2-SBU2-PadB8)*%
X81672500Y-179245000D03*
D45*
%TO.P,J2,SH1,SHELL_GND*%
%TO.N,/MCU2/SHELL_GND*%
X79102500Y-179820000D03*
%TO.P,J2,SH2,SHELL_GND*%
X87742500Y-179820000D03*
D46*
%TO.P,J2,SH3,SHELL_GND*%
X79102500Y-184000000D03*
%TO.P,J2,SH4,SHELL_GND*%
X87742500Y-184000000D03*
%TD*%
D32*
%TO.P,D1,1,K*%
%TO.N,Net-(D1-K)*%
X61232500Y-90500000D03*
%TO.P,D1,2,A*%
%TO.N,Net-(D1-A)*%
X57892500Y-90500000D03*
%TD*%
D23*
%TO.P,JP3,1,A*%
%TO.N,GND*%
X115150000Y-135700000D03*
D24*
%TO.P,JP3,2,B*%
%TO.N,AGND*%
X116450000Y-135700000D03*
%TD*%
D18*
%TO.P,R5,1*%
%TO.N,Net-(Q1-G)*%
X103775000Y-84200000D03*
%TO.P,R5,2*%
%TO.N,/PWM*%
X105600000Y-84200000D03*
%TD*%
D19*
%TO.P,R20,1*%
%TO.N,Net-(Q3-G)*%
X72037500Y-156200000D03*
%TO.P,R20,2*%
%TO.N,Net-(Q2-S)*%
X70212500Y-156200000D03*
%TD*%
D47*
%TO.P,R3,1*%
%TO.N,/Power2/ANODE*%
X56437500Y-95100000D03*
%TO.P,R3,2*%
%TO.N,Net-(D1-K)*%
X62362500Y-95100000D03*
%TD*%
D48*
%TO.P,S1,1*%
%TO.N,/GPIO0*%
X135875000Y-64425000D03*
%TO.P,S1,2*%
X135875000Y-68575000D03*
%TO.P,S1,3*%
%TO.N,GND*%
X133725000Y-64425000D03*
%TO.P,S1,4*%
X133725000Y-68575000D03*
%TD*%
D19*
%TO.P,R36,1*%
%TO.N,Net-(D16-A)*%
X124325000Y-85100000D03*
%TO.P,R36,2*%
%TO.N,+5V*%
X122500000Y-85100000D03*
%TD*%
D25*
%TO.P,C15,1*%
%TO.N,/Audio2/OUTL*%
X125062500Y-142725000D03*
%TO.P,C15,2*%
%TO.N,AGND*%
X126962500Y-142725000D03*
%TD*%
%TO.P,C21,1*%
%TO.N,+3.3V*%
X117150000Y-100000000D03*
%TO.P,C21,2*%
%TO.N,GND*%
X119050000Y-100000000D03*
%TD*%
D48*
%TO.P,S3,1*%
%TO.N,/GPIO46*%
X120375000Y-64596500D03*
%TO.P,S3,2*%
X120375000Y-68746500D03*
%TO.P,S3,3*%
%TO.N,GND*%
X118225000Y-64596500D03*
%TO.P,S3,4*%
X118225000Y-68746500D03*
%TD*%
D25*
%TO.P,C17,1*%
%TO.N,Net-(U6-LDOO)*%
X129350000Y-145200000D03*
%TO.P,C17,2*%
%TO.N,AGND*%
X131250000Y-145200000D03*
%TD*%
D19*
%TO.P,R24,1*%
%TO.N,Net-(D14-A)*%
X124300000Y-82800000D03*
%TO.P,R24,2*%
%TO.N,/BAT_SENSE*%
X122475000Y-82800000D03*
%TD*%
D48*
%TO.P,S2,1*%
%TO.N,/EN*%
X129075000Y-64525000D03*
%TO.P,S2,2*%
X129075000Y-68675000D03*
%TO.P,S2,3*%
%TO.N,GND*%
X126925000Y-64525000D03*
%TO.P,S2,4*%
X126925000Y-68675000D03*
%TD*%
D49*
%TO.P,U3,1,SW*%
%TO.N,Net-(D3-A)*%
X84925000Y-147500000D03*
%TO.P,U3,2,GND*%
%TO.N,GND*%
X84925000Y-148450000D03*
%TO.P,U3,3,NC*%
%TO.N,unconnected-(U3-NC-Pad3)*%
X84925000Y-149400000D03*
%TO.P,U3,4,VOUT*%
%TO.N,+5V*%
X87200000Y-149400000D03*
%TO.P,U3,5,NC*%
%TO.N,unconnected-(U3-NC-Pad5)*%
X87200000Y-147500000D03*
%TD*%
D25*
%TO.P,C23,1*%
%TO.N,GND*%
X118450000Y-73400000D03*
%TO.P,C23,2*%
%TO.N,/GPIO46*%
X120350000Y-73400000D03*
%TD*%
D38*
%TO.P,R10,1*%
%TO.N,/SDA*%
X71800000Y-75100000D03*
%TO.P,R10,2*%
%TO.N,+3.3V*%
X71800000Y-76925000D03*
%TD*%
D17*
%TO.P,BCK1,1,1*%
%TO.N,/I2S_BCK*%
X136000000Y-155900000D03*
%TD*%
D34*
%TO.P,JP1,1,A*%
%TO.N,Net-(JP1-A)*%
X70300000Y-91100000D03*
D35*
%TO.P,JP1,2,B*%
%TO.N,Net-(JP1-B)*%
X70300000Y-92400000D03*
%TD*%
D25*
%TO.P,C8,1*%
%TO.N,+5V*%
X80350000Y-149300000D03*
%TO.P,C8,2*%
%TO.N,GND*%
X82250000Y-149300000D03*
%TD*%
D17*
%TO.P,STG1,1,1*%
%TO.N,Net-(D1-A)*%
X70200000Y-83300000D03*
%TD*%
D33*
%TO.P,D14,1,K*%
%TO.N,GND*%
X128325000Y-82800000D03*
%TO.P,D14,2,A*%
%TO.N,Net-(D14-A)*%
X126450000Y-82800000D03*
%TD*%
%TO.P,D9,1,K*%
%TO.N,/MCU2/TX_LED*%
X128325000Y-89600000D03*
%TO.P,D9,2,A*%
%TO.N,Net-(D9-A)*%
X126450000Y-89600000D03*
%TD*%
D50*
%TO.P,C28,1*%
%TO.N,Net-(Q1-G)*%
X53200000Y-76350000D03*
%TO.P,C28,2*%
%TO.N,GND*%
X53200000Y-74450000D03*
%TD*%
D25*
%TO.P,C3,1*%
%TO.N,+3.3V*%
X88948100Y-135500000D03*
%TO.P,C3,2*%
%TO.N,GND*%
X90848100Y-135500000D03*
%TD*%
D43*
%TO.P,J1,A1_B12,GND*%
%TO.N,GND*%
X107400000Y-179245000D03*
%TO.P,J1,A4_B9,VBUS*%
%TO.N,VBUS*%
X108200000Y-179245000D03*
D44*
%TO.P,J1,A5,CC1*%
%TO.N,Net-(J1-CC1)*%
X109350000Y-179245000D03*
%TO.P,J1,A6,DP+*%
%TO.N,/USB_D+*%
X110350000Y-179245000D03*
%TO.P,J1,A7,DN-*%
%TO.N,/USB_D-*%
X110850000Y-179245000D03*
%TO.P,J1,A8,SBU1*%
%TO.N,unconnected-(J1-SBU1-PadA8)*%
X111850000Y-179245000D03*
D43*
%TO.P,J1,B1_A12,GND*%
%TO.N,GND*%
X113800000Y-179245000D03*
%TO.P,J1,B4_A9,VBUS*%
%TO.N,VBUS*%
X113000000Y-179245000D03*
D44*
%TO.P,J1,B5,CC2*%
%TO.N,Net-(J1-CC2)*%
X112350000Y-179245000D03*
%TO.P,J1,B6,DP2+*%
%TO.N,/USB_D+*%
X111350000Y-179245000D03*
%TO.P,J1,B7,DN2-*%
%TO.N,/USB_D-*%
X109850000Y-179245000D03*
%TO.P,J1,B8,SBU2*%
%TO.N,unconnected-(J1-SBU2-PadB8)*%
X108850000Y-179245000D03*
D45*
%TO.P,J1,SH1,SHELL_GND*%
%TO.N,/MCU2/SHELL_GND*%
X106280000Y-179820000D03*
%TO.P,J1,SH2,SHELL_GND*%
X114920000Y-179820000D03*
D46*
%TO.P,J1,SH3,SHELL_GND*%
X106280000Y-184000000D03*
%TO.P,J1,SH4,SHELL_GND*%
X114920000Y-184000000D03*
%TD*%
D17*
%TO.P,PWM1,1,1*%
%TO.N,Net-(Q1-G)*%
X109400000Y-84200000D03*
%TD*%
%TO.P,GND2,1,1*%
%TO.N,GND*%
X128400000Y-120200000D03*
%TD*%
D31*
%TO.P,Q3,1,D*%
%TO.N,Net-(Q3-D)*%
X72050000Y-161562500D03*
%TO.P,Q3,2,G*%
%TO.N,Net-(Q3-G)*%
X70150000Y-161562500D03*
%TO.P,Q3,3,S*%
%TO.N,/EN*%
X71100000Y-163437500D03*
%TD*%
D51*
%TO.P,S4,1A*%
%TO.N,+3.3V*%
X113250000Y-77450000D03*
%TO.P,S4,1B*%
%TO.N,/GPIO38*%
X104350000Y-77450000D03*
%TO.P,S4,2A*%
%TO.N,+3.3V*%
X113250000Y-74910000D03*
%TO.P,S4,2B*%
%TO.N,/GPIO39*%
X104350000Y-74910000D03*
%TO.P,S4,3A*%
%TO.N,+3.3V*%
X113250000Y-72370000D03*
%TO.P,S4,3B*%
%TO.N,/GPIO40*%
X104350000Y-72370000D03*
%TO.P,S4,4A*%
%TO.N,+3.3V*%
X113250000Y-69830000D03*
%TO.P,S4,4B*%
%TO.N,/GPIO42*%
X104350000Y-69830000D03*
%TO.P,S4,5A*%
%TO.N,+3.3V*%
X113250000Y-67290000D03*
%TO.P,S4,5B*%
%TO.N,/GPIO16*%
X104350000Y-67290000D03*
%TO.P,S4,6A*%
%TO.N,/RAD_IN*%
X113250000Y-64750000D03*
%TO.P,S4,6B*%
%TO.N,/RAD_IN2*%
X104350000Y-64750000D03*
%TD*%
D25*
%TO.P,C16,1*%
%TO.N,Net-(U6-LDOO)*%
X129350000Y-142800000D03*
%TO.P,C16,2*%
%TO.N,AGND*%
X131250000Y-142800000D03*
%TD*%
D18*
%TO.P,R31,1*%
%TO.N,/MCU2/SHELL_GND*%
X107200000Y-171400000D03*
%TO.P,R31,2*%
%TO.N,GND*%
X109025000Y-171400000D03*
%TD*%
D38*
%TO.P,R9,1*%
%TO.N,Net-(U4-IO4{slash}ADC1_CH3)*%
X68900000Y-69187500D03*
%TO.P,R9,2*%
%TO.N,VBUS*%
X68900000Y-71012500D03*
%TD*%
D19*
%TO.P,R8,1*%
%TO.N,Net-(D4-A)*%
X124212500Y-94300000D03*
%TO.P,R8,2*%
%TO.N,/BLINK*%
X122387500Y-94300000D03*
%TD*%
D50*
%TO.P,C24,1*%
%TO.N,Net-(U4-IO4{slash}ADC1_CH3)*%
X71800000Y-67050000D03*
%TO.P,C24,2*%
%TO.N,GND*%
X71800000Y-65150000D03*
%TD*%
D33*
%TO.P,D13,1,K*%
%TO.N,GND*%
X128325000Y-80700000D03*
%TO.P,D13,2,A*%
%TO.N,Net-(D13-A)*%
X126450000Y-80700000D03*
%TD*%
%TO.P,D4,1,K*%
%TO.N,GND*%
X128437500Y-94300000D03*
%TO.P,D4,2,A*%
%TO.N,Net-(D4-A)*%
X126562500Y-94300000D03*
%TD*%
D31*
%TO.P,Q4,1,B*%
%TO.N,Net-(Q4-B)*%
X61800000Y-167400000D03*
%TO.P,Q4,2,E*%
%TO.N,GND*%
X59900000Y-167400000D03*
%TO.P,Q4,3,C*%
%TO.N,Net-(Q4-C)*%
X60850000Y-169275000D03*
%TD*%
D52*
%TO.P,J5,1,Pin_1*%
%TO.N,/CS*%
X113500000Y-103560000D03*
D53*
%TO.P,J5,2,Pin_2*%
%TO.N,/MOSI*%
X113500000Y-106100000D03*
%TO.P,J5,3,Pin_3*%
%TO.N,/MISO*%
X113500000Y-108640000D03*
%TO.P,J5,4,Pin_4*%
%TO.N,/SCK*%
X113500000Y-111180000D03*
%TO.P,J5,5,Pin_5*%
%TO.N,+3.3V*%
X113500000Y-113720000D03*
%TO.P,J5,6,Pin_6*%
%TO.N,GND*%
X113500000Y-116260000D03*
%TD*%
D38*
%TO.P,R2,1*%
%TO.N,Net-(JP2-B)*%
X66000000Y-95137500D03*
%TO.P,R2,2*%
%TO.N,+3.3V*%
X66000000Y-96962500D03*
%TD*%
D33*
%TO.P,D8,1,K*%
%TO.N,/MCU2/RX_LED*%
X128325000Y-91900000D03*
%TO.P,D8,2,A*%
%TO.N,Net-(D8-A)*%
X126450000Y-91900000D03*
%TD*%
D54*
%TO.P,U4,1,GND_1*%
%TO.N,GND*%
X76550000Y-62850000D03*
%TO.P,U4,2,3V3*%
%TO.N,+3.3V*%
X76550000Y-64120000D03*
%TO.P,U4,3,EN*%
%TO.N,/EN*%
X76550000Y-65390000D03*
%TO.P,U4,4,IO4/ADC1_CH3*%
%TO.N,Net-(U4-IO4{slash}ADC1_CH3)*%
X76550000Y-66660000D03*
%TO.P,U4,5,IO5/ADC1_CH4*%
%TO.N,unconnected-(U4-IO5{slash}ADC1_CH4-Pad5)*%
X76550000Y-67930000D03*
%TO.P,U4,6,IO6*%
%TO.N,/BEEP*%
X76550000Y-69200000D03*
%TO.P,U4,7,IO7*%
%TO.N,unconnected-(U4-IO7-Pad7)*%
X76550000Y-70470000D03*
%TO.P,U4,8,IO15*%
%TO.N,/RAD_IN2*%
X76550000Y-71740000D03*
%TO.P,U4,9,IO16*%
%TO.N,/GPIO16*%
X76550000Y-73010000D03*
%TO.P,U4,10,IO17*%
%TO.N,/SCL*%
X76550000Y-74280000D03*
%TO.P,U4,11,IO18*%
%TO.N,/SDA*%
X76550000Y-75550000D03*
%TO.P,U4,12,IO8*%
%TO.N,unconnected-(U4-IO8-Pad12)*%
X76550000Y-76820000D03*
%TO.P,U4,13,IO19*%
%TO.N,/USB_D-*%
X76550000Y-78090000D03*
%TO.P,U4,14,IO20*%
%TO.N,/USB_D+*%
X76550000Y-79360000D03*
D55*
%TO.P,U4,15,IO3*%
%TO.N,unconnected-(U4-IO3-Pad15)*%
X78315000Y-80610000D03*
%TO.P,U4,16,IO46*%
%TO.N,/GPIO46*%
X79585000Y-80610000D03*
%TO.P,U4,17,IO9*%
%TO.N,/BAT_SENSE*%
X80855000Y-80610000D03*
%TO.P,U4,18,IO10/CS*%
%TO.N,/CS*%
X82125000Y-80610000D03*
%TO.P,U4,19,IO11/MOSI*%
%TO.N,/MOSI*%
X83395000Y-80610000D03*
%TO.P,U4,20,IO12/CLK*%
%TO.N,/SCK*%
X84665000Y-80610000D03*
%TO.P,U4,21,IO13/MISO*%
%TO.N,/MISO*%
X85935000Y-80610000D03*
%TO.P,U4,22,IO14*%
%TO.N,/MUTE*%
X87205000Y-80610000D03*
%TO.P,U4,23,IO21*%
%TO.N,unconnected-(U4-IO21-Pad23)*%
X88475000Y-80610000D03*
%TO.P,U4,24,IO47*%
%TO.N,unconnected-(U4-IO47-Pad24)*%
X89745000Y-80610000D03*
%TO.P,U4,25,IO48*%
%TO.N,unconnected-(U4-IO48-Pad25)*%
X91015000Y-80610000D03*
%TO.P,U4,26,IO45*%
%TO.N,unconnected-(U4-IO45-Pad26)*%
X92285000Y-80610000D03*
D54*
%TO.P,U4,27,IO0*%
%TO.N,/GPIO0*%
X94050000Y-79360000D03*
%TO.P,U4,28,IO35*%
%TO.N,Net-(U4-IO35)*%
X94050000Y-78090000D03*
%TO.P,U4,29,IO36*%
%TO.N,Net-(U4-IO36)*%
X94050000Y-76820000D03*
%TO.P,U4,30,IO37*%
%TO.N,Net-(U4-IO37)*%
X94050000Y-75550000D03*
%TO.P,U4,31,IO38*%
%TO.N,/GPIO38*%
X94050000Y-74280000D03*
%TO.P,U4,32,IO39*%
%TO.N,/GPIO39*%
X94050000Y-73010000D03*
%TO.P,U4,33,IO40*%
%TO.N,/GPIO40*%
X94050000Y-71740000D03*
%TO.P,U4,34,IO41*%
%TO.N,/PWM*%
X94050000Y-70470000D03*
%TO.P,U4,35,IO42*%
%TO.N,/GPIO42*%
X94050000Y-69200000D03*
%TO.P,U4,36,RXD0*%
%TO.N,/MCU2/RX*%
X94050000Y-67930000D03*
%TO.P,U4,37,TXD0*%
%TO.N,/MCU2/TX*%
X94050000Y-66660000D03*
%TO.P,U4,38,IO2*%
%TO.N,/BLINK*%
X94050000Y-65390000D03*
%TO.P,U4,39,IO1*%
%TO.N,unconnected-(U4-IO1-Pad39)*%
X94050000Y-64120000D03*
%TO.P,U4,40,GND_2*%
%TO.N,GND*%
X94050000Y-62850000D03*
D56*
%TO.P,U4,41,GND_3*%
X83800000Y-70570000D03*
%TO.P,U4,42,GND_4*%
X83800000Y-69170000D03*
%TO.P,U4,43,GND_5*%
X82400000Y-69170000D03*
%TO.P,U4,44,GND_6*%
X82400000Y-70570000D03*
%TO.P,U4,45,GND_7*%
X82400000Y-71970000D03*
%TO.P,U4,46,GND_8*%
X83800000Y-71970000D03*
%TO.P,U4,47,GND_9*%
X85200000Y-71970000D03*
%TO.P,U4,48,GND_10*%
X85200000Y-70570000D03*
%TO.P,U4,49,GND_11*%
X85200000Y-69170000D03*
%TD*%
D17*
%TO.P,HIV+1,1,1*%
%TO.N,Net-(D1-K)*%
X62600000Y-82900000D03*
%TD*%
D38*
%TO.P,R1,1*%
%TO.N,Net-(JP1-B)*%
X70300000Y-95075000D03*
%TO.P,R1,2*%
%TO.N,VBUS*%
X70300000Y-96900000D03*
%TD*%
D17*
%TO.P,LS1,N*%
%TO.N,Net-(Q4-C)*%
X64800000Y-178200000D03*
%TO.P,LS1,P*%
%TO.N,+3.3V*%
X57200000Y-178200000D03*
%TD*%
D19*
%TO.P,R16,1*%
%TO.N,Net-(Q2-G)*%
X72037500Y-158600000D03*
%TO.P,R16,2*%
%TO.N,Net-(Q3-D)*%
X70212500Y-158600000D03*
%TD*%
D25*
%TO.P,C20,1*%
%TO.N,GND*%
X133850000Y-73200000D03*
%TO.P,C20,2*%
%TO.N,/GPIO0*%
X135750000Y-73200000D03*
%TD*%
%TO.P,C12,1*%
%TO.N,GND*%
X91250000Y-182500000D03*
%TO.P,C12,2*%
%TO.N,/MCU2/SHELL_GND*%
X93150000Y-182500000D03*
%TD*%
D41*
%TO.P,C4,1*%
%TO.N,+5V*%
X87150000Y-151500000D03*
%TO.P,C4,2*%
%TO.N,Net-(C4-Pad2)*%
X85250000Y-151500000D03*
%TD*%
D25*
%TO.P,C11,1*%
%TO.N,GND*%
X102362500Y-185400000D03*
%TO.P,C11,2*%
%TO.N,/MCU2/SHELL_GND*%
X104262500Y-185400000D03*
%TD*%
D57*
%TO.P,D3,1,K*%
%TO.N,+5V*%
X89700000Y-149450000D03*
%TO.P,D3,2,A*%
%TO.N,Net-(D3-A)*%
X89700000Y-147350000D03*
%TD*%
D58*
%TO.N,+3.3V*%
X80200000Y-135400000D03*
X85800000Y-135500000D03*
%TO.N,VBUS*%
X66900000Y-72200000D03*
D59*
%TO.N,+3.3V*%
X98200000Y-172600000D03*
%TO.N,GND*%
X51500000Y-74500000D03*
X131900000Y-94300000D03*
%TO.N,Net-(Q1-G)*%
X58200000Y-72300000D03*
D60*
%TO.N,VBUS*%
X73900000Y-183900000D03*
D59*
%TO.N,/RAD_IN*%
X104600000Y-99600000D03*
X111600000Y-99800000D03*
X92100000Y-103500000D03*
X111700000Y-88400000D03*
X111200000Y-82700000D03*
%TO.N,/GPIO16*%
X78100000Y-73000000D03*
%TO.N,GND*%
X66000000Y-78400000D03*
D58*
%TO.N,+3.3V*%
X81300000Y-113200000D03*
X93500000Y-109000000D03*
D59*
%TO.N,Net-(C30-Pad2)*%
X77600000Y-100600000D03*
X59300000Y-104500000D03*
D58*
%TO.N,VBUS*%
X57100000Y-147200000D03*
D59*
%TO.N,GND*%
X106800000Y-126000000D03*
%TO.N,+3.3V*%
X109500000Y-126500000D03*
%TO.N,GND*%
X79750000Y-103650000D03*
D58*
X81100000Y-119500000D03*
X89400000Y-106300000D03*
X84000000Y-112900000D03*
%TO.N,VBUS*%
X70500000Y-99200000D03*
D59*
%TO.N,GND*%
X125600000Y-68800000D03*
D58*
X130800000Y-79500000D03*
D59*
X79100000Y-177900000D03*
X82250000Y-145250000D03*
D60*
X90000000Y-182500000D03*
D59*
X89600000Y-171000000D03*
X80600000Y-63700000D03*
D60*
X94900000Y-180700000D03*
D59*
X113900000Y-178100000D03*
X96400000Y-62800000D03*
X74600000Y-172500000D03*
X136028401Y-101500000D03*
X86622500Y-178000000D03*
%TO.N,Net-(Q1-G)*%
X53200000Y-77800000D03*
%TO.N,GND*%
X58800000Y-167300000D03*
X132800000Y-74100000D03*
X83922500Y-174300000D03*
D58*
X94698100Y-138800000D03*
D59*
X120400000Y-100000000D03*
X118200000Y-66600000D03*
X110300000Y-171400000D03*
X131928401Y-105900000D03*
X73922500Y-177500000D03*
X118800000Y-74700000D03*
X94850000Y-89000000D03*
D60*
X102400000Y-181000000D03*
D59*
X82250000Y-150650000D03*
X67100000Y-65200000D03*
X132400000Y-68700000D03*
X86400000Y-71970000D03*
X83300000Y-166400000D03*
X113500000Y-134500000D03*
X125900000Y-74300000D03*
%TO.N,+5V*%
X80800000Y-151300000D03*
X120000000Y-85800000D03*
X88900000Y-152700000D03*
%TO.N,/MCU2/SHELL_GND*%
X94900000Y-183200000D03*
%TO.N,/Audio2/OUTL*%
X121700000Y-161100000D03*
X123400000Y-142725000D03*
D61*
%TO.N,Net-(D1-A)*%
X55200000Y-90500000D03*
D58*
X67400000Y-133400000D03*
D59*
%TO.N,/MCU2/RX_LED*%
X113800000Y-138200000D03*
X97600000Y-159400000D03*
%TO.N,Net-(Q1-G)*%
X66500000Y-62900000D03*
X101300000Y-84300000D03*
X91800000Y-63400000D03*
X92200000Y-65600000D03*
%TO.N,/MOSI*%
X120300000Y-107900000D03*
X101700000Y-106100000D03*
%TO.N,/I2S_LRCK*%
X103200000Y-81400000D03*
X135000000Y-97600000D03*
%TO.N,/I2S_DOUT*%
X135500000Y-96800000D03*
X104200000Y-81100000D03*
%TO.N,/I2S_BCK*%
X102100000Y-81300000D03*
X137600000Y-98600000D03*
%TO.N,/MUTE*%
X118700000Y-131800000D03*
X124400000Y-146100000D03*
%TO.N,/MCU2/TX_LED*%
X113700000Y-139800000D03*
X96100000Y-161500000D03*
%TO.N,/MISO*%
X108000000Y-108600000D03*
%TO.N,/CS*%
X118900000Y-104800000D03*
X121900000Y-108600000D03*
X99000000Y-105500000D03*
X99000000Y-120100000D03*
%TO.N,Net-(Q3-G)*%
X73300000Y-159400000D03*
X70400000Y-160200000D03*
%TO.N,/EN*%
X114700000Y-82100000D03*
X81500000Y-77900000D03*
X96800000Y-81500000D03*
X74900000Y-164300000D03*
X112900000Y-84100000D03*
%TO.N,/GPIO16*%
X97900000Y-64900000D03*
%TO.N,/RAD_IN2*%
X78200000Y-71700000D03*
X96900000Y-64000000D03*
%TO.N,/BEEP*%
X75350000Y-101450000D03*
X80700000Y-78500000D03*
X74000000Y-117300000D03*
X74000000Y-134000000D03*
X70900000Y-137100000D03*
%TO.N,/SCK*%
X109200000Y-111180000D03*
%TO.N,Net-(J1-CC2)*%
X104700000Y-181700000D03*
X107600000Y-181900000D03*
%TO.N,Net-(J2-CC2)*%
X85222500Y-178200000D03*
X79522500Y-174600000D03*
%TO.N,Net-(U4-IO35)*%
X97100000Y-79700000D03*
X110850000Y-112150000D03*
X92500000Y-78100000D03*
%TO.N,Net-(U4-IO36)*%
X92600000Y-76800000D03*
X96800000Y-77200000D03*
D58*
%TO.N,+3.3V*%
X109800000Y-163600000D03*
D59*
X123300000Y-144600000D03*
D58*
X123200000Y-154700000D03*
X89100000Y-82800000D03*
X71800000Y-78500000D03*
D60*
X135828401Y-108100000D03*
D58*
X118900000Y-95500000D03*
X78000000Y-64200000D03*
D59*
X124000000Y-149300000D03*
X121200000Y-149100000D03*
X112300000Y-81300000D03*
%TO.N,/USB_D+*%
X95800000Y-106900000D03*
X114600000Y-173200000D03*
X114600000Y-176300000D03*
X95800000Y-104800000D03*
%TO.N,/GPIO0*%
X93300000Y-82000000D03*
X113900000Y-87000000D03*
X74400000Y-165700000D03*
X99300000Y-87300000D03*
X116800000Y-83600000D03*
X103400000Y-86800000D03*
%TO.N,VBUS*%
X84800000Y-181500000D03*
D58*
X115800000Y-78000000D03*
X119075000Y-80525000D03*
D59*
X108200000Y-178000000D03*
X113000000Y-178000000D03*
D58*
X83298100Y-126200000D03*
D59*
X90400000Y-173600000D03*
%TO.N,/GPIO46*%
X97100000Y-95200000D03*
X103900000Y-92000000D03*
X112400000Y-83200000D03*
X94600000Y-102200000D03*
X114200000Y-81300000D03*
X104500000Y-86400000D03*
%TO.N,Net-(U5-3V3OUT)*%
X82001765Y-174520735D03*
X84200000Y-169600000D03*
%TO.N,AGND*%
X117700000Y-151300000D03*
X128100000Y-152300000D03*
X131362500Y-141325000D03*
X128000000Y-154500000D03*
X117900000Y-135500000D03*
X128100000Y-147200000D03*
X118500000Y-145900000D03*
X118600000Y-150700000D03*
X128062500Y-139225000D03*
X127200000Y-145200000D03*
%TO.N,/MCU2/TX*%
X96500000Y-66400000D03*
X96800000Y-120500000D03*
%TO.N,/MCU2/RX*%
X98600000Y-67800000D03*
X98300000Y-121000000D03*
D62*
%TO.N,Net-(C1-Pad1)*%
X56200000Y-64200000D03*
D63*
X61900000Y-99800000D03*
D62*
X52000000Y-82800000D03*
D59*
%TO.N,/BLINK*%
X122200000Y-96200000D03*
X101200000Y-67500000D03*
%TO.N,/BAT_SENSE*%
X87100000Y-93700000D03*
X119400000Y-83900000D03*
X96300000Y-92900000D03*
%TD*%
D64*
%TO.N,/USB_D-*%
X117077650Y-174000000D02*
X114800000Y-174000000D01*
X114800000Y-174000000D02*
X110950000Y-177850000D01*
X110950000Y-177850000D02*
X110850000Y-177850000D01*
X76280000Y-78090000D02*
X75010000Y-78090000D01*
X73900000Y-79200000D02*
X73900000Y-83900000D01*
X75010000Y-78090000D02*
X73900000Y-79200000D01*
X112900000Y-157600000D02*
X116700000Y-161400000D01*
X73900000Y-83900000D02*
X112900000Y-122900000D01*
X112900000Y-122900000D02*
X112900000Y-157600000D01*
X116700000Y-161400000D02*
X116700000Y-173622350D01*
X116700000Y-173622350D02*
X117077650Y-174000000D01*
%TO.N,/USB_D+*%
X116000000Y-171800000D02*
X116000000Y-161300000D01*
X112400000Y-157700000D02*
X112400000Y-123600000D01*
X112400000Y-123600000D02*
X95800000Y-107000000D01*
X116000000Y-161300000D02*
X112400000Y-157700000D01*
X114600000Y-173200000D02*
X116000000Y-171800000D01*
X95800000Y-107000000D02*
X95800000Y-106900000D01*
D65*
%TO.N,VBUS*%
X113000000Y-178000000D02*
X113600000Y-177400000D01*
X116800000Y-177400000D02*
X117077650Y-177677650D01*
X113600000Y-177400000D02*
X116800000Y-177400000D01*
X117077650Y-177677650D02*
X117077650Y-178600000D01*
D66*
%TO.N,GND*%
X116900000Y-179900000D02*
X117100000Y-180100000D01*
X117100000Y-180100000D02*
X118700000Y-180100000D01*
X118700000Y-180100000D02*
X119122350Y-179677650D01*
X119122350Y-179677650D02*
X119122350Y-178600000D01*
%TO.N,/Power2/ANODE*%
X51400000Y-166600000D02*
X45452500Y-172547500D01*
X53200000Y-96000000D02*
X51400000Y-97800000D01*
X55537500Y-96000000D02*
X53200000Y-96000000D01*
X51400000Y-97800000D02*
X51400000Y-166600000D01*
X45452500Y-172547500D02*
X45010000Y-172547500D01*
X45010000Y-172547500D02*
X40700000Y-176857500D01*
%TO.N,VBUS*%
X66900000Y-72200000D02*
X68087500Y-71012500D01*
X68087500Y-71012500D02*
X68900000Y-71012500D01*
D65*
X91877650Y-174900000D02*
X91100000Y-174900000D01*
X91100000Y-174900000D02*
X90800000Y-174600000D01*
X90800000Y-174600000D02*
X90800000Y-174000000D01*
X90800000Y-174000000D02*
X90400000Y-173600000D01*
D64*
%TO.N,+3.3V*%
X83272500Y-174700000D02*
X83872500Y-175300000D01*
X87600000Y-175300000D02*
X90068000Y-172832000D01*
X90068000Y-172832000D02*
X96368000Y-172832000D01*
X83872500Y-175300000D02*
X87600000Y-175300000D01*
X96600000Y-172600000D02*
X98200000Y-172600000D01*
X96368000Y-172832000D02*
X96600000Y-172600000D01*
X98200000Y-172600000D02*
X98200000Y-172800000D01*
X83272500Y-174700000D02*
X83272500Y-173057500D01*
D67*
X92670500Y-185983000D02*
X92653500Y-186000000D01*
X92653500Y-186000000D02*
X62800000Y-186000000D01*
X62800000Y-186000000D02*
X62500000Y-185700000D01*
D68*
X91287500Y-184600000D02*
X92670500Y-185983000D01*
X92670500Y-185983000D02*
X98117000Y-185983000D01*
X98117000Y-185983000D02*
X98800000Y-185300000D01*
D66*
%TO.N,/Power2/ANODE*%
X40700000Y-176857500D02*
X40700000Y-184477500D01*
D69*
%TO.N,/Power2/CATHODE*%
X40695000Y-82582500D02*
X40695000Y-74962500D01*
X45395000Y-81517500D02*
X41760000Y-81517500D01*
X41760000Y-81517500D02*
X40695000Y-82582500D01*
D70*
%TO.N,Net-(D1-K)*%
X59150000Y-82800000D02*
X59250000Y-82900000D01*
X59250000Y-82900000D02*
X62600000Y-82900000D01*
D65*
%TO.N,Net-(JP1-A)*%
X62200000Y-76850000D02*
X62200000Y-80000000D01*
X62200000Y-80000000D02*
X66000000Y-83800000D01*
X66000000Y-83800000D02*
X66000000Y-91050000D01*
X61250000Y-75900000D02*
X62200000Y-76850000D01*
%TO.N,GND*%
X53200000Y-74450000D02*
X51550000Y-74450000D01*
X51500000Y-74500000D02*
X51550000Y-74450000D01*
X128437500Y-94300000D02*
X131900000Y-94300000D01*
D69*
%TO.N,/Power2/CATHODE*%
X45395000Y-73695000D02*
X42900000Y-71200000D01*
X42900000Y-71200000D02*
X40300000Y-71200000D01*
X39400000Y-70300000D02*
X39400000Y-65900000D01*
X40900000Y-64400000D02*
X47300000Y-64400000D01*
X40300000Y-71200000D02*
X39400000Y-70300000D01*
X45395000Y-81517500D02*
X45395000Y-73695000D01*
X39400000Y-65900000D02*
X40900000Y-64400000D01*
X47300000Y-64400000D02*
X47300000Y-67870000D01*
X47300000Y-67870000D02*
X46570000Y-68600000D01*
D65*
%TO.N,GND*%
X80687500Y-104800000D02*
X80687500Y-104587500D01*
X80687500Y-104587500D02*
X79750000Y-103650000D01*
%TO.N,Net-(Q1-G)*%
X58200000Y-72300000D02*
X58300000Y-72200000D01*
%TO.N,GND*%
X53200000Y-74450000D02*
X54250000Y-74450000D01*
X54250000Y-74450000D02*
X56100000Y-76300000D01*
%TO.N,/RAD_IN*%
X111600000Y-99800000D02*
X111700000Y-99700000D01*
X92100000Y-103500000D02*
X92000000Y-103500000D01*
X84087500Y-108000000D02*
X84087500Y-107412500D01*
X84087500Y-107412500D02*
X84700000Y-106800000D01*
X90900000Y-103500000D02*
X92100000Y-103500000D01*
X84700000Y-106800000D02*
X87600000Y-106800000D01*
X87600000Y-106800000D02*
X90900000Y-103500000D01*
X111700000Y-88400000D02*
X111600000Y-99800000D01*
%TO.N,/EN*%
X96800000Y-81500000D02*
X100700000Y-85400000D01*
X114800000Y-85900000D02*
X113000000Y-84100000D01*
X113000000Y-84100000D02*
X112900000Y-84100000D01*
X100700000Y-86300000D02*
X102100000Y-87700000D01*
X114400000Y-87700000D02*
X114800000Y-87300000D01*
X100700000Y-85400000D02*
X100700000Y-86300000D01*
X102100000Y-87700000D02*
X114400000Y-87700000D01*
X114800000Y-87300000D02*
X114800000Y-85900000D01*
%TO.N,/GPIO0*%
X113900000Y-87000000D02*
X113800000Y-87100000D01*
X113800000Y-87100000D02*
X103700000Y-87100000D01*
X103700000Y-87100000D02*
X103400000Y-86800000D01*
%TO.N,/RAD_IN*%
X110700000Y-67100000D02*
X110700000Y-82200000D01*
X110700000Y-82200000D02*
X111200000Y-82700000D01*
X113250000Y-64750000D02*
X113050000Y-64750000D01*
X113050000Y-64750000D02*
X110700000Y-67100000D01*
D66*
%TO.N,+3.3V*%
X117440000Y-63100000D02*
X122500000Y-63100000D01*
X124400000Y-65000000D02*
X124400000Y-70200000D01*
X124400000Y-70200000D02*
X125000000Y-70800000D01*
X122500000Y-63100000D02*
X124400000Y-65000000D01*
X113250000Y-67290000D02*
X117440000Y-63100000D01*
X125000000Y-70800000D02*
X126987500Y-70800000D01*
X113250000Y-67290000D02*
X113150000Y-67390000D01*
X113150000Y-67390000D02*
X113150000Y-78350000D01*
D65*
%TO.N,/GPIO16*%
X78100000Y-72900000D02*
X77990000Y-73010000D01*
X78100000Y-73000000D02*
X78100000Y-72900000D01*
X78000000Y-73000000D02*
X78100000Y-73000000D01*
X76550000Y-73010000D02*
X77990000Y-73010000D01*
X78000000Y-73000000D02*
X78000000Y-73000000D01*
%TO.N,GND*%
X66000000Y-78400000D02*
X66000000Y-77162500D01*
%TO.N,Net-(JP1-A)*%
X60700000Y-75350000D02*
X61250000Y-75900000D01*
X63600000Y-75287500D02*
X61862500Y-75287500D01*
X61862500Y-75287500D02*
X61250000Y-75900000D01*
X66000000Y-75262500D02*
X63625000Y-75262500D01*
X63625000Y-75262500D02*
X63600000Y-75287500D01*
%TO.N,GND*%
X63600000Y-77112500D02*
X63650000Y-77162500D01*
X63650000Y-77162500D02*
X66000000Y-77162500D01*
%TO.N,Net-(JP1-A)*%
X60700000Y-66900000D02*
X60500000Y-67100000D01*
X57975000Y-75350000D02*
X60700000Y-75350000D01*
X60500000Y-67100000D02*
X60500000Y-72825000D01*
X60500000Y-72825000D02*
X57975000Y-75350000D01*
D70*
%TO.N,Net-(D1-K)*%
X59150000Y-82800000D02*
X59200000Y-82850000D01*
X59200000Y-82850000D02*
X59200000Y-87000000D01*
X59200000Y-87000000D02*
X61232500Y-89032500D01*
X61232500Y-89032500D02*
X61232500Y-90500000D01*
D66*
%TO.N,+3.3V*%
X81300000Y-113200000D02*
X81200000Y-113300000D01*
X81200000Y-113300000D02*
X81200000Y-115600000D01*
X90900000Y-107900000D02*
X91000000Y-107800000D01*
X91000000Y-107800000D02*
X92400000Y-107800000D01*
X92400000Y-107800000D02*
X93500000Y-108900000D01*
D65*
%TO.N,Net-(C30-Pad2)*%
X85700000Y-100600000D02*
X87500000Y-102400000D01*
X77600000Y-100600000D02*
X85700000Y-100600000D01*
X87500000Y-102400000D02*
X87500000Y-104562500D01*
X87500000Y-104562500D02*
X87362500Y-104700000D01*
X59300000Y-99100000D02*
X59300000Y-104500000D01*
X57550000Y-98900000D02*
X59100000Y-98900000D01*
X59100000Y-98900000D02*
X59300000Y-99100000D01*
D66*
%TO.N,VBUS*%
X57100000Y-147200000D02*
X57100000Y-144462500D01*
X57100000Y-144462500D02*
X57300000Y-144262500D01*
D65*
%TO.N,Net-(R35-Pad1)*%
X57312500Y-133505000D02*
X57312500Y-138325000D01*
X57312500Y-138325000D02*
X57300000Y-138337500D01*
D71*
%TO.N,/BEEP*%
X59937500Y-164737500D02*
X59900000Y-164700000D01*
X59900000Y-148100000D02*
X70900000Y-137100000D01*
X59900000Y-164700000D02*
X59900000Y-148100000D01*
D72*
%TO.N,+3.3V*%
X105250000Y-127800000D02*
X108200000Y-127800000D01*
X108200000Y-127800000D02*
X109500000Y-126500000D01*
D65*
%TO.N,GND*%
X105250000Y-124700000D02*
X105500000Y-124700000D01*
X105500000Y-124700000D02*
X106800000Y-126000000D01*
D66*
%TO.N,+3.3V*%
X71800000Y-78500000D02*
X72600000Y-79300000D01*
X72600000Y-79300000D02*
X72600000Y-103200000D01*
X72600000Y-103200000D02*
X71150000Y-104650000D01*
X66000000Y-96962500D02*
X66000000Y-99500000D01*
X66000000Y-99500000D02*
X75500000Y-109000000D01*
X75500000Y-109000000D02*
X75500000Y-115200000D01*
D65*
%TO.N,Net-(U2A-1IN-)*%
X81900000Y-105412500D02*
X81900000Y-109700000D01*
X82512500Y-104800000D02*
X81900000Y-105412500D01*
X81900000Y-109700000D02*
X82674999Y-110474999D01*
X82674999Y-110474999D02*
X84024616Y-110474999D01*
%TO.N,/RAD_IN*%
X84087500Y-108000000D02*
X84087500Y-109762117D01*
X84087500Y-109762117D02*
X84024616Y-109825001D01*
%TO.N,+3.3V*%
X85912500Y-108112500D02*
X87600000Y-109800000D01*
X85912500Y-108000000D02*
X85912500Y-108112500D01*
X87600000Y-109800000D02*
X89750383Y-109800000D01*
X89750383Y-109800000D02*
X89775384Y-109825001D01*
D71*
%TO.N,/BEEP*%
X74000000Y-117300000D02*
X74000000Y-134000000D01*
D65*
%TO.N,Net-(JP1-A)*%
X64300000Y-91700000D02*
X64300000Y-98000000D01*
X60512500Y-107287500D02*
X60512500Y-133505000D01*
X64300000Y-98000000D02*
X63700000Y-98600000D01*
X64950000Y-91050000D02*
X64300000Y-91700000D01*
X66000000Y-91050000D02*
X64950000Y-91050000D01*
X63700000Y-98600000D02*
X61700000Y-98600000D01*
X61700000Y-98600000D02*
X60400000Y-99900000D01*
X60400000Y-99900000D02*
X60400000Y-107175000D01*
X60400000Y-107175000D02*
X60512500Y-107287500D01*
D66*
%TO.N,/Power2/ANODE*%
X55537500Y-96000000D02*
X55537500Y-98787500D01*
X55537500Y-98787500D02*
X55650000Y-98900000D01*
X56450000Y-95112500D02*
X56437500Y-95100000D01*
X56437500Y-95100000D02*
X55537500Y-96000000D01*
D67*
%TO.N,Net-(C30-Pad2)*%
X87362500Y-105537500D02*
X87362500Y-104700000D01*
D66*
%TO.N,Net-(U2A-1IN-)*%
X84437500Y-104700000D02*
X82612500Y-104700000D01*
D65*
X82612500Y-104700000D02*
X82512500Y-104800000D01*
D66*
%TO.N,+3.3V*%
X75500000Y-115200000D02*
X75500000Y-128601900D01*
X75500000Y-115200000D02*
X80800000Y-115200000D01*
X80800000Y-115200000D02*
X81200000Y-115600000D01*
D68*
%TO.N,GND*%
X81187500Y-117700000D02*
X81124616Y-117762884D01*
X81124616Y-117762884D02*
X81124616Y-119475384D01*
D65*
%TO.N,Net-(U2A-1IN+)*%
X84024616Y-111125001D02*
X85325001Y-111125001D01*
X85325001Y-111125001D02*
X86300000Y-112100000D01*
X86300000Y-112100000D02*
X86300000Y-114200000D01*
X86300000Y-114200000D02*
X84900000Y-115600000D01*
X84900000Y-115600000D02*
X83025000Y-115600000D01*
X83012500Y-117900000D02*
X83012500Y-115612500D01*
X83012500Y-115612500D02*
X83025000Y-115600000D01*
D67*
%TO.N,GND*%
X88850000Y-106750000D02*
X89300000Y-106300000D01*
X88850000Y-108000000D02*
X88850000Y-106750000D01*
D65*
X88850000Y-108000000D02*
X88850000Y-108150000D01*
%TO.N,+3.3V*%
X90750000Y-108000000D02*
X90750000Y-108850385D01*
X90750000Y-108850385D02*
X89775384Y-109825001D01*
D71*
%TO.N,GND*%
X84024616Y-111774999D02*
X84024616Y-112875384D01*
D65*
%TO.N,Net-(JP6-B)*%
X103100000Y-121700000D02*
X102300000Y-120900000D01*
X95174999Y-110474999D02*
X102200000Y-117500000D01*
X103900000Y-121700000D02*
X103100000Y-121700000D01*
X102300000Y-120900000D02*
X102300000Y-117600000D01*
X102300000Y-117600000D02*
X102200000Y-117500000D01*
X89775384Y-110474999D02*
X95174999Y-110474999D01*
%TO.N,Net-(JP5-A)*%
X101500000Y-123700000D02*
X102400000Y-124600000D01*
X101500000Y-118000000D02*
X101500000Y-123700000D01*
X94625001Y-111125001D02*
X101500000Y-118000000D01*
X89775384Y-111125001D02*
X94625001Y-111125001D01*
X102400000Y-124600000D02*
X103850000Y-124600000D01*
X103850000Y-124600000D02*
X103950000Y-124700000D01*
%TO.N,Net-(JP4-A)*%
X89775384Y-111774999D02*
X94174999Y-111774999D01*
X94174999Y-111774999D02*
X100900000Y-118500000D01*
X100900000Y-118500000D02*
X100900000Y-126800000D01*
X100900000Y-126800000D02*
X101900000Y-127800000D01*
X101900000Y-127800000D02*
X103950000Y-127800000D01*
%TO.N,/MCU2/TX*%
X96800000Y-163500000D02*
X96800000Y-120500000D01*
%TO.N,/CS*%
X99000000Y-181700000D02*
X99000000Y-120100000D01*
%TO.N,/MCU2/RX*%
X98300000Y-170200000D02*
X98300000Y-121000000D01*
%TO.N,/MCU2/TX*%
X94100000Y-166200000D02*
X84900000Y-166200000D01*
X84900000Y-166200000D02*
X84542500Y-166557500D01*
X96800000Y-163500000D02*
X94100000Y-166200000D01*
X84542500Y-166557500D02*
X84542500Y-167857500D01*
D66*
%TO.N,+3.3V*%
X90500000Y-85300000D02*
X89100000Y-83900000D01*
X89100000Y-83900000D02*
X89100000Y-82800000D01*
X90500000Y-85300000D02*
X92250000Y-85300000D01*
%TO.N,VBUS*%
X70300000Y-96900000D02*
X70300000Y-99000000D01*
X70300000Y-99000000D02*
X70500000Y-99200000D01*
%TO.N,+3.3V*%
X75500000Y-128601900D02*
X80198100Y-133300000D01*
X80198100Y-133300000D02*
X80198100Y-135398100D01*
X80198100Y-135398100D02*
X87500000Y-142700000D01*
X87500000Y-142700000D02*
X87500000Y-144900000D01*
D65*
%TO.N,GND*%
X133700000Y-73200000D02*
X132800000Y-74100000D01*
D68*
X120400000Y-100000000D02*
X119050000Y-100000000D01*
D64*
X73510000Y-173900000D02*
X73510000Y-173590000D01*
D66*
X119122350Y-174000000D02*
X119122350Y-176300000D01*
D65*
X118800000Y-74700000D02*
X118900000Y-74700000D01*
X85200000Y-71700000D02*
X85200000Y-70300000D01*
D73*
X85212500Y-148450000D02*
X85162500Y-148400000D01*
D66*
X93922350Y-174900000D02*
X93922350Y-179600000D01*
D70*
X102400000Y-182987500D02*
X102400000Y-181000000D01*
D65*
X90000000Y-130900000D02*
X90848100Y-131748100D01*
X125625000Y-68775000D02*
X125600000Y-68800000D01*
X126825000Y-68775000D02*
X125625000Y-68775000D01*
X90000000Y-130900000D02*
X90548100Y-130351900D01*
X125800000Y-74300000D02*
X125900000Y-74200000D01*
X113950000Y-134500000D02*
X113500000Y-134500000D01*
X71800000Y-65150000D02*
X74370000Y-62580000D01*
D66*
X90848100Y-131748100D02*
X90848100Y-135500000D01*
D65*
X115000000Y-135550000D02*
X113950000Y-134500000D01*
D73*
%TO.N,Net-(Q1-G)*%
X53200000Y-76350000D02*
X53200000Y-77800000D01*
D65*
%TO.N,GND*%
X118225000Y-64596500D02*
X118225000Y-66575000D01*
D73*
X107300000Y-176212500D02*
X107287500Y-176200000D01*
D66*
X128325000Y-80700000D02*
X128325000Y-87300000D01*
D73*
X86622500Y-179445000D02*
X86622500Y-178000000D01*
D71*
X59800000Y-167300000D02*
X58800000Y-167300000D01*
D65*
X68900000Y-65187500D02*
X67112500Y-65187500D01*
X68937500Y-65150000D02*
X68900000Y-65187500D01*
X79500000Y-62600000D02*
X80600000Y-63700000D01*
D73*
X109112500Y-173800000D02*
X109112500Y-171487500D01*
D65*
X83800000Y-68900000D02*
X85200000Y-68900000D01*
X118450000Y-74350000D02*
X118800000Y-74700000D01*
X94100000Y-85350000D02*
X94150000Y-85300000D01*
X125900000Y-74300000D02*
X125800000Y-74300000D01*
X71800000Y-65150000D02*
X68937500Y-65150000D01*
X102400000Y-182987500D02*
X102362500Y-183025000D01*
X113800000Y-178200000D02*
X113900000Y-178100000D01*
X93930000Y-62700000D02*
X94050000Y-62580000D01*
D73*
X107287500Y-176200000D02*
X107287500Y-175625000D01*
D64*
X84972500Y-148590000D02*
X85162500Y-148400000D01*
D66*
X129600000Y-80700000D02*
X128325000Y-80700000D01*
X91398100Y-135500000D02*
X94698100Y-138800000D01*
D65*
X94100000Y-87500000D02*
X94100000Y-88250000D01*
D73*
X107300000Y-179245000D02*
X107300000Y-176212500D01*
D65*
X132525000Y-68675000D02*
X132500000Y-68700000D01*
X93922350Y-179600000D02*
X93922350Y-179827650D01*
D71*
X79100000Y-177900000D02*
X80222500Y-179022500D01*
D65*
X89600000Y-171000000D02*
X89700000Y-170900000D01*
X76570000Y-62600000D02*
X79500000Y-62600000D01*
X74370000Y-62580000D02*
X76550000Y-62580000D01*
X86400000Y-71970000D02*
X85200000Y-71970000D01*
X113800000Y-179345000D02*
X113800000Y-178200000D01*
X89850000Y-169600000D02*
X89850000Y-170750000D01*
D73*
X85300000Y-148450000D02*
X85212500Y-148450000D01*
D66*
X119122350Y-176300000D02*
X119122350Y-178600000D01*
D73*
X109112500Y-171487500D02*
X109025000Y-171400000D01*
D71*
X74600000Y-172500000D02*
X74500000Y-172600000D01*
D65*
X132400000Y-68700000D02*
X132400000Y-68800000D01*
X89850000Y-170750000D02*
X89600000Y-171000000D01*
X96400000Y-62800000D02*
X96350000Y-62850000D01*
D71*
X80222500Y-179022500D02*
X80222500Y-179445000D01*
D65*
X83800000Y-70300000D02*
X83800000Y-68900000D01*
X80600000Y-63700000D02*
X82400000Y-65500000D01*
D64*
X73510000Y-173900000D02*
X73510000Y-176200000D01*
D65*
X118450000Y-73400000D02*
X118450000Y-74350000D01*
X132400000Y-68800000D02*
X132500000Y-68700000D01*
D67*
X133700000Y-64600000D02*
X133700000Y-68600000D01*
D65*
X118225000Y-66575000D02*
X118200000Y-66600000D01*
X118800000Y-74600000D02*
X118800000Y-74700000D01*
X85200000Y-70300000D02*
X83800000Y-70300000D01*
D64*
X84060000Y-148590000D02*
X84972500Y-148590000D01*
D73*
X82250000Y-150650000D02*
X82250000Y-149300000D01*
D65*
X133850000Y-73200000D02*
X133700000Y-73200000D01*
D71*
X73510000Y-173590000D02*
X74600000Y-172500000D01*
D65*
X132800000Y-74100000D02*
X132900000Y-74000000D01*
D73*
X56100000Y-76300000D02*
X56050000Y-76350000D01*
D64*
X73510000Y-177087500D02*
X73922500Y-177500000D01*
D65*
X94100000Y-87500000D02*
X94100000Y-85350000D01*
X82400000Y-71700000D02*
X85200000Y-71700000D01*
X93922350Y-179600000D02*
X93700000Y-179600000D01*
X93922350Y-179600000D02*
X93922350Y-179722350D01*
X126900000Y-73200000D02*
X125900000Y-74200000D01*
X118225000Y-66625000D02*
X118225000Y-68746500D01*
X93922350Y-179600000D02*
X93800000Y-179600000D01*
D73*
X85162500Y-148400000D02*
X84010000Y-148400000D01*
D65*
X133625000Y-68675000D02*
X132525000Y-68675000D01*
X102362500Y-183025000D02*
X102387500Y-183000000D01*
X94050000Y-62850000D02*
X96350000Y-62850000D01*
D73*
X84010000Y-148400000D02*
X82400000Y-146790000D01*
D65*
X115100000Y-178100000D02*
X116900000Y-179900000D01*
X132500000Y-68700000D02*
X132400000Y-68700000D01*
D67*
X126825000Y-64625000D02*
X126825000Y-68775000D01*
D65*
X113900000Y-178100000D02*
X115100000Y-178100000D01*
X115000000Y-136100000D02*
X115000000Y-135550000D01*
X83272500Y-167857500D02*
X83272500Y-166427500D01*
D67*
X133625000Y-64525000D02*
X133700000Y-64600000D01*
D66*
X130800000Y-79500000D02*
X129600000Y-80700000D01*
D65*
X127050000Y-73200000D02*
X126900000Y-73200000D01*
D66*
X93922350Y-179722350D02*
X94900000Y-180700000D01*
D73*
X82250000Y-149300000D02*
X83350000Y-149300000D01*
X83350000Y-149300000D02*
X84060000Y-148590000D01*
D65*
X76550000Y-62580000D02*
X76570000Y-62600000D01*
D66*
X91250000Y-182500000D02*
X90100000Y-182500000D01*
D65*
X118900000Y-74700000D02*
X118800000Y-74600000D01*
X102387500Y-183000000D02*
X102400000Y-182987500D01*
D64*
X83907500Y-174285000D02*
X83922500Y-174300000D01*
D65*
X91600000Y-182150000D02*
X91250000Y-182500000D01*
X82400000Y-65500000D02*
X82400000Y-71700000D01*
D73*
X107287500Y-175625000D02*
X109112500Y-173800000D01*
D66*
X102362500Y-183025000D02*
X102362500Y-185400000D01*
D73*
X109025000Y-171400000D02*
X110300000Y-171400000D01*
D64*
X73510000Y-176200000D02*
X73510000Y-177087500D01*
D65*
X83272500Y-166427500D02*
X83300000Y-166400000D01*
X94100000Y-88250000D02*
X94850000Y-89000000D01*
X118200000Y-66600000D02*
X118225000Y-66625000D01*
X67100000Y-65200000D02*
X67112500Y-65187500D01*
D64*
X83907500Y-173057500D02*
X83907500Y-174285000D01*
D66*
X90548100Y-130351900D02*
X90548100Y-126100000D01*
D65*
X59900000Y-167400000D02*
X59800000Y-167300000D01*
D66*
X90848100Y-135500000D02*
X91398100Y-135500000D01*
X128325000Y-80700000D02*
X128325000Y-80425000D01*
D65*
X125900000Y-74200000D02*
X125900000Y-74300000D01*
D73*
X82250000Y-146790000D02*
X82250000Y-145250000D01*
D67*
X133700000Y-68600000D02*
X133625000Y-68675000D01*
%TO.N,+5V*%
X88000000Y-152700000D02*
X87150000Y-151850000D01*
D73*
X89650000Y-149400000D02*
X87300000Y-149400000D01*
D64*
X87250000Y-149450000D02*
X87200000Y-149400000D01*
D67*
X120700000Y-85100000D02*
X120000000Y-85800000D01*
X80350000Y-150850000D02*
X80800000Y-151300000D01*
D64*
X87200000Y-151350000D02*
X86950000Y-151600000D01*
D73*
X87300000Y-149400000D02*
X87250000Y-149450000D01*
D67*
X88900000Y-152700000D02*
X88000000Y-152700000D01*
D73*
X80350000Y-149300000D02*
X80350000Y-146940000D01*
D67*
X87150000Y-151850000D02*
X87150000Y-151500000D01*
D65*
X89700000Y-149450000D02*
X89650000Y-149400000D01*
D73*
X87200000Y-149400000D02*
X87200000Y-151350000D01*
D64*
X80350000Y-146940000D02*
X80500000Y-146790000D01*
D65*
X120000000Y-85800000D02*
X120100000Y-85700000D01*
D67*
X80350000Y-149300000D02*
X80350000Y-150850000D01*
X122500000Y-85100000D02*
X120700000Y-85100000D01*
D65*
%TO.N,/MCU2/SHELL_GND*%
X93172500Y-182700000D02*
X94500000Y-182700000D01*
X94500000Y-182700000D02*
X94900000Y-183100000D01*
D70*
X106280000Y-184100000D02*
X114920000Y-184100000D01*
X106280000Y-179780000D02*
X106280000Y-179920000D01*
X104900000Y-175000000D02*
X104900000Y-178400000D01*
D67*
X104262500Y-185400000D02*
X104980000Y-185400000D01*
X104980000Y-185400000D02*
X106280000Y-184100000D01*
D70*
X104900000Y-178400000D02*
X106280000Y-179780000D01*
D65*
X95000000Y-183200000D02*
X94900000Y-183100000D01*
D70*
X106100000Y-173800000D02*
X104900000Y-175000000D01*
D65*
X94900000Y-183200000D02*
X95000000Y-183200000D01*
X94900000Y-183100000D02*
X94900000Y-183200000D01*
D74*
X79102500Y-180020000D02*
X79102500Y-184200000D01*
D70*
X107287500Y-173800000D02*
X106100000Y-173800000D01*
X106280000Y-179920000D02*
X106280000Y-184100000D01*
X107287500Y-171487500D02*
X107287500Y-173800000D01*
D74*
X79102500Y-184200000D02*
X87742500Y-184200000D01*
D70*
X114920000Y-184100000D02*
X114920000Y-179920000D01*
D74*
X87742500Y-184200000D02*
X87742500Y-180020000D01*
D65*
X107200000Y-171400000D02*
X107287500Y-171487500D01*
%TO.N,Net-(D3-A)*%
X89600000Y-155400000D02*
X90500000Y-154500000D01*
X90050000Y-147350000D02*
X89700000Y-147350000D01*
X86000000Y-155400000D02*
X89600000Y-155400000D01*
X90500000Y-154500000D02*
X90500000Y-147800000D01*
X90500000Y-147800000D02*
X90050000Y-147350000D01*
D64*
X85300000Y-144950000D02*
X85350000Y-144900000D01*
D65*
X85300000Y-146300000D02*
X85600000Y-146600000D01*
X85287500Y-154687500D02*
X86000000Y-155400000D01*
X85300000Y-144950000D02*
X85300000Y-146300000D01*
X85600000Y-146600000D02*
X88950000Y-146600000D01*
D73*
X85300000Y-147500000D02*
X85300000Y-144950000D01*
D65*
X88950000Y-146600000D02*
X89700000Y-147350000D01*
X85287500Y-153800000D02*
X85287500Y-154687500D01*
%TO.N,/Audio2/OUTR*%
X130549941Y-166849941D02*
X130549941Y-173299998D01*
X123300000Y-140525000D02*
X123300000Y-139200000D01*
X123700000Y-140525000D02*
X125112500Y-140525000D01*
X123300000Y-139200000D02*
X123100000Y-139000000D01*
X122112500Y-140525000D02*
X123700000Y-140525000D01*
X114000000Y-157600000D02*
X115000000Y-158600000D01*
X116000000Y-139000000D02*
X114000000Y-141000000D01*
X115000000Y-158600000D02*
X122300000Y-158600000D01*
X114000000Y-141000000D02*
X114000000Y-157600000D01*
D66*
X130549941Y-173299998D02*
X134999998Y-173299998D01*
D65*
X122300000Y-158600000D02*
X130549941Y-166849941D01*
D66*
X134999998Y-173299998D02*
X135800000Y-174100000D01*
D65*
X123100000Y-139000000D02*
X116000000Y-139000000D01*
D75*
%TO.N,/Audio2/OUTL*%
X133500000Y-176500000D02*
X135800000Y-178800000D01*
D65*
X123600000Y-142725000D02*
X123400000Y-142725000D01*
D71*
X125049942Y-173299998D02*
X125049942Y-164449942D01*
D65*
X123600000Y-142725000D02*
X125062500Y-142725000D01*
D71*
X125049942Y-164449942D02*
X121700000Y-161100000D01*
D75*
X125049942Y-175249942D02*
X126300000Y-176500000D01*
X125049942Y-173299998D02*
X125049942Y-175249942D01*
D65*
X122112500Y-142725000D02*
X123600000Y-142725000D01*
D75*
X126300000Y-176500000D02*
X133500000Y-176500000D01*
D70*
%TO.N,Net-(D1-A)*%
X46030000Y-71400000D02*
X43230000Y-68600000D01*
X49900000Y-73200000D02*
X48100000Y-71400000D01*
X48100000Y-71400000D02*
X46030000Y-71400000D01*
X52900000Y-90500000D02*
X49900000Y-87500000D01*
X55200000Y-90500000D02*
X52900000Y-90500000D01*
D68*
X64207500Y-134000000D02*
X66800000Y-134000000D01*
X63712500Y-133505000D02*
X64207500Y-134000000D01*
D70*
X55200000Y-90500000D02*
X57892500Y-90500000D01*
D68*
X66800000Y-134000000D02*
X67400000Y-133400000D01*
D70*
X49900000Y-87500000D02*
X49900000Y-73200000D01*
D64*
%TO.N,/MCU2/RX_LED*%
X84800000Y-171800000D02*
X96000000Y-171800000D01*
X84542500Y-173057500D02*
X84542500Y-172057500D01*
D65*
X114900000Y-137200000D02*
X118600000Y-137200000D01*
X133800000Y-94100000D02*
X131600000Y-91900000D01*
X130050000Y-91900000D02*
X128325000Y-91900000D01*
D64*
X97600000Y-159300000D02*
X97700000Y-159400000D01*
D65*
X118600000Y-134300000D02*
X133800000Y-119100000D01*
D64*
X97800000Y-159500000D02*
X97700000Y-159400000D01*
D65*
X113800000Y-138200000D02*
X113900000Y-138200000D01*
D64*
X97800000Y-170000000D02*
X97800000Y-159500000D01*
X96000000Y-171800000D02*
X97800000Y-170000000D01*
D65*
X118600000Y-137200000D02*
X118600000Y-134300000D01*
X131600000Y-91900000D02*
X130050000Y-91900000D01*
D64*
X97600000Y-159400000D02*
X97600000Y-159300000D01*
X84542500Y-172057500D02*
X84800000Y-171800000D01*
D65*
X113900000Y-138200000D02*
X114900000Y-137200000D01*
D64*
X97700000Y-159400000D02*
X97600000Y-159400000D01*
D65*
X133800000Y-119100000D02*
X133800000Y-94100000D01*
%TO.N,Net-(Q1-G)*%
X92200000Y-65600000D02*
X92300000Y-65600000D01*
X109400000Y-84200000D02*
X108000000Y-85600000D01*
X58300000Y-65000000D02*
X60400000Y-62900000D01*
X103775000Y-84975000D02*
X103775000Y-84200000D01*
X66500000Y-62900000D02*
X66400000Y-62900000D01*
X104400000Y-85600000D02*
X103775000Y-84975000D01*
X91800000Y-63400000D02*
X91800000Y-65100000D01*
X101300000Y-84300000D02*
X101400000Y-84200000D01*
X60400000Y-62900000D02*
X66500000Y-62900000D01*
X56100000Y-74400000D02*
X58200000Y-72300000D01*
X91800000Y-65100000D02*
X92200000Y-65500000D01*
X101400000Y-84200000D02*
X103775000Y-84200000D01*
X58300000Y-72200000D02*
X58300000Y-65000000D01*
X92200000Y-65500000D02*
X92200000Y-65600000D01*
X92300000Y-65600000D02*
X92200000Y-65500000D01*
X108000000Y-85600000D02*
X104400000Y-85600000D01*
D73*
%TO.N,Net-(D1-K)*%
X63000000Y-95362500D02*
X62362500Y-96000000D01*
X61232500Y-90500000D02*
X62400000Y-90500000D01*
X63000000Y-91100000D02*
X63000000Y-95362500D01*
X62400000Y-90500000D02*
X63000000Y-91100000D01*
D65*
%TO.N,Net-(JP1-A)*%
X70250000Y-91050000D02*
X70300000Y-91100000D01*
X66000000Y-91050000D02*
X70250000Y-91050000D01*
%TO.N,Net-(JP1-B)*%
X70300000Y-92400000D02*
X70300000Y-95075000D01*
%TO.N,Net-(JP2-B)*%
X66000000Y-92350000D02*
X66000000Y-95137500D01*
%TO.N,/PWM*%
X107300000Y-71700000D02*
X107300000Y-81400000D01*
X102800000Y-71000000D02*
X106600000Y-71000000D01*
X101300000Y-70200000D02*
X94050000Y-70200000D01*
X101300000Y-70200000D02*
X102000000Y-70200000D01*
X102000000Y-70200000D02*
X102800000Y-71000000D01*
X107300000Y-81400000D02*
X105600000Y-83100000D01*
X106600000Y-71000000D02*
X107300000Y-71700000D01*
X105600000Y-83100000D02*
X105600000Y-84200000D01*
%TO.N,/MOSI*%
X101700000Y-106100000D02*
X83200000Y-87600000D01*
X83200000Y-80805000D02*
X83395000Y-80610000D01*
X83200000Y-87600000D02*
X83200000Y-80805000D01*
%TO.N,/I2S_LRCK*%
X127700000Y-147900000D02*
X129200000Y-147900000D01*
X102200000Y-77800000D02*
X100712500Y-77800000D01*
X102600000Y-80800000D02*
X102600000Y-78200000D01*
X102600000Y-78200000D02*
X102200000Y-77800000D01*
X134800000Y-97800000D02*
X135000000Y-97600000D01*
X134800000Y-148000000D02*
X134800000Y-97800000D01*
X128700000Y-147900000D02*
X134700000Y-147900000D01*
X125762500Y-147825000D02*
X127625000Y-147825000D01*
X127625000Y-147825000D02*
X127700000Y-147900000D01*
X103200000Y-81400000D02*
X102600000Y-80800000D01*
%TO.N,/I2S_DOUT*%
X103200000Y-78000000D02*
X100700000Y-75500000D01*
X135500000Y-96800000D02*
X135400000Y-96800000D01*
X100700000Y-75500000D02*
X98812500Y-75500000D01*
X104200000Y-80700000D02*
X103200000Y-79700000D01*
X135500000Y-96900000D02*
X135500000Y-96800000D01*
X103200000Y-79700000D02*
X103200000Y-78000000D01*
X135500000Y-150500000D02*
X136800000Y-149200000D01*
X125762500Y-148475000D02*
X131725000Y-148475000D01*
X104200000Y-81100000D02*
X104200000Y-80700000D01*
X136800000Y-98200000D02*
X135500000Y-96900000D01*
X136800000Y-149200000D02*
X136800000Y-98200000D01*
X135400000Y-96800000D02*
X135400000Y-96800000D01*
X135500000Y-151900000D02*
X135500000Y-150500000D01*
X134900000Y-152000000D02*
X135200000Y-152000000D01*
X131775000Y-148475000D02*
X135200000Y-151900000D01*
%TO.N,/I2S_BCK*%
X100812500Y-80000000D02*
X100812500Y-80012500D01*
X125762500Y-149125000D02*
X129225000Y-149125000D01*
X136100000Y-156000000D02*
X137600000Y-154500000D01*
X129225000Y-149125000D02*
X130625000Y-150525000D01*
X100812500Y-80012500D02*
X102100000Y-81300000D01*
X130625000Y-150525000D02*
X136100000Y-156000000D01*
X137600000Y-154500000D02*
X137600000Y-98600000D01*
%TO.N,/MUTE*%
X125762500Y-146525000D02*
X124825000Y-146525000D01*
X110000000Y-109500000D02*
X110000000Y-117000000D01*
X87205000Y-80610000D02*
X87205000Y-86705000D01*
X110000000Y-117000000D02*
X113900000Y-120900000D01*
X87205000Y-86705000D02*
X110000000Y-109500000D01*
X113900000Y-120900000D02*
X113900000Y-127000000D01*
X113900000Y-127000000D02*
X118700000Y-131800000D01*
X124825000Y-146525000D02*
X124400000Y-146100000D01*
%TO.N,Net-(D13-A)*%
X124300000Y-80700000D02*
X126450000Y-80700000D01*
%TO.N,/MCU2/TX_LED*%
X119300000Y-137900000D02*
X115600000Y-137900000D01*
X115600000Y-137900000D02*
X113700000Y-139800000D01*
X96100000Y-163400000D02*
X96100000Y-163200000D01*
X81900000Y-165600000D02*
X93900000Y-165600000D01*
X134300000Y-120100000D02*
X119300000Y-135100000D01*
X119300000Y-135100000D02*
X119300000Y-137900000D01*
X80732500Y-167857500D02*
X80732500Y-166767500D01*
X134300000Y-93800000D02*
X134300000Y-120100000D01*
X80732500Y-166767500D02*
X81900000Y-165600000D01*
X128325000Y-89600000D02*
X130100000Y-89600000D01*
X96100000Y-163200000D02*
X96100000Y-161500000D01*
X130100000Y-89600000D02*
X134300000Y-93800000D01*
X93900000Y-165600000D02*
X96100000Y-163400000D01*
%TO.N,/MISO*%
X85935000Y-80610000D02*
X85935000Y-86635000D01*
X85935000Y-86635000D02*
X107900000Y-108600000D01*
%TO.N,/CS*%
X93135000Y-184900000D02*
X95800000Y-184900000D01*
X82125000Y-80610000D02*
X82125000Y-87825000D01*
X82125000Y-87825000D02*
X99000000Y-104700000D01*
D64*
X93150000Y-185062500D02*
X93112500Y-185100000D01*
D65*
X99000000Y-104700000D02*
X99000000Y-105500000D01*
X95800000Y-184900000D02*
X99000000Y-181700000D01*
D64*
%TO.N,/MCU2/DP_N*%
X82672500Y-177305686D02*
X80232500Y-174865686D01*
X80232500Y-172157500D02*
X80332500Y-172057500D01*
X80232500Y-174865686D02*
X80232500Y-172157500D01*
X82672500Y-179445000D02*
X82672500Y-177305686D01*
X91877650Y-177300000D02*
X90222500Y-177300000D01*
X83712500Y-177000000D02*
X83672500Y-177040000D01*
X83672500Y-179445000D02*
X83672500Y-177040000D01*
X90222500Y-177300000D02*
X89922500Y-177000000D01*
X81367500Y-174735000D02*
X81367500Y-173057500D01*
X83672500Y-177040000D02*
X81367500Y-174735000D01*
X80332500Y-172057500D02*
X81167500Y-172057500D01*
X81167500Y-172057500D02*
X81367500Y-172257500D01*
X81367500Y-172257500D02*
X81367500Y-173057500D01*
X89922500Y-177000000D02*
X83712500Y-177000000D01*
D65*
%TO.N,Net-(Q2-G)*%
X69200000Y-157900000D02*
X69800000Y-157300000D01*
X69200000Y-165600000D02*
X69200000Y-157900000D01*
X69762500Y-166162500D02*
X69200000Y-165600000D01*
X69800000Y-157300000D02*
X71700000Y-157300000D01*
X71700000Y-157300000D02*
X72037500Y-157637500D01*
X70150000Y-166162500D02*
X69762500Y-166162500D01*
X72037500Y-157637500D02*
X72037500Y-158600000D01*
%TO.N,Net-(Q2-S)*%
X84930000Y-170970000D02*
X86447500Y-169452500D01*
X68737500Y-157675000D02*
X68737500Y-169737500D01*
X71100000Y-170770000D02*
X71300000Y-170970000D01*
X71100000Y-168037500D02*
X71100000Y-170770000D01*
X70212500Y-156200000D02*
X68737500Y-157675000D01*
X86447500Y-169452500D02*
X86447500Y-167857500D01*
X68737500Y-169737500D02*
X69970000Y-170970000D01*
X71040000Y-170970000D02*
X71300000Y-170970000D01*
X71300000Y-170970000D02*
X84930000Y-170970000D01*
X69970000Y-170970000D02*
X71040000Y-170970000D01*
%TO.N,Net-(Q3-G)*%
X70400000Y-160200000D02*
X70300000Y-160300000D01*
X70150000Y-161562500D02*
X70150000Y-160450000D01*
X73337500Y-156600000D02*
X72937500Y-156200000D01*
X73337500Y-159437500D02*
X73337500Y-156600000D01*
X70150000Y-160450000D02*
X70400000Y-160200000D01*
X72937500Y-156200000D02*
X72037500Y-156200000D01*
%TO.N,/EN*%
X79600000Y-67100000D02*
X79600000Y-76000000D01*
X128900000Y-73250000D02*
X128900000Y-75000000D01*
X77890000Y-65390000D02*
X79600000Y-67100000D01*
X128912500Y-73162500D02*
X128950000Y-73200000D01*
X128975000Y-70837500D02*
X128912500Y-70900000D01*
X79600000Y-76000000D02*
X81500000Y-77900000D01*
X128950000Y-73200000D02*
X128900000Y-73250000D01*
X126400000Y-77500000D02*
X119200000Y-77500000D01*
X71100000Y-163437500D02*
X72362500Y-164700000D01*
X119200000Y-77500000D02*
X114700000Y-82000000D01*
X72362500Y-164700000D02*
X74500000Y-164700000D01*
X128975000Y-68775000D02*
X128975000Y-70837500D01*
X112900000Y-84100000D02*
X112800000Y-84000000D01*
X128912500Y-70900000D02*
X128912500Y-73162500D01*
X74500000Y-164700000D02*
X74800000Y-164400000D01*
X114700000Y-82000000D02*
X114700000Y-82100000D01*
X128900000Y-75000000D02*
X126400000Y-77500000D01*
X76820000Y-65390000D02*
X77890000Y-65390000D01*
X128975000Y-64625000D02*
X128975000Y-68775000D01*
%TO.N,Net-(Q3-D)*%
X84800000Y-170400000D02*
X81100000Y-170400000D01*
X85812500Y-167857500D02*
X85812500Y-168987500D01*
X75800000Y-161600000D02*
X72087500Y-161600000D01*
X71400000Y-161200000D02*
X71762500Y-161562500D01*
X72087500Y-161600000D02*
X72050000Y-161562500D01*
X85800000Y-169000000D02*
X85800000Y-169400000D01*
X70212500Y-158600000D02*
X70212500Y-158712500D01*
X70212500Y-158712500D02*
X71400000Y-159900000D01*
X85812500Y-168987500D02*
X85800000Y-169000000D01*
X77200000Y-163000000D02*
X75800000Y-161600000D01*
X77200000Y-166500000D02*
X77200000Y-163000000D01*
X71400000Y-159900000D02*
X71400000Y-161200000D01*
X85800000Y-169400000D02*
X84800000Y-170400000D01*
X71762500Y-161562500D02*
X72050000Y-161562500D01*
X81100000Y-170400000D02*
X77200000Y-166500000D01*
%TO.N,Net-(U4-IO4{slash}ADC1_CH3)*%
X74340000Y-66660000D02*
X76550000Y-66660000D01*
X68900000Y-67012500D02*
X68900000Y-69187500D01*
X73950000Y-67050000D02*
X74340000Y-66660000D01*
X71800000Y-67050000D02*
X73950000Y-67050000D01*
X71800000Y-67050000D02*
X68937500Y-67050000D01*
X68937500Y-67050000D02*
X68900000Y-67012500D01*
%TO.N,/GPIO40*%
X94380000Y-71800000D02*
X103780000Y-71800000D01*
X103780000Y-71800000D02*
X104350000Y-72370000D01*
X94050000Y-71470000D02*
X94380000Y-71800000D01*
%TO.N,/GPIO38*%
X104350000Y-77150000D02*
X104350000Y-77450000D01*
X94050000Y-74010000D02*
X101210000Y-74010000D01*
X101210000Y-74010000D02*
X104350000Y-77150000D01*
%TO.N,/GPIO39*%
X104350000Y-74650000D02*
X104350000Y-74910000D01*
X94050000Y-72740000D02*
X94310000Y-73000000D01*
X102700000Y-73000000D02*
X104350000Y-74650000D01*
X94310000Y-73000000D02*
X102700000Y-73000000D01*
%TO.N,/GPIO16*%
X98000000Y-64900000D02*
X97900000Y-64900000D01*
X100700000Y-64800000D02*
X98100000Y-64800000D01*
X97900000Y-64900000D02*
X97900000Y-65000000D01*
%TO.N,/RAD_IN2*%
X78160000Y-71740000D02*
X78200000Y-71700000D01*
%TO.N,/GPIO16*%
X98100000Y-64800000D02*
X98000000Y-64900000D01*
X103190000Y-67290000D02*
X100700000Y-64800000D01*
%TO.N,/RAD_IN2*%
X76550000Y-71740000D02*
X78160000Y-71740000D01*
%TO.N,/GPIO16*%
X97900000Y-65000000D02*
X97900000Y-65000000D01*
X104350000Y-67290000D02*
X103190000Y-67290000D01*
%TO.N,/GPIO42*%
X103030000Y-68930000D02*
X104171250Y-70071250D01*
X94050000Y-68930000D02*
X103030000Y-68930000D01*
%TO.N,/RAD_IN2*%
X104350000Y-64750000D02*
X103600000Y-64000000D01*
X103600000Y-64000000D02*
X96900000Y-64000000D01*
X96900000Y-64000000D02*
X97000000Y-64100000D01*
%TO.N,Net-(Q4-C)*%
X60850000Y-169275000D02*
X60850000Y-174250000D01*
X60850000Y-174250000D02*
X64800000Y-178200000D01*
%TO.N,Net-(Q4-B)*%
X61762500Y-167362500D02*
X61800000Y-167400000D01*
X61762500Y-164737500D02*
X61762500Y-167362500D01*
D71*
%TO.N,/BEEP*%
X79000000Y-70000000D02*
X79000000Y-76700000D01*
X78200000Y-69200000D02*
X79000000Y-70000000D01*
X80700000Y-78500000D02*
X80800000Y-78500000D01*
X80700000Y-78400000D02*
X80700000Y-78500000D01*
X79000000Y-76700000D02*
X80700000Y-78400000D01*
X76820000Y-69200000D02*
X78200000Y-69200000D01*
X80800000Y-78500000D02*
X80700000Y-78400000D01*
D65*
%TO.N,/SCK*%
X84665000Y-80610000D02*
X84665000Y-86665000D01*
X109200000Y-111200000D02*
X109400000Y-111200000D01*
X84665000Y-86665000D02*
X109200000Y-111200000D01*
%TO.N,Net-(C4-Pad2)*%
X85800000Y-152050000D02*
X85250000Y-151500000D01*
X87000000Y-153800000D02*
X85800000Y-152600000D01*
X85800000Y-152600000D02*
X85800000Y-152050000D01*
X87112500Y-153800000D02*
X87000000Y-153800000D01*
%TO.N,Net-(U6-CAPP)*%
X117375000Y-145225000D02*
X117100000Y-144950000D01*
X120037500Y-145225000D02*
X117375000Y-145225000D01*
%TO.N,Net-(U6-CAPM)*%
X120037500Y-146525000D02*
X118875000Y-146525000D01*
X118450000Y-146850000D02*
X117300000Y-146850000D01*
X118875000Y-146525000D02*
X118500000Y-146900000D01*
X118500000Y-146900000D02*
X118450000Y-146850000D01*
X117300000Y-146850000D02*
X117100000Y-147050000D01*
%TO.N,Net-(U6-LDOO)*%
X129350000Y-145200000D02*
X129350000Y-142800000D01*
X125762500Y-145875000D02*
X128675000Y-145875000D01*
X128675000Y-145875000D02*
X129350000Y-145200000D01*
%TO.N,Net-(J1-CC1)*%
X109350000Y-179345000D02*
X109350000Y-178050000D01*
X109112500Y-177812500D02*
X109350000Y-178050000D01*
X109112500Y-177812500D02*
X109112500Y-176200000D01*
%TO.N,Net-(J1-CC2)*%
X104212500Y-183000000D02*
X104212500Y-182187500D01*
X112350000Y-179345000D02*
X112350000Y-180850000D01*
X104212500Y-182187500D02*
X104700000Y-181700000D01*
X107700000Y-181800000D02*
X107600000Y-181900000D01*
X112350000Y-180850000D02*
X111400000Y-181800000D01*
X111400000Y-181800000D02*
X107700000Y-181800000D01*
D64*
%TO.N,Net-(J2-CC1)*%
X79365184Y-175200000D02*
X76335000Y-175200000D01*
X82172500Y-178007316D02*
X79365184Y-175200000D01*
X82172500Y-179445000D02*
X82172500Y-178007316D01*
X76335000Y-175200000D02*
X75335000Y-176200000D01*
%TO.N,Net-(J2-CC2)*%
X85172500Y-178250000D02*
X85222500Y-178200000D01*
X75335000Y-173900000D02*
X78822500Y-173900000D01*
X78822500Y-173900000D02*
X79522500Y-174600000D01*
X85172500Y-179445000D02*
X85172500Y-178250000D01*
D65*
%TO.N,Net-(U6-OUTL)*%
X114954000Y-147554000D02*
X115400000Y-148000000D01*
X114954000Y-143300000D02*
X114954000Y-147554000D01*
X118225000Y-148000000D02*
X118400000Y-147825000D01*
X115529000Y-142725000D02*
X114954000Y-143300000D01*
X120287500Y-142725000D02*
X115529000Y-142725000D01*
X115400000Y-148000000D02*
X118225000Y-148000000D01*
X118400000Y-147825000D02*
X120037500Y-147825000D01*
%TO.N,Net-(U6-OUTR)*%
X120037500Y-148475000D02*
X115075000Y-148475000D01*
X115075000Y-148475000D02*
X114500000Y-147900000D01*
X114500000Y-141325000D02*
X115300000Y-140525000D01*
X115300000Y-140525000D02*
X120287500Y-140525000D01*
X114500000Y-147900000D02*
X114500000Y-141325000D01*
%TO.N,Net-(U6-VNEG)*%
X121575000Y-147175000D02*
X120037500Y-147175000D01*
X121600000Y-152800000D02*
X122400000Y-152000000D01*
X122400000Y-152000000D02*
X122400000Y-148000000D01*
X122400000Y-148000000D02*
X121575000Y-147175000D01*
X119600000Y-152800000D02*
X121600000Y-152800000D01*
%TO.N,Net-(D2-A)*%
X124300000Y-87300000D02*
X126450000Y-87300000D01*
%TO.N,Net-(U4-IO35)*%
X97100000Y-79700000D02*
X97150000Y-79750000D01*
X92600000Y-78100000D02*
X92500000Y-78100000D01*
X97400000Y-80000000D02*
X97100000Y-79700000D01*
X110800000Y-112100000D02*
X110800000Y-97600000D01*
X98987500Y-80000000D02*
X97400000Y-80000000D01*
X95200000Y-78700000D02*
X94590000Y-78090000D01*
X110800000Y-97600000D02*
X95200000Y-82000000D01*
X110850000Y-112150000D02*
X110800000Y-112100000D01*
X92600000Y-78100000D02*
X92600000Y-78100000D01*
X94590000Y-78090000D02*
X94050000Y-78090000D01*
X92500000Y-78100000D02*
X92500000Y-78200000D01*
X92500000Y-78200000D02*
X92610000Y-78090000D01*
X95200000Y-82000000D02*
X95200000Y-78700000D01*
X94050000Y-78090000D02*
X92610000Y-78090000D01*
D64*
%TO.N,/MCU2/DP_P*%
X86373971Y-177400000D02*
X86273971Y-177500000D01*
X84422500Y-177500000D02*
X84172500Y-177750000D01*
X86273971Y-177500000D02*
X84422500Y-177500000D01*
X89322500Y-177500000D02*
X86971029Y-177500000D01*
X80790000Y-174857500D02*
X80732500Y-174800000D01*
X83990000Y-180757500D02*
X83390000Y-180757500D01*
X83172500Y-179445000D02*
X83172500Y-177240000D01*
X80732500Y-174800000D02*
X80732500Y-173057500D01*
X92302500Y-179600000D02*
X91422500Y-179600000D01*
X91422500Y-179600000D02*
X89322500Y-177500000D01*
X84172500Y-179445000D02*
X84172500Y-180575000D01*
X86971029Y-177500000D02*
X86871029Y-177400000D01*
X83172500Y-180540000D02*
X83172500Y-179445000D01*
X83172500Y-177240000D02*
X80790000Y-174857500D01*
X83390000Y-180757500D02*
X83172500Y-180540000D01*
X84172500Y-180575000D02*
X83990000Y-180757500D01*
X84172500Y-177750000D02*
X84172500Y-179445000D01*
X86871029Y-177400000D02*
X86373971Y-177400000D01*
D65*
%TO.N,Net-(U4-IO36)*%
X96800000Y-77200000D02*
X97000000Y-77500000D01*
X92700000Y-76800000D02*
X92700000Y-76800000D01*
X92700000Y-76800000D02*
X92600000Y-76800000D01*
X92600000Y-76700000D02*
X92720000Y-76820000D01*
X94050000Y-76820000D02*
X92720000Y-76820000D01*
X92600000Y-76800000D02*
X92600000Y-76700000D01*
X98887500Y-77800000D02*
X97300000Y-77800000D01*
X97300000Y-77800000D02*
X96800000Y-77200000D01*
%TO.N,Net-(D8-A)*%
X124200000Y-91900000D02*
X126450000Y-91900000D01*
%TO.N,Net-(D9-A)*%
X124200000Y-89600000D02*
X126450000Y-89600000D01*
%TO.N,+3.3V*%
X92200000Y-85350000D02*
X92250000Y-85300000D01*
D66*
X85760800Y-135500000D02*
X83446800Y-133186000D01*
X119500000Y-93000000D02*
X120500000Y-92000000D01*
X100000000Y-184100000D02*
X98800000Y-185300000D01*
D65*
X71800000Y-76925000D02*
X69312500Y-76925000D01*
X121800000Y-144575000D02*
X121800000Y-144700000D01*
X124712500Y-152325000D02*
X124000000Y-151612500D01*
X122100000Y-144575000D02*
X123275000Y-144575000D01*
X123300000Y-144600000D02*
X123325000Y-144575000D01*
D66*
X112412500Y-81512500D02*
X118200000Y-87300000D01*
X57200000Y-181600000D02*
X57200000Y-178200000D01*
X118200000Y-87300000D02*
X122475000Y-87300000D01*
X130900000Y-63100000D02*
X125300000Y-63100000D01*
X119500000Y-94900000D02*
X119500000Y-93000000D01*
D65*
X121200000Y-149100000D02*
X121000000Y-149100000D01*
D66*
X112412500Y-78350000D02*
X112412500Y-81512500D01*
X101700000Y-171700000D02*
X100000000Y-173400000D01*
X120500000Y-92000000D02*
X122275000Y-92000000D01*
D65*
X123275000Y-144575000D02*
X123300000Y-144600000D01*
D66*
X117150000Y-97250000D02*
X117150000Y-100000000D01*
D65*
X124000000Y-147887500D02*
X123600000Y-147487500D01*
D66*
X83332800Y-133300000D02*
X83446800Y-133186000D01*
D65*
X69312500Y-76925000D02*
X69300000Y-76912500D01*
D66*
X88948100Y-135500000D02*
X85760800Y-135500000D01*
D65*
X124000000Y-151612500D02*
X124000000Y-149300000D01*
D66*
X100000000Y-173400000D02*
X100000000Y-184100000D01*
D65*
X126987500Y-70800000D02*
X127087500Y-70900000D01*
D66*
X124537500Y-154700000D02*
X123200000Y-154700000D01*
D65*
X92200000Y-87500000D02*
X92200000Y-85350000D01*
D66*
X122275000Y-92000000D02*
X122375000Y-91900000D01*
X132200000Y-70800000D02*
X131000000Y-69600000D01*
X118900000Y-95500000D02*
X117150000Y-97250000D01*
D65*
X124712500Y-154525000D02*
X124537500Y-154700000D01*
D66*
X133887500Y-70800000D02*
X132200000Y-70800000D01*
D65*
X123325000Y-144575000D02*
X125762500Y-144575000D01*
D66*
X76900000Y-64200000D02*
X78000000Y-64200000D01*
X80198100Y-133300000D02*
X83332800Y-133300000D01*
D65*
X120037500Y-149125000D02*
X120975000Y-149125000D01*
D66*
X62500000Y-185700000D02*
X61300000Y-185700000D01*
X131000000Y-69600000D02*
X131000000Y-63200000D01*
X101700000Y-171700000D02*
X109800000Y-163600000D01*
X61300000Y-185700000D02*
X57200000Y-181600000D01*
X131000000Y-63200000D02*
X130900000Y-63100000D01*
D65*
X124000000Y-149300000D02*
X124000000Y-147887500D01*
D66*
X125300000Y-63100000D02*
X123900000Y-64500000D01*
D65*
X120037500Y-144575000D02*
X121800000Y-144575000D01*
D66*
X122475000Y-91800000D02*
X122375000Y-91900000D01*
D65*
X124712500Y-152325000D02*
X124712500Y-154525000D01*
X120975000Y-149125000D02*
X121200000Y-149100000D01*
X121800000Y-144575000D02*
X122100000Y-144575000D01*
D66*
X71800000Y-76925000D02*
X71800000Y-78500000D01*
D65*
X121800000Y-144700000D02*
X123600000Y-146500000D01*
X123600000Y-146500000D02*
X123600000Y-147487500D01*
D66*
X118900000Y-95500000D02*
X119500000Y-94900000D01*
X122475000Y-87300000D02*
X122475000Y-91800000D01*
D65*
%TO.N,/SDA*%
X71800000Y-75100000D02*
X76370000Y-75100000D01*
X76370000Y-75100000D02*
X76550000Y-75280000D01*
%TO.N,/SCL*%
X70377500Y-74010000D02*
X69300000Y-75087500D01*
X76550000Y-74010000D02*
X70377500Y-74010000D01*
D64*
%TO.N,/USB_D-*%
X109850000Y-179345000D02*
X109850000Y-178375000D01*
X110850000Y-177850000D02*
X110850000Y-179345000D01*
X109850000Y-178375000D02*
X110375000Y-177850000D01*
X110375000Y-177850000D02*
X110850000Y-177850000D01*
%TO.N,/USB_D+*%
X74400000Y-83400000D02*
X95700000Y-104700000D01*
X111350000Y-178050000D02*
X111350000Y-179345000D01*
X114600000Y-176300000D02*
X117077650Y-176300000D01*
X74840000Y-79360000D02*
X74400000Y-79800000D01*
X110600000Y-180300000D02*
X111100000Y-180300000D01*
X113100000Y-176300000D02*
X111350000Y-178050000D01*
X76550000Y-79090000D02*
X76550000Y-79360000D01*
X110350000Y-179345000D02*
X110350000Y-180050000D01*
X111100000Y-180300000D02*
X111350000Y-180050000D01*
X110350000Y-180050000D02*
X110600000Y-180300000D01*
X114600000Y-176300000D02*
X113100000Y-176300000D01*
X111350000Y-180050000D02*
X111350000Y-179345000D01*
X95700000Y-104700000D02*
X95800000Y-104800000D01*
X76550000Y-79360000D02*
X74840000Y-79360000D01*
X74400000Y-79800000D02*
X74400000Y-83400000D01*
D65*
%TO.N,/GPIO0*%
X93700000Y-79710000D02*
X94050000Y-79360000D01*
X128400000Y-78300000D02*
X119200000Y-78300000D01*
X135712500Y-70800000D02*
X135775000Y-70737500D01*
X93700000Y-81600000D02*
X93700000Y-79710000D01*
X130500000Y-76200000D02*
X128400000Y-78300000D01*
X135775000Y-70737500D02*
X135775000Y-68675000D01*
X98500000Y-87300000D02*
X94300000Y-83100000D01*
X135750000Y-73200000D02*
X132750000Y-76200000D01*
X135750000Y-73200000D02*
X135750000Y-70837500D01*
X73937500Y-166162500D02*
X74400000Y-165700000D01*
X135750000Y-70837500D02*
X135712500Y-70800000D01*
X117200000Y-80300000D02*
X117200000Y-83200000D01*
X119200000Y-78300000D02*
X117200000Y-80300000D01*
X94300000Y-79720000D02*
X94660000Y-79360000D01*
X72050000Y-166162500D02*
X73937500Y-166162500D01*
X93300000Y-82000000D02*
X93700000Y-81600000D01*
X117200000Y-83200000D02*
X116800000Y-83600000D01*
X135775000Y-68675000D02*
X135775000Y-64525000D01*
X99300000Y-87300000D02*
X98500000Y-87300000D01*
X94300000Y-83100000D02*
X94300000Y-79720000D01*
X132750000Y-76200000D02*
X130500000Y-76200000D01*
X94660000Y-79360000D02*
X94050000Y-79360000D01*
D74*
%TO.N,VBUS*%
X78022500Y-176800000D02*
X79822500Y-176800000D01*
D76*
X77022500Y-183025000D02*
X76010000Y-184037500D01*
D72*
X81022500Y-179445000D02*
X81022500Y-178000000D01*
D66*
X119075000Y-80525000D02*
X119250000Y-80700000D01*
D65*
X81400000Y-180967500D02*
X81400000Y-180500000D01*
D72*
X84842500Y-181457500D02*
X84800000Y-181500000D01*
D74*
X77022500Y-177800000D02*
X78022500Y-176800000D01*
D72*
X85300000Y-180900000D02*
X84842500Y-181357500D01*
D66*
X118459000Y-71000000D02*
X117300000Y-71000000D01*
X83446800Y-126348700D02*
X83446800Y-128614000D01*
D74*
X77022500Y-183025000D02*
X77022500Y-177800000D01*
D72*
X84842500Y-181357500D02*
X84842500Y-181457500D01*
D66*
X119250000Y-80700000D02*
X122475000Y-80700000D01*
D76*
X76010000Y-184037500D02*
X74000000Y-184037500D01*
D72*
X108200000Y-179345000D02*
X108200000Y-178000000D01*
D64*
X85822500Y-179445000D02*
X85822500Y-180017222D01*
D66*
X118487500Y-70971500D02*
X118459000Y-71000000D01*
X117300000Y-71000000D02*
X115800000Y-72500000D01*
D65*
X85300000Y-180539722D02*
X85300000Y-180900000D01*
D72*
X84800000Y-181500000D02*
X84757500Y-181457500D01*
D64*
X81222500Y-180322500D02*
X81222500Y-179645000D01*
D66*
X88648100Y-126100000D02*
X83798100Y-126100000D01*
D64*
X81400000Y-180500000D02*
X81222500Y-180322500D01*
X85822500Y-180017222D02*
X85300000Y-180539722D01*
D66*
X83298100Y-126200000D02*
X83446800Y-126348700D01*
D65*
X81890000Y-181457500D02*
X81400000Y-180967500D01*
D66*
X115800000Y-72500000D02*
X115800000Y-78000000D01*
D65*
X113000000Y-179345000D02*
X113000000Y-178000000D01*
D74*
X79822500Y-176800000D02*
X81022500Y-178000000D01*
D72*
X84757500Y-181457500D02*
X81890000Y-181457500D01*
D65*
%TO.N,/GPIO46*%
X112100000Y-83500000D02*
X112300000Y-83300000D01*
X94600000Y-102200000D02*
X94500000Y-102100000D01*
X120350000Y-75150000D02*
X114200000Y-81300000D01*
X80800000Y-86800000D02*
X80800000Y-88400000D01*
X120375000Y-68746500D02*
X120375000Y-64596500D01*
X120350000Y-71009000D02*
X120312500Y-70971500D01*
X120350000Y-73400000D02*
X120350000Y-75150000D01*
X120312500Y-68809000D02*
X120375000Y-68746500D01*
X109900000Y-86400000D02*
X112100000Y-84200000D01*
X104500000Y-86400000D02*
X109900000Y-86400000D01*
X79585000Y-80340000D02*
X79585000Y-85585000D01*
X79585000Y-85585000D02*
X80800000Y-86800000D01*
X112100000Y-84200000D02*
X112100000Y-83500000D01*
X80800000Y-88400000D02*
X94600000Y-102200000D01*
X97100000Y-95200000D02*
X100300000Y-92000000D01*
X120350000Y-73400000D02*
X120350000Y-71009000D01*
X103900000Y-92000000D02*
X103700000Y-92000000D01*
X100300000Y-92000000D02*
X103900000Y-92000000D01*
X120312500Y-70971500D02*
X120312500Y-68809000D01*
%TO.N,Net-(D14-A)*%
X124300000Y-82800000D02*
X126450000Y-82800000D01*
D64*
%TO.N,Net-(U5-3V3OUT)*%
X82001765Y-174520735D02*
X82002500Y-174520000D01*
D65*
X91750000Y-169600000D02*
X91750000Y-167750000D01*
X85177500Y-168622500D02*
X85177500Y-167857500D01*
D64*
X82002500Y-174520000D02*
X82002500Y-173057500D01*
D65*
X90700000Y-166700000D02*
X85377500Y-166700000D01*
X85377500Y-166700000D02*
X85177500Y-166900000D01*
X91750000Y-167750000D02*
X90700000Y-166700000D01*
X85177500Y-166900000D02*
X85177500Y-167857500D01*
X84200000Y-169600000D02*
X85177500Y-168622500D01*
%TO.N,Net-(U4-IO37)*%
X96200000Y-75550000D02*
X94050000Y-75550000D01*
X96250000Y-75500000D02*
X96200000Y-75550000D01*
X96987500Y-75500000D02*
X96250000Y-75500000D01*
%TO.N,AGND*%
X127937500Y-154525000D02*
X128000000Y-154500000D01*
X127012500Y-140525000D02*
X127012500Y-142675000D01*
X127012500Y-140275000D02*
X128062500Y-139225000D01*
X127012500Y-142675000D02*
X126962500Y-142725000D01*
X117300000Y-136100000D02*
X117900000Y-135500000D01*
X120037500Y-150425000D02*
X118775000Y-150425000D01*
X120037500Y-145875000D02*
X118725000Y-145875000D01*
X125787500Y-145200000D02*
X125762500Y-145225000D01*
X127012500Y-140525000D02*
X127012500Y-140275000D01*
X130562500Y-140525000D02*
X131362500Y-141325000D01*
X128075000Y-152325000D02*
X128100000Y-152300000D01*
X128075000Y-147175000D02*
X125762500Y-147175000D01*
X131362500Y-141325000D02*
X131250000Y-141437500D01*
X126612500Y-152325000D02*
X128075000Y-152325000D01*
X128000000Y-154500000D02*
X127987500Y-154525000D01*
X118700000Y-145900000D02*
X118500000Y-145900000D01*
X125762500Y-149775000D02*
X125762500Y-150425000D01*
X127012500Y-140525000D02*
X130562500Y-140525000D01*
X127200000Y-145200000D02*
X127100000Y-145200000D01*
X131250000Y-145200000D02*
X131250000Y-142800000D01*
X126612500Y-154525000D02*
X127937500Y-154525000D01*
X128100000Y-147200000D02*
X128075000Y-147175000D01*
X127987500Y-154525000D02*
X127962500Y-154525000D01*
X116050000Y-136100000D02*
X117300000Y-136100000D01*
X120037500Y-149775000D02*
X120037500Y-150425000D01*
X118600000Y-150700000D02*
X118700000Y-150500000D01*
X118500000Y-145900000D02*
X118725000Y-145875000D01*
X126612500Y-151275000D02*
X126612500Y-152325000D01*
X118775000Y-150425000D02*
X118600000Y-150700000D01*
X131250000Y-141437500D02*
X131250000Y-142800000D01*
X125762500Y-150425000D02*
X126612500Y-151275000D01*
X125787500Y-145200000D02*
X127200000Y-145200000D01*
X117700000Y-152800000D02*
X117700000Y-151300000D01*
X126612500Y-152325000D02*
X126612500Y-154525000D01*
%TO.N,/MCU2/TX*%
X96800000Y-120600000D02*
X96800000Y-120600000D01*
X96900000Y-120500000D02*
X96900000Y-120500000D01*
X94160000Y-66500000D02*
X96400000Y-66500000D01*
X96500000Y-66400000D02*
X96600000Y-66500000D01*
X96400000Y-66500000D02*
X96500000Y-66400000D01*
X94050000Y-66390000D02*
X93960000Y-66300000D01*
X94050000Y-66390000D02*
X94160000Y-66500000D01*
X96900000Y-120500000D02*
X96800000Y-120500000D01*
%TO.N,/MCU2/RX*%
X94290000Y-67900000D02*
X94050000Y-67660000D01*
X98220000Y-67900000D02*
X94290000Y-67900000D01*
X98460000Y-67660000D02*
X98220000Y-67900000D01*
X87100000Y-172405000D02*
X96095000Y-172405000D01*
X86447500Y-173057500D02*
X87100000Y-172405000D01*
X96095000Y-172405000D02*
X98300000Y-170200000D01*
%TO.N,Net-(C1-Pad1)*%
X51850000Y-83150000D02*
X51900000Y-83100000D01*
D70*
X61900000Y-99800000D02*
X62742500Y-100642500D01*
D65*
X56150000Y-64350000D02*
X56200000Y-64300000D01*
X56050000Y-64550000D02*
X56100000Y-64500000D01*
D70*
X62742500Y-100642500D02*
X62742500Y-102575000D01*
D69*
X56150000Y-68600000D02*
X56150000Y-64350000D01*
D65*
X51950000Y-82950000D02*
X52000000Y-82900000D01*
D69*
X54050000Y-82800000D02*
X52100000Y-82800000D01*
%TO.N,/Power2/CATHODE*%
X46570000Y-68600000D02*
X51050000Y-68600000D01*
D65*
X46570000Y-68600000D02*
X46700000Y-68470000D01*
%TO.N,Net-(D4-A)*%
X124212500Y-94300000D02*
X126562500Y-94300000D01*
%TO.N,/BLINK*%
X101200000Y-67500000D02*
X101300000Y-67500000D01*
X122387500Y-96112500D02*
X122300000Y-96200000D01*
X100100000Y-66300000D02*
X101200000Y-67400000D01*
X122200000Y-96200000D02*
X122200000Y-96300000D01*
X101200000Y-67400000D02*
X101200000Y-67500000D01*
X96790000Y-65390000D02*
X97700000Y-66300000D01*
X122200000Y-96300000D02*
X122300000Y-96200000D01*
X94050000Y-65390000D02*
X96790000Y-65390000D01*
X97700000Y-66300000D02*
X100100000Y-66300000D01*
X101300000Y-67500000D02*
X101200000Y-67400000D01*
X122387500Y-94300000D02*
X122387500Y-96112500D01*
X122300000Y-96200000D02*
X122200000Y-96200000D01*
%TO.N,Net-(D16-A)*%
X126362500Y-85100000D02*
X126462500Y-85000000D01*
X124325000Y-85100000D02*
X126362500Y-85100000D01*
%TO.N,/BAT_SENSE*%
X87100000Y-93700000D02*
X87000000Y-93700000D01*
X81500000Y-86300000D02*
X81500000Y-88300000D01*
X120500000Y-82800000D02*
X119400000Y-83900000D01*
X86900000Y-93700000D02*
X87100000Y-93700000D01*
X81500000Y-88300000D02*
X86900000Y-93700000D01*
X80855000Y-85655000D02*
X81500000Y-86300000D01*
X80855000Y-80610000D02*
X80855000Y-85655000D01*
X122475000Y-82800000D02*
X120500000Y-82800000D01*
D64*
%TO.N,+3.3V*%
X83786250Y-175213750D02*
X83272500Y-174700000D01*
%TD*%
%TA.AperFunction,Conductor*%
%TO.N,Net-(D1-A)*%
G36*
X55195991Y-90059221D02*
G01*
X55199998Y-90067229D01*
X55200028Y-90068037D01*
X55201000Y-90500000D01*
X55201000Y-90500052D01*
X55200028Y-90931962D01*
X55196583Y-90940228D01*
X55188302Y-90943636D01*
X55187494Y-90943606D01*
X54321866Y-90881776D01*
X54313858Y-90877769D01*
X54311000Y-90870106D01*
X54311000Y-90129893D01*
X54314427Y-90121620D01*
X54321863Y-90118224D01*
X55187494Y-90056393D01*
X55195991Y-90059221D01*
G37*
%TD.AperFunction*%
%TD*%
%TA.AperFunction,Conductor*%
%TO.N,Net-(D1-A)*%
G36*
X55212498Y-90056392D02*
G01*
X56078135Y-90118223D01*
X56086142Y-90122230D01*
X56089000Y-90129893D01*
X56089000Y-90870106D01*
X56085573Y-90878379D01*
X56078134Y-90881776D01*
X55212505Y-90943606D01*
X55204008Y-90940778D01*
X55200001Y-90932770D01*
X55199971Y-90931984D01*
X55199000Y-90500000D01*
X55199971Y-90068035D01*
X55203416Y-90059771D01*
X55211697Y-90056363D01*
X55212498Y-90056392D01*
G37*
%TD.AperFunction*%
%TD*%
M02*
