M48
; DRILL file {KiCad 8.0.4} date 2025-02-20T16:09:38-0500
; FORMAT={-:-/ absolute / metric / decimal}
; #@! TF.CreationDate,2025-02-20T16:09:38-05:00
; #@! TF.GenerationSoftware,Kicad,Pcbnew,8.0.4
; #@! TF.FileFunction,Plated,1,4,PTH
FMAT,2
METRIC
; #@! TA.AperFunction,Plated,PTH,ViaDrill
T1C0.300
; #@! TA.AperFunction,Plated,PTH,ViaDrill
T2C0.381
; #@! TA.AperFunction,Plated,PTH,ViaDrill
T3C0.406
; #@! TA.AperFunction,Plated,PTH,ViaDrill
T4C0.500
; #@! TA.AperFunction,Plated,PTH,ComponentDrill
T5C0.600
; #@! TA.AperFunction,Plated,PTH,ViaDrill
T6C0.700
; #@! TA.AperFunction,Plated,PTH,ViaDrill
T7C0.800
; #@! TA.AperFunction,Plated,PTH,ComponentDrill
T8C0.800
; #@! TA.AperFunction,Plated,PTH,ViaDrill
T9C1.000
; #@! TA.AperFunction,Plated,PTH,ComponentDrill
T10C1.000
; #@! TA.AperFunction,Plated,PTH,ComponentDrill
T11C1.020
%
G90
G05
T1
X51.5Y-74.5
X53.2Y-77.8
X58.2Y-72.3
X58.8Y-167.3
X59.3Y-104.5
X66.0Y-78.4
X66.5Y-62.9
X67.1Y-65.2
X70.4Y-160.2
X70.9Y-137.1
X73.3Y-159.4
X73.922Y-177.5
X74.0Y-117.3
X74.0Y-134.0
X74.4Y-165.7
X74.6Y-172.5
X74.9Y-164.3
X75.35Y-101.45
X77.6Y-100.6
X78.1Y-73.0
X78.2Y-71.7
X79.1Y-177.9
X79.522Y-174.6
X79.75Y-103.65
X80.6Y-63.7
X80.7Y-78.5
X80.8Y-151.3
X81.5Y-77.9
X82.002Y-174.521
X82.25Y-145.25
X82.25Y-150.65
X83.3Y-166.4
X83.922Y-174.3
X84.2Y-169.6
X84.8Y-181.5
X85.222Y-178.2
X86.4Y-71.97
X86.623Y-178.0
X87.1Y-93.7
X88.9Y-152.7
X89.6Y-171.0
X90.4Y-173.6
X91.8Y-63.4
X92.1Y-103.5
X92.2Y-65.6
X92.5Y-78.1
X92.6Y-76.8
X93.3Y-82.0
X94.6Y-102.2
X94.85Y-89.0
X94.9Y-183.2
X95.8Y-104.8
X95.8Y-106.9
X96.1Y-161.5
X96.3Y-92.9
X96.4Y-62.8
X96.5Y-66.4
X96.8Y-77.2
X96.8Y-81.5
X96.8Y-120.5
X96.9Y-64.0
X97.1Y-79.7
X97.1Y-95.2
X97.6Y-159.4
X97.9Y-64.9
X98.2Y-172.6
X98.3Y-121.0
X98.6Y-67.8
X99.0Y-105.5
X99.0Y-120.1
X99.3Y-87.3
X101.2Y-67.5
X101.3Y-84.3
X101.7Y-106.1
X102.1Y-81.3
X103.2Y-81.4
X103.4Y-86.8
X103.9Y-92.0
X104.2Y-81.1
X104.5Y-86.4
X104.6Y-99.6
X104.7Y-181.7
X106.8Y-126.0
X107.6Y-181.9
X108.0Y-108.6
X108.2Y-178.0
X109.2Y-111.18
X109.5Y-126.5
X110.3Y-171.4
X110.85Y-112.15
X111.2Y-82.7
X111.6Y-99.8
X111.7Y-88.4
X112.3Y-81.3
X112.4Y-83.2
X112.9Y-84.1
X113.0Y-178.0
X113.5Y-134.5
X113.7Y-139.8
X113.8Y-138.2
X113.9Y-87.0
X113.9Y-178.1
X114.2Y-81.3
X114.6Y-173.2
X114.6Y-176.3
X114.7Y-82.1
X116.8Y-83.6
X117.7Y-151.3
X117.9Y-135.5
X118.2Y-66.6
X118.5Y-145.9
X118.6Y-150.7
X118.7Y-131.8
X118.8Y-74.7
X118.9Y-104.8
X119.4Y-83.9
X120.0Y-85.8
X120.3Y-107.9
X120.4Y-100.0
X121.2Y-149.1
X121.7Y-161.1
X121.9Y-108.6
X122.2Y-96.2
X123.3Y-144.6
X123.4Y-142.725
X124.0Y-149.3
X124.4Y-146.1
X125.6Y-68.8
X125.9Y-74.3
X127.2Y-145.2
X128.0Y-154.5
X128.062Y-139.225
X128.1Y-147.2
X128.1Y-152.3
X131.362Y-141.325
X131.9Y-94.3
X131.928Y-105.9
X132.4Y-68.7
X132.8Y-74.1
X135.0Y-97.6
X135.5Y-96.8
X136.028Y-101.5
X137.6Y-98.6
T2
X55.2Y-90.5
T3
X61.9Y-99.8
T4
X57.1Y-147.2
X67.4Y-133.4
X73.9Y-183.9
X90.0Y-182.5
X94.9Y-180.7
X102.4Y-181.0
X135.828Y-108.1
T6
X109.8Y-163.6
X123.2Y-154.7
T7
X66.9Y-72.2
X70.5Y-99.2
X71.8Y-78.5
X78.0Y-64.2
X80.2Y-135.4
X81.1Y-119.5
X81.3Y-113.2
X83.298Y-126.2
X84.0Y-112.9
X85.8Y-135.5
X89.1Y-82.8
X89.4Y-106.3
X93.5Y-109.0
X94.698Y-138.8
X115.8Y-78.0
X118.9Y-95.5
X119.075Y-80.525
X130.8Y-79.5
T8
X57.2Y-178.2
X64.8Y-178.2
T9
X52.0Y-82.8
X56.2Y-64.2
T10
X60.7Y-66.9
X62.6Y-82.9
X66.9Y-81.9
X70.2Y-83.3
X76.1Y-90.1
X93.5Y-148.9
X109.4Y-84.2
X112.7Y-166.9
X113.5Y-103.56
X113.5Y-106.1
X113.5Y-108.64
X113.5Y-111.18
X113.5Y-113.72
X113.5Y-116.26
X128.4Y-120.2
X134.7Y-147.8
X135.5Y-151.9
X136.0Y-155.9
X136.4Y-174.3
X136.4Y-179.1
T5
G00X79.102Y-179.27
M15
G01X79.102Y-180.37
M16
G05
G00X79.102Y-183.6
M15
G01X79.102Y-184.4
M16
G05
G00X87.742Y-179.27
M15
G01X87.742Y-180.37
M16
G05
G00X87.742Y-183.6
M15
G01X87.742Y-184.4
M16
G05
G00X106.28Y-179.27
M15
G01X106.28Y-180.37
M16
G05
G00X106.28Y-183.6
M15
G01X106.28Y-184.4
M16
G05
G00X114.92Y-179.27
M15
G01X114.92Y-180.37
M16
G05
G00X114.92Y-183.6
M15
G01X114.92Y-184.4
M16
G05
T10
G00X125.05Y-172.95
M15
G01X125.05Y-173.45
M16
G05
G00X129.3Y-178.25
M15
G01X129.3Y-178.75
M16
G05
G00X130.55Y-172.95
M15
G01X130.55Y-173.45
M16
G05
T11
G00X41.12Y-74.962
M15
G01X40.27Y-74.962
M16
G05
G00X41.12Y-82.582
M15
G01X40.27Y-82.582
M16
G05
G00X40.275Y-176.857
M15
G01X41.125Y-176.857
M16
G05
G00X40.275Y-184.477
M15
G01X41.125Y-184.477
M16
G05
M30
