%TF.GenerationSoftware,KiCad,Pcbnew,8.0.4*%
%TF.CreationDate,2025-02-20T16:09:42-05:00*%
%TF.ProjectId,Radiation2,52616469-6174-4696-9f6e-322e6b696361,rev?*%
%TF.SameCoordinates,Original*%
%TF.FileFunction,Drillmap*%
%TF.FilePolarity,Positive*%
%FSLAX45Y45*%
G04 Gerber Fmt 4.5, Leading zero omitted, Abs format (unit mm)*
G04 Created by KiCad (PCBNEW 8.0.4) date 2025-02-20 16:09:42*
%MOMM*%
%LPD*%
G01*
G04 APERTURE LIST*
%ADD10C,0.050000*%
%ADD11C,0.200000*%
%ADD12C,0.100000*%
G04 APERTURE END LIST*
D10*
X3720000Y-6190000D02*
X13920000Y-6190000D01*
X13920000Y-18690000D01*
X3720000Y-18690000D01*
X3720000Y-6190000D01*
D11*
D12*
X8020750Y-17999500D02*
X8085750Y-18064500D01*
X8085750Y-17999500D02*
X8020750Y-18064500D01*
X8598750Y-17999500D02*
X8663750Y-18064500D01*
X8663750Y-17999500D02*
X8598750Y-18064500D01*
X10738500Y-17999500D02*
X10803500Y-18064500D01*
X10803500Y-17999500D02*
X10738500Y-18064500D01*
X11316500Y-17999500D02*
X11381500Y-18064500D01*
X11381500Y-17999500D02*
X11316500Y-18064500D01*
X12829530Y-17510000D02*
G75*
G02*
X12730470Y-17510000I-49530J0D01*
G01*
X12730470Y-17510000D02*
G75*
G02*
X12829530Y-17510000I49530J0D01*
G01*
X12829530Y-18260000D02*
G75*
G02*
X12730470Y-18260000I-49530J0D01*
G01*
X12730470Y-18260000D02*
G75*
G02*
X12829530Y-18260000I49530J0D01*
G01*
D11*
X3978277Y-19003984D02*
X3978277Y-18803984D01*
X3978277Y-18803984D02*
X4025896Y-18803984D01*
X4025896Y-18803984D02*
X4054467Y-18813508D01*
X4054467Y-18813508D02*
X4073515Y-18832555D01*
X4073515Y-18832555D02*
X4083039Y-18851603D01*
X4083039Y-18851603D02*
X4092562Y-18889698D01*
X4092562Y-18889698D02*
X4092562Y-18918270D01*
X4092562Y-18918270D02*
X4083039Y-18956365D01*
X4083039Y-18956365D02*
X4073515Y-18975412D01*
X4073515Y-18975412D02*
X4054467Y-18994460D01*
X4054467Y-18994460D02*
X4025896Y-19003984D01*
X4025896Y-19003984D02*
X3978277Y-19003984D01*
X4178277Y-19003984D02*
X4178277Y-18870650D01*
X4178277Y-18908746D02*
X4187801Y-18889698D01*
X4187801Y-18889698D02*
X4197324Y-18880174D01*
X4197324Y-18880174D02*
X4216372Y-18870650D01*
X4216372Y-18870650D02*
X4235420Y-18870650D01*
X4302086Y-19003984D02*
X4302086Y-18870650D01*
X4302086Y-18803984D02*
X4292563Y-18813508D01*
X4292563Y-18813508D02*
X4302086Y-18823031D01*
X4302086Y-18823031D02*
X4311610Y-18813508D01*
X4311610Y-18813508D02*
X4302086Y-18803984D01*
X4302086Y-18803984D02*
X4302086Y-18823031D01*
X4425896Y-19003984D02*
X4406848Y-18994460D01*
X4406848Y-18994460D02*
X4397324Y-18975412D01*
X4397324Y-18975412D02*
X4397324Y-18803984D01*
X4530658Y-19003984D02*
X4511610Y-18994460D01*
X4511610Y-18994460D02*
X4502086Y-18975412D01*
X4502086Y-18975412D02*
X4502086Y-18803984D01*
X4759229Y-19003984D02*
X4759229Y-18803984D01*
X4759229Y-18803984D02*
X4825896Y-18946841D01*
X4825896Y-18946841D02*
X4892563Y-18803984D01*
X4892563Y-18803984D02*
X4892563Y-19003984D01*
X5073515Y-19003984D02*
X5073515Y-18899222D01*
X5073515Y-18899222D02*
X5063991Y-18880174D01*
X5063991Y-18880174D02*
X5044944Y-18870650D01*
X5044944Y-18870650D02*
X5006848Y-18870650D01*
X5006848Y-18870650D02*
X4987801Y-18880174D01*
X5073515Y-18994460D02*
X5054467Y-19003984D01*
X5054467Y-19003984D02*
X5006848Y-19003984D01*
X5006848Y-19003984D02*
X4987801Y-18994460D01*
X4987801Y-18994460D02*
X4978277Y-18975412D01*
X4978277Y-18975412D02*
X4978277Y-18956365D01*
X4978277Y-18956365D02*
X4987801Y-18937317D01*
X4987801Y-18937317D02*
X5006848Y-18927793D01*
X5006848Y-18927793D02*
X5054467Y-18927793D01*
X5054467Y-18927793D02*
X5073515Y-18918270D01*
X5168753Y-18870650D02*
X5168753Y-19070650D01*
X5168753Y-18880174D02*
X5187801Y-18870650D01*
X5187801Y-18870650D02*
X5225896Y-18870650D01*
X5225896Y-18870650D02*
X5244944Y-18880174D01*
X5244944Y-18880174D02*
X5254467Y-18889698D01*
X5254467Y-18889698D02*
X5263991Y-18908746D01*
X5263991Y-18908746D02*
X5263991Y-18965889D01*
X5263991Y-18965889D02*
X5254467Y-18984936D01*
X5254467Y-18984936D02*
X5244944Y-18994460D01*
X5244944Y-18994460D02*
X5225896Y-19003984D01*
X5225896Y-19003984D02*
X5187801Y-19003984D01*
X5187801Y-19003984D02*
X5168753Y-18994460D01*
X5349705Y-18984936D02*
X5359229Y-18994460D01*
X5359229Y-18994460D02*
X5349705Y-19003984D01*
X5349705Y-19003984D02*
X5340182Y-18994460D01*
X5340182Y-18994460D02*
X5349705Y-18984936D01*
X5349705Y-18984936D02*
X5349705Y-19003984D01*
X5349705Y-18880174D02*
X5359229Y-18889698D01*
X5359229Y-18889698D02*
X5349705Y-18899222D01*
X5349705Y-18899222D02*
X5340182Y-18889698D01*
X5340182Y-18889698D02*
X5349705Y-18880174D01*
X5349705Y-18880174D02*
X5349705Y-18899222D01*
D12*
X3652500Y-19300000D02*
X3717500Y-19365000D01*
X3717500Y-19300000D02*
X3652500Y-19365000D01*
D11*
X4016372Y-19223984D02*
X4035420Y-19223984D01*
X4035420Y-19223984D02*
X4054467Y-19233508D01*
X4054467Y-19233508D02*
X4063991Y-19243031D01*
X4063991Y-19243031D02*
X4073515Y-19262079D01*
X4073515Y-19262079D02*
X4083039Y-19300174D01*
X4083039Y-19300174D02*
X4083039Y-19347793D01*
X4083039Y-19347793D02*
X4073515Y-19385889D01*
X4073515Y-19385889D02*
X4063991Y-19404936D01*
X4063991Y-19404936D02*
X4054467Y-19414460D01*
X4054467Y-19414460D02*
X4035420Y-19423984D01*
X4035420Y-19423984D02*
X4016372Y-19423984D01*
X4016372Y-19423984D02*
X3997324Y-19414460D01*
X3997324Y-19414460D02*
X3987801Y-19404936D01*
X3987801Y-19404936D02*
X3978277Y-19385889D01*
X3978277Y-19385889D02*
X3968753Y-19347793D01*
X3968753Y-19347793D02*
X3968753Y-19300174D01*
X3968753Y-19300174D02*
X3978277Y-19262079D01*
X3978277Y-19262079D02*
X3987801Y-19243031D01*
X3987801Y-19243031D02*
X3997324Y-19233508D01*
X3997324Y-19233508D02*
X4016372Y-19223984D01*
X4168753Y-19404936D02*
X4178277Y-19414460D01*
X4178277Y-19414460D02*
X4168753Y-19423984D01*
X4168753Y-19423984D02*
X4159229Y-19414460D01*
X4159229Y-19414460D02*
X4168753Y-19404936D01*
X4168753Y-19404936D02*
X4168753Y-19423984D01*
X4349705Y-19223984D02*
X4311610Y-19223984D01*
X4311610Y-19223984D02*
X4292563Y-19233508D01*
X4292563Y-19233508D02*
X4283039Y-19243031D01*
X4283039Y-19243031D02*
X4263991Y-19271603D01*
X4263991Y-19271603D02*
X4254467Y-19309698D01*
X4254467Y-19309698D02*
X4254467Y-19385889D01*
X4254467Y-19385889D02*
X4263991Y-19404936D01*
X4263991Y-19404936D02*
X4273515Y-19414460D01*
X4273515Y-19414460D02*
X4292563Y-19423984D01*
X4292563Y-19423984D02*
X4330658Y-19423984D01*
X4330658Y-19423984D02*
X4349705Y-19414460D01*
X4349705Y-19414460D02*
X4359229Y-19404936D01*
X4359229Y-19404936D02*
X4368753Y-19385889D01*
X4368753Y-19385889D02*
X4368753Y-19338270D01*
X4368753Y-19338270D02*
X4359229Y-19319222D01*
X4359229Y-19319222D02*
X4349705Y-19309698D01*
X4349705Y-19309698D02*
X4330658Y-19300174D01*
X4330658Y-19300174D02*
X4292563Y-19300174D01*
X4292563Y-19300174D02*
X4273515Y-19309698D01*
X4273515Y-19309698D02*
X4263991Y-19319222D01*
X4263991Y-19319222D02*
X4254467Y-19338270D01*
X4549705Y-19223984D02*
X4454467Y-19223984D01*
X4454467Y-19223984D02*
X4444944Y-19319222D01*
X4444944Y-19319222D02*
X4454467Y-19309698D01*
X4454467Y-19309698D02*
X4473515Y-19300174D01*
X4473515Y-19300174D02*
X4521134Y-19300174D01*
X4521134Y-19300174D02*
X4540182Y-19309698D01*
X4540182Y-19309698D02*
X4549705Y-19319222D01*
X4549705Y-19319222D02*
X4559229Y-19338270D01*
X4559229Y-19338270D02*
X4559229Y-19385889D01*
X4559229Y-19385889D02*
X4549705Y-19404936D01*
X4549705Y-19404936D02*
X4540182Y-19414460D01*
X4540182Y-19414460D02*
X4521134Y-19423984D01*
X4521134Y-19423984D02*
X4473515Y-19423984D01*
X4473515Y-19423984D02*
X4454467Y-19414460D01*
X4454467Y-19414460D02*
X4444944Y-19404936D01*
X4683039Y-19223984D02*
X4702086Y-19223984D01*
X4702086Y-19223984D02*
X4721134Y-19233508D01*
X4721134Y-19233508D02*
X4730658Y-19243031D01*
X4730658Y-19243031D02*
X4740182Y-19262079D01*
X4740182Y-19262079D02*
X4749705Y-19300174D01*
X4749705Y-19300174D02*
X4749705Y-19347793D01*
X4749705Y-19347793D02*
X4740182Y-19385889D01*
X4740182Y-19385889D02*
X4730658Y-19404936D01*
X4730658Y-19404936D02*
X4721134Y-19414460D01*
X4721134Y-19414460D02*
X4702086Y-19423984D01*
X4702086Y-19423984D02*
X4683039Y-19423984D01*
X4683039Y-19423984D02*
X4663991Y-19414460D01*
X4663991Y-19414460D02*
X4654467Y-19404936D01*
X4654467Y-19404936D02*
X4644944Y-19385889D01*
X4644944Y-19385889D02*
X4635420Y-19347793D01*
X4635420Y-19347793D02*
X4635420Y-19300174D01*
X4635420Y-19300174D02*
X4644944Y-19262079D01*
X4644944Y-19262079D02*
X4654467Y-19243031D01*
X4654467Y-19243031D02*
X4663991Y-19233508D01*
X4663991Y-19233508D02*
X4683039Y-19223984D01*
X4835420Y-19423984D02*
X4835420Y-19290650D01*
X4835420Y-19309698D02*
X4844944Y-19300174D01*
X4844944Y-19300174D02*
X4863991Y-19290650D01*
X4863991Y-19290650D02*
X4892563Y-19290650D01*
X4892563Y-19290650D02*
X4911610Y-19300174D01*
X4911610Y-19300174D02*
X4921134Y-19319222D01*
X4921134Y-19319222D02*
X4921134Y-19423984D01*
X4921134Y-19319222D02*
X4930658Y-19300174D01*
X4930658Y-19300174D02*
X4949705Y-19290650D01*
X4949705Y-19290650D02*
X4978277Y-19290650D01*
X4978277Y-19290650D02*
X4997325Y-19300174D01*
X4997325Y-19300174D02*
X5006848Y-19319222D01*
X5006848Y-19319222D02*
X5006848Y-19423984D01*
X5102086Y-19423984D02*
X5102086Y-19290650D01*
X5102086Y-19309698D02*
X5111610Y-19300174D01*
X5111610Y-19300174D02*
X5130658Y-19290650D01*
X5130658Y-19290650D02*
X5159229Y-19290650D01*
X5159229Y-19290650D02*
X5178277Y-19300174D01*
X5178277Y-19300174D02*
X5187801Y-19319222D01*
X5187801Y-19319222D02*
X5187801Y-19423984D01*
X5187801Y-19319222D02*
X5197325Y-19300174D01*
X5197325Y-19300174D02*
X5216372Y-19290650D01*
X5216372Y-19290650D02*
X5244944Y-19290650D01*
X5244944Y-19290650D02*
X5263991Y-19300174D01*
X5263991Y-19300174D02*
X5273515Y-19319222D01*
X5273515Y-19319222D02*
X5273515Y-19423984D01*
X5663991Y-19214460D02*
X5492563Y-19471603D01*
X5921134Y-19223984D02*
X5940182Y-19223984D01*
X5940182Y-19223984D02*
X5959229Y-19233508D01*
X5959229Y-19233508D02*
X5968753Y-19243031D01*
X5968753Y-19243031D02*
X5978277Y-19262079D01*
X5978277Y-19262079D02*
X5987801Y-19300174D01*
X5987801Y-19300174D02*
X5987801Y-19347793D01*
X5987801Y-19347793D02*
X5978277Y-19385889D01*
X5978277Y-19385889D02*
X5968753Y-19404936D01*
X5968753Y-19404936D02*
X5959229Y-19414460D01*
X5959229Y-19414460D02*
X5940182Y-19423984D01*
X5940182Y-19423984D02*
X5921134Y-19423984D01*
X5921134Y-19423984D02*
X5902086Y-19414460D01*
X5902086Y-19414460D02*
X5892563Y-19404936D01*
X5892563Y-19404936D02*
X5883039Y-19385889D01*
X5883039Y-19385889D02*
X5873515Y-19347793D01*
X5873515Y-19347793D02*
X5873515Y-19300174D01*
X5873515Y-19300174D02*
X5883039Y-19262079D01*
X5883039Y-19262079D02*
X5892563Y-19243031D01*
X5892563Y-19243031D02*
X5902086Y-19233508D01*
X5902086Y-19233508D02*
X5921134Y-19223984D01*
X6073515Y-19404936D02*
X6083039Y-19414460D01*
X6083039Y-19414460D02*
X6073515Y-19423984D01*
X6073515Y-19423984D02*
X6063991Y-19414460D01*
X6063991Y-19414460D02*
X6073515Y-19404936D01*
X6073515Y-19404936D02*
X6073515Y-19423984D01*
X6206848Y-19223984D02*
X6225896Y-19223984D01*
X6225896Y-19223984D02*
X6244944Y-19233508D01*
X6244944Y-19233508D02*
X6254467Y-19243031D01*
X6254467Y-19243031D02*
X6263991Y-19262079D01*
X6263991Y-19262079D02*
X6273515Y-19300174D01*
X6273515Y-19300174D02*
X6273515Y-19347793D01*
X6273515Y-19347793D02*
X6263991Y-19385889D01*
X6263991Y-19385889D02*
X6254467Y-19404936D01*
X6254467Y-19404936D02*
X6244944Y-19414460D01*
X6244944Y-19414460D02*
X6225896Y-19423984D01*
X6225896Y-19423984D02*
X6206848Y-19423984D01*
X6206848Y-19423984D02*
X6187801Y-19414460D01*
X6187801Y-19414460D02*
X6178277Y-19404936D01*
X6178277Y-19404936D02*
X6168753Y-19385889D01*
X6168753Y-19385889D02*
X6159229Y-19347793D01*
X6159229Y-19347793D02*
X6159229Y-19300174D01*
X6159229Y-19300174D02*
X6168753Y-19262079D01*
X6168753Y-19262079D02*
X6178277Y-19243031D01*
X6178277Y-19243031D02*
X6187801Y-19233508D01*
X6187801Y-19233508D02*
X6206848Y-19223984D01*
X6349706Y-19243031D02*
X6359229Y-19233508D01*
X6359229Y-19233508D02*
X6378277Y-19223984D01*
X6378277Y-19223984D02*
X6425896Y-19223984D01*
X6425896Y-19223984D02*
X6444944Y-19233508D01*
X6444944Y-19233508D02*
X6454467Y-19243031D01*
X6454467Y-19243031D02*
X6463991Y-19262079D01*
X6463991Y-19262079D02*
X6463991Y-19281127D01*
X6463991Y-19281127D02*
X6454467Y-19309698D01*
X6454467Y-19309698D02*
X6340182Y-19423984D01*
X6340182Y-19423984D02*
X6463991Y-19423984D01*
X6644944Y-19223984D02*
X6549706Y-19223984D01*
X6549706Y-19223984D02*
X6540182Y-19319222D01*
X6540182Y-19319222D02*
X6549706Y-19309698D01*
X6549706Y-19309698D02*
X6568753Y-19300174D01*
X6568753Y-19300174D02*
X6616372Y-19300174D01*
X6616372Y-19300174D02*
X6635420Y-19309698D01*
X6635420Y-19309698D02*
X6644944Y-19319222D01*
X6644944Y-19319222D02*
X6654467Y-19338270D01*
X6654467Y-19338270D02*
X6654467Y-19385889D01*
X6654467Y-19385889D02*
X6644944Y-19404936D01*
X6644944Y-19404936D02*
X6635420Y-19414460D01*
X6635420Y-19414460D02*
X6616372Y-19423984D01*
X6616372Y-19423984D02*
X6568753Y-19423984D01*
X6568753Y-19423984D02*
X6549706Y-19414460D01*
X6549706Y-19414460D02*
X6540182Y-19404936D01*
X6825896Y-19223984D02*
X6787801Y-19223984D01*
X6787801Y-19223984D02*
X6768753Y-19233508D01*
X6768753Y-19233508D02*
X6759229Y-19243031D01*
X6759229Y-19243031D02*
X6740182Y-19271603D01*
X6740182Y-19271603D02*
X6730658Y-19309698D01*
X6730658Y-19309698D02*
X6730658Y-19385889D01*
X6730658Y-19385889D02*
X6740182Y-19404936D01*
X6740182Y-19404936D02*
X6749706Y-19414460D01*
X6749706Y-19414460D02*
X6768753Y-19423984D01*
X6768753Y-19423984D02*
X6806848Y-19423984D01*
X6806848Y-19423984D02*
X6825896Y-19414460D01*
X6825896Y-19414460D02*
X6835420Y-19404936D01*
X6835420Y-19404936D02*
X6844944Y-19385889D01*
X6844944Y-19385889D02*
X6844944Y-19338270D01*
X6844944Y-19338270D02*
X6835420Y-19319222D01*
X6835420Y-19319222D02*
X6825896Y-19309698D01*
X6825896Y-19309698D02*
X6806848Y-19300174D01*
X6806848Y-19300174D02*
X6768753Y-19300174D01*
X6768753Y-19300174D02*
X6749706Y-19309698D01*
X6749706Y-19309698D02*
X6740182Y-19319222D01*
X6740182Y-19319222D02*
X6730658Y-19338270D01*
X6921134Y-19223984D02*
X6921134Y-19262079D01*
X6997325Y-19223984D02*
X6997325Y-19262079D01*
X7292563Y-19500174D02*
X7283039Y-19490650D01*
X7283039Y-19490650D02*
X7263991Y-19462079D01*
X7263991Y-19462079D02*
X7254468Y-19443031D01*
X7254468Y-19443031D02*
X7244944Y-19414460D01*
X7244944Y-19414460D02*
X7235420Y-19366841D01*
X7235420Y-19366841D02*
X7235420Y-19328746D01*
X7235420Y-19328746D02*
X7244944Y-19281127D01*
X7244944Y-19281127D02*
X7254468Y-19252555D01*
X7254468Y-19252555D02*
X7263991Y-19233508D01*
X7263991Y-19233508D02*
X7283039Y-19204936D01*
X7283039Y-19204936D02*
X7292563Y-19195412D01*
X7454468Y-19290650D02*
X7454468Y-19423984D01*
X7406848Y-19214460D02*
X7359229Y-19357317D01*
X7359229Y-19357317D02*
X7483039Y-19357317D01*
X7711610Y-19423984D02*
X7711610Y-19223984D01*
X7797325Y-19423984D02*
X7797325Y-19319222D01*
X7797325Y-19319222D02*
X7787801Y-19300174D01*
X7787801Y-19300174D02*
X7768753Y-19290650D01*
X7768753Y-19290650D02*
X7740182Y-19290650D01*
X7740182Y-19290650D02*
X7721134Y-19300174D01*
X7721134Y-19300174D02*
X7711610Y-19309698D01*
X7921134Y-19423984D02*
X7902087Y-19414460D01*
X7902087Y-19414460D02*
X7892563Y-19404936D01*
X7892563Y-19404936D02*
X7883039Y-19385889D01*
X7883039Y-19385889D02*
X7883039Y-19328746D01*
X7883039Y-19328746D02*
X7892563Y-19309698D01*
X7892563Y-19309698D02*
X7902087Y-19300174D01*
X7902087Y-19300174D02*
X7921134Y-19290650D01*
X7921134Y-19290650D02*
X7949706Y-19290650D01*
X7949706Y-19290650D02*
X7968753Y-19300174D01*
X7968753Y-19300174D02*
X7978277Y-19309698D01*
X7978277Y-19309698D02*
X7987801Y-19328746D01*
X7987801Y-19328746D02*
X7987801Y-19385889D01*
X7987801Y-19385889D02*
X7978277Y-19404936D01*
X7978277Y-19404936D02*
X7968753Y-19414460D01*
X7968753Y-19414460D02*
X7949706Y-19423984D01*
X7949706Y-19423984D02*
X7921134Y-19423984D01*
X8102087Y-19423984D02*
X8083039Y-19414460D01*
X8083039Y-19414460D02*
X8073515Y-19395412D01*
X8073515Y-19395412D02*
X8073515Y-19223984D01*
X8254468Y-19414460D02*
X8235420Y-19423984D01*
X8235420Y-19423984D02*
X8197325Y-19423984D01*
X8197325Y-19423984D02*
X8178277Y-19414460D01*
X8178277Y-19414460D02*
X8168753Y-19395412D01*
X8168753Y-19395412D02*
X8168753Y-19319222D01*
X8168753Y-19319222D02*
X8178277Y-19300174D01*
X8178277Y-19300174D02*
X8197325Y-19290650D01*
X8197325Y-19290650D02*
X8235420Y-19290650D01*
X8235420Y-19290650D02*
X8254468Y-19300174D01*
X8254468Y-19300174D02*
X8263991Y-19319222D01*
X8263991Y-19319222D02*
X8263991Y-19338270D01*
X8263991Y-19338270D02*
X8168753Y-19357317D01*
X8340182Y-19414460D02*
X8359230Y-19423984D01*
X8359230Y-19423984D02*
X8397325Y-19423984D01*
X8397325Y-19423984D02*
X8416373Y-19414460D01*
X8416373Y-19414460D02*
X8425896Y-19395412D01*
X8425896Y-19395412D02*
X8425896Y-19385889D01*
X8425896Y-19385889D02*
X8416373Y-19366841D01*
X8416373Y-19366841D02*
X8397325Y-19357317D01*
X8397325Y-19357317D02*
X8368753Y-19357317D01*
X8368753Y-19357317D02*
X8349706Y-19347793D01*
X8349706Y-19347793D02*
X8340182Y-19328746D01*
X8340182Y-19328746D02*
X8340182Y-19319222D01*
X8340182Y-19319222D02*
X8349706Y-19300174D01*
X8349706Y-19300174D02*
X8368753Y-19290650D01*
X8368753Y-19290650D02*
X8397325Y-19290650D01*
X8397325Y-19290650D02*
X8416373Y-19300174D01*
X8492563Y-19500174D02*
X8502087Y-19490650D01*
X8502087Y-19490650D02*
X8521134Y-19462079D01*
X8521134Y-19462079D02*
X8530658Y-19443031D01*
X8530658Y-19443031D02*
X8540182Y-19414460D01*
X8540182Y-19414460D02*
X8549706Y-19366841D01*
X8549706Y-19366841D02*
X8549706Y-19328746D01*
X8549706Y-19328746D02*
X8540182Y-19281127D01*
X8540182Y-19281127D02*
X8530658Y-19252555D01*
X8530658Y-19252555D02*
X8521134Y-19233508D01*
X8521134Y-19233508D02*
X8502087Y-19204936D01*
X8502087Y-19204936D02*
X8492563Y-19195412D01*
X8854468Y-19500174D02*
X8844944Y-19490650D01*
X8844944Y-19490650D02*
X8825896Y-19462079D01*
X8825896Y-19462079D02*
X8816373Y-19443031D01*
X8816373Y-19443031D02*
X8806849Y-19414460D01*
X8806849Y-19414460D02*
X8797325Y-19366841D01*
X8797325Y-19366841D02*
X8797325Y-19328746D01*
X8797325Y-19328746D02*
X8806849Y-19281127D01*
X8806849Y-19281127D02*
X8816373Y-19252555D01*
X8816373Y-19252555D02*
X8825896Y-19233508D01*
X8825896Y-19233508D02*
X8844944Y-19204936D01*
X8844944Y-19204936D02*
X8854468Y-19195412D01*
X8930658Y-19290650D02*
X8930658Y-19423984D01*
X8930658Y-19309698D02*
X8940182Y-19300174D01*
X8940182Y-19300174D02*
X8959230Y-19290650D01*
X8959230Y-19290650D02*
X8987801Y-19290650D01*
X8987801Y-19290650D02*
X9006849Y-19300174D01*
X9006849Y-19300174D02*
X9016373Y-19319222D01*
X9016373Y-19319222D02*
X9016373Y-19423984D01*
X9140182Y-19423984D02*
X9121134Y-19414460D01*
X9121134Y-19414460D02*
X9111611Y-19404936D01*
X9111611Y-19404936D02*
X9102087Y-19385889D01*
X9102087Y-19385889D02*
X9102087Y-19328746D01*
X9102087Y-19328746D02*
X9111611Y-19309698D01*
X9111611Y-19309698D02*
X9121134Y-19300174D01*
X9121134Y-19300174D02*
X9140182Y-19290650D01*
X9140182Y-19290650D02*
X9168754Y-19290650D01*
X9168754Y-19290650D02*
X9187801Y-19300174D01*
X9187801Y-19300174D02*
X9197325Y-19309698D01*
X9197325Y-19309698D02*
X9206849Y-19328746D01*
X9206849Y-19328746D02*
X9206849Y-19385889D01*
X9206849Y-19385889D02*
X9197325Y-19404936D01*
X9197325Y-19404936D02*
X9187801Y-19414460D01*
X9187801Y-19414460D02*
X9168754Y-19423984D01*
X9168754Y-19423984D02*
X9140182Y-19423984D01*
X9263992Y-19290650D02*
X9340182Y-19290650D01*
X9292563Y-19223984D02*
X9292563Y-19395412D01*
X9292563Y-19395412D02*
X9302087Y-19414460D01*
X9302087Y-19414460D02*
X9321134Y-19423984D01*
X9321134Y-19423984D02*
X9340182Y-19423984D01*
X9559230Y-19290650D02*
X9559230Y-19490650D01*
X9559230Y-19300174D02*
X9578277Y-19290650D01*
X9578277Y-19290650D02*
X9616373Y-19290650D01*
X9616373Y-19290650D02*
X9635420Y-19300174D01*
X9635420Y-19300174D02*
X9644944Y-19309698D01*
X9644944Y-19309698D02*
X9654468Y-19328746D01*
X9654468Y-19328746D02*
X9654468Y-19385889D01*
X9654468Y-19385889D02*
X9644944Y-19404936D01*
X9644944Y-19404936D02*
X9635420Y-19414460D01*
X9635420Y-19414460D02*
X9616373Y-19423984D01*
X9616373Y-19423984D02*
X9578277Y-19423984D01*
X9578277Y-19423984D02*
X9559230Y-19414460D01*
X9768754Y-19423984D02*
X9749706Y-19414460D01*
X9749706Y-19414460D02*
X9740182Y-19395412D01*
X9740182Y-19395412D02*
X9740182Y-19223984D01*
X9930658Y-19423984D02*
X9930658Y-19319222D01*
X9930658Y-19319222D02*
X9921135Y-19300174D01*
X9921135Y-19300174D02*
X9902087Y-19290650D01*
X9902087Y-19290650D02*
X9863992Y-19290650D01*
X9863992Y-19290650D02*
X9844944Y-19300174D01*
X9930658Y-19414460D02*
X9911611Y-19423984D01*
X9911611Y-19423984D02*
X9863992Y-19423984D01*
X9863992Y-19423984D02*
X9844944Y-19414460D01*
X9844944Y-19414460D02*
X9835420Y-19395412D01*
X9835420Y-19395412D02*
X9835420Y-19376365D01*
X9835420Y-19376365D02*
X9844944Y-19357317D01*
X9844944Y-19357317D02*
X9863992Y-19347793D01*
X9863992Y-19347793D02*
X9911611Y-19347793D01*
X9911611Y-19347793D02*
X9930658Y-19338270D01*
X9997325Y-19290650D02*
X10073515Y-19290650D01*
X10025896Y-19223984D02*
X10025896Y-19395412D01*
X10025896Y-19395412D02*
X10035420Y-19414460D01*
X10035420Y-19414460D02*
X10054468Y-19423984D01*
X10054468Y-19423984D02*
X10073515Y-19423984D01*
X10216373Y-19414460D02*
X10197325Y-19423984D01*
X10197325Y-19423984D02*
X10159230Y-19423984D01*
X10159230Y-19423984D02*
X10140182Y-19414460D01*
X10140182Y-19414460D02*
X10130658Y-19395412D01*
X10130658Y-19395412D02*
X10130658Y-19319222D01*
X10130658Y-19319222D02*
X10140182Y-19300174D01*
X10140182Y-19300174D02*
X10159230Y-19290650D01*
X10159230Y-19290650D02*
X10197325Y-19290650D01*
X10197325Y-19290650D02*
X10216373Y-19300174D01*
X10216373Y-19300174D02*
X10225896Y-19319222D01*
X10225896Y-19319222D02*
X10225896Y-19338270D01*
X10225896Y-19338270D02*
X10130658Y-19357317D01*
X10397325Y-19423984D02*
X10397325Y-19223984D01*
X10397325Y-19414460D02*
X10378277Y-19423984D01*
X10378277Y-19423984D02*
X10340182Y-19423984D01*
X10340182Y-19423984D02*
X10321135Y-19414460D01*
X10321135Y-19414460D02*
X10311611Y-19404936D01*
X10311611Y-19404936D02*
X10302087Y-19385889D01*
X10302087Y-19385889D02*
X10302087Y-19328746D01*
X10302087Y-19328746D02*
X10311611Y-19309698D01*
X10311611Y-19309698D02*
X10321135Y-19300174D01*
X10321135Y-19300174D02*
X10340182Y-19290650D01*
X10340182Y-19290650D02*
X10378277Y-19290650D01*
X10378277Y-19290650D02*
X10397325Y-19300174D01*
X10473516Y-19500174D02*
X10483039Y-19490650D01*
X10483039Y-19490650D02*
X10502087Y-19462079D01*
X10502087Y-19462079D02*
X10511611Y-19443031D01*
X10511611Y-19443031D02*
X10521135Y-19414460D01*
X10521135Y-19414460D02*
X10530658Y-19366841D01*
X10530658Y-19366841D02*
X10530658Y-19328746D01*
X10530658Y-19328746D02*
X10521135Y-19281127D01*
X10521135Y-19281127D02*
X10511611Y-19252555D01*
X10511611Y-19252555D02*
X10502087Y-19233508D01*
X10502087Y-19233508D02*
X10483039Y-19204936D01*
X10483039Y-19204936D02*
X10473516Y-19195412D01*
D12*
X3717500Y-19596500D02*
G75*
G02*
X3618440Y-19596500I-49530J0D01*
G01*
X3618440Y-19596500D02*
G75*
G02*
X3717500Y-19596500I49530J0D01*
G01*
D11*
X4016372Y-19487984D02*
X4035420Y-19487984D01*
X4035420Y-19487984D02*
X4054467Y-19497508D01*
X4054467Y-19497508D02*
X4063991Y-19507031D01*
X4063991Y-19507031D02*
X4073515Y-19526079D01*
X4073515Y-19526079D02*
X4083039Y-19564174D01*
X4083039Y-19564174D02*
X4083039Y-19611793D01*
X4083039Y-19611793D02*
X4073515Y-19649889D01*
X4073515Y-19649889D02*
X4063991Y-19668936D01*
X4063991Y-19668936D02*
X4054467Y-19678460D01*
X4054467Y-19678460D02*
X4035420Y-19687984D01*
X4035420Y-19687984D02*
X4016372Y-19687984D01*
X4016372Y-19687984D02*
X3997324Y-19678460D01*
X3997324Y-19678460D02*
X3987801Y-19668936D01*
X3987801Y-19668936D02*
X3978277Y-19649889D01*
X3978277Y-19649889D02*
X3968753Y-19611793D01*
X3968753Y-19611793D02*
X3968753Y-19564174D01*
X3968753Y-19564174D02*
X3978277Y-19526079D01*
X3978277Y-19526079D02*
X3987801Y-19507031D01*
X3987801Y-19507031D02*
X3997324Y-19497508D01*
X3997324Y-19497508D02*
X4016372Y-19487984D01*
X4168753Y-19668936D02*
X4178277Y-19678460D01*
X4178277Y-19678460D02*
X4168753Y-19687984D01*
X4168753Y-19687984D02*
X4159229Y-19678460D01*
X4159229Y-19678460D02*
X4168753Y-19668936D01*
X4168753Y-19668936D02*
X4168753Y-19687984D01*
X4273515Y-19687984D02*
X4311610Y-19687984D01*
X4311610Y-19687984D02*
X4330658Y-19678460D01*
X4330658Y-19678460D02*
X4340182Y-19668936D01*
X4340182Y-19668936D02*
X4359229Y-19640365D01*
X4359229Y-19640365D02*
X4368753Y-19602270D01*
X4368753Y-19602270D02*
X4368753Y-19526079D01*
X4368753Y-19526079D02*
X4359229Y-19507031D01*
X4359229Y-19507031D02*
X4349705Y-19497508D01*
X4349705Y-19497508D02*
X4330658Y-19487984D01*
X4330658Y-19487984D02*
X4292563Y-19487984D01*
X4292563Y-19487984D02*
X4273515Y-19497508D01*
X4273515Y-19497508D02*
X4263991Y-19507031D01*
X4263991Y-19507031D02*
X4254467Y-19526079D01*
X4254467Y-19526079D02*
X4254467Y-19573698D01*
X4254467Y-19573698D02*
X4263991Y-19592746D01*
X4263991Y-19592746D02*
X4273515Y-19602270D01*
X4273515Y-19602270D02*
X4292563Y-19611793D01*
X4292563Y-19611793D02*
X4330658Y-19611793D01*
X4330658Y-19611793D02*
X4349705Y-19602270D01*
X4349705Y-19602270D02*
X4359229Y-19592746D01*
X4359229Y-19592746D02*
X4368753Y-19573698D01*
X4463991Y-19687984D02*
X4502086Y-19687984D01*
X4502086Y-19687984D02*
X4521134Y-19678460D01*
X4521134Y-19678460D02*
X4530658Y-19668936D01*
X4530658Y-19668936D02*
X4549705Y-19640365D01*
X4549705Y-19640365D02*
X4559229Y-19602270D01*
X4559229Y-19602270D02*
X4559229Y-19526079D01*
X4559229Y-19526079D02*
X4549705Y-19507031D01*
X4549705Y-19507031D02*
X4540182Y-19497508D01*
X4540182Y-19497508D02*
X4521134Y-19487984D01*
X4521134Y-19487984D02*
X4483039Y-19487984D01*
X4483039Y-19487984D02*
X4463991Y-19497508D01*
X4463991Y-19497508D02*
X4454467Y-19507031D01*
X4454467Y-19507031D02*
X4444944Y-19526079D01*
X4444944Y-19526079D02*
X4444944Y-19573698D01*
X4444944Y-19573698D02*
X4454467Y-19592746D01*
X4454467Y-19592746D02*
X4463991Y-19602270D01*
X4463991Y-19602270D02*
X4483039Y-19611793D01*
X4483039Y-19611793D02*
X4521134Y-19611793D01*
X4521134Y-19611793D02*
X4540182Y-19602270D01*
X4540182Y-19602270D02*
X4549705Y-19592746D01*
X4549705Y-19592746D02*
X4559229Y-19573698D01*
X4749705Y-19687984D02*
X4635420Y-19687984D01*
X4692563Y-19687984D02*
X4692563Y-19487984D01*
X4692563Y-19487984D02*
X4673515Y-19516555D01*
X4673515Y-19516555D02*
X4654467Y-19535603D01*
X4654467Y-19535603D02*
X4635420Y-19545127D01*
X4835420Y-19687984D02*
X4835420Y-19554650D01*
X4835420Y-19573698D02*
X4844944Y-19564174D01*
X4844944Y-19564174D02*
X4863991Y-19554650D01*
X4863991Y-19554650D02*
X4892563Y-19554650D01*
X4892563Y-19554650D02*
X4911610Y-19564174D01*
X4911610Y-19564174D02*
X4921134Y-19583222D01*
X4921134Y-19583222D02*
X4921134Y-19687984D01*
X4921134Y-19583222D02*
X4930658Y-19564174D01*
X4930658Y-19564174D02*
X4949705Y-19554650D01*
X4949705Y-19554650D02*
X4978277Y-19554650D01*
X4978277Y-19554650D02*
X4997325Y-19564174D01*
X4997325Y-19564174D02*
X5006848Y-19583222D01*
X5006848Y-19583222D02*
X5006848Y-19687984D01*
X5102086Y-19687984D02*
X5102086Y-19554650D01*
X5102086Y-19573698D02*
X5111610Y-19564174D01*
X5111610Y-19564174D02*
X5130658Y-19554650D01*
X5130658Y-19554650D02*
X5159229Y-19554650D01*
X5159229Y-19554650D02*
X5178277Y-19564174D01*
X5178277Y-19564174D02*
X5187801Y-19583222D01*
X5187801Y-19583222D02*
X5187801Y-19687984D01*
X5187801Y-19583222D02*
X5197325Y-19564174D01*
X5197325Y-19564174D02*
X5216372Y-19554650D01*
X5216372Y-19554650D02*
X5244944Y-19554650D01*
X5244944Y-19554650D02*
X5263991Y-19564174D01*
X5263991Y-19564174D02*
X5273515Y-19583222D01*
X5273515Y-19583222D02*
X5273515Y-19687984D01*
X5663991Y-19478460D02*
X5492563Y-19735603D01*
X5921134Y-19487984D02*
X5940182Y-19487984D01*
X5940182Y-19487984D02*
X5959229Y-19497508D01*
X5959229Y-19497508D02*
X5968753Y-19507031D01*
X5968753Y-19507031D02*
X5978277Y-19526079D01*
X5978277Y-19526079D02*
X5987801Y-19564174D01*
X5987801Y-19564174D02*
X5987801Y-19611793D01*
X5987801Y-19611793D02*
X5978277Y-19649889D01*
X5978277Y-19649889D02*
X5968753Y-19668936D01*
X5968753Y-19668936D02*
X5959229Y-19678460D01*
X5959229Y-19678460D02*
X5940182Y-19687984D01*
X5940182Y-19687984D02*
X5921134Y-19687984D01*
X5921134Y-19687984D02*
X5902086Y-19678460D01*
X5902086Y-19678460D02*
X5892563Y-19668936D01*
X5892563Y-19668936D02*
X5883039Y-19649889D01*
X5883039Y-19649889D02*
X5873515Y-19611793D01*
X5873515Y-19611793D02*
X5873515Y-19564174D01*
X5873515Y-19564174D02*
X5883039Y-19526079D01*
X5883039Y-19526079D02*
X5892563Y-19507031D01*
X5892563Y-19507031D02*
X5902086Y-19497508D01*
X5902086Y-19497508D02*
X5921134Y-19487984D01*
X6073515Y-19668936D02*
X6083039Y-19678460D01*
X6083039Y-19678460D02*
X6073515Y-19687984D01*
X6073515Y-19687984D02*
X6063991Y-19678460D01*
X6063991Y-19678460D02*
X6073515Y-19668936D01*
X6073515Y-19668936D02*
X6073515Y-19687984D01*
X6206848Y-19487984D02*
X6225896Y-19487984D01*
X6225896Y-19487984D02*
X6244944Y-19497508D01*
X6244944Y-19497508D02*
X6254467Y-19507031D01*
X6254467Y-19507031D02*
X6263991Y-19526079D01*
X6263991Y-19526079D02*
X6273515Y-19564174D01*
X6273515Y-19564174D02*
X6273515Y-19611793D01*
X6273515Y-19611793D02*
X6263991Y-19649889D01*
X6263991Y-19649889D02*
X6254467Y-19668936D01*
X6254467Y-19668936D02*
X6244944Y-19678460D01*
X6244944Y-19678460D02*
X6225896Y-19687984D01*
X6225896Y-19687984D02*
X6206848Y-19687984D01*
X6206848Y-19687984D02*
X6187801Y-19678460D01*
X6187801Y-19678460D02*
X6178277Y-19668936D01*
X6178277Y-19668936D02*
X6168753Y-19649889D01*
X6168753Y-19649889D02*
X6159229Y-19611793D01*
X6159229Y-19611793D02*
X6159229Y-19564174D01*
X6159229Y-19564174D02*
X6168753Y-19526079D01*
X6168753Y-19526079D02*
X6178277Y-19507031D01*
X6178277Y-19507031D02*
X6187801Y-19497508D01*
X6187801Y-19497508D02*
X6206848Y-19487984D01*
X6340182Y-19487984D02*
X6463991Y-19487984D01*
X6463991Y-19487984D02*
X6397325Y-19564174D01*
X6397325Y-19564174D02*
X6425896Y-19564174D01*
X6425896Y-19564174D02*
X6444944Y-19573698D01*
X6444944Y-19573698D02*
X6454467Y-19583222D01*
X6454467Y-19583222D02*
X6463991Y-19602270D01*
X6463991Y-19602270D02*
X6463991Y-19649889D01*
X6463991Y-19649889D02*
X6454467Y-19668936D01*
X6454467Y-19668936D02*
X6444944Y-19678460D01*
X6444944Y-19678460D02*
X6425896Y-19687984D01*
X6425896Y-19687984D02*
X6368753Y-19687984D01*
X6368753Y-19687984D02*
X6349706Y-19678460D01*
X6349706Y-19678460D02*
X6340182Y-19668936D01*
X6559229Y-19687984D02*
X6597325Y-19687984D01*
X6597325Y-19687984D02*
X6616372Y-19678460D01*
X6616372Y-19678460D02*
X6625896Y-19668936D01*
X6625896Y-19668936D02*
X6644944Y-19640365D01*
X6644944Y-19640365D02*
X6654467Y-19602270D01*
X6654467Y-19602270D02*
X6654467Y-19526079D01*
X6654467Y-19526079D02*
X6644944Y-19507031D01*
X6644944Y-19507031D02*
X6635420Y-19497508D01*
X6635420Y-19497508D02*
X6616372Y-19487984D01*
X6616372Y-19487984D02*
X6578277Y-19487984D01*
X6578277Y-19487984D02*
X6559229Y-19497508D01*
X6559229Y-19497508D02*
X6549706Y-19507031D01*
X6549706Y-19507031D02*
X6540182Y-19526079D01*
X6540182Y-19526079D02*
X6540182Y-19573698D01*
X6540182Y-19573698D02*
X6549706Y-19592746D01*
X6549706Y-19592746D02*
X6559229Y-19602270D01*
X6559229Y-19602270D02*
X6578277Y-19611793D01*
X6578277Y-19611793D02*
X6616372Y-19611793D01*
X6616372Y-19611793D02*
X6635420Y-19602270D01*
X6635420Y-19602270D02*
X6644944Y-19592746D01*
X6644944Y-19592746D02*
X6654467Y-19573698D01*
X6778277Y-19487984D02*
X6797325Y-19487984D01*
X6797325Y-19487984D02*
X6816372Y-19497508D01*
X6816372Y-19497508D02*
X6825896Y-19507031D01*
X6825896Y-19507031D02*
X6835420Y-19526079D01*
X6835420Y-19526079D02*
X6844944Y-19564174D01*
X6844944Y-19564174D02*
X6844944Y-19611793D01*
X6844944Y-19611793D02*
X6835420Y-19649889D01*
X6835420Y-19649889D02*
X6825896Y-19668936D01*
X6825896Y-19668936D02*
X6816372Y-19678460D01*
X6816372Y-19678460D02*
X6797325Y-19687984D01*
X6797325Y-19687984D02*
X6778277Y-19687984D01*
X6778277Y-19687984D02*
X6759229Y-19678460D01*
X6759229Y-19678460D02*
X6749706Y-19668936D01*
X6749706Y-19668936D02*
X6740182Y-19649889D01*
X6740182Y-19649889D02*
X6730658Y-19611793D01*
X6730658Y-19611793D02*
X6730658Y-19564174D01*
X6730658Y-19564174D02*
X6740182Y-19526079D01*
X6740182Y-19526079D02*
X6749706Y-19507031D01*
X6749706Y-19507031D02*
X6759229Y-19497508D01*
X6759229Y-19497508D02*
X6778277Y-19487984D01*
X6921134Y-19487984D02*
X6921134Y-19526079D01*
X6997325Y-19487984D02*
X6997325Y-19526079D01*
X7292563Y-19764174D02*
X7283039Y-19754650D01*
X7283039Y-19754650D02*
X7263991Y-19726079D01*
X7263991Y-19726079D02*
X7254468Y-19707031D01*
X7254468Y-19707031D02*
X7244944Y-19678460D01*
X7244944Y-19678460D02*
X7235420Y-19630841D01*
X7235420Y-19630841D02*
X7235420Y-19592746D01*
X7235420Y-19592746D02*
X7244944Y-19545127D01*
X7244944Y-19545127D02*
X7254468Y-19516555D01*
X7254468Y-19516555D02*
X7263991Y-19497508D01*
X7263991Y-19497508D02*
X7283039Y-19468936D01*
X7283039Y-19468936D02*
X7292563Y-19459412D01*
X7359229Y-19507031D02*
X7368753Y-19497508D01*
X7368753Y-19497508D02*
X7387801Y-19487984D01*
X7387801Y-19487984D02*
X7435420Y-19487984D01*
X7435420Y-19487984D02*
X7454468Y-19497508D01*
X7454468Y-19497508D02*
X7463991Y-19507031D01*
X7463991Y-19507031D02*
X7473515Y-19526079D01*
X7473515Y-19526079D02*
X7473515Y-19545127D01*
X7473515Y-19545127D02*
X7463991Y-19573698D01*
X7463991Y-19573698D02*
X7349706Y-19687984D01*
X7349706Y-19687984D02*
X7473515Y-19687984D01*
X7711610Y-19687984D02*
X7711610Y-19487984D01*
X7797325Y-19687984D02*
X7797325Y-19583222D01*
X7797325Y-19583222D02*
X7787801Y-19564174D01*
X7787801Y-19564174D02*
X7768753Y-19554650D01*
X7768753Y-19554650D02*
X7740182Y-19554650D01*
X7740182Y-19554650D02*
X7721134Y-19564174D01*
X7721134Y-19564174D02*
X7711610Y-19573698D01*
X7921134Y-19687984D02*
X7902087Y-19678460D01*
X7902087Y-19678460D02*
X7892563Y-19668936D01*
X7892563Y-19668936D02*
X7883039Y-19649889D01*
X7883039Y-19649889D02*
X7883039Y-19592746D01*
X7883039Y-19592746D02*
X7892563Y-19573698D01*
X7892563Y-19573698D02*
X7902087Y-19564174D01*
X7902087Y-19564174D02*
X7921134Y-19554650D01*
X7921134Y-19554650D02*
X7949706Y-19554650D01*
X7949706Y-19554650D02*
X7968753Y-19564174D01*
X7968753Y-19564174D02*
X7978277Y-19573698D01*
X7978277Y-19573698D02*
X7987801Y-19592746D01*
X7987801Y-19592746D02*
X7987801Y-19649889D01*
X7987801Y-19649889D02*
X7978277Y-19668936D01*
X7978277Y-19668936D02*
X7968753Y-19678460D01*
X7968753Y-19678460D02*
X7949706Y-19687984D01*
X7949706Y-19687984D02*
X7921134Y-19687984D01*
X8102087Y-19687984D02*
X8083039Y-19678460D01*
X8083039Y-19678460D02*
X8073515Y-19659412D01*
X8073515Y-19659412D02*
X8073515Y-19487984D01*
X8254468Y-19678460D02*
X8235420Y-19687984D01*
X8235420Y-19687984D02*
X8197325Y-19687984D01*
X8197325Y-19687984D02*
X8178277Y-19678460D01*
X8178277Y-19678460D02*
X8168753Y-19659412D01*
X8168753Y-19659412D02*
X8168753Y-19583222D01*
X8168753Y-19583222D02*
X8178277Y-19564174D01*
X8178277Y-19564174D02*
X8197325Y-19554650D01*
X8197325Y-19554650D02*
X8235420Y-19554650D01*
X8235420Y-19554650D02*
X8254468Y-19564174D01*
X8254468Y-19564174D02*
X8263991Y-19583222D01*
X8263991Y-19583222D02*
X8263991Y-19602270D01*
X8263991Y-19602270D02*
X8168753Y-19621317D01*
X8340182Y-19678460D02*
X8359230Y-19687984D01*
X8359230Y-19687984D02*
X8397325Y-19687984D01*
X8397325Y-19687984D02*
X8416373Y-19678460D01*
X8416373Y-19678460D02*
X8425896Y-19659412D01*
X8425896Y-19659412D02*
X8425896Y-19649889D01*
X8425896Y-19649889D02*
X8416373Y-19630841D01*
X8416373Y-19630841D02*
X8397325Y-19621317D01*
X8397325Y-19621317D02*
X8368753Y-19621317D01*
X8368753Y-19621317D02*
X8349706Y-19611793D01*
X8349706Y-19611793D02*
X8340182Y-19592746D01*
X8340182Y-19592746D02*
X8340182Y-19583222D01*
X8340182Y-19583222D02*
X8349706Y-19564174D01*
X8349706Y-19564174D02*
X8368753Y-19554650D01*
X8368753Y-19554650D02*
X8397325Y-19554650D01*
X8397325Y-19554650D02*
X8416373Y-19564174D01*
X8492563Y-19764174D02*
X8502087Y-19754650D01*
X8502087Y-19754650D02*
X8521134Y-19726079D01*
X8521134Y-19726079D02*
X8530658Y-19707031D01*
X8530658Y-19707031D02*
X8540182Y-19678460D01*
X8540182Y-19678460D02*
X8549706Y-19630841D01*
X8549706Y-19630841D02*
X8549706Y-19592746D01*
X8549706Y-19592746D02*
X8540182Y-19545127D01*
X8540182Y-19545127D02*
X8530658Y-19516555D01*
X8530658Y-19516555D02*
X8521134Y-19497508D01*
X8521134Y-19497508D02*
X8502087Y-19468936D01*
X8502087Y-19468936D02*
X8492563Y-19459412D01*
X8854468Y-19764174D02*
X8844944Y-19754650D01*
X8844944Y-19754650D02*
X8825896Y-19726079D01*
X8825896Y-19726079D02*
X8816373Y-19707031D01*
X8816373Y-19707031D02*
X8806849Y-19678460D01*
X8806849Y-19678460D02*
X8797325Y-19630841D01*
X8797325Y-19630841D02*
X8797325Y-19592746D01*
X8797325Y-19592746D02*
X8806849Y-19545127D01*
X8806849Y-19545127D02*
X8816373Y-19516555D01*
X8816373Y-19516555D02*
X8825896Y-19497508D01*
X8825896Y-19497508D02*
X8844944Y-19468936D01*
X8844944Y-19468936D02*
X8854468Y-19459412D01*
X8930658Y-19554650D02*
X8930658Y-19687984D01*
X8930658Y-19573698D02*
X8940182Y-19564174D01*
X8940182Y-19564174D02*
X8959230Y-19554650D01*
X8959230Y-19554650D02*
X8987801Y-19554650D01*
X8987801Y-19554650D02*
X9006849Y-19564174D01*
X9006849Y-19564174D02*
X9016373Y-19583222D01*
X9016373Y-19583222D02*
X9016373Y-19687984D01*
X9140182Y-19687984D02*
X9121134Y-19678460D01*
X9121134Y-19678460D02*
X9111611Y-19668936D01*
X9111611Y-19668936D02*
X9102087Y-19649889D01*
X9102087Y-19649889D02*
X9102087Y-19592746D01*
X9102087Y-19592746D02*
X9111611Y-19573698D01*
X9111611Y-19573698D02*
X9121134Y-19564174D01*
X9121134Y-19564174D02*
X9140182Y-19554650D01*
X9140182Y-19554650D02*
X9168754Y-19554650D01*
X9168754Y-19554650D02*
X9187801Y-19564174D01*
X9187801Y-19564174D02*
X9197325Y-19573698D01*
X9197325Y-19573698D02*
X9206849Y-19592746D01*
X9206849Y-19592746D02*
X9206849Y-19649889D01*
X9206849Y-19649889D02*
X9197325Y-19668936D01*
X9197325Y-19668936D02*
X9187801Y-19678460D01*
X9187801Y-19678460D02*
X9168754Y-19687984D01*
X9168754Y-19687984D02*
X9140182Y-19687984D01*
X9263992Y-19554650D02*
X9340182Y-19554650D01*
X9292563Y-19487984D02*
X9292563Y-19659412D01*
X9292563Y-19659412D02*
X9302087Y-19678460D01*
X9302087Y-19678460D02*
X9321134Y-19687984D01*
X9321134Y-19687984D02*
X9340182Y-19687984D01*
X9559230Y-19554650D02*
X9559230Y-19754650D01*
X9559230Y-19564174D02*
X9578277Y-19554650D01*
X9578277Y-19554650D02*
X9616373Y-19554650D01*
X9616373Y-19554650D02*
X9635420Y-19564174D01*
X9635420Y-19564174D02*
X9644944Y-19573698D01*
X9644944Y-19573698D02*
X9654468Y-19592746D01*
X9654468Y-19592746D02*
X9654468Y-19649889D01*
X9654468Y-19649889D02*
X9644944Y-19668936D01*
X9644944Y-19668936D02*
X9635420Y-19678460D01*
X9635420Y-19678460D02*
X9616373Y-19687984D01*
X9616373Y-19687984D02*
X9578277Y-19687984D01*
X9578277Y-19687984D02*
X9559230Y-19678460D01*
X9768754Y-19687984D02*
X9749706Y-19678460D01*
X9749706Y-19678460D02*
X9740182Y-19659412D01*
X9740182Y-19659412D02*
X9740182Y-19487984D01*
X9930658Y-19687984D02*
X9930658Y-19583222D01*
X9930658Y-19583222D02*
X9921135Y-19564174D01*
X9921135Y-19564174D02*
X9902087Y-19554650D01*
X9902087Y-19554650D02*
X9863992Y-19554650D01*
X9863992Y-19554650D02*
X9844944Y-19564174D01*
X9930658Y-19678460D02*
X9911611Y-19687984D01*
X9911611Y-19687984D02*
X9863992Y-19687984D01*
X9863992Y-19687984D02*
X9844944Y-19678460D01*
X9844944Y-19678460D02*
X9835420Y-19659412D01*
X9835420Y-19659412D02*
X9835420Y-19640365D01*
X9835420Y-19640365D02*
X9844944Y-19621317D01*
X9844944Y-19621317D02*
X9863992Y-19611793D01*
X9863992Y-19611793D02*
X9911611Y-19611793D01*
X9911611Y-19611793D02*
X9930658Y-19602270D01*
X9997325Y-19554650D02*
X10073515Y-19554650D01*
X10025896Y-19487984D02*
X10025896Y-19659412D01*
X10025896Y-19659412D02*
X10035420Y-19678460D01*
X10035420Y-19678460D02*
X10054468Y-19687984D01*
X10054468Y-19687984D02*
X10073515Y-19687984D01*
X10216373Y-19678460D02*
X10197325Y-19687984D01*
X10197325Y-19687984D02*
X10159230Y-19687984D01*
X10159230Y-19687984D02*
X10140182Y-19678460D01*
X10140182Y-19678460D02*
X10130658Y-19659412D01*
X10130658Y-19659412D02*
X10130658Y-19583222D01*
X10130658Y-19583222D02*
X10140182Y-19564174D01*
X10140182Y-19564174D02*
X10159230Y-19554650D01*
X10159230Y-19554650D02*
X10197325Y-19554650D01*
X10197325Y-19554650D02*
X10216373Y-19564174D01*
X10216373Y-19564174D02*
X10225896Y-19583222D01*
X10225896Y-19583222D02*
X10225896Y-19602270D01*
X10225896Y-19602270D02*
X10130658Y-19621317D01*
X10397325Y-19687984D02*
X10397325Y-19487984D01*
X10397325Y-19678460D02*
X10378277Y-19687984D01*
X10378277Y-19687984D02*
X10340182Y-19687984D01*
X10340182Y-19687984D02*
X10321135Y-19678460D01*
X10321135Y-19678460D02*
X10311611Y-19668936D01*
X10311611Y-19668936D02*
X10302087Y-19649889D01*
X10302087Y-19649889D02*
X10302087Y-19592746D01*
X10302087Y-19592746D02*
X10311611Y-19573698D01*
X10311611Y-19573698D02*
X10321135Y-19564174D01*
X10321135Y-19564174D02*
X10340182Y-19554650D01*
X10340182Y-19554650D02*
X10378277Y-19554650D01*
X10378277Y-19554650D02*
X10397325Y-19564174D01*
X10473516Y-19764174D02*
X10483039Y-19754650D01*
X10483039Y-19754650D02*
X10502087Y-19726079D01*
X10502087Y-19726079D02*
X10511611Y-19707031D01*
X10511611Y-19707031D02*
X10521135Y-19678460D01*
X10521135Y-19678460D02*
X10530658Y-19630841D01*
X10530658Y-19630841D02*
X10530658Y-19592746D01*
X10530658Y-19592746D02*
X10521135Y-19545127D01*
X10521135Y-19545127D02*
X10511611Y-19516555D01*
X10511611Y-19516555D02*
X10502087Y-19497508D01*
X10502087Y-19497508D02*
X10483039Y-19468936D01*
X10483039Y-19468936D02*
X10473516Y-19459412D01*
M02*
