%TF.GenerationSoftware,KiCad,Pcbnew,8.0.4*%
%TF.CreationDate,2025-02-20T16:09:48-05:00*%
%TF.ProjectId,Radiation2,52616469-6174-4696-9f6e-322e6b696361,rev?*%
%TF.SameCoordinates,Original*%
%TF.FileFunction,Paste,Top*%
%TF.FilePolarity,Positive*%
%FSLAX46Y46*%
G04 Gerber Fmt 4.6, Leading zero omitted, Abs format (unit mm)*
G04 Created by KiCad (PCBNEW 8.0.4) date 2025-02-20 16:09:48*
%MOMM*%
%LPD*%
G01*
G04 APERTURE LIST*
G04 Aperture macros list*
%AMRoundRect*
0 Rectangle with rounded corners*
0 $1 Rounding radius*
0 $2 $3 $4 $5 $6 $7 $8 $9 X,Y pos of 4 corners*
0 Add a 4 corners polygon primitive as box body*
4,1,4,$2,$3,$4,$5,$6,$7,$8,$9,$2,$3,0*
0 Add four circle primitives for the rounded corners*
1,1,$1+$1,$2,$3*
1,1,$1+$1,$4,$5*
1,1,$1+$1,$6,$7*
1,1,$1+$1,$8,$9*
0 Add four rect primitives between the rounded corners*
20,1,$1+$1,$2,$3,$4,$5,0*
20,1,$1+$1,$4,$5,$6,$7,0*
20,1,$1+$1,$6,$7,$8,$9,0*
20,1,$1+$1,$8,$9,$2,$3,0*%
G04 Aperture macros list end*
%ADD10R,1.358900X0.457200*%
%ADD11R,1.500000X0.449999*%
%ADD12R,3.302000X1.117600*%
%ADD13R,6.400800X5.689600*%
%ADD14RoundRect,0.250000X-0.312500X-1.075000X0.312500X-1.075000X0.312500X1.075000X-0.312500X1.075000X0*%
%ADD15RoundRect,0.250000X-0.262500X-0.450000X0.262500X-0.450000X0.262500X0.450000X-0.262500X0.450000X0*%
%ADD16RoundRect,0.250000X0.262500X0.450000X-0.262500X0.450000X-0.262500X-0.450000X0.262500X-0.450000X0*%
%ADD17RoundRect,0.250000X0.450000X-0.262500X0.450000X0.262500X-0.450000X0.262500X-0.450000X-0.262500X0*%
%ADD18RoundRect,0.250000X-0.250000X-0.475000X0.250000X-0.475000X0.250000X0.475000X-0.250000X0.475000X0*%
%ADD19RoundRect,0.250000X-0.475000X0.250000X-0.475000X-0.250000X0.475000X-0.250000X0.475000X0.250000X0*%
%ADD20R,0.760000X1.910000*%
%ADD21R,0.150000X1.000000*%
%ADD22R,0.400000X1.200000*%
%ADD23RoundRect,0.150000X-0.587500X-0.150000X0.587500X-0.150000X0.587500X0.150000X-0.587500X0.150000X0*%
%ADD24RoundRect,0.150000X-0.150000X0.587500X-0.150000X-0.587500X0.150000X-0.587500X0.150000X0.587500X0*%
%ADD25R,2.260000X1.510000*%
%ADD26RoundRect,0.243750X0.243750X0.456250X-0.243750X0.456250X-0.243750X-0.456250X0.243750X-0.456250X0*%
%ADD27RoundRect,0.250000X-0.650000X-2.450000X0.650000X-2.450000X0.650000X2.450000X-0.650000X2.450000X0*%
%ADD28RoundRect,0.250000X-1.425000X0.362500X-1.425000X-0.362500X1.425000X-0.362500X1.425000X0.362500X0*%
%ADD29RoundRect,0.250000X-0.450000X0.262500X-0.450000X-0.262500X0.450000X-0.262500X0.450000X0.262500X0*%
%ADD30RoundRect,0.250000X0.375000X0.850000X-0.375000X0.850000X-0.375000X-0.850000X0.375000X-0.850000X0*%
%ADD31RoundRect,0.250000X0.250000X0.475000X-0.250000X0.475000X-0.250000X-0.475000X0.250000X-0.475000X0*%
%ADD32RoundRect,0.100000X-0.637500X-0.100000X0.637500X-0.100000X0.637500X0.100000X-0.637500X0.100000X0*%
%ADD33R,0.600000X1.150000*%
%ADD34R,0.300000X1.150000*%
%ADD35RoundRect,0.250000X-0.362500X-1.425000X0.362500X-1.425000X0.362500X1.425000X-0.362500X1.425000X0*%
%ADD36R,0.650000X1.050000*%
%ADD37RoundRect,0.150000X-0.512500X-0.150000X0.512500X-0.150000X0.512500X0.150000X-0.512500X0.150000X0*%
%ADD38RoundRect,0.250000X0.475000X-0.250000X0.475000X0.250000X-0.475000X0.250000X-0.475000X-0.250000X0*%
%ADD39R,1.500000X1.100000*%
%ADD40R,1.500000X0.900000*%
%ADD41R,0.900000X1.500000*%
%ADD42R,0.900000X0.900000*%
%ADD43RoundRect,0.112500X0.112500X-0.187500X0.112500X0.187500X-0.112500X0.187500X-0.112500X-0.187500X0*%
G04 APERTURE END LIST*
D10*
%TO.C,D12*%
X93922350Y-179600000D03*
X91877650Y-179600000D03*
%TD*%
%TO.C,D11*%
X93922350Y-177300000D03*
X91877650Y-177300000D03*
%TD*%
%TO.C,D10*%
X93922350Y-174900000D03*
X91877650Y-174900000D03*
%TD*%
%TO.C,D7*%
X119122350Y-178600000D03*
X117077650Y-178600000D03*
%TD*%
%TO.C,D6*%
X119122350Y-174000000D03*
X117077650Y-174000000D03*
%TD*%
%TO.C,D5*%
X119122350Y-176300000D03*
X117077650Y-176300000D03*
%TD*%
D11*
%TO.C,U2*%
X84000016Y-109825001D03*
X84000016Y-110474999D03*
X84000016Y-111125001D03*
X84000016Y-111774999D03*
X89799984Y-111774999D03*
X89799984Y-111125001D03*
X89799984Y-110474999D03*
X89799984Y-109825001D03*
%TD*%
D12*
%TO.C,U1*%
X83446800Y-128614000D03*
D13*
X90000000Y-130900000D03*
D12*
X83446800Y-133186000D03*
%TD*%
D14*
%TO.C,R38*%
X87362500Y-104700000D03*
X84437500Y-104700000D03*
%TD*%
D15*
%TO.C,R41*%
X82512500Y-104800000D03*
X80687500Y-104800000D03*
%TD*%
%TO.C,R40*%
X81187500Y-117700000D03*
X83012500Y-117700000D03*
%TD*%
D16*
%TO.C,R39*%
X83025000Y-115600000D03*
X81200000Y-115600000D03*
%TD*%
D17*
%TO.C,R37*%
X63600000Y-77112500D03*
X63600000Y-75287500D03*
%TD*%
D18*
%TO.C,C30*%
X55650000Y-98900000D03*
X57550000Y-98900000D03*
%TD*%
%TO.C,C6*%
X88850000Y-108000000D03*
X90750000Y-108000000D03*
%TD*%
D19*
%TO.C,C5*%
X66000000Y-75262500D03*
X66000000Y-77162500D03*
%TD*%
D15*
%TO.C,R4*%
X84087500Y-108000000D03*
X85912500Y-108000000D03*
%TD*%
D16*
%TO.C,R29*%
X122112500Y-142725000D03*
X120287500Y-142725000D03*
%TD*%
D18*
%TO.C,C10*%
X92200000Y-87500000D03*
X94100000Y-87500000D03*
%TD*%
D20*
%TO.C,T1*%
X55712500Y-133505000D03*
X57312500Y-133505000D03*
X58912500Y-133505000D03*
X60512500Y-133505000D03*
D21*
X62082500Y-133505000D03*
D20*
X63712500Y-133505000D03*
X62742500Y-102575000D03*
X57142500Y-102575000D03*
X55712500Y-102535000D03*
%TD*%
D16*
%TO.C,R25*%
X100812500Y-80000000D03*
X98987500Y-80000000D03*
%TD*%
%TO.C,R32*%
X135712500Y-70800000D03*
X133887500Y-70800000D03*
%TD*%
D22*
%TO.C,U5*%
X86447500Y-167857500D03*
X85812500Y-167857500D03*
X85177500Y-167857500D03*
X84542500Y-167857500D03*
X83907500Y-167857500D03*
X83272500Y-167857500D03*
X82637500Y-167857500D03*
X82002500Y-167857500D03*
X81367500Y-167857500D03*
X80732500Y-167857500D03*
X80732500Y-173057500D03*
X81367500Y-173057500D03*
X82002500Y-173057500D03*
X82637500Y-173057500D03*
X83272500Y-173057500D03*
X83907500Y-173057500D03*
X84542500Y-173057500D03*
X85177500Y-173057500D03*
X85812500Y-173057500D03*
X86447500Y-173057500D03*
%TD*%
D23*
%TO.C,Q1*%
X56100000Y-74400000D03*
X56100000Y-76300000D03*
X57975000Y-75350000D03*
%TD*%
D16*
%TO.C,R14*%
X104212500Y-183000000D03*
X102387500Y-183000000D03*
%TD*%
D24*
%TO.C,Q2*%
X72050000Y-166162500D03*
X70150000Y-166162500D03*
X71100000Y-168037500D03*
%TD*%
D15*
%TO.C,R17*%
X122375000Y-91900000D03*
X124200000Y-91900000D03*
%TD*%
D16*
%TO.C,R30*%
X122112500Y-140525000D03*
X120287500Y-140525000D03*
%TD*%
%TO.C,R33*%
X128912500Y-70900000D03*
X127087500Y-70900000D03*
%TD*%
D25*
%TO.C,D15*%
X43230000Y-68600000D03*
X46570000Y-68600000D03*
%TD*%
D18*
%TO.C,C2*%
X88648100Y-126100000D03*
X90548100Y-126100000D03*
%TD*%
D16*
%TO.C,R21*%
X75335000Y-173900000D03*
X73510000Y-173900000D03*
%TD*%
D26*
%TO.C,D16*%
X128337500Y-85000000D03*
X126462500Y-85000000D03*
%TD*%
D16*
%TO.C,R26*%
X100712500Y-77800000D03*
X98887500Y-77800000D03*
%TD*%
%TO.C,R18*%
X75335000Y-176200000D03*
X73510000Y-176200000D03*
%TD*%
D18*
%TO.C,C14*%
X125112500Y-140525000D03*
X127012500Y-140525000D03*
%TD*%
%TO.C,C7*%
X80350000Y-146790000D03*
X82250000Y-146790000D03*
%TD*%
%TO.C,C19*%
X124712500Y-154525000D03*
X126612500Y-154525000D03*
%TD*%
D16*
%TO.C,R34*%
X120312500Y-70971500D03*
X118487500Y-70971500D03*
%TD*%
D27*
%TO.C,C1*%
X54050000Y-82800000D03*
X59150000Y-82800000D03*
%TD*%
D16*
%TO.C,R6*%
X124300000Y-87300000D03*
X122475000Y-87300000D03*
%TD*%
D18*
%TO.C,C22*%
X127050000Y-73200000D03*
X128950000Y-73200000D03*
%TD*%
%TO.C,C18*%
X124712500Y-152325000D03*
X126612500Y-152325000D03*
%TD*%
D27*
%TO.C,C29*%
X51050000Y-68600000D03*
X56150000Y-68600000D03*
%TD*%
D28*
%TO.C,R35*%
X57300000Y-138337500D03*
X57300000Y-144262500D03*
%TD*%
D16*
%TO.C,R28*%
X61762500Y-164737500D03*
X59937500Y-164737500D03*
%TD*%
D29*
%TO.C,R11*%
X69300000Y-75087500D03*
X69300000Y-76912500D03*
%TD*%
D15*
%TO.C,R15*%
X107287500Y-173800000D03*
X109112500Y-173800000D03*
%TD*%
D30*
%TO.C,L1*%
X87500000Y-144900000D03*
X85350000Y-144900000D03*
%TD*%
D16*
%TO.C,R23*%
X124300000Y-80700000D03*
X122475000Y-80700000D03*
%TD*%
D18*
%TO.C,C25*%
X89850000Y-169600000D03*
X91750000Y-169600000D03*
%TD*%
%TO.C,C9*%
X92250000Y-85300000D03*
X94150000Y-85300000D03*
%TD*%
D15*
%TO.C,R19*%
X122375000Y-89600000D03*
X124200000Y-89600000D03*
%TD*%
D16*
%TO.C,R7*%
X87112500Y-153800000D03*
X85287500Y-153800000D03*
%TD*%
%TO.C,R27*%
X98812500Y-75500000D03*
X96987500Y-75500000D03*
%TD*%
D31*
%TO.C,C26*%
X119600000Y-152800000D03*
X117700000Y-152800000D03*
%TD*%
D32*
%TO.C,U6*%
X120037500Y-144575000D03*
X120037500Y-145225000D03*
X120037500Y-145875000D03*
X120037500Y-146525000D03*
X120037500Y-147175000D03*
X120037500Y-147825000D03*
X120037500Y-148475000D03*
X120037500Y-149125000D03*
X120037500Y-149775000D03*
X120037500Y-150425000D03*
X125762500Y-150425000D03*
X125762500Y-149775000D03*
X125762500Y-149125000D03*
X125762500Y-148475000D03*
X125762500Y-147825000D03*
X125762500Y-147175000D03*
X125762500Y-146525000D03*
X125762500Y-145875000D03*
X125762500Y-145225000D03*
X125762500Y-144575000D03*
%TD*%
D26*
%TO.C,D2*%
X128325000Y-87300000D03*
X126450000Y-87300000D03*
%TD*%
D15*
%TO.C,R22*%
X91287500Y-184600000D03*
X93112500Y-184600000D03*
%TD*%
D29*
%TO.C,R13*%
X68900000Y-65187500D03*
X68900000Y-67012500D03*
%TD*%
D19*
%TO.C,C13*%
X117100000Y-144950000D03*
X117100000Y-146850000D03*
%TD*%
D16*
%TO.C,R12*%
X109112500Y-176200000D03*
X107287500Y-176200000D03*
%TD*%
D33*
%TO.C,J2*%
X80222500Y-179245000D03*
X81022500Y-179245000D03*
D34*
X82172500Y-179245000D03*
X83172500Y-179245000D03*
X83672500Y-179245000D03*
X84672500Y-179245000D03*
D33*
X86622500Y-179245000D03*
X85822500Y-179245000D03*
D34*
X85172500Y-179245000D03*
X84172500Y-179245000D03*
X82672500Y-179245000D03*
X81672500Y-179245000D03*
%TD*%
D25*
%TO.C,D1*%
X61232500Y-90500000D03*
X57892500Y-90500000D03*
%TD*%
D15*
%TO.C,R5*%
X103775000Y-84200000D03*
X105600000Y-84200000D03*
%TD*%
D16*
%TO.C,R20*%
X72037500Y-156200000D03*
X70212500Y-156200000D03*
%TD*%
D35*
%TO.C,R3*%
X56437500Y-95100000D03*
X62362500Y-95100000D03*
%TD*%
D36*
%TO.C,S1*%
X135875000Y-64425000D03*
X135875000Y-68575000D03*
X133725000Y-64425000D03*
X133725000Y-68575000D03*
%TD*%
D16*
%TO.C,R36*%
X124325000Y-85100000D03*
X122500000Y-85100000D03*
%TD*%
D18*
%TO.C,C15*%
X125062500Y-142725000D03*
X126962500Y-142725000D03*
%TD*%
%TO.C,C21*%
X117150000Y-100000000D03*
X119050000Y-100000000D03*
%TD*%
D36*
%TO.C,S3*%
X120375000Y-64596500D03*
X120375000Y-68746500D03*
X118225000Y-64596500D03*
X118225000Y-68746500D03*
%TD*%
D18*
%TO.C,C17*%
X129350000Y-145200000D03*
X131250000Y-145200000D03*
%TD*%
D16*
%TO.C,R24*%
X124300000Y-82800000D03*
X122475000Y-82800000D03*
%TD*%
D36*
%TO.C,S2*%
X129075000Y-64525000D03*
X129075000Y-68675000D03*
X126925000Y-64525000D03*
X126925000Y-68675000D03*
%TD*%
D37*
%TO.C,U3*%
X84925000Y-147500000D03*
X84925000Y-148450000D03*
X84925000Y-149400000D03*
X87200000Y-149400000D03*
X87200000Y-147500000D03*
%TD*%
D18*
%TO.C,C23*%
X118450000Y-73400000D03*
X120350000Y-73400000D03*
%TD*%
D29*
%TO.C,R10*%
X71800000Y-75100000D03*
X71800000Y-76925000D03*
%TD*%
D18*
%TO.C,C8*%
X80350000Y-149300000D03*
X82250000Y-149300000D03*
%TD*%
D26*
%TO.C,D14*%
X128325000Y-82800000D03*
X126450000Y-82800000D03*
%TD*%
%TO.C,D9*%
X128325000Y-89600000D03*
X126450000Y-89600000D03*
%TD*%
D38*
%TO.C,C28*%
X53200000Y-76350000D03*
X53200000Y-74450000D03*
%TD*%
D18*
%TO.C,C3*%
X88948100Y-135500000D03*
X90848100Y-135500000D03*
%TD*%
D33*
%TO.C,J1*%
X107400000Y-179245000D03*
X108200000Y-179245000D03*
D34*
X109350000Y-179245000D03*
X110350000Y-179245000D03*
X110850000Y-179245000D03*
X111850000Y-179245000D03*
D33*
X113800000Y-179245000D03*
X113000000Y-179245000D03*
D34*
X112350000Y-179245000D03*
X111350000Y-179245000D03*
X109850000Y-179245000D03*
X108850000Y-179245000D03*
%TD*%
D24*
%TO.C,Q3*%
X72050000Y-161562500D03*
X70150000Y-161562500D03*
X71100000Y-163437500D03*
%TD*%
D39*
%TO.C,S4*%
X113250000Y-77450000D03*
X104350000Y-77450000D03*
X113250000Y-74910000D03*
X104350000Y-74910000D03*
X113250000Y-72370000D03*
X104350000Y-72370000D03*
X113250000Y-69830000D03*
X104350000Y-69830000D03*
X113250000Y-67290000D03*
X104350000Y-67290000D03*
X113250000Y-64750000D03*
X104350000Y-64750000D03*
%TD*%
D18*
%TO.C,C16*%
X129350000Y-142800000D03*
X131250000Y-142800000D03*
%TD*%
D15*
%TO.C,R31*%
X107200000Y-171400000D03*
X109025000Y-171400000D03*
%TD*%
D29*
%TO.C,R9*%
X68900000Y-69187500D03*
X68900000Y-71012500D03*
%TD*%
D16*
%TO.C,R8*%
X124212500Y-94300000D03*
X122387500Y-94300000D03*
%TD*%
D38*
%TO.C,C24*%
X71800000Y-67050000D03*
X71800000Y-65150000D03*
%TD*%
D26*
%TO.C,D13*%
X128325000Y-80700000D03*
X126450000Y-80700000D03*
%TD*%
%TO.C,D4*%
X128437500Y-94300000D03*
X126562500Y-94300000D03*
%TD*%
D24*
%TO.C,Q4*%
X61800000Y-167400000D03*
X59900000Y-167400000D03*
X60850000Y-169275000D03*
%TD*%
D29*
%TO.C,R2*%
X66000000Y-95137500D03*
X66000000Y-96962500D03*
%TD*%
D26*
%TO.C,D8*%
X128325000Y-91900000D03*
X126450000Y-91900000D03*
%TD*%
D40*
%TO.C,U4*%
X76550000Y-62850000D03*
X76550000Y-64120000D03*
X76550000Y-65390000D03*
X76550000Y-66660000D03*
X76550000Y-67930000D03*
X76550000Y-69200000D03*
X76550000Y-70470000D03*
X76550000Y-71740000D03*
X76550000Y-73010000D03*
X76550000Y-74280000D03*
X76550000Y-75550000D03*
X76550000Y-76820000D03*
X76550000Y-78090000D03*
X76550000Y-79360000D03*
D41*
X78315000Y-80610000D03*
X79585000Y-80610000D03*
X80855000Y-80610000D03*
X82125000Y-80610000D03*
X83395000Y-80610000D03*
X84665000Y-80610000D03*
X85935000Y-80610000D03*
X87205000Y-80610000D03*
X88475000Y-80610000D03*
X89745000Y-80610000D03*
X91015000Y-80610000D03*
X92285000Y-80610000D03*
D40*
X94050000Y-79360000D03*
X94050000Y-78090000D03*
X94050000Y-76820000D03*
X94050000Y-75550000D03*
X94050000Y-74280000D03*
X94050000Y-73010000D03*
X94050000Y-71740000D03*
X94050000Y-70470000D03*
X94050000Y-69200000D03*
X94050000Y-67930000D03*
X94050000Y-66660000D03*
X94050000Y-65390000D03*
X94050000Y-64120000D03*
X94050000Y-62850000D03*
D42*
X83800000Y-70570000D03*
X83800000Y-69170000D03*
X82400000Y-69170000D03*
X82400000Y-70570000D03*
X82400000Y-71970000D03*
X83800000Y-71970000D03*
X85200000Y-71970000D03*
X85200000Y-70570000D03*
X85200000Y-69170000D03*
%TD*%
D29*
%TO.C,R1*%
X70300000Y-95075000D03*
X70300000Y-96900000D03*
%TD*%
D16*
%TO.C,R16*%
X72037500Y-158600000D03*
X70212500Y-158600000D03*
%TD*%
D18*
%TO.C,C20*%
X133850000Y-73200000D03*
X135750000Y-73200000D03*
%TD*%
%TO.C,C12*%
X91250000Y-182500000D03*
X93150000Y-182500000D03*
%TD*%
D31*
%TO.C,C4*%
X87150000Y-151500000D03*
X85250000Y-151500000D03*
%TD*%
D18*
%TO.C,C11*%
X102362500Y-185400000D03*
X104262500Y-185400000D03*
%TD*%
D43*
%TO.C,D3*%
X89700000Y-149450000D03*
X89700000Y-147350000D03*
%TD*%
M02*
