%TF.GenerationSoftware,KiCad,Pcbnew,8.0.4*%
%TF.CreationDate,2025-02-20T16:09:42-05:00*%
%TF.ProjectId,Radiation2,52616469-6174-4696-9f6e-322e6b696361,rev?*%
%TF.SameCoordinates,Original*%
%TF.FileFunction,Drillmap*%
%TF.FilePolarity,Positive*%
%FSLAX45Y45*%
G04 Gerber Fmt 4.5, Leading zero omitted, Abs format (unit mm)*
G04 Created by KiCad (PCBNEW 8.0.4) date 2025-02-20 16:09:42*
%MOMM*%
%LPD*%
G01*
G04 APERTURE LIST*
%ADD10C,0.050000*%
%ADD11C,0.200000*%
%ADD12C,0.100000*%
%ADD13C,0.102000*%
G04 APERTURE END LIST*
D10*
X3720000Y-6190000D02*
X13920000Y-6190000D01*
X13920000Y-18690000D01*
X3720000Y-18690000D01*
X3720000Y-6190000D01*
D11*
D12*
X5135000Y-7435000D02*
X5165000Y-7465000D01*
X5165000Y-7435000D02*
X5135000Y-7465000D01*
X5305000Y-7765000D02*
X5335000Y-7795000D01*
X5335000Y-7765000D02*
X5305000Y-7795000D01*
X5805000Y-7215000D02*
X5835000Y-7245000D01*
X5835000Y-7215000D02*
X5805000Y-7245000D01*
X5865000Y-16715000D02*
X5895000Y-16745000D01*
X5895000Y-16715000D02*
X5865000Y-16745000D01*
X5915000Y-10435000D02*
X5945000Y-10465000D01*
X5945000Y-10435000D02*
X5915000Y-10465000D01*
X6585000Y-7825000D02*
X6615000Y-7855000D01*
X6615000Y-7825000D02*
X6585000Y-7855000D01*
X6635000Y-6275000D02*
X6665000Y-6305000D01*
X6665000Y-6275000D02*
X6635000Y-6305000D01*
X6695000Y-6505000D02*
X6725000Y-6535000D01*
X6725000Y-6505000D02*
X6695000Y-6535000D01*
X7025000Y-16005000D02*
X7055000Y-16035000D01*
X7055000Y-16005000D02*
X7025000Y-16035000D01*
X7075000Y-13695000D02*
X7105000Y-13725000D01*
X7105000Y-13695000D02*
X7075000Y-13725000D01*
X7315000Y-15925000D02*
X7345000Y-15955000D01*
X7345000Y-15925000D02*
X7315000Y-15955000D01*
X7377250Y-17735000D02*
X7407250Y-17765000D01*
X7407250Y-17735000D02*
X7377250Y-17765000D01*
X7385000Y-11715000D02*
X7415000Y-11745000D01*
X7415000Y-11715000D02*
X7385000Y-11745000D01*
X7385000Y-13385000D02*
X7415000Y-13415000D01*
X7415000Y-13385000D02*
X7385000Y-13415000D01*
X7425000Y-16555000D02*
X7455000Y-16585000D01*
X7455000Y-16555000D02*
X7425000Y-16585000D01*
X7445000Y-17235000D02*
X7475000Y-17265000D01*
X7475000Y-17235000D02*
X7445000Y-17265000D01*
X7475000Y-16415000D02*
X7505000Y-16445000D01*
X7505000Y-16415000D02*
X7475000Y-16445000D01*
X7520000Y-10130000D02*
X7550000Y-10160000D01*
X7550000Y-10130000D02*
X7520000Y-10160000D01*
X7745000Y-10045000D02*
X7775000Y-10075000D01*
X7775000Y-10045000D02*
X7745000Y-10075000D01*
X7795000Y-7285000D02*
X7825000Y-7315000D01*
X7825000Y-7285000D02*
X7795000Y-7315000D01*
X7805000Y-7155000D02*
X7835000Y-7185000D01*
X7835000Y-7155000D02*
X7805000Y-7185000D01*
X7895000Y-17775000D02*
X7925000Y-17805000D01*
X7925000Y-17775000D02*
X7895000Y-17805000D01*
X7937250Y-17445000D02*
X7967250Y-17475000D01*
X7967250Y-17445000D02*
X7937250Y-17475000D01*
X7960000Y-10350000D02*
X7990000Y-10380000D01*
X7990000Y-10350000D02*
X7960000Y-10380000D01*
X8045000Y-6355000D02*
X8075000Y-6385000D01*
X8075000Y-6355000D02*
X8045000Y-6385000D01*
X8055000Y-7835000D02*
X8085000Y-7865000D01*
X8085000Y-7835000D02*
X8055000Y-7865000D01*
X8065000Y-15115000D02*
X8095000Y-15145000D01*
X8095000Y-15115000D02*
X8065000Y-15145000D01*
X8135000Y-7775000D02*
X8165000Y-7805000D01*
X8165000Y-7775000D02*
X8135000Y-7805000D01*
X8185176Y-17437074D02*
X8215176Y-17467074D01*
X8215176Y-17437074D02*
X8185176Y-17467074D01*
X8210000Y-14510000D02*
X8240000Y-14540000D01*
X8240000Y-14510000D02*
X8210000Y-14540000D01*
X8210000Y-15050000D02*
X8240000Y-15080000D01*
X8240000Y-15050000D02*
X8210000Y-15080000D01*
X8315000Y-16625000D02*
X8345000Y-16655000D01*
X8345000Y-16625000D02*
X8315000Y-16655000D01*
X8377250Y-17415000D02*
X8407250Y-17445000D01*
X8407250Y-17415000D02*
X8377250Y-17445000D01*
X8405000Y-16945000D02*
X8435000Y-16975000D01*
X8435000Y-16945000D02*
X8405000Y-16975000D01*
X8465000Y-18135000D02*
X8495000Y-18165000D01*
X8495000Y-18135000D02*
X8465000Y-18165000D01*
X8507250Y-17805000D02*
X8537250Y-17835000D01*
X8537250Y-17805000D02*
X8507250Y-17835000D01*
X8625000Y-7182000D02*
X8655000Y-7212000D01*
X8655000Y-7182000D02*
X8625000Y-7212000D01*
X8647250Y-17785000D02*
X8677250Y-17815000D01*
X8677250Y-17785000D02*
X8647250Y-17815000D01*
X8695000Y-9355000D02*
X8725000Y-9385000D01*
X8725000Y-9355000D02*
X8695000Y-9385000D01*
X8875000Y-15255000D02*
X8905000Y-15285000D01*
X8905000Y-15255000D02*
X8875000Y-15285000D01*
X8945000Y-17085000D02*
X8975000Y-17115000D01*
X8975000Y-17085000D02*
X8945000Y-17115000D01*
X9025000Y-17345000D02*
X9055000Y-17375000D01*
X9055000Y-17345000D02*
X9025000Y-17375000D01*
X9165000Y-6325000D02*
X9195000Y-6355000D01*
X9195000Y-6325000D02*
X9165000Y-6355000D01*
X9195000Y-10335000D02*
X9225000Y-10365000D01*
X9225000Y-10335000D02*
X9195000Y-10365000D01*
X9205000Y-6545000D02*
X9235000Y-6575000D01*
X9235000Y-6545000D02*
X9205000Y-6575000D01*
X9235000Y-7795000D02*
X9265000Y-7825000D01*
X9265000Y-7795000D02*
X9235000Y-7825000D01*
X9245000Y-7665000D02*
X9275000Y-7695000D01*
X9275000Y-7665000D02*
X9245000Y-7695000D01*
X9315000Y-8185000D02*
X9345000Y-8215000D01*
X9345000Y-8185000D02*
X9315000Y-8215000D01*
X9445000Y-10205000D02*
X9475000Y-10235000D01*
X9475000Y-10205000D02*
X9445000Y-10235000D01*
X9470000Y-8885000D02*
X9500000Y-8915000D01*
X9500000Y-8885000D02*
X9470000Y-8915000D01*
X9475000Y-18305000D02*
X9505000Y-18335000D01*
X9505000Y-18305000D02*
X9475000Y-18335000D01*
X9565000Y-10465000D02*
X9595000Y-10495000D01*
X9595000Y-10465000D02*
X9565000Y-10495000D01*
X9565000Y-10675000D02*
X9595000Y-10705000D01*
X9595000Y-10675000D02*
X9565000Y-10705000D01*
X9595000Y-16135000D02*
X9625000Y-16165000D01*
X9625000Y-16135000D02*
X9595000Y-16165000D01*
X9615000Y-9275000D02*
X9645000Y-9305000D01*
X9645000Y-9275000D02*
X9615000Y-9305000D01*
X9625000Y-6265000D02*
X9655000Y-6295000D01*
X9655000Y-6265000D02*
X9625000Y-6295000D01*
X9635000Y-6625000D02*
X9665000Y-6655000D01*
X9665000Y-6625000D02*
X9635000Y-6655000D01*
X9665000Y-7705000D02*
X9695000Y-7735000D01*
X9695000Y-7705000D02*
X9665000Y-7735000D01*
X9665000Y-8135000D02*
X9695000Y-8165000D01*
X9695000Y-8135000D02*
X9665000Y-8165000D01*
X9665000Y-12035000D02*
X9695000Y-12065000D01*
X9695000Y-12035000D02*
X9665000Y-12065000D01*
X9675000Y-6385000D02*
X9705000Y-6415000D01*
X9705000Y-6385000D02*
X9675000Y-6415000D01*
X9695000Y-7955000D02*
X9725000Y-7985000D01*
X9725000Y-7955000D02*
X9695000Y-7985000D01*
X9695000Y-9505000D02*
X9725000Y-9535000D01*
X9725000Y-9505000D02*
X9695000Y-9535000D01*
X9745000Y-15925000D02*
X9775000Y-15955000D01*
X9775000Y-15925000D02*
X9745000Y-15955000D01*
X9775000Y-6475000D02*
X9805000Y-6505000D01*
X9805000Y-6475000D02*
X9775000Y-6505000D01*
X9805000Y-17245000D02*
X9835000Y-17275000D01*
X9835000Y-17245000D02*
X9805000Y-17275000D01*
X9815000Y-12085000D02*
X9845000Y-12115000D01*
X9845000Y-12085000D02*
X9815000Y-12115000D01*
X9845000Y-6765000D02*
X9875000Y-6795000D01*
X9875000Y-6765000D02*
X9845000Y-6795000D01*
X9885000Y-10535000D02*
X9915000Y-10565000D01*
X9915000Y-10535000D02*
X9885000Y-10565000D01*
X9885000Y-11995000D02*
X9915000Y-12025000D01*
X9915000Y-11995000D02*
X9885000Y-12025000D01*
X9915000Y-8715000D02*
X9945000Y-8745000D01*
X9945000Y-8715000D02*
X9915000Y-8745000D01*
X10105000Y-6735000D02*
X10135000Y-6765000D01*
X10135000Y-6735000D02*
X10105000Y-6765000D01*
X10115000Y-8415000D02*
X10145000Y-8445000D01*
X10145000Y-8415000D02*
X10115000Y-8445000D01*
X10155000Y-10595000D02*
X10185000Y-10625000D01*
X10185000Y-10595000D02*
X10155000Y-10625000D01*
X10195000Y-8115000D02*
X10225000Y-8145000D01*
X10225000Y-8115000D02*
X10195000Y-8145000D01*
X10305000Y-8125000D02*
X10335000Y-8155000D01*
X10335000Y-8125000D02*
X10305000Y-8155000D01*
X10325000Y-8665000D02*
X10355000Y-8695000D01*
X10355000Y-8665000D02*
X10325000Y-8695000D01*
X10375000Y-9185000D02*
X10405000Y-9215000D01*
X10405000Y-9185000D02*
X10375000Y-9215000D01*
X10405000Y-8095000D02*
X10435000Y-8125000D01*
X10435000Y-8095000D02*
X10405000Y-8125000D01*
X10435000Y-8625000D02*
X10465000Y-8655000D01*
X10465000Y-8625000D02*
X10435000Y-8655000D01*
X10445000Y-9945000D02*
X10475000Y-9975000D01*
X10475000Y-9945000D02*
X10445000Y-9975000D01*
X10455000Y-18155000D02*
X10485000Y-18185000D01*
X10485000Y-18155000D02*
X10455000Y-18185000D01*
X10665000Y-12585000D02*
X10695000Y-12615000D01*
X10695000Y-12585000D02*
X10665000Y-12615000D01*
X10745000Y-18175000D02*
X10775000Y-18205000D01*
X10775000Y-18175000D02*
X10745000Y-18205000D01*
X10785000Y-10845000D02*
X10815000Y-10875000D01*
X10815000Y-10845000D02*
X10785000Y-10875000D01*
X10805000Y-17785000D02*
X10835000Y-17815000D01*
X10835000Y-17785000D02*
X10805000Y-17815000D01*
X10905000Y-11103000D02*
X10935000Y-11133000D01*
X10935000Y-11103000D02*
X10905000Y-11133000D01*
X10935000Y-12635000D02*
X10965000Y-12665000D01*
X10965000Y-12635000D02*
X10935000Y-12665000D01*
X11015000Y-17125000D02*
X11045000Y-17155000D01*
X11045000Y-17125000D02*
X11015000Y-17155000D01*
X11070000Y-11200000D02*
X11100000Y-11230000D01*
X11100000Y-11200000D02*
X11070000Y-11230000D01*
X11105000Y-8255000D02*
X11135000Y-8285000D01*
X11135000Y-8255000D02*
X11105000Y-8285000D01*
X11145000Y-9965000D02*
X11175000Y-9995000D01*
X11175000Y-9965000D02*
X11145000Y-9995000D01*
X11155000Y-8825000D02*
X11185000Y-8855000D01*
X11185000Y-8825000D02*
X11155000Y-8855000D01*
X11215000Y-8115000D02*
X11245000Y-8145000D01*
X11245000Y-8115000D02*
X11215000Y-8145000D01*
X11225000Y-8305000D02*
X11255000Y-8335000D01*
X11255000Y-8305000D02*
X11225000Y-8335000D01*
X11275000Y-8395000D02*
X11305000Y-8425000D01*
X11305000Y-8395000D02*
X11275000Y-8425000D01*
X11285000Y-17785000D02*
X11315000Y-17815000D01*
X11315000Y-17785000D02*
X11285000Y-17815000D01*
X11335000Y-13435000D02*
X11365000Y-13465000D01*
X11365000Y-13435000D02*
X11335000Y-13465000D01*
X11355000Y-13965000D02*
X11385000Y-13995000D01*
X11385000Y-13965000D02*
X11355000Y-13995000D01*
X11365000Y-13805000D02*
X11395000Y-13835000D01*
X11395000Y-13805000D02*
X11365000Y-13835000D01*
X11375000Y-8685000D02*
X11405000Y-8715000D01*
X11405000Y-8685000D02*
X11375000Y-8715000D01*
X11375000Y-17795000D02*
X11405000Y-17825000D01*
X11405000Y-17795000D02*
X11375000Y-17825000D01*
X11405000Y-8115000D02*
X11435000Y-8145000D01*
X11435000Y-8115000D02*
X11405000Y-8145000D01*
X11445000Y-17305000D02*
X11475000Y-17335000D01*
X11475000Y-17305000D02*
X11445000Y-17335000D01*
X11445000Y-17615000D02*
X11475000Y-17645000D01*
X11475000Y-17615000D02*
X11445000Y-17645000D01*
X11455000Y-8195000D02*
X11485000Y-8225000D01*
X11485000Y-8195000D02*
X11455000Y-8225000D01*
X11665000Y-8345000D02*
X11695000Y-8375000D01*
X11695000Y-8345000D02*
X11665000Y-8375000D01*
X11755000Y-15115000D02*
X11785000Y-15145000D01*
X11785000Y-15115000D02*
X11755000Y-15145000D01*
X11775000Y-13535000D02*
X11805000Y-13565000D01*
X11805000Y-13535000D02*
X11775000Y-13565000D01*
X11805000Y-6645000D02*
X11835000Y-6675000D01*
X11835000Y-6645000D02*
X11805000Y-6675000D01*
X11835000Y-14575000D02*
X11865000Y-14605000D01*
X11865000Y-14575000D02*
X11835000Y-14605000D01*
X11845000Y-15055000D02*
X11875000Y-15085000D01*
X11875000Y-15055000D02*
X11845000Y-15085000D01*
X11855000Y-13165000D02*
X11885000Y-13195000D01*
X11885000Y-13165000D02*
X11855000Y-13195000D01*
X11865000Y-7455000D02*
X11895000Y-7485000D01*
X11895000Y-7455000D02*
X11865000Y-7485000D01*
X11875000Y-10465000D02*
X11905000Y-10495000D01*
X11905000Y-10465000D02*
X11875000Y-10495000D01*
X11925000Y-8375000D02*
X11955000Y-8405000D01*
X11955000Y-8375000D02*
X11925000Y-8405000D01*
X11985000Y-8565000D02*
X12015000Y-8595000D01*
X12015000Y-8565000D02*
X11985000Y-8595000D01*
X12015000Y-10775000D02*
X12045000Y-10805000D01*
X12045000Y-10775000D02*
X12015000Y-10805000D01*
X12025000Y-9985000D02*
X12055000Y-10015000D01*
X12055000Y-9985000D02*
X12025000Y-10015000D01*
X12105000Y-14895000D02*
X12135000Y-14925000D01*
X12135000Y-14895000D02*
X12105000Y-14925000D01*
X12155000Y-16095000D02*
X12185000Y-16125000D01*
X12185000Y-16095000D02*
X12155000Y-16125000D01*
X12175000Y-10845000D02*
X12205000Y-10875000D01*
X12205000Y-10845000D02*
X12175000Y-10875000D01*
X12205000Y-9605000D02*
X12235000Y-9635000D01*
X12235000Y-9605000D02*
X12205000Y-9635000D01*
X12315000Y-14445000D02*
X12345000Y-14475000D01*
X12345000Y-14445000D02*
X12315000Y-14475000D01*
X12325000Y-14257500D02*
X12355000Y-14287500D01*
X12355000Y-14257500D02*
X12325000Y-14287500D01*
X12385000Y-14915000D02*
X12415000Y-14945000D01*
X12415000Y-14915000D02*
X12385000Y-14945000D01*
X12425000Y-14595000D02*
X12455000Y-14625000D01*
X12455000Y-14595000D02*
X12425000Y-14625000D01*
X12545000Y-6865000D02*
X12575000Y-6895000D01*
X12575000Y-6865000D02*
X12545000Y-6895000D01*
X12575000Y-7415000D02*
X12605000Y-7445000D01*
X12605000Y-7415000D02*
X12575000Y-7445000D01*
X12705000Y-14505000D02*
X12735000Y-14535000D01*
X12735000Y-14505000D02*
X12705000Y-14535000D01*
X12785000Y-15435000D02*
X12815000Y-15465000D01*
X12815000Y-15435000D02*
X12785000Y-15465000D01*
X12791250Y-13907500D02*
X12821250Y-13937500D01*
X12821250Y-13907500D02*
X12791250Y-13937500D01*
X12795000Y-14705000D02*
X12825000Y-14735000D01*
X12825000Y-14705000D02*
X12795000Y-14735000D01*
X12795000Y-15215000D02*
X12825000Y-15245000D01*
X12825000Y-15215000D02*
X12795000Y-15245000D01*
X13121250Y-14117500D02*
X13151250Y-14147500D01*
X13151250Y-14117500D02*
X13121250Y-14147500D01*
X13175000Y-9415000D02*
X13205000Y-9445000D01*
X13205000Y-9415000D02*
X13175000Y-9445000D01*
X13177840Y-10575000D02*
X13207840Y-10605000D01*
X13207840Y-10575000D02*
X13177840Y-10605000D01*
X13225000Y-6855000D02*
X13255000Y-6885000D01*
X13255000Y-6855000D02*
X13225000Y-6885000D01*
X13265000Y-7395000D02*
X13295000Y-7425000D01*
X13295000Y-7395000D02*
X13265000Y-7425000D01*
X13485000Y-9745000D02*
X13515000Y-9775000D01*
X13515000Y-9745000D02*
X13485000Y-9775000D01*
X13535000Y-9665000D02*
X13565000Y-9695000D01*
X13565000Y-9665000D02*
X13535000Y-9695000D01*
X13587840Y-10135000D02*
X13617840Y-10165000D01*
X13617840Y-10135000D02*
X13587840Y-10165000D01*
X13745000Y-9845000D02*
X13775000Y-9875000D01*
X13775000Y-9845000D02*
X13745000Y-9875000D01*
X5539050Y-9050000D02*
G75*
G02*
X5500950Y-9050000I-19050J0D01*
G01*
X5500950Y-9050000D02*
G75*
G02*
X5539050Y-9050000I19050J0D01*
G01*
X6190000Y-9959680D02*
X6190000Y-10000320D01*
X6169680Y-9980000D02*
X6210320Y-9980000D01*
X5727678Y-14737678D02*
X5727678Y-14702322D01*
X5692322Y-14702322D01*
X5692322Y-14737678D01*
X5727678Y-14737678D01*
X6757678Y-13357678D02*
X6757678Y-13322322D01*
X6722322Y-13322322D01*
X6722322Y-13357678D01*
X6757678Y-13357678D01*
X7407678Y-18407678D02*
X7407678Y-18372322D01*
X7372322Y-18372322D01*
X7372322Y-18407678D01*
X7407678Y-18407678D01*
X9017678Y-18267678D02*
X9017678Y-18232322D01*
X8982322Y-18232322D01*
X8982322Y-18267678D01*
X9017678Y-18267678D01*
X9507678Y-18087678D02*
X9507678Y-18052322D01*
X9472322Y-18052322D01*
X9472322Y-18087678D01*
X9507678Y-18087678D01*
X10257678Y-18117678D02*
X10257678Y-18082322D01*
X10222322Y-18082322D01*
X10222322Y-18117678D01*
X10257678Y-18117678D01*
X13600518Y-10827678D02*
X13600518Y-10792322D01*
X13565162Y-10792322D01*
X13565162Y-10827678D01*
X13600518Y-10827678D01*
X7910250Y-18012000D02*
X7940250Y-17982000D01*
X7910250Y-17952000D01*
X7880250Y-17982000D01*
X7910250Y-18012000D01*
X7880250Y-17927000D02*
X7880250Y-18037000D01*
X7940250Y-18037000D02*
G75*
G02*
X7880250Y-18037000I-30000J0D01*
G01*
X7940250Y-18037000D02*
X7940250Y-17927000D01*
X7940250Y-17927000D02*
G75*
G03*
X7880250Y-17927000I-30000J0D01*
G01*
X7910250Y-18430000D02*
X7940250Y-18400000D01*
X7910250Y-18370000D01*
X7880250Y-18400000D01*
X7910250Y-18430000D01*
X7880250Y-18360000D02*
X7880250Y-18440000D01*
X7940250Y-18440000D02*
G75*
G02*
X7880250Y-18440000I-30000J0D01*
G01*
X7940250Y-18440000D02*
X7940250Y-18360000D01*
X7940250Y-18360000D02*
G75*
G03*
X7880250Y-18360000I-30000J0D01*
G01*
X8774250Y-18012000D02*
X8804250Y-17982000D01*
X8774250Y-17952000D01*
X8744250Y-17982000D01*
X8774250Y-18012000D01*
X8744250Y-17927000D02*
X8744250Y-18037000D01*
X8804250Y-18037000D02*
G75*
G02*
X8744250Y-18037000I-30000J0D01*
G01*
X8804250Y-18037000D02*
X8804250Y-17927000D01*
X8804250Y-17927000D02*
G75*
G03*
X8744250Y-17927000I-30000J0D01*
G01*
X8774250Y-18430000D02*
X8804250Y-18400000D01*
X8774250Y-18370000D01*
X8744250Y-18400000D01*
X8774250Y-18430000D01*
X8744250Y-18360000D02*
X8744250Y-18440000D01*
X8804250Y-18440000D02*
G75*
G02*
X8744250Y-18440000I-30000J0D01*
G01*
X8804250Y-18440000D02*
X8804250Y-18360000D01*
X8804250Y-18360000D02*
G75*
G03*
X8744250Y-18360000I-30000J0D01*
G01*
X10628000Y-18012000D02*
X10658000Y-17982000D01*
X10628000Y-17952000D01*
X10598000Y-17982000D01*
X10628000Y-18012000D01*
X10598000Y-17927000D02*
X10598000Y-18037000D01*
X10658000Y-18037000D02*
G75*
G02*
X10598000Y-18037000I-30000J0D01*
G01*
X10658000Y-18037000D02*
X10658000Y-17927000D01*
X10658000Y-17927000D02*
G75*
G03*
X10598000Y-17927000I-30000J0D01*
G01*
X10628000Y-18430000D02*
X10658000Y-18400000D01*
X10628000Y-18370000D01*
X10598000Y-18400000D01*
X10628000Y-18430000D01*
X10598000Y-18360000D02*
X10598000Y-18440000D01*
X10658000Y-18440000D02*
G75*
G02*
X10598000Y-18440000I-30000J0D01*
G01*
X10658000Y-18440000D02*
X10658000Y-18360000D01*
X10658000Y-18360000D02*
G75*
G03*
X10598000Y-18360000I-30000J0D01*
G01*
X11492000Y-18012000D02*
X11522000Y-17982000D01*
X11492000Y-17952000D01*
X11462000Y-17982000D01*
X11492000Y-18012000D01*
X11462000Y-17927000D02*
X11462000Y-18037000D01*
X11522000Y-18037000D02*
G75*
G02*
X11462000Y-18037000I-30000J0D01*
G01*
X11522000Y-18037000D02*
X11522000Y-17927000D01*
X11522000Y-17927000D02*
G75*
G03*
X11462000Y-17927000I-30000J0D01*
G01*
X11492000Y-18430000D02*
X11522000Y-18400000D01*
X11492000Y-18370000D01*
X11462000Y-18400000D01*
X11492000Y-18430000D01*
X11462000Y-18360000D02*
X11462000Y-18440000D01*
X11522000Y-18440000D02*
G75*
G02*
X11462000Y-18440000I-30000J0D01*
G01*
X11522000Y-18440000D02*
X11522000Y-18360000D01*
X11522000Y-18360000D02*
G75*
G03*
X11462000Y-18360000I-30000J0D01*
G01*
X10945000Y-16325000D02*
X11015000Y-16395000D01*
X11015000Y-16325000D02*
X10945000Y-16395000D01*
X11015000Y-16360000D02*
G75*
G02*
X10945000Y-16360000I-35000J0D01*
G01*
X10945000Y-16360000D02*
G75*
G02*
X11015000Y-16360000I35000J0D01*
G01*
X12285000Y-15435000D02*
X12355000Y-15505000D01*
X12355000Y-15435000D02*
X12285000Y-15505000D01*
X12355000Y-15470000D02*
G75*
G02*
X12285000Y-15470000I-35000J0D01*
G01*
X12285000Y-15470000D02*
G75*
G02*
X12355000Y-15470000I35000J0D01*
G01*
X6650000Y-7180000D02*
X6730000Y-7260000D01*
X6730000Y-7180000D02*
X6650000Y-7260000D01*
X6690000Y-7180000D02*
X6690000Y-7260000D01*
X6650000Y-7220000D02*
X6730000Y-7220000D01*
X7010000Y-9880000D02*
X7090000Y-9960000D01*
X7090000Y-9880000D02*
X7010000Y-9960000D01*
X7050000Y-9880000D02*
X7050000Y-9960000D01*
X7010000Y-9920000D02*
X7090000Y-9920000D01*
X7140000Y-7810000D02*
X7220000Y-7890000D01*
X7220000Y-7810000D02*
X7140000Y-7890000D01*
X7180000Y-7810000D02*
X7180000Y-7890000D01*
X7140000Y-7850000D02*
X7220000Y-7850000D01*
X7760000Y-6380000D02*
X7840000Y-6460000D01*
X7840000Y-6380000D02*
X7760000Y-6460000D01*
X7800000Y-6380000D02*
X7800000Y-6460000D01*
X7760000Y-6420000D02*
X7840000Y-6420000D01*
X7980000Y-13500000D02*
X8060000Y-13580000D01*
X8060000Y-13500000D02*
X7980000Y-13580000D01*
X8020000Y-13500000D02*
X8020000Y-13580000D01*
X7980000Y-13540000D02*
X8060000Y-13540000D01*
X8070000Y-11910000D02*
X8150000Y-11990000D01*
X8150000Y-11910000D02*
X8070000Y-11990000D01*
X8110000Y-11910000D02*
X8110000Y-11990000D01*
X8070000Y-11950000D02*
X8150000Y-11950000D01*
X8090000Y-11280000D02*
X8170000Y-11360000D01*
X8170000Y-11280000D02*
X8090000Y-11360000D01*
X8130000Y-11280000D02*
X8130000Y-11360000D01*
X8090000Y-11320000D02*
X8170000Y-11320000D01*
X8289810Y-12580000D02*
X8369810Y-12660000D01*
X8369810Y-12580000D02*
X8289810Y-12660000D01*
X8329810Y-12580000D02*
X8329810Y-12660000D01*
X8289810Y-12620000D02*
X8369810Y-12620000D01*
X8360000Y-11250000D02*
X8440000Y-11330000D01*
X8440000Y-11250000D02*
X8360000Y-11330000D01*
X8400000Y-11250000D02*
X8400000Y-11330000D01*
X8360000Y-11290000D02*
X8440000Y-11290000D01*
X8540000Y-13510000D02*
X8620000Y-13590000D01*
X8620000Y-13510000D02*
X8540000Y-13590000D01*
X8580000Y-13510000D02*
X8580000Y-13590000D01*
X8540000Y-13550000D02*
X8620000Y-13550000D01*
X8870000Y-8240000D02*
X8950000Y-8320000D01*
X8950000Y-8240000D02*
X8870000Y-8320000D01*
X8910000Y-8240000D02*
X8910000Y-8320000D01*
X8870000Y-8280000D02*
X8950000Y-8280000D01*
X8900000Y-10590000D02*
X8980000Y-10670000D01*
X8980000Y-10590000D02*
X8900000Y-10670000D01*
X8940000Y-10590000D02*
X8940000Y-10670000D01*
X8900000Y-10630000D02*
X8980000Y-10630000D01*
X9310000Y-10860000D02*
X9390000Y-10940000D01*
X9390000Y-10860000D02*
X9310000Y-10940000D01*
X9350000Y-10860000D02*
X9350000Y-10940000D01*
X9310000Y-10900000D02*
X9390000Y-10900000D01*
X9429810Y-13840000D02*
X9509810Y-13920000D01*
X9509810Y-13840000D02*
X9429810Y-13920000D01*
X9469810Y-13840000D02*
X9469810Y-13920000D01*
X9429810Y-13880000D02*
X9509810Y-13880000D01*
X11540000Y-7760000D02*
X11620000Y-7840000D01*
X11620000Y-7760000D02*
X11540000Y-7840000D01*
X11580000Y-7760000D02*
X11580000Y-7840000D01*
X11540000Y-7800000D02*
X11620000Y-7800000D01*
X11850000Y-9510000D02*
X11930000Y-9590000D01*
X11930000Y-9510000D02*
X11850000Y-9590000D01*
X11890000Y-9510000D02*
X11890000Y-9590000D01*
X11850000Y-9550000D02*
X11930000Y-9550000D01*
X11867500Y-8012500D02*
X11947500Y-8092500D01*
X11947500Y-8012500D02*
X11867500Y-8092500D01*
X11907500Y-8012500D02*
X11907500Y-8092500D01*
X11867500Y-8052500D02*
X11947500Y-8052500D01*
X13040000Y-7910000D02*
X13120000Y-7990000D01*
X13120000Y-7910000D02*
X13040000Y-7990000D01*
X13080000Y-7910000D02*
X13080000Y-7990000D01*
X13040000Y-7950000D02*
X13120000Y-7950000D01*
X5680000Y-17780000D02*
X5760000Y-17860000D01*
X5760000Y-17780000D02*
X5680000Y-17860000D01*
X5748284Y-17848285D02*
X5748284Y-17791716D01*
X5691715Y-17791716D01*
X5691715Y-17848285D01*
X5748284Y-17848285D01*
X6440000Y-17780000D02*
X6520000Y-17860000D01*
X6520000Y-17780000D02*
X6440000Y-17860000D01*
X6508284Y-17848285D02*
X6508284Y-17791716D01*
X6451715Y-17791716D01*
X6451715Y-17848285D01*
X6508284Y-17848285D01*
X5150000Y-8230000D02*
X5250000Y-8330000D01*
X5250000Y-8230000D02*
X5150000Y-8330000D01*
X5200000Y-8330000D02*
X5250000Y-8280000D01*
X5200000Y-8230000D01*
X5150000Y-8280000D01*
X5200000Y-8330000D01*
X5570000Y-6370000D02*
X5670000Y-6470000D01*
X5670000Y-6370000D02*
X5570000Y-6470000D01*
X5620000Y-6470000D02*
X5670000Y-6420000D01*
X5620000Y-6370000D01*
X5570000Y-6420000D01*
X5620000Y-6470000D01*
X6070000Y-6640000D02*
X6070000Y-6740000D01*
X6020000Y-6690000D02*
X6120000Y-6690000D01*
X6120000Y-6690000D02*
G75*
G02*
X6020000Y-6690000I-50000J0D01*
G01*
X6020000Y-6690000D02*
G75*
G02*
X6120000Y-6690000I50000J0D01*
G01*
X6260000Y-8240000D02*
X6260000Y-8340000D01*
X6210000Y-8290000D02*
X6310000Y-8290000D01*
X6310000Y-8290000D02*
G75*
G02*
X6210000Y-8290000I-50000J0D01*
G01*
X6210000Y-8290000D02*
G75*
G02*
X6310000Y-8290000I50000J0D01*
G01*
X6690000Y-8140000D02*
X6690000Y-8240000D01*
X6640000Y-8190000D02*
X6740000Y-8190000D01*
X6740000Y-8190000D02*
G75*
G02*
X6640000Y-8190000I-50000J0D01*
G01*
X6640000Y-8190000D02*
G75*
G02*
X6740000Y-8190000I50000J0D01*
G01*
X7020000Y-8280000D02*
X7020000Y-8380000D01*
X6970000Y-8330000D02*
X7070000Y-8330000D01*
X7070000Y-8330000D02*
G75*
G02*
X6970000Y-8330000I-50000J0D01*
G01*
X6970000Y-8330000D02*
G75*
G02*
X7070000Y-8330000I50000J0D01*
G01*
X7610000Y-8960000D02*
X7610000Y-9060000D01*
X7560000Y-9010000D02*
X7660000Y-9010000D01*
X7660000Y-9010000D02*
G75*
G02*
X7560000Y-9010000I-50000J0D01*
G01*
X7560000Y-9010000D02*
G75*
G02*
X7660000Y-9010000I50000J0D01*
G01*
X9350000Y-14840000D02*
X9350000Y-14940000D01*
X9300000Y-14890000D02*
X9400000Y-14890000D01*
X9400000Y-14890000D02*
G75*
G02*
X9300000Y-14890000I-50000J0D01*
G01*
X9300000Y-14890000D02*
G75*
G02*
X9400000Y-14890000I50000J0D01*
G01*
X10940000Y-8370000D02*
X10940000Y-8470000D01*
X10890000Y-8420000D02*
X10990000Y-8420000D01*
X10990000Y-8420000D02*
G75*
G02*
X10890000Y-8420000I-50000J0D01*
G01*
X10890000Y-8420000D02*
G75*
G02*
X10990000Y-8420000I50000J0D01*
G01*
X11270000Y-16640000D02*
X11270000Y-16740000D01*
X11220000Y-16690000D02*
X11320000Y-16690000D01*
X11320000Y-16690000D02*
G75*
G02*
X11220000Y-16690000I-50000J0D01*
G01*
X11220000Y-16690000D02*
G75*
G02*
X11320000Y-16690000I50000J0D01*
G01*
X11350000Y-10306000D02*
X11350000Y-10406000D01*
X11300000Y-10356000D02*
X11400000Y-10356000D01*
X11400000Y-10356000D02*
G75*
G02*
X11300000Y-10356000I-50000J0D01*
G01*
X11300000Y-10356000D02*
G75*
G02*
X11400000Y-10356000I50000J0D01*
G01*
X11350000Y-10560000D02*
X11350000Y-10660000D01*
X11300000Y-10610000D02*
X11400000Y-10610000D01*
X11400000Y-10610000D02*
G75*
G02*
X11300000Y-10610000I-50000J0D01*
G01*
X11300000Y-10610000D02*
G75*
G02*
X11400000Y-10610000I50000J0D01*
G01*
X11350000Y-10814000D02*
X11350000Y-10914000D01*
X11300000Y-10864000D02*
X11400000Y-10864000D01*
X11400000Y-10864000D02*
G75*
G02*
X11300000Y-10864000I-50000J0D01*
G01*
X11300000Y-10864000D02*
G75*
G02*
X11400000Y-10864000I50000J0D01*
G01*
X11350000Y-11068000D02*
X11350000Y-11168000D01*
X11300000Y-11118000D02*
X11400000Y-11118000D01*
X11400000Y-11118000D02*
G75*
G02*
X11300000Y-11118000I-50000J0D01*
G01*
X11300000Y-11118000D02*
G75*
G02*
X11400000Y-11118000I50000J0D01*
G01*
X11350000Y-11322000D02*
X11350000Y-11422000D01*
X11300000Y-11372000D02*
X11400000Y-11372000D01*
X11400000Y-11372000D02*
G75*
G02*
X11300000Y-11372000I-50000J0D01*
G01*
X11300000Y-11372000D02*
G75*
G02*
X11400000Y-11372000I50000J0D01*
G01*
X11350000Y-11576000D02*
X11350000Y-11676000D01*
X11300000Y-11626000D02*
X11400000Y-11626000D01*
X11400000Y-11626000D02*
G75*
G02*
X11300000Y-11626000I-50000J0D01*
G01*
X11300000Y-11626000D02*
G75*
G02*
X11400000Y-11626000I50000J0D01*
G01*
X12504994Y-17270000D02*
X12504994Y-17370000D01*
X12454994Y-17320000D02*
X12554994Y-17320000D01*
X12554994Y-17320000D02*
G75*
G02*
X12454994Y-17320000I-50000J0D01*
G01*
X12454994Y-17320000D02*
G75*
G02*
X12554994Y-17320000I50000J0D01*
G01*
X12454994Y-17295000D02*
X12454994Y-17345000D01*
X12554994Y-17345000D02*
G75*
G02*
X12454994Y-17345000I-50000J0D01*
G01*
X12554994Y-17345000D02*
X12554994Y-17295000D01*
X12554994Y-17295000D02*
G75*
G03*
X12454994Y-17295000I-50000J0D01*
G01*
X12840000Y-11970000D02*
X12840000Y-12070000D01*
X12790000Y-12020000D02*
X12890000Y-12020000D01*
X12890000Y-12020000D02*
G75*
G02*
X12790000Y-12020000I-50000J0D01*
G01*
X12790000Y-12020000D02*
G75*
G02*
X12890000Y-12020000I50000J0D01*
G01*
X12930012Y-17800000D02*
X12930012Y-17900000D01*
X12880012Y-17850000D02*
X12980012Y-17850000D01*
X12980012Y-17850000D02*
G75*
G02*
X12880012Y-17850000I-50000J0D01*
G01*
X12880012Y-17850000D02*
G75*
G02*
X12980012Y-17850000I50000J0D01*
G01*
X12880012Y-17825000D02*
X12880012Y-17875000D01*
X12980012Y-17875000D02*
G75*
G02*
X12880012Y-17875000I-50000J0D01*
G01*
X12980012Y-17875000D02*
X12980012Y-17825000D01*
X12980012Y-17825000D02*
G75*
G03*
X12880012Y-17825000I-50000J0D01*
G01*
X13054994Y-17270000D02*
X13054994Y-17370000D01*
X13004994Y-17320000D02*
X13104994Y-17320000D01*
X13104994Y-17320000D02*
G75*
G02*
X13004994Y-17320000I-50000J0D01*
G01*
X13004994Y-17320000D02*
G75*
G02*
X13104994Y-17320000I50000J0D01*
G01*
X13004994Y-17295000D02*
X13004994Y-17345000D01*
X13104994Y-17345000D02*
G75*
G02*
X13004994Y-17345000I-50000J0D01*
G01*
X13104994Y-17345000D02*
X13104994Y-17295000D01*
X13104994Y-17295000D02*
G75*
G03*
X13004994Y-17295000I-50000J0D01*
G01*
X13470000Y-14730000D02*
X13470000Y-14830000D01*
X13420000Y-14780000D02*
X13520000Y-14780000D01*
X13520000Y-14780000D02*
G75*
G02*
X13420000Y-14780000I-50000J0D01*
G01*
X13420000Y-14780000D02*
G75*
G02*
X13520000Y-14780000I50000J0D01*
G01*
X13550000Y-15140000D02*
X13550000Y-15240000D01*
X13500000Y-15190000D02*
X13600000Y-15190000D01*
X13600000Y-15190000D02*
G75*
G02*
X13500000Y-15190000I-50000J0D01*
G01*
X13500000Y-15190000D02*
G75*
G02*
X13600000Y-15190000I50000J0D01*
G01*
X13600000Y-15540000D02*
X13600000Y-15640000D01*
X13550000Y-15590000D02*
X13650000Y-15590000D01*
X13650000Y-15590000D02*
G75*
G02*
X13550000Y-15590000I-50000J0D01*
G01*
X13550000Y-15590000D02*
G75*
G02*
X13650000Y-15590000I50000J0D01*
G01*
X13640000Y-17380000D02*
X13640000Y-17480000D01*
X13590000Y-17430000D02*
X13690000Y-17430000D01*
X13690000Y-17430000D02*
G75*
G02*
X13590000Y-17430000I-50000J0D01*
G01*
X13590000Y-17430000D02*
G75*
G02*
X13690000Y-17430000I50000J0D01*
G01*
X13640000Y-17860000D02*
X13640000Y-17960000D01*
X13590000Y-17910000D02*
X13690000Y-17910000D01*
X13690000Y-17910000D02*
G75*
G02*
X13590000Y-17910000I-50000J0D01*
G01*
X13590000Y-17910000D02*
G75*
G02*
X13690000Y-17910000I50000J0D01*
G01*
D13*
X4105563Y-7532313D02*
X4105563Y-7460187D01*
X4033437Y-7460187D01*
X4033437Y-7532313D01*
X4105563Y-7532313D01*
X4120500Y-7496250D02*
G75*
G02*
X4018500Y-7496250I-51000J0D01*
G01*
X4018500Y-7496250D02*
G75*
G02*
X4120500Y-7496250I51000J0D01*
G01*
D12*
X4112000Y-7445250D02*
X4027000Y-7445250D01*
X4027000Y-7547250D02*
G75*
G02*
X4027000Y-7445250I0J51000D01*
G01*
X4027000Y-7547250D02*
X4112000Y-7547250D01*
X4112000Y-7547250D02*
G75*
G03*
X4112000Y-7445250I0J51000D01*
G01*
D13*
X4105563Y-8294313D02*
X4105563Y-8222187D01*
X4033437Y-8222187D01*
X4033437Y-8294313D01*
X4105563Y-8294313D01*
X4120500Y-8258250D02*
G75*
G02*
X4018500Y-8258250I-51000J0D01*
G01*
X4018500Y-8258250D02*
G75*
G02*
X4120500Y-8258250I51000J0D01*
G01*
D12*
X4112000Y-8207250D02*
X4027000Y-8207250D01*
X4027000Y-8309250D02*
G75*
G02*
X4027000Y-8207250I0J51000D01*
G01*
X4027000Y-8309250D02*
X4112000Y-8309250D01*
X4112000Y-8309250D02*
G75*
G03*
X4112000Y-8207250I0J51000D01*
G01*
D13*
X4106063Y-17721813D02*
X4106063Y-17649687D01*
X4033937Y-17649687D01*
X4033937Y-17721813D01*
X4106063Y-17721813D01*
X4121000Y-17685750D02*
G75*
G02*
X4019000Y-17685750I-51000J0D01*
G01*
X4019000Y-17685750D02*
G75*
G02*
X4121000Y-17685750I51000J0D01*
G01*
D12*
X4027500Y-17736750D02*
X4112500Y-17736750D01*
X4112500Y-17634750D02*
G75*
G02*
X4112500Y-17736750I0J-51000D01*
G01*
X4112500Y-17634750D02*
X4027500Y-17634750D01*
X4027500Y-17634750D02*
G75*
G03*
X4027500Y-17736750I0J-51000D01*
G01*
D13*
X4106063Y-18483813D02*
X4106063Y-18411687D01*
X4033937Y-18411687D01*
X4033937Y-18483813D01*
X4106063Y-18483813D01*
X4121000Y-18447750D02*
G75*
G02*
X4019000Y-18447750I-51000J0D01*
G01*
X4019000Y-18447750D02*
G75*
G02*
X4121000Y-18447750I51000J0D01*
G01*
D12*
X4027500Y-18498750D02*
X4112500Y-18498750D01*
X4112500Y-18396750D02*
G75*
G02*
X4112500Y-18498750I0J-51000D01*
G01*
X4112500Y-18396750D02*
X4027500Y-18396750D01*
X4027500Y-18396750D02*
G75*
G03*
X4027500Y-18498750I0J-51000D01*
G01*
D11*
X3978277Y-19003984D02*
X3978277Y-18803984D01*
X3978277Y-18803984D02*
X4025896Y-18803984D01*
X4025896Y-18803984D02*
X4054467Y-18813508D01*
X4054467Y-18813508D02*
X4073515Y-18832555D01*
X4073515Y-18832555D02*
X4083039Y-18851603D01*
X4083039Y-18851603D02*
X4092562Y-18889698D01*
X4092562Y-18889698D02*
X4092562Y-18918270D01*
X4092562Y-18918270D02*
X4083039Y-18956365D01*
X4083039Y-18956365D02*
X4073515Y-18975412D01*
X4073515Y-18975412D02*
X4054467Y-18994460D01*
X4054467Y-18994460D02*
X4025896Y-19003984D01*
X4025896Y-19003984D02*
X3978277Y-19003984D01*
X4178277Y-19003984D02*
X4178277Y-18870650D01*
X4178277Y-18908746D02*
X4187801Y-18889698D01*
X4187801Y-18889698D02*
X4197324Y-18880174D01*
X4197324Y-18880174D02*
X4216372Y-18870650D01*
X4216372Y-18870650D02*
X4235420Y-18870650D01*
X4302086Y-19003984D02*
X4302086Y-18870650D01*
X4302086Y-18803984D02*
X4292563Y-18813508D01*
X4292563Y-18813508D02*
X4302086Y-18823031D01*
X4302086Y-18823031D02*
X4311610Y-18813508D01*
X4311610Y-18813508D02*
X4302086Y-18803984D01*
X4302086Y-18803984D02*
X4302086Y-18823031D01*
X4425896Y-19003984D02*
X4406848Y-18994460D01*
X4406848Y-18994460D02*
X4397324Y-18975412D01*
X4397324Y-18975412D02*
X4397324Y-18803984D01*
X4530658Y-19003984D02*
X4511610Y-18994460D01*
X4511610Y-18994460D02*
X4502086Y-18975412D01*
X4502086Y-18975412D02*
X4502086Y-18803984D01*
X4759229Y-19003984D02*
X4759229Y-18803984D01*
X4759229Y-18803984D02*
X4825896Y-18946841D01*
X4825896Y-18946841D02*
X4892563Y-18803984D01*
X4892563Y-18803984D02*
X4892563Y-19003984D01*
X5073515Y-19003984D02*
X5073515Y-18899222D01*
X5073515Y-18899222D02*
X5063991Y-18880174D01*
X5063991Y-18880174D02*
X5044944Y-18870650D01*
X5044944Y-18870650D02*
X5006848Y-18870650D01*
X5006848Y-18870650D02*
X4987801Y-18880174D01*
X5073515Y-18994460D02*
X5054467Y-19003984D01*
X5054467Y-19003984D02*
X5006848Y-19003984D01*
X5006848Y-19003984D02*
X4987801Y-18994460D01*
X4987801Y-18994460D02*
X4978277Y-18975412D01*
X4978277Y-18975412D02*
X4978277Y-18956365D01*
X4978277Y-18956365D02*
X4987801Y-18937317D01*
X4987801Y-18937317D02*
X5006848Y-18927793D01*
X5006848Y-18927793D02*
X5054467Y-18927793D01*
X5054467Y-18927793D02*
X5073515Y-18918270D01*
X5168753Y-18870650D02*
X5168753Y-19070650D01*
X5168753Y-18880174D02*
X5187801Y-18870650D01*
X5187801Y-18870650D02*
X5225896Y-18870650D01*
X5225896Y-18870650D02*
X5244944Y-18880174D01*
X5244944Y-18880174D02*
X5254467Y-18889698D01*
X5254467Y-18889698D02*
X5263991Y-18908746D01*
X5263991Y-18908746D02*
X5263991Y-18965889D01*
X5263991Y-18965889D02*
X5254467Y-18984936D01*
X5254467Y-18984936D02*
X5244944Y-18994460D01*
X5244944Y-18994460D02*
X5225896Y-19003984D01*
X5225896Y-19003984D02*
X5187801Y-19003984D01*
X5187801Y-19003984D02*
X5168753Y-18994460D01*
X5349705Y-18984936D02*
X5359229Y-18994460D01*
X5359229Y-18994460D02*
X5349705Y-19003984D01*
X5349705Y-19003984D02*
X5340182Y-18994460D01*
X5340182Y-18994460D02*
X5349705Y-18984936D01*
X5349705Y-18984936D02*
X5349705Y-19003984D01*
X5349705Y-18880174D02*
X5359229Y-18889698D01*
X5359229Y-18889698D02*
X5349705Y-18899222D01*
X5349705Y-18899222D02*
X5340182Y-18889698D01*
X5340182Y-18889698D02*
X5349705Y-18880174D01*
X5349705Y-18880174D02*
X5349705Y-18899222D01*
D12*
X3687500Y-19317500D02*
X3717500Y-19347500D01*
X3717500Y-19317500D02*
X3687500Y-19347500D01*
D11*
X4016372Y-19223984D02*
X4035420Y-19223984D01*
X4035420Y-19223984D02*
X4054467Y-19233508D01*
X4054467Y-19233508D02*
X4063991Y-19243031D01*
X4063991Y-19243031D02*
X4073515Y-19262079D01*
X4073515Y-19262079D02*
X4083039Y-19300174D01*
X4083039Y-19300174D02*
X4083039Y-19347793D01*
X4083039Y-19347793D02*
X4073515Y-19385889D01*
X4073515Y-19385889D02*
X4063991Y-19404936D01*
X4063991Y-19404936D02*
X4054467Y-19414460D01*
X4054467Y-19414460D02*
X4035420Y-19423984D01*
X4035420Y-19423984D02*
X4016372Y-19423984D01*
X4016372Y-19423984D02*
X3997324Y-19414460D01*
X3997324Y-19414460D02*
X3987801Y-19404936D01*
X3987801Y-19404936D02*
X3978277Y-19385889D01*
X3978277Y-19385889D02*
X3968753Y-19347793D01*
X3968753Y-19347793D02*
X3968753Y-19300174D01*
X3968753Y-19300174D02*
X3978277Y-19262079D01*
X3978277Y-19262079D02*
X3987801Y-19243031D01*
X3987801Y-19243031D02*
X3997324Y-19233508D01*
X3997324Y-19233508D02*
X4016372Y-19223984D01*
X4168753Y-19404936D02*
X4178277Y-19414460D01*
X4178277Y-19414460D02*
X4168753Y-19423984D01*
X4168753Y-19423984D02*
X4159229Y-19414460D01*
X4159229Y-19414460D02*
X4168753Y-19404936D01*
X4168753Y-19404936D02*
X4168753Y-19423984D01*
X4244944Y-19223984D02*
X4368753Y-19223984D01*
X4368753Y-19223984D02*
X4302086Y-19300174D01*
X4302086Y-19300174D02*
X4330658Y-19300174D01*
X4330658Y-19300174D02*
X4349705Y-19309698D01*
X4349705Y-19309698D02*
X4359229Y-19319222D01*
X4359229Y-19319222D02*
X4368753Y-19338270D01*
X4368753Y-19338270D02*
X4368753Y-19385889D01*
X4368753Y-19385889D02*
X4359229Y-19404936D01*
X4359229Y-19404936D02*
X4349705Y-19414460D01*
X4349705Y-19414460D02*
X4330658Y-19423984D01*
X4330658Y-19423984D02*
X4273515Y-19423984D01*
X4273515Y-19423984D02*
X4254467Y-19414460D01*
X4254467Y-19414460D02*
X4244944Y-19404936D01*
X4492563Y-19223984D02*
X4511610Y-19223984D01*
X4511610Y-19223984D02*
X4530658Y-19233508D01*
X4530658Y-19233508D02*
X4540182Y-19243031D01*
X4540182Y-19243031D02*
X4549705Y-19262079D01*
X4549705Y-19262079D02*
X4559229Y-19300174D01*
X4559229Y-19300174D02*
X4559229Y-19347793D01*
X4559229Y-19347793D02*
X4549705Y-19385889D01*
X4549705Y-19385889D02*
X4540182Y-19404936D01*
X4540182Y-19404936D02*
X4530658Y-19414460D01*
X4530658Y-19414460D02*
X4511610Y-19423984D01*
X4511610Y-19423984D02*
X4492563Y-19423984D01*
X4492563Y-19423984D02*
X4473515Y-19414460D01*
X4473515Y-19414460D02*
X4463991Y-19404936D01*
X4463991Y-19404936D02*
X4454467Y-19385889D01*
X4454467Y-19385889D02*
X4444944Y-19347793D01*
X4444944Y-19347793D02*
X4444944Y-19300174D01*
X4444944Y-19300174D02*
X4454467Y-19262079D01*
X4454467Y-19262079D02*
X4463991Y-19243031D01*
X4463991Y-19243031D02*
X4473515Y-19233508D01*
X4473515Y-19233508D02*
X4492563Y-19223984D01*
X4683039Y-19223984D02*
X4702086Y-19223984D01*
X4702086Y-19223984D02*
X4721134Y-19233508D01*
X4721134Y-19233508D02*
X4730658Y-19243031D01*
X4730658Y-19243031D02*
X4740182Y-19262079D01*
X4740182Y-19262079D02*
X4749705Y-19300174D01*
X4749705Y-19300174D02*
X4749705Y-19347793D01*
X4749705Y-19347793D02*
X4740182Y-19385889D01*
X4740182Y-19385889D02*
X4730658Y-19404936D01*
X4730658Y-19404936D02*
X4721134Y-19414460D01*
X4721134Y-19414460D02*
X4702086Y-19423984D01*
X4702086Y-19423984D02*
X4683039Y-19423984D01*
X4683039Y-19423984D02*
X4663991Y-19414460D01*
X4663991Y-19414460D02*
X4654467Y-19404936D01*
X4654467Y-19404936D02*
X4644944Y-19385889D01*
X4644944Y-19385889D02*
X4635420Y-19347793D01*
X4635420Y-19347793D02*
X4635420Y-19300174D01*
X4635420Y-19300174D02*
X4644944Y-19262079D01*
X4644944Y-19262079D02*
X4654467Y-19243031D01*
X4654467Y-19243031D02*
X4663991Y-19233508D01*
X4663991Y-19233508D02*
X4683039Y-19223984D01*
X4835420Y-19423984D02*
X4835420Y-19290650D01*
X4835420Y-19309698D02*
X4844944Y-19300174D01*
X4844944Y-19300174D02*
X4863991Y-19290650D01*
X4863991Y-19290650D02*
X4892563Y-19290650D01*
X4892563Y-19290650D02*
X4911610Y-19300174D01*
X4911610Y-19300174D02*
X4921134Y-19319222D01*
X4921134Y-19319222D02*
X4921134Y-19423984D01*
X4921134Y-19319222D02*
X4930658Y-19300174D01*
X4930658Y-19300174D02*
X4949705Y-19290650D01*
X4949705Y-19290650D02*
X4978277Y-19290650D01*
X4978277Y-19290650D02*
X4997325Y-19300174D01*
X4997325Y-19300174D02*
X5006848Y-19319222D01*
X5006848Y-19319222D02*
X5006848Y-19423984D01*
X5102086Y-19423984D02*
X5102086Y-19290650D01*
X5102086Y-19309698D02*
X5111610Y-19300174D01*
X5111610Y-19300174D02*
X5130658Y-19290650D01*
X5130658Y-19290650D02*
X5159229Y-19290650D01*
X5159229Y-19290650D02*
X5178277Y-19300174D01*
X5178277Y-19300174D02*
X5187801Y-19319222D01*
X5187801Y-19319222D02*
X5187801Y-19423984D01*
X5187801Y-19319222D02*
X5197325Y-19300174D01*
X5197325Y-19300174D02*
X5216372Y-19290650D01*
X5216372Y-19290650D02*
X5244944Y-19290650D01*
X5244944Y-19290650D02*
X5263991Y-19300174D01*
X5263991Y-19300174D02*
X5273515Y-19319222D01*
X5273515Y-19319222D02*
X5273515Y-19423984D01*
X5663991Y-19214460D02*
X5492563Y-19471603D01*
X5921134Y-19223984D02*
X5940182Y-19223984D01*
X5940182Y-19223984D02*
X5959229Y-19233508D01*
X5959229Y-19233508D02*
X5968753Y-19243031D01*
X5968753Y-19243031D02*
X5978277Y-19262079D01*
X5978277Y-19262079D02*
X5987801Y-19300174D01*
X5987801Y-19300174D02*
X5987801Y-19347793D01*
X5987801Y-19347793D02*
X5978277Y-19385889D01*
X5978277Y-19385889D02*
X5968753Y-19404936D01*
X5968753Y-19404936D02*
X5959229Y-19414460D01*
X5959229Y-19414460D02*
X5940182Y-19423984D01*
X5940182Y-19423984D02*
X5921134Y-19423984D01*
X5921134Y-19423984D02*
X5902086Y-19414460D01*
X5902086Y-19414460D02*
X5892563Y-19404936D01*
X5892563Y-19404936D02*
X5883039Y-19385889D01*
X5883039Y-19385889D02*
X5873515Y-19347793D01*
X5873515Y-19347793D02*
X5873515Y-19300174D01*
X5873515Y-19300174D02*
X5883039Y-19262079D01*
X5883039Y-19262079D02*
X5892563Y-19243031D01*
X5892563Y-19243031D02*
X5902086Y-19233508D01*
X5902086Y-19233508D02*
X5921134Y-19223984D01*
X6073515Y-19404936D02*
X6083039Y-19414460D01*
X6083039Y-19414460D02*
X6073515Y-19423984D01*
X6073515Y-19423984D02*
X6063991Y-19414460D01*
X6063991Y-19414460D02*
X6073515Y-19404936D01*
X6073515Y-19404936D02*
X6073515Y-19423984D01*
X6206848Y-19223984D02*
X6225896Y-19223984D01*
X6225896Y-19223984D02*
X6244944Y-19233508D01*
X6244944Y-19233508D02*
X6254467Y-19243031D01*
X6254467Y-19243031D02*
X6263991Y-19262079D01*
X6263991Y-19262079D02*
X6273515Y-19300174D01*
X6273515Y-19300174D02*
X6273515Y-19347793D01*
X6273515Y-19347793D02*
X6263991Y-19385889D01*
X6263991Y-19385889D02*
X6254467Y-19404936D01*
X6254467Y-19404936D02*
X6244944Y-19414460D01*
X6244944Y-19414460D02*
X6225896Y-19423984D01*
X6225896Y-19423984D02*
X6206848Y-19423984D01*
X6206848Y-19423984D02*
X6187801Y-19414460D01*
X6187801Y-19414460D02*
X6178277Y-19404936D01*
X6178277Y-19404936D02*
X6168753Y-19385889D01*
X6168753Y-19385889D02*
X6159229Y-19347793D01*
X6159229Y-19347793D02*
X6159229Y-19300174D01*
X6159229Y-19300174D02*
X6168753Y-19262079D01*
X6168753Y-19262079D02*
X6178277Y-19243031D01*
X6178277Y-19243031D02*
X6187801Y-19233508D01*
X6187801Y-19233508D02*
X6206848Y-19223984D01*
X6463991Y-19423984D02*
X6349706Y-19423984D01*
X6406848Y-19423984D02*
X6406848Y-19223984D01*
X6406848Y-19223984D02*
X6387801Y-19252555D01*
X6387801Y-19252555D02*
X6368753Y-19271603D01*
X6368753Y-19271603D02*
X6349706Y-19281127D01*
X6654467Y-19423984D02*
X6540182Y-19423984D01*
X6597325Y-19423984D02*
X6597325Y-19223984D01*
X6597325Y-19223984D02*
X6578277Y-19252555D01*
X6578277Y-19252555D02*
X6559229Y-19271603D01*
X6559229Y-19271603D02*
X6540182Y-19281127D01*
X6768753Y-19309698D02*
X6749706Y-19300174D01*
X6749706Y-19300174D02*
X6740182Y-19290650D01*
X6740182Y-19290650D02*
X6730658Y-19271603D01*
X6730658Y-19271603D02*
X6730658Y-19262079D01*
X6730658Y-19262079D02*
X6740182Y-19243031D01*
X6740182Y-19243031D02*
X6749706Y-19233508D01*
X6749706Y-19233508D02*
X6768753Y-19223984D01*
X6768753Y-19223984D02*
X6806848Y-19223984D01*
X6806848Y-19223984D02*
X6825896Y-19233508D01*
X6825896Y-19233508D02*
X6835420Y-19243031D01*
X6835420Y-19243031D02*
X6844944Y-19262079D01*
X6844944Y-19262079D02*
X6844944Y-19271603D01*
X6844944Y-19271603D02*
X6835420Y-19290650D01*
X6835420Y-19290650D02*
X6825896Y-19300174D01*
X6825896Y-19300174D02*
X6806848Y-19309698D01*
X6806848Y-19309698D02*
X6768753Y-19309698D01*
X6768753Y-19309698D02*
X6749706Y-19319222D01*
X6749706Y-19319222D02*
X6740182Y-19328746D01*
X6740182Y-19328746D02*
X6730658Y-19347793D01*
X6730658Y-19347793D02*
X6730658Y-19385889D01*
X6730658Y-19385889D02*
X6740182Y-19404936D01*
X6740182Y-19404936D02*
X6749706Y-19414460D01*
X6749706Y-19414460D02*
X6768753Y-19423984D01*
X6768753Y-19423984D02*
X6806848Y-19423984D01*
X6806848Y-19423984D02*
X6825896Y-19414460D01*
X6825896Y-19414460D02*
X6835420Y-19404936D01*
X6835420Y-19404936D02*
X6844944Y-19385889D01*
X6844944Y-19385889D02*
X6844944Y-19347793D01*
X6844944Y-19347793D02*
X6835420Y-19328746D01*
X6835420Y-19328746D02*
X6825896Y-19319222D01*
X6825896Y-19319222D02*
X6806848Y-19309698D01*
X6921134Y-19223984D02*
X6921134Y-19262079D01*
X6997325Y-19223984D02*
X6997325Y-19262079D01*
X7292563Y-19500174D02*
X7283039Y-19490650D01*
X7283039Y-19490650D02*
X7263991Y-19462079D01*
X7263991Y-19462079D02*
X7254468Y-19443031D01*
X7254468Y-19443031D02*
X7244944Y-19414460D01*
X7244944Y-19414460D02*
X7235420Y-19366841D01*
X7235420Y-19366841D02*
X7235420Y-19328746D01*
X7235420Y-19328746D02*
X7244944Y-19281127D01*
X7244944Y-19281127D02*
X7254468Y-19252555D01*
X7254468Y-19252555D02*
X7263991Y-19233508D01*
X7263991Y-19233508D02*
X7283039Y-19204936D01*
X7283039Y-19204936D02*
X7292563Y-19195412D01*
X7473515Y-19423984D02*
X7359229Y-19423984D01*
X7416372Y-19423984D02*
X7416372Y-19223984D01*
X7416372Y-19223984D02*
X7397325Y-19252555D01*
X7397325Y-19252555D02*
X7378277Y-19271603D01*
X7378277Y-19271603D02*
X7359229Y-19281127D01*
X7644944Y-19290650D02*
X7644944Y-19423984D01*
X7597325Y-19214460D02*
X7549706Y-19357317D01*
X7549706Y-19357317D02*
X7673515Y-19357317D01*
X7730658Y-19223984D02*
X7854468Y-19223984D01*
X7854468Y-19223984D02*
X7787801Y-19300174D01*
X7787801Y-19300174D02*
X7816372Y-19300174D01*
X7816372Y-19300174D02*
X7835420Y-19309698D01*
X7835420Y-19309698D02*
X7844944Y-19319222D01*
X7844944Y-19319222D02*
X7854468Y-19338270D01*
X7854468Y-19338270D02*
X7854468Y-19385889D01*
X7854468Y-19385889D02*
X7844944Y-19404936D01*
X7844944Y-19404936D02*
X7835420Y-19414460D01*
X7835420Y-19414460D02*
X7816372Y-19423984D01*
X7816372Y-19423984D02*
X7759229Y-19423984D01*
X7759229Y-19423984D02*
X7740182Y-19414460D01*
X7740182Y-19414460D02*
X7730658Y-19404936D01*
X8092563Y-19423984D02*
X8092563Y-19223984D01*
X8178277Y-19423984D02*
X8178277Y-19319222D01*
X8178277Y-19319222D02*
X8168753Y-19300174D01*
X8168753Y-19300174D02*
X8149706Y-19290650D01*
X8149706Y-19290650D02*
X8121134Y-19290650D01*
X8121134Y-19290650D02*
X8102087Y-19300174D01*
X8102087Y-19300174D02*
X8092563Y-19309698D01*
X8302087Y-19423984D02*
X8283039Y-19414460D01*
X8283039Y-19414460D02*
X8273515Y-19404936D01*
X8273515Y-19404936D02*
X8263991Y-19385889D01*
X8263991Y-19385889D02*
X8263991Y-19328746D01*
X8263991Y-19328746D02*
X8273515Y-19309698D01*
X8273515Y-19309698D02*
X8283039Y-19300174D01*
X8283039Y-19300174D02*
X8302087Y-19290650D01*
X8302087Y-19290650D02*
X8330658Y-19290650D01*
X8330658Y-19290650D02*
X8349706Y-19300174D01*
X8349706Y-19300174D02*
X8359230Y-19309698D01*
X8359230Y-19309698D02*
X8368753Y-19328746D01*
X8368753Y-19328746D02*
X8368753Y-19385889D01*
X8368753Y-19385889D02*
X8359230Y-19404936D01*
X8359230Y-19404936D02*
X8349706Y-19414460D01*
X8349706Y-19414460D02*
X8330658Y-19423984D01*
X8330658Y-19423984D02*
X8302087Y-19423984D01*
X8483039Y-19423984D02*
X8463992Y-19414460D01*
X8463992Y-19414460D02*
X8454468Y-19395412D01*
X8454468Y-19395412D02*
X8454468Y-19223984D01*
X8635420Y-19414460D02*
X8616373Y-19423984D01*
X8616373Y-19423984D02*
X8578277Y-19423984D01*
X8578277Y-19423984D02*
X8559230Y-19414460D01*
X8559230Y-19414460D02*
X8549706Y-19395412D01*
X8549706Y-19395412D02*
X8549706Y-19319222D01*
X8549706Y-19319222D02*
X8559230Y-19300174D01*
X8559230Y-19300174D02*
X8578277Y-19290650D01*
X8578277Y-19290650D02*
X8616373Y-19290650D01*
X8616373Y-19290650D02*
X8635420Y-19300174D01*
X8635420Y-19300174D02*
X8644944Y-19319222D01*
X8644944Y-19319222D02*
X8644944Y-19338270D01*
X8644944Y-19338270D02*
X8549706Y-19357317D01*
X8721134Y-19414460D02*
X8740182Y-19423984D01*
X8740182Y-19423984D02*
X8778277Y-19423984D01*
X8778277Y-19423984D02*
X8797325Y-19414460D01*
X8797325Y-19414460D02*
X8806849Y-19395412D01*
X8806849Y-19395412D02*
X8806849Y-19385889D01*
X8806849Y-19385889D02*
X8797325Y-19366841D01*
X8797325Y-19366841D02*
X8778277Y-19357317D01*
X8778277Y-19357317D02*
X8749706Y-19357317D01*
X8749706Y-19357317D02*
X8730658Y-19347793D01*
X8730658Y-19347793D02*
X8721134Y-19328746D01*
X8721134Y-19328746D02*
X8721134Y-19319222D01*
X8721134Y-19319222D02*
X8730658Y-19300174D01*
X8730658Y-19300174D02*
X8749706Y-19290650D01*
X8749706Y-19290650D02*
X8778277Y-19290650D01*
X8778277Y-19290650D02*
X8797325Y-19300174D01*
X8873515Y-19500174D02*
X8883039Y-19490650D01*
X8883039Y-19490650D02*
X8902087Y-19462079D01*
X8902087Y-19462079D02*
X8911611Y-19443031D01*
X8911611Y-19443031D02*
X8921134Y-19414460D01*
X8921134Y-19414460D02*
X8930658Y-19366841D01*
X8930658Y-19366841D02*
X8930658Y-19328746D01*
X8930658Y-19328746D02*
X8921134Y-19281127D01*
X8921134Y-19281127D02*
X8911611Y-19252555D01*
X8911611Y-19252555D02*
X8902087Y-19233508D01*
X8902087Y-19233508D02*
X8883039Y-19204936D01*
X8883039Y-19204936D02*
X8873515Y-19195412D01*
D12*
X3717500Y-19596500D02*
G75*
G02*
X3679400Y-19596500I-19050J0D01*
G01*
X3679400Y-19596500D02*
G75*
G02*
X3717500Y-19596500I19050J0D01*
G01*
D11*
X4016372Y-19487984D02*
X4035420Y-19487984D01*
X4035420Y-19487984D02*
X4054467Y-19497508D01*
X4054467Y-19497508D02*
X4063991Y-19507031D01*
X4063991Y-19507031D02*
X4073515Y-19526079D01*
X4073515Y-19526079D02*
X4083039Y-19564174D01*
X4083039Y-19564174D02*
X4083039Y-19611793D01*
X4083039Y-19611793D02*
X4073515Y-19649889D01*
X4073515Y-19649889D02*
X4063991Y-19668936D01*
X4063991Y-19668936D02*
X4054467Y-19678460D01*
X4054467Y-19678460D02*
X4035420Y-19687984D01*
X4035420Y-19687984D02*
X4016372Y-19687984D01*
X4016372Y-19687984D02*
X3997324Y-19678460D01*
X3997324Y-19678460D02*
X3987801Y-19668936D01*
X3987801Y-19668936D02*
X3978277Y-19649889D01*
X3978277Y-19649889D02*
X3968753Y-19611793D01*
X3968753Y-19611793D02*
X3968753Y-19564174D01*
X3968753Y-19564174D02*
X3978277Y-19526079D01*
X3978277Y-19526079D02*
X3987801Y-19507031D01*
X3987801Y-19507031D02*
X3997324Y-19497508D01*
X3997324Y-19497508D02*
X4016372Y-19487984D01*
X4168753Y-19668936D02*
X4178277Y-19678460D01*
X4178277Y-19678460D02*
X4168753Y-19687984D01*
X4168753Y-19687984D02*
X4159229Y-19678460D01*
X4159229Y-19678460D02*
X4168753Y-19668936D01*
X4168753Y-19668936D02*
X4168753Y-19687984D01*
X4244944Y-19487984D02*
X4368753Y-19487984D01*
X4368753Y-19487984D02*
X4302086Y-19564174D01*
X4302086Y-19564174D02*
X4330658Y-19564174D01*
X4330658Y-19564174D02*
X4349705Y-19573698D01*
X4349705Y-19573698D02*
X4359229Y-19583222D01*
X4359229Y-19583222D02*
X4368753Y-19602270D01*
X4368753Y-19602270D02*
X4368753Y-19649889D01*
X4368753Y-19649889D02*
X4359229Y-19668936D01*
X4359229Y-19668936D02*
X4349705Y-19678460D01*
X4349705Y-19678460D02*
X4330658Y-19687984D01*
X4330658Y-19687984D02*
X4273515Y-19687984D01*
X4273515Y-19687984D02*
X4254467Y-19678460D01*
X4254467Y-19678460D02*
X4244944Y-19668936D01*
X4483039Y-19573698D02*
X4463991Y-19564174D01*
X4463991Y-19564174D02*
X4454467Y-19554650D01*
X4454467Y-19554650D02*
X4444944Y-19535603D01*
X4444944Y-19535603D02*
X4444944Y-19526079D01*
X4444944Y-19526079D02*
X4454467Y-19507031D01*
X4454467Y-19507031D02*
X4463991Y-19497508D01*
X4463991Y-19497508D02*
X4483039Y-19487984D01*
X4483039Y-19487984D02*
X4521134Y-19487984D01*
X4521134Y-19487984D02*
X4540182Y-19497508D01*
X4540182Y-19497508D02*
X4549705Y-19507031D01*
X4549705Y-19507031D02*
X4559229Y-19526079D01*
X4559229Y-19526079D02*
X4559229Y-19535603D01*
X4559229Y-19535603D02*
X4549705Y-19554650D01*
X4549705Y-19554650D02*
X4540182Y-19564174D01*
X4540182Y-19564174D02*
X4521134Y-19573698D01*
X4521134Y-19573698D02*
X4483039Y-19573698D01*
X4483039Y-19573698D02*
X4463991Y-19583222D01*
X4463991Y-19583222D02*
X4454467Y-19592746D01*
X4454467Y-19592746D02*
X4444944Y-19611793D01*
X4444944Y-19611793D02*
X4444944Y-19649889D01*
X4444944Y-19649889D02*
X4454467Y-19668936D01*
X4454467Y-19668936D02*
X4463991Y-19678460D01*
X4463991Y-19678460D02*
X4483039Y-19687984D01*
X4483039Y-19687984D02*
X4521134Y-19687984D01*
X4521134Y-19687984D02*
X4540182Y-19678460D01*
X4540182Y-19678460D02*
X4549705Y-19668936D01*
X4549705Y-19668936D02*
X4559229Y-19649889D01*
X4559229Y-19649889D02*
X4559229Y-19611793D01*
X4559229Y-19611793D02*
X4549705Y-19592746D01*
X4549705Y-19592746D02*
X4540182Y-19583222D01*
X4540182Y-19583222D02*
X4521134Y-19573698D01*
X4749705Y-19687984D02*
X4635420Y-19687984D01*
X4692563Y-19687984D02*
X4692563Y-19487984D01*
X4692563Y-19487984D02*
X4673515Y-19516555D01*
X4673515Y-19516555D02*
X4654467Y-19535603D01*
X4654467Y-19535603D02*
X4635420Y-19545127D01*
X4835420Y-19687984D02*
X4835420Y-19554650D01*
X4835420Y-19573698D02*
X4844944Y-19564174D01*
X4844944Y-19564174D02*
X4863991Y-19554650D01*
X4863991Y-19554650D02*
X4892563Y-19554650D01*
X4892563Y-19554650D02*
X4911610Y-19564174D01*
X4911610Y-19564174D02*
X4921134Y-19583222D01*
X4921134Y-19583222D02*
X4921134Y-19687984D01*
X4921134Y-19583222D02*
X4930658Y-19564174D01*
X4930658Y-19564174D02*
X4949705Y-19554650D01*
X4949705Y-19554650D02*
X4978277Y-19554650D01*
X4978277Y-19554650D02*
X4997325Y-19564174D01*
X4997325Y-19564174D02*
X5006848Y-19583222D01*
X5006848Y-19583222D02*
X5006848Y-19687984D01*
X5102086Y-19687984D02*
X5102086Y-19554650D01*
X5102086Y-19573698D02*
X5111610Y-19564174D01*
X5111610Y-19564174D02*
X5130658Y-19554650D01*
X5130658Y-19554650D02*
X5159229Y-19554650D01*
X5159229Y-19554650D02*
X5178277Y-19564174D01*
X5178277Y-19564174D02*
X5187801Y-19583222D01*
X5187801Y-19583222D02*
X5187801Y-19687984D01*
X5187801Y-19583222D02*
X5197325Y-19564174D01*
X5197325Y-19564174D02*
X5216372Y-19554650D01*
X5216372Y-19554650D02*
X5244944Y-19554650D01*
X5244944Y-19554650D02*
X5263991Y-19564174D01*
X5263991Y-19564174D02*
X5273515Y-19583222D01*
X5273515Y-19583222D02*
X5273515Y-19687984D01*
X5663991Y-19478460D02*
X5492563Y-19735603D01*
X5921134Y-19487984D02*
X5940182Y-19487984D01*
X5940182Y-19487984D02*
X5959229Y-19497508D01*
X5959229Y-19497508D02*
X5968753Y-19507031D01*
X5968753Y-19507031D02*
X5978277Y-19526079D01*
X5978277Y-19526079D02*
X5987801Y-19564174D01*
X5987801Y-19564174D02*
X5987801Y-19611793D01*
X5987801Y-19611793D02*
X5978277Y-19649889D01*
X5978277Y-19649889D02*
X5968753Y-19668936D01*
X5968753Y-19668936D02*
X5959229Y-19678460D01*
X5959229Y-19678460D02*
X5940182Y-19687984D01*
X5940182Y-19687984D02*
X5921134Y-19687984D01*
X5921134Y-19687984D02*
X5902086Y-19678460D01*
X5902086Y-19678460D02*
X5892563Y-19668936D01*
X5892563Y-19668936D02*
X5883039Y-19649889D01*
X5883039Y-19649889D02*
X5873515Y-19611793D01*
X5873515Y-19611793D02*
X5873515Y-19564174D01*
X5873515Y-19564174D02*
X5883039Y-19526079D01*
X5883039Y-19526079D02*
X5892563Y-19507031D01*
X5892563Y-19507031D02*
X5902086Y-19497508D01*
X5902086Y-19497508D02*
X5921134Y-19487984D01*
X6073515Y-19668936D02*
X6083039Y-19678460D01*
X6083039Y-19678460D02*
X6073515Y-19687984D01*
X6073515Y-19687984D02*
X6063991Y-19678460D01*
X6063991Y-19678460D02*
X6073515Y-19668936D01*
X6073515Y-19668936D02*
X6073515Y-19687984D01*
X6206848Y-19487984D02*
X6225896Y-19487984D01*
X6225896Y-19487984D02*
X6244944Y-19497508D01*
X6244944Y-19497508D02*
X6254467Y-19507031D01*
X6254467Y-19507031D02*
X6263991Y-19526079D01*
X6263991Y-19526079D02*
X6273515Y-19564174D01*
X6273515Y-19564174D02*
X6273515Y-19611793D01*
X6273515Y-19611793D02*
X6263991Y-19649889D01*
X6263991Y-19649889D02*
X6254467Y-19668936D01*
X6254467Y-19668936D02*
X6244944Y-19678460D01*
X6244944Y-19678460D02*
X6225896Y-19687984D01*
X6225896Y-19687984D02*
X6206848Y-19687984D01*
X6206848Y-19687984D02*
X6187801Y-19678460D01*
X6187801Y-19678460D02*
X6178277Y-19668936D01*
X6178277Y-19668936D02*
X6168753Y-19649889D01*
X6168753Y-19649889D02*
X6159229Y-19611793D01*
X6159229Y-19611793D02*
X6159229Y-19564174D01*
X6159229Y-19564174D02*
X6168753Y-19526079D01*
X6168753Y-19526079D02*
X6178277Y-19507031D01*
X6178277Y-19507031D02*
X6187801Y-19497508D01*
X6187801Y-19497508D02*
X6206848Y-19487984D01*
X6463991Y-19687984D02*
X6349706Y-19687984D01*
X6406848Y-19687984D02*
X6406848Y-19487984D01*
X6406848Y-19487984D02*
X6387801Y-19516555D01*
X6387801Y-19516555D02*
X6368753Y-19535603D01*
X6368753Y-19535603D02*
X6349706Y-19545127D01*
X6644944Y-19487984D02*
X6549706Y-19487984D01*
X6549706Y-19487984D02*
X6540182Y-19583222D01*
X6540182Y-19583222D02*
X6549706Y-19573698D01*
X6549706Y-19573698D02*
X6568753Y-19564174D01*
X6568753Y-19564174D02*
X6616372Y-19564174D01*
X6616372Y-19564174D02*
X6635420Y-19573698D01*
X6635420Y-19573698D02*
X6644944Y-19583222D01*
X6644944Y-19583222D02*
X6654467Y-19602270D01*
X6654467Y-19602270D02*
X6654467Y-19649889D01*
X6654467Y-19649889D02*
X6644944Y-19668936D01*
X6644944Y-19668936D02*
X6635420Y-19678460D01*
X6635420Y-19678460D02*
X6616372Y-19687984D01*
X6616372Y-19687984D02*
X6568753Y-19687984D01*
X6568753Y-19687984D02*
X6549706Y-19678460D01*
X6549706Y-19678460D02*
X6540182Y-19668936D01*
X6778277Y-19487984D02*
X6797325Y-19487984D01*
X6797325Y-19487984D02*
X6816372Y-19497508D01*
X6816372Y-19497508D02*
X6825896Y-19507031D01*
X6825896Y-19507031D02*
X6835420Y-19526079D01*
X6835420Y-19526079D02*
X6844944Y-19564174D01*
X6844944Y-19564174D02*
X6844944Y-19611793D01*
X6844944Y-19611793D02*
X6835420Y-19649889D01*
X6835420Y-19649889D02*
X6825896Y-19668936D01*
X6825896Y-19668936D02*
X6816372Y-19678460D01*
X6816372Y-19678460D02*
X6797325Y-19687984D01*
X6797325Y-19687984D02*
X6778277Y-19687984D01*
X6778277Y-19687984D02*
X6759229Y-19678460D01*
X6759229Y-19678460D02*
X6749706Y-19668936D01*
X6749706Y-19668936D02*
X6740182Y-19649889D01*
X6740182Y-19649889D02*
X6730658Y-19611793D01*
X6730658Y-19611793D02*
X6730658Y-19564174D01*
X6730658Y-19564174D02*
X6740182Y-19526079D01*
X6740182Y-19526079D02*
X6749706Y-19507031D01*
X6749706Y-19507031D02*
X6759229Y-19497508D01*
X6759229Y-19497508D02*
X6778277Y-19487984D01*
X6921134Y-19487984D02*
X6921134Y-19526079D01*
X6997325Y-19487984D02*
X6997325Y-19526079D01*
X7292563Y-19764174D02*
X7283039Y-19754650D01*
X7283039Y-19754650D02*
X7263991Y-19726079D01*
X7263991Y-19726079D02*
X7254468Y-19707031D01*
X7254468Y-19707031D02*
X7244944Y-19678460D01*
X7244944Y-19678460D02*
X7235420Y-19630841D01*
X7235420Y-19630841D02*
X7235420Y-19592746D01*
X7235420Y-19592746D02*
X7244944Y-19545127D01*
X7244944Y-19545127D02*
X7254468Y-19516555D01*
X7254468Y-19516555D02*
X7263991Y-19497508D01*
X7263991Y-19497508D02*
X7283039Y-19468936D01*
X7283039Y-19468936D02*
X7292563Y-19459412D01*
X7473515Y-19687984D02*
X7359229Y-19687984D01*
X7416372Y-19687984D02*
X7416372Y-19487984D01*
X7416372Y-19487984D02*
X7397325Y-19516555D01*
X7397325Y-19516555D02*
X7378277Y-19535603D01*
X7378277Y-19535603D02*
X7359229Y-19545127D01*
X7711610Y-19687984D02*
X7711610Y-19487984D01*
X7797325Y-19687984D02*
X7797325Y-19583222D01*
X7797325Y-19583222D02*
X7787801Y-19564174D01*
X7787801Y-19564174D02*
X7768753Y-19554650D01*
X7768753Y-19554650D02*
X7740182Y-19554650D01*
X7740182Y-19554650D02*
X7721134Y-19564174D01*
X7721134Y-19564174D02*
X7711610Y-19573698D01*
X7921134Y-19687984D02*
X7902087Y-19678460D01*
X7902087Y-19678460D02*
X7892563Y-19668936D01*
X7892563Y-19668936D02*
X7883039Y-19649889D01*
X7883039Y-19649889D02*
X7883039Y-19592746D01*
X7883039Y-19592746D02*
X7892563Y-19573698D01*
X7892563Y-19573698D02*
X7902087Y-19564174D01*
X7902087Y-19564174D02*
X7921134Y-19554650D01*
X7921134Y-19554650D02*
X7949706Y-19554650D01*
X7949706Y-19554650D02*
X7968753Y-19564174D01*
X7968753Y-19564174D02*
X7978277Y-19573698D01*
X7978277Y-19573698D02*
X7987801Y-19592746D01*
X7987801Y-19592746D02*
X7987801Y-19649889D01*
X7987801Y-19649889D02*
X7978277Y-19668936D01*
X7978277Y-19668936D02*
X7968753Y-19678460D01*
X7968753Y-19678460D02*
X7949706Y-19687984D01*
X7949706Y-19687984D02*
X7921134Y-19687984D01*
X8102087Y-19687984D02*
X8083039Y-19678460D01*
X8083039Y-19678460D02*
X8073515Y-19659412D01*
X8073515Y-19659412D02*
X8073515Y-19487984D01*
X8254468Y-19678460D02*
X8235420Y-19687984D01*
X8235420Y-19687984D02*
X8197325Y-19687984D01*
X8197325Y-19687984D02*
X8178277Y-19678460D01*
X8178277Y-19678460D02*
X8168753Y-19659412D01*
X8168753Y-19659412D02*
X8168753Y-19583222D01*
X8168753Y-19583222D02*
X8178277Y-19564174D01*
X8178277Y-19564174D02*
X8197325Y-19554650D01*
X8197325Y-19554650D02*
X8235420Y-19554650D01*
X8235420Y-19554650D02*
X8254468Y-19564174D01*
X8254468Y-19564174D02*
X8263991Y-19583222D01*
X8263991Y-19583222D02*
X8263991Y-19602270D01*
X8263991Y-19602270D02*
X8168753Y-19621317D01*
X8330658Y-19764174D02*
X8340182Y-19754650D01*
X8340182Y-19754650D02*
X8359230Y-19726079D01*
X8359230Y-19726079D02*
X8368753Y-19707031D01*
X8368753Y-19707031D02*
X8378277Y-19678460D01*
X8378277Y-19678460D02*
X8387801Y-19630841D01*
X8387801Y-19630841D02*
X8387801Y-19592746D01*
X8387801Y-19592746D02*
X8378277Y-19545127D01*
X8378277Y-19545127D02*
X8368753Y-19516555D01*
X8368753Y-19516555D02*
X8359230Y-19497508D01*
X8359230Y-19497508D02*
X8340182Y-19468936D01*
X8340182Y-19468936D02*
X8330658Y-19459412D01*
D12*
X3697180Y-19840180D02*
X3697180Y-19880820D01*
X3676860Y-19860500D02*
X3717500Y-19860500D01*
D11*
X4016372Y-19751984D02*
X4035420Y-19751984D01*
X4035420Y-19751984D02*
X4054467Y-19761508D01*
X4054467Y-19761508D02*
X4063991Y-19771031D01*
X4063991Y-19771031D02*
X4073515Y-19790079D01*
X4073515Y-19790079D02*
X4083039Y-19828174D01*
X4083039Y-19828174D02*
X4083039Y-19875793D01*
X4083039Y-19875793D02*
X4073515Y-19913889D01*
X4073515Y-19913889D02*
X4063991Y-19932936D01*
X4063991Y-19932936D02*
X4054467Y-19942460D01*
X4054467Y-19942460D02*
X4035420Y-19951984D01*
X4035420Y-19951984D02*
X4016372Y-19951984D01*
X4016372Y-19951984D02*
X3997324Y-19942460D01*
X3997324Y-19942460D02*
X3987801Y-19932936D01*
X3987801Y-19932936D02*
X3978277Y-19913889D01*
X3978277Y-19913889D02*
X3968753Y-19875793D01*
X3968753Y-19875793D02*
X3968753Y-19828174D01*
X3968753Y-19828174D02*
X3978277Y-19790079D01*
X3978277Y-19790079D02*
X3987801Y-19771031D01*
X3987801Y-19771031D02*
X3997324Y-19761508D01*
X3997324Y-19761508D02*
X4016372Y-19751984D01*
X4168753Y-19932936D02*
X4178277Y-19942460D01*
X4178277Y-19942460D02*
X4168753Y-19951984D01*
X4168753Y-19951984D02*
X4159229Y-19942460D01*
X4159229Y-19942460D02*
X4168753Y-19932936D01*
X4168753Y-19932936D02*
X4168753Y-19951984D01*
X4349705Y-19818650D02*
X4349705Y-19951984D01*
X4302086Y-19742460D02*
X4254467Y-19885317D01*
X4254467Y-19885317D02*
X4378277Y-19885317D01*
X4492563Y-19751984D02*
X4511610Y-19751984D01*
X4511610Y-19751984D02*
X4530658Y-19761508D01*
X4530658Y-19761508D02*
X4540182Y-19771031D01*
X4540182Y-19771031D02*
X4549705Y-19790079D01*
X4549705Y-19790079D02*
X4559229Y-19828174D01*
X4559229Y-19828174D02*
X4559229Y-19875793D01*
X4559229Y-19875793D02*
X4549705Y-19913889D01*
X4549705Y-19913889D02*
X4540182Y-19932936D01*
X4540182Y-19932936D02*
X4530658Y-19942460D01*
X4530658Y-19942460D02*
X4511610Y-19951984D01*
X4511610Y-19951984D02*
X4492563Y-19951984D01*
X4492563Y-19951984D02*
X4473515Y-19942460D01*
X4473515Y-19942460D02*
X4463991Y-19932936D01*
X4463991Y-19932936D02*
X4454467Y-19913889D01*
X4454467Y-19913889D02*
X4444944Y-19875793D01*
X4444944Y-19875793D02*
X4444944Y-19828174D01*
X4444944Y-19828174D02*
X4454467Y-19790079D01*
X4454467Y-19790079D02*
X4463991Y-19771031D01*
X4463991Y-19771031D02*
X4473515Y-19761508D01*
X4473515Y-19761508D02*
X4492563Y-19751984D01*
X4730658Y-19751984D02*
X4692563Y-19751984D01*
X4692563Y-19751984D02*
X4673515Y-19761508D01*
X4673515Y-19761508D02*
X4663991Y-19771031D01*
X4663991Y-19771031D02*
X4644944Y-19799603D01*
X4644944Y-19799603D02*
X4635420Y-19837698D01*
X4635420Y-19837698D02*
X4635420Y-19913889D01*
X4635420Y-19913889D02*
X4644944Y-19932936D01*
X4644944Y-19932936D02*
X4654467Y-19942460D01*
X4654467Y-19942460D02*
X4673515Y-19951984D01*
X4673515Y-19951984D02*
X4711610Y-19951984D01*
X4711610Y-19951984D02*
X4730658Y-19942460D01*
X4730658Y-19942460D02*
X4740182Y-19932936D01*
X4740182Y-19932936D02*
X4749705Y-19913889D01*
X4749705Y-19913889D02*
X4749705Y-19866270D01*
X4749705Y-19866270D02*
X4740182Y-19847222D01*
X4740182Y-19847222D02*
X4730658Y-19837698D01*
X4730658Y-19837698D02*
X4711610Y-19828174D01*
X4711610Y-19828174D02*
X4673515Y-19828174D01*
X4673515Y-19828174D02*
X4654467Y-19837698D01*
X4654467Y-19837698D02*
X4644944Y-19847222D01*
X4644944Y-19847222D02*
X4635420Y-19866270D01*
X4835420Y-19951984D02*
X4835420Y-19818650D01*
X4835420Y-19837698D02*
X4844944Y-19828174D01*
X4844944Y-19828174D02*
X4863991Y-19818650D01*
X4863991Y-19818650D02*
X4892563Y-19818650D01*
X4892563Y-19818650D02*
X4911610Y-19828174D01*
X4911610Y-19828174D02*
X4921134Y-19847222D01*
X4921134Y-19847222D02*
X4921134Y-19951984D01*
X4921134Y-19847222D02*
X4930658Y-19828174D01*
X4930658Y-19828174D02*
X4949705Y-19818650D01*
X4949705Y-19818650D02*
X4978277Y-19818650D01*
X4978277Y-19818650D02*
X4997325Y-19828174D01*
X4997325Y-19828174D02*
X5006848Y-19847222D01*
X5006848Y-19847222D02*
X5006848Y-19951984D01*
X5102086Y-19951984D02*
X5102086Y-19818650D01*
X5102086Y-19837698D02*
X5111610Y-19828174D01*
X5111610Y-19828174D02*
X5130658Y-19818650D01*
X5130658Y-19818650D02*
X5159229Y-19818650D01*
X5159229Y-19818650D02*
X5178277Y-19828174D01*
X5178277Y-19828174D02*
X5187801Y-19847222D01*
X5187801Y-19847222D02*
X5187801Y-19951984D01*
X5187801Y-19847222D02*
X5197325Y-19828174D01*
X5197325Y-19828174D02*
X5216372Y-19818650D01*
X5216372Y-19818650D02*
X5244944Y-19818650D01*
X5244944Y-19818650D02*
X5263991Y-19828174D01*
X5263991Y-19828174D02*
X5273515Y-19847222D01*
X5273515Y-19847222D02*
X5273515Y-19951984D01*
X5663991Y-19742460D02*
X5492563Y-19999603D01*
X5921134Y-19751984D02*
X5940182Y-19751984D01*
X5940182Y-19751984D02*
X5959229Y-19761508D01*
X5959229Y-19761508D02*
X5968753Y-19771031D01*
X5968753Y-19771031D02*
X5978277Y-19790079D01*
X5978277Y-19790079D02*
X5987801Y-19828174D01*
X5987801Y-19828174D02*
X5987801Y-19875793D01*
X5987801Y-19875793D02*
X5978277Y-19913889D01*
X5978277Y-19913889D02*
X5968753Y-19932936D01*
X5968753Y-19932936D02*
X5959229Y-19942460D01*
X5959229Y-19942460D02*
X5940182Y-19951984D01*
X5940182Y-19951984D02*
X5921134Y-19951984D01*
X5921134Y-19951984D02*
X5902086Y-19942460D01*
X5902086Y-19942460D02*
X5892563Y-19932936D01*
X5892563Y-19932936D02*
X5883039Y-19913889D01*
X5883039Y-19913889D02*
X5873515Y-19875793D01*
X5873515Y-19875793D02*
X5873515Y-19828174D01*
X5873515Y-19828174D02*
X5883039Y-19790079D01*
X5883039Y-19790079D02*
X5892563Y-19771031D01*
X5892563Y-19771031D02*
X5902086Y-19761508D01*
X5902086Y-19761508D02*
X5921134Y-19751984D01*
X6073515Y-19932936D02*
X6083039Y-19942460D01*
X6083039Y-19942460D02*
X6073515Y-19951984D01*
X6073515Y-19951984D02*
X6063991Y-19942460D01*
X6063991Y-19942460D02*
X6073515Y-19932936D01*
X6073515Y-19932936D02*
X6073515Y-19951984D01*
X6206848Y-19751984D02*
X6225896Y-19751984D01*
X6225896Y-19751984D02*
X6244944Y-19761508D01*
X6244944Y-19761508D02*
X6254467Y-19771031D01*
X6254467Y-19771031D02*
X6263991Y-19790079D01*
X6263991Y-19790079D02*
X6273515Y-19828174D01*
X6273515Y-19828174D02*
X6273515Y-19875793D01*
X6273515Y-19875793D02*
X6263991Y-19913889D01*
X6263991Y-19913889D02*
X6254467Y-19932936D01*
X6254467Y-19932936D02*
X6244944Y-19942460D01*
X6244944Y-19942460D02*
X6225896Y-19951984D01*
X6225896Y-19951984D02*
X6206848Y-19951984D01*
X6206848Y-19951984D02*
X6187801Y-19942460D01*
X6187801Y-19942460D02*
X6178277Y-19932936D01*
X6178277Y-19932936D02*
X6168753Y-19913889D01*
X6168753Y-19913889D02*
X6159229Y-19875793D01*
X6159229Y-19875793D02*
X6159229Y-19828174D01*
X6159229Y-19828174D02*
X6168753Y-19790079D01*
X6168753Y-19790079D02*
X6178277Y-19771031D01*
X6178277Y-19771031D02*
X6187801Y-19761508D01*
X6187801Y-19761508D02*
X6206848Y-19751984D01*
X6463991Y-19951984D02*
X6349706Y-19951984D01*
X6406848Y-19951984D02*
X6406848Y-19751984D01*
X6406848Y-19751984D02*
X6387801Y-19780555D01*
X6387801Y-19780555D02*
X6368753Y-19799603D01*
X6368753Y-19799603D02*
X6349706Y-19809127D01*
X6635420Y-19751984D02*
X6597325Y-19751984D01*
X6597325Y-19751984D02*
X6578277Y-19761508D01*
X6578277Y-19761508D02*
X6568753Y-19771031D01*
X6568753Y-19771031D02*
X6549706Y-19799603D01*
X6549706Y-19799603D02*
X6540182Y-19837698D01*
X6540182Y-19837698D02*
X6540182Y-19913889D01*
X6540182Y-19913889D02*
X6549706Y-19932936D01*
X6549706Y-19932936D02*
X6559229Y-19942460D01*
X6559229Y-19942460D02*
X6578277Y-19951984D01*
X6578277Y-19951984D02*
X6616372Y-19951984D01*
X6616372Y-19951984D02*
X6635420Y-19942460D01*
X6635420Y-19942460D02*
X6644944Y-19932936D01*
X6644944Y-19932936D02*
X6654467Y-19913889D01*
X6654467Y-19913889D02*
X6654467Y-19866270D01*
X6654467Y-19866270D02*
X6644944Y-19847222D01*
X6644944Y-19847222D02*
X6635420Y-19837698D01*
X6635420Y-19837698D02*
X6616372Y-19828174D01*
X6616372Y-19828174D02*
X6578277Y-19828174D01*
X6578277Y-19828174D02*
X6559229Y-19837698D01*
X6559229Y-19837698D02*
X6549706Y-19847222D01*
X6549706Y-19847222D02*
X6540182Y-19866270D01*
X6778277Y-19751984D02*
X6797325Y-19751984D01*
X6797325Y-19751984D02*
X6816372Y-19761508D01*
X6816372Y-19761508D02*
X6825896Y-19771031D01*
X6825896Y-19771031D02*
X6835420Y-19790079D01*
X6835420Y-19790079D02*
X6844944Y-19828174D01*
X6844944Y-19828174D02*
X6844944Y-19875793D01*
X6844944Y-19875793D02*
X6835420Y-19913889D01*
X6835420Y-19913889D02*
X6825896Y-19932936D01*
X6825896Y-19932936D02*
X6816372Y-19942460D01*
X6816372Y-19942460D02*
X6797325Y-19951984D01*
X6797325Y-19951984D02*
X6778277Y-19951984D01*
X6778277Y-19951984D02*
X6759229Y-19942460D01*
X6759229Y-19942460D02*
X6749706Y-19932936D01*
X6749706Y-19932936D02*
X6740182Y-19913889D01*
X6740182Y-19913889D02*
X6730658Y-19875793D01*
X6730658Y-19875793D02*
X6730658Y-19828174D01*
X6730658Y-19828174D02*
X6740182Y-19790079D01*
X6740182Y-19790079D02*
X6749706Y-19771031D01*
X6749706Y-19771031D02*
X6759229Y-19761508D01*
X6759229Y-19761508D02*
X6778277Y-19751984D01*
X6921134Y-19751984D02*
X6921134Y-19790079D01*
X6997325Y-19751984D02*
X6997325Y-19790079D01*
X7292563Y-20028174D02*
X7283039Y-20018650D01*
X7283039Y-20018650D02*
X7263991Y-19990079D01*
X7263991Y-19990079D02*
X7254468Y-19971031D01*
X7254468Y-19971031D02*
X7244944Y-19942460D01*
X7244944Y-19942460D02*
X7235420Y-19894841D01*
X7235420Y-19894841D02*
X7235420Y-19856746D01*
X7235420Y-19856746D02*
X7244944Y-19809127D01*
X7244944Y-19809127D02*
X7254468Y-19780555D01*
X7254468Y-19780555D02*
X7263991Y-19761508D01*
X7263991Y-19761508D02*
X7283039Y-19732936D01*
X7283039Y-19732936D02*
X7292563Y-19723412D01*
X7473515Y-19951984D02*
X7359229Y-19951984D01*
X7416372Y-19951984D02*
X7416372Y-19751984D01*
X7416372Y-19751984D02*
X7397325Y-19780555D01*
X7397325Y-19780555D02*
X7378277Y-19799603D01*
X7378277Y-19799603D02*
X7359229Y-19809127D01*
X7711610Y-19951984D02*
X7711610Y-19751984D01*
X7797325Y-19951984D02*
X7797325Y-19847222D01*
X7797325Y-19847222D02*
X7787801Y-19828174D01*
X7787801Y-19828174D02*
X7768753Y-19818650D01*
X7768753Y-19818650D02*
X7740182Y-19818650D01*
X7740182Y-19818650D02*
X7721134Y-19828174D01*
X7721134Y-19828174D02*
X7711610Y-19837698D01*
X7921134Y-19951984D02*
X7902087Y-19942460D01*
X7902087Y-19942460D02*
X7892563Y-19932936D01*
X7892563Y-19932936D02*
X7883039Y-19913889D01*
X7883039Y-19913889D02*
X7883039Y-19856746D01*
X7883039Y-19856746D02*
X7892563Y-19837698D01*
X7892563Y-19837698D02*
X7902087Y-19828174D01*
X7902087Y-19828174D02*
X7921134Y-19818650D01*
X7921134Y-19818650D02*
X7949706Y-19818650D01*
X7949706Y-19818650D02*
X7968753Y-19828174D01*
X7968753Y-19828174D02*
X7978277Y-19837698D01*
X7978277Y-19837698D02*
X7987801Y-19856746D01*
X7987801Y-19856746D02*
X7987801Y-19913889D01*
X7987801Y-19913889D02*
X7978277Y-19932936D01*
X7978277Y-19932936D02*
X7968753Y-19942460D01*
X7968753Y-19942460D02*
X7949706Y-19951984D01*
X7949706Y-19951984D02*
X7921134Y-19951984D01*
X8102087Y-19951984D02*
X8083039Y-19942460D01*
X8083039Y-19942460D02*
X8073515Y-19923412D01*
X8073515Y-19923412D02*
X8073515Y-19751984D01*
X8254468Y-19942460D02*
X8235420Y-19951984D01*
X8235420Y-19951984D02*
X8197325Y-19951984D01*
X8197325Y-19951984D02*
X8178277Y-19942460D01*
X8178277Y-19942460D02*
X8168753Y-19923412D01*
X8168753Y-19923412D02*
X8168753Y-19847222D01*
X8168753Y-19847222D02*
X8178277Y-19828174D01*
X8178277Y-19828174D02*
X8197325Y-19818650D01*
X8197325Y-19818650D02*
X8235420Y-19818650D01*
X8235420Y-19818650D02*
X8254468Y-19828174D01*
X8254468Y-19828174D02*
X8263991Y-19847222D01*
X8263991Y-19847222D02*
X8263991Y-19866270D01*
X8263991Y-19866270D02*
X8168753Y-19885317D01*
X8330658Y-20028174D02*
X8340182Y-20018650D01*
X8340182Y-20018650D02*
X8359230Y-19990079D01*
X8359230Y-19990079D02*
X8368753Y-19971031D01*
X8368753Y-19971031D02*
X8378277Y-19942460D01*
X8378277Y-19942460D02*
X8387801Y-19894841D01*
X8387801Y-19894841D02*
X8387801Y-19856746D01*
X8387801Y-19856746D02*
X8378277Y-19809127D01*
X8378277Y-19809127D02*
X8368753Y-19780555D01*
X8368753Y-19780555D02*
X8359230Y-19761508D01*
X8359230Y-19761508D02*
X8340182Y-19732936D01*
X8340182Y-19732936D02*
X8330658Y-19723412D01*
D12*
X3710178Y-20142178D02*
X3710178Y-20106822D01*
X3674822Y-20106822D01*
X3674822Y-20142178D01*
X3710178Y-20142178D01*
D11*
X4016372Y-20015984D02*
X4035420Y-20015984D01*
X4035420Y-20015984D02*
X4054467Y-20025508D01*
X4054467Y-20025508D02*
X4063991Y-20035031D01*
X4063991Y-20035031D02*
X4073515Y-20054079D01*
X4073515Y-20054079D02*
X4083039Y-20092174D01*
X4083039Y-20092174D02*
X4083039Y-20139793D01*
X4083039Y-20139793D02*
X4073515Y-20177889D01*
X4073515Y-20177889D02*
X4063991Y-20196936D01*
X4063991Y-20196936D02*
X4054467Y-20206460D01*
X4054467Y-20206460D02*
X4035420Y-20215984D01*
X4035420Y-20215984D02*
X4016372Y-20215984D01*
X4016372Y-20215984D02*
X3997324Y-20206460D01*
X3997324Y-20206460D02*
X3987801Y-20196936D01*
X3987801Y-20196936D02*
X3978277Y-20177889D01*
X3978277Y-20177889D02*
X3968753Y-20139793D01*
X3968753Y-20139793D02*
X3968753Y-20092174D01*
X3968753Y-20092174D02*
X3978277Y-20054079D01*
X3978277Y-20054079D02*
X3987801Y-20035031D01*
X3987801Y-20035031D02*
X3997324Y-20025508D01*
X3997324Y-20025508D02*
X4016372Y-20015984D01*
X4168753Y-20196936D02*
X4178277Y-20206460D01*
X4178277Y-20206460D02*
X4168753Y-20215984D01*
X4168753Y-20215984D02*
X4159229Y-20206460D01*
X4159229Y-20206460D02*
X4168753Y-20196936D01*
X4168753Y-20196936D02*
X4168753Y-20215984D01*
X4359229Y-20015984D02*
X4263991Y-20015984D01*
X4263991Y-20015984D02*
X4254467Y-20111222D01*
X4254467Y-20111222D02*
X4263991Y-20101698D01*
X4263991Y-20101698D02*
X4283039Y-20092174D01*
X4283039Y-20092174D02*
X4330658Y-20092174D01*
X4330658Y-20092174D02*
X4349705Y-20101698D01*
X4349705Y-20101698D02*
X4359229Y-20111222D01*
X4359229Y-20111222D02*
X4368753Y-20130270D01*
X4368753Y-20130270D02*
X4368753Y-20177889D01*
X4368753Y-20177889D02*
X4359229Y-20196936D01*
X4359229Y-20196936D02*
X4349705Y-20206460D01*
X4349705Y-20206460D02*
X4330658Y-20215984D01*
X4330658Y-20215984D02*
X4283039Y-20215984D01*
X4283039Y-20215984D02*
X4263991Y-20206460D01*
X4263991Y-20206460D02*
X4254467Y-20196936D01*
X4492563Y-20015984D02*
X4511610Y-20015984D01*
X4511610Y-20015984D02*
X4530658Y-20025508D01*
X4530658Y-20025508D02*
X4540182Y-20035031D01*
X4540182Y-20035031D02*
X4549705Y-20054079D01*
X4549705Y-20054079D02*
X4559229Y-20092174D01*
X4559229Y-20092174D02*
X4559229Y-20139793D01*
X4559229Y-20139793D02*
X4549705Y-20177889D01*
X4549705Y-20177889D02*
X4540182Y-20196936D01*
X4540182Y-20196936D02*
X4530658Y-20206460D01*
X4530658Y-20206460D02*
X4511610Y-20215984D01*
X4511610Y-20215984D02*
X4492563Y-20215984D01*
X4492563Y-20215984D02*
X4473515Y-20206460D01*
X4473515Y-20206460D02*
X4463991Y-20196936D01*
X4463991Y-20196936D02*
X4454467Y-20177889D01*
X4454467Y-20177889D02*
X4444944Y-20139793D01*
X4444944Y-20139793D02*
X4444944Y-20092174D01*
X4444944Y-20092174D02*
X4454467Y-20054079D01*
X4454467Y-20054079D02*
X4463991Y-20035031D01*
X4463991Y-20035031D02*
X4473515Y-20025508D01*
X4473515Y-20025508D02*
X4492563Y-20015984D01*
X4683039Y-20015984D02*
X4702086Y-20015984D01*
X4702086Y-20015984D02*
X4721134Y-20025508D01*
X4721134Y-20025508D02*
X4730658Y-20035031D01*
X4730658Y-20035031D02*
X4740182Y-20054079D01*
X4740182Y-20054079D02*
X4749705Y-20092174D01*
X4749705Y-20092174D02*
X4749705Y-20139793D01*
X4749705Y-20139793D02*
X4740182Y-20177889D01*
X4740182Y-20177889D02*
X4730658Y-20196936D01*
X4730658Y-20196936D02*
X4721134Y-20206460D01*
X4721134Y-20206460D02*
X4702086Y-20215984D01*
X4702086Y-20215984D02*
X4683039Y-20215984D01*
X4683039Y-20215984D02*
X4663991Y-20206460D01*
X4663991Y-20206460D02*
X4654467Y-20196936D01*
X4654467Y-20196936D02*
X4644944Y-20177889D01*
X4644944Y-20177889D02*
X4635420Y-20139793D01*
X4635420Y-20139793D02*
X4635420Y-20092174D01*
X4635420Y-20092174D02*
X4644944Y-20054079D01*
X4644944Y-20054079D02*
X4654467Y-20035031D01*
X4654467Y-20035031D02*
X4663991Y-20025508D01*
X4663991Y-20025508D02*
X4683039Y-20015984D01*
X4835420Y-20215984D02*
X4835420Y-20082650D01*
X4835420Y-20101698D02*
X4844944Y-20092174D01*
X4844944Y-20092174D02*
X4863991Y-20082650D01*
X4863991Y-20082650D02*
X4892563Y-20082650D01*
X4892563Y-20082650D02*
X4911610Y-20092174D01*
X4911610Y-20092174D02*
X4921134Y-20111222D01*
X4921134Y-20111222D02*
X4921134Y-20215984D01*
X4921134Y-20111222D02*
X4930658Y-20092174D01*
X4930658Y-20092174D02*
X4949705Y-20082650D01*
X4949705Y-20082650D02*
X4978277Y-20082650D01*
X4978277Y-20082650D02*
X4997325Y-20092174D01*
X4997325Y-20092174D02*
X5006848Y-20111222D01*
X5006848Y-20111222D02*
X5006848Y-20215984D01*
X5102086Y-20215984D02*
X5102086Y-20082650D01*
X5102086Y-20101698D02*
X5111610Y-20092174D01*
X5111610Y-20092174D02*
X5130658Y-20082650D01*
X5130658Y-20082650D02*
X5159229Y-20082650D01*
X5159229Y-20082650D02*
X5178277Y-20092174D01*
X5178277Y-20092174D02*
X5187801Y-20111222D01*
X5187801Y-20111222D02*
X5187801Y-20215984D01*
X5187801Y-20111222D02*
X5197325Y-20092174D01*
X5197325Y-20092174D02*
X5216372Y-20082650D01*
X5216372Y-20082650D02*
X5244944Y-20082650D01*
X5244944Y-20082650D02*
X5263991Y-20092174D01*
X5263991Y-20092174D02*
X5273515Y-20111222D01*
X5273515Y-20111222D02*
X5273515Y-20215984D01*
X5663991Y-20006460D02*
X5492563Y-20263603D01*
X5921134Y-20015984D02*
X5940182Y-20015984D01*
X5940182Y-20015984D02*
X5959229Y-20025508D01*
X5959229Y-20025508D02*
X5968753Y-20035031D01*
X5968753Y-20035031D02*
X5978277Y-20054079D01*
X5978277Y-20054079D02*
X5987801Y-20092174D01*
X5987801Y-20092174D02*
X5987801Y-20139793D01*
X5987801Y-20139793D02*
X5978277Y-20177889D01*
X5978277Y-20177889D02*
X5968753Y-20196936D01*
X5968753Y-20196936D02*
X5959229Y-20206460D01*
X5959229Y-20206460D02*
X5940182Y-20215984D01*
X5940182Y-20215984D02*
X5921134Y-20215984D01*
X5921134Y-20215984D02*
X5902086Y-20206460D01*
X5902086Y-20206460D02*
X5892563Y-20196936D01*
X5892563Y-20196936D02*
X5883039Y-20177889D01*
X5883039Y-20177889D02*
X5873515Y-20139793D01*
X5873515Y-20139793D02*
X5873515Y-20092174D01*
X5873515Y-20092174D02*
X5883039Y-20054079D01*
X5883039Y-20054079D02*
X5892563Y-20035031D01*
X5892563Y-20035031D02*
X5902086Y-20025508D01*
X5902086Y-20025508D02*
X5921134Y-20015984D01*
X6073515Y-20196936D02*
X6083039Y-20206460D01*
X6083039Y-20206460D02*
X6073515Y-20215984D01*
X6073515Y-20215984D02*
X6063991Y-20206460D01*
X6063991Y-20206460D02*
X6073515Y-20196936D01*
X6073515Y-20196936D02*
X6073515Y-20215984D01*
X6206848Y-20015984D02*
X6225896Y-20015984D01*
X6225896Y-20015984D02*
X6244944Y-20025508D01*
X6244944Y-20025508D02*
X6254467Y-20035031D01*
X6254467Y-20035031D02*
X6263991Y-20054079D01*
X6263991Y-20054079D02*
X6273515Y-20092174D01*
X6273515Y-20092174D02*
X6273515Y-20139793D01*
X6273515Y-20139793D02*
X6263991Y-20177889D01*
X6263991Y-20177889D02*
X6254467Y-20196936D01*
X6254467Y-20196936D02*
X6244944Y-20206460D01*
X6244944Y-20206460D02*
X6225896Y-20215984D01*
X6225896Y-20215984D02*
X6206848Y-20215984D01*
X6206848Y-20215984D02*
X6187801Y-20206460D01*
X6187801Y-20206460D02*
X6178277Y-20196936D01*
X6178277Y-20196936D02*
X6168753Y-20177889D01*
X6168753Y-20177889D02*
X6159229Y-20139793D01*
X6159229Y-20139793D02*
X6159229Y-20092174D01*
X6159229Y-20092174D02*
X6168753Y-20054079D01*
X6168753Y-20054079D02*
X6178277Y-20035031D01*
X6178277Y-20035031D02*
X6187801Y-20025508D01*
X6187801Y-20025508D02*
X6206848Y-20015984D01*
X6463991Y-20215984D02*
X6349706Y-20215984D01*
X6406848Y-20215984D02*
X6406848Y-20015984D01*
X6406848Y-20015984D02*
X6387801Y-20044555D01*
X6387801Y-20044555D02*
X6368753Y-20063603D01*
X6368753Y-20063603D02*
X6349706Y-20073127D01*
X6559229Y-20215984D02*
X6597325Y-20215984D01*
X6597325Y-20215984D02*
X6616372Y-20206460D01*
X6616372Y-20206460D02*
X6625896Y-20196936D01*
X6625896Y-20196936D02*
X6644944Y-20168365D01*
X6644944Y-20168365D02*
X6654467Y-20130270D01*
X6654467Y-20130270D02*
X6654467Y-20054079D01*
X6654467Y-20054079D02*
X6644944Y-20035031D01*
X6644944Y-20035031D02*
X6635420Y-20025508D01*
X6635420Y-20025508D02*
X6616372Y-20015984D01*
X6616372Y-20015984D02*
X6578277Y-20015984D01*
X6578277Y-20015984D02*
X6559229Y-20025508D01*
X6559229Y-20025508D02*
X6549706Y-20035031D01*
X6549706Y-20035031D02*
X6540182Y-20054079D01*
X6540182Y-20054079D02*
X6540182Y-20101698D01*
X6540182Y-20101698D02*
X6549706Y-20120746D01*
X6549706Y-20120746D02*
X6559229Y-20130270D01*
X6559229Y-20130270D02*
X6578277Y-20139793D01*
X6578277Y-20139793D02*
X6616372Y-20139793D01*
X6616372Y-20139793D02*
X6635420Y-20130270D01*
X6635420Y-20130270D02*
X6644944Y-20120746D01*
X6644944Y-20120746D02*
X6654467Y-20101698D01*
X6721134Y-20015984D02*
X6854467Y-20015984D01*
X6854467Y-20015984D02*
X6768753Y-20215984D01*
X6921134Y-20015984D02*
X6921134Y-20054079D01*
X6997325Y-20015984D02*
X6997325Y-20054079D01*
X7292563Y-20292174D02*
X7283039Y-20282650D01*
X7283039Y-20282650D02*
X7263991Y-20254079D01*
X7263991Y-20254079D02*
X7254468Y-20235031D01*
X7254468Y-20235031D02*
X7244944Y-20206460D01*
X7244944Y-20206460D02*
X7235420Y-20158841D01*
X7235420Y-20158841D02*
X7235420Y-20120746D01*
X7235420Y-20120746D02*
X7244944Y-20073127D01*
X7244944Y-20073127D02*
X7254468Y-20044555D01*
X7254468Y-20044555D02*
X7263991Y-20025508D01*
X7263991Y-20025508D02*
X7283039Y-19996936D01*
X7283039Y-19996936D02*
X7292563Y-19987412D01*
X7349706Y-20015984D02*
X7483039Y-20015984D01*
X7483039Y-20015984D02*
X7397325Y-20215984D01*
X7711610Y-20215984D02*
X7711610Y-20015984D01*
X7797325Y-20215984D02*
X7797325Y-20111222D01*
X7797325Y-20111222D02*
X7787801Y-20092174D01*
X7787801Y-20092174D02*
X7768753Y-20082650D01*
X7768753Y-20082650D02*
X7740182Y-20082650D01*
X7740182Y-20082650D02*
X7721134Y-20092174D01*
X7721134Y-20092174D02*
X7711610Y-20101698D01*
X7921134Y-20215984D02*
X7902087Y-20206460D01*
X7902087Y-20206460D02*
X7892563Y-20196936D01*
X7892563Y-20196936D02*
X7883039Y-20177889D01*
X7883039Y-20177889D02*
X7883039Y-20120746D01*
X7883039Y-20120746D02*
X7892563Y-20101698D01*
X7892563Y-20101698D02*
X7902087Y-20092174D01*
X7902087Y-20092174D02*
X7921134Y-20082650D01*
X7921134Y-20082650D02*
X7949706Y-20082650D01*
X7949706Y-20082650D02*
X7968753Y-20092174D01*
X7968753Y-20092174D02*
X7978277Y-20101698D01*
X7978277Y-20101698D02*
X7987801Y-20120746D01*
X7987801Y-20120746D02*
X7987801Y-20177889D01*
X7987801Y-20177889D02*
X7978277Y-20196936D01*
X7978277Y-20196936D02*
X7968753Y-20206460D01*
X7968753Y-20206460D02*
X7949706Y-20215984D01*
X7949706Y-20215984D02*
X7921134Y-20215984D01*
X8102087Y-20215984D02*
X8083039Y-20206460D01*
X8083039Y-20206460D02*
X8073515Y-20187412D01*
X8073515Y-20187412D02*
X8073515Y-20015984D01*
X8254468Y-20206460D02*
X8235420Y-20215984D01*
X8235420Y-20215984D02*
X8197325Y-20215984D01*
X8197325Y-20215984D02*
X8178277Y-20206460D01*
X8178277Y-20206460D02*
X8168753Y-20187412D01*
X8168753Y-20187412D02*
X8168753Y-20111222D01*
X8168753Y-20111222D02*
X8178277Y-20092174D01*
X8178277Y-20092174D02*
X8197325Y-20082650D01*
X8197325Y-20082650D02*
X8235420Y-20082650D01*
X8235420Y-20082650D02*
X8254468Y-20092174D01*
X8254468Y-20092174D02*
X8263991Y-20111222D01*
X8263991Y-20111222D02*
X8263991Y-20130270D01*
X8263991Y-20130270D02*
X8168753Y-20149317D01*
X8340182Y-20206460D02*
X8359230Y-20215984D01*
X8359230Y-20215984D02*
X8397325Y-20215984D01*
X8397325Y-20215984D02*
X8416373Y-20206460D01*
X8416373Y-20206460D02*
X8425896Y-20187412D01*
X8425896Y-20187412D02*
X8425896Y-20177889D01*
X8425896Y-20177889D02*
X8416373Y-20158841D01*
X8416373Y-20158841D02*
X8397325Y-20149317D01*
X8397325Y-20149317D02*
X8368753Y-20149317D01*
X8368753Y-20149317D02*
X8349706Y-20139793D01*
X8349706Y-20139793D02*
X8340182Y-20120746D01*
X8340182Y-20120746D02*
X8340182Y-20111222D01*
X8340182Y-20111222D02*
X8349706Y-20092174D01*
X8349706Y-20092174D02*
X8368753Y-20082650D01*
X8368753Y-20082650D02*
X8397325Y-20082650D01*
X8397325Y-20082650D02*
X8416373Y-20092174D01*
X8492563Y-20292174D02*
X8502087Y-20282650D01*
X8502087Y-20282650D02*
X8521134Y-20254079D01*
X8521134Y-20254079D02*
X8530658Y-20235031D01*
X8530658Y-20235031D02*
X8540182Y-20206460D01*
X8540182Y-20206460D02*
X8549706Y-20158841D01*
X8549706Y-20158841D02*
X8549706Y-20120746D01*
X8549706Y-20120746D02*
X8540182Y-20073127D01*
X8540182Y-20073127D02*
X8530658Y-20044555D01*
X8530658Y-20044555D02*
X8521134Y-20025508D01*
X8521134Y-20025508D02*
X8502087Y-19996936D01*
X8502087Y-19996936D02*
X8492563Y-19987412D01*
D12*
X3687500Y-20418500D02*
X3717500Y-20388500D01*
X3687500Y-20358500D01*
X3657500Y-20388500D01*
X3687500Y-20418500D01*
D11*
X4016372Y-20279984D02*
X4035420Y-20279984D01*
X4035420Y-20279984D02*
X4054467Y-20289508D01*
X4054467Y-20289508D02*
X4063991Y-20299031D01*
X4063991Y-20299031D02*
X4073515Y-20318079D01*
X4073515Y-20318079D02*
X4083039Y-20356174D01*
X4083039Y-20356174D02*
X4083039Y-20403793D01*
X4083039Y-20403793D02*
X4073515Y-20441889D01*
X4073515Y-20441889D02*
X4063991Y-20460936D01*
X4063991Y-20460936D02*
X4054467Y-20470460D01*
X4054467Y-20470460D02*
X4035420Y-20479984D01*
X4035420Y-20479984D02*
X4016372Y-20479984D01*
X4016372Y-20479984D02*
X3997324Y-20470460D01*
X3997324Y-20470460D02*
X3987801Y-20460936D01*
X3987801Y-20460936D02*
X3978277Y-20441889D01*
X3978277Y-20441889D02*
X3968753Y-20403793D01*
X3968753Y-20403793D02*
X3968753Y-20356174D01*
X3968753Y-20356174D02*
X3978277Y-20318079D01*
X3978277Y-20318079D02*
X3987801Y-20299031D01*
X3987801Y-20299031D02*
X3997324Y-20289508D01*
X3997324Y-20289508D02*
X4016372Y-20279984D01*
X4168753Y-20460936D02*
X4178277Y-20470460D01*
X4178277Y-20470460D02*
X4168753Y-20479984D01*
X4168753Y-20479984D02*
X4159229Y-20470460D01*
X4159229Y-20470460D02*
X4168753Y-20460936D01*
X4168753Y-20460936D02*
X4168753Y-20479984D01*
X4349705Y-20279984D02*
X4311610Y-20279984D01*
X4311610Y-20279984D02*
X4292563Y-20289508D01*
X4292563Y-20289508D02*
X4283039Y-20299031D01*
X4283039Y-20299031D02*
X4263991Y-20327603D01*
X4263991Y-20327603D02*
X4254467Y-20365698D01*
X4254467Y-20365698D02*
X4254467Y-20441889D01*
X4254467Y-20441889D02*
X4263991Y-20460936D01*
X4263991Y-20460936D02*
X4273515Y-20470460D01*
X4273515Y-20470460D02*
X4292563Y-20479984D01*
X4292563Y-20479984D02*
X4330658Y-20479984D01*
X4330658Y-20479984D02*
X4349705Y-20470460D01*
X4349705Y-20470460D02*
X4359229Y-20460936D01*
X4359229Y-20460936D02*
X4368753Y-20441889D01*
X4368753Y-20441889D02*
X4368753Y-20394270D01*
X4368753Y-20394270D02*
X4359229Y-20375222D01*
X4359229Y-20375222D02*
X4349705Y-20365698D01*
X4349705Y-20365698D02*
X4330658Y-20356174D01*
X4330658Y-20356174D02*
X4292563Y-20356174D01*
X4292563Y-20356174D02*
X4273515Y-20365698D01*
X4273515Y-20365698D02*
X4263991Y-20375222D01*
X4263991Y-20375222D02*
X4254467Y-20394270D01*
X4492563Y-20279984D02*
X4511610Y-20279984D01*
X4511610Y-20279984D02*
X4530658Y-20289508D01*
X4530658Y-20289508D02*
X4540182Y-20299031D01*
X4540182Y-20299031D02*
X4549705Y-20318079D01*
X4549705Y-20318079D02*
X4559229Y-20356174D01*
X4559229Y-20356174D02*
X4559229Y-20403793D01*
X4559229Y-20403793D02*
X4549705Y-20441889D01*
X4549705Y-20441889D02*
X4540182Y-20460936D01*
X4540182Y-20460936D02*
X4530658Y-20470460D01*
X4530658Y-20470460D02*
X4511610Y-20479984D01*
X4511610Y-20479984D02*
X4492563Y-20479984D01*
X4492563Y-20479984D02*
X4473515Y-20470460D01*
X4473515Y-20470460D02*
X4463991Y-20460936D01*
X4463991Y-20460936D02*
X4454467Y-20441889D01*
X4454467Y-20441889D02*
X4444944Y-20403793D01*
X4444944Y-20403793D02*
X4444944Y-20356174D01*
X4444944Y-20356174D02*
X4454467Y-20318079D01*
X4454467Y-20318079D02*
X4463991Y-20299031D01*
X4463991Y-20299031D02*
X4473515Y-20289508D01*
X4473515Y-20289508D02*
X4492563Y-20279984D01*
X4683039Y-20279984D02*
X4702086Y-20279984D01*
X4702086Y-20279984D02*
X4721134Y-20289508D01*
X4721134Y-20289508D02*
X4730658Y-20299031D01*
X4730658Y-20299031D02*
X4740182Y-20318079D01*
X4740182Y-20318079D02*
X4749705Y-20356174D01*
X4749705Y-20356174D02*
X4749705Y-20403793D01*
X4749705Y-20403793D02*
X4740182Y-20441889D01*
X4740182Y-20441889D02*
X4730658Y-20460936D01*
X4730658Y-20460936D02*
X4721134Y-20470460D01*
X4721134Y-20470460D02*
X4702086Y-20479984D01*
X4702086Y-20479984D02*
X4683039Y-20479984D01*
X4683039Y-20479984D02*
X4663991Y-20470460D01*
X4663991Y-20470460D02*
X4654467Y-20460936D01*
X4654467Y-20460936D02*
X4644944Y-20441889D01*
X4644944Y-20441889D02*
X4635420Y-20403793D01*
X4635420Y-20403793D02*
X4635420Y-20356174D01*
X4635420Y-20356174D02*
X4644944Y-20318079D01*
X4644944Y-20318079D02*
X4654467Y-20299031D01*
X4654467Y-20299031D02*
X4663991Y-20289508D01*
X4663991Y-20289508D02*
X4683039Y-20279984D01*
X4835420Y-20479984D02*
X4835420Y-20346650D01*
X4835420Y-20365698D02*
X4844944Y-20356174D01*
X4844944Y-20356174D02*
X4863991Y-20346650D01*
X4863991Y-20346650D02*
X4892563Y-20346650D01*
X4892563Y-20346650D02*
X4911610Y-20356174D01*
X4911610Y-20356174D02*
X4921134Y-20375222D01*
X4921134Y-20375222D02*
X4921134Y-20479984D01*
X4921134Y-20375222D02*
X4930658Y-20356174D01*
X4930658Y-20356174D02*
X4949705Y-20346650D01*
X4949705Y-20346650D02*
X4978277Y-20346650D01*
X4978277Y-20346650D02*
X4997325Y-20356174D01*
X4997325Y-20356174D02*
X5006848Y-20375222D01*
X5006848Y-20375222D02*
X5006848Y-20479984D01*
X5102086Y-20479984D02*
X5102086Y-20346650D01*
X5102086Y-20365698D02*
X5111610Y-20356174D01*
X5111610Y-20356174D02*
X5130658Y-20346650D01*
X5130658Y-20346650D02*
X5159229Y-20346650D01*
X5159229Y-20346650D02*
X5178277Y-20356174D01*
X5178277Y-20356174D02*
X5187801Y-20375222D01*
X5187801Y-20375222D02*
X5187801Y-20479984D01*
X5187801Y-20375222D02*
X5197325Y-20356174D01*
X5197325Y-20356174D02*
X5216372Y-20346650D01*
X5216372Y-20346650D02*
X5244944Y-20346650D01*
X5244944Y-20346650D02*
X5263991Y-20356174D01*
X5263991Y-20356174D02*
X5273515Y-20375222D01*
X5273515Y-20375222D02*
X5273515Y-20479984D01*
X5663991Y-20270460D02*
X5492563Y-20527603D01*
X5921134Y-20279984D02*
X5940182Y-20279984D01*
X5940182Y-20279984D02*
X5959229Y-20289508D01*
X5959229Y-20289508D02*
X5968753Y-20299031D01*
X5968753Y-20299031D02*
X5978277Y-20318079D01*
X5978277Y-20318079D02*
X5987801Y-20356174D01*
X5987801Y-20356174D02*
X5987801Y-20403793D01*
X5987801Y-20403793D02*
X5978277Y-20441889D01*
X5978277Y-20441889D02*
X5968753Y-20460936D01*
X5968753Y-20460936D02*
X5959229Y-20470460D01*
X5959229Y-20470460D02*
X5940182Y-20479984D01*
X5940182Y-20479984D02*
X5921134Y-20479984D01*
X5921134Y-20479984D02*
X5902086Y-20470460D01*
X5902086Y-20470460D02*
X5892563Y-20460936D01*
X5892563Y-20460936D02*
X5883039Y-20441889D01*
X5883039Y-20441889D02*
X5873515Y-20403793D01*
X5873515Y-20403793D02*
X5873515Y-20356174D01*
X5873515Y-20356174D02*
X5883039Y-20318079D01*
X5883039Y-20318079D02*
X5892563Y-20299031D01*
X5892563Y-20299031D02*
X5902086Y-20289508D01*
X5902086Y-20289508D02*
X5921134Y-20279984D01*
X6073515Y-20460936D02*
X6083039Y-20470460D01*
X6083039Y-20470460D02*
X6073515Y-20479984D01*
X6073515Y-20479984D02*
X6063991Y-20470460D01*
X6063991Y-20470460D02*
X6073515Y-20460936D01*
X6073515Y-20460936D02*
X6073515Y-20479984D01*
X6206848Y-20279984D02*
X6225896Y-20279984D01*
X6225896Y-20279984D02*
X6244944Y-20289508D01*
X6244944Y-20289508D02*
X6254467Y-20299031D01*
X6254467Y-20299031D02*
X6263991Y-20318079D01*
X6263991Y-20318079D02*
X6273515Y-20356174D01*
X6273515Y-20356174D02*
X6273515Y-20403793D01*
X6273515Y-20403793D02*
X6263991Y-20441889D01*
X6263991Y-20441889D02*
X6254467Y-20460936D01*
X6254467Y-20460936D02*
X6244944Y-20470460D01*
X6244944Y-20470460D02*
X6225896Y-20479984D01*
X6225896Y-20479984D02*
X6206848Y-20479984D01*
X6206848Y-20479984D02*
X6187801Y-20470460D01*
X6187801Y-20470460D02*
X6178277Y-20460936D01*
X6178277Y-20460936D02*
X6168753Y-20441889D01*
X6168753Y-20441889D02*
X6159229Y-20403793D01*
X6159229Y-20403793D02*
X6159229Y-20356174D01*
X6159229Y-20356174D02*
X6168753Y-20318079D01*
X6168753Y-20318079D02*
X6178277Y-20299031D01*
X6178277Y-20299031D02*
X6187801Y-20289508D01*
X6187801Y-20289508D02*
X6206848Y-20279984D01*
X6349706Y-20299031D02*
X6359229Y-20289508D01*
X6359229Y-20289508D02*
X6378277Y-20279984D01*
X6378277Y-20279984D02*
X6425896Y-20279984D01*
X6425896Y-20279984D02*
X6444944Y-20289508D01*
X6444944Y-20289508D02*
X6454467Y-20299031D01*
X6454467Y-20299031D02*
X6463991Y-20318079D01*
X6463991Y-20318079D02*
X6463991Y-20337127D01*
X6463991Y-20337127D02*
X6454467Y-20365698D01*
X6454467Y-20365698D02*
X6340182Y-20479984D01*
X6340182Y-20479984D02*
X6463991Y-20479984D01*
X6530658Y-20279984D02*
X6654467Y-20279984D01*
X6654467Y-20279984D02*
X6587801Y-20356174D01*
X6587801Y-20356174D02*
X6616372Y-20356174D01*
X6616372Y-20356174D02*
X6635420Y-20365698D01*
X6635420Y-20365698D02*
X6644944Y-20375222D01*
X6644944Y-20375222D02*
X6654467Y-20394270D01*
X6654467Y-20394270D02*
X6654467Y-20441889D01*
X6654467Y-20441889D02*
X6644944Y-20460936D01*
X6644944Y-20460936D02*
X6635420Y-20470460D01*
X6635420Y-20470460D02*
X6616372Y-20479984D01*
X6616372Y-20479984D02*
X6559229Y-20479984D01*
X6559229Y-20479984D02*
X6540182Y-20470460D01*
X6540182Y-20470460D02*
X6530658Y-20460936D01*
X6825896Y-20279984D02*
X6787801Y-20279984D01*
X6787801Y-20279984D02*
X6768753Y-20289508D01*
X6768753Y-20289508D02*
X6759229Y-20299031D01*
X6759229Y-20299031D02*
X6740182Y-20327603D01*
X6740182Y-20327603D02*
X6730658Y-20365698D01*
X6730658Y-20365698D02*
X6730658Y-20441889D01*
X6730658Y-20441889D02*
X6740182Y-20460936D01*
X6740182Y-20460936D02*
X6749706Y-20470460D01*
X6749706Y-20470460D02*
X6768753Y-20479984D01*
X6768753Y-20479984D02*
X6806848Y-20479984D01*
X6806848Y-20479984D02*
X6825896Y-20470460D01*
X6825896Y-20470460D02*
X6835420Y-20460936D01*
X6835420Y-20460936D02*
X6844944Y-20441889D01*
X6844944Y-20441889D02*
X6844944Y-20394270D01*
X6844944Y-20394270D02*
X6835420Y-20375222D01*
X6835420Y-20375222D02*
X6825896Y-20365698D01*
X6825896Y-20365698D02*
X6806848Y-20356174D01*
X6806848Y-20356174D02*
X6768753Y-20356174D01*
X6768753Y-20356174D02*
X6749706Y-20365698D01*
X6749706Y-20365698D02*
X6740182Y-20375222D01*
X6740182Y-20375222D02*
X6730658Y-20394270D01*
X6921134Y-20279984D02*
X6921134Y-20318079D01*
X6997325Y-20279984D02*
X6997325Y-20318079D01*
X7292563Y-20556174D02*
X7283039Y-20546650D01*
X7283039Y-20546650D02*
X7263991Y-20518079D01*
X7263991Y-20518079D02*
X7254468Y-20499031D01*
X7254468Y-20499031D02*
X7244944Y-20470460D01*
X7244944Y-20470460D02*
X7235420Y-20422841D01*
X7235420Y-20422841D02*
X7235420Y-20384746D01*
X7235420Y-20384746D02*
X7244944Y-20337127D01*
X7244944Y-20337127D02*
X7254468Y-20308555D01*
X7254468Y-20308555D02*
X7263991Y-20289508D01*
X7263991Y-20289508D02*
X7283039Y-20260936D01*
X7283039Y-20260936D02*
X7292563Y-20251412D01*
X7406848Y-20279984D02*
X7425896Y-20279984D01*
X7425896Y-20279984D02*
X7444944Y-20289508D01*
X7444944Y-20289508D02*
X7454468Y-20299031D01*
X7454468Y-20299031D02*
X7463991Y-20318079D01*
X7463991Y-20318079D02*
X7473515Y-20356174D01*
X7473515Y-20356174D02*
X7473515Y-20403793D01*
X7473515Y-20403793D02*
X7463991Y-20441889D01*
X7463991Y-20441889D02*
X7454468Y-20460936D01*
X7454468Y-20460936D02*
X7444944Y-20470460D01*
X7444944Y-20470460D02*
X7425896Y-20479984D01*
X7425896Y-20479984D02*
X7406848Y-20479984D01*
X7406848Y-20479984D02*
X7387801Y-20470460D01*
X7387801Y-20470460D02*
X7378277Y-20460936D01*
X7378277Y-20460936D02*
X7368753Y-20441889D01*
X7368753Y-20441889D02*
X7359229Y-20403793D01*
X7359229Y-20403793D02*
X7359229Y-20356174D01*
X7359229Y-20356174D02*
X7368753Y-20318079D01*
X7368753Y-20318079D02*
X7378277Y-20299031D01*
X7378277Y-20299031D02*
X7387801Y-20289508D01*
X7387801Y-20289508D02*
X7406848Y-20279984D01*
X7711610Y-20479984D02*
X7711610Y-20279984D01*
X7797325Y-20479984D02*
X7797325Y-20375222D01*
X7797325Y-20375222D02*
X7787801Y-20356174D01*
X7787801Y-20356174D02*
X7768753Y-20346650D01*
X7768753Y-20346650D02*
X7740182Y-20346650D01*
X7740182Y-20346650D02*
X7721134Y-20356174D01*
X7721134Y-20356174D02*
X7711610Y-20365698D01*
X7921134Y-20479984D02*
X7902087Y-20470460D01*
X7902087Y-20470460D02*
X7892563Y-20460936D01*
X7892563Y-20460936D02*
X7883039Y-20441889D01*
X7883039Y-20441889D02*
X7883039Y-20384746D01*
X7883039Y-20384746D02*
X7892563Y-20365698D01*
X7892563Y-20365698D02*
X7902087Y-20356174D01*
X7902087Y-20356174D02*
X7921134Y-20346650D01*
X7921134Y-20346650D02*
X7949706Y-20346650D01*
X7949706Y-20346650D02*
X7968753Y-20356174D01*
X7968753Y-20356174D02*
X7978277Y-20365698D01*
X7978277Y-20365698D02*
X7987801Y-20384746D01*
X7987801Y-20384746D02*
X7987801Y-20441889D01*
X7987801Y-20441889D02*
X7978277Y-20460936D01*
X7978277Y-20460936D02*
X7968753Y-20470460D01*
X7968753Y-20470460D02*
X7949706Y-20479984D01*
X7949706Y-20479984D02*
X7921134Y-20479984D01*
X8102087Y-20479984D02*
X8083039Y-20470460D01*
X8083039Y-20470460D02*
X8073515Y-20451412D01*
X8073515Y-20451412D02*
X8073515Y-20279984D01*
X8254468Y-20470460D02*
X8235420Y-20479984D01*
X8235420Y-20479984D02*
X8197325Y-20479984D01*
X8197325Y-20479984D02*
X8178277Y-20470460D01*
X8178277Y-20470460D02*
X8168753Y-20451412D01*
X8168753Y-20451412D02*
X8168753Y-20375222D01*
X8168753Y-20375222D02*
X8178277Y-20356174D01*
X8178277Y-20356174D02*
X8197325Y-20346650D01*
X8197325Y-20346650D02*
X8235420Y-20346650D01*
X8235420Y-20346650D02*
X8254468Y-20356174D01*
X8254468Y-20356174D02*
X8263991Y-20375222D01*
X8263991Y-20375222D02*
X8263991Y-20394270D01*
X8263991Y-20394270D02*
X8168753Y-20413317D01*
X8340182Y-20470460D02*
X8359230Y-20479984D01*
X8359230Y-20479984D02*
X8397325Y-20479984D01*
X8397325Y-20479984D02*
X8416373Y-20470460D01*
X8416373Y-20470460D02*
X8425896Y-20451412D01*
X8425896Y-20451412D02*
X8425896Y-20441889D01*
X8425896Y-20441889D02*
X8416373Y-20422841D01*
X8416373Y-20422841D02*
X8397325Y-20413317D01*
X8397325Y-20413317D02*
X8368753Y-20413317D01*
X8368753Y-20413317D02*
X8349706Y-20403793D01*
X8349706Y-20403793D02*
X8340182Y-20384746D01*
X8340182Y-20384746D02*
X8340182Y-20375222D01*
X8340182Y-20375222D02*
X8349706Y-20356174D01*
X8349706Y-20356174D02*
X8368753Y-20346650D01*
X8368753Y-20346650D02*
X8397325Y-20346650D01*
X8397325Y-20346650D02*
X8416373Y-20356174D01*
X8663992Y-20403793D02*
X8816373Y-20403793D01*
X8740182Y-20479984D02*
X8740182Y-20327603D01*
X9092563Y-20365698D02*
X9073515Y-20356174D01*
X9073515Y-20356174D02*
X9063992Y-20346650D01*
X9063992Y-20346650D02*
X9054468Y-20327603D01*
X9054468Y-20327603D02*
X9054468Y-20318079D01*
X9054468Y-20318079D02*
X9063992Y-20299031D01*
X9063992Y-20299031D02*
X9073515Y-20289508D01*
X9073515Y-20289508D02*
X9092563Y-20279984D01*
X9092563Y-20279984D02*
X9130658Y-20279984D01*
X9130658Y-20279984D02*
X9149706Y-20289508D01*
X9149706Y-20289508D02*
X9159230Y-20299031D01*
X9159230Y-20299031D02*
X9168754Y-20318079D01*
X9168754Y-20318079D02*
X9168754Y-20327603D01*
X9168754Y-20327603D02*
X9159230Y-20346650D01*
X9159230Y-20346650D02*
X9149706Y-20356174D01*
X9149706Y-20356174D02*
X9130658Y-20365698D01*
X9130658Y-20365698D02*
X9092563Y-20365698D01*
X9092563Y-20365698D02*
X9073515Y-20375222D01*
X9073515Y-20375222D02*
X9063992Y-20384746D01*
X9063992Y-20384746D02*
X9054468Y-20403793D01*
X9054468Y-20403793D02*
X9054468Y-20441889D01*
X9054468Y-20441889D02*
X9063992Y-20460936D01*
X9063992Y-20460936D02*
X9073515Y-20470460D01*
X9073515Y-20470460D02*
X9092563Y-20479984D01*
X9092563Y-20479984D02*
X9130658Y-20479984D01*
X9130658Y-20479984D02*
X9149706Y-20470460D01*
X9149706Y-20470460D02*
X9159230Y-20460936D01*
X9159230Y-20460936D02*
X9168754Y-20441889D01*
X9168754Y-20441889D02*
X9168754Y-20403793D01*
X9168754Y-20403793D02*
X9159230Y-20384746D01*
X9159230Y-20384746D02*
X9149706Y-20375222D01*
X9149706Y-20375222D02*
X9130658Y-20365698D01*
X9397325Y-20470460D02*
X9416373Y-20479984D01*
X9416373Y-20479984D02*
X9454468Y-20479984D01*
X9454468Y-20479984D02*
X9473516Y-20470460D01*
X9473516Y-20470460D02*
X9483039Y-20451412D01*
X9483039Y-20451412D02*
X9483039Y-20441889D01*
X9483039Y-20441889D02*
X9473516Y-20422841D01*
X9473516Y-20422841D02*
X9454468Y-20413317D01*
X9454468Y-20413317D02*
X9425896Y-20413317D01*
X9425896Y-20413317D02*
X9406849Y-20403793D01*
X9406849Y-20403793D02*
X9397325Y-20384746D01*
X9397325Y-20384746D02*
X9397325Y-20375222D01*
X9397325Y-20375222D02*
X9406849Y-20356174D01*
X9406849Y-20356174D02*
X9425896Y-20346650D01*
X9425896Y-20346650D02*
X9454468Y-20346650D01*
X9454468Y-20346650D02*
X9473516Y-20356174D01*
X9597325Y-20479984D02*
X9578277Y-20470460D01*
X9578277Y-20470460D02*
X9568754Y-20451412D01*
X9568754Y-20451412D02*
X9568754Y-20279984D01*
X9702087Y-20479984D02*
X9683039Y-20470460D01*
X9683039Y-20470460D02*
X9673516Y-20460936D01*
X9673516Y-20460936D02*
X9663992Y-20441889D01*
X9663992Y-20441889D02*
X9663992Y-20384746D01*
X9663992Y-20384746D02*
X9673516Y-20365698D01*
X9673516Y-20365698D02*
X9683039Y-20356174D01*
X9683039Y-20356174D02*
X9702087Y-20346650D01*
X9702087Y-20346650D02*
X9730658Y-20346650D01*
X9730658Y-20346650D02*
X9749706Y-20356174D01*
X9749706Y-20356174D02*
X9759230Y-20365698D01*
X9759230Y-20365698D02*
X9768754Y-20384746D01*
X9768754Y-20384746D02*
X9768754Y-20441889D01*
X9768754Y-20441889D02*
X9759230Y-20460936D01*
X9759230Y-20460936D02*
X9749706Y-20470460D01*
X9749706Y-20470460D02*
X9730658Y-20479984D01*
X9730658Y-20479984D02*
X9702087Y-20479984D01*
X9825897Y-20346650D02*
X9902087Y-20346650D01*
X9854468Y-20279984D02*
X9854468Y-20451412D01*
X9854468Y-20451412D02*
X9863992Y-20470460D01*
X9863992Y-20470460D02*
X9883039Y-20479984D01*
X9883039Y-20479984D02*
X9902087Y-20479984D01*
X9959230Y-20470460D02*
X9978277Y-20479984D01*
X9978277Y-20479984D02*
X10016373Y-20479984D01*
X10016373Y-20479984D02*
X10035420Y-20470460D01*
X10035420Y-20470460D02*
X10044944Y-20451412D01*
X10044944Y-20451412D02*
X10044944Y-20441889D01*
X10044944Y-20441889D02*
X10035420Y-20422841D01*
X10035420Y-20422841D02*
X10016373Y-20413317D01*
X10016373Y-20413317D02*
X9987801Y-20413317D01*
X9987801Y-20413317D02*
X9968754Y-20403793D01*
X9968754Y-20403793D02*
X9959230Y-20384746D01*
X9959230Y-20384746D02*
X9959230Y-20375222D01*
X9959230Y-20375222D02*
X9968754Y-20356174D01*
X9968754Y-20356174D02*
X9987801Y-20346650D01*
X9987801Y-20346650D02*
X10016373Y-20346650D01*
X10016373Y-20346650D02*
X10035420Y-20356174D01*
X10111611Y-20556174D02*
X10121135Y-20546650D01*
X10121135Y-20546650D02*
X10140182Y-20518079D01*
X10140182Y-20518079D02*
X10149706Y-20499031D01*
X10149706Y-20499031D02*
X10159230Y-20470460D01*
X10159230Y-20470460D02*
X10168754Y-20422841D01*
X10168754Y-20422841D02*
X10168754Y-20384746D01*
X10168754Y-20384746D02*
X10159230Y-20337127D01*
X10159230Y-20337127D02*
X10149706Y-20308555D01*
X10149706Y-20308555D02*
X10140182Y-20289508D01*
X10140182Y-20289508D02*
X10121135Y-20260936D01*
X10121135Y-20260936D02*
X10111611Y-20251412D01*
D12*
X3647500Y-20617500D02*
X3717500Y-20687500D01*
X3717500Y-20617500D02*
X3647500Y-20687500D01*
X3717500Y-20652500D02*
G75*
G02*
X3647500Y-20652500I-35000J0D01*
G01*
X3647500Y-20652500D02*
G75*
G02*
X3717500Y-20652500I35000J0D01*
G01*
D11*
X4016372Y-20543984D02*
X4035420Y-20543984D01*
X4035420Y-20543984D02*
X4054467Y-20553508D01*
X4054467Y-20553508D02*
X4063991Y-20563031D01*
X4063991Y-20563031D02*
X4073515Y-20582079D01*
X4073515Y-20582079D02*
X4083039Y-20620174D01*
X4083039Y-20620174D02*
X4083039Y-20667793D01*
X4083039Y-20667793D02*
X4073515Y-20705889D01*
X4073515Y-20705889D02*
X4063991Y-20724936D01*
X4063991Y-20724936D02*
X4054467Y-20734460D01*
X4054467Y-20734460D02*
X4035420Y-20743984D01*
X4035420Y-20743984D02*
X4016372Y-20743984D01*
X4016372Y-20743984D02*
X3997324Y-20734460D01*
X3997324Y-20734460D02*
X3987801Y-20724936D01*
X3987801Y-20724936D02*
X3978277Y-20705889D01*
X3978277Y-20705889D02*
X3968753Y-20667793D01*
X3968753Y-20667793D02*
X3968753Y-20620174D01*
X3968753Y-20620174D02*
X3978277Y-20582079D01*
X3978277Y-20582079D02*
X3987801Y-20563031D01*
X3987801Y-20563031D02*
X3997324Y-20553508D01*
X3997324Y-20553508D02*
X4016372Y-20543984D01*
X4168753Y-20724936D02*
X4178277Y-20734460D01*
X4178277Y-20734460D02*
X4168753Y-20743984D01*
X4168753Y-20743984D02*
X4159229Y-20734460D01*
X4159229Y-20734460D02*
X4168753Y-20724936D01*
X4168753Y-20724936D02*
X4168753Y-20743984D01*
X4244944Y-20543984D02*
X4378277Y-20543984D01*
X4378277Y-20543984D02*
X4292563Y-20743984D01*
X4492563Y-20543984D02*
X4511610Y-20543984D01*
X4511610Y-20543984D02*
X4530658Y-20553508D01*
X4530658Y-20553508D02*
X4540182Y-20563031D01*
X4540182Y-20563031D02*
X4549705Y-20582079D01*
X4549705Y-20582079D02*
X4559229Y-20620174D01*
X4559229Y-20620174D02*
X4559229Y-20667793D01*
X4559229Y-20667793D02*
X4549705Y-20705889D01*
X4549705Y-20705889D02*
X4540182Y-20724936D01*
X4540182Y-20724936D02*
X4530658Y-20734460D01*
X4530658Y-20734460D02*
X4511610Y-20743984D01*
X4511610Y-20743984D02*
X4492563Y-20743984D01*
X4492563Y-20743984D02*
X4473515Y-20734460D01*
X4473515Y-20734460D02*
X4463991Y-20724936D01*
X4463991Y-20724936D02*
X4454467Y-20705889D01*
X4454467Y-20705889D02*
X4444944Y-20667793D01*
X4444944Y-20667793D02*
X4444944Y-20620174D01*
X4444944Y-20620174D02*
X4454467Y-20582079D01*
X4454467Y-20582079D02*
X4463991Y-20563031D01*
X4463991Y-20563031D02*
X4473515Y-20553508D01*
X4473515Y-20553508D02*
X4492563Y-20543984D01*
X4683039Y-20543984D02*
X4702086Y-20543984D01*
X4702086Y-20543984D02*
X4721134Y-20553508D01*
X4721134Y-20553508D02*
X4730658Y-20563031D01*
X4730658Y-20563031D02*
X4740182Y-20582079D01*
X4740182Y-20582079D02*
X4749705Y-20620174D01*
X4749705Y-20620174D02*
X4749705Y-20667793D01*
X4749705Y-20667793D02*
X4740182Y-20705889D01*
X4740182Y-20705889D02*
X4730658Y-20724936D01*
X4730658Y-20724936D02*
X4721134Y-20734460D01*
X4721134Y-20734460D02*
X4702086Y-20743984D01*
X4702086Y-20743984D02*
X4683039Y-20743984D01*
X4683039Y-20743984D02*
X4663991Y-20734460D01*
X4663991Y-20734460D02*
X4654467Y-20724936D01*
X4654467Y-20724936D02*
X4644944Y-20705889D01*
X4644944Y-20705889D02*
X4635420Y-20667793D01*
X4635420Y-20667793D02*
X4635420Y-20620174D01*
X4635420Y-20620174D02*
X4644944Y-20582079D01*
X4644944Y-20582079D02*
X4654467Y-20563031D01*
X4654467Y-20563031D02*
X4663991Y-20553508D01*
X4663991Y-20553508D02*
X4683039Y-20543984D01*
X4835420Y-20743984D02*
X4835420Y-20610650D01*
X4835420Y-20629698D02*
X4844944Y-20620174D01*
X4844944Y-20620174D02*
X4863991Y-20610650D01*
X4863991Y-20610650D02*
X4892563Y-20610650D01*
X4892563Y-20610650D02*
X4911610Y-20620174D01*
X4911610Y-20620174D02*
X4921134Y-20639222D01*
X4921134Y-20639222D02*
X4921134Y-20743984D01*
X4921134Y-20639222D02*
X4930658Y-20620174D01*
X4930658Y-20620174D02*
X4949705Y-20610650D01*
X4949705Y-20610650D02*
X4978277Y-20610650D01*
X4978277Y-20610650D02*
X4997325Y-20620174D01*
X4997325Y-20620174D02*
X5006848Y-20639222D01*
X5006848Y-20639222D02*
X5006848Y-20743984D01*
X5102086Y-20743984D02*
X5102086Y-20610650D01*
X5102086Y-20629698D02*
X5111610Y-20620174D01*
X5111610Y-20620174D02*
X5130658Y-20610650D01*
X5130658Y-20610650D02*
X5159229Y-20610650D01*
X5159229Y-20610650D02*
X5178277Y-20620174D01*
X5178277Y-20620174D02*
X5187801Y-20639222D01*
X5187801Y-20639222D02*
X5187801Y-20743984D01*
X5187801Y-20639222D02*
X5197325Y-20620174D01*
X5197325Y-20620174D02*
X5216372Y-20610650D01*
X5216372Y-20610650D02*
X5244944Y-20610650D01*
X5244944Y-20610650D02*
X5263991Y-20620174D01*
X5263991Y-20620174D02*
X5273515Y-20639222D01*
X5273515Y-20639222D02*
X5273515Y-20743984D01*
X5663991Y-20534460D02*
X5492563Y-20791603D01*
X5921134Y-20543984D02*
X5940182Y-20543984D01*
X5940182Y-20543984D02*
X5959229Y-20553508D01*
X5959229Y-20553508D02*
X5968753Y-20563031D01*
X5968753Y-20563031D02*
X5978277Y-20582079D01*
X5978277Y-20582079D02*
X5987801Y-20620174D01*
X5987801Y-20620174D02*
X5987801Y-20667793D01*
X5987801Y-20667793D02*
X5978277Y-20705889D01*
X5978277Y-20705889D02*
X5968753Y-20724936D01*
X5968753Y-20724936D02*
X5959229Y-20734460D01*
X5959229Y-20734460D02*
X5940182Y-20743984D01*
X5940182Y-20743984D02*
X5921134Y-20743984D01*
X5921134Y-20743984D02*
X5902086Y-20734460D01*
X5902086Y-20734460D02*
X5892563Y-20724936D01*
X5892563Y-20724936D02*
X5883039Y-20705889D01*
X5883039Y-20705889D02*
X5873515Y-20667793D01*
X5873515Y-20667793D02*
X5873515Y-20620174D01*
X5873515Y-20620174D02*
X5883039Y-20582079D01*
X5883039Y-20582079D02*
X5892563Y-20563031D01*
X5892563Y-20563031D02*
X5902086Y-20553508D01*
X5902086Y-20553508D02*
X5921134Y-20543984D01*
X6073515Y-20724936D02*
X6083039Y-20734460D01*
X6083039Y-20734460D02*
X6073515Y-20743984D01*
X6073515Y-20743984D02*
X6063991Y-20734460D01*
X6063991Y-20734460D02*
X6073515Y-20724936D01*
X6073515Y-20724936D02*
X6073515Y-20743984D01*
X6206848Y-20543984D02*
X6225896Y-20543984D01*
X6225896Y-20543984D02*
X6244944Y-20553508D01*
X6244944Y-20553508D02*
X6254467Y-20563031D01*
X6254467Y-20563031D02*
X6263991Y-20582079D01*
X6263991Y-20582079D02*
X6273515Y-20620174D01*
X6273515Y-20620174D02*
X6273515Y-20667793D01*
X6273515Y-20667793D02*
X6263991Y-20705889D01*
X6263991Y-20705889D02*
X6254467Y-20724936D01*
X6254467Y-20724936D02*
X6244944Y-20734460D01*
X6244944Y-20734460D02*
X6225896Y-20743984D01*
X6225896Y-20743984D02*
X6206848Y-20743984D01*
X6206848Y-20743984D02*
X6187801Y-20734460D01*
X6187801Y-20734460D02*
X6178277Y-20724936D01*
X6178277Y-20724936D02*
X6168753Y-20705889D01*
X6168753Y-20705889D02*
X6159229Y-20667793D01*
X6159229Y-20667793D02*
X6159229Y-20620174D01*
X6159229Y-20620174D02*
X6168753Y-20582079D01*
X6168753Y-20582079D02*
X6178277Y-20563031D01*
X6178277Y-20563031D02*
X6187801Y-20553508D01*
X6187801Y-20553508D02*
X6206848Y-20543984D01*
X6349706Y-20563031D02*
X6359229Y-20553508D01*
X6359229Y-20553508D02*
X6378277Y-20543984D01*
X6378277Y-20543984D02*
X6425896Y-20543984D01*
X6425896Y-20543984D02*
X6444944Y-20553508D01*
X6444944Y-20553508D02*
X6454467Y-20563031D01*
X6454467Y-20563031D02*
X6463991Y-20582079D01*
X6463991Y-20582079D02*
X6463991Y-20601127D01*
X6463991Y-20601127D02*
X6454467Y-20629698D01*
X6454467Y-20629698D02*
X6340182Y-20743984D01*
X6340182Y-20743984D02*
X6463991Y-20743984D01*
X6530658Y-20543984D02*
X6663991Y-20543984D01*
X6663991Y-20543984D02*
X6578277Y-20743984D01*
X6825896Y-20543984D02*
X6787801Y-20543984D01*
X6787801Y-20543984D02*
X6768753Y-20553508D01*
X6768753Y-20553508D02*
X6759229Y-20563031D01*
X6759229Y-20563031D02*
X6740182Y-20591603D01*
X6740182Y-20591603D02*
X6730658Y-20629698D01*
X6730658Y-20629698D02*
X6730658Y-20705889D01*
X6730658Y-20705889D02*
X6740182Y-20724936D01*
X6740182Y-20724936D02*
X6749706Y-20734460D01*
X6749706Y-20734460D02*
X6768753Y-20743984D01*
X6768753Y-20743984D02*
X6806848Y-20743984D01*
X6806848Y-20743984D02*
X6825896Y-20734460D01*
X6825896Y-20734460D02*
X6835420Y-20724936D01*
X6835420Y-20724936D02*
X6844944Y-20705889D01*
X6844944Y-20705889D02*
X6844944Y-20658270D01*
X6844944Y-20658270D02*
X6835420Y-20639222D01*
X6835420Y-20639222D02*
X6825896Y-20629698D01*
X6825896Y-20629698D02*
X6806848Y-20620174D01*
X6806848Y-20620174D02*
X6768753Y-20620174D01*
X6768753Y-20620174D02*
X6749706Y-20629698D01*
X6749706Y-20629698D02*
X6740182Y-20639222D01*
X6740182Y-20639222D02*
X6730658Y-20658270D01*
X6921134Y-20543984D02*
X6921134Y-20582079D01*
X6997325Y-20543984D02*
X6997325Y-20582079D01*
X7292563Y-20820174D02*
X7283039Y-20810650D01*
X7283039Y-20810650D02*
X7263991Y-20782079D01*
X7263991Y-20782079D02*
X7254468Y-20763031D01*
X7254468Y-20763031D02*
X7244944Y-20734460D01*
X7244944Y-20734460D02*
X7235420Y-20686841D01*
X7235420Y-20686841D02*
X7235420Y-20648746D01*
X7235420Y-20648746D02*
X7244944Y-20601127D01*
X7244944Y-20601127D02*
X7254468Y-20572555D01*
X7254468Y-20572555D02*
X7263991Y-20553508D01*
X7263991Y-20553508D02*
X7283039Y-20524936D01*
X7283039Y-20524936D02*
X7292563Y-20515412D01*
X7359229Y-20563031D02*
X7368753Y-20553508D01*
X7368753Y-20553508D02*
X7387801Y-20543984D01*
X7387801Y-20543984D02*
X7435420Y-20543984D01*
X7435420Y-20543984D02*
X7454468Y-20553508D01*
X7454468Y-20553508D02*
X7463991Y-20563031D01*
X7463991Y-20563031D02*
X7473515Y-20582079D01*
X7473515Y-20582079D02*
X7473515Y-20601127D01*
X7473515Y-20601127D02*
X7463991Y-20629698D01*
X7463991Y-20629698D02*
X7349706Y-20743984D01*
X7349706Y-20743984D02*
X7473515Y-20743984D01*
X7711610Y-20743984D02*
X7711610Y-20543984D01*
X7797325Y-20743984D02*
X7797325Y-20639222D01*
X7797325Y-20639222D02*
X7787801Y-20620174D01*
X7787801Y-20620174D02*
X7768753Y-20610650D01*
X7768753Y-20610650D02*
X7740182Y-20610650D01*
X7740182Y-20610650D02*
X7721134Y-20620174D01*
X7721134Y-20620174D02*
X7711610Y-20629698D01*
X7921134Y-20743984D02*
X7902087Y-20734460D01*
X7902087Y-20734460D02*
X7892563Y-20724936D01*
X7892563Y-20724936D02*
X7883039Y-20705889D01*
X7883039Y-20705889D02*
X7883039Y-20648746D01*
X7883039Y-20648746D02*
X7892563Y-20629698D01*
X7892563Y-20629698D02*
X7902087Y-20620174D01*
X7902087Y-20620174D02*
X7921134Y-20610650D01*
X7921134Y-20610650D02*
X7949706Y-20610650D01*
X7949706Y-20610650D02*
X7968753Y-20620174D01*
X7968753Y-20620174D02*
X7978277Y-20629698D01*
X7978277Y-20629698D02*
X7987801Y-20648746D01*
X7987801Y-20648746D02*
X7987801Y-20705889D01*
X7987801Y-20705889D02*
X7978277Y-20724936D01*
X7978277Y-20724936D02*
X7968753Y-20734460D01*
X7968753Y-20734460D02*
X7949706Y-20743984D01*
X7949706Y-20743984D02*
X7921134Y-20743984D01*
X8102087Y-20743984D02*
X8083039Y-20734460D01*
X8083039Y-20734460D02*
X8073515Y-20715412D01*
X8073515Y-20715412D02*
X8073515Y-20543984D01*
X8254468Y-20734460D02*
X8235420Y-20743984D01*
X8235420Y-20743984D02*
X8197325Y-20743984D01*
X8197325Y-20743984D02*
X8178277Y-20734460D01*
X8178277Y-20734460D02*
X8168753Y-20715412D01*
X8168753Y-20715412D02*
X8168753Y-20639222D01*
X8168753Y-20639222D02*
X8178277Y-20620174D01*
X8178277Y-20620174D02*
X8197325Y-20610650D01*
X8197325Y-20610650D02*
X8235420Y-20610650D01*
X8235420Y-20610650D02*
X8254468Y-20620174D01*
X8254468Y-20620174D02*
X8263991Y-20639222D01*
X8263991Y-20639222D02*
X8263991Y-20658270D01*
X8263991Y-20658270D02*
X8168753Y-20677317D01*
X8340182Y-20734460D02*
X8359230Y-20743984D01*
X8359230Y-20743984D02*
X8397325Y-20743984D01*
X8397325Y-20743984D02*
X8416373Y-20734460D01*
X8416373Y-20734460D02*
X8425896Y-20715412D01*
X8425896Y-20715412D02*
X8425896Y-20705889D01*
X8425896Y-20705889D02*
X8416373Y-20686841D01*
X8416373Y-20686841D02*
X8397325Y-20677317D01*
X8397325Y-20677317D02*
X8368753Y-20677317D01*
X8368753Y-20677317D02*
X8349706Y-20667793D01*
X8349706Y-20667793D02*
X8340182Y-20648746D01*
X8340182Y-20648746D02*
X8340182Y-20639222D01*
X8340182Y-20639222D02*
X8349706Y-20620174D01*
X8349706Y-20620174D02*
X8368753Y-20610650D01*
X8368753Y-20610650D02*
X8397325Y-20610650D01*
X8397325Y-20610650D02*
X8416373Y-20620174D01*
X8492563Y-20820174D02*
X8502087Y-20810650D01*
X8502087Y-20810650D02*
X8521134Y-20782079D01*
X8521134Y-20782079D02*
X8530658Y-20763031D01*
X8530658Y-20763031D02*
X8540182Y-20734460D01*
X8540182Y-20734460D02*
X8549706Y-20686841D01*
X8549706Y-20686841D02*
X8549706Y-20648746D01*
X8549706Y-20648746D02*
X8540182Y-20601127D01*
X8540182Y-20601127D02*
X8530658Y-20572555D01*
X8530658Y-20572555D02*
X8521134Y-20553508D01*
X8521134Y-20553508D02*
X8502087Y-20524936D01*
X8502087Y-20524936D02*
X8492563Y-20515412D01*
D12*
X3637500Y-20876500D02*
X3717500Y-20956500D01*
X3717500Y-20876500D02*
X3637500Y-20956500D01*
X3677500Y-20876500D02*
X3677500Y-20956500D01*
X3637500Y-20916500D02*
X3717500Y-20916500D01*
D11*
X4016372Y-20807984D02*
X4035420Y-20807984D01*
X4035420Y-20807984D02*
X4054467Y-20817508D01*
X4054467Y-20817508D02*
X4063991Y-20827031D01*
X4063991Y-20827031D02*
X4073515Y-20846079D01*
X4073515Y-20846079D02*
X4083039Y-20884174D01*
X4083039Y-20884174D02*
X4083039Y-20931793D01*
X4083039Y-20931793D02*
X4073515Y-20969889D01*
X4073515Y-20969889D02*
X4063991Y-20988936D01*
X4063991Y-20988936D02*
X4054467Y-20998460D01*
X4054467Y-20998460D02*
X4035420Y-21007984D01*
X4035420Y-21007984D02*
X4016372Y-21007984D01*
X4016372Y-21007984D02*
X3997324Y-20998460D01*
X3997324Y-20998460D02*
X3987801Y-20988936D01*
X3987801Y-20988936D02*
X3978277Y-20969889D01*
X3978277Y-20969889D02*
X3968753Y-20931793D01*
X3968753Y-20931793D02*
X3968753Y-20884174D01*
X3968753Y-20884174D02*
X3978277Y-20846079D01*
X3978277Y-20846079D02*
X3987801Y-20827031D01*
X3987801Y-20827031D02*
X3997324Y-20817508D01*
X3997324Y-20817508D02*
X4016372Y-20807984D01*
X4168753Y-20988936D02*
X4178277Y-20998460D01*
X4178277Y-20998460D02*
X4168753Y-21007984D01*
X4168753Y-21007984D02*
X4159229Y-20998460D01*
X4159229Y-20998460D02*
X4168753Y-20988936D01*
X4168753Y-20988936D02*
X4168753Y-21007984D01*
X4292563Y-20893698D02*
X4273515Y-20884174D01*
X4273515Y-20884174D02*
X4263991Y-20874650D01*
X4263991Y-20874650D02*
X4254467Y-20855603D01*
X4254467Y-20855603D02*
X4254467Y-20846079D01*
X4254467Y-20846079D02*
X4263991Y-20827031D01*
X4263991Y-20827031D02*
X4273515Y-20817508D01*
X4273515Y-20817508D02*
X4292563Y-20807984D01*
X4292563Y-20807984D02*
X4330658Y-20807984D01*
X4330658Y-20807984D02*
X4349705Y-20817508D01*
X4349705Y-20817508D02*
X4359229Y-20827031D01*
X4359229Y-20827031D02*
X4368753Y-20846079D01*
X4368753Y-20846079D02*
X4368753Y-20855603D01*
X4368753Y-20855603D02*
X4359229Y-20874650D01*
X4359229Y-20874650D02*
X4349705Y-20884174D01*
X4349705Y-20884174D02*
X4330658Y-20893698D01*
X4330658Y-20893698D02*
X4292563Y-20893698D01*
X4292563Y-20893698D02*
X4273515Y-20903222D01*
X4273515Y-20903222D02*
X4263991Y-20912746D01*
X4263991Y-20912746D02*
X4254467Y-20931793D01*
X4254467Y-20931793D02*
X4254467Y-20969889D01*
X4254467Y-20969889D02*
X4263991Y-20988936D01*
X4263991Y-20988936D02*
X4273515Y-20998460D01*
X4273515Y-20998460D02*
X4292563Y-21007984D01*
X4292563Y-21007984D02*
X4330658Y-21007984D01*
X4330658Y-21007984D02*
X4349705Y-20998460D01*
X4349705Y-20998460D02*
X4359229Y-20988936D01*
X4359229Y-20988936D02*
X4368753Y-20969889D01*
X4368753Y-20969889D02*
X4368753Y-20931793D01*
X4368753Y-20931793D02*
X4359229Y-20912746D01*
X4359229Y-20912746D02*
X4349705Y-20903222D01*
X4349705Y-20903222D02*
X4330658Y-20893698D01*
X4492563Y-20807984D02*
X4511610Y-20807984D01*
X4511610Y-20807984D02*
X4530658Y-20817508D01*
X4530658Y-20817508D02*
X4540182Y-20827031D01*
X4540182Y-20827031D02*
X4549705Y-20846079D01*
X4549705Y-20846079D02*
X4559229Y-20884174D01*
X4559229Y-20884174D02*
X4559229Y-20931793D01*
X4559229Y-20931793D02*
X4549705Y-20969889D01*
X4549705Y-20969889D02*
X4540182Y-20988936D01*
X4540182Y-20988936D02*
X4530658Y-20998460D01*
X4530658Y-20998460D02*
X4511610Y-21007984D01*
X4511610Y-21007984D02*
X4492563Y-21007984D01*
X4492563Y-21007984D02*
X4473515Y-20998460D01*
X4473515Y-20998460D02*
X4463991Y-20988936D01*
X4463991Y-20988936D02*
X4454467Y-20969889D01*
X4454467Y-20969889D02*
X4444944Y-20931793D01*
X4444944Y-20931793D02*
X4444944Y-20884174D01*
X4444944Y-20884174D02*
X4454467Y-20846079D01*
X4454467Y-20846079D02*
X4463991Y-20827031D01*
X4463991Y-20827031D02*
X4473515Y-20817508D01*
X4473515Y-20817508D02*
X4492563Y-20807984D01*
X4683039Y-20807984D02*
X4702086Y-20807984D01*
X4702086Y-20807984D02*
X4721134Y-20817508D01*
X4721134Y-20817508D02*
X4730658Y-20827031D01*
X4730658Y-20827031D02*
X4740182Y-20846079D01*
X4740182Y-20846079D02*
X4749705Y-20884174D01*
X4749705Y-20884174D02*
X4749705Y-20931793D01*
X4749705Y-20931793D02*
X4740182Y-20969889D01*
X4740182Y-20969889D02*
X4730658Y-20988936D01*
X4730658Y-20988936D02*
X4721134Y-20998460D01*
X4721134Y-20998460D02*
X4702086Y-21007984D01*
X4702086Y-21007984D02*
X4683039Y-21007984D01*
X4683039Y-21007984D02*
X4663991Y-20998460D01*
X4663991Y-20998460D02*
X4654467Y-20988936D01*
X4654467Y-20988936D02*
X4644944Y-20969889D01*
X4644944Y-20969889D02*
X4635420Y-20931793D01*
X4635420Y-20931793D02*
X4635420Y-20884174D01*
X4635420Y-20884174D02*
X4644944Y-20846079D01*
X4644944Y-20846079D02*
X4654467Y-20827031D01*
X4654467Y-20827031D02*
X4663991Y-20817508D01*
X4663991Y-20817508D02*
X4683039Y-20807984D01*
X4835420Y-21007984D02*
X4835420Y-20874650D01*
X4835420Y-20893698D02*
X4844944Y-20884174D01*
X4844944Y-20884174D02*
X4863991Y-20874650D01*
X4863991Y-20874650D02*
X4892563Y-20874650D01*
X4892563Y-20874650D02*
X4911610Y-20884174D01*
X4911610Y-20884174D02*
X4921134Y-20903222D01*
X4921134Y-20903222D02*
X4921134Y-21007984D01*
X4921134Y-20903222D02*
X4930658Y-20884174D01*
X4930658Y-20884174D02*
X4949705Y-20874650D01*
X4949705Y-20874650D02*
X4978277Y-20874650D01*
X4978277Y-20874650D02*
X4997325Y-20884174D01*
X4997325Y-20884174D02*
X5006848Y-20903222D01*
X5006848Y-20903222D02*
X5006848Y-21007984D01*
X5102086Y-21007984D02*
X5102086Y-20874650D01*
X5102086Y-20893698D02*
X5111610Y-20884174D01*
X5111610Y-20884174D02*
X5130658Y-20874650D01*
X5130658Y-20874650D02*
X5159229Y-20874650D01*
X5159229Y-20874650D02*
X5178277Y-20884174D01*
X5178277Y-20884174D02*
X5187801Y-20903222D01*
X5187801Y-20903222D02*
X5187801Y-21007984D01*
X5187801Y-20903222D02*
X5197325Y-20884174D01*
X5197325Y-20884174D02*
X5216372Y-20874650D01*
X5216372Y-20874650D02*
X5244944Y-20874650D01*
X5244944Y-20874650D02*
X5263991Y-20884174D01*
X5263991Y-20884174D02*
X5273515Y-20903222D01*
X5273515Y-20903222D02*
X5273515Y-21007984D01*
X5663991Y-20798460D02*
X5492563Y-21055603D01*
X5921134Y-20807984D02*
X5940182Y-20807984D01*
X5940182Y-20807984D02*
X5959229Y-20817508D01*
X5959229Y-20817508D02*
X5968753Y-20827031D01*
X5968753Y-20827031D02*
X5978277Y-20846079D01*
X5978277Y-20846079D02*
X5987801Y-20884174D01*
X5987801Y-20884174D02*
X5987801Y-20931793D01*
X5987801Y-20931793D02*
X5978277Y-20969889D01*
X5978277Y-20969889D02*
X5968753Y-20988936D01*
X5968753Y-20988936D02*
X5959229Y-20998460D01*
X5959229Y-20998460D02*
X5940182Y-21007984D01*
X5940182Y-21007984D02*
X5921134Y-21007984D01*
X5921134Y-21007984D02*
X5902086Y-20998460D01*
X5902086Y-20998460D02*
X5892563Y-20988936D01*
X5892563Y-20988936D02*
X5883039Y-20969889D01*
X5883039Y-20969889D02*
X5873515Y-20931793D01*
X5873515Y-20931793D02*
X5873515Y-20884174D01*
X5873515Y-20884174D02*
X5883039Y-20846079D01*
X5883039Y-20846079D02*
X5892563Y-20827031D01*
X5892563Y-20827031D02*
X5902086Y-20817508D01*
X5902086Y-20817508D02*
X5921134Y-20807984D01*
X6073515Y-20988936D02*
X6083039Y-20998460D01*
X6083039Y-20998460D02*
X6073515Y-21007984D01*
X6073515Y-21007984D02*
X6063991Y-20998460D01*
X6063991Y-20998460D02*
X6073515Y-20988936D01*
X6073515Y-20988936D02*
X6073515Y-21007984D01*
X6206848Y-20807984D02*
X6225896Y-20807984D01*
X6225896Y-20807984D02*
X6244944Y-20817508D01*
X6244944Y-20817508D02*
X6254467Y-20827031D01*
X6254467Y-20827031D02*
X6263991Y-20846079D01*
X6263991Y-20846079D02*
X6273515Y-20884174D01*
X6273515Y-20884174D02*
X6273515Y-20931793D01*
X6273515Y-20931793D02*
X6263991Y-20969889D01*
X6263991Y-20969889D02*
X6254467Y-20988936D01*
X6254467Y-20988936D02*
X6244944Y-20998460D01*
X6244944Y-20998460D02*
X6225896Y-21007984D01*
X6225896Y-21007984D02*
X6206848Y-21007984D01*
X6206848Y-21007984D02*
X6187801Y-20998460D01*
X6187801Y-20998460D02*
X6178277Y-20988936D01*
X6178277Y-20988936D02*
X6168753Y-20969889D01*
X6168753Y-20969889D02*
X6159229Y-20931793D01*
X6159229Y-20931793D02*
X6159229Y-20884174D01*
X6159229Y-20884174D02*
X6168753Y-20846079D01*
X6168753Y-20846079D02*
X6178277Y-20827031D01*
X6178277Y-20827031D02*
X6187801Y-20817508D01*
X6187801Y-20817508D02*
X6206848Y-20807984D01*
X6340182Y-20807984D02*
X6463991Y-20807984D01*
X6463991Y-20807984D02*
X6397325Y-20884174D01*
X6397325Y-20884174D02*
X6425896Y-20884174D01*
X6425896Y-20884174D02*
X6444944Y-20893698D01*
X6444944Y-20893698D02*
X6454467Y-20903222D01*
X6454467Y-20903222D02*
X6463991Y-20922270D01*
X6463991Y-20922270D02*
X6463991Y-20969889D01*
X6463991Y-20969889D02*
X6454467Y-20988936D01*
X6454467Y-20988936D02*
X6444944Y-20998460D01*
X6444944Y-20998460D02*
X6425896Y-21007984D01*
X6425896Y-21007984D02*
X6368753Y-21007984D01*
X6368753Y-21007984D02*
X6349706Y-20998460D01*
X6349706Y-20998460D02*
X6340182Y-20988936D01*
X6654467Y-21007984D02*
X6540182Y-21007984D01*
X6597325Y-21007984D02*
X6597325Y-20807984D01*
X6597325Y-20807984D02*
X6578277Y-20836555D01*
X6578277Y-20836555D02*
X6559229Y-20855603D01*
X6559229Y-20855603D02*
X6540182Y-20865127D01*
X6835420Y-20807984D02*
X6740182Y-20807984D01*
X6740182Y-20807984D02*
X6730658Y-20903222D01*
X6730658Y-20903222D02*
X6740182Y-20893698D01*
X6740182Y-20893698D02*
X6759229Y-20884174D01*
X6759229Y-20884174D02*
X6806848Y-20884174D01*
X6806848Y-20884174D02*
X6825896Y-20893698D01*
X6825896Y-20893698D02*
X6835420Y-20903222D01*
X6835420Y-20903222D02*
X6844944Y-20922270D01*
X6844944Y-20922270D02*
X6844944Y-20969889D01*
X6844944Y-20969889D02*
X6835420Y-20988936D01*
X6835420Y-20988936D02*
X6825896Y-20998460D01*
X6825896Y-20998460D02*
X6806848Y-21007984D01*
X6806848Y-21007984D02*
X6759229Y-21007984D01*
X6759229Y-21007984D02*
X6740182Y-20998460D01*
X6740182Y-20998460D02*
X6730658Y-20988936D01*
X6921134Y-20807984D02*
X6921134Y-20846079D01*
X6997325Y-20807984D02*
X6997325Y-20846079D01*
X7292563Y-21084174D02*
X7283039Y-21074650D01*
X7283039Y-21074650D02*
X7263991Y-21046079D01*
X7263991Y-21046079D02*
X7254468Y-21027031D01*
X7254468Y-21027031D02*
X7244944Y-20998460D01*
X7244944Y-20998460D02*
X7235420Y-20950841D01*
X7235420Y-20950841D02*
X7235420Y-20912746D01*
X7235420Y-20912746D02*
X7244944Y-20865127D01*
X7244944Y-20865127D02*
X7254468Y-20836555D01*
X7254468Y-20836555D02*
X7263991Y-20817508D01*
X7263991Y-20817508D02*
X7283039Y-20788936D01*
X7283039Y-20788936D02*
X7292563Y-20779412D01*
X7473515Y-21007984D02*
X7359229Y-21007984D01*
X7416372Y-21007984D02*
X7416372Y-20807984D01*
X7416372Y-20807984D02*
X7397325Y-20836555D01*
X7397325Y-20836555D02*
X7378277Y-20855603D01*
X7378277Y-20855603D02*
X7359229Y-20865127D01*
X7587801Y-20893698D02*
X7568753Y-20884174D01*
X7568753Y-20884174D02*
X7559229Y-20874650D01*
X7559229Y-20874650D02*
X7549706Y-20855603D01*
X7549706Y-20855603D02*
X7549706Y-20846079D01*
X7549706Y-20846079D02*
X7559229Y-20827031D01*
X7559229Y-20827031D02*
X7568753Y-20817508D01*
X7568753Y-20817508D02*
X7587801Y-20807984D01*
X7587801Y-20807984D02*
X7625896Y-20807984D01*
X7625896Y-20807984D02*
X7644944Y-20817508D01*
X7644944Y-20817508D02*
X7654468Y-20827031D01*
X7654468Y-20827031D02*
X7663991Y-20846079D01*
X7663991Y-20846079D02*
X7663991Y-20855603D01*
X7663991Y-20855603D02*
X7654468Y-20874650D01*
X7654468Y-20874650D02*
X7644944Y-20884174D01*
X7644944Y-20884174D02*
X7625896Y-20893698D01*
X7625896Y-20893698D02*
X7587801Y-20893698D01*
X7587801Y-20893698D02*
X7568753Y-20903222D01*
X7568753Y-20903222D02*
X7559229Y-20912746D01*
X7559229Y-20912746D02*
X7549706Y-20931793D01*
X7549706Y-20931793D02*
X7549706Y-20969889D01*
X7549706Y-20969889D02*
X7559229Y-20988936D01*
X7559229Y-20988936D02*
X7568753Y-20998460D01*
X7568753Y-20998460D02*
X7587801Y-21007984D01*
X7587801Y-21007984D02*
X7625896Y-21007984D01*
X7625896Y-21007984D02*
X7644944Y-20998460D01*
X7644944Y-20998460D02*
X7654468Y-20988936D01*
X7654468Y-20988936D02*
X7663991Y-20969889D01*
X7663991Y-20969889D02*
X7663991Y-20931793D01*
X7663991Y-20931793D02*
X7654468Y-20912746D01*
X7654468Y-20912746D02*
X7644944Y-20903222D01*
X7644944Y-20903222D02*
X7625896Y-20893698D01*
X7902087Y-21007984D02*
X7902087Y-20807984D01*
X7987801Y-21007984D02*
X7987801Y-20903222D01*
X7987801Y-20903222D02*
X7978277Y-20884174D01*
X7978277Y-20884174D02*
X7959230Y-20874650D01*
X7959230Y-20874650D02*
X7930658Y-20874650D01*
X7930658Y-20874650D02*
X7911610Y-20884174D01*
X7911610Y-20884174D02*
X7902087Y-20893698D01*
X8111610Y-21007984D02*
X8092563Y-20998460D01*
X8092563Y-20998460D02*
X8083039Y-20988936D01*
X8083039Y-20988936D02*
X8073515Y-20969889D01*
X8073515Y-20969889D02*
X8073515Y-20912746D01*
X8073515Y-20912746D02*
X8083039Y-20893698D01*
X8083039Y-20893698D02*
X8092563Y-20884174D01*
X8092563Y-20884174D02*
X8111610Y-20874650D01*
X8111610Y-20874650D02*
X8140182Y-20874650D01*
X8140182Y-20874650D02*
X8159230Y-20884174D01*
X8159230Y-20884174D02*
X8168753Y-20893698D01*
X8168753Y-20893698D02*
X8178277Y-20912746D01*
X8178277Y-20912746D02*
X8178277Y-20969889D01*
X8178277Y-20969889D02*
X8168753Y-20988936D01*
X8168753Y-20988936D02*
X8159230Y-20998460D01*
X8159230Y-20998460D02*
X8140182Y-21007984D01*
X8140182Y-21007984D02*
X8111610Y-21007984D01*
X8292563Y-21007984D02*
X8273515Y-20998460D01*
X8273515Y-20998460D02*
X8263991Y-20979412D01*
X8263991Y-20979412D02*
X8263991Y-20807984D01*
X8444944Y-20998460D02*
X8425896Y-21007984D01*
X8425896Y-21007984D02*
X8387801Y-21007984D01*
X8387801Y-21007984D02*
X8368753Y-20998460D01*
X8368753Y-20998460D02*
X8359230Y-20979412D01*
X8359230Y-20979412D02*
X8359230Y-20903222D01*
X8359230Y-20903222D02*
X8368753Y-20884174D01*
X8368753Y-20884174D02*
X8387801Y-20874650D01*
X8387801Y-20874650D02*
X8425896Y-20874650D01*
X8425896Y-20874650D02*
X8444944Y-20884174D01*
X8444944Y-20884174D02*
X8454468Y-20903222D01*
X8454468Y-20903222D02*
X8454468Y-20922270D01*
X8454468Y-20922270D02*
X8359230Y-20941317D01*
X8530658Y-20998460D02*
X8549706Y-21007984D01*
X8549706Y-21007984D02*
X8587801Y-21007984D01*
X8587801Y-21007984D02*
X8606849Y-20998460D01*
X8606849Y-20998460D02*
X8616373Y-20979412D01*
X8616373Y-20979412D02*
X8616373Y-20969889D01*
X8616373Y-20969889D02*
X8606849Y-20950841D01*
X8606849Y-20950841D02*
X8587801Y-20941317D01*
X8587801Y-20941317D02*
X8559230Y-20941317D01*
X8559230Y-20941317D02*
X8540182Y-20931793D01*
X8540182Y-20931793D02*
X8530658Y-20912746D01*
X8530658Y-20912746D02*
X8530658Y-20903222D01*
X8530658Y-20903222D02*
X8540182Y-20884174D01*
X8540182Y-20884174D02*
X8559230Y-20874650D01*
X8559230Y-20874650D02*
X8587801Y-20874650D01*
X8587801Y-20874650D02*
X8606849Y-20884174D01*
X8683039Y-21084174D02*
X8692563Y-21074650D01*
X8692563Y-21074650D02*
X8711611Y-21046079D01*
X8711611Y-21046079D02*
X8721134Y-21027031D01*
X8721134Y-21027031D02*
X8730658Y-20998460D01*
X8730658Y-20998460D02*
X8740182Y-20950841D01*
X8740182Y-20950841D02*
X8740182Y-20912746D01*
X8740182Y-20912746D02*
X8730658Y-20865127D01*
X8730658Y-20865127D02*
X8721134Y-20836555D01*
X8721134Y-20836555D02*
X8711611Y-20817508D01*
X8711611Y-20817508D02*
X8692563Y-20788936D01*
X8692563Y-20788936D02*
X8683039Y-20779412D01*
D12*
X3637500Y-21140500D02*
X3717500Y-21220500D01*
X3717500Y-21140500D02*
X3637500Y-21220500D01*
X3705784Y-21208785D02*
X3705784Y-21152216D01*
X3649215Y-21152216D01*
X3649215Y-21208785D01*
X3705784Y-21208785D01*
D11*
X4016372Y-21071984D02*
X4035420Y-21071984D01*
X4035420Y-21071984D02*
X4054467Y-21081508D01*
X4054467Y-21081508D02*
X4063991Y-21091031D01*
X4063991Y-21091031D02*
X4073515Y-21110079D01*
X4073515Y-21110079D02*
X4083039Y-21148174D01*
X4083039Y-21148174D02*
X4083039Y-21195793D01*
X4083039Y-21195793D02*
X4073515Y-21233889D01*
X4073515Y-21233889D02*
X4063991Y-21252936D01*
X4063991Y-21252936D02*
X4054467Y-21262460D01*
X4054467Y-21262460D02*
X4035420Y-21271984D01*
X4035420Y-21271984D02*
X4016372Y-21271984D01*
X4016372Y-21271984D02*
X3997324Y-21262460D01*
X3997324Y-21262460D02*
X3987801Y-21252936D01*
X3987801Y-21252936D02*
X3978277Y-21233889D01*
X3978277Y-21233889D02*
X3968753Y-21195793D01*
X3968753Y-21195793D02*
X3968753Y-21148174D01*
X3968753Y-21148174D02*
X3978277Y-21110079D01*
X3978277Y-21110079D02*
X3987801Y-21091031D01*
X3987801Y-21091031D02*
X3997324Y-21081508D01*
X3997324Y-21081508D02*
X4016372Y-21071984D01*
X4168753Y-21252936D02*
X4178277Y-21262460D01*
X4178277Y-21262460D02*
X4168753Y-21271984D01*
X4168753Y-21271984D02*
X4159229Y-21262460D01*
X4159229Y-21262460D02*
X4168753Y-21252936D01*
X4168753Y-21252936D02*
X4168753Y-21271984D01*
X4292563Y-21157698D02*
X4273515Y-21148174D01*
X4273515Y-21148174D02*
X4263991Y-21138650D01*
X4263991Y-21138650D02*
X4254467Y-21119603D01*
X4254467Y-21119603D02*
X4254467Y-21110079D01*
X4254467Y-21110079D02*
X4263991Y-21091031D01*
X4263991Y-21091031D02*
X4273515Y-21081508D01*
X4273515Y-21081508D02*
X4292563Y-21071984D01*
X4292563Y-21071984D02*
X4330658Y-21071984D01*
X4330658Y-21071984D02*
X4349705Y-21081508D01*
X4349705Y-21081508D02*
X4359229Y-21091031D01*
X4359229Y-21091031D02*
X4368753Y-21110079D01*
X4368753Y-21110079D02*
X4368753Y-21119603D01*
X4368753Y-21119603D02*
X4359229Y-21138650D01*
X4359229Y-21138650D02*
X4349705Y-21148174D01*
X4349705Y-21148174D02*
X4330658Y-21157698D01*
X4330658Y-21157698D02*
X4292563Y-21157698D01*
X4292563Y-21157698D02*
X4273515Y-21167222D01*
X4273515Y-21167222D02*
X4263991Y-21176746D01*
X4263991Y-21176746D02*
X4254467Y-21195793D01*
X4254467Y-21195793D02*
X4254467Y-21233889D01*
X4254467Y-21233889D02*
X4263991Y-21252936D01*
X4263991Y-21252936D02*
X4273515Y-21262460D01*
X4273515Y-21262460D02*
X4292563Y-21271984D01*
X4292563Y-21271984D02*
X4330658Y-21271984D01*
X4330658Y-21271984D02*
X4349705Y-21262460D01*
X4349705Y-21262460D02*
X4359229Y-21252936D01*
X4359229Y-21252936D02*
X4368753Y-21233889D01*
X4368753Y-21233889D02*
X4368753Y-21195793D01*
X4368753Y-21195793D02*
X4359229Y-21176746D01*
X4359229Y-21176746D02*
X4349705Y-21167222D01*
X4349705Y-21167222D02*
X4330658Y-21157698D01*
X4492563Y-21071984D02*
X4511610Y-21071984D01*
X4511610Y-21071984D02*
X4530658Y-21081508D01*
X4530658Y-21081508D02*
X4540182Y-21091031D01*
X4540182Y-21091031D02*
X4549705Y-21110079D01*
X4549705Y-21110079D02*
X4559229Y-21148174D01*
X4559229Y-21148174D02*
X4559229Y-21195793D01*
X4559229Y-21195793D02*
X4549705Y-21233889D01*
X4549705Y-21233889D02*
X4540182Y-21252936D01*
X4540182Y-21252936D02*
X4530658Y-21262460D01*
X4530658Y-21262460D02*
X4511610Y-21271984D01*
X4511610Y-21271984D02*
X4492563Y-21271984D01*
X4492563Y-21271984D02*
X4473515Y-21262460D01*
X4473515Y-21262460D02*
X4463991Y-21252936D01*
X4463991Y-21252936D02*
X4454467Y-21233889D01*
X4454467Y-21233889D02*
X4444944Y-21195793D01*
X4444944Y-21195793D02*
X4444944Y-21148174D01*
X4444944Y-21148174D02*
X4454467Y-21110079D01*
X4454467Y-21110079D02*
X4463991Y-21091031D01*
X4463991Y-21091031D02*
X4473515Y-21081508D01*
X4473515Y-21081508D02*
X4492563Y-21071984D01*
X4683039Y-21071984D02*
X4702086Y-21071984D01*
X4702086Y-21071984D02*
X4721134Y-21081508D01*
X4721134Y-21081508D02*
X4730658Y-21091031D01*
X4730658Y-21091031D02*
X4740182Y-21110079D01*
X4740182Y-21110079D02*
X4749705Y-21148174D01*
X4749705Y-21148174D02*
X4749705Y-21195793D01*
X4749705Y-21195793D02*
X4740182Y-21233889D01*
X4740182Y-21233889D02*
X4730658Y-21252936D01*
X4730658Y-21252936D02*
X4721134Y-21262460D01*
X4721134Y-21262460D02*
X4702086Y-21271984D01*
X4702086Y-21271984D02*
X4683039Y-21271984D01*
X4683039Y-21271984D02*
X4663991Y-21262460D01*
X4663991Y-21262460D02*
X4654467Y-21252936D01*
X4654467Y-21252936D02*
X4644944Y-21233889D01*
X4644944Y-21233889D02*
X4635420Y-21195793D01*
X4635420Y-21195793D02*
X4635420Y-21148174D01*
X4635420Y-21148174D02*
X4644944Y-21110079D01*
X4644944Y-21110079D02*
X4654467Y-21091031D01*
X4654467Y-21091031D02*
X4663991Y-21081508D01*
X4663991Y-21081508D02*
X4683039Y-21071984D01*
X4835420Y-21271984D02*
X4835420Y-21138650D01*
X4835420Y-21157698D02*
X4844944Y-21148174D01*
X4844944Y-21148174D02*
X4863991Y-21138650D01*
X4863991Y-21138650D02*
X4892563Y-21138650D01*
X4892563Y-21138650D02*
X4911610Y-21148174D01*
X4911610Y-21148174D02*
X4921134Y-21167222D01*
X4921134Y-21167222D02*
X4921134Y-21271984D01*
X4921134Y-21167222D02*
X4930658Y-21148174D01*
X4930658Y-21148174D02*
X4949705Y-21138650D01*
X4949705Y-21138650D02*
X4978277Y-21138650D01*
X4978277Y-21138650D02*
X4997325Y-21148174D01*
X4997325Y-21148174D02*
X5006848Y-21167222D01*
X5006848Y-21167222D02*
X5006848Y-21271984D01*
X5102086Y-21271984D02*
X5102086Y-21138650D01*
X5102086Y-21157698D02*
X5111610Y-21148174D01*
X5111610Y-21148174D02*
X5130658Y-21138650D01*
X5130658Y-21138650D02*
X5159229Y-21138650D01*
X5159229Y-21138650D02*
X5178277Y-21148174D01*
X5178277Y-21148174D02*
X5187801Y-21167222D01*
X5187801Y-21167222D02*
X5187801Y-21271984D01*
X5187801Y-21167222D02*
X5197325Y-21148174D01*
X5197325Y-21148174D02*
X5216372Y-21138650D01*
X5216372Y-21138650D02*
X5244944Y-21138650D01*
X5244944Y-21138650D02*
X5263991Y-21148174D01*
X5263991Y-21148174D02*
X5273515Y-21167222D01*
X5273515Y-21167222D02*
X5273515Y-21271984D01*
X5663991Y-21062460D02*
X5492563Y-21319603D01*
X5921134Y-21071984D02*
X5940182Y-21071984D01*
X5940182Y-21071984D02*
X5959229Y-21081508D01*
X5959229Y-21081508D02*
X5968753Y-21091031D01*
X5968753Y-21091031D02*
X5978277Y-21110079D01*
X5978277Y-21110079D02*
X5987801Y-21148174D01*
X5987801Y-21148174D02*
X5987801Y-21195793D01*
X5987801Y-21195793D02*
X5978277Y-21233889D01*
X5978277Y-21233889D02*
X5968753Y-21252936D01*
X5968753Y-21252936D02*
X5959229Y-21262460D01*
X5959229Y-21262460D02*
X5940182Y-21271984D01*
X5940182Y-21271984D02*
X5921134Y-21271984D01*
X5921134Y-21271984D02*
X5902086Y-21262460D01*
X5902086Y-21262460D02*
X5892563Y-21252936D01*
X5892563Y-21252936D02*
X5883039Y-21233889D01*
X5883039Y-21233889D02*
X5873515Y-21195793D01*
X5873515Y-21195793D02*
X5873515Y-21148174D01*
X5873515Y-21148174D02*
X5883039Y-21110079D01*
X5883039Y-21110079D02*
X5892563Y-21091031D01*
X5892563Y-21091031D02*
X5902086Y-21081508D01*
X5902086Y-21081508D02*
X5921134Y-21071984D01*
X6073515Y-21252936D02*
X6083039Y-21262460D01*
X6083039Y-21262460D02*
X6073515Y-21271984D01*
X6073515Y-21271984D02*
X6063991Y-21262460D01*
X6063991Y-21262460D02*
X6073515Y-21252936D01*
X6073515Y-21252936D02*
X6073515Y-21271984D01*
X6206848Y-21071984D02*
X6225896Y-21071984D01*
X6225896Y-21071984D02*
X6244944Y-21081508D01*
X6244944Y-21081508D02*
X6254467Y-21091031D01*
X6254467Y-21091031D02*
X6263991Y-21110079D01*
X6263991Y-21110079D02*
X6273515Y-21148174D01*
X6273515Y-21148174D02*
X6273515Y-21195793D01*
X6273515Y-21195793D02*
X6263991Y-21233889D01*
X6263991Y-21233889D02*
X6254467Y-21252936D01*
X6254467Y-21252936D02*
X6244944Y-21262460D01*
X6244944Y-21262460D02*
X6225896Y-21271984D01*
X6225896Y-21271984D02*
X6206848Y-21271984D01*
X6206848Y-21271984D02*
X6187801Y-21262460D01*
X6187801Y-21262460D02*
X6178277Y-21252936D01*
X6178277Y-21252936D02*
X6168753Y-21233889D01*
X6168753Y-21233889D02*
X6159229Y-21195793D01*
X6159229Y-21195793D02*
X6159229Y-21148174D01*
X6159229Y-21148174D02*
X6168753Y-21110079D01*
X6168753Y-21110079D02*
X6178277Y-21091031D01*
X6178277Y-21091031D02*
X6187801Y-21081508D01*
X6187801Y-21081508D02*
X6206848Y-21071984D01*
X6340182Y-21071984D02*
X6463991Y-21071984D01*
X6463991Y-21071984D02*
X6397325Y-21148174D01*
X6397325Y-21148174D02*
X6425896Y-21148174D01*
X6425896Y-21148174D02*
X6444944Y-21157698D01*
X6444944Y-21157698D02*
X6454467Y-21167222D01*
X6454467Y-21167222D02*
X6463991Y-21186270D01*
X6463991Y-21186270D02*
X6463991Y-21233889D01*
X6463991Y-21233889D02*
X6454467Y-21252936D01*
X6454467Y-21252936D02*
X6444944Y-21262460D01*
X6444944Y-21262460D02*
X6425896Y-21271984D01*
X6425896Y-21271984D02*
X6368753Y-21271984D01*
X6368753Y-21271984D02*
X6349706Y-21262460D01*
X6349706Y-21262460D02*
X6340182Y-21252936D01*
X6654467Y-21271984D02*
X6540182Y-21271984D01*
X6597325Y-21271984D02*
X6597325Y-21071984D01*
X6597325Y-21071984D02*
X6578277Y-21100555D01*
X6578277Y-21100555D02*
X6559229Y-21119603D01*
X6559229Y-21119603D02*
X6540182Y-21129127D01*
X6835420Y-21071984D02*
X6740182Y-21071984D01*
X6740182Y-21071984D02*
X6730658Y-21167222D01*
X6730658Y-21167222D02*
X6740182Y-21157698D01*
X6740182Y-21157698D02*
X6759229Y-21148174D01*
X6759229Y-21148174D02*
X6806848Y-21148174D01*
X6806848Y-21148174D02*
X6825896Y-21157698D01*
X6825896Y-21157698D02*
X6835420Y-21167222D01*
X6835420Y-21167222D02*
X6844944Y-21186270D01*
X6844944Y-21186270D02*
X6844944Y-21233889D01*
X6844944Y-21233889D02*
X6835420Y-21252936D01*
X6835420Y-21252936D02*
X6825896Y-21262460D01*
X6825896Y-21262460D02*
X6806848Y-21271984D01*
X6806848Y-21271984D02*
X6759229Y-21271984D01*
X6759229Y-21271984D02*
X6740182Y-21262460D01*
X6740182Y-21262460D02*
X6730658Y-21252936D01*
X6921134Y-21071984D02*
X6921134Y-21110079D01*
X6997325Y-21071984D02*
X6997325Y-21110079D01*
X7292563Y-21348174D02*
X7283039Y-21338650D01*
X7283039Y-21338650D02*
X7263991Y-21310079D01*
X7263991Y-21310079D02*
X7254468Y-21291031D01*
X7254468Y-21291031D02*
X7244944Y-21262460D01*
X7244944Y-21262460D02*
X7235420Y-21214841D01*
X7235420Y-21214841D02*
X7235420Y-21176746D01*
X7235420Y-21176746D02*
X7244944Y-21129127D01*
X7244944Y-21129127D02*
X7254468Y-21100555D01*
X7254468Y-21100555D02*
X7263991Y-21081508D01*
X7263991Y-21081508D02*
X7283039Y-21052936D01*
X7283039Y-21052936D02*
X7292563Y-21043412D01*
X7359229Y-21091031D02*
X7368753Y-21081508D01*
X7368753Y-21081508D02*
X7387801Y-21071984D01*
X7387801Y-21071984D02*
X7435420Y-21071984D01*
X7435420Y-21071984D02*
X7454468Y-21081508D01*
X7454468Y-21081508D02*
X7463991Y-21091031D01*
X7463991Y-21091031D02*
X7473515Y-21110079D01*
X7473515Y-21110079D02*
X7473515Y-21129127D01*
X7473515Y-21129127D02*
X7463991Y-21157698D01*
X7463991Y-21157698D02*
X7349706Y-21271984D01*
X7349706Y-21271984D02*
X7473515Y-21271984D01*
X7711610Y-21271984D02*
X7711610Y-21071984D01*
X7797325Y-21271984D02*
X7797325Y-21167222D01*
X7797325Y-21167222D02*
X7787801Y-21148174D01*
X7787801Y-21148174D02*
X7768753Y-21138650D01*
X7768753Y-21138650D02*
X7740182Y-21138650D01*
X7740182Y-21138650D02*
X7721134Y-21148174D01*
X7721134Y-21148174D02*
X7711610Y-21157698D01*
X7921134Y-21271984D02*
X7902087Y-21262460D01*
X7902087Y-21262460D02*
X7892563Y-21252936D01*
X7892563Y-21252936D02*
X7883039Y-21233889D01*
X7883039Y-21233889D02*
X7883039Y-21176746D01*
X7883039Y-21176746D02*
X7892563Y-21157698D01*
X7892563Y-21157698D02*
X7902087Y-21148174D01*
X7902087Y-21148174D02*
X7921134Y-21138650D01*
X7921134Y-21138650D02*
X7949706Y-21138650D01*
X7949706Y-21138650D02*
X7968753Y-21148174D01*
X7968753Y-21148174D02*
X7978277Y-21157698D01*
X7978277Y-21157698D02*
X7987801Y-21176746D01*
X7987801Y-21176746D02*
X7987801Y-21233889D01*
X7987801Y-21233889D02*
X7978277Y-21252936D01*
X7978277Y-21252936D02*
X7968753Y-21262460D01*
X7968753Y-21262460D02*
X7949706Y-21271984D01*
X7949706Y-21271984D02*
X7921134Y-21271984D01*
X8102087Y-21271984D02*
X8083039Y-21262460D01*
X8083039Y-21262460D02*
X8073515Y-21243412D01*
X8073515Y-21243412D02*
X8073515Y-21071984D01*
X8254468Y-21262460D02*
X8235420Y-21271984D01*
X8235420Y-21271984D02*
X8197325Y-21271984D01*
X8197325Y-21271984D02*
X8178277Y-21262460D01*
X8178277Y-21262460D02*
X8168753Y-21243412D01*
X8168753Y-21243412D02*
X8168753Y-21167222D01*
X8168753Y-21167222D02*
X8178277Y-21148174D01*
X8178277Y-21148174D02*
X8197325Y-21138650D01*
X8197325Y-21138650D02*
X8235420Y-21138650D01*
X8235420Y-21138650D02*
X8254468Y-21148174D01*
X8254468Y-21148174D02*
X8263991Y-21167222D01*
X8263991Y-21167222D02*
X8263991Y-21186270D01*
X8263991Y-21186270D02*
X8168753Y-21205317D01*
X8340182Y-21262460D02*
X8359230Y-21271984D01*
X8359230Y-21271984D02*
X8397325Y-21271984D01*
X8397325Y-21271984D02*
X8416373Y-21262460D01*
X8416373Y-21262460D02*
X8425896Y-21243412D01*
X8425896Y-21243412D02*
X8425896Y-21233889D01*
X8425896Y-21233889D02*
X8416373Y-21214841D01*
X8416373Y-21214841D02*
X8397325Y-21205317D01*
X8397325Y-21205317D02*
X8368753Y-21205317D01*
X8368753Y-21205317D02*
X8349706Y-21195793D01*
X8349706Y-21195793D02*
X8340182Y-21176746D01*
X8340182Y-21176746D02*
X8340182Y-21167222D01*
X8340182Y-21167222D02*
X8349706Y-21148174D01*
X8349706Y-21148174D02*
X8368753Y-21138650D01*
X8368753Y-21138650D02*
X8397325Y-21138650D01*
X8397325Y-21138650D02*
X8416373Y-21148174D01*
X8492563Y-21348174D02*
X8502087Y-21338650D01*
X8502087Y-21338650D02*
X8521134Y-21310079D01*
X8521134Y-21310079D02*
X8530658Y-21291031D01*
X8530658Y-21291031D02*
X8540182Y-21262460D01*
X8540182Y-21262460D02*
X8549706Y-21214841D01*
X8549706Y-21214841D02*
X8549706Y-21176746D01*
X8549706Y-21176746D02*
X8540182Y-21129127D01*
X8540182Y-21129127D02*
X8530658Y-21100555D01*
X8530658Y-21100555D02*
X8521134Y-21081508D01*
X8521134Y-21081508D02*
X8502087Y-21052936D01*
X8502087Y-21052936D02*
X8492563Y-21043412D01*
D12*
X3617500Y-21394500D02*
X3717500Y-21494500D01*
X3717500Y-21394500D02*
X3617500Y-21494500D01*
X3667500Y-21494500D02*
X3717500Y-21444500D01*
X3667500Y-21394500D01*
X3617500Y-21444500D01*
X3667500Y-21494500D01*
D11*
X4083039Y-21535984D02*
X3968753Y-21535984D01*
X4025896Y-21535984D02*
X4025896Y-21335984D01*
X4025896Y-21335984D02*
X4006848Y-21364555D01*
X4006848Y-21364555D02*
X3987801Y-21383603D01*
X3987801Y-21383603D02*
X3968753Y-21393127D01*
X4168753Y-21516936D02*
X4178277Y-21526460D01*
X4178277Y-21526460D02*
X4168753Y-21535984D01*
X4168753Y-21535984D02*
X4159229Y-21526460D01*
X4159229Y-21526460D02*
X4168753Y-21516936D01*
X4168753Y-21516936D02*
X4168753Y-21535984D01*
X4302086Y-21335984D02*
X4321134Y-21335984D01*
X4321134Y-21335984D02*
X4340182Y-21345508D01*
X4340182Y-21345508D02*
X4349705Y-21355031D01*
X4349705Y-21355031D02*
X4359229Y-21374079D01*
X4359229Y-21374079D02*
X4368753Y-21412174D01*
X4368753Y-21412174D02*
X4368753Y-21459793D01*
X4368753Y-21459793D02*
X4359229Y-21497889D01*
X4359229Y-21497889D02*
X4349705Y-21516936D01*
X4349705Y-21516936D02*
X4340182Y-21526460D01*
X4340182Y-21526460D02*
X4321134Y-21535984D01*
X4321134Y-21535984D02*
X4302086Y-21535984D01*
X4302086Y-21535984D02*
X4283039Y-21526460D01*
X4283039Y-21526460D02*
X4273515Y-21516936D01*
X4273515Y-21516936D02*
X4263991Y-21497889D01*
X4263991Y-21497889D02*
X4254467Y-21459793D01*
X4254467Y-21459793D02*
X4254467Y-21412174D01*
X4254467Y-21412174D02*
X4263991Y-21374079D01*
X4263991Y-21374079D02*
X4273515Y-21355031D01*
X4273515Y-21355031D02*
X4283039Y-21345508D01*
X4283039Y-21345508D02*
X4302086Y-21335984D01*
X4492563Y-21335984D02*
X4511610Y-21335984D01*
X4511610Y-21335984D02*
X4530658Y-21345508D01*
X4530658Y-21345508D02*
X4540182Y-21355031D01*
X4540182Y-21355031D02*
X4549705Y-21374079D01*
X4549705Y-21374079D02*
X4559229Y-21412174D01*
X4559229Y-21412174D02*
X4559229Y-21459793D01*
X4559229Y-21459793D02*
X4549705Y-21497889D01*
X4549705Y-21497889D02*
X4540182Y-21516936D01*
X4540182Y-21516936D02*
X4530658Y-21526460D01*
X4530658Y-21526460D02*
X4511610Y-21535984D01*
X4511610Y-21535984D02*
X4492563Y-21535984D01*
X4492563Y-21535984D02*
X4473515Y-21526460D01*
X4473515Y-21526460D02*
X4463991Y-21516936D01*
X4463991Y-21516936D02*
X4454467Y-21497889D01*
X4454467Y-21497889D02*
X4444944Y-21459793D01*
X4444944Y-21459793D02*
X4444944Y-21412174D01*
X4444944Y-21412174D02*
X4454467Y-21374079D01*
X4454467Y-21374079D02*
X4463991Y-21355031D01*
X4463991Y-21355031D02*
X4473515Y-21345508D01*
X4473515Y-21345508D02*
X4492563Y-21335984D01*
X4683039Y-21335984D02*
X4702086Y-21335984D01*
X4702086Y-21335984D02*
X4721134Y-21345508D01*
X4721134Y-21345508D02*
X4730658Y-21355031D01*
X4730658Y-21355031D02*
X4740182Y-21374079D01*
X4740182Y-21374079D02*
X4749705Y-21412174D01*
X4749705Y-21412174D02*
X4749705Y-21459793D01*
X4749705Y-21459793D02*
X4740182Y-21497889D01*
X4740182Y-21497889D02*
X4730658Y-21516936D01*
X4730658Y-21516936D02*
X4721134Y-21526460D01*
X4721134Y-21526460D02*
X4702086Y-21535984D01*
X4702086Y-21535984D02*
X4683039Y-21535984D01*
X4683039Y-21535984D02*
X4663991Y-21526460D01*
X4663991Y-21526460D02*
X4654467Y-21516936D01*
X4654467Y-21516936D02*
X4644944Y-21497889D01*
X4644944Y-21497889D02*
X4635420Y-21459793D01*
X4635420Y-21459793D02*
X4635420Y-21412174D01*
X4635420Y-21412174D02*
X4644944Y-21374079D01*
X4644944Y-21374079D02*
X4654467Y-21355031D01*
X4654467Y-21355031D02*
X4663991Y-21345508D01*
X4663991Y-21345508D02*
X4683039Y-21335984D01*
X4835420Y-21535984D02*
X4835420Y-21402650D01*
X4835420Y-21421698D02*
X4844944Y-21412174D01*
X4844944Y-21412174D02*
X4863991Y-21402650D01*
X4863991Y-21402650D02*
X4892563Y-21402650D01*
X4892563Y-21402650D02*
X4911610Y-21412174D01*
X4911610Y-21412174D02*
X4921134Y-21431222D01*
X4921134Y-21431222D02*
X4921134Y-21535984D01*
X4921134Y-21431222D02*
X4930658Y-21412174D01*
X4930658Y-21412174D02*
X4949705Y-21402650D01*
X4949705Y-21402650D02*
X4978277Y-21402650D01*
X4978277Y-21402650D02*
X4997325Y-21412174D01*
X4997325Y-21412174D02*
X5006848Y-21431222D01*
X5006848Y-21431222D02*
X5006848Y-21535984D01*
X5102086Y-21535984D02*
X5102086Y-21402650D01*
X5102086Y-21421698D02*
X5111610Y-21412174D01*
X5111610Y-21412174D02*
X5130658Y-21402650D01*
X5130658Y-21402650D02*
X5159229Y-21402650D01*
X5159229Y-21402650D02*
X5178277Y-21412174D01*
X5178277Y-21412174D02*
X5187801Y-21431222D01*
X5187801Y-21431222D02*
X5187801Y-21535984D01*
X5187801Y-21431222D02*
X5197325Y-21412174D01*
X5197325Y-21412174D02*
X5216372Y-21402650D01*
X5216372Y-21402650D02*
X5244944Y-21402650D01*
X5244944Y-21402650D02*
X5263991Y-21412174D01*
X5263991Y-21412174D02*
X5273515Y-21431222D01*
X5273515Y-21431222D02*
X5273515Y-21535984D01*
X5663991Y-21326460D02*
X5492563Y-21583603D01*
X5921134Y-21335984D02*
X5940182Y-21335984D01*
X5940182Y-21335984D02*
X5959229Y-21345508D01*
X5959229Y-21345508D02*
X5968753Y-21355031D01*
X5968753Y-21355031D02*
X5978277Y-21374079D01*
X5978277Y-21374079D02*
X5987801Y-21412174D01*
X5987801Y-21412174D02*
X5987801Y-21459793D01*
X5987801Y-21459793D02*
X5978277Y-21497889D01*
X5978277Y-21497889D02*
X5968753Y-21516936D01*
X5968753Y-21516936D02*
X5959229Y-21526460D01*
X5959229Y-21526460D02*
X5940182Y-21535984D01*
X5940182Y-21535984D02*
X5921134Y-21535984D01*
X5921134Y-21535984D02*
X5902086Y-21526460D01*
X5902086Y-21526460D02*
X5892563Y-21516936D01*
X5892563Y-21516936D02*
X5883039Y-21497889D01*
X5883039Y-21497889D02*
X5873515Y-21459793D01*
X5873515Y-21459793D02*
X5873515Y-21412174D01*
X5873515Y-21412174D02*
X5883039Y-21374079D01*
X5883039Y-21374079D02*
X5892563Y-21355031D01*
X5892563Y-21355031D02*
X5902086Y-21345508D01*
X5902086Y-21345508D02*
X5921134Y-21335984D01*
X6073515Y-21516936D02*
X6083039Y-21526460D01*
X6083039Y-21526460D02*
X6073515Y-21535984D01*
X6073515Y-21535984D02*
X6063991Y-21526460D01*
X6063991Y-21526460D02*
X6073515Y-21516936D01*
X6073515Y-21516936D02*
X6073515Y-21535984D01*
X6206848Y-21335984D02*
X6225896Y-21335984D01*
X6225896Y-21335984D02*
X6244944Y-21345508D01*
X6244944Y-21345508D02*
X6254467Y-21355031D01*
X6254467Y-21355031D02*
X6263991Y-21374079D01*
X6263991Y-21374079D02*
X6273515Y-21412174D01*
X6273515Y-21412174D02*
X6273515Y-21459793D01*
X6273515Y-21459793D02*
X6263991Y-21497889D01*
X6263991Y-21497889D02*
X6254467Y-21516936D01*
X6254467Y-21516936D02*
X6244944Y-21526460D01*
X6244944Y-21526460D02*
X6225896Y-21535984D01*
X6225896Y-21535984D02*
X6206848Y-21535984D01*
X6206848Y-21535984D02*
X6187801Y-21526460D01*
X6187801Y-21526460D02*
X6178277Y-21516936D01*
X6178277Y-21516936D02*
X6168753Y-21497889D01*
X6168753Y-21497889D02*
X6159229Y-21459793D01*
X6159229Y-21459793D02*
X6159229Y-21412174D01*
X6159229Y-21412174D02*
X6168753Y-21374079D01*
X6168753Y-21374079D02*
X6178277Y-21355031D01*
X6178277Y-21355031D02*
X6187801Y-21345508D01*
X6187801Y-21345508D02*
X6206848Y-21335984D01*
X6340182Y-21335984D02*
X6463991Y-21335984D01*
X6463991Y-21335984D02*
X6397325Y-21412174D01*
X6397325Y-21412174D02*
X6425896Y-21412174D01*
X6425896Y-21412174D02*
X6444944Y-21421698D01*
X6444944Y-21421698D02*
X6454467Y-21431222D01*
X6454467Y-21431222D02*
X6463991Y-21450270D01*
X6463991Y-21450270D02*
X6463991Y-21497889D01*
X6463991Y-21497889D02*
X6454467Y-21516936D01*
X6454467Y-21516936D02*
X6444944Y-21526460D01*
X6444944Y-21526460D02*
X6425896Y-21535984D01*
X6425896Y-21535984D02*
X6368753Y-21535984D01*
X6368753Y-21535984D02*
X6349706Y-21526460D01*
X6349706Y-21526460D02*
X6340182Y-21516936D01*
X6559229Y-21535984D02*
X6597325Y-21535984D01*
X6597325Y-21535984D02*
X6616372Y-21526460D01*
X6616372Y-21526460D02*
X6625896Y-21516936D01*
X6625896Y-21516936D02*
X6644944Y-21488365D01*
X6644944Y-21488365D02*
X6654467Y-21450270D01*
X6654467Y-21450270D02*
X6654467Y-21374079D01*
X6654467Y-21374079D02*
X6644944Y-21355031D01*
X6644944Y-21355031D02*
X6635420Y-21345508D01*
X6635420Y-21345508D02*
X6616372Y-21335984D01*
X6616372Y-21335984D02*
X6578277Y-21335984D01*
X6578277Y-21335984D02*
X6559229Y-21345508D01*
X6559229Y-21345508D02*
X6549706Y-21355031D01*
X6549706Y-21355031D02*
X6540182Y-21374079D01*
X6540182Y-21374079D02*
X6540182Y-21421698D01*
X6540182Y-21421698D02*
X6549706Y-21440746D01*
X6549706Y-21440746D02*
X6559229Y-21450270D01*
X6559229Y-21450270D02*
X6578277Y-21459793D01*
X6578277Y-21459793D02*
X6616372Y-21459793D01*
X6616372Y-21459793D02*
X6635420Y-21450270D01*
X6635420Y-21450270D02*
X6644944Y-21440746D01*
X6644944Y-21440746D02*
X6654467Y-21421698D01*
X6825896Y-21402650D02*
X6825896Y-21535984D01*
X6778277Y-21326460D02*
X6730658Y-21469317D01*
X6730658Y-21469317D02*
X6854467Y-21469317D01*
X6921134Y-21335984D02*
X6921134Y-21374079D01*
X6997325Y-21335984D02*
X6997325Y-21374079D01*
X7292563Y-21612174D02*
X7283039Y-21602650D01*
X7283039Y-21602650D02*
X7263991Y-21574079D01*
X7263991Y-21574079D02*
X7254468Y-21555031D01*
X7254468Y-21555031D02*
X7244944Y-21526460D01*
X7244944Y-21526460D02*
X7235420Y-21478841D01*
X7235420Y-21478841D02*
X7235420Y-21440746D01*
X7235420Y-21440746D02*
X7244944Y-21393127D01*
X7244944Y-21393127D02*
X7254468Y-21364555D01*
X7254468Y-21364555D02*
X7263991Y-21345508D01*
X7263991Y-21345508D02*
X7283039Y-21316936D01*
X7283039Y-21316936D02*
X7292563Y-21307412D01*
X7359229Y-21355031D02*
X7368753Y-21345508D01*
X7368753Y-21345508D02*
X7387801Y-21335984D01*
X7387801Y-21335984D02*
X7435420Y-21335984D01*
X7435420Y-21335984D02*
X7454468Y-21345508D01*
X7454468Y-21345508D02*
X7463991Y-21355031D01*
X7463991Y-21355031D02*
X7473515Y-21374079D01*
X7473515Y-21374079D02*
X7473515Y-21393127D01*
X7473515Y-21393127D02*
X7463991Y-21421698D01*
X7463991Y-21421698D02*
X7349706Y-21535984D01*
X7349706Y-21535984D02*
X7473515Y-21535984D01*
X7711610Y-21535984D02*
X7711610Y-21335984D01*
X7797325Y-21535984D02*
X7797325Y-21431222D01*
X7797325Y-21431222D02*
X7787801Y-21412174D01*
X7787801Y-21412174D02*
X7768753Y-21402650D01*
X7768753Y-21402650D02*
X7740182Y-21402650D01*
X7740182Y-21402650D02*
X7721134Y-21412174D01*
X7721134Y-21412174D02*
X7711610Y-21421698D01*
X7921134Y-21535984D02*
X7902087Y-21526460D01*
X7902087Y-21526460D02*
X7892563Y-21516936D01*
X7892563Y-21516936D02*
X7883039Y-21497889D01*
X7883039Y-21497889D02*
X7883039Y-21440746D01*
X7883039Y-21440746D02*
X7892563Y-21421698D01*
X7892563Y-21421698D02*
X7902087Y-21412174D01*
X7902087Y-21412174D02*
X7921134Y-21402650D01*
X7921134Y-21402650D02*
X7949706Y-21402650D01*
X7949706Y-21402650D02*
X7968753Y-21412174D01*
X7968753Y-21412174D02*
X7978277Y-21421698D01*
X7978277Y-21421698D02*
X7987801Y-21440746D01*
X7987801Y-21440746D02*
X7987801Y-21497889D01*
X7987801Y-21497889D02*
X7978277Y-21516936D01*
X7978277Y-21516936D02*
X7968753Y-21526460D01*
X7968753Y-21526460D02*
X7949706Y-21535984D01*
X7949706Y-21535984D02*
X7921134Y-21535984D01*
X8102087Y-21535984D02*
X8083039Y-21526460D01*
X8083039Y-21526460D02*
X8073515Y-21507412D01*
X8073515Y-21507412D02*
X8073515Y-21335984D01*
X8254468Y-21526460D02*
X8235420Y-21535984D01*
X8235420Y-21535984D02*
X8197325Y-21535984D01*
X8197325Y-21535984D02*
X8178277Y-21526460D01*
X8178277Y-21526460D02*
X8168753Y-21507412D01*
X8168753Y-21507412D02*
X8168753Y-21431222D01*
X8168753Y-21431222D02*
X8178277Y-21412174D01*
X8178277Y-21412174D02*
X8197325Y-21402650D01*
X8197325Y-21402650D02*
X8235420Y-21402650D01*
X8235420Y-21402650D02*
X8254468Y-21412174D01*
X8254468Y-21412174D02*
X8263991Y-21431222D01*
X8263991Y-21431222D02*
X8263991Y-21450270D01*
X8263991Y-21450270D02*
X8168753Y-21469317D01*
X8340182Y-21526460D02*
X8359230Y-21535984D01*
X8359230Y-21535984D02*
X8397325Y-21535984D01*
X8397325Y-21535984D02*
X8416373Y-21526460D01*
X8416373Y-21526460D02*
X8425896Y-21507412D01*
X8425896Y-21507412D02*
X8425896Y-21497889D01*
X8425896Y-21497889D02*
X8416373Y-21478841D01*
X8416373Y-21478841D02*
X8397325Y-21469317D01*
X8397325Y-21469317D02*
X8368753Y-21469317D01*
X8368753Y-21469317D02*
X8349706Y-21459793D01*
X8349706Y-21459793D02*
X8340182Y-21440746D01*
X8340182Y-21440746D02*
X8340182Y-21431222D01*
X8340182Y-21431222D02*
X8349706Y-21412174D01*
X8349706Y-21412174D02*
X8368753Y-21402650D01*
X8368753Y-21402650D02*
X8397325Y-21402650D01*
X8397325Y-21402650D02*
X8416373Y-21412174D01*
X8492563Y-21612174D02*
X8502087Y-21602650D01*
X8502087Y-21602650D02*
X8521134Y-21574079D01*
X8521134Y-21574079D02*
X8530658Y-21555031D01*
X8530658Y-21555031D02*
X8540182Y-21526460D01*
X8540182Y-21526460D02*
X8549706Y-21478841D01*
X8549706Y-21478841D02*
X8549706Y-21440746D01*
X8549706Y-21440746D02*
X8540182Y-21393127D01*
X8540182Y-21393127D02*
X8530658Y-21364555D01*
X8530658Y-21364555D02*
X8521134Y-21345508D01*
X8521134Y-21345508D02*
X8502087Y-21316936D01*
X8502087Y-21316936D02*
X8492563Y-21307412D01*
D12*
X3667500Y-21658500D02*
X3667500Y-21758500D01*
X3617500Y-21708500D02*
X3717500Y-21708500D01*
X3717500Y-21708500D02*
G75*
G02*
X3617500Y-21708500I-50000J0D01*
G01*
X3617500Y-21708500D02*
G75*
G02*
X3717500Y-21708500I50000J0D01*
G01*
D11*
X4083039Y-21799984D02*
X3968753Y-21799984D01*
X4025896Y-21799984D02*
X4025896Y-21599984D01*
X4025896Y-21599984D02*
X4006848Y-21628555D01*
X4006848Y-21628555D02*
X3987801Y-21647603D01*
X3987801Y-21647603D02*
X3968753Y-21657127D01*
X4168753Y-21780936D02*
X4178277Y-21790460D01*
X4178277Y-21790460D02*
X4168753Y-21799984D01*
X4168753Y-21799984D02*
X4159229Y-21790460D01*
X4159229Y-21790460D02*
X4168753Y-21780936D01*
X4168753Y-21780936D02*
X4168753Y-21799984D01*
X4302086Y-21599984D02*
X4321134Y-21599984D01*
X4321134Y-21599984D02*
X4340182Y-21609508D01*
X4340182Y-21609508D02*
X4349705Y-21619031D01*
X4349705Y-21619031D02*
X4359229Y-21638079D01*
X4359229Y-21638079D02*
X4368753Y-21676174D01*
X4368753Y-21676174D02*
X4368753Y-21723793D01*
X4368753Y-21723793D02*
X4359229Y-21761889D01*
X4359229Y-21761889D02*
X4349705Y-21780936D01*
X4349705Y-21780936D02*
X4340182Y-21790460D01*
X4340182Y-21790460D02*
X4321134Y-21799984D01*
X4321134Y-21799984D02*
X4302086Y-21799984D01*
X4302086Y-21799984D02*
X4283039Y-21790460D01*
X4283039Y-21790460D02*
X4273515Y-21780936D01*
X4273515Y-21780936D02*
X4263991Y-21761889D01*
X4263991Y-21761889D02*
X4254467Y-21723793D01*
X4254467Y-21723793D02*
X4254467Y-21676174D01*
X4254467Y-21676174D02*
X4263991Y-21638079D01*
X4263991Y-21638079D02*
X4273515Y-21619031D01*
X4273515Y-21619031D02*
X4283039Y-21609508D01*
X4283039Y-21609508D02*
X4302086Y-21599984D01*
X4492563Y-21599984D02*
X4511610Y-21599984D01*
X4511610Y-21599984D02*
X4530658Y-21609508D01*
X4530658Y-21609508D02*
X4540182Y-21619031D01*
X4540182Y-21619031D02*
X4549705Y-21638079D01*
X4549705Y-21638079D02*
X4559229Y-21676174D01*
X4559229Y-21676174D02*
X4559229Y-21723793D01*
X4559229Y-21723793D02*
X4549705Y-21761889D01*
X4549705Y-21761889D02*
X4540182Y-21780936D01*
X4540182Y-21780936D02*
X4530658Y-21790460D01*
X4530658Y-21790460D02*
X4511610Y-21799984D01*
X4511610Y-21799984D02*
X4492563Y-21799984D01*
X4492563Y-21799984D02*
X4473515Y-21790460D01*
X4473515Y-21790460D02*
X4463991Y-21780936D01*
X4463991Y-21780936D02*
X4454467Y-21761889D01*
X4454467Y-21761889D02*
X4444944Y-21723793D01*
X4444944Y-21723793D02*
X4444944Y-21676174D01*
X4444944Y-21676174D02*
X4454467Y-21638079D01*
X4454467Y-21638079D02*
X4463991Y-21619031D01*
X4463991Y-21619031D02*
X4473515Y-21609508D01*
X4473515Y-21609508D02*
X4492563Y-21599984D01*
X4683039Y-21599984D02*
X4702086Y-21599984D01*
X4702086Y-21599984D02*
X4721134Y-21609508D01*
X4721134Y-21609508D02*
X4730658Y-21619031D01*
X4730658Y-21619031D02*
X4740182Y-21638079D01*
X4740182Y-21638079D02*
X4749705Y-21676174D01*
X4749705Y-21676174D02*
X4749705Y-21723793D01*
X4749705Y-21723793D02*
X4740182Y-21761889D01*
X4740182Y-21761889D02*
X4730658Y-21780936D01*
X4730658Y-21780936D02*
X4721134Y-21790460D01*
X4721134Y-21790460D02*
X4702086Y-21799984D01*
X4702086Y-21799984D02*
X4683039Y-21799984D01*
X4683039Y-21799984D02*
X4663991Y-21790460D01*
X4663991Y-21790460D02*
X4654467Y-21780936D01*
X4654467Y-21780936D02*
X4644944Y-21761889D01*
X4644944Y-21761889D02*
X4635420Y-21723793D01*
X4635420Y-21723793D02*
X4635420Y-21676174D01*
X4635420Y-21676174D02*
X4644944Y-21638079D01*
X4644944Y-21638079D02*
X4654467Y-21619031D01*
X4654467Y-21619031D02*
X4663991Y-21609508D01*
X4663991Y-21609508D02*
X4683039Y-21599984D01*
X4835420Y-21799984D02*
X4835420Y-21666650D01*
X4835420Y-21685698D02*
X4844944Y-21676174D01*
X4844944Y-21676174D02*
X4863991Y-21666650D01*
X4863991Y-21666650D02*
X4892563Y-21666650D01*
X4892563Y-21666650D02*
X4911610Y-21676174D01*
X4911610Y-21676174D02*
X4921134Y-21695222D01*
X4921134Y-21695222D02*
X4921134Y-21799984D01*
X4921134Y-21695222D02*
X4930658Y-21676174D01*
X4930658Y-21676174D02*
X4949705Y-21666650D01*
X4949705Y-21666650D02*
X4978277Y-21666650D01*
X4978277Y-21666650D02*
X4997325Y-21676174D01*
X4997325Y-21676174D02*
X5006848Y-21695222D01*
X5006848Y-21695222D02*
X5006848Y-21799984D01*
X5102086Y-21799984D02*
X5102086Y-21666650D01*
X5102086Y-21685698D02*
X5111610Y-21676174D01*
X5111610Y-21676174D02*
X5130658Y-21666650D01*
X5130658Y-21666650D02*
X5159229Y-21666650D01*
X5159229Y-21666650D02*
X5178277Y-21676174D01*
X5178277Y-21676174D02*
X5187801Y-21695222D01*
X5187801Y-21695222D02*
X5187801Y-21799984D01*
X5187801Y-21695222D02*
X5197325Y-21676174D01*
X5197325Y-21676174D02*
X5216372Y-21666650D01*
X5216372Y-21666650D02*
X5244944Y-21666650D01*
X5244944Y-21666650D02*
X5263991Y-21676174D01*
X5263991Y-21676174D02*
X5273515Y-21695222D01*
X5273515Y-21695222D02*
X5273515Y-21799984D01*
X5663991Y-21590460D02*
X5492563Y-21847603D01*
X5921134Y-21599984D02*
X5940182Y-21599984D01*
X5940182Y-21599984D02*
X5959229Y-21609508D01*
X5959229Y-21609508D02*
X5968753Y-21619031D01*
X5968753Y-21619031D02*
X5978277Y-21638079D01*
X5978277Y-21638079D02*
X5987801Y-21676174D01*
X5987801Y-21676174D02*
X5987801Y-21723793D01*
X5987801Y-21723793D02*
X5978277Y-21761889D01*
X5978277Y-21761889D02*
X5968753Y-21780936D01*
X5968753Y-21780936D02*
X5959229Y-21790460D01*
X5959229Y-21790460D02*
X5940182Y-21799984D01*
X5940182Y-21799984D02*
X5921134Y-21799984D01*
X5921134Y-21799984D02*
X5902086Y-21790460D01*
X5902086Y-21790460D02*
X5892563Y-21780936D01*
X5892563Y-21780936D02*
X5883039Y-21761889D01*
X5883039Y-21761889D02*
X5873515Y-21723793D01*
X5873515Y-21723793D02*
X5873515Y-21676174D01*
X5873515Y-21676174D02*
X5883039Y-21638079D01*
X5883039Y-21638079D02*
X5892563Y-21619031D01*
X5892563Y-21619031D02*
X5902086Y-21609508D01*
X5902086Y-21609508D02*
X5921134Y-21599984D01*
X6073515Y-21780936D02*
X6083039Y-21790460D01*
X6083039Y-21790460D02*
X6073515Y-21799984D01*
X6073515Y-21799984D02*
X6063991Y-21790460D01*
X6063991Y-21790460D02*
X6073515Y-21780936D01*
X6073515Y-21780936D02*
X6073515Y-21799984D01*
X6206848Y-21599984D02*
X6225896Y-21599984D01*
X6225896Y-21599984D02*
X6244944Y-21609508D01*
X6244944Y-21609508D02*
X6254467Y-21619031D01*
X6254467Y-21619031D02*
X6263991Y-21638079D01*
X6263991Y-21638079D02*
X6273515Y-21676174D01*
X6273515Y-21676174D02*
X6273515Y-21723793D01*
X6273515Y-21723793D02*
X6263991Y-21761889D01*
X6263991Y-21761889D02*
X6254467Y-21780936D01*
X6254467Y-21780936D02*
X6244944Y-21790460D01*
X6244944Y-21790460D02*
X6225896Y-21799984D01*
X6225896Y-21799984D02*
X6206848Y-21799984D01*
X6206848Y-21799984D02*
X6187801Y-21790460D01*
X6187801Y-21790460D02*
X6178277Y-21780936D01*
X6178277Y-21780936D02*
X6168753Y-21761889D01*
X6168753Y-21761889D02*
X6159229Y-21723793D01*
X6159229Y-21723793D02*
X6159229Y-21676174D01*
X6159229Y-21676174D02*
X6168753Y-21638079D01*
X6168753Y-21638079D02*
X6178277Y-21619031D01*
X6178277Y-21619031D02*
X6187801Y-21609508D01*
X6187801Y-21609508D02*
X6206848Y-21599984D01*
X6340182Y-21599984D02*
X6463991Y-21599984D01*
X6463991Y-21599984D02*
X6397325Y-21676174D01*
X6397325Y-21676174D02*
X6425896Y-21676174D01*
X6425896Y-21676174D02*
X6444944Y-21685698D01*
X6444944Y-21685698D02*
X6454467Y-21695222D01*
X6454467Y-21695222D02*
X6463991Y-21714270D01*
X6463991Y-21714270D02*
X6463991Y-21761889D01*
X6463991Y-21761889D02*
X6454467Y-21780936D01*
X6454467Y-21780936D02*
X6444944Y-21790460D01*
X6444944Y-21790460D02*
X6425896Y-21799984D01*
X6425896Y-21799984D02*
X6368753Y-21799984D01*
X6368753Y-21799984D02*
X6349706Y-21790460D01*
X6349706Y-21790460D02*
X6340182Y-21780936D01*
X6559229Y-21799984D02*
X6597325Y-21799984D01*
X6597325Y-21799984D02*
X6616372Y-21790460D01*
X6616372Y-21790460D02*
X6625896Y-21780936D01*
X6625896Y-21780936D02*
X6644944Y-21752365D01*
X6644944Y-21752365D02*
X6654467Y-21714270D01*
X6654467Y-21714270D02*
X6654467Y-21638079D01*
X6654467Y-21638079D02*
X6644944Y-21619031D01*
X6644944Y-21619031D02*
X6635420Y-21609508D01*
X6635420Y-21609508D02*
X6616372Y-21599984D01*
X6616372Y-21599984D02*
X6578277Y-21599984D01*
X6578277Y-21599984D02*
X6559229Y-21609508D01*
X6559229Y-21609508D02*
X6549706Y-21619031D01*
X6549706Y-21619031D02*
X6540182Y-21638079D01*
X6540182Y-21638079D02*
X6540182Y-21685698D01*
X6540182Y-21685698D02*
X6549706Y-21704746D01*
X6549706Y-21704746D02*
X6559229Y-21714270D01*
X6559229Y-21714270D02*
X6578277Y-21723793D01*
X6578277Y-21723793D02*
X6616372Y-21723793D01*
X6616372Y-21723793D02*
X6635420Y-21714270D01*
X6635420Y-21714270D02*
X6644944Y-21704746D01*
X6644944Y-21704746D02*
X6654467Y-21685698D01*
X6825896Y-21666650D02*
X6825896Y-21799984D01*
X6778277Y-21590460D02*
X6730658Y-21733317D01*
X6730658Y-21733317D02*
X6854467Y-21733317D01*
X6921134Y-21599984D02*
X6921134Y-21638079D01*
X6997325Y-21599984D02*
X6997325Y-21638079D01*
X7292563Y-21876174D02*
X7283039Y-21866650D01*
X7283039Y-21866650D02*
X7263991Y-21838079D01*
X7263991Y-21838079D02*
X7254468Y-21819031D01*
X7254468Y-21819031D02*
X7244944Y-21790460D01*
X7244944Y-21790460D02*
X7235420Y-21742841D01*
X7235420Y-21742841D02*
X7235420Y-21704746D01*
X7235420Y-21704746D02*
X7244944Y-21657127D01*
X7244944Y-21657127D02*
X7254468Y-21628555D01*
X7254468Y-21628555D02*
X7263991Y-21609508D01*
X7263991Y-21609508D02*
X7283039Y-21580936D01*
X7283039Y-21580936D02*
X7292563Y-21571412D01*
X7359229Y-21619031D02*
X7368753Y-21609508D01*
X7368753Y-21609508D02*
X7387801Y-21599984D01*
X7387801Y-21599984D02*
X7435420Y-21599984D01*
X7435420Y-21599984D02*
X7454468Y-21609508D01*
X7454468Y-21609508D02*
X7463991Y-21619031D01*
X7463991Y-21619031D02*
X7473515Y-21638079D01*
X7473515Y-21638079D02*
X7473515Y-21657127D01*
X7473515Y-21657127D02*
X7463991Y-21685698D01*
X7463991Y-21685698D02*
X7349706Y-21799984D01*
X7349706Y-21799984D02*
X7473515Y-21799984D01*
X7597325Y-21599984D02*
X7616372Y-21599984D01*
X7616372Y-21599984D02*
X7635420Y-21609508D01*
X7635420Y-21609508D02*
X7644944Y-21619031D01*
X7644944Y-21619031D02*
X7654468Y-21638079D01*
X7654468Y-21638079D02*
X7663991Y-21676174D01*
X7663991Y-21676174D02*
X7663991Y-21723793D01*
X7663991Y-21723793D02*
X7654468Y-21761889D01*
X7654468Y-21761889D02*
X7644944Y-21780936D01*
X7644944Y-21780936D02*
X7635420Y-21790460D01*
X7635420Y-21790460D02*
X7616372Y-21799984D01*
X7616372Y-21799984D02*
X7597325Y-21799984D01*
X7597325Y-21799984D02*
X7578277Y-21790460D01*
X7578277Y-21790460D02*
X7568753Y-21780936D01*
X7568753Y-21780936D02*
X7559229Y-21761889D01*
X7559229Y-21761889D02*
X7549706Y-21723793D01*
X7549706Y-21723793D02*
X7549706Y-21676174D01*
X7549706Y-21676174D02*
X7559229Y-21638079D01*
X7559229Y-21638079D02*
X7568753Y-21619031D01*
X7568753Y-21619031D02*
X7578277Y-21609508D01*
X7578277Y-21609508D02*
X7597325Y-21599984D01*
X7902087Y-21799984D02*
X7902087Y-21599984D01*
X7987801Y-21799984D02*
X7987801Y-21695222D01*
X7987801Y-21695222D02*
X7978277Y-21676174D01*
X7978277Y-21676174D02*
X7959230Y-21666650D01*
X7959230Y-21666650D02*
X7930658Y-21666650D01*
X7930658Y-21666650D02*
X7911610Y-21676174D01*
X7911610Y-21676174D02*
X7902087Y-21685698D01*
X8111610Y-21799984D02*
X8092563Y-21790460D01*
X8092563Y-21790460D02*
X8083039Y-21780936D01*
X8083039Y-21780936D02*
X8073515Y-21761889D01*
X8073515Y-21761889D02*
X8073515Y-21704746D01*
X8073515Y-21704746D02*
X8083039Y-21685698D01*
X8083039Y-21685698D02*
X8092563Y-21676174D01*
X8092563Y-21676174D02*
X8111610Y-21666650D01*
X8111610Y-21666650D02*
X8140182Y-21666650D01*
X8140182Y-21666650D02*
X8159230Y-21676174D01*
X8159230Y-21676174D02*
X8168753Y-21685698D01*
X8168753Y-21685698D02*
X8178277Y-21704746D01*
X8178277Y-21704746D02*
X8178277Y-21761889D01*
X8178277Y-21761889D02*
X8168753Y-21780936D01*
X8168753Y-21780936D02*
X8159230Y-21790460D01*
X8159230Y-21790460D02*
X8140182Y-21799984D01*
X8140182Y-21799984D02*
X8111610Y-21799984D01*
X8292563Y-21799984D02*
X8273515Y-21790460D01*
X8273515Y-21790460D02*
X8263991Y-21771412D01*
X8263991Y-21771412D02*
X8263991Y-21599984D01*
X8444944Y-21790460D02*
X8425896Y-21799984D01*
X8425896Y-21799984D02*
X8387801Y-21799984D01*
X8387801Y-21799984D02*
X8368753Y-21790460D01*
X8368753Y-21790460D02*
X8359230Y-21771412D01*
X8359230Y-21771412D02*
X8359230Y-21695222D01*
X8359230Y-21695222D02*
X8368753Y-21676174D01*
X8368753Y-21676174D02*
X8387801Y-21666650D01*
X8387801Y-21666650D02*
X8425896Y-21666650D01*
X8425896Y-21666650D02*
X8444944Y-21676174D01*
X8444944Y-21676174D02*
X8454468Y-21695222D01*
X8454468Y-21695222D02*
X8454468Y-21714270D01*
X8454468Y-21714270D02*
X8359230Y-21733317D01*
X8530658Y-21790460D02*
X8549706Y-21799984D01*
X8549706Y-21799984D02*
X8587801Y-21799984D01*
X8587801Y-21799984D02*
X8606849Y-21790460D01*
X8606849Y-21790460D02*
X8616373Y-21771412D01*
X8616373Y-21771412D02*
X8616373Y-21761889D01*
X8616373Y-21761889D02*
X8606849Y-21742841D01*
X8606849Y-21742841D02*
X8587801Y-21733317D01*
X8587801Y-21733317D02*
X8559230Y-21733317D01*
X8559230Y-21733317D02*
X8540182Y-21723793D01*
X8540182Y-21723793D02*
X8530658Y-21704746D01*
X8530658Y-21704746D02*
X8530658Y-21695222D01*
X8530658Y-21695222D02*
X8540182Y-21676174D01*
X8540182Y-21676174D02*
X8559230Y-21666650D01*
X8559230Y-21666650D02*
X8587801Y-21666650D01*
X8587801Y-21666650D02*
X8606849Y-21676174D01*
X8854468Y-21723793D02*
X9006849Y-21723793D01*
X8930658Y-21799984D02*
X8930658Y-21647603D01*
X9235420Y-21599984D02*
X9359230Y-21599984D01*
X9359230Y-21599984D02*
X9292563Y-21676174D01*
X9292563Y-21676174D02*
X9321135Y-21676174D01*
X9321135Y-21676174D02*
X9340182Y-21685698D01*
X9340182Y-21685698D02*
X9349706Y-21695222D01*
X9349706Y-21695222D02*
X9359230Y-21714270D01*
X9359230Y-21714270D02*
X9359230Y-21761889D01*
X9359230Y-21761889D02*
X9349706Y-21780936D01*
X9349706Y-21780936D02*
X9340182Y-21790460D01*
X9340182Y-21790460D02*
X9321135Y-21799984D01*
X9321135Y-21799984D02*
X9263992Y-21799984D01*
X9263992Y-21799984D02*
X9244944Y-21790460D01*
X9244944Y-21790460D02*
X9235420Y-21780936D01*
X9587801Y-21790460D02*
X9606849Y-21799984D01*
X9606849Y-21799984D02*
X9644944Y-21799984D01*
X9644944Y-21799984D02*
X9663992Y-21790460D01*
X9663992Y-21790460D02*
X9673516Y-21771412D01*
X9673516Y-21771412D02*
X9673516Y-21761889D01*
X9673516Y-21761889D02*
X9663992Y-21742841D01*
X9663992Y-21742841D02*
X9644944Y-21733317D01*
X9644944Y-21733317D02*
X9616373Y-21733317D01*
X9616373Y-21733317D02*
X9597325Y-21723793D01*
X9597325Y-21723793D02*
X9587801Y-21704746D01*
X9587801Y-21704746D02*
X9587801Y-21695222D01*
X9587801Y-21695222D02*
X9597325Y-21676174D01*
X9597325Y-21676174D02*
X9616373Y-21666650D01*
X9616373Y-21666650D02*
X9644944Y-21666650D01*
X9644944Y-21666650D02*
X9663992Y-21676174D01*
X9787801Y-21799984D02*
X9768754Y-21790460D01*
X9768754Y-21790460D02*
X9759230Y-21771412D01*
X9759230Y-21771412D02*
X9759230Y-21599984D01*
X9892563Y-21799984D02*
X9873516Y-21790460D01*
X9873516Y-21790460D02*
X9863992Y-21780936D01*
X9863992Y-21780936D02*
X9854468Y-21761889D01*
X9854468Y-21761889D02*
X9854468Y-21704746D01*
X9854468Y-21704746D02*
X9863992Y-21685698D01*
X9863992Y-21685698D02*
X9873516Y-21676174D01*
X9873516Y-21676174D02*
X9892563Y-21666650D01*
X9892563Y-21666650D02*
X9921135Y-21666650D01*
X9921135Y-21666650D02*
X9940182Y-21676174D01*
X9940182Y-21676174D02*
X9949706Y-21685698D01*
X9949706Y-21685698D02*
X9959230Y-21704746D01*
X9959230Y-21704746D02*
X9959230Y-21761889D01*
X9959230Y-21761889D02*
X9949706Y-21780936D01*
X9949706Y-21780936D02*
X9940182Y-21790460D01*
X9940182Y-21790460D02*
X9921135Y-21799984D01*
X9921135Y-21799984D02*
X9892563Y-21799984D01*
X10016373Y-21666650D02*
X10092563Y-21666650D01*
X10044944Y-21599984D02*
X10044944Y-21771412D01*
X10044944Y-21771412D02*
X10054468Y-21790460D01*
X10054468Y-21790460D02*
X10073516Y-21799984D01*
X10073516Y-21799984D02*
X10092563Y-21799984D01*
X10149706Y-21790460D02*
X10168754Y-21799984D01*
X10168754Y-21799984D02*
X10206849Y-21799984D01*
X10206849Y-21799984D02*
X10225897Y-21790460D01*
X10225897Y-21790460D02*
X10235420Y-21771412D01*
X10235420Y-21771412D02*
X10235420Y-21761889D01*
X10235420Y-21761889D02*
X10225897Y-21742841D01*
X10225897Y-21742841D02*
X10206849Y-21733317D01*
X10206849Y-21733317D02*
X10178277Y-21733317D01*
X10178277Y-21733317D02*
X10159230Y-21723793D01*
X10159230Y-21723793D02*
X10149706Y-21704746D01*
X10149706Y-21704746D02*
X10149706Y-21695222D01*
X10149706Y-21695222D02*
X10159230Y-21676174D01*
X10159230Y-21676174D02*
X10178277Y-21666650D01*
X10178277Y-21666650D02*
X10206849Y-21666650D01*
X10206849Y-21666650D02*
X10225897Y-21676174D01*
X10302087Y-21876174D02*
X10311611Y-21866650D01*
X10311611Y-21866650D02*
X10330658Y-21838079D01*
X10330658Y-21838079D02*
X10340182Y-21819031D01*
X10340182Y-21819031D02*
X10349706Y-21790460D01*
X10349706Y-21790460D02*
X10359230Y-21742841D01*
X10359230Y-21742841D02*
X10359230Y-21704746D01*
X10359230Y-21704746D02*
X10349706Y-21657127D01*
X10349706Y-21657127D02*
X10340182Y-21628555D01*
X10340182Y-21628555D02*
X10330658Y-21609508D01*
X10330658Y-21609508D02*
X10311611Y-21580936D01*
X10311611Y-21580936D02*
X10302087Y-21571412D01*
D13*
X3702563Y-22008563D02*
X3702563Y-21936437D01*
X3630437Y-21936437D01*
X3630437Y-22008563D01*
X3702563Y-22008563D01*
X3717500Y-21972500D02*
G75*
G02*
X3615500Y-21972500I-51000J0D01*
G01*
X3615500Y-21972500D02*
G75*
G02*
X3717500Y-21972500I51000J0D01*
G01*
D11*
X4083039Y-22063984D02*
X3968753Y-22063984D01*
X4025896Y-22063984D02*
X4025896Y-21863984D01*
X4025896Y-21863984D02*
X4006848Y-21892555D01*
X4006848Y-21892555D02*
X3987801Y-21911603D01*
X3987801Y-21911603D02*
X3968753Y-21921127D01*
X4168753Y-22044936D02*
X4178277Y-22054460D01*
X4178277Y-22054460D02*
X4168753Y-22063984D01*
X4168753Y-22063984D02*
X4159229Y-22054460D01*
X4159229Y-22054460D02*
X4168753Y-22044936D01*
X4168753Y-22044936D02*
X4168753Y-22063984D01*
X4302086Y-21863984D02*
X4321134Y-21863984D01*
X4321134Y-21863984D02*
X4340182Y-21873508D01*
X4340182Y-21873508D02*
X4349705Y-21883031D01*
X4349705Y-21883031D02*
X4359229Y-21902079D01*
X4359229Y-21902079D02*
X4368753Y-21940174D01*
X4368753Y-21940174D02*
X4368753Y-21987793D01*
X4368753Y-21987793D02*
X4359229Y-22025889D01*
X4359229Y-22025889D02*
X4349705Y-22044936D01*
X4349705Y-22044936D02*
X4340182Y-22054460D01*
X4340182Y-22054460D02*
X4321134Y-22063984D01*
X4321134Y-22063984D02*
X4302086Y-22063984D01*
X4302086Y-22063984D02*
X4283039Y-22054460D01*
X4283039Y-22054460D02*
X4273515Y-22044936D01*
X4273515Y-22044936D02*
X4263991Y-22025889D01*
X4263991Y-22025889D02*
X4254467Y-21987793D01*
X4254467Y-21987793D02*
X4254467Y-21940174D01*
X4254467Y-21940174D02*
X4263991Y-21902079D01*
X4263991Y-21902079D02*
X4273515Y-21883031D01*
X4273515Y-21883031D02*
X4283039Y-21873508D01*
X4283039Y-21873508D02*
X4302086Y-21863984D01*
X4444944Y-21883031D02*
X4454467Y-21873508D01*
X4454467Y-21873508D02*
X4473515Y-21863984D01*
X4473515Y-21863984D02*
X4521134Y-21863984D01*
X4521134Y-21863984D02*
X4540182Y-21873508D01*
X4540182Y-21873508D02*
X4549705Y-21883031D01*
X4549705Y-21883031D02*
X4559229Y-21902079D01*
X4559229Y-21902079D02*
X4559229Y-21921127D01*
X4559229Y-21921127D02*
X4549705Y-21949698D01*
X4549705Y-21949698D02*
X4435420Y-22063984D01*
X4435420Y-22063984D02*
X4559229Y-22063984D01*
X4683039Y-21863984D02*
X4702086Y-21863984D01*
X4702086Y-21863984D02*
X4721134Y-21873508D01*
X4721134Y-21873508D02*
X4730658Y-21883031D01*
X4730658Y-21883031D02*
X4740182Y-21902079D01*
X4740182Y-21902079D02*
X4749705Y-21940174D01*
X4749705Y-21940174D02*
X4749705Y-21987793D01*
X4749705Y-21987793D02*
X4740182Y-22025889D01*
X4740182Y-22025889D02*
X4730658Y-22044936D01*
X4730658Y-22044936D02*
X4721134Y-22054460D01*
X4721134Y-22054460D02*
X4702086Y-22063984D01*
X4702086Y-22063984D02*
X4683039Y-22063984D01*
X4683039Y-22063984D02*
X4663991Y-22054460D01*
X4663991Y-22054460D02*
X4654467Y-22044936D01*
X4654467Y-22044936D02*
X4644944Y-22025889D01*
X4644944Y-22025889D02*
X4635420Y-21987793D01*
X4635420Y-21987793D02*
X4635420Y-21940174D01*
X4635420Y-21940174D02*
X4644944Y-21902079D01*
X4644944Y-21902079D02*
X4654467Y-21883031D01*
X4654467Y-21883031D02*
X4663991Y-21873508D01*
X4663991Y-21873508D02*
X4683039Y-21863984D01*
X4835420Y-22063984D02*
X4835420Y-21930650D01*
X4835420Y-21949698D02*
X4844944Y-21940174D01*
X4844944Y-21940174D02*
X4863991Y-21930650D01*
X4863991Y-21930650D02*
X4892563Y-21930650D01*
X4892563Y-21930650D02*
X4911610Y-21940174D01*
X4911610Y-21940174D02*
X4921134Y-21959222D01*
X4921134Y-21959222D02*
X4921134Y-22063984D01*
X4921134Y-21959222D02*
X4930658Y-21940174D01*
X4930658Y-21940174D02*
X4949705Y-21930650D01*
X4949705Y-21930650D02*
X4978277Y-21930650D01*
X4978277Y-21930650D02*
X4997325Y-21940174D01*
X4997325Y-21940174D02*
X5006848Y-21959222D01*
X5006848Y-21959222D02*
X5006848Y-22063984D01*
X5102086Y-22063984D02*
X5102086Y-21930650D01*
X5102086Y-21949698D02*
X5111610Y-21940174D01*
X5111610Y-21940174D02*
X5130658Y-21930650D01*
X5130658Y-21930650D02*
X5159229Y-21930650D01*
X5159229Y-21930650D02*
X5178277Y-21940174D01*
X5178277Y-21940174D02*
X5187801Y-21959222D01*
X5187801Y-21959222D02*
X5187801Y-22063984D01*
X5187801Y-21959222D02*
X5197325Y-21940174D01*
X5197325Y-21940174D02*
X5216372Y-21930650D01*
X5216372Y-21930650D02*
X5244944Y-21930650D01*
X5244944Y-21930650D02*
X5263991Y-21940174D01*
X5263991Y-21940174D02*
X5273515Y-21959222D01*
X5273515Y-21959222D02*
X5273515Y-22063984D01*
X5663991Y-21854460D02*
X5492563Y-22111603D01*
X5921134Y-21863984D02*
X5940182Y-21863984D01*
X5940182Y-21863984D02*
X5959229Y-21873508D01*
X5959229Y-21873508D02*
X5968753Y-21883031D01*
X5968753Y-21883031D02*
X5978277Y-21902079D01*
X5978277Y-21902079D02*
X5987801Y-21940174D01*
X5987801Y-21940174D02*
X5987801Y-21987793D01*
X5987801Y-21987793D02*
X5978277Y-22025889D01*
X5978277Y-22025889D02*
X5968753Y-22044936D01*
X5968753Y-22044936D02*
X5959229Y-22054460D01*
X5959229Y-22054460D02*
X5940182Y-22063984D01*
X5940182Y-22063984D02*
X5921134Y-22063984D01*
X5921134Y-22063984D02*
X5902086Y-22054460D01*
X5902086Y-22054460D02*
X5892563Y-22044936D01*
X5892563Y-22044936D02*
X5883039Y-22025889D01*
X5883039Y-22025889D02*
X5873515Y-21987793D01*
X5873515Y-21987793D02*
X5873515Y-21940174D01*
X5873515Y-21940174D02*
X5883039Y-21902079D01*
X5883039Y-21902079D02*
X5892563Y-21883031D01*
X5892563Y-21883031D02*
X5902086Y-21873508D01*
X5902086Y-21873508D02*
X5921134Y-21863984D01*
X6073515Y-22044936D02*
X6083039Y-22054460D01*
X6083039Y-22054460D02*
X6073515Y-22063984D01*
X6073515Y-22063984D02*
X6063991Y-22054460D01*
X6063991Y-22054460D02*
X6073515Y-22044936D01*
X6073515Y-22044936D02*
X6073515Y-22063984D01*
X6206848Y-21863984D02*
X6225896Y-21863984D01*
X6225896Y-21863984D02*
X6244944Y-21873508D01*
X6244944Y-21873508D02*
X6254467Y-21883031D01*
X6254467Y-21883031D02*
X6263991Y-21902079D01*
X6263991Y-21902079D02*
X6273515Y-21940174D01*
X6273515Y-21940174D02*
X6273515Y-21987793D01*
X6273515Y-21987793D02*
X6263991Y-22025889D01*
X6263991Y-22025889D02*
X6254467Y-22044936D01*
X6254467Y-22044936D02*
X6244944Y-22054460D01*
X6244944Y-22054460D02*
X6225896Y-22063984D01*
X6225896Y-22063984D02*
X6206848Y-22063984D01*
X6206848Y-22063984D02*
X6187801Y-22054460D01*
X6187801Y-22054460D02*
X6178277Y-22044936D01*
X6178277Y-22044936D02*
X6168753Y-22025889D01*
X6168753Y-22025889D02*
X6159229Y-21987793D01*
X6159229Y-21987793D02*
X6159229Y-21940174D01*
X6159229Y-21940174D02*
X6168753Y-21902079D01*
X6168753Y-21902079D02*
X6178277Y-21883031D01*
X6178277Y-21883031D02*
X6187801Y-21873508D01*
X6187801Y-21873508D02*
X6206848Y-21863984D01*
X6444944Y-21930650D02*
X6444944Y-22063984D01*
X6397325Y-21854460D02*
X6349706Y-21997317D01*
X6349706Y-21997317D02*
X6473515Y-21997317D01*
X6587801Y-21863984D02*
X6606848Y-21863984D01*
X6606848Y-21863984D02*
X6625896Y-21873508D01*
X6625896Y-21873508D02*
X6635420Y-21883031D01*
X6635420Y-21883031D02*
X6644944Y-21902079D01*
X6644944Y-21902079D02*
X6654467Y-21940174D01*
X6654467Y-21940174D02*
X6654467Y-21987793D01*
X6654467Y-21987793D02*
X6644944Y-22025889D01*
X6644944Y-22025889D02*
X6635420Y-22044936D01*
X6635420Y-22044936D02*
X6625896Y-22054460D01*
X6625896Y-22054460D02*
X6606848Y-22063984D01*
X6606848Y-22063984D02*
X6587801Y-22063984D01*
X6587801Y-22063984D02*
X6568753Y-22054460D01*
X6568753Y-22054460D02*
X6559229Y-22044936D01*
X6559229Y-22044936D02*
X6549706Y-22025889D01*
X6549706Y-22025889D02*
X6540182Y-21987793D01*
X6540182Y-21987793D02*
X6540182Y-21940174D01*
X6540182Y-21940174D02*
X6549706Y-21902079D01*
X6549706Y-21902079D02*
X6559229Y-21883031D01*
X6559229Y-21883031D02*
X6568753Y-21873508D01*
X6568753Y-21873508D02*
X6587801Y-21863984D01*
X6730658Y-21883031D02*
X6740182Y-21873508D01*
X6740182Y-21873508D02*
X6759229Y-21863984D01*
X6759229Y-21863984D02*
X6806848Y-21863984D01*
X6806848Y-21863984D02*
X6825896Y-21873508D01*
X6825896Y-21873508D02*
X6835420Y-21883031D01*
X6835420Y-21883031D02*
X6844944Y-21902079D01*
X6844944Y-21902079D02*
X6844944Y-21921127D01*
X6844944Y-21921127D02*
X6835420Y-21949698D01*
X6835420Y-21949698D02*
X6721134Y-22063984D01*
X6721134Y-22063984D02*
X6844944Y-22063984D01*
X6921134Y-21863984D02*
X6921134Y-21902079D01*
X6997325Y-21863984D02*
X6997325Y-21902079D01*
X7292563Y-22140174D02*
X7283039Y-22130650D01*
X7283039Y-22130650D02*
X7263991Y-22102079D01*
X7263991Y-22102079D02*
X7254468Y-22083031D01*
X7254468Y-22083031D02*
X7244944Y-22054460D01*
X7244944Y-22054460D02*
X7235420Y-22006841D01*
X7235420Y-22006841D02*
X7235420Y-21968746D01*
X7235420Y-21968746D02*
X7244944Y-21921127D01*
X7244944Y-21921127D02*
X7254468Y-21892555D01*
X7254468Y-21892555D02*
X7263991Y-21873508D01*
X7263991Y-21873508D02*
X7283039Y-21844936D01*
X7283039Y-21844936D02*
X7292563Y-21835412D01*
X7406848Y-21863984D02*
X7425896Y-21863984D01*
X7425896Y-21863984D02*
X7444944Y-21873508D01*
X7444944Y-21873508D02*
X7454468Y-21883031D01*
X7454468Y-21883031D02*
X7463991Y-21902079D01*
X7463991Y-21902079D02*
X7473515Y-21940174D01*
X7473515Y-21940174D02*
X7473515Y-21987793D01*
X7473515Y-21987793D02*
X7463991Y-22025889D01*
X7463991Y-22025889D02*
X7454468Y-22044936D01*
X7454468Y-22044936D02*
X7444944Y-22054460D01*
X7444944Y-22054460D02*
X7425896Y-22063984D01*
X7425896Y-22063984D02*
X7406848Y-22063984D01*
X7406848Y-22063984D02*
X7387801Y-22054460D01*
X7387801Y-22054460D02*
X7378277Y-22044936D01*
X7378277Y-22044936D02*
X7368753Y-22025889D01*
X7368753Y-22025889D02*
X7359229Y-21987793D01*
X7359229Y-21987793D02*
X7359229Y-21940174D01*
X7359229Y-21940174D02*
X7368753Y-21902079D01*
X7368753Y-21902079D02*
X7378277Y-21883031D01*
X7378277Y-21883031D02*
X7387801Y-21873508D01*
X7387801Y-21873508D02*
X7406848Y-21863984D01*
X7711610Y-22063984D02*
X7711610Y-21863984D01*
X7797325Y-22063984D02*
X7797325Y-21959222D01*
X7797325Y-21959222D02*
X7787801Y-21940174D01*
X7787801Y-21940174D02*
X7768753Y-21930650D01*
X7768753Y-21930650D02*
X7740182Y-21930650D01*
X7740182Y-21930650D02*
X7721134Y-21940174D01*
X7721134Y-21940174D02*
X7711610Y-21949698D01*
X7921134Y-22063984D02*
X7902087Y-22054460D01*
X7902087Y-22054460D02*
X7892563Y-22044936D01*
X7892563Y-22044936D02*
X7883039Y-22025889D01*
X7883039Y-22025889D02*
X7883039Y-21968746D01*
X7883039Y-21968746D02*
X7892563Y-21949698D01*
X7892563Y-21949698D02*
X7902087Y-21940174D01*
X7902087Y-21940174D02*
X7921134Y-21930650D01*
X7921134Y-21930650D02*
X7949706Y-21930650D01*
X7949706Y-21930650D02*
X7968753Y-21940174D01*
X7968753Y-21940174D02*
X7978277Y-21949698D01*
X7978277Y-21949698D02*
X7987801Y-21968746D01*
X7987801Y-21968746D02*
X7987801Y-22025889D01*
X7987801Y-22025889D02*
X7978277Y-22044936D01*
X7978277Y-22044936D02*
X7968753Y-22054460D01*
X7968753Y-22054460D02*
X7949706Y-22063984D01*
X7949706Y-22063984D02*
X7921134Y-22063984D01*
X8102087Y-22063984D02*
X8083039Y-22054460D01*
X8083039Y-22054460D02*
X8073515Y-22035412D01*
X8073515Y-22035412D02*
X8073515Y-21863984D01*
X8254468Y-22054460D02*
X8235420Y-22063984D01*
X8235420Y-22063984D02*
X8197325Y-22063984D01*
X8197325Y-22063984D02*
X8178277Y-22054460D01*
X8178277Y-22054460D02*
X8168753Y-22035412D01*
X8168753Y-22035412D02*
X8168753Y-21959222D01*
X8168753Y-21959222D02*
X8178277Y-21940174D01*
X8178277Y-21940174D02*
X8197325Y-21930650D01*
X8197325Y-21930650D02*
X8235420Y-21930650D01*
X8235420Y-21930650D02*
X8254468Y-21940174D01*
X8254468Y-21940174D02*
X8263991Y-21959222D01*
X8263991Y-21959222D02*
X8263991Y-21978270D01*
X8263991Y-21978270D02*
X8168753Y-21997317D01*
X8340182Y-22054460D02*
X8359230Y-22063984D01*
X8359230Y-22063984D02*
X8397325Y-22063984D01*
X8397325Y-22063984D02*
X8416373Y-22054460D01*
X8416373Y-22054460D02*
X8425896Y-22035412D01*
X8425896Y-22035412D02*
X8425896Y-22025889D01*
X8425896Y-22025889D02*
X8416373Y-22006841D01*
X8416373Y-22006841D02*
X8397325Y-21997317D01*
X8397325Y-21997317D02*
X8368753Y-21997317D01*
X8368753Y-21997317D02*
X8349706Y-21987793D01*
X8349706Y-21987793D02*
X8340182Y-21968746D01*
X8340182Y-21968746D02*
X8340182Y-21959222D01*
X8340182Y-21959222D02*
X8349706Y-21940174D01*
X8349706Y-21940174D02*
X8368753Y-21930650D01*
X8368753Y-21930650D02*
X8397325Y-21930650D01*
X8397325Y-21930650D02*
X8416373Y-21940174D01*
X8663992Y-21987793D02*
X8816373Y-21987793D01*
X8740182Y-22063984D02*
X8740182Y-21911603D01*
X9149706Y-21930650D02*
X9149706Y-22063984D01*
X9102087Y-21854460D02*
X9054468Y-21997317D01*
X9054468Y-21997317D02*
X9178277Y-21997317D01*
X9397325Y-22054460D02*
X9416373Y-22063984D01*
X9416373Y-22063984D02*
X9454468Y-22063984D01*
X9454468Y-22063984D02*
X9473516Y-22054460D01*
X9473516Y-22054460D02*
X9483039Y-22035412D01*
X9483039Y-22035412D02*
X9483039Y-22025889D01*
X9483039Y-22025889D02*
X9473516Y-22006841D01*
X9473516Y-22006841D02*
X9454468Y-21997317D01*
X9454468Y-21997317D02*
X9425896Y-21997317D01*
X9425896Y-21997317D02*
X9406849Y-21987793D01*
X9406849Y-21987793D02*
X9397325Y-21968746D01*
X9397325Y-21968746D02*
X9397325Y-21959222D01*
X9397325Y-21959222D02*
X9406849Y-21940174D01*
X9406849Y-21940174D02*
X9425896Y-21930650D01*
X9425896Y-21930650D02*
X9454468Y-21930650D01*
X9454468Y-21930650D02*
X9473516Y-21940174D01*
X9597325Y-22063984D02*
X9578277Y-22054460D01*
X9578277Y-22054460D02*
X9568754Y-22035412D01*
X9568754Y-22035412D02*
X9568754Y-21863984D01*
X9702087Y-22063984D02*
X9683039Y-22054460D01*
X9683039Y-22054460D02*
X9673516Y-22044936D01*
X9673516Y-22044936D02*
X9663992Y-22025889D01*
X9663992Y-22025889D02*
X9663992Y-21968746D01*
X9663992Y-21968746D02*
X9673516Y-21949698D01*
X9673516Y-21949698D02*
X9683039Y-21940174D01*
X9683039Y-21940174D02*
X9702087Y-21930650D01*
X9702087Y-21930650D02*
X9730658Y-21930650D01*
X9730658Y-21930650D02*
X9749706Y-21940174D01*
X9749706Y-21940174D02*
X9759230Y-21949698D01*
X9759230Y-21949698D02*
X9768754Y-21968746D01*
X9768754Y-21968746D02*
X9768754Y-22025889D01*
X9768754Y-22025889D02*
X9759230Y-22044936D01*
X9759230Y-22044936D02*
X9749706Y-22054460D01*
X9749706Y-22054460D02*
X9730658Y-22063984D01*
X9730658Y-22063984D02*
X9702087Y-22063984D01*
X9825897Y-21930650D02*
X9902087Y-21930650D01*
X9854468Y-21863984D02*
X9854468Y-22035412D01*
X9854468Y-22035412D02*
X9863992Y-22054460D01*
X9863992Y-22054460D02*
X9883039Y-22063984D01*
X9883039Y-22063984D02*
X9902087Y-22063984D01*
X9959230Y-22054460D02*
X9978277Y-22063984D01*
X9978277Y-22063984D02*
X10016373Y-22063984D01*
X10016373Y-22063984D02*
X10035420Y-22054460D01*
X10035420Y-22054460D02*
X10044944Y-22035412D01*
X10044944Y-22035412D02*
X10044944Y-22025889D01*
X10044944Y-22025889D02*
X10035420Y-22006841D01*
X10035420Y-22006841D02*
X10016373Y-21997317D01*
X10016373Y-21997317D02*
X9987801Y-21997317D01*
X9987801Y-21997317D02*
X9968754Y-21987793D01*
X9968754Y-21987793D02*
X9959230Y-21968746D01*
X9959230Y-21968746D02*
X9959230Y-21959222D01*
X9959230Y-21959222D02*
X9968754Y-21940174D01*
X9968754Y-21940174D02*
X9987801Y-21930650D01*
X9987801Y-21930650D02*
X10016373Y-21930650D01*
X10016373Y-21930650D02*
X10035420Y-21940174D01*
X10111611Y-22140174D02*
X10121135Y-22130650D01*
X10121135Y-22130650D02*
X10140182Y-22102079D01*
X10140182Y-22102079D02*
X10149706Y-22083031D01*
X10149706Y-22083031D02*
X10159230Y-22054460D01*
X10159230Y-22054460D02*
X10168754Y-22006841D01*
X10168754Y-22006841D02*
X10168754Y-21968746D01*
X10168754Y-21968746D02*
X10159230Y-21921127D01*
X10159230Y-21921127D02*
X10149706Y-21892555D01*
X10149706Y-21892555D02*
X10140182Y-21873508D01*
X10140182Y-21873508D02*
X10121135Y-21844936D01*
X10121135Y-21844936D02*
X10111611Y-21835412D01*
M02*
