%TF.GenerationSoftware,KiCad,Pcbnew,8.0.4*%
%TF.CreationDate,2025-02-20T16:09:48-05:00*%
%TF.ProjectId,Radiation2,52616469-6174-4696-9f6e-322e6b696361,rev?*%
%TF.SameCoordinates,Original*%
%TF.FileFunction,Soldermask,Bot*%
%TF.FilePolarity,Negative*%
%FSLAX46Y46*%
G04 Gerber Fmt 4.6, Leading zero omitted, Abs format (unit mm)*
G04 Created by KiCad (PCBNEW 8.0.4) date 2025-02-20 16:09:48*
%MOMM*%
%LPD*%
G01*
G04 APERTURE LIST*
G04 Aperture macros list*
%AMRoundRect*
0 Rectangle with rounded corners*
0 $1 Rounding radius*
0 $2 $3 $4 $5 $6 $7 $8 $9 X,Y pos of 4 corners*
0 Add a 4 corners polygon primitive as box body*
4,1,4,$2,$3,$4,$5,$6,$7,$8,$9,$2,$3,0*
0 Add four circle primitives for the rounded corners*
1,1,$1+$1,$2,$3*
1,1,$1+$1,$4,$5*
1,1,$1+$1,$6,$7*
1,1,$1+$1,$8,$9*
0 Add four rect primitives between the rounded corners*
20,1,$1+$1,$2,$3,$4,$5,0*
20,1,$1+$1,$4,$5,$6,$7,0*
20,1,$1+$1,$6,$7,$8,$9,0*
20,1,$1+$1,$8,$9,$2,$3,0*%
G04 Aperture macros list end*
%ADD10RoundRect,0.635000X-0.635000X-0.635000X0.635000X-0.635000X0.635000X0.635000X-0.635000X0.635000X0*%
%ADD11RoundRect,0.635000X0.635000X0.635000X-0.635000X0.635000X-0.635000X-0.635000X0.635000X-0.635000X0*%
%ADD12C,2.000000*%
%ADD13C,0.990600*%
%ADD14O,1.498600X2.006600*%
%ADD15C,0.650000*%
%ADD16O,1.204000X2.304000*%
%ADD17RoundRect,0.301000X-0.301000X-0.701000X0.301000X-0.701000X0.301000X0.701000X-0.301000X0.701000X0*%
%ADD18R,1.700000X1.700000*%
%ADD19O,1.700000X1.700000*%
%ADD20C,2.204000*%
%ADD21R,1.397000X1.803400*%
%ADD22R,1.905000X1.397000*%
%ADD23R,2.006600X0.812800*%
G04 APERTURE END LIST*
D10*
%TO.C,F1*%
X40700000Y-184477500D03*
X40700000Y-176857500D03*
D11*
X40695000Y-82582500D03*
X40695000Y-74962500D03*
%TD*%
D12*
%TO.C,VBUS1*%
X76100000Y-90100000D03*
%TD*%
%TO.C,OUTL1*%
X136400000Y-179100000D03*
%TD*%
%TO.C,GND1*%
X112700000Y-166900000D03*
%TD*%
%TO.C,5V1*%
X93500000Y-148900000D03*
%TD*%
%TO.C,LRCK1*%
X134700000Y-147800000D03*
%TD*%
%TO.C,DRAIN1*%
X60700000Y-66900000D03*
%TD*%
D13*
%TO.C,J3*%
X127800000Y-182600000D03*
X127800000Y-175100000D03*
D14*
X129300124Y-178500000D03*
X125049942Y-173199998D03*
X130549941Y-173199998D03*
%TD*%
D12*
%TO.C,OUTR1*%
X136400000Y-174300000D03*
%TD*%
%TO.C,HIV-1*%
X66900000Y-81900000D03*
%TD*%
%TO.C,DOUT1*%
X135500000Y-151900000D03*
%TD*%
D15*
%TO.C,J2*%
X80532500Y-180320000D03*
X86312500Y-180320000D03*
D16*
X79102500Y-179820000D03*
X87742500Y-179820000D03*
D17*
X79102500Y-184000000D03*
X87742500Y-184000000D03*
%TD*%
D12*
%TO.C,BCK1*%
X136000000Y-155900000D03*
%TD*%
%TO.C,STG1*%
X70200000Y-83300000D03*
%TD*%
D15*
%TO.C,J1*%
X107710000Y-180320000D03*
X113490000Y-180320000D03*
D16*
X106280000Y-179820000D03*
X114920000Y-179820000D03*
D17*
X106280000Y-184000000D03*
X114920000Y-184000000D03*
%TD*%
D12*
%TO.C,PWM1*%
X109400000Y-84200000D03*
%TD*%
%TO.C,GND2*%
X128400000Y-120200000D03*
%TD*%
D18*
%TO.C,J5*%
X113500000Y-103560000D03*
D19*
X113500000Y-106100000D03*
X113500000Y-108640000D03*
X113500000Y-111180000D03*
X113500000Y-113720000D03*
X113500000Y-116260000D03*
%TD*%
D12*
%TO.C,HIV+1*%
X62600000Y-82900000D03*
%TD*%
D20*
%TO.C,LS1*%
X64800000Y-178200000D03*
X57200000Y-178200000D03*
%TD*%
D21*
%TO.C,J4*%
X122878399Y-104509999D03*
X122878399Y-110210000D03*
D22*
X136028401Y-102909999D03*
X137028401Y-116060001D03*
D23*
X133428401Y-111400000D03*
X133028402Y-110299926D03*
X133428401Y-109200000D03*
X133628401Y-108099999D03*
X133428401Y-106999999D03*
X133628401Y-105899999D03*
X133428401Y-104799998D03*
X133428401Y-103699998D03*
%TD*%
M02*
