%TF.GenerationSoftware,KiCad,Pcbnew,8.0.4*%
%TF.CreationDate,2025-01-31T21:40:56-05:00*%
%TF.ProjectId,Radiation,52616469-6174-4696-9f6e-2e6b69636164,rev?*%
%TF.SameCoordinates,Original*%
%TF.FileFunction,Legend,Top*%
%TF.FilePolarity,Positive*%
%FSLAX46Y46*%
G04 Gerber Fmt 4.6, Leading zero omitted, Abs format (unit mm)*
G04 Created by KiCad (PCBNEW 8.0.4) date 2025-01-31 21:40:56*
%MOMM*%
%LPD*%
G01*
G04 APERTURE LIST*
%ADD10C,0.100000*%
%ADD11C,0.150000*%
%ADD12C,0.200000*%
%ADD13C,0.300000*%
%ADD14C,0.254000*%
%ADD15C,0.152400*%
%ADD16C,0.120000*%
%ADD17C,0.127000*%
G04 APERTURE END LIST*
D10*
X133675312Y-92572419D02*
X133341979Y-92096228D01*
X133103884Y-92572419D02*
X133103884Y-91572419D01*
X133103884Y-91572419D02*
X133484836Y-91572419D01*
X133484836Y-91572419D02*
X133580074Y-91620038D01*
X133580074Y-91620038D02*
X133627693Y-91667657D01*
X133627693Y-91667657D02*
X133675312Y-91762895D01*
X133675312Y-91762895D02*
X133675312Y-91905752D01*
X133675312Y-91905752D02*
X133627693Y-92000990D01*
X133627693Y-92000990D02*
X133580074Y-92048609D01*
X133580074Y-92048609D02*
X133484836Y-92096228D01*
X133484836Y-92096228D02*
X133103884Y-92096228D01*
X134008646Y-91572419D02*
X134675312Y-92572419D01*
X134675312Y-91572419D02*
X134008646Y-92572419D01*
X132961027Y-89172419D02*
X133532455Y-89172419D01*
X133246741Y-90172419D02*
X133246741Y-89172419D01*
X133770551Y-89172419D02*
X134437217Y-90172419D01*
X134437217Y-89172419D02*
X133770551Y-90172419D01*
X132908646Y-86872419D02*
X133527693Y-86872419D01*
X133527693Y-86872419D02*
X133194360Y-87253371D01*
X133194360Y-87253371D02*
X133337217Y-87253371D01*
X133337217Y-87253371D02*
X133432455Y-87300990D01*
X133432455Y-87300990D02*
X133480074Y-87348609D01*
X133480074Y-87348609D02*
X133527693Y-87443847D01*
X133527693Y-87443847D02*
X133527693Y-87681942D01*
X133527693Y-87681942D02*
X133480074Y-87777180D01*
X133480074Y-87777180D02*
X133432455Y-87824800D01*
X133432455Y-87824800D02*
X133337217Y-87872419D01*
X133337217Y-87872419D02*
X133051503Y-87872419D01*
X133051503Y-87872419D02*
X132956265Y-87824800D01*
X132956265Y-87824800D02*
X132908646Y-87777180D01*
X133956265Y-87777180D02*
X134003884Y-87824800D01*
X134003884Y-87824800D02*
X133956265Y-87872419D01*
X133956265Y-87872419D02*
X133908646Y-87824800D01*
X133908646Y-87824800D02*
X133956265Y-87777180D01*
X133956265Y-87777180D02*
X133956265Y-87872419D01*
X134337217Y-86872419D02*
X134956264Y-86872419D01*
X134956264Y-86872419D02*
X134622931Y-87253371D01*
X134622931Y-87253371D02*
X134765788Y-87253371D01*
X134765788Y-87253371D02*
X134861026Y-87300990D01*
X134861026Y-87300990D02*
X134908645Y-87348609D01*
X134908645Y-87348609D02*
X134956264Y-87443847D01*
X134956264Y-87443847D02*
X134956264Y-87681942D01*
X134956264Y-87681942D02*
X134908645Y-87777180D01*
X134908645Y-87777180D02*
X134861026Y-87824800D01*
X134861026Y-87824800D02*
X134765788Y-87872419D01*
X134765788Y-87872419D02*
X134480074Y-87872419D01*
X134480074Y-87872419D02*
X134384836Y-87824800D01*
X134384836Y-87824800D02*
X134337217Y-87777180D01*
X135241979Y-86872419D02*
X135575312Y-87872419D01*
X135575312Y-87872419D02*
X135908645Y-86872419D01*
X133580074Y-84572419D02*
X133103884Y-84572419D01*
X133103884Y-84572419D02*
X133056265Y-85048609D01*
X133056265Y-85048609D02*
X133103884Y-85000990D01*
X133103884Y-85000990D02*
X133199122Y-84953371D01*
X133199122Y-84953371D02*
X133437217Y-84953371D01*
X133437217Y-84953371D02*
X133532455Y-85000990D01*
X133532455Y-85000990D02*
X133580074Y-85048609D01*
X133580074Y-85048609D02*
X133627693Y-85143847D01*
X133627693Y-85143847D02*
X133627693Y-85381942D01*
X133627693Y-85381942D02*
X133580074Y-85477180D01*
X133580074Y-85477180D02*
X133532455Y-85524800D01*
X133532455Y-85524800D02*
X133437217Y-85572419D01*
X133437217Y-85572419D02*
X133199122Y-85572419D01*
X133199122Y-85572419D02*
X133103884Y-85524800D01*
X133103884Y-85524800D02*
X133056265Y-85477180D01*
X133913408Y-84572419D02*
X134246741Y-85572419D01*
X134246741Y-85572419D02*
X134580074Y-84572419D01*
X132861027Y-82272419D02*
X133194360Y-83272419D01*
X133194360Y-83272419D02*
X133527693Y-82272419D01*
X134194360Y-82748609D02*
X134337217Y-82796228D01*
X134337217Y-82796228D02*
X134384836Y-82843847D01*
X134384836Y-82843847D02*
X134432455Y-82939085D01*
X134432455Y-82939085D02*
X134432455Y-83081942D01*
X134432455Y-83081942D02*
X134384836Y-83177180D01*
X134384836Y-83177180D02*
X134337217Y-83224800D01*
X134337217Y-83224800D02*
X134241979Y-83272419D01*
X134241979Y-83272419D02*
X133861027Y-83272419D01*
X133861027Y-83272419D02*
X133861027Y-82272419D01*
X133861027Y-82272419D02*
X134194360Y-82272419D01*
X134194360Y-82272419D02*
X134289598Y-82320038D01*
X134289598Y-82320038D02*
X134337217Y-82367657D01*
X134337217Y-82367657D02*
X134384836Y-82462895D01*
X134384836Y-82462895D02*
X134384836Y-82558133D01*
X134384836Y-82558133D02*
X134337217Y-82653371D01*
X134337217Y-82653371D02*
X134289598Y-82700990D01*
X134289598Y-82700990D02*
X134194360Y-82748609D01*
X134194360Y-82748609D02*
X133861027Y-82748609D01*
X134813408Y-82986704D02*
X135289598Y-82986704D01*
X134718170Y-83272419D02*
X135051503Y-82272419D01*
X135051503Y-82272419D02*
X135384836Y-83272419D01*
X135575313Y-82272419D02*
X136146741Y-82272419D01*
X135861027Y-83272419D02*
X135861027Y-82272419D01*
X132861027Y-80072419D02*
X133194360Y-81072419D01*
X133194360Y-81072419D02*
X133527693Y-80072419D01*
X134194360Y-80548609D02*
X134337217Y-80596228D01*
X134337217Y-80596228D02*
X134384836Y-80643847D01*
X134384836Y-80643847D02*
X134432455Y-80739085D01*
X134432455Y-80739085D02*
X134432455Y-80881942D01*
X134432455Y-80881942D02*
X134384836Y-80977180D01*
X134384836Y-80977180D02*
X134337217Y-81024800D01*
X134337217Y-81024800D02*
X134241979Y-81072419D01*
X134241979Y-81072419D02*
X133861027Y-81072419D01*
X133861027Y-81072419D02*
X133861027Y-80072419D01*
X133861027Y-80072419D02*
X134194360Y-80072419D01*
X134194360Y-80072419D02*
X134289598Y-80120038D01*
X134289598Y-80120038D02*
X134337217Y-80167657D01*
X134337217Y-80167657D02*
X134384836Y-80262895D01*
X134384836Y-80262895D02*
X134384836Y-80358133D01*
X134384836Y-80358133D02*
X134337217Y-80453371D01*
X134337217Y-80453371D02*
X134289598Y-80500990D01*
X134289598Y-80500990D02*
X134194360Y-80548609D01*
X134194360Y-80548609D02*
X133861027Y-80548609D01*
X134861027Y-80072419D02*
X134861027Y-80881942D01*
X134861027Y-80881942D02*
X134908646Y-80977180D01*
X134908646Y-80977180D02*
X134956265Y-81024800D01*
X134956265Y-81024800D02*
X135051503Y-81072419D01*
X135051503Y-81072419D02*
X135241979Y-81072419D01*
X135241979Y-81072419D02*
X135337217Y-81024800D01*
X135337217Y-81024800D02*
X135384836Y-80977180D01*
X135384836Y-80977180D02*
X135432455Y-80881942D01*
X135432455Y-80881942D02*
X135432455Y-80072419D01*
X135861027Y-81024800D02*
X136003884Y-81072419D01*
X136003884Y-81072419D02*
X136241979Y-81072419D01*
X136241979Y-81072419D02*
X136337217Y-81024800D01*
X136337217Y-81024800D02*
X136384836Y-80977180D01*
X136384836Y-80977180D02*
X136432455Y-80881942D01*
X136432455Y-80881942D02*
X136432455Y-80786704D01*
X136432455Y-80786704D02*
X136384836Y-80691466D01*
X136384836Y-80691466D02*
X136337217Y-80643847D01*
X136337217Y-80643847D02*
X136241979Y-80596228D01*
X136241979Y-80596228D02*
X136051503Y-80548609D01*
X136051503Y-80548609D02*
X135956265Y-80500990D01*
X135956265Y-80500990D02*
X135908646Y-80453371D01*
X135908646Y-80453371D02*
X135861027Y-80358133D01*
X135861027Y-80358133D02*
X135861027Y-80262895D01*
X135861027Y-80262895D02*
X135908646Y-80167657D01*
X135908646Y-80167657D02*
X135956265Y-80120038D01*
X135956265Y-80120038D02*
X136051503Y-80072419D01*
X136051503Y-80072419D02*
X136289598Y-80072419D01*
X136289598Y-80072419D02*
X136432455Y-80120038D01*
D11*
X131109524Y-154354819D02*
X131109524Y-153354819D01*
X131109524Y-153354819D02*
X131347619Y-153354819D01*
X131347619Y-153354819D02*
X131490476Y-153402438D01*
X131490476Y-153402438D02*
X131585714Y-153497676D01*
X131585714Y-153497676D02*
X131633333Y-153592914D01*
X131633333Y-153592914D02*
X131680952Y-153783390D01*
X131680952Y-153783390D02*
X131680952Y-153926247D01*
X131680952Y-153926247D02*
X131633333Y-154116723D01*
X131633333Y-154116723D02*
X131585714Y-154211961D01*
X131585714Y-154211961D02*
X131490476Y-154307200D01*
X131490476Y-154307200D02*
X131347619Y-154354819D01*
X131347619Y-154354819D02*
X131109524Y-154354819D01*
X132300000Y-153354819D02*
X132490476Y-153354819D01*
X132490476Y-153354819D02*
X132585714Y-153402438D01*
X132585714Y-153402438D02*
X132680952Y-153497676D01*
X132680952Y-153497676D02*
X132728571Y-153688152D01*
X132728571Y-153688152D02*
X132728571Y-154021485D01*
X132728571Y-154021485D02*
X132680952Y-154211961D01*
X132680952Y-154211961D02*
X132585714Y-154307200D01*
X132585714Y-154307200D02*
X132490476Y-154354819D01*
X132490476Y-154354819D02*
X132300000Y-154354819D01*
X132300000Y-154354819D02*
X132204762Y-154307200D01*
X132204762Y-154307200D02*
X132109524Y-154211961D01*
X132109524Y-154211961D02*
X132061905Y-154021485D01*
X132061905Y-154021485D02*
X132061905Y-153688152D01*
X132061905Y-153688152D02*
X132109524Y-153497676D01*
X132109524Y-153497676D02*
X132204762Y-153402438D01*
X132204762Y-153402438D02*
X132300000Y-153354819D01*
X133157143Y-153354819D02*
X133157143Y-154164342D01*
X133157143Y-154164342D02*
X133204762Y-154259580D01*
X133204762Y-154259580D02*
X133252381Y-154307200D01*
X133252381Y-154307200D02*
X133347619Y-154354819D01*
X133347619Y-154354819D02*
X133538095Y-154354819D01*
X133538095Y-154354819D02*
X133633333Y-154307200D01*
X133633333Y-154307200D02*
X133680952Y-154259580D01*
X133680952Y-154259580D02*
X133728571Y-154164342D01*
X133728571Y-154164342D02*
X133728571Y-153354819D01*
X134061905Y-153354819D02*
X134633333Y-153354819D01*
X134347619Y-154354819D02*
X134347619Y-153354819D01*
D12*
X95800000Y-157000000D02*
X76600000Y-157000000D01*
X76600000Y-140600000D01*
X95800000Y-140600000D01*
X95800000Y-157000000D01*
X96500000Y-135700000D02*
X76300000Y-135700000D01*
X76300000Y-119300000D01*
X96500000Y-119300000D01*
X96500000Y-135700000D01*
X137000000Y-93200000D02*
X117800000Y-93200000D01*
X117837500Y-76100000D01*
X137000000Y-76100000D01*
X137000000Y-93200000D01*
D13*
X121454510Y-78400828D02*
X121454510Y-76900828D01*
X122168796Y-78400828D02*
X122168796Y-76900828D01*
X122168796Y-76900828D02*
X123025939Y-78400828D01*
X123025939Y-78400828D02*
X123025939Y-76900828D01*
X123740225Y-78400828D02*
X123740225Y-76900828D01*
X123740225Y-76900828D02*
X124097368Y-76900828D01*
X124097368Y-76900828D02*
X124311654Y-76972257D01*
X124311654Y-76972257D02*
X124454511Y-77115114D01*
X124454511Y-77115114D02*
X124525940Y-77257971D01*
X124525940Y-77257971D02*
X124597368Y-77543685D01*
X124597368Y-77543685D02*
X124597368Y-77757971D01*
X124597368Y-77757971D02*
X124525940Y-78043685D01*
X124525940Y-78043685D02*
X124454511Y-78186542D01*
X124454511Y-78186542D02*
X124311654Y-78329400D01*
X124311654Y-78329400D02*
X124097368Y-78400828D01*
X124097368Y-78400828D02*
X123740225Y-78400828D01*
X125240225Y-78400828D02*
X125240225Y-76900828D01*
X126811654Y-78257971D02*
X126740226Y-78329400D01*
X126740226Y-78329400D02*
X126525940Y-78400828D01*
X126525940Y-78400828D02*
X126383083Y-78400828D01*
X126383083Y-78400828D02*
X126168797Y-78329400D01*
X126168797Y-78329400D02*
X126025940Y-78186542D01*
X126025940Y-78186542D02*
X125954511Y-78043685D01*
X125954511Y-78043685D02*
X125883083Y-77757971D01*
X125883083Y-77757971D02*
X125883083Y-77543685D01*
X125883083Y-77543685D02*
X125954511Y-77257971D01*
X125954511Y-77257971D02*
X126025940Y-77115114D01*
X126025940Y-77115114D02*
X126168797Y-76972257D01*
X126168797Y-76972257D02*
X126383083Y-76900828D01*
X126383083Y-76900828D02*
X126525940Y-76900828D01*
X126525940Y-76900828D02*
X126740226Y-76972257D01*
X126740226Y-76972257D02*
X126811654Y-77043685D01*
X127383083Y-77972257D02*
X128097369Y-77972257D01*
X127240226Y-78400828D02*
X127740226Y-76900828D01*
X127740226Y-76900828D02*
X128240226Y-78400828D01*
X128525940Y-76900828D02*
X129383083Y-76900828D01*
X128954511Y-78400828D02*
X128954511Y-76900828D01*
X130168797Y-76900828D02*
X130454511Y-76900828D01*
X130454511Y-76900828D02*
X130597368Y-76972257D01*
X130597368Y-76972257D02*
X130740225Y-77115114D01*
X130740225Y-77115114D02*
X130811654Y-77400828D01*
X130811654Y-77400828D02*
X130811654Y-77900828D01*
X130811654Y-77900828D02*
X130740225Y-78186542D01*
X130740225Y-78186542D02*
X130597368Y-78329400D01*
X130597368Y-78329400D02*
X130454511Y-78400828D01*
X130454511Y-78400828D02*
X130168797Y-78400828D01*
X130168797Y-78400828D02*
X130025940Y-78329400D01*
X130025940Y-78329400D02*
X129883082Y-78186542D01*
X129883082Y-78186542D02*
X129811654Y-77900828D01*
X129811654Y-77900828D02*
X129811654Y-77400828D01*
X129811654Y-77400828D02*
X129883082Y-77115114D01*
X129883082Y-77115114D02*
X130025940Y-76972257D01*
X130025940Y-76972257D02*
X130168797Y-76900828D01*
X132311654Y-78400828D02*
X131811654Y-77686542D01*
X131454511Y-78400828D02*
X131454511Y-76900828D01*
X131454511Y-76900828D02*
X132025940Y-76900828D01*
X132025940Y-76900828D02*
X132168797Y-76972257D01*
X132168797Y-76972257D02*
X132240226Y-77043685D01*
X132240226Y-77043685D02*
X132311654Y-77186542D01*
X132311654Y-77186542D02*
X132311654Y-77400828D01*
X132311654Y-77400828D02*
X132240226Y-77543685D01*
X132240226Y-77543685D02*
X132168797Y-77615114D01*
X132168797Y-77615114D02*
X132025940Y-77686542D01*
X132025940Y-77686542D02*
X131454511Y-77686542D01*
X132883083Y-78329400D02*
X133097369Y-78400828D01*
X133097369Y-78400828D02*
X133454511Y-78400828D01*
X133454511Y-78400828D02*
X133597369Y-78329400D01*
X133597369Y-78329400D02*
X133668797Y-78257971D01*
X133668797Y-78257971D02*
X133740226Y-78115114D01*
X133740226Y-78115114D02*
X133740226Y-77972257D01*
X133740226Y-77972257D02*
X133668797Y-77829400D01*
X133668797Y-77829400D02*
X133597369Y-77757971D01*
X133597369Y-77757971D02*
X133454511Y-77686542D01*
X133454511Y-77686542D02*
X133168797Y-77615114D01*
X133168797Y-77615114D02*
X133025940Y-77543685D01*
X133025940Y-77543685D02*
X132954511Y-77472257D01*
X132954511Y-77472257D02*
X132883083Y-77329400D01*
X132883083Y-77329400D02*
X132883083Y-77186542D01*
X132883083Y-77186542D02*
X132954511Y-77043685D01*
X132954511Y-77043685D02*
X133025940Y-76972257D01*
X133025940Y-76972257D02*
X133168797Y-76900828D01*
X133168797Y-76900828D02*
X133525940Y-76900828D01*
X133525940Y-76900828D02*
X133740226Y-76972257D01*
D11*
X117266666Y-184654819D02*
X117266666Y-185369104D01*
X117266666Y-185369104D02*
X117219047Y-185511961D01*
X117219047Y-185511961D02*
X117123809Y-185607200D01*
X117123809Y-185607200D02*
X116980952Y-185654819D01*
X116980952Y-185654819D02*
X116885714Y-185654819D01*
X118266666Y-185654819D02*
X117695238Y-185654819D01*
X117980952Y-185654819D02*
X117980952Y-184654819D01*
X117980952Y-184654819D02*
X117885714Y-184797676D01*
X117885714Y-184797676D02*
X117790476Y-184892914D01*
X117790476Y-184892914D02*
X117695238Y-184940533D01*
X76166666Y-184354819D02*
X76166666Y-185069104D01*
X76166666Y-185069104D02*
X76119047Y-185211961D01*
X76119047Y-185211961D02*
X76023809Y-185307200D01*
X76023809Y-185307200D02*
X75880952Y-185354819D01*
X75880952Y-185354819D02*
X75785714Y-185354819D01*
X76595238Y-184450057D02*
X76642857Y-184402438D01*
X76642857Y-184402438D02*
X76738095Y-184354819D01*
X76738095Y-184354819D02*
X76976190Y-184354819D01*
X76976190Y-184354819D02*
X77071428Y-184402438D01*
X77071428Y-184402438D02*
X77119047Y-184450057D01*
X77119047Y-184450057D02*
X77166666Y-184545295D01*
X77166666Y-184545295D02*
X77166666Y-184640533D01*
X77166666Y-184640533D02*
X77119047Y-184783390D01*
X77119047Y-184783390D02*
X76547619Y-185354819D01*
X76547619Y-185354819D02*
X77166666Y-185354819D01*
X63633333Y-140154819D02*
X63300000Y-139678628D01*
X63061905Y-140154819D02*
X63061905Y-139154819D01*
X63061905Y-139154819D02*
X63442857Y-139154819D01*
X63442857Y-139154819D02*
X63538095Y-139202438D01*
X63538095Y-139202438D02*
X63585714Y-139250057D01*
X63585714Y-139250057D02*
X63633333Y-139345295D01*
X63633333Y-139345295D02*
X63633333Y-139488152D01*
X63633333Y-139488152D02*
X63585714Y-139583390D01*
X63585714Y-139583390D02*
X63538095Y-139631009D01*
X63538095Y-139631009D02*
X63442857Y-139678628D01*
X63442857Y-139678628D02*
X63061905Y-139678628D01*
X64490476Y-139488152D02*
X64490476Y-140154819D01*
X64252381Y-139107200D02*
X64014286Y-139821485D01*
X64014286Y-139821485D02*
X64633333Y-139821485D01*
X117157142Y-143279819D02*
X116823809Y-142803628D01*
X116585714Y-143279819D02*
X116585714Y-142279819D01*
X116585714Y-142279819D02*
X116966666Y-142279819D01*
X116966666Y-142279819D02*
X117061904Y-142327438D01*
X117061904Y-142327438D02*
X117109523Y-142375057D01*
X117109523Y-142375057D02*
X117157142Y-142470295D01*
X117157142Y-142470295D02*
X117157142Y-142613152D01*
X117157142Y-142613152D02*
X117109523Y-142708390D01*
X117109523Y-142708390D02*
X117061904Y-142756009D01*
X117061904Y-142756009D02*
X116966666Y-142803628D01*
X116966666Y-142803628D02*
X116585714Y-142803628D01*
X117538095Y-142375057D02*
X117585714Y-142327438D01*
X117585714Y-142327438D02*
X117680952Y-142279819D01*
X117680952Y-142279819D02*
X117919047Y-142279819D01*
X117919047Y-142279819D02*
X118014285Y-142327438D01*
X118014285Y-142327438D02*
X118061904Y-142375057D01*
X118061904Y-142375057D02*
X118109523Y-142470295D01*
X118109523Y-142470295D02*
X118109523Y-142565533D01*
X118109523Y-142565533D02*
X118061904Y-142708390D01*
X118061904Y-142708390D02*
X117490476Y-143279819D01*
X117490476Y-143279819D02*
X118109523Y-143279819D01*
X118585714Y-143279819D02*
X118776190Y-143279819D01*
X118776190Y-143279819D02*
X118871428Y-143232200D01*
X118871428Y-143232200D02*
X118919047Y-143184580D01*
X118919047Y-143184580D02*
X119014285Y-143041723D01*
X119014285Y-143041723D02*
X119061904Y-142851247D01*
X119061904Y-142851247D02*
X119061904Y-142470295D01*
X119061904Y-142470295D02*
X119014285Y-142375057D01*
X119014285Y-142375057D02*
X118966666Y-142327438D01*
X118966666Y-142327438D02*
X118871428Y-142279819D01*
X118871428Y-142279819D02*
X118680952Y-142279819D01*
X118680952Y-142279819D02*
X118585714Y-142327438D01*
X118585714Y-142327438D02*
X118538095Y-142375057D01*
X118538095Y-142375057D02*
X118490476Y-142470295D01*
X118490476Y-142470295D02*
X118490476Y-142708390D01*
X118490476Y-142708390D02*
X118538095Y-142803628D01*
X118538095Y-142803628D02*
X118585714Y-142851247D01*
X118585714Y-142851247D02*
X118680952Y-142898866D01*
X118680952Y-142898866D02*
X118871428Y-142898866D01*
X118871428Y-142898866D02*
X118966666Y-142851247D01*
X118966666Y-142851247D02*
X119014285Y-142803628D01*
X119014285Y-142803628D02*
X119061904Y-142708390D01*
X95907142Y-87859580D02*
X95859523Y-87907200D01*
X95859523Y-87907200D02*
X95716666Y-87954819D01*
X95716666Y-87954819D02*
X95621428Y-87954819D01*
X95621428Y-87954819D02*
X95478571Y-87907200D01*
X95478571Y-87907200D02*
X95383333Y-87811961D01*
X95383333Y-87811961D02*
X95335714Y-87716723D01*
X95335714Y-87716723D02*
X95288095Y-87526247D01*
X95288095Y-87526247D02*
X95288095Y-87383390D01*
X95288095Y-87383390D02*
X95335714Y-87192914D01*
X95335714Y-87192914D02*
X95383333Y-87097676D01*
X95383333Y-87097676D02*
X95478571Y-87002438D01*
X95478571Y-87002438D02*
X95621428Y-86954819D01*
X95621428Y-86954819D02*
X95716666Y-86954819D01*
X95716666Y-86954819D02*
X95859523Y-87002438D01*
X95859523Y-87002438D02*
X95907142Y-87050057D01*
X96859523Y-87954819D02*
X96288095Y-87954819D01*
X96573809Y-87954819D02*
X96573809Y-86954819D01*
X96573809Y-86954819D02*
X96478571Y-87097676D01*
X96478571Y-87097676D02*
X96383333Y-87192914D01*
X96383333Y-87192914D02*
X96288095Y-87240533D01*
X97478571Y-86954819D02*
X97573809Y-86954819D01*
X97573809Y-86954819D02*
X97669047Y-87002438D01*
X97669047Y-87002438D02*
X97716666Y-87050057D01*
X97716666Y-87050057D02*
X97764285Y-87145295D01*
X97764285Y-87145295D02*
X97811904Y-87335771D01*
X97811904Y-87335771D02*
X97811904Y-87573866D01*
X97811904Y-87573866D02*
X97764285Y-87764342D01*
X97764285Y-87764342D02*
X97716666Y-87859580D01*
X97716666Y-87859580D02*
X97669047Y-87907200D01*
X97669047Y-87907200D02*
X97573809Y-87954819D01*
X97573809Y-87954819D02*
X97478571Y-87954819D01*
X97478571Y-87954819D02*
X97383333Y-87907200D01*
X97383333Y-87907200D02*
X97335714Y-87859580D01*
X97335714Y-87859580D02*
X97288095Y-87764342D01*
X97288095Y-87764342D02*
X97240476Y-87573866D01*
X97240476Y-87573866D02*
X97240476Y-87335771D01*
X97240476Y-87335771D02*
X97288095Y-87145295D01*
X97288095Y-87145295D02*
X97335714Y-87050057D01*
X97335714Y-87050057D02*
X97383333Y-87002438D01*
X97383333Y-87002438D02*
X97478571Y-86954819D01*
X53254819Y-131161904D02*
X53254819Y-130590476D01*
X54254819Y-130876190D02*
X53254819Y-130876190D01*
X54254819Y-129733333D02*
X54254819Y-130304761D01*
X54254819Y-130019047D02*
X53254819Y-130019047D01*
X53254819Y-130019047D02*
X53397676Y-130114285D01*
X53397676Y-130114285D02*
X53492914Y-130209523D01*
X53492914Y-130209523D02*
X53540533Y-130304761D01*
X99357142Y-82254819D02*
X99023809Y-81778628D01*
X98785714Y-82254819D02*
X98785714Y-81254819D01*
X98785714Y-81254819D02*
X99166666Y-81254819D01*
X99166666Y-81254819D02*
X99261904Y-81302438D01*
X99261904Y-81302438D02*
X99309523Y-81350057D01*
X99309523Y-81350057D02*
X99357142Y-81445295D01*
X99357142Y-81445295D02*
X99357142Y-81588152D01*
X99357142Y-81588152D02*
X99309523Y-81683390D01*
X99309523Y-81683390D02*
X99261904Y-81731009D01*
X99261904Y-81731009D02*
X99166666Y-81778628D01*
X99166666Y-81778628D02*
X98785714Y-81778628D01*
X99738095Y-81350057D02*
X99785714Y-81302438D01*
X99785714Y-81302438D02*
X99880952Y-81254819D01*
X99880952Y-81254819D02*
X100119047Y-81254819D01*
X100119047Y-81254819D02*
X100214285Y-81302438D01*
X100214285Y-81302438D02*
X100261904Y-81350057D01*
X100261904Y-81350057D02*
X100309523Y-81445295D01*
X100309523Y-81445295D02*
X100309523Y-81540533D01*
X100309523Y-81540533D02*
X100261904Y-81683390D01*
X100261904Y-81683390D02*
X99690476Y-82254819D01*
X99690476Y-82254819D02*
X100309523Y-82254819D01*
X101214285Y-81254819D02*
X100738095Y-81254819D01*
X100738095Y-81254819D02*
X100690476Y-81731009D01*
X100690476Y-81731009D02*
X100738095Y-81683390D01*
X100738095Y-81683390D02*
X100833333Y-81635771D01*
X100833333Y-81635771D02*
X101071428Y-81635771D01*
X101071428Y-81635771D02*
X101166666Y-81683390D01*
X101166666Y-81683390D02*
X101214285Y-81731009D01*
X101214285Y-81731009D02*
X101261904Y-81826247D01*
X101261904Y-81826247D02*
X101261904Y-82064342D01*
X101261904Y-82064342D02*
X101214285Y-82159580D01*
X101214285Y-82159580D02*
X101166666Y-82207200D01*
X101166666Y-82207200D02*
X101071428Y-82254819D01*
X101071428Y-82254819D02*
X100833333Y-82254819D01*
X100833333Y-82254819D02*
X100738095Y-82207200D01*
X100738095Y-82207200D02*
X100690476Y-82159580D01*
X130469642Y-71254819D02*
X130136309Y-70778628D01*
X129898214Y-71254819D02*
X129898214Y-70254819D01*
X129898214Y-70254819D02*
X130279166Y-70254819D01*
X130279166Y-70254819D02*
X130374404Y-70302438D01*
X130374404Y-70302438D02*
X130422023Y-70350057D01*
X130422023Y-70350057D02*
X130469642Y-70445295D01*
X130469642Y-70445295D02*
X130469642Y-70588152D01*
X130469642Y-70588152D02*
X130422023Y-70683390D01*
X130422023Y-70683390D02*
X130374404Y-70731009D01*
X130374404Y-70731009D02*
X130279166Y-70778628D01*
X130279166Y-70778628D02*
X129898214Y-70778628D01*
X130802976Y-70254819D02*
X131422023Y-70254819D01*
X131422023Y-70254819D02*
X131088690Y-70635771D01*
X131088690Y-70635771D02*
X131231547Y-70635771D01*
X131231547Y-70635771D02*
X131326785Y-70683390D01*
X131326785Y-70683390D02*
X131374404Y-70731009D01*
X131374404Y-70731009D02*
X131422023Y-70826247D01*
X131422023Y-70826247D02*
X131422023Y-71064342D01*
X131422023Y-71064342D02*
X131374404Y-71159580D01*
X131374404Y-71159580D02*
X131326785Y-71207200D01*
X131326785Y-71207200D02*
X131231547Y-71254819D01*
X131231547Y-71254819D02*
X130945833Y-71254819D01*
X130945833Y-71254819D02*
X130850595Y-71207200D01*
X130850595Y-71207200D02*
X130802976Y-71159580D01*
X131802976Y-70350057D02*
X131850595Y-70302438D01*
X131850595Y-70302438D02*
X131945833Y-70254819D01*
X131945833Y-70254819D02*
X132183928Y-70254819D01*
X132183928Y-70254819D02*
X132279166Y-70302438D01*
X132279166Y-70302438D02*
X132326785Y-70350057D01*
X132326785Y-70350057D02*
X132374404Y-70445295D01*
X132374404Y-70445295D02*
X132374404Y-70540533D01*
X132374404Y-70540533D02*
X132326785Y-70683390D01*
X132326785Y-70683390D02*
X131755357Y-71254819D01*
X131755357Y-71254819D02*
X132374404Y-71254819D01*
X119351905Y-177754819D02*
X119351905Y-176754819D01*
X119351905Y-176754819D02*
X119590000Y-176754819D01*
X119590000Y-176754819D02*
X119732857Y-176802438D01*
X119732857Y-176802438D02*
X119828095Y-176897676D01*
X119828095Y-176897676D02*
X119875714Y-176992914D01*
X119875714Y-176992914D02*
X119923333Y-177183390D01*
X119923333Y-177183390D02*
X119923333Y-177326247D01*
X119923333Y-177326247D02*
X119875714Y-177516723D01*
X119875714Y-177516723D02*
X119828095Y-177611961D01*
X119828095Y-177611961D02*
X119732857Y-177707200D01*
X119732857Y-177707200D02*
X119590000Y-177754819D01*
X119590000Y-177754819D02*
X119351905Y-177754819D01*
X120828095Y-176754819D02*
X120351905Y-176754819D01*
X120351905Y-176754819D02*
X120304286Y-177231009D01*
X120304286Y-177231009D02*
X120351905Y-177183390D01*
X120351905Y-177183390D02*
X120447143Y-177135771D01*
X120447143Y-177135771D02*
X120685238Y-177135771D01*
X120685238Y-177135771D02*
X120780476Y-177183390D01*
X120780476Y-177183390D02*
X120828095Y-177231009D01*
X120828095Y-177231009D02*
X120875714Y-177326247D01*
X120875714Y-177326247D02*
X120875714Y-177564342D01*
X120875714Y-177564342D02*
X120828095Y-177659580D01*
X120828095Y-177659580D02*
X120780476Y-177707200D01*
X120780476Y-177707200D02*
X120685238Y-177754819D01*
X120685238Y-177754819D02*
X120447143Y-177754819D01*
X120447143Y-177754819D02*
X120351905Y-177707200D01*
X120351905Y-177707200D02*
X120304286Y-177659580D01*
X84247619Y-133254819D02*
X84866666Y-133254819D01*
X84866666Y-133254819D02*
X84533333Y-133635771D01*
X84533333Y-133635771D02*
X84676190Y-133635771D01*
X84676190Y-133635771D02*
X84771428Y-133683390D01*
X84771428Y-133683390D02*
X84819047Y-133731009D01*
X84819047Y-133731009D02*
X84866666Y-133826247D01*
X84866666Y-133826247D02*
X84866666Y-134064342D01*
X84866666Y-134064342D02*
X84819047Y-134159580D01*
X84819047Y-134159580D02*
X84771428Y-134207200D01*
X84771428Y-134207200D02*
X84676190Y-134254819D01*
X84676190Y-134254819D02*
X84390476Y-134254819D01*
X84390476Y-134254819D02*
X84295238Y-134207200D01*
X84295238Y-134207200D02*
X84247619Y-134159580D01*
X85295238Y-134159580D02*
X85342857Y-134207200D01*
X85342857Y-134207200D02*
X85295238Y-134254819D01*
X85295238Y-134254819D02*
X85247619Y-134207200D01*
X85247619Y-134207200D02*
X85295238Y-134159580D01*
X85295238Y-134159580D02*
X85295238Y-134254819D01*
X85676190Y-133254819D02*
X86295237Y-133254819D01*
X86295237Y-133254819D02*
X85961904Y-133635771D01*
X85961904Y-133635771D02*
X86104761Y-133635771D01*
X86104761Y-133635771D02*
X86199999Y-133683390D01*
X86199999Y-133683390D02*
X86247618Y-133731009D01*
X86247618Y-133731009D02*
X86295237Y-133826247D01*
X86295237Y-133826247D02*
X86295237Y-134064342D01*
X86295237Y-134064342D02*
X86247618Y-134159580D01*
X86247618Y-134159580D02*
X86199999Y-134207200D01*
X86199999Y-134207200D02*
X86104761Y-134254819D01*
X86104761Y-134254819D02*
X85819047Y-134254819D01*
X85819047Y-134254819D02*
X85723809Y-134207200D01*
X85723809Y-134207200D02*
X85676190Y-134159580D01*
X86580952Y-133254819D02*
X86914285Y-134254819D01*
X86914285Y-134254819D02*
X87247618Y-133254819D01*
X88104761Y-134254819D02*
X87533333Y-134254819D01*
X87819047Y-134254819D02*
X87819047Y-133254819D01*
X87819047Y-133254819D02*
X87723809Y-133397676D01*
X87723809Y-133397676D02*
X87628571Y-133492914D01*
X87628571Y-133492914D02*
X87533333Y-133540533D01*
X76828095Y-169912319D02*
X76828095Y-170721842D01*
X76828095Y-170721842D02*
X76875714Y-170817080D01*
X76875714Y-170817080D02*
X76923333Y-170864700D01*
X76923333Y-170864700D02*
X77018571Y-170912319D01*
X77018571Y-170912319D02*
X77209047Y-170912319D01*
X77209047Y-170912319D02*
X77304285Y-170864700D01*
X77304285Y-170864700D02*
X77351904Y-170817080D01*
X77351904Y-170817080D02*
X77399523Y-170721842D01*
X77399523Y-170721842D02*
X77399523Y-169912319D01*
X78351904Y-169912319D02*
X77875714Y-169912319D01*
X77875714Y-169912319D02*
X77828095Y-170388509D01*
X77828095Y-170388509D02*
X77875714Y-170340890D01*
X77875714Y-170340890D02*
X77970952Y-170293271D01*
X77970952Y-170293271D02*
X78209047Y-170293271D01*
X78209047Y-170293271D02*
X78304285Y-170340890D01*
X78304285Y-170340890D02*
X78351904Y-170388509D01*
X78351904Y-170388509D02*
X78399523Y-170483747D01*
X78399523Y-170483747D02*
X78399523Y-170721842D01*
X78399523Y-170721842D02*
X78351904Y-170817080D01*
X78351904Y-170817080D02*
X78304285Y-170864700D01*
X78304285Y-170864700D02*
X78209047Y-170912319D01*
X78209047Y-170912319D02*
X77970952Y-170912319D01*
X77970952Y-170912319D02*
X77875714Y-170864700D01*
X77875714Y-170864700D02*
X77828095Y-170817080D01*
X57004761Y-73150057D02*
X56909523Y-73102438D01*
X56909523Y-73102438D02*
X56814285Y-73007200D01*
X56814285Y-73007200D02*
X56671428Y-72864342D01*
X56671428Y-72864342D02*
X56576190Y-72816723D01*
X56576190Y-72816723D02*
X56480952Y-72816723D01*
X56528571Y-73054819D02*
X56433333Y-73007200D01*
X56433333Y-73007200D02*
X56338095Y-72911961D01*
X56338095Y-72911961D02*
X56290476Y-72721485D01*
X56290476Y-72721485D02*
X56290476Y-72388152D01*
X56290476Y-72388152D02*
X56338095Y-72197676D01*
X56338095Y-72197676D02*
X56433333Y-72102438D01*
X56433333Y-72102438D02*
X56528571Y-72054819D01*
X56528571Y-72054819D02*
X56719047Y-72054819D01*
X56719047Y-72054819D02*
X56814285Y-72102438D01*
X56814285Y-72102438D02*
X56909523Y-72197676D01*
X56909523Y-72197676D02*
X56957142Y-72388152D01*
X56957142Y-72388152D02*
X56957142Y-72721485D01*
X56957142Y-72721485D02*
X56909523Y-72911961D01*
X56909523Y-72911961D02*
X56814285Y-73007200D01*
X56814285Y-73007200D02*
X56719047Y-73054819D01*
X56719047Y-73054819D02*
X56528571Y-73054819D01*
X57909523Y-73054819D02*
X57338095Y-73054819D01*
X57623809Y-73054819D02*
X57623809Y-72054819D01*
X57623809Y-72054819D02*
X57528571Y-72197676D01*
X57528571Y-72197676D02*
X57433333Y-72292914D01*
X57433333Y-72292914D02*
X57338095Y-72340533D01*
X99469642Y-183354819D02*
X99136309Y-182878628D01*
X98898214Y-183354819D02*
X98898214Y-182354819D01*
X98898214Y-182354819D02*
X99279166Y-182354819D01*
X99279166Y-182354819D02*
X99374404Y-182402438D01*
X99374404Y-182402438D02*
X99422023Y-182450057D01*
X99422023Y-182450057D02*
X99469642Y-182545295D01*
X99469642Y-182545295D02*
X99469642Y-182688152D01*
X99469642Y-182688152D02*
X99422023Y-182783390D01*
X99422023Y-182783390D02*
X99374404Y-182831009D01*
X99374404Y-182831009D02*
X99279166Y-182878628D01*
X99279166Y-182878628D02*
X98898214Y-182878628D01*
X100422023Y-183354819D02*
X99850595Y-183354819D01*
X100136309Y-183354819D02*
X100136309Y-182354819D01*
X100136309Y-182354819D02*
X100041071Y-182497676D01*
X100041071Y-182497676D02*
X99945833Y-182592914D01*
X99945833Y-182592914D02*
X99850595Y-182640533D01*
X101279166Y-182688152D02*
X101279166Y-183354819D01*
X101041071Y-182307200D02*
X100802976Y-183021485D01*
X100802976Y-183021485D02*
X101422023Y-183021485D01*
X75150057Y-169795238D02*
X75102438Y-169890476D01*
X75102438Y-169890476D02*
X75007200Y-169985714D01*
X75007200Y-169985714D02*
X74864342Y-170128571D01*
X74864342Y-170128571D02*
X74816723Y-170223809D01*
X74816723Y-170223809D02*
X74816723Y-170319047D01*
X75054819Y-170271428D02*
X75007200Y-170366666D01*
X75007200Y-170366666D02*
X74911961Y-170461904D01*
X74911961Y-170461904D02*
X74721485Y-170509523D01*
X74721485Y-170509523D02*
X74388152Y-170509523D01*
X74388152Y-170509523D02*
X74197676Y-170461904D01*
X74197676Y-170461904D02*
X74102438Y-170366666D01*
X74102438Y-170366666D02*
X74054819Y-170271428D01*
X74054819Y-170271428D02*
X74054819Y-170080952D01*
X74054819Y-170080952D02*
X74102438Y-169985714D01*
X74102438Y-169985714D02*
X74197676Y-169890476D01*
X74197676Y-169890476D02*
X74388152Y-169842857D01*
X74388152Y-169842857D02*
X74721485Y-169842857D01*
X74721485Y-169842857D02*
X74911961Y-169890476D01*
X74911961Y-169890476D02*
X75007200Y-169985714D01*
X75007200Y-169985714D02*
X75054819Y-170080952D01*
X75054819Y-170080952D02*
X75054819Y-170271428D01*
X74150057Y-169461904D02*
X74102438Y-169414285D01*
X74102438Y-169414285D02*
X74054819Y-169319047D01*
X74054819Y-169319047D02*
X74054819Y-169080952D01*
X74054819Y-169080952D02*
X74102438Y-168985714D01*
X74102438Y-168985714D02*
X74150057Y-168938095D01*
X74150057Y-168938095D02*
X74245295Y-168890476D01*
X74245295Y-168890476D02*
X74340533Y-168890476D01*
X74340533Y-168890476D02*
X74483390Y-168938095D01*
X74483390Y-168938095D02*
X75054819Y-169509523D01*
X75054819Y-169509523D02*
X75054819Y-168890476D01*
X59738095Y-69304819D02*
X60309523Y-69304819D01*
X60023809Y-70304819D02*
X60023809Y-69304819D01*
X60642857Y-70304819D02*
X60642857Y-69304819D01*
X60642857Y-69304819D02*
X61023809Y-69304819D01*
X61023809Y-69304819D02*
X61119047Y-69352438D01*
X61119047Y-69352438D02*
X61166666Y-69400057D01*
X61166666Y-69400057D02*
X61214285Y-69495295D01*
X61214285Y-69495295D02*
X61214285Y-69638152D01*
X61214285Y-69638152D02*
X61166666Y-69733390D01*
X61166666Y-69733390D02*
X61119047Y-69781009D01*
X61119047Y-69781009D02*
X61023809Y-69828628D01*
X61023809Y-69828628D02*
X60642857Y-69828628D01*
X62119047Y-69304819D02*
X61642857Y-69304819D01*
X61642857Y-69304819D02*
X61595238Y-69781009D01*
X61595238Y-69781009D02*
X61642857Y-69733390D01*
X61642857Y-69733390D02*
X61738095Y-69685771D01*
X61738095Y-69685771D02*
X61976190Y-69685771D01*
X61976190Y-69685771D02*
X62071428Y-69733390D01*
X62071428Y-69733390D02*
X62119047Y-69781009D01*
X62119047Y-69781009D02*
X62166666Y-69876247D01*
X62166666Y-69876247D02*
X62166666Y-70114342D01*
X62166666Y-70114342D02*
X62119047Y-70209580D01*
X62119047Y-70209580D02*
X62071428Y-70257200D01*
X62071428Y-70257200D02*
X61976190Y-70304819D01*
X61976190Y-70304819D02*
X61738095Y-70304819D01*
X61738095Y-70304819D02*
X61642857Y-70257200D01*
X61642857Y-70257200D02*
X61595238Y-70209580D01*
X119044642Y-92454819D02*
X118711309Y-91978628D01*
X118473214Y-92454819D02*
X118473214Y-91454819D01*
X118473214Y-91454819D02*
X118854166Y-91454819D01*
X118854166Y-91454819D02*
X118949404Y-91502438D01*
X118949404Y-91502438D02*
X118997023Y-91550057D01*
X118997023Y-91550057D02*
X119044642Y-91645295D01*
X119044642Y-91645295D02*
X119044642Y-91788152D01*
X119044642Y-91788152D02*
X118997023Y-91883390D01*
X118997023Y-91883390D02*
X118949404Y-91931009D01*
X118949404Y-91931009D02*
X118854166Y-91978628D01*
X118854166Y-91978628D02*
X118473214Y-91978628D01*
X119997023Y-92454819D02*
X119425595Y-92454819D01*
X119711309Y-92454819D02*
X119711309Y-91454819D01*
X119711309Y-91454819D02*
X119616071Y-91597676D01*
X119616071Y-91597676D02*
X119520833Y-91692914D01*
X119520833Y-91692914D02*
X119425595Y-91740533D01*
X120330357Y-91454819D02*
X120997023Y-91454819D01*
X120997023Y-91454819D02*
X120568452Y-92454819D01*
X55238095Y-69204819D02*
X55809523Y-69204819D01*
X55523809Y-70204819D02*
X55523809Y-69204819D01*
X56142857Y-70204819D02*
X56142857Y-69204819D01*
X56142857Y-69204819D02*
X56523809Y-69204819D01*
X56523809Y-69204819D02*
X56619047Y-69252438D01*
X56619047Y-69252438D02*
X56666666Y-69300057D01*
X56666666Y-69300057D02*
X56714285Y-69395295D01*
X56714285Y-69395295D02*
X56714285Y-69538152D01*
X56714285Y-69538152D02*
X56666666Y-69633390D01*
X56666666Y-69633390D02*
X56619047Y-69681009D01*
X56619047Y-69681009D02*
X56523809Y-69728628D01*
X56523809Y-69728628D02*
X56142857Y-69728628D01*
X57047619Y-69204819D02*
X57666666Y-69204819D01*
X57666666Y-69204819D02*
X57333333Y-69585771D01*
X57333333Y-69585771D02*
X57476190Y-69585771D01*
X57476190Y-69585771D02*
X57571428Y-69633390D01*
X57571428Y-69633390D02*
X57619047Y-69681009D01*
X57619047Y-69681009D02*
X57666666Y-69776247D01*
X57666666Y-69776247D02*
X57666666Y-70014342D01*
X57666666Y-70014342D02*
X57619047Y-70109580D01*
X57619047Y-70109580D02*
X57571428Y-70157200D01*
X57571428Y-70157200D02*
X57476190Y-70204819D01*
X57476190Y-70204819D02*
X57190476Y-70204819D01*
X57190476Y-70204819D02*
X57095238Y-70157200D01*
X57095238Y-70157200D02*
X57047619Y-70109580D01*
X92833333Y-150604819D02*
X92357143Y-150604819D01*
X92357143Y-150604819D02*
X92309524Y-151081009D01*
X92309524Y-151081009D02*
X92357143Y-151033390D01*
X92357143Y-151033390D02*
X92452381Y-150985771D01*
X92452381Y-150985771D02*
X92690476Y-150985771D01*
X92690476Y-150985771D02*
X92785714Y-151033390D01*
X92785714Y-151033390D02*
X92833333Y-151081009D01*
X92833333Y-151081009D02*
X92880952Y-151176247D01*
X92880952Y-151176247D02*
X92880952Y-151414342D01*
X92880952Y-151414342D02*
X92833333Y-151509580D01*
X92833333Y-151509580D02*
X92785714Y-151557200D01*
X92785714Y-151557200D02*
X92690476Y-151604819D01*
X92690476Y-151604819D02*
X92452381Y-151604819D01*
X92452381Y-151604819D02*
X92357143Y-151557200D01*
X92357143Y-151557200D02*
X92309524Y-151509580D01*
X93166667Y-150604819D02*
X93500000Y-151604819D01*
X93500000Y-151604819D02*
X93833333Y-150604819D01*
X94690476Y-151604819D02*
X94119048Y-151604819D01*
X94404762Y-151604819D02*
X94404762Y-150604819D01*
X94404762Y-150604819D02*
X94309524Y-150747676D01*
X94309524Y-150747676D02*
X94214286Y-150842914D01*
X94214286Y-150842914D02*
X94119048Y-150890533D01*
X117257142Y-141079819D02*
X116923809Y-140603628D01*
X116685714Y-141079819D02*
X116685714Y-140079819D01*
X116685714Y-140079819D02*
X117066666Y-140079819D01*
X117066666Y-140079819D02*
X117161904Y-140127438D01*
X117161904Y-140127438D02*
X117209523Y-140175057D01*
X117209523Y-140175057D02*
X117257142Y-140270295D01*
X117257142Y-140270295D02*
X117257142Y-140413152D01*
X117257142Y-140413152D02*
X117209523Y-140508390D01*
X117209523Y-140508390D02*
X117161904Y-140556009D01*
X117161904Y-140556009D02*
X117066666Y-140603628D01*
X117066666Y-140603628D02*
X116685714Y-140603628D01*
X117590476Y-140079819D02*
X118209523Y-140079819D01*
X118209523Y-140079819D02*
X117876190Y-140460771D01*
X117876190Y-140460771D02*
X118019047Y-140460771D01*
X118019047Y-140460771D02*
X118114285Y-140508390D01*
X118114285Y-140508390D02*
X118161904Y-140556009D01*
X118161904Y-140556009D02*
X118209523Y-140651247D01*
X118209523Y-140651247D02*
X118209523Y-140889342D01*
X118209523Y-140889342D02*
X118161904Y-140984580D01*
X118161904Y-140984580D02*
X118114285Y-141032200D01*
X118114285Y-141032200D02*
X118019047Y-141079819D01*
X118019047Y-141079819D02*
X117733333Y-141079819D01*
X117733333Y-141079819D02*
X117638095Y-141032200D01*
X117638095Y-141032200D02*
X117590476Y-140984580D01*
X118828571Y-140079819D02*
X118923809Y-140079819D01*
X118923809Y-140079819D02*
X119019047Y-140127438D01*
X119019047Y-140127438D02*
X119066666Y-140175057D01*
X119066666Y-140175057D02*
X119114285Y-140270295D01*
X119114285Y-140270295D02*
X119161904Y-140460771D01*
X119161904Y-140460771D02*
X119161904Y-140698866D01*
X119161904Y-140698866D02*
X119114285Y-140889342D01*
X119114285Y-140889342D02*
X119066666Y-140984580D01*
X119066666Y-140984580D02*
X119019047Y-141032200D01*
X119019047Y-141032200D02*
X118923809Y-141079819D01*
X118923809Y-141079819D02*
X118828571Y-141079819D01*
X118828571Y-141079819D02*
X118733333Y-141032200D01*
X118733333Y-141032200D02*
X118685714Y-140984580D01*
X118685714Y-140984580D02*
X118638095Y-140889342D01*
X118638095Y-140889342D02*
X118590476Y-140698866D01*
X118590476Y-140698866D02*
X118590476Y-140460771D01*
X118590476Y-140460771D02*
X118638095Y-140270295D01*
X118638095Y-140270295D02*
X118685714Y-140175057D01*
X118685714Y-140175057D02*
X118733333Y-140127438D01*
X118733333Y-140127438D02*
X118828571Y-140079819D01*
X123557142Y-71654819D02*
X123223809Y-71178628D01*
X122985714Y-71654819D02*
X122985714Y-70654819D01*
X122985714Y-70654819D02*
X123366666Y-70654819D01*
X123366666Y-70654819D02*
X123461904Y-70702438D01*
X123461904Y-70702438D02*
X123509523Y-70750057D01*
X123509523Y-70750057D02*
X123557142Y-70845295D01*
X123557142Y-70845295D02*
X123557142Y-70988152D01*
X123557142Y-70988152D02*
X123509523Y-71083390D01*
X123509523Y-71083390D02*
X123461904Y-71131009D01*
X123461904Y-71131009D02*
X123366666Y-71178628D01*
X123366666Y-71178628D02*
X122985714Y-71178628D01*
X123890476Y-70654819D02*
X124509523Y-70654819D01*
X124509523Y-70654819D02*
X124176190Y-71035771D01*
X124176190Y-71035771D02*
X124319047Y-71035771D01*
X124319047Y-71035771D02*
X124414285Y-71083390D01*
X124414285Y-71083390D02*
X124461904Y-71131009D01*
X124461904Y-71131009D02*
X124509523Y-71226247D01*
X124509523Y-71226247D02*
X124509523Y-71464342D01*
X124509523Y-71464342D02*
X124461904Y-71559580D01*
X124461904Y-71559580D02*
X124414285Y-71607200D01*
X124414285Y-71607200D02*
X124319047Y-71654819D01*
X124319047Y-71654819D02*
X124033333Y-71654819D01*
X124033333Y-71654819D02*
X123938095Y-71607200D01*
X123938095Y-71607200D02*
X123890476Y-71559580D01*
X124842857Y-70654819D02*
X125461904Y-70654819D01*
X125461904Y-70654819D02*
X125128571Y-71035771D01*
X125128571Y-71035771D02*
X125271428Y-71035771D01*
X125271428Y-71035771D02*
X125366666Y-71083390D01*
X125366666Y-71083390D02*
X125414285Y-71131009D01*
X125414285Y-71131009D02*
X125461904Y-71226247D01*
X125461904Y-71226247D02*
X125461904Y-71464342D01*
X125461904Y-71464342D02*
X125414285Y-71559580D01*
X125414285Y-71559580D02*
X125366666Y-71607200D01*
X125366666Y-71607200D02*
X125271428Y-71654819D01*
X125271428Y-71654819D02*
X124985714Y-71654819D01*
X124985714Y-71654819D02*
X124890476Y-71607200D01*
X124890476Y-71607200D02*
X124842857Y-71559580D01*
X70379642Y-174354819D02*
X70046309Y-173878628D01*
X69808214Y-174354819D02*
X69808214Y-173354819D01*
X69808214Y-173354819D02*
X70189166Y-173354819D01*
X70189166Y-173354819D02*
X70284404Y-173402438D01*
X70284404Y-173402438D02*
X70332023Y-173450057D01*
X70332023Y-173450057D02*
X70379642Y-173545295D01*
X70379642Y-173545295D02*
X70379642Y-173688152D01*
X70379642Y-173688152D02*
X70332023Y-173783390D01*
X70332023Y-173783390D02*
X70284404Y-173831009D01*
X70284404Y-173831009D02*
X70189166Y-173878628D01*
X70189166Y-173878628D02*
X69808214Y-173878628D01*
X70760595Y-173450057D02*
X70808214Y-173402438D01*
X70808214Y-173402438D02*
X70903452Y-173354819D01*
X70903452Y-173354819D02*
X71141547Y-173354819D01*
X71141547Y-173354819D02*
X71236785Y-173402438D01*
X71236785Y-173402438D02*
X71284404Y-173450057D01*
X71284404Y-173450057D02*
X71332023Y-173545295D01*
X71332023Y-173545295D02*
X71332023Y-173640533D01*
X71332023Y-173640533D02*
X71284404Y-173783390D01*
X71284404Y-173783390D02*
X70712976Y-174354819D01*
X70712976Y-174354819D02*
X71332023Y-174354819D01*
X72284404Y-174354819D02*
X71712976Y-174354819D01*
X71998690Y-174354819D02*
X71998690Y-173354819D01*
X71998690Y-173354819D02*
X71903452Y-173497676D01*
X71903452Y-173497676D02*
X71808214Y-173592914D01*
X71808214Y-173592914D02*
X71712976Y-173640533D01*
X45129166Y-177658509D02*
X44795833Y-177658509D01*
X44795833Y-178182319D02*
X44795833Y-177182319D01*
X44795833Y-177182319D02*
X45272023Y-177182319D01*
X46176785Y-178182319D02*
X45605357Y-178182319D01*
X45891071Y-178182319D02*
X45891071Y-177182319D01*
X45891071Y-177182319D02*
X45795833Y-177325176D01*
X45795833Y-177325176D02*
X45700595Y-177420414D01*
X45700595Y-177420414D02*
X45605357Y-177468033D01*
X102657142Y-80654819D02*
X102323809Y-80178628D01*
X102085714Y-80654819D02*
X102085714Y-79654819D01*
X102085714Y-79654819D02*
X102466666Y-79654819D01*
X102466666Y-79654819D02*
X102561904Y-79702438D01*
X102561904Y-79702438D02*
X102609523Y-79750057D01*
X102609523Y-79750057D02*
X102657142Y-79845295D01*
X102657142Y-79845295D02*
X102657142Y-79988152D01*
X102657142Y-79988152D02*
X102609523Y-80083390D01*
X102609523Y-80083390D02*
X102561904Y-80131009D01*
X102561904Y-80131009D02*
X102466666Y-80178628D01*
X102466666Y-80178628D02*
X102085714Y-80178628D01*
X103038095Y-79750057D02*
X103085714Y-79702438D01*
X103085714Y-79702438D02*
X103180952Y-79654819D01*
X103180952Y-79654819D02*
X103419047Y-79654819D01*
X103419047Y-79654819D02*
X103514285Y-79702438D01*
X103514285Y-79702438D02*
X103561904Y-79750057D01*
X103561904Y-79750057D02*
X103609523Y-79845295D01*
X103609523Y-79845295D02*
X103609523Y-79940533D01*
X103609523Y-79940533D02*
X103561904Y-80083390D01*
X103561904Y-80083390D02*
X102990476Y-80654819D01*
X102990476Y-80654819D02*
X103609523Y-80654819D01*
X104466666Y-79654819D02*
X104276190Y-79654819D01*
X104276190Y-79654819D02*
X104180952Y-79702438D01*
X104180952Y-79702438D02*
X104133333Y-79750057D01*
X104133333Y-79750057D02*
X104038095Y-79892914D01*
X104038095Y-79892914D02*
X103990476Y-80083390D01*
X103990476Y-80083390D02*
X103990476Y-80464342D01*
X103990476Y-80464342D02*
X104038095Y-80559580D01*
X104038095Y-80559580D02*
X104085714Y-80607200D01*
X104085714Y-80607200D02*
X104180952Y-80654819D01*
X104180952Y-80654819D02*
X104371428Y-80654819D01*
X104371428Y-80654819D02*
X104466666Y-80607200D01*
X104466666Y-80607200D02*
X104514285Y-80559580D01*
X104514285Y-80559580D02*
X104561904Y-80464342D01*
X104561904Y-80464342D02*
X104561904Y-80226247D01*
X104561904Y-80226247D02*
X104514285Y-80131009D01*
X104514285Y-80131009D02*
X104466666Y-80083390D01*
X104466666Y-80083390D02*
X104371428Y-80035771D01*
X104371428Y-80035771D02*
X104180952Y-80035771D01*
X104180952Y-80035771D02*
X104085714Y-80083390D01*
X104085714Y-80083390D02*
X104038095Y-80131009D01*
X104038095Y-80131009D02*
X103990476Y-80226247D01*
X70292142Y-176654819D02*
X69958809Y-176178628D01*
X69720714Y-176654819D02*
X69720714Y-175654819D01*
X69720714Y-175654819D02*
X70101666Y-175654819D01*
X70101666Y-175654819D02*
X70196904Y-175702438D01*
X70196904Y-175702438D02*
X70244523Y-175750057D01*
X70244523Y-175750057D02*
X70292142Y-175845295D01*
X70292142Y-175845295D02*
X70292142Y-175988152D01*
X70292142Y-175988152D02*
X70244523Y-176083390D01*
X70244523Y-176083390D02*
X70196904Y-176131009D01*
X70196904Y-176131009D02*
X70101666Y-176178628D01*
X70101666Y-176178628D02*
X69720714Y-176178628D01*
X71244523Y-176654819D02*
X70673095Y-176654819D01*
X70958809Y-176654819D02*
X70958809Y-175654819D01*
X70958809Y-175654819D02*
X70863571Y-175797676D01*
X70863571Y-175797676D02*
X70768333Y-175892914D01*
X70768333Y-175892914D02*
X70673095Y-175940533D01*
X71815952Y-176083390D02*
X71720714Y-176035771D01*
X71720714Y-176035771D02*
X71673095Y-175988152D01*
X71673095Y-175988152D02*
X71625476Y-175892914D01*
X71625476Y-175892914D02*
X71625476Y-175845295D01*
X71625476Y-175845295D02*
X71673095Y-175750057D01*
X71673095Y-175750057D02*
X71720714Y-175702438D01*
X71720714Y-175702438D02*
X71815952Y-175654819D01*
X71815952Y-175654819D02*
X72006428Y-175654819D01*
X72006428Y-175654819D02*
X72101666Y-175702438D01*
X72101666Y-175702438D02*
X72149285Y-175750057D01*
X72149285Y-175750057D02*
X72196904Y-175845295D01*
X72196904Y-175845295D02*
X72196904Y-175892914D01*
X72196904Y-175892914D02*
X72149285Y-175988152D01*
X72149285Y-175988152D02*
X72101666Y-176035771D01*
X72101666Y-176035771D02*
X72006428Y-176083390D01*
X72006428Y-176083390D02*
X71815952Y-176083390D01*
X71815952Y-176083390D02*
X71720714Y-176131009D01*
X71720714Y-176131009D02*
X71673095Y-176178628D01*
X71673095Y-176178628D02*
X71625476Y-176273866D01*
X71625476Y-176273866D02*
X71625476Y-176464342D01*
X71625476Y-176464342D02*
X71673095Y-176559580D01*
X71673095Y-176559580D02*
X71720714Y-176607200D01*
X71720714Y-176607200D02*
X71815952Y-176654819D01*
X71815952Y-176654819D02*
X72006428Y-176654819D01*
X72006428Y-176654819D02*
X72101666Y-176607200D01*
X72101666Y-176607200D02*
X72149285Y-176559580D01*
X72149285Y-176559580D02*
X72196904Y-176464342D01*
X72196904Y-176464342D02*
X72196904Y-176273866D01*
X72196904Y-176273866D02*
X72149285Y-176178628D01*
X72149285Y-176178628D02*
X72101666Y-176131009D01*
X72101666Y-176131009D02*
X72006428Y-176083390D01*
X125419642Y-138984580D02*
X125372023Y-139032200D01*
X125372023Y-139032200D02*
X125229166Y-139079819D01*
X125229166Y-139079819D02*
X125133928Y-139079819D01*
X125133928Y-139079819D02*
X124991071Y-139032200D01*
X124991071Y-139032200D02*
X124895833Y-138936961D01*
X124895833Y-138936961D02*
X124848214Y-138841723D01*
X124848214Y-138841723D02*
X124800595Y-138651247D01*
X124800595Y-138651247D02*
X124800595Y-138508390D01*
X124800595Y-138508390D02*
X124848214Y-138317914D01*
X124848214Y-138317914D02*
X124895833Y-138222676D01*
X124895833Y-138222676D02*
X124991071Y-138127438D01*
X124991071Y-138127438D02*
X125133928Y-138079819D01*
X125133928Y-138079819D02*
X125229166Y-138079819D01*
X125229166Y-138079819D02*
X125372023Y-138127438D01*
X125372023Y-138127438D02*
X125419642Y-138175057D01*
X126372023Y-139079819D02*
X125800595Y-139079819D01*
X126086309Y-139079819D02*
X126086309Y-138079819D01*
X126086309Y-138079819D02*
X125991071Y-138222676D01*
X125991071Y-138222676D02*
X125895833Y-138317914D01*
X125895833Y-138317914D02*
X125800595Y-138365533D01*
X127229166Y-138413152D02*
X127229166Y-139079819D01*
X126991071Y-138032200D02*
X126752976Y-138746485D01*
X126752976Y-138746485D02*
X127372023Y-138746485D01*
X78033333Y-147259580D02*
X77985714Y-147307200D01*
X77985714Y-147307200D02*
X77842857Y-147354819D01*
X77842857Y-147354819D02*
X77747619Y-147354819D01*
X77747619Y-147354819D02*
X77604762Y-147307200D01*
X77604762Y-147307200D02*
X77509524Y-147211961D01*
X77509524Y-147211961D02*
X77461905Y-147116723D01*
X77461905Y-147116723D02*
X77414286Y-146926247D01*
X77414286Y-146926247D02*
X77414286Y-146783390D01*
X77414286Y-146783390D02*
X77461905Y-146592914D01*
X77461905Y-146592914D02*
X77509524Y-146497676D01*
X77509524Y-146497676D02*
X77604762Y-146402438D01*
X77604762Y-146402438D02*
X77747619Y-146354819D01*
X77747619Y-146354819D02*
X77842857Y-146354819D01*
X77842857Y-146354819D02*
X77985714Y-146402438D01*
X77985714Y-146402438D02*
X78033333Y-146450057D01*
X78366667Y-146354819D02*
X79033333Y-146354819D01*
X79033333Y-146354819D02*
X78604762Y-147354819D01*
X67254819Y-92533333D02*
X67969104Y-92533333D01*
X67969104Y-92533333D02*
X68111961Y-92580952D01*
X68111961Y-92580952D02*
X68207200Y-92676190D01*
X68207200Y-92676190D02*
X68254819Y-92819047D01*
X68254819Y-92819047D02*
X68254819Y-92914285D01*
X68254819Y-92057142D02*
X67254819Y-92057142D01*
X67254819Y-92057142D02*
X67254819Y-91676190D01*
X67254819Y-91676190D02*
X67302438Y-91580952D01*
X67302438Y-91580952D02*
X67350057Y-91533333D01*
X67350057Y-91533333D02*
X67445295Y-91485714D01*
X67445295Y-91485714D02*
X67588152Y-91485714D01*
X67588152Y-91485714D02*
X67683390Y-91533333D01*
X67683390Y-91533333D02*
X67731009Y-91580952D01*
X67731009Y-91580952D02*
X67778628Y-91676190D01*
X67778628Y-91676190D02*
X67778628Y-92057142D01*
X67350057Y-91104761D02*
X67302438Y-91057142D01*
X67302438Y-91057142D02*
X67254819Y-90961904D01*
X67254819Y-90961904D02*
X67254819Y-90723809D01*
X67254819Y-90723809D02*
X67302438Y-90628571D01*
X67302438Y-90628571D02*
X67350057Y-90580952D01*
X67350057Y-90580952D02*
X67445295Y-90533333D01*
X67445295Y-90533333D02*
X67540533Y-90533333D01*
X67540533Y-90533333D02*
X67683390Y-90580952D01*
X67683390Y-90580952D02*
X68254819Y-91152380D01*
X68254819Y-91152380D02*
X68254819Y-90533333D01*
X82033333Y-128559580D02*
X81985714Y-128607200D01*
X81985714Y-128607200D02*
X81842857Y-128654819D01*
X81842857Y-128654819D02*
X81747619Y-128654819D01*
X81747619Y-128654819D02*
X81604762Y-128607200D01*
X81604762Y-128607200D02*
X81509524Y-128511961D01*
X81509524Y-128511961D02*
X81461905Y-128416723D01*
X81461905Y-128416723D02*
X81414286Y-128226247D01*
X81414286Y-128226247D02*
X81414286Y-128083390D01*
X81414286Y-128083390D02*
X81461905Y-127892914D01*
X81461905Y-127892914D02*
X81509524Y-127797676D01*
X81509524Y-127797676D02*
X81604762Y-127702438D01*
X81604762Y-127702438D02*
X81747619Y-127654819D01*
X81747619Y-127654819D02*
X81842857Y-127654819D01*
X81842857Y-127654819D02*
X81985714Y-127702438D01*
X81985714Y-127702438D02*
X82033333Y-127750057D01*
X82890476Y-127654819D02*
X82700000Y-127654819D01*
X82700000Y-127654819D02*
X82604762Y-127702438D01*
X82604762Y-127702438D02*
X82557143Y-127750057D01*
X82557143Y-127750057D02*
X82461905Y-127892914D01*
X82461905Y-127892914D02*
X82414286Y-128083390D01*
X82414286Y-128083390D02*
X82414286Y-128464342D01*
X82414286Y-128464342D02*
X82461905Y-128559580D01*
X82461905Y-128559580D02*
X82509524Y-128607200D01*
X82509524Y-128607200D02*
X82604762Y-128654819D01*
X82604762Y-128654819D02*
X82795238Y-128654819D01*
X82795238Y-128654819D02*
X82890476Y-128607200D01*
X82890476Y-128607200D02*
X82938095Y-128559580D01*
X82938095Y-128559580D02*
X82985714Y-128464342D01*
X82985714Y-128464342D02*
X82985714Y-128226247D01*
X82985714Y-128226247D02*
X82938095Y-128131009D01*
X82938095Y-128131009D02*
X82890476Y-128083390D01*
X82890476Y-128083390D02*
X82795238Y-128035771D01*
X82795238Y-128035771D02*
X82604762Y-128035771D01*
X82604762Y-128035771D02*
X82509524Y-128083390D01*
X82509524Y-128083390D02*
X82461905Y-128131009D01*
X82461905Y-128131009D02*
X82414286Y-128226247D01*
X115457142Y-71154819D02*
X115123809Y-70678628D01*
X114885714Y-71154819D02*
X114885714Y-70154819D01*
X114885714Y-70154819D02*
X115266666Y-70154819D01*
X115266666Y-70154819D02*
X115361904Y-70202438D01*
X115361904Y-70202438D02*
X115409523Y-70250057D01*
X115409523Y-70250057D02*
X115457142Y-70345295D01*
X115457142Y-70345295D02*
X115457142Y-70488152D01*
X115457142Y-70488152D02*
X115409523Y-70583390D01*
X115409523Y-70583390D02*
X115361904Y-70631009D01*
X115361904Y-70631009D02*
X115266666Y-70678628D01*
X115266666Y-70678628D02*
X114885714Y-70678628D01*
X115790476Y-70154819D02*
X116409523Y-70154819D01*
X116409523Y-70154819D02*
X116076190Y-70535771D01*
X116076190Y-70535771D02*
X116219047Y-70535771D01*
X116219047Y-70535771D02*
X116314285Y-70583390D01*
X116314285Y-70583390D02*
X116361904Y-70631009D01*
X116361904Y-70631009D02*
X116409523Y-70726247D01*
X116409523Y-70726247D02*
X116409523Y-70964342D01*
X116409523Y-70964342D02*
X116361904Y-71059580D01*
X116361904Y-71059580D02*
X116314285Y-71107200D01*
X116314285Y-71107200D02*
X116219047Y-71154819D01*
X116219047Y-71154819D02*
X115933333Y-71154819D01*
X115933333Y-71154819D02*
X115838095Y-71107200D01*
X115838095Y-71107200D02*
X115790476Y-71059580D01*
X117266666Y-70488152D02*
X117266666Y-71154819D01*
X117028571Y-70107200D02*
X116790476Y-70821485D01*
X116790476Y-70821485D02*
X117409523Y-70821485D01*
X82033333Y-122579580D02*
X81985714Y-122627200D01*
X81985714Y-122627200D02*
X81842857Y-122674819D01*
X81842857Y-122674819D02*
X81747619Y-122674819D01*
X81747619Y-122674819D02*
X81604762Y-122627200D01*
X81604762Y-122627200D02*
X81509524Y-122531961D01*
X81509524Y-122531961D02*
X81461905Y-122436723D01*
X81461905Y-122436723D02*
X81414286Y-122246247D01*
X81414286Y-122246247D02*
X81414286Y-122103390D01*
X81414286Y-122103390D02*
X81461905Y-121912914D01*
X81461905Y-121912914D02*
X81509524Y-121817676D01*
X81509524Y-121817676D02*
X81604762Y-121722438D01*
X81604762Y-121722438D02*
X81747619Y-121674819D01*
X81747619Y-121674819D02*
X81842857Y-121674819D01*
X81842857Y-121674819D02*
X81985714Y-121722438D01*
X81985714Y-121722438D02*
X82033333Y-121770057D01*
X82938095Y-121674819D02*
X82461905Y-121674819D01*
X82461905Y-121674819D02*
X82414286Y-122151009D01*
X82414286Y-122151009D02*
X82461905Y-122103390D01*
X82461905Y-122103390D02*
X82557143Y-122055771D01*
X82557143Y-122055771D02*
X82795238Y-122055771D01*
X82795238Y-122055771D02*
X82890476Y-122103390D01*
X82890476Y-122103390D02*
X82938095Y-122151009D01*
X82938095Y-122151009D02*
X82985714Y-122246247D01*
X82985714Y-122246247D02*
X82985714Y-122484342D01*
X82985714Y-122484342D02*
X82938095Y-122579580D01*
X82938095Y-122579580D02*
X82890476Y-122627200D01*
X82890476Y-122627200D02*
X82795238Y-122674819D01*
X82795238Y-122674819D02*
X82557143Y-122674819D01*
X82557143Y-122674819D02*
X82461905Y-122627200D01*
X82461905Y-122627200D02*
X82414286Y-122579580D01*
X56433333Y-79509580D02*
X56385714Y-79557200D01*
X56385714Y-79557200D02*
X56242857Y-79604819D01*
X56242857Y-79604819D02*
X56147619Y-79604819D01*
X56147619Y-79604819D02*
X56004762Y-79557200D01*
X56004762Y-79557200D02*
X55909524Y-79461961D01*
X55909524Y-79461961D02*
X55861905Y-79366723D01*
X55861905Y-79366723D02*
X55814286Y-79176247D01*
X55814286Y-79176247D02*
X55814286Y-79033390D01*
X55814286Y-79033390D02*
X55861905Y-78842914D01*
X55861905Y-78842914D02*
X55909524Y-78747676D01*
X55909524Y-78747676D02*
X56004762Y-78652438D01*
X56004762Y-78652438D02*
X56147619Y-78604819D01*
X56147619Y-78604819D02*
X56242857Y-78604819D01*
X56242857Y-78604819D02*
X56385714Y-78652438D01*
X56385714Y-78652438D02*
X56433333Y-78700057D01*
X57385714Y-79604819D02*
X56814286Y-79604819D01*
X57100000Y-79604819D02*
X57100000Y-78604819D01*
X57100000Y-78604819D02*
X57004762Y-78747676D01*
X57004762Y-78747676D02*
X56909524Y-78842914D01*
X56909524Y-78842914D02*
X56814286Y-78890533D01*
X60852381Y-80354819D02*
X60852381Y-79354819D01*
X60852381Y-79831009D02*
X61423809Y-79831009D01*
X61423809Y-80354819D02*
X61423809Y-79354819D01*
X61900000Y-80354819D02*
X61900000Y-79354819D01*
X62376190Y-79973866D02*
X63138095Y-79973866D01*
X63471428Y-79354819D02*
X63804761Y-80354819D01*
X63804761Y-80354819D02*
X64138094Y-79354819D01*
X64995237Y-80354819D02*
X64423809Y-80354819D01*
X64709523Y-80354819D02*
X64709523Y-79354819D01*
X64709523Y-79354819D02*
X64614285Y-79497676D01*
X64614285Y-79497676D02*
X64519047Y-79592914D01*
X64519047Y-79592914D02*
X64423809Y-79640533D01*
X120320833Y-87754819D02*
X119987500Y-87278628D01*
X119749405Y-87754819D02*
X119749405Y-86754819D01*
X119749405Y-86754819D02*
X120130357Y-86754819D01*
X120130357Y-86754819D02*
X120225595Y-86802438D01*
X120225595Y-86802438D02*
X120273214Y-86850057D01*
X120273214Y-86850057D02*
X120320833Y-86945295D01*
X120320833Y-86945295D02*
X120320833Y-87088152D01*
X120320833Y-87088152D02*
X120273214Y-87183390D01*
X120273214Y-87183390D02*
X120225595Y-87231009D01*
X120225595Y-87231009D02*
X120130357Y-87278628D01*
X120130357Y-87278628D02*
X119749405Y-87278628D01*
X121177976Y-86754819D02*
X120987500Y-86754819D01*
X120987500Y-86754819D02*
X120892262Y-86802438D01*
X120892262Y-86802438D02*
X120844643Y-86850057D01*
X120844643Y-86850057D02*
X120749405Y-86992914D01*
X120749405Y-86992914D02*
X120701786Y-87183390D01*
X120701786Y-87183390D02*
X120701786Y-87564342D01*
X120701786Y-87564342D02*
X120749405Y-87659580D01*
X120749405Y-87659580D02*
X120797024Y-87707200D01*
X120797024Y-87707200D02*
X120892262Y-87754819D01*
X120892262Y-87754819D02*
X121082738Y-87754819D01*
X121082738Y-87754819D02*
X121177976Y-87707200D01*
X121177976Y-87707200D02*
X121225595Y-87659580D01*
X121225595Y-87659580D02*
X121273214Y-87564342D01*
X121273214Y-87564342D02*
X121273214Y-87326247D01*
X121273214Y-87326247D02*
X121225595Y-87231009D01*
X121225595Y-87231009D02*
X121177976Y-87183390D01*
X121177976Y-87183390D02*
X121082738Y-87135771D01*
X121082738Y-87135771D02*
X120892262Y-87135771D01*
X120892262Y-87135771D02*
X120797024Y-87183390D01*
X120797024Y-87183390D02*
X120749405Y-87231009D01*
X120749405Y-87231009D02*
X120701786Y-87326247D01*
X126938095Y-63507200D02*
X127080952Y-63554819D01*
X127080952Y-63554819D02*
X127319047Y-63554819D01*
X127319047Y-63554819D02*
X127414285Y-63507200D01*
X127414285Y-63507200D02*
X127461904Y-63459580D01*
X127461904Y-63459580D02*
X127509523Y-63364342D01*
X127509523Y-63364342D02*
X127509523Y-63269104D01*
X127509523Y-63269104D02*
X127461904Y-63173866D01*
X127461904Y-63173866D02*
X127414285Y-63126247D01*
X127414285Y-63126247D02*
X127319047Y-63078628D01*
X127319047Y-63078628D02*
X127128571Y-63031009D01*
X127128571Y-63031009D02*
X127033333Y-62983390D01*
X127033333Y-62983390D02*
X126985714Y-62935771D01*
X126985714Y-62935771D02*
X126938095Y-62840533D01*
X126938095Y-62840533D02*
X126938095Y-62745295D01*
X126938095Y-62745295D02*
X126985714Y-62650057D01*
X126985714Y-62650057D02*
X127033333Y-62602438D01*
X127033333Y-62602438D02*
X127128571Y-62554819D01*
X127128571Y-62554819D02*
X127366666Y-62554819D01*
X127366666Y-62554819D02*
X127509523Y-62602438D01*
X127890476Y-62650057D02*
X127938095Y-62602438D01*
X127938095Y-62602438D02*
X128033333Y-62554819D01*
X128033333Y-62554819D02*
X128271428Y-62554819D01*
X128271428Y-62554819D02*
X128366666Y-62602438D01*
X128366666Y-62602438D02*
X128414285Y-62650057D01*
X128414285Y-62650057D02*
X128461904Y-62745295D01*
X128461904Y-62745295D02*
X128461904Y-62840533D01*
X128461904Y-62840533D02*
X128414285Y-62983390D01*
X128414285Y-62983390D02*
X127842857Y-63554819D01*
X127842857Y-63554819D02*
X128461904Y-63554819D01*
X123757142Y-73559580D02*
X123709523Y-73607200D01*
X123709523Y-73607200D02*
X123566666Y-73654819D01*
X123566666Y-73654819D02*
X123471428Y-73654819D01*
X123471428Y-73654819D02*
X123328571Y-73607200D01*
X123328571Y-73607200D02*
X123233333Y-73511961D01*
X123233333Y-73511961D02*
X123185714Y-73416723D01*
X123185714Y-73416723D02*
X123138095Y-73226247D01*
X123138095Y-73226247D02*
X123138095Y-73083390D01*
X123138095Y-73083390D02*
X123185714Y-72892914D01*
X123185714Y-72892914D02*
X123233333Y-72797676D01*
X123233333Y-72797676D02*
X123328571Y-72702438D01*
X123328571Y-72702438D02*
X123471428Y-72654819D01*
X123471428Y-72654819D02*
X123566666Y-72654819D01*
X123566666Y-72654819D02*
X123709523Y-72702438D01*
X123709523Y-72702438D02*
X123757142Y-72750057D01*
X124138095Y-72750057D02*
X124185714Y-72702438D01*
X124185714Y-72702438D02*
X124280952Y-72654819D01*
X124280952Y-72654819D02*
X124519047Y-72654819D01*
X124519047Y-72654819D02*
X124614285Y-72702438D01*
X124614285Y-72702438D02*
X124661904Y-72750057D01*
X124661904Y-72750057D02*
X124709523Y-72845295D01*
X124709523Y-72845295D02*
X124709523Y-72940533D01*
X124709523Y-72940533D02*
X124661904Y-73083390D01*
X124661904Y-73083390D02*
X124090476Y-73654819D01*
X124090476Y-73654819D02*
X124709523Y-73654819D01*
X125090476Y-72750057D02*
X125138095Y-72702438D01*
X125138095Y-72702438D02*
X125233333Y-72654819D01*
X125233333Y-72654819D02*
X125471428Y-72654819D01*
X125471428Y-72654819D02*
X125566666Y-72702438D01*
X125566666Y-72702438D02*
X125614285Y-72750057D01*
X125614285Y-72750057D02*
X125661904Y-72845295D01*
X125661904Y-72845295D02*
X125661904Y-72940533D01*
X125661904Y-72940533D02*
X125614285Y-73083390D01*
X125614285Y-73083390D02*
X125042857Y-73654819D01*
X125042857Y-73654819D02*
X125661904Y-73654819D01*
X86688095Y-121054819D02*
X86688095Y-121864342D01*
X86688095Y-121864342D02*
X86735714Y-121959580D01*
X86735714Y-121959580D02*
X86783333Y-122007200D01*
X86783333Y-122007200D02*
X86878571Y-122054819D01*
X86878571Y-122054819D02*
X87069047Y-122054819D01*
X87069047Y-122054819D02*
X87164285Y-122007200D01*
X87164285Y-122007200D02*
X87211904Y-121959580D01*
X87211904Y-121959580D02*
X87259523Y-121864342D01*
X87259523Y-121864342D02*
X87259523Y-121054819D01*
X87688095Y-121150057D02*
X87735714Y-121102438D01*
X87735714Y-121102438D02*
X87830952Y-121054819D01*
X87830952Y-121054819D02*
X88069047Y-121054819D01*
X88069047Y-121054819D02*
X88164285Y-121102438D01*
X88164285Y-121102438D02*
X88211904Y-121150057D01*
X88211904Y-121150057D02*
X88259523Y-121245295D01*
X88259523Y-121245295D02*
X88259523Y-121340533D01*
X88259523Y-121340533D02*
X88211904Y-121483390D01*
X88211904Y-121483390D02*
X87640476Y-122054819D01*
X87640476Y-122054819D02*
X88259523Y-122054819D01*
X94393214Y-180254819D02*
X94393214Y-179254819D01*
X94393214Y-179254819D02*
X94631309Y-179254819D01*
X94631309Y-179254819D02*
X94774166Y-179302438D01*
X94774166Y-179302438D02*
X94869404Y-179397676D01*
X94869404Y-179397676D02*
X94917023Y-179492914D01*
X94917023Y-179492914D02*
X94964642Y-179683390D01*
X94964642Y-179683390D02*
X94964642Y-179826247D01*
X94964642Y-179826247D02*
X94917023Y-180016723D01*
X94917023Y-180016723D02*
X94869404Y-180111961D01*
X94869404Y-180111961D02*
X94774166Y-180207200D01*
X94774166Y-180207200D02*
X94631309Y-180254819D01*
X94631309Y-180254819D02*
X94393214Y-180254819D01*
X95917023Y-180254819D02*
X95345595Y-180254819D01*
X95631309Y-180254819D02*
X95631309Y-179254819D01*
X95631309Y-179254819D02*
X95536071Y-179397676D01*
X95536071Y-179397676D02*
X95440833Y-179492914D01*
X95440833Y-179492914D02*
X95345595Y-179540533D01*
X96297976Y-179350057D02*
X96345595Y-179302438D01*
X96345595Y-179302438D02*
X96440833Y-179254819D01*
X96440833Y-179254819D02*
X96678928Y-179254819D01*
X96678928Y-179254819D02*
X96774166Y-179302438D01*
X96774166Y-179302438D02*
X96821785Y-179350057D01*
X96821785Y-179350057D02*
X96869404Y-179445295D01*
X96869404Y-179445295D02*
X96869404Y-179540533D01*
X96869404Y-179540533D02*
X96821785Y-179683390D01*
X96821785Y-179683390D02*
X96250357Y-180254819D01*
X96250357Y-180254819D02*
X96869404Y-180254819D01*
X56394642Y-165192319D02*
X56061309Y-164716128D01*
X55823214Y-165192319D02*
X55823214Y-164192319D01*
X55823214Y-164192319D02*
X56204166Y-164192319D01*
X56204166Y-164192319D02*
X56299404Y-164239938D01*
X56299404Y-164239938D02*
X56347023Y-164287557D01*
X56347023Y-164287557D02*
X56394642Y-164382795D01*
X56394642Y-164382795D02*
X56394642Y-164525652D01*
X56394642Y-164525652D02*
X56347023Y-164620890D01*
X56347023Y-164620890D02*
X56299404Y-164668509D01*
X56299404Y-164668509D02*
X56204166Y-164716128D01*
X56204166Y-164716128D02*
X55823214Y-164716128D01*
X56775595Y-164287557D02*
X56823214Y-164239938D01*
X56823214Y-164239938D02*
X56918452Y-164192319D01*
X56918452Y-164192319D02*
X57156547Y-164192319D01*
X57156547Y-164192319D02*
X57251785Y-164239938D01*
X57251785Y-164239938D02*
X57299404Y-164287557D01*
X57299404Y-164287557D02*
X57347023Y-164382795D01*
X57347023Y-164382795D02*
X57347023Y-164478033D01*
X57347023Y-164478033D02*
X57299404Y-164620890D01*
X57299404Y-164620890D02*
X56727976Y-165192319D01*
X56727976Y-165192319D02*
X57347023Y-165192319D01*
X57918452Y-164620890D02*
X57823214Y-164573271D01*
X57823214Y-164573271D02*
X57775595Y-164525652D01*
X57775595Y-164525652D02*
X57727976Y-164430414D01*
X57727976Y-164430414D02*
X57727976Y-164382795D01*
X57727976Y-164382795D02*
X57775595Y-164287557D01*
X57775595Y-164287557D02*
X57823214Y-164239938D01*
X57823214Y-164239938D02*
X57918452Y-164192319D01*
X57918452Y-164192319D02*
X58108928Y-164192319D01*
X58108928Y-164192319D02*
X58204166Y-164239938D01*
X58204166Y-164239938D02*
X58251785Y-164287557D01*
X58251785Y-164287557D02*
X58299404Y-164382795D01*
X58299404Y-164382795D02*
X58299404Y-164430414D01*
X58299404Y-164430414D02*
X58251785Y-164525652D01*
X58251785Y-164525652D02*
X58204166Y-164573271D01*
X58204166Y-164573271D02*
X58108928Y-164620890D01*
X58108928Y-164620890D02*
X57918452Y-164620890D01*
X57918452Y-164620890D02*
X57823214Y-164668509D01*
X57823214Y-164668509D02*
X57775595Y-164716128D01*
X57775595Y-164716128D02*
X57727976Y-164811366D01*
X57727976Y-164811366D02*
X57727976Y-165001842D01*
X57727976Y-165001842D02*
X57775595Y-165097080D01*
X57775595Y-165097080D02*
X57823214Y-165144700D01*
X57823214Y-165144700D02*
X57918452Y-165192319D01*
X57918452Y-165192319D02*
X58108928Y-165192319D01*
X58108928Y-165192319D02*
X58204166Y-165144700D01*
X58204166Y-165144700D02*
X58251785Y-165097080D01*
X58251785Y-165097080D02*
X58299404Y-165001842D01*
X58299404Y-165001842D02*
X58299404Y-164811366D01*
X58299404Y-164811366D02*
X58251785Y-164716128D01*
X58251785Y-164716128D02*
X58204166Y-164668509D01*
X58204166Y-164668509D02*
X58108928Y-164620890D01*
X68057142Y-74054819D02*
X67723809Y-73578628D01*
X67485714Y-74054819D02*
X67485714Y-73054819D01*
X67485714Y-73054819D02*
X67866666Y-73054819D01*
X67866666Y-73054819D02*
X67961904Y-73102438D01*
X67961904Y-73102438D02*
X68009523Y-73150057D01*
X68009523Y-73150057D02*
X68057142Y-73245295D01*
X68057142Y-73245295D02*
X68057142Y-73388152D01*
X68057142Y-73388152D02*
X68009523Y-73483390D01*
X68009523Y-73483390D02*
X67961904Y-73531009D01*
X67961904Y-73531009D02*
X67866666Y-73578628D01*
X67866666Y-73578628D02*
X67485714Y-73578628D01*
X69009523Y-74054819D02*
X68438095Y-74054819D01*
X68723809Y-74054819D02*
X68723809Y-73054819D01*
X68723809Y-73054819D02*
X68628571Y-73197676D01*
X68628571Y-73197676D02*
X68533333Y-73292914D01*
X68533333Y-73292914D02*
X68438095Y-73340533D01*
X69961904Y-74054819D02*
X69390476Y-74054819D01*
X69676190Y-74054819D02*
X69676190Y-73054819D01*
X69676190Y-73054819D02*
X69580952Y-73197676D01*
X69580952Y-73197676D02*
X69485714Y-73292914D01*
X69485714Y-73292914D02*
X69390476Y-73340533D01*
X104257142Y-174454819D02*
X103923809Y-173978628D01*
X103685714Y-174454819D02*
X103685714Y-173454819D01*
X103685714Y-173454819D02*
X104066666Y-173454819D01*
X104066666Y-173454819D02*
X104161904Y-173502438D01*
X104161904Y-173502438D02*
X104209523Y-173550057D01*
X104209523Y-173550057D02*
X104257142Y-173645295D01*
X104257142Y-173645295D02*
X104257142Y-173788152D01*
X104257142Y-173788152D02*
X104209523Y-173883390D01*
X104209523Y-173883390D02*
X104161904Y-173931009D01*
X104161904Y-173931009D02*
X104066666Y-173978628D01*
X104066666Y-173978628D02*
X103685714Y-173978628D01*
X105209523Y-174454819D02*
X104638095Y-174454819D01*
X104923809Y-174454819D02*
X104923809Y-173454819D01*
X104923809Y-173454819D02*
X104828571Y-173597676D01*
X104828571Y-173597676D02*
X104733333Y-173692914D01*
X104733333Y-173692914D02*
X104638095Y-173740533D01*
X106114285Y-173454819D02*
X105638095Y-173454819D01*
X105638095Y-173454819D02*
X105590476Y-173931009D01*
X105590476Y-173931009D02*
X105638095Y-173883390D01*
X105638095Y-173883390D02*
X105733333Y-173835771D01*
X105733333Y-173835771D02*
X105971428Y-173835771D01*
X105971428Y-173835771D02*
X106066666Y-173883390D01*
X106066666Y-173883390D02*
X106114285Y-173931009D01*
X106114285Y-173931009D02*
X106161904Y-174026247D01*
X106161904Y-174026247D02*
X106161904Y-174264342D01*
X106161904Y-174264342D02*
X106114285Y-174359580D01*
X106114285Y-174359580D02*
X106066666Y-174407200D01*
X106066666Y-174407200D02*
X105971428Y-174454819D01*
X105971428Y-174454819D02*
X105733333Y-174454819D01*
X105733333Y-174454819D02*
X105638095Y-174407200D01*
X105638095Y-174407200D02*
X105590476Y-174359580D01*
X86333333Y-143254819D02*
X85857143Y-143254819D01*
X85857143Y-143254819D02*
X85857143Y-142254819D01*
X87190476Y-143254819D02*
X86619048Y-143254819D01*
X86904762Y-143254819D02*
X86904762Y-142254819D01*
X86904762Y-142254819D02*
X86809524Y-142397676D01*
X86809524Y-142397676D02*
X86714286Y-142492914D01*
X86714286Y-142492914D02*
X86619048Y-142540533D01*
X59133333Y-142659580D02*
X59085714Y-142707200D01*
X59085714Y-142707200D02*
X58942857Y-142754819D01*
X58942857Y-142754819D02*
X58847619Y-142754819D01*
X58847619Y-142754819D02*
X58704762Y-142707200D01*
X58704762Y-142707200D02*
X58609524Y-142611961D01*
X58609524Y-142611961D02*
X58561905Y-142516723D01*
X58561905Y-142516723D02*
X58514286Y-142326247D01*
X58514286Y-142326247D02*
X58514286Y-142183390D01*
X58514286Y-142183390D02*
X58561905Y-141992914D01*
X58561905Y-141992914D02*
X58609524Y-141897676D01*
X58609524Y-141897676D02*
X58704762Y-141802438D01*
X58704762Y-141802438D02*
X58847619Y-141754819D01*
X58847619Y-141754819D02*
X58942857Y-141754819D01*
X58942857Y-141754819D02*
X59085714Y-141802438D01*
X59085714Y-141802438D02*
X59133333Y-141850057D01*
X59514286Y-141850057D02*
X59561905Y-141802438D01*
X59561905Y-141802438D02*
X59657143Y-141754819D01*
X59657143Y-141754819D02*
X59895238Y-141754819D01*
X59895238Y-141754819D02*
X59990476Y-141802438D01*
X59990476Y-141802438D02*
X60038095Y-141850057D01*
X60038095Y-141850057D02*
X60085714Y-141945295D01*
X60085714Y-141945295D02*
X60085714Y-142040533D01*
X60085714Y-142040533D02*
X60038095Y-142183390D01*
X60038095Y-142183390D02*
X59466667Y-142754819D01*
X59466667Y-142754819D02*
X60085714Y-142754819D01*
X119581905Y-179054819D02*
X119581905Y-178054819D01*
X119581905Y-178054819D02*
X119820000Y-178054819D01*
X119820000Y-178054819D02*
X119962857Y-178102438D01*
X119962857Y-178102438D02*
X120058095Y-178197676D01*
X120058095Y-178197676D02*
X120105714Y-178292914D01*
X120105714Y-178292914D02*
X120153333Y-178483390D01*
X120153333Y-178483390D02*
X120153333Y-178626247D01*
X120153333Y-178626247D02*
X120105714Y-178816723D01*
X120105714Y-178816723D02*
X120058095Y-178911961D01*
X120058095Y-178911961D02*
X119962857Y-179007200D01*
X119962857Y-179007200D02*
X119820000Y-179054819D01*
X119820000Y-179054819D02*
X119581905Y-179054819D01*
X120486667Y-178054819D02*
X121153333Y-178054819D01*
X121153333Y-178054819D02*
X120724762Y-179054819D01*
X120657142Y-79854819D02*
X120323809Y-79378628D01*
X120085714Y-79854819D02*
X120085714Y-78854819D01*
X120085714Y-78854819D02*
X120466666Y-78854819D01*
X120466666Y-78854819D02*
X120561904Y-78902438D01*
X120561904Y-78902438D02*
X120609523Y-78950057D01*
X120609523Y-78950057D02*
X120657142Y-79045295D01*
X120657142Y-79045295D02*
X120657142Y-79188152D01*
X120657142Y-79188152D02*
X120609523Y-79283390D01*
X120609523Y-79283390D02*
X120561904Y-79331009D01*
X120561904Y-79331009D02*
X120466666Y-79378628D01*
X120466666Y-79378628D02*
X120085714Y-79378628D01*
X121038095Y-78950057D02*
X121085714Y-78902438D01*
X121085714Y-78902438D02*
X121180952Y-78854819D01*
X121180952Y-78854819D02*
X121419047Y-78854819D01*
X121419047Y-78854819D02*
X121514285Y-78902438D01*
X121514285Y-78902438D02*
X121561904Y-78950057D01*
X121561904Y-78950057D02*
X121609523Y-79045295D01*
X121609523Y-79045295D02*
X121609523Y-79140533D01*
X121609523Y-79140533D02*
X121561904Y-79283390D01*
X121561904Y-79283390D02*
X120990476Y-79854819D01*
X120990476Y-79854819D02*
X121609523Y-79854819D01*
X121942857Y-78854819D02*
X122561904Y-78854819D01*
X122561904Y-78854819D02*
X122228571Y-79235771D01*
X122228571Y-79235771D02*
X122371428Y-79235771D01*
X122371428Y-79235771D02*
X122466666Y-79283390D01*
X122466666Y-79283390D02*
X122514285Y-79331009D01*
X122514285Y-79331009D02*
X122561904Y-79426247D01*
X122561904Y-79426247D02*
X122561904Y-79664342D01*
X122561904Y-79664342D02*
X122514285Y-79759580D01*
X122514285Y-79759580D02*
X122466666Y-79807200D01*
X122466666Y-79807200D02*
X122371428Y-79854819D01*
X122371428Y-79854819D02*
X122085714Y-79854819D01*
X122085714Y-79854819D02*
X121990476Y-79807200D01*
X121990476Y-79807200D02*
X121942857Y-79759580D01*
X90157142Y-168279580D02*
X90109523Y-168327200D01*
X90109523Y-168327200D02*
X89966666Y-168374819D01*
X89966666Y-168374819D02*
X89871428Y-168374819D01*
X89871428Y-168374819D02*
X89728571Y-168327200D01*
X89728571Y-168327200D02*
X89633333Y-168231961D01*
X89633333Y-168231961D02*
X89585714Y-168136723D01*
X89585714Y-168136723D02*
X89538095Y-167946247D01*
X89538095Y-167946247D02*
X89538095Y-167803390D01*
X89538095Y-167803390D02*
X89585714Y-167612914D01*
X89585714Y-167612914D02*
X89633333Y-167517676D01*
X89633333Y-167517676D02*
X89728571Y-167422438D01*
X89728571Y-167422438D02*
X89871428Y-167374819D01*
X89871428Y-167374819D02*
X89966666Y-167374819D01*
X89966666Y-167374819D02*
X90109523Y-167422438D01*
X90109523Y-167422438D02*
X90157142Y-167470057D01*
X90538095Y-167470057D02*
X90585714Y-167422438D01*
X90585714Y-167422438D02*
X90680952Y-167374819D01*
X90680952Y-167374819D02*
X90919047Y-167374819D01*
X90919047Y-167374819D02*
X91014285Y-167422438D01*
X91014285Y-167422438D02*
X91061904Y-167470057D01*
X91061904Y-167470057D02*
X91109523Y-167565295D01*
X91109523Y-167565295D02*
X91109523Y-167660533D01*
X91109523Y-167660533D02*
X91061904Y-167803390D01*
X91061904Y-167803390D02*
X90490476Y-168374819D01*
X90490476Y-168374819D02*
X91109523Y-168374819D01*
X92014285Y-167374819D02*
X91538095Y-167374819D01*
X91538095Y-167374819D02*
X91490476Y-167851009D01*
X91490476Y-167851009D02*
X91538095Y-167803390D01*
X91538095Y-167803390D02*
X91633333Y-167755771D01*
X91633333Y-167755771D02*
X91871428Y-167755771D01*
X91871428Y-167755771D02*
X91966666Y-167803390D01*
X91966666Y-167803390D02*
X92014285Y-167851009D01*
X92014285Y-167851009D02*
X92061904Y-167946247D01*
X92061904Y-167946247D02*
X92061904Y-168184342D01*
X92061904Y-168184342D02*
X92014285Y-168279580D01*
X92014285Y-168279580D02*
X91966666Y-168327200D01*
X91966666Y-168327200D02*
X91871428Y-168374819D01*
X91871428Y-168374819D02*
X91633333Y-168374819D01*
X91633333Y-168374819D02*
X91538095Y-168327200D01*
X91538095Y-168327200D02*
X91490476Y-168279580D01*
X95983333Y-85659580D02*
X95935714Y-85707200D01*
X95935714Y-85707200D02*
X95792857Y-85754819D01*
X95792857Y-85754819D02*
X95697619Y-85754819D01*
X95697619Y-85754819D02*
X95554762Y-85707200D01*
X95554762Y-85707200D02*
X95459524Y-85611961D01*
X95459524Y-85611961D02*
X95411905Y-85516723D01*
X95411905Y-85516723D02*
X95364286Y-85326247D01*
X95364286Y-85326247D02*
X95364286Y-85183390D01*
X95364286Y-85183390D02*
X95411905Y-84992914D01*
X95411905Y-84992914D02*
X95459524Y-84897676D01*
X95459524Y-84897676D02*
X95554762Y-84802438D01*
X95554762Y-84802438D02*
X95697619Y-84754819D01*
X95697619Y-84754819D02*
X95792857Y-84754819D01*
X95792857Y-84754819D02*
X95935714Y-84802438D01*
X95935714Y-84802438D02*
X95983333Y-84850057D01*
X96459524Y-85754819D02*
X96650000Y-85754819D01*
X96650000Y-85754819D02*
X96745238Y-85707200D01*
X96745238Y-85707200D02*
X96792857Y-85659580D01*
X96792857Y-85659580D02*
X96888095Y-85516723D01*
X96888095Y-85516723D02*
X96935714Y-85326247D01*
X96935714Y-85326247D02*
X96935714Y-84945295D01*
X96935714Y-84945295D02*
X96888095Y-84850057D01*
X96888095Y-84850057D02*
X96840476Y-84802438D01*
X96840476Y-84802438D02*
X96745238Y-84754819D01*
X96745238Y-84754819D02*
X96554762Y-84754819D01*
X96554762Y-84754819D02*
X96459524Y-84802438D01*
X96459524Y-84802438D02*
X96411905Y-84850057D01*
X96411905Y-84850057D02*
X96364286Y-84945295D01*
X96364286Y-84945295D02*
X96364286Y-85183390D01*
X96364286Y-85183390D02*
X96411905Y-85278628D01*
X96411905Y-85278628D02*
X96459524Y-85326247D01*
X96459524Y-85326247D02*
X96554762Y-85373866D01*
X96554762Y-85373866D02*
X96745238Y-85373866D01*
X96745238Y-85373866D02*
X96840476Y-85326247D01*
X96840476Y-85326247D02*
X96888095Y-85278628D01*
X96888095Y-85278628D02*
X96935714Y-85183390D01*
X119144642Y-90154819D02*
X118811309Y-89678628D01*
X118573214Y-90154819D02*
X118573214Y-89154819D01*
X118573214Y-89154819D02*
X118954166Y-89154819D01*
X118954166Y-89154819D02*
X119049404Y-89202438D01*
X119049404Y-89202438D02*
X119097023Y-89250057D01*
X119097023Y-89250057D02*
X119144642Y-89345295D01*
X119144642Y-89345295D02*
X119144642Y-89488152D01*
X119144642Y-89488152D02*
X119097023Y-89583390D01*
X119097023Y-89583390D02*
X119049404Y-89631009D01*
X119049404Y-89631009D02*
X118954166Y-89678628D01*
X118954166Y-89678628D02*
X118573214Y-89678628D01*
X120097023Y-90154819D02*
X119525595Y-90154819D01*
X119811309Y-90154819D02*
X119811309Y-89154819D01*
X119811309Y-89154819D02*
X119716071Y-89297676D01*
X119716071Y-89297676D02*
X119620833Y-89392914D01*
X119620833Y-89392914D02*
X119525595Y-89440533D01*
X120573214Y-90154819D02*
X120763690Y-90154819D01*
X120763690Y-90154819D02*
X120858928Y-90107200D01*
X120858928Y-90107200D02*
X120906547Y-90059580D01*
X120906547Y-90059580D02*
X121001785Y-89916723D01*
X121001785Y-89916723D02*
X121049404Y-89726247D01*
X121049404Y-89726247D02*
X121049404Y-89345295D01*
X121049404Y-89345295D02*
X121001785Y-89250057D01*
X121001785Y-89250057D02*
X120954166Y-89202438D01*
X120954166Y-89202438D02*
X120858928Y-89154819D01*
X120858928Y-89154819D02*
X120668452Y-89154819D01*
X120668452Y-89154819D02*
X120573214Y-89202438D01*
X120573214Y-89202438D02*
X120525595Y-89250057D01*
X120525595Y-89250057D02*
X120477976Y-89345295D01*
X120477976Y-89345295D02*
X120477976Y-89583390D01*
X120477976Y-89583390D02*
X120525595Y-89678628D01*
X120525595Y-89678628D02*
X120573214Y-89726247D01*
X120573214Y-89726247D02*
X120668452Y-89773866D01*
X120668452Y-89773866D02*
X120858928Y-89773866D01*
X120858928Y-89773866D02*
X120954166Y-89726247D01*
X120954166Y-89726247D02*
X121001785Y-89678628D01*
X121001785Y-89678628D02*
X121049404Y-89583390D01*
X88933333Y-154354819D02*
X88600000Y-153878628D01*
X88361905Y-154354819D02*
X88361905Y-153354819D01*
X88361905Y-153354819D02*
X88742857Y-153354819D01*
X88742857Y-153354819D02*
X88838095Y-153402438D01*
X88838095Y-153402438D02*
X88885714Y-153450057D01*
X88885714Y-153450057D02*
X88933333Y-153545295D01*
X88933333Y-153545295D02*
X88933333Y-153688152D01*
X88933333Y-153688152D02*
X88885714Y-153783390D01*
X88885714Y-153783390D02*
X88838095Y-153831009D01*
X88838095Y-153831009D02*
X88742857Y-153878628D01*
X88742857Y-153878628D02*
X88361905Y-153878628D01*
X89266667Y-153354819D02*
X89933333Y-153354819D01*
X89933333Y-153354819D02*
X89504762Y-154354819D01*
X100457142Y-76154819D02*
X100123809Y-75678628D01*
X99885714Y-76154819D02*
X99885714Y-75154819D01*
X99885714Y-75154819D02*
X100266666Y-75154819D01*
X100266666Y-75154819D02*
X100361904Y-75202438D01*
X100361904Y-75202438D02*
X100409523Y-75250057D01*
X100409523Y-75250057D02*
X100457142Y-75345295D01*
X100457142Y-75345295D02*
X100457142Y-75488152D01*
X100457142Y-75488152D02*
X100409523Y-75583390D01*
X100409523Y-75583390D02*
X100361904Y-75631009D01*
X100361904Y-75631009D02*
X100266666Y-75678628D01*
X100266666Y-75678628D02*
X99885714Y-75678628D01*
X100838095Y-75250057D02*
X100885714Y-75202438D01*
X100885714Y-75202438D02*
X100980952Y-75154819D01*
X100980952Y-75154819D02*
X101219047Y-75154819D01*
X101219047Y-75154819D02*
X101314285Y-75202438D01*
X101314285Y-75202438D02*
X101361904Y-75250057D01*
X101361904Y-75250057D02*
X101409523Y-75345295D01*
X101409523Y-75345295D02*
X101409523Y-75440533D01*
X101409523Y-75440533D02*
X101361904Y-75583390D01*
X101361904Y-75583390D02*
X100790476Y-76154819D01*
X100790476Y-76154819D02*
X101409523Y-76154819D01*
X101742857Y-75154819D02*
X102409523Y-75154819D01*
X102409523Y-75154819D02*
X101980952Y-76154819D01*
X118007142Y-154839580D02*
X117959523Y-154887200D01*
X117959523Y-154887200D02*
X117816666Y-154934819D01*
X117816666Y-154934819D02*
X117721428Y-154934819D01*
X117721428Y-154934819D02*
X117578571Y-154887200D01*
X117578571Y-154887200D02*
X117483333Y-154791961D01*
X117483333Y-154791961D02*
X117435714Y-154696723D01*
X117435714Y-154696723D02*
X117388095Y-154506247D01*
X117388095Y-154506247D02*
X117388095Y-154363390D01*
X117388095Y-154363390D02*
X117435714Y-154172914D01*
X117435714Y-154172914D02*
X117483333Y-154077676D01*
X117483333Y-154077676D02*
X117578571Y-153982438D01*
X117578571Y-153982438D02*
X117721428Y-153934819D01*
X117721428Y-153934819D02*
X117816666Y-153934819D01*
X117816666Y-153934819D02*
X117959523Y-153982438D01*
X117959523Y-153982438D02*
X118007142Y-154030057D01*
X118388095Y-154030057D02*
X118435714Y-153982438D01*
X118435714Y-153982438D02*
X118530952Y-153934819D01*
X118530952Y-153934819D02*
X118769047Y-153934819D01*
X118769047Y-153934819D02*
X118864285Y-153982438D01*
X118864285Y-153982438D02*
X118911904Y-154030057D01*
X118911904Y-154030057D02*
X118959523Y-154125295D01*
X118959523Y-154125295D02*
X118959523Y-154220533D01*
X118959523Y-154220533D02*
X118911904Y-154363390D01*
X118911904Y-154363390D02*
X118340476Y-154934819D01*
X118340476Y-154934819D02*
X118959523Y-154934819D01*
X119816666Y-153934819D02*
X119626190Y-153934819D01*
X119626190Y-153934819D02*
X119530952Y-153982438D01*
X119530952Y-153982438D02*
X119483333Y-154030057D01*
X119483333Y-154030057D02*
X119388095Y-154172914D01*
X119388095Y-154172914D02*
X119340476Y-154363390D01*
X119340476Y-154363390D02*
X119340476Y-154744342D01*
X119340476Y-154744342D02*
X119388095Y-154839580D01*
X119388095Y-154839580D02*
X119435714Y-154887200D01*
X119435714Y-154887200D02*
X119530952Y-154934819D01*
X119530952Y-154934819D02*
X119721428Y-154934819D01*
X119721428Y-154934819D02*
X119816666Y-154887200D01*
X119816666Y-154887200D02*
X119864285Y-154839580D01*
X119864285Y-154839580D02*
X119911904Y-154744342D01*
X119911904Y-154744342D02*
X119911904Y-154506247D01*
X119911904Y-154506247D02*
X119864285Y-154411009D01*
X119864285Y-154411009D02*
X119816666Y-154363390D01*
X119816666Y-154363390D02*
X119721428Y-154315771D01*
X119721428Y-154315771D02*
X119530952Y-154315771D01*
X119530952Y-154315771D02*
X119435714Y-154363390D01*
X119435714Y-154363390D02*
X119388095Y-154411009D01*
X119388095Y-154411009D02*
X119340476Y-154506247D01*
X66533333Y-153039580D02*
X66485714Y-153087200D01*
X66485714Y-153087200D02*
X66342857Y-153134819D01*
X66342857Y-153134819D02*
X66247619Y-153134819D01*
X66247619Y-153134819D02*
X66104762Y-153087200D01*
X66104762Y-153087200D02*
X66009524Y-152991961D01*
X66009524Y-152991961D02*
X65961905Y-152896723D01*
X65961905Y-152896723D02*
X65914286Y-152706247D01*
X65914286Y-152706247D02*
X65914286Y-152563390D01*
X65914286Y-152563390D02*
X65961905Y-152372914D01*
X65961905Y-152372914D02*
X66009524Y-152277676D01*
X66009524Y-152277676D02*
X66104762Y-152182438D01*
X66104762Y-152182438D02*
X66247619Y-152134819D01*
X66247619Y-152134819D02*
X66342857Y-152134819D01*
X66342857Y-152134819D02*
X66485714Y-152182438D01*
X66485714Y-152182438D02*
X66533333Y-152230057D01*
X66866667Y-152134819D02*
X67485714Y-152134819D01*
X67485714Y-152134819D02*
X67152381Y-152515771D01*
X67152381Y-152515771D02*
X67295238Y-152515771D01*
X67295238Y-152515771D02*
X67390476Y-152563390D01*
X67390476Y-152563390D02*
X67438095Y-152611009D01*
X67438095Y-152611009D02*
X67485714Y-152706247D01*
X67485714Y-152706247D02*
X67485714Y-152944342D01*
X67485714Y-152944342D02*
X67438095Y-153039580D01*
X67438095Y-153039580D02*
X67390476Y-153087200D01*
X67390476Y-153087200D02*
X67295238Y-153134819D01*
X67295238Y-153134819D02*
X67009524Y-153134819D01*
X67009524Y-153134819D02*
X66914286Y-153087200D01*
X66914286Y-153087200D02*
X66866667Y-153039580D01*
X50938095Y-69204819D02*
X51509523Y-69204819D01*
X51223809Y-70204819D02*
X51223809Y-69204819D01*
X51842857Y-70204819D02*
X51842857Y-69204819D01*
X51842857Y-69204819D02*
X52223809Y-69204819D01*
X52223809Y-69204819D02*
X52319047Y-69252438D01*
X52319047Y-69252438D02*
X52366666Y-69300057D01*
X52366666Y-69300057D02*
X52414285Y-69395295D01*
X52414285Y-69395295D02*
X52414285Y-69538152D01*
X52414285Y-69538152D02*
X52366666Y-69633390D01*
X52366666Y-69633390D02*
X52319047Y-69681009D01*
X52319047Y-69681009D02*
X52223809Y-69728628D01*
X52223809Y-69728628D02*
X51842857Y-69728628D01*
X52985714Y-69633390D02*
X52890476Y-69585771D01*
X52890476Y-69585771D02*
X52842857Y-69538152D01*
X52842857Y-69538152D02*
X52795238Y-69442914D01*
X52795238Y-69442914D02*
X52795238Y-69395295D01*
X52795238Y-69395295D02*
X52842857Y-69300057D01*
X52842857Y-69300057D02*
X52890476Y-69252438D01*
X52890476Y-69252438D02*
X52985714Y-69204819D01*
X52985714Y-69204819D02*
X53176190Y-69204819D01*
X53176190Y-69204819D02*
X53271428Y-69252438D01*
X53271428Y-69252438D02*
X53319047Y-69300057D01*
X53319047Y-69300057D02*
X53366666Y-69395295D01*
X53366666Y-69395295D02*
X53366666Y-69442914D01*
X53366666Y-69442914D02*
X53319047Y-69538152D01*
X53319047Y-69538152D02*
X53271428Y-69585771D01*
X53271428Y-69585771D02*
X53176190Y-69633390D01*
X53176190Y-69633390D02*
X52985714Y-69633390D01*
X52985714Y-69633390D02*
X52890476Y-69681009D01*
X52890476Y-69681009D02*
X52842857Y-69728628D01*
X52842857Y-69728628D02*
X52795238Y-69823866D01*
X52795238Y-69823866D02*
X52795238Y-70014342D01*
X52795238Y-70014342D02*
X52842857Y-70109580D01*
X52842857Y-70109580D02*
X52890476Y-70157200D01*
X52890476Y-70157200D02*
X52985714Y-70204819D01*
X52985714Y-70204819D02*
X53176190Y-70204819D01*
X53176190Y-70204819D02*
X53271428Y-70157200D01*
X53271428Y-70157200D02*
X53319047Y-70109580D01*
X53319047Y-70109580D02*
X53366666Y-70014342D01*
X53366666Y-70014342D02*
X53366666Y-69823866D01*
X53366666Y-69823866D02*
X53319047Y-69728628D01*
X53319047Y-69728628D02*
X53271428Y-69681009D01*
X53271428Y-69681009D02*
X53176190Y-69633390D01*
X127538095Y-150054819D02*
X127538095Y-150864342D01*
X127538095Y-150864342D02*
X127585714Y-150959580D01*
X127585714Y-150959580D02*
X127633333Y-151007200D01*
X127633333Y-151007200D02*
X127728571Y-151054819D01*
X127728571Y-151054819D02*
X127919047Y-151054819D01*
X127919047Y-151054819D02*
X128014285Y-151007200D01*
X128014285Y-151007200D02*
X128061904Y-150959580D01*
X128061904Y-150959580D02*
X128109523Y-150864342D01*
X128109523Y-150864342D02*
X128109523Y-150054819D01*
X129014285Y-150054819D02*
X128823809Y-150054819D01*
X128823809Y-150054819D02*
X128728571Y-150102438D01*
X128728571Y-150102438D02*
X128680952Y-150150057D01*
X128680952Y-150150057D02*
X128585714Y-150292914D01*
X128585714Y-150292914D02*
X128538095Y-150483390D01*
X128538095Y-150483390D02*
X128538095Y-150864342D01*
X128538095Y-150864342D02*
X128585714Y-150959580D01*
X128585714Y-150959580D02*
X128633333Y-151007200D01*
X128633333Y-151007200D02*
X128728571Y-151054819D01*
X128728571Y-151054819D02*
X128919047Y-151054819D01*
X128919047Y-151054819D02*
X129014285Y-151007200D01*
X129014285Y-151007200D02*
X129061904Y-150959580D01*
X129061904Y-150959580D02*
X129109523Y-150864342D01*
X129109523Y-150864342D02*
X129109523Y-150626247D01*
X129109523Y-150626247D02*
X129061904Y-150531009D01*
X129061904Y-150531009D02*
X129014285Y-150483390D01*
X129014285Y-150483390D02*
X128919047Y-150435771D01*
X128919047Y-150435771D02*
X128728571Y-150435771D01*
X128728571Y-150435771D02*
X128633333Y-150483390D01*
X128633333Y-150483390D02*
X128585714Y-150531009D01*
X128585714Y-150531009D02*
X128538095Y-150626247D01*
X129649405Y-87654819D02*
X129649405Y-86654819D01*
X129649405Y-86654819D02*
X129887500Y-86654819D01*
X129887500Y-86654819D02*
X130030357Y-86702438D01*
X130030357Y-86702438D02*
X130125595Y-86797676D01*
X130125595Y-86797676D02*
X130173214Y-86892914D01*
X130173214Y-86892914D02*
X130220833Y-87083390D01*
X130220833Y-87083390D02*
X130220833Y-87226247D01*
X130220833Y-87226247D02*
X130173214Y-87416723D01*
X130173214Y-87416723D02*
X130125595Y-87511961D01*
X130125595Y-87511961D02*
X130030357Y-87607200D01*
X130030357Y-87607200D02*
X129887500Y-87654819D01*
X129887500Y-87654819D02*
X129649405Y-87654819D01*
X130601786Y-86750057D02*
X130649405Y-86702438D01*
X130649405Y-86702438D02*
X130744643Y-86654819D01*
X130744643Y-86654819D02*
X130982738Y-86654819D01*
X130982738Y-86654819D02*
X131077976Y-86702438D01*
X131077976Y-86702438D02*
X131125595Y-86750057D01*
X131125595Y-86750057D02*
X131173214Y-86845295D01*
X131173214Y-86845295D02*
X131173214Y-86940533D01*
X131173214Y-86940533D02*
X131125595Y-87083390D01*
X131125595Y-87083390D02*
X130554167Y-87654819D01*
X130554167Y-87654819D02*
X131173214Y-87654819D01*
X94857142Y-184954819D02*
X94523809Y-184478628D01*
X94285714Y-184954819D02*
X94285714Y-183954819D01*
X94285714Y-183954819D02*
X94666666Y-183954819D01*
X94666666Y-183954819D02*
X94761904Y-184002438D01*
X94761904Y-184002438D02*
X94809523Y-184050057D01*
X94809523Y-184050057D02*
X94857142Y-184145295D01*
X94857142Y-184145295D02*
X94857142Y-184288152D01*
X94857142Y-184288152D02*
X94809523Y-184383390D01*
X94809523Y-184383390D02*
X94761904Y-184431009D01*
X94761904Y-184431009D02*
X94666666Y-184478628D01*
X94666666Y-184478628D02*
X94285714Y-184478628D01*
X95238095Y-184050057D02*
X95285714Y-184002438D01*
X95285714Y-184002438D02*
X95380952Y-183954819D01*
X95380952Y-183954819D02*
X95619047Y-183954819D01*
X95619047Y-183954819D02*
X95714285Y-184002438D01*
X95714285Y-184002438D02*
X95761904Y-184050057D01*
X95761904Y-184050057D02*
X95809523Y-184145295D01*
X95809523Y-184145295D02*
X95809523Y-184240533D01*
X95809523Y-184240533D02*
X95761904Y-184383390D01*
X95761904Y-184383390D02*
X95190476Y-184954819D01*
X95190476Y-184954819D02*
X95809523Y-184954819D01*
X96190476Y-184050057D02*
X96238095Y-184002438D01*
X96238095Y-184002438D02*
X96333333Y-183954819D01*
X96333333Y-183954819D02*
X96571428Y-183954819D01*
X96571428Y-183954819D02*
X96666666Y-184002438D01*
X96666666Y-184002438D02*
X96714285Y-184050057D01*
X96714285Y-184050057D02*
X96761904Y-184145295D01*
X96761904Y-184145295D02*
X96761904Y-184240533D01*
X96761904Y-184240533D02*
X96714285Y-184383390D01*
X96714285Y-184383390D02*
X96142857Y-184954819D01*
X96142857Y-184954819D02*
X96761904Y-184954819D01*
X68057142Y-63854819D02*
X67723809Y-63378628D01*
X67485714Y-63854819D02*
X67485714Y-62854819D01*
X67485714Y-62854819D02*
X67866666Y-62854819D01*
X67866666Y-62854819D02*
X67961904Y-62902438D01*
X67961904Y-62902438D02*
X68009523Y-62950057D01*
X68009523Y-62950057D02*
X68057142Y-63045295D01*
X68057142Y-63045295D02*
X68057142Y-63188152D01*
X68057142Y-63188152D02*
X68009523Y-63283390D01*
X68009523Y-63283390D02*
X67961904Y-63331009D01*
X67961904Y-63331009D02*
X67866666Y-63378628D01*
X67866666Y-63378628D02*
X67485714Y-63378628D01*
X69009523Y-63854819D02*
X68438095Y-63854819D01*
X68723809Y-63854819D02*
X68723809Y-62854819D01*
X68723809Y-62854819D02*
X68628571Y-62997676D01*
X68628571Y-62997676D02*
X68533333Y-63092914D01*
X68533333Y-63092914D02*
X68438095Y-63140533D01*
X69342857Y-62854819D02*
X69961904Y-62854819D01*
X69961904Y-62854819D02*
X69628571Y-63235771D01*
X69628571Y-63235771D02*
X69771428Y-63235771D01*
X69771428Y-63235771D02*
X69866666Y-63283390D01*
X69866666Y-63283390D02*
X69914285Y-63331009D01*
X69914285Y-63331009D02*
X69961904Y-63426247D01*
X69961904Y-63426247D02*
X69961904Y-63664342D01*
X69961904Y-63664342D02*
X69914285Y-63759580D01*
X69914285Y-63759580D02*
X69866666Y-63807200D01*
X69866666Y-63807200D02*
X69771428Y-63854819D01*
X69771428Y-63854819D02*
X69485714Y-63854819D01*
X69485714Y-63854819D02*
X69390476Y-63807200D01*
X69390476Y-63807200D02*
X69342857Y-63759580D01*
X134109523Y-146054819D02*
X133633333Y-146054819D01*
X133633333Y-146054819D02*
X133633333Y-145054819D01*
X135014285Y-146054819D02*
X134680952Y-145578628D01*
X134442857Y-146054819D02*
X134442857Y-145054819D01*
X134442857Y-145054819D02*
X134823809Y-145054819D01*
X134823809Y-145054819D02*
X134919047Y-145102438D01*
X134919047Y-145102438D02*
X134966666Y-145150057D01*
X134966666Y-145150057D02*
X135014285Y-145245295D01*
X135014285Y-145245295D02*
X135014285Y-145388152D01*
X135014285Y-145388152D02*
X134966666Y-145483390D01*
X134966666Y-145483390D02*
X134919047Y-145531009D01*
X134919047Y-145531009D02*
X134823809Y-145578628D01*
X134823809Y-145578628D02*
X134442857Y-145578628D01*
X136014285Y-145959580D02*
X135966666Y-146007200D01*
X135966666Y-146007200D02*
X135823809Y-146054819D01*
X135823809Y-146054819D02*
X135728571Y-146054819D01*
X135728571Y-146054819D02*
X135585714Y-146007200D01*
X135585714Y-146007200D02*
X135490476Y-145911961D01*
X135490476Y-145911961D02*
X135442857Y-145816723D01*
X135442857Y-145816723D02*
X135395238Y-145626247D01*
X135395238Y-145626247D02*
X135395238Y-145483390D01*
X135395238Y-145483390D02*
X135442857Y-145292914D01*
X135442857Y-145292914D02*
X135490476Y-145197676D01*
X135490476Y-145197676D02*
X135585714Y-145102438D01*
X135585714Y-145102438D02*
X135728571Y-145054819D01*
X135728571Y-145054819D02*
X135823809Y-145054819D01*
X135823809Y-145054819D02*
X135966666Y-145102438D01*
X135966666Y-145102438D02*
X136014285Y-145150057D01*
X136442857Y-146054819D02*
X136442857Y-145054819D01*
X137014285Y-146054819D02*
X136585714Y-145483390D01*
X137014285Y-145054819D02*
X136442857Y-145626247D01*
X119261905Y-176354819D02*
X119261905Y-175354819D01*
X119261905Y-175354819D02*
X119500000Y-175354819D01*
X119500000Y-175354819D02*
X119642857Y-175402438D01*
X119642857Y-175402438D02*
X119738095Y-175497676D01*
X119738095Y-175497676D02*
X119785714Y-175592914D01*
X119785714Y-175592914D02*
X119833333Y-175783390D01*
X119833333Y-175783390D02*
X119833333Y-175926247D01*
X119833333Y-175926247D02*
X119785714Y-176116723D01*
X119785714Y-176116723D02*
X119738095Y-176211961D01*
X119738095Y-176211961D02*
X119642857Y-176307200D01*
X119642857Y-176307200D02*
X119500000Y-176354819D01*
X119500000Y-176354819D02*
X119261905Y-176354819D01*
X120690476Y-175354819D02*
X120500000Y-175354819D01*
X120500000Y-175354819D02*
X120404762Y-175402438D01*
X120404762Y-175402438D02*
X120357143Y-175450057D01*
X120357143Y-175450057D02*
X120261905Y-175592914D01*
X120261905Y-175592914D02*
X120214286Y-175783390D01*
X120214286Y-175783390D02*
X120214286Y-176164342D01*
X120214286Y-176164342D02*
X120261905Y-176259580D01*
X120261905Y-176259580D02*
X120309524Y-176307200D01*
X120309524Y-176307200D02*
X120404762Y-176354819D01*
X120404762Y-176354819D02*
X120595238Y-176354819D01*
X120595238Y-176354819D02*
X120690476Y-176307200D01*
X120690476Y-176307200D02*
X120738095Y-176259580D01*
X120738095Y-176259580D02*
X120785714Y-176164342D01*
X120785714Y-176164342D02*
X120785714Y-175926247D01*
X120785714Y-175926247D02*
X120738095Y-175831009D01*
X120738095Y-175831009D02*
X120690476Y-175783390D01*
X120690476Y-175783390D02*
X120595238Y-175735771D01*
X120595238Y-175735771D02*
X120404762Y-175735771D01*
X120404762Y-175735771D02*
X120309524Y-175783390D01*
X120309524Y-175783390D02*
X120261905Y-175831009D01*
X120261905Y-175831009D02*
X120214286Y-175926247D01*
X116457142Y-149959580D02*
X116409523Y-150007200D01*
X116409523Y-150007200D02*
X116266666Y-150054819D01*
X116266666Y-150054819D02*
X116171428Y-150054819D01*
X116171428Y-150054819D02*
X116028571Y-150007200D01*
X116028571Y-150007200D02*
X115933333Y-149911961D01*
X115933333Y-149911961D02*
X115885714Y-149816723D01*
X115885714Y-149816723D02*
X115838095Y-149626247D01*
X115838095Y-149626247D02*
X115838095Y-149483390D01*
X115838095Y-149483390D02*
X115885714Y-149292914D01*
X115885714Y-149292914D02*
X115933333Y-149197676D01*
X115933333Y-149197676D02*
X116028571Y-149102438D01*
X116028571Y-149102438D02*
X116171428Y-149054819D01*
X116171428Y-149054819D02*
X116266666Y-149054819D01*
X116266666Y-149054819D02*
X116409523Y-149102438D01*
X116409523Y-149102438D02*
X116457142Y-149150057D01*
X117409523Y-150054819D02*
X116838095Y-150054819D01*
X117123809Y-150054819D02*
X117123809Y-149054819D01*
X117123809Y-149054819D02*
X117028571Y-149197676D01*
X117028571Y-149197676D02*
X116933333Y-149292914D01*
X116933333Y-149292914D02*
X116838095Y-149340533D01*
X117742857Y-149054819D02*
X118361904Y-149054819D01*
X118361904Y-149054819D02*
X118028571Y-149435771D01*
X118028571Y-149435771D02*
X118171428Y-149435771D01*
X118171428Y-149435771D02*
X118266666Y-149483390D01*
X118266666Y-149483390D02*
X118314285Y-149531009D01*
X118314285Y-149531009D02*
X118361904Y-149626247D01*
X118361904Y-149626247D02*
X118361904Y-149864342D01*
X118361904Y-149864342D02*
X118314285Y-149959580D01*
X118314285Y-149959580D02*
X118266666Y-150007200D01*
X118266666Y-150007200D02*
X118171428Y-150054819D01*
X118171428Y-150054819D02*
X117885714Y-150054819D01*
X117885714Y-150054819D02*
X117790476Y-150007200D01*
X117790476Y-150007200D02*
X117742857Y-149959580D01*
X104134642Y-176754819D02*
X103801309Y-176278628D01*
X103563214Y-176754819D02*
X103563214Y-175754819D01*
X103563214Y-175754819D02*
X103944166Y-175754819D01*
X103944166Y-175754819D02*
X104039404Y-175802438D01*
X104039404Y-175802438D02*
X104087023Y-175850057D01*
X104087023Y-175850057D02*
X104134642Y-175945295D01*
X104134642Y-175945295D02*
X104134642Y-176088152D01*
X104134642Y-176088152D02*
X104087023Y-176183390D01*
X104087023Y-176183390D02*
X104039404Y-176231009D01*
X104039404Y-176231009D02*
X103944166Y-176278628D01*
X103944166Y-176278628D02*
X103563214Y-176278628D01*
X105087023Y-176754819D02*
X104515595Y-176754819D01*
X104801309Y-176754819D02*
X104801309Y-175754819D01*
X104801309Y-175754819D02*
X104706071Y-175897676D01*
X104706071Y-175897676D02*
X104610833Y-175992914D01*
X104610833Y-175992914D02*
X104515595Y-176040533D01*
X105467976Y-175850057D02*
X105515595Y-175802438D01*
X105515595Y-175802438D02*
X105610833Y-175754819D01*
X105610833Y-175754819D02*
X105848928Y-175754819D01*
X105848928Y-175754819D02*
X105944166Y-175802438D01*
X105944166Y-175802438D02*
X105991785Y-175850057D01*
X105991785Y-175850057D02*
X106039404Y-175945295D01*
X106039404Y-175945295D02*
X106039404Y-176040533D01*
X106039404Y-176040533D02*
X105991785Y-176183390D01*
X105991785Y-176183390D02*
X105420357Y-176754819D01*
X105420357Y-176754819D02*
X106039404Y-176754819D01*
X59023515Y-87955377D02*
X59023515Y-86954172D01*
X59023515Y-86954172D02*
X59261897Y-86954172D01*
X59261897Y-86954172D02*
X59404926Y-87001848D01*
X59404926Y-87001848D02*
X59500279Y-87097201D01*
X59500279Y-87097201D02*
X59547955Y-87192554D01*
X59547955Y-87192554D02*
X59595632Y-87383260D01*
X59595632Y-87383260D02*
X59595632Y-87526289D01*
X59595632Y-87526289D02*
X59547955Y-87716995D01*
X59547955Y-87716995D02*
X59500279Y-87812348D01*
X59500279Y-87812348D02*
X59404926Y-87907701D01*
X59404926Y-87907701D02*
X59261897Y-87955377D01*
X59261897Y-87955377D02*
X59023515Y-87955377D01*
X60549160Y-87955377D02*
X59977043Y-87955377D01*
X60263102Y-87955377D02*
X60263102Y-86954172D01*
X60263102Y-86954172D02*
X60167749Y-87097201D01*
X60167749Y-87097201D02*
X60072396Y-87192554D01*
X60072396Y-87192554D02*
X59977043Y-87240231D01*
X114966666Y-133354819D02*
X114966666Y-134069104D01*
X114966666Y-134069104D02*
X114919047Y-134211961D01*
X114919047Y-134211961D02*
X114823809Y-134307200D01*
X114823809Y-134307200D02*
X114680952Y-134354819D01*
X114680952Y-134354819D02*
X114585714Y-134354819D01*
X115442857Y-134354819D02*
X115442857Y-133354819D01*
X115442857Y-133354819D02*
X115823809Y-133354819D01*
X115823809Y-133354819D02*
X115919047Y-133402438D01*
X115919047Y-133402438D02*
X115966666Y-133450057D01*
X115966666Y-133450057D02*
X116014285Y-133545295D01*
X116014285Y-133545295D02*
X116014285Y-133688152D01*
X116014285Y-133688152D02*
X115966666Y-133783390D01*
X115966666Y-133783390D02*
X115919047Y-133831009D01*
X115919047Y-133831009D02*
X115823809Y-133878628D01*
X115823809Y-133878628D02*
X115442857Y-133878628D01*
X116347619Y-133354819D02*
X116966666Y-133354819D01*
X116966666Y-133354819D02*
X116633333Y-133735771D01*
X116633333Y-133735771D02*
X116776190Y-133735771D01*
X116776190Y-133735771D02*
X116871428Y-133783390D01*
X116871428Y-133783390D02*
X116919047Y-133831009D01*
X116919047Y-133831009D02*
X116966666Y-133926247D01*
X116966666Y-133926247D02*
X116966666Y-134164342D01*
X116966666Y-134164342D02*
X116919047Y-134259580D01*
X116919047Y-134259580D02*
X116871428Y-134307200D01*
X116871428Y-134307200D02*
X116776190Y-134354819D01*
X116776190Y-134354819D02*
X116490476Y-134354819D01*
X116490476Y-134354819D02*
X116395238Y-134307200D01*
X116395238Y-134307200D02*
X116347619Y-134259580D01*
X133719047Y-171054819D02*
X133909523Y-171054819D01*
X133909523Y-171054819D02*
X134004761Y-171102438D01*
X134004761Y-171102438D02*
X134099999Y-171197676D01*
X134099999Y-171197676D02*
X134147618Y-171388152D01*
X134147618Y-171388152D02*
X134147618Y-171721485D01*
X134147618Y-171721485D02*
X134099999Y-171911961D01*
X134099999Y-171911961D02*
X134004761Y-172007200D01*
X134004761Y-172007200D02*
X133909523Y-172054819D01*
X133909523Y-172054819D02*
X133719047Y-172054819D01*
X133719047Y-172054819D02*
X133623809Y-172007200D01*
X133623809Y-172007200D02*
X133528571Y-171911961D01*
X133528571Y-171911961D02*
X133480952Y-171721485D01*
X133480952Y-171721485D02*
X133480952Y-171388152D01*
X133480952Y-171388152D02*
X133528571Y-171197676D01*
X133528571Y-171197676D02*
X133623809Y-171102438D01*
X133623809Y-171102438D02*
X133719047Y-171054819D01*
X134576190Y-171054819D02*
X134576190Y-171864342D01*
X134576190Y-171864342D02*
X134623809Y-171959580D01*
X134623809Y-171959580D02*
X134671428Y-172007200D01*
X134671428Y-172007200D02*
X134766666Y-172054819D01*
X134766666Y-172054819D02*
X134957142Y-172054819D01*
X134957142Y-172054819D02*
X135052380Y-172007200D01*
X135052380Y-172007200D02*
X135099999Y-171959580D01*
X135099999Y-171959580D02*
X135147618Y-171864342D01*
X135147618Y-171864342D02*
X135147618Y-171054819D01*
X135480952Y-171054819D02*
X136052380Y-171054819D01*
X135766666Y-172054819D02*
X135766666Y-171054819D01*
X137719047Y-172054819D02*
X137385714Y-171578628D01*
X137147619Y-172054819D02*
X137147619Y-171054819D01*
X137147619Y-171054819D02*
X137528571Y-171054819D01*
X137528571Y-171054819D02*
X137623809Y-171102438D01*
X137623809Y-171102438D02*
X137671428Y-171150057D01*
X137671428Y-171150057D02*
X137719047Y-171245295D01*
X137719047Y-171245295D02*
X137719047Y-171388152D01*
X137719047Y-171388152D02*
X137671428Y-171483390D01*
X137671428Y-171483390D02*
X137623809Y-171531009D01*
X137623809Y-171531009D02*
X137528571Y-171578628D01*
X137528571Y-171578628D02*
X137147619Y-171578628D01*
X104620833Y-82754819D02*
X104287500Y-82278628D01*
X104049405Y-82754819D02*
X104049405Y-81754819D01*
X104049405Y-81754819D02*
X104430357Y-81754819D01*
X104430357Y-81754819D02*
X104525595Y-81802438D01*
X104525595Y-81802438D02*
X104573214Y-81850057D01*
X104573214Y-81850057D02*
X104620833Y-81945295D01*
X104620833Y-81945295D02*
X104620833Y-82088152D01*
X104620833Y-82088152D02*
X104573214Y-82183390D01*
X104573214Y-82183390D02*
X104525595Y-82231009D01*
X104525595Y-82231009D02*
X104430357Y-82278628D01*
X104430357Y-82278628D02*
X104049405Y-82278628D01*
X105525595Y-81754819D02*
X105049405Y-81754819D01*
X105049405Y-81754819D02*
X105001786Y-82231009D01*
X105001786Y-82231009D02*
X105049405Y-82183390D01*
X105049405Y-82183390D02*
X105144643Y-82135771D01*
X105144643Y-82135771D02*
X105382738Y-82135771D01*
X105382738Y-82135771D02*
X105477976Y-82183390D01*
X105477976Y-82183390D02*
X105525595Y-82231009D01*
X105525595Y-82231009D02*
X105573214Y-82326247D01*
X105573214Y-82326247D02*
X105573214Y-82564342D01*
X105573214Y-82564342D02*
X105525595Y-82659580D01*
X105525595Y-82659580D02*
X105477976Y-82707200D01*
X105477976Y-82707200D02*
X105382738Y-82754819D01*
X105382738Y-82754819D02*
X105144643Y-82754819D01*
X105144643Y-82754819D02*
X105049405Y-82707200D01*
X105049405Y-82707200D02*
X105001786Y-82659580D01*
X73994642Y-156654819D02*
X73661309Y-156178628D01*
X73423214Y-156654819D02*
X73423214Y-155654819D01*
X73423214Y-155654819D02*
X73804166Y-155654819D01*
X73804166Y-155654819D02*
X73899404Y-155702438D01*
X73899404Y-155702438D02*
X73947023Y-155750057D01*
X73947023Y-155750057D02*
X73994642Y-155845295D01*
X73994642Y-155845295D02*
X73994642Y-155988152D01*
X73994642Y-155988152D02*
X73947023Y-156083390D01*
X73947023Y-156083390D02*
X73899404Y-156131009D01*
X73899404Y-156131009D02*
X73804166Y-156178628D01*
X73804166Y-156178628D02*
X73423214Y-156178628D01*
X74375595Y-155750057D02*
X74423214Y-155702438D01*
X74423214Y-155702438D02*
X74518452Y-155654819D01*
X74518452Y-155654819D02*
X74756547Y-155654819D01*
X74756547Y-155654819D02*
X74851785Y-155702438D01*
X74851785Y-155702438D02*
X74899404Y-155750057D01*
X74899404Y-155750057D02*
X74947023Y-155845295D01*
X74947023Y-155845295D02*
X74947023Y-155940533D01*
X74947023Y-155940533D02*
X74899404Y-156083390D01*
X74899404Y-156083390D02*
X74327976Y-156654819D01*
X74327976Y-156654819D02*
X74947023Y-156654819D01*
X75566071Y-155654819D02*
X75661309Y-155654819D01*
X75661309Y-155654819D02*
X75756547Y-155702438D01*
X75756547Y-155702438D02*
X75804166Y-155750057D01*
X75804166Y-155750057D02*
X75851785Y-155845295D01*
X75851785Y-155845295D02*
X75899404Y-156035771D01*
X75899404Y-156035771D02*
X75899404Y-156273866D01*
X75899404Y-156273866D02*
X75851785Y-156464342D01*
X75851785Y-156464342D02*
X75804166Y-156559580D01*
X75804166Y-156559580D02*
X75756547Y-156607200D01*
X75756547Y-156607200D02*
X75661309Y-156654819D01*
X75661309Y-156654819D02*
X75566071Y-156654819D01*
X75566071Y-156654819D02*
X75470833Y-156607200D01*
X75470833Y-156607200D02*
X75423214Y-156559580D01*
X75423214Y-156559580D02*
X75375595Y-156464342D01*
X75375595Y-156464342D02*
X75327976Y-156273866D01*
X75327976Y-156273866D02*
X75327976Y-156035771D01*
X75327976Y-156035771D02*
X75375595Y-155845295D01*
X75375595Y-155845295D02*
X75423214Y-155750057D01*
X75423214Y-155750057D02*
X75470833Y-155702438D01*
X75470833Y-155702438D02*
X75566071Y-155654819D01*
X59233333Y-93834819D02*
X58900000Y-93358628D01*
X58661905Y-93834819D02*
X58661905Y-92834819D01*
X58661905Y-92834819D02*
X59042857Y-92834819D01*
X59042857Y-92834819D02*
X59138095Y-92882438D01*
X59138095Y-92882438D02*
X59185714Y-92930057D01*
X59185714Y-92930057D02*
X59233333Y-93025295D01*
X59233333Y-93025295D02*
X59233333Y-93168152D01*
X59233333Y-93168152D02*
X59185714Y-93263390D01*
X59185714Y-93263390D02*
X59138095Y-93311009D01*
X59138095Y-93311009D02*
X59042857Y-93358628D01*
X59042857Y-93358628D02*
X58661905Y-93358628D01*
X59566667Y-92834819D02*
X60185714Y-92834819D01*
X60185714Y-92834819D02*
X59852381Y-93215771D01*
X59852381Y-93215771D02*
X59995238Y-93215771D01*
X59995238Y-93215771D02*
X60090476Y-93263390D01*
X60090476Y-93263390D02*
X60138095Y-93311009D01*
X60138095Y-93311009D02*
X60185714Y-93406247D01*
X60185714Y-93406247D02*
X60185714Y-93644342D01*
X60185714Y-93644342D02*
X60138095Y-93739580D01*
X60138095Y-93739580D02*
X60090476Y-93787200D01*
X60090476Y-93787200D02*
X59995238Y-93834819D01*
X59995238Y-93834819D02*
X59709524Y-93834819D01*
X59709524Y-93834819D02*
X59614286Y-93787200D01*
X59614286Y-93787200D02*
X59566667Y-93739580D01*
X128919642Y-141084580D02*
X128872023Y-141132200D01*
X128872023Y-141132200D02*
X128729166Y-141179819D01*
X128729166Y-141179819D02*
X128633928Y-141179819D01*
X128633928Y-141179819D02*
X128491071Y-141132200D01*
X128491071Y-141132200D02*
X128395833Y-141036961D01*
X128395833Y-141036961D02*
X128348214Y-140941723D01*
X128348214Y-140941723D02*
X128300595Y-140751247D01*
X128300595Y-140751247D02*
X128300595Y-140608390D01*
X128300595Y-140608390D02*
X128348214Y-140417914D01*
X128348214Y-140417914D02*
X128395833Y-140322676D01*
X128395833Y-140322676D02*
X128491071Y-140227438D01*
X128491071Y-140227438D02*
X128633928Y-140179819D01*
X128633928Y-140179819D02*
X128729166Y-140179819D01*
X128729166Y-140179819D02*
X128872023Y-140227438D01*
X128872023Y-140227438D02*
X128919642Y-140275057D01*
X129872023Y-141179819D02*
X129300595Y-141179819D01*
X129586309Y-141179819D02*
X129586309Y-140179819D01*
X129586309Y-140179819D02*
X129491071Y-140322676D01*
X129491071Y-140322676D02*
X129395833Y-140417914D01*
X129395833Y-140417914D02*
X129300595Y-140465533D01*
X130776785Y-140179819D02*
X130300595Y-140179819D01*
X130300595Y-140179819D02*
X130252976Y-140656009D01*
X130252976Y-140656009D02*
X130300595Y-140608390D01*
X130300595Y-140608390D02*
X130395833Y-140560771D01*
X130395833Y-140560771D02*
X130633928Y-140560771D01*
X130633928Y-140560771D02*
X130729166Y-140608390D01*
X130729166Y-140608390D02*
X130776785Y-140656009D01*
X130776785Y-140656009D02*
X130824404Y-140751247D01*
X130824404Y-140751247D02*
X130824404Y-140989342D01*
X130824404Y-140989342D02*
X130776785Y-141084580D01*
X130776785Y-141084580D02*
X130729166Y-141132200D01*
X130729166Y-141132200D02*
X130633928Y-141179819D01*
X130633928Y-141179819D02*
X130395833Y-141179819D01*
X130395833Y-141179819D02*
X130300595Y-141132200D01*
X130300595Y-141132200D02*
X130252976Y-141084580D01*
X117457142Y-98679580D02*
X117409523Y-98727200D01*
X117409523Y-98727200D02*
X117266666Y-98774819D01*
X117266666Y-98774819D02*
X117171428Y-98774819D01*
X117171428Y-98774819D02*
X117028571Y-98727200D01*
X117028571Y-98727200D02*
X116933333Y-98631961D01*
X116933333Y-98631961D02*
X116885714Y-98536723D01*
X116885714Y-98536723D02*
X116838095Y-98346247D01*
X116838095Y-98346247D02*
X116838095Y-98203390D01*
X116838095Y-98203390D02*
X116885714Y-98012914D01*
X116885714Y-98012914D02*
X116933333Y-97917676D01*
X116933333Y-97917676D02*
X117028571Y-97822438D01*
X117028571Y-97822438D02*
X117171428Y-97774819D01*
X117171428Y-97774819D02*
X117266666Y-97774819D01*
X117266666Y-97774819D02*
X117409523Y-97822438D01*
X117409523Y-97822438D02*
X117457142Y-97870057D01*
X117838095Y-97870057D02*
X117885714Y-97822438D01*
X117885714Y-97822438D02*
X117980952Y-97774819D01*
X117980952Y-97774819D02*
X118219047Y-97774819D01*
X118219047Y-97774819D02*
X118314285Y-97822438D01*
X118314285Y-97822438D02*
X118361904Y-97870057D01*
X118361904Y-97870057D02*
X118409523Y-97965295D01*
X118409523Y-97965295D02*
X118409523Y-98060533D01*
X118409523Y-98060533D02*
X118361904Y-98203390D01*
X118361904Y-98203390D02*
X117790476Y-98774819D01*
X117790476Y-98774819D02*
X118409523Y-98774819D01*
X119361904Y-98774819D02*
X118790476Y-98774819D01*
X119076190Y-98774819D02*
X119076190Y-97774819D01*
X119076190Y-97774819D02*
X118980952Y-97917676D01*
X118980952Y-97917676D02*
X118885714Y-98012914D01*
X118885714Y-98012914D02*
X118790476Y-98060533D01*
X118438095Y-63478700D02*
X118580952Y-63526319D01*
X118580952Y-63526319D02*
X118819047Y-63526319D01*
X118819047Y-63526319D02*
X118914285Y-63478700D01*
X118914285Y-63478700D02*
X118961904Y-63431080D01*
X118961904Y-63431080D02*
X119009523Y-63335842D01*
X119009523Y-63335842D02*
X119009523Y-63240604D01*
X119009523Y-63240604D02*
X118961904Y-63145366D01*
X118961904Y-63145366D02*
X118914285Y-63097747D01*
X118914285Y-63097747D02*
X118819047Y-63050128D01*
X118819047Y-63050128D02*
X118628571Y-63002509D01*
X118628571Y-63002509D02*
X118533333Y-62954890D01*
X118533333Y-62954890D02*
X118485714Y-62907271D01*
X118485714Y-62907271D02*
X118438095Y-62812033D01*
X118438095Y-62812033D02*
X118438095Y-62716795D01*
X118438095Y-62716795D02*
X118485714Y-62621557D01*
X118485714Y-62621557D02*
X118533333Y-62573938D01*
X118533333Y-62573938D02*
X118628571Y-62526319D01*
X118628571Y-62526319D02*
X118866666Y-62526319D01*
X118866666Y-62526319D02*
X119009523Y-62573938D01*
X119342857Y-62526319D02*
X119961904Y-62526319D01*
X119961904Y-62526319D02*
X119628571Y-62907271D01*
X119628571Y-62907271D02*
X119771428Y-62907271D01*
X119771428Y-62907271D02*
X119866666Y-62954890D01*
X119866666Y-62954890D02*
X119914285Y-63002509D01*
X119914285Y-63002509D02*
X119961904Y-63097747D01*
X119961904Y-63097747D02*
X119961904Y-63335842D01*
X119961904Y-63335842D02*
X119914285Y-63431080D01*
X119914285Y-63431080D02*
X119866666Y-63478700D01*
X119866666Y-63478700D02*
X119771428Y-63526319D01*
X119771428Y-63526319D02*
X119485714Y-63526319D01*
X119485714Y-63526319D02*
X119390476Y-63478700D01*
X119390476Y-63478700D02*
X119342857Y-63431080D01*
X133357142Y-143659580D02*
X133309523Y-143707200D01*
X133309523Y-143707200D02*
X133166666Y-143754819D01*
X133166666Y-143754819D02*
X133071428Y-143754819D01*
X133071428Y-143754819D02*
X132928571Y-143707200D01*
X132928571Y-143707200D02*
X132833333Y-143611961D01*
X132833333Y-143611961D02*
X132785714Y-143516723D01*
X132785714Y-143516723D02*
X132738095Y-143326247D01*
X132738095Y-143326247D02*
X132738095Y-143183390D01*
X132738095Y-143183390D02*
X132785714Y-142992914D01*
X132785714Y-142992914D02*
X132833333Y-142897676D01*
X132833333Y-142897676D02*
X132928571Y-142802438D01*
X132928571Y-142802438D02*
X133071428Y-142754819D01*
X133071428Y-142754819D02*
X133166666Y-142754819D01*
X133166666Y-142754819D02*
X133309523Y-142802438D01*
X133309523Y-142802438D02*
X133357142Y-142850057D01*
X134309523Y-143754819D02*
X133738095Y-143754819D01*
X134023809Y-143754819D02*
X134023809Y-142754819D01*
X134023809Y-142754819D02*
X133928571Y-142897676D01*
X133928571Y-142897676D02*
X133833333Y-142992914D01*
X133833333Y-142992914D02*
X133738095Y-143040533D01*
X134642857Y-142754819D02*
X135309523Y-142754819D01*
X135309523Y-142754819D02*
X134880952Y-143754819D01*
X119444642Y-83254819D02*
X119111309Y-82778628D01*
X118873214Y-83254819D02*
X118873214Y-82254819D01*
X118873214Y-82254819D02*
X119254166Y-82254819D01*
X119254166Y-82254819D02*
X119349404Y-82302438D01*
X119349404Y-82302438D02*
X119397023Y-82350057D01*
X119397023Y-82350057D02*
X119444642Y-82445295D01*
X119444642Y-82445295D02*
X119444642Y-82588152D01*
X119444642Y-82588152D02*
X119397023Y-82683390D01*
X119397023Y-82683390D02*
X119349404Y-82731009D01*
X119349404Y-82731009D02*
X119254166Y-82778628D01*
X119254166Y-82778628D02*
X118873214Y-82778628D01*
X119825595Y-82350057D02*
X119873214Y-82302438D01*
X119873214Y-82302438D02*
X119968452Y-82254819D01*
X119968452Y-82254819D02*
X120206547Y-82254819D01*
X120206547Y-82254819D02*
X120301785Y-82302438D01*
X120301785Y-82302438D02*
X120349404Y-82350057D01*
X120349404Y-82350057D02*
X120397023Y-82445295D01*
X120397023Y-82445295D02*
X120397023Y-82540533D01*
X120397023Y-82540533D02*
X120349404Y-82683390D01*
X120349404Y-82683390D02*
X119777976Y-83254819D01*
X119777976Y-83254819D02*
X120397023Y-83254819D01*
X121254166Y-82588152D02*
X121254166Y-83254819D01*
X121016071Y-82207200D02*
X120777976Y-82921485D01*
X120777976Y-82921485D02*
X121397023Y-82921485D01*
X82238095Y-151354819D02*
X82238095Y-152164342D01*
X82238095Y-152164342D02*
X82285714Y-152259580D01*
X82285714Y-152259580D02*
X82333333Y-152307200D01*
X82333333Y-152307200D02*
X82428571Y-152354819D01*
X82428571Y-152354819D02*
X82619047Y-152354819D01*
X82619047Y-152354819D02*
X82714285Y-152307200D01*
X82714285Y-152307200D02*
X82761904Y-152259580D01*
X82761904Y-152259580D02*
X82809523Y-152164342D01*
X82809523Y-152164342D02*
X82809523Y-151354819D01*
X83190476Y-151354819D02*
X83809523Y-151354819D01*
X83809523Y-151354819D02*
X83476190Y-151735771D01*
X83476190Y-151735771D02*
X83619047Y-151735771D01*
X83619047Y-151735771D02*
X83714285Y-151783390D01*
X83714285Y-151783390D02*
X83761904Y-151831009D01*
X83761904Y-151831009D02*
X83809523Y-151926247D01*
X83809523Y-151926247D02*
X83809523Y-152164342D01*
X83809523Y-152164342D02*
X83761904Y-152259580D01*
X83761904Y-152259580D02*
X83714285Y-152307200D01*
X83714285Y-152307200D02*
X83619047Y-152354819D01*
X83619047Y-152354819D02*
X83333333Y-152354819D01*
X83333333Y-152354819D02*
X83238095Y-152307200D01*
X83238095Y-152307200D02*
X83190476Y-152259580D01*
X115357142Y-73359580D02*
X115309523Y-73407200D01*
X115309523Y-73407200D02*
X115166666Y-73454819D01*
X115166666Y-73454819D02*
X115071428Y-73454819D01*
X115071428Y-73454819D02*
X114928571Y-73407200D01*
X114928571Y-73407200D02*
X114833333Y-73311961D01*
X114833333Y-73311961D02*
X114785714Y-73216723D01*
X114785714Y-73216723D02*
X114738095Y-73026247D01*
X114738095Y-73026247D02*
X114738095Y-72883390D01*
X114738095Y-72883390D02*
X114785714Y-72692914D01*
X114785714Y-72692914D02*
X114833333Y-72597676D01*
X114833333Y-72597676D02*
X114928571Y-72502438D01*
X114928571Y-72502438D02*
X115071428Y-72454819D01*
X115071428Y-72454819D02*
X115166666Y-72454819D01*
X115166666Y-72454819D02*
X115309523Y-72502438D01*
X115309523Y-72502438D02*
X115357142Y-72550057D01*
X115738095Y-72550057D02*
X115785714Y-72502438D01*
X115785714Y-72502438D02*
X115880952Y-72454819D01*
X115880952Y-72454819D02*
X116119047Y-72454819D01*
X116119047Y-72454819D02*
X116214285Y-72502438D01*
X116214285Y-72502438D02*
X116261904Y-72550057D01*
X116261904Y-72550057D02*
X116309523Y-72645295D01*
X116309523Y-72645295D02*
X116309523Y-72740533D01*
X116309523Y-72740533D02*
X116261904Y-72883390D01*
X116261904Y-72883390D02*
X115690476Y-73454819D01*
X115690476Y-73454819D02*
X116309523Y-73454819D01*
X116642857Y-72454819D02*
X117261904Y-72454819D01*
X117261904Y-72454819D02*
X116928571Y-72835771D01*
X116928571Y-72835771D02*
X117071428Y-72835771D01*
X117071428Y-72835771D02*
X117166666Y-72883390D01*
X117166666Y-72883390D02*
X117214285Y-72931009D01*
X117214285Y-72931009D02*
X117261904Y-73026247D01*
X117261904Y-73026247D02*
X117261904Y-73264342D01*
X117261904Y-73264342D02*
X117214285Y-73359580D01*
X117214285Y-73359580D02*
X117166666Y-73407200D01*
X117166666Y-73407200D02*
X117071428Y-73454819D01*
X117071428Y-73454819D02*
X116785714Y-73454819D01*
X116785714Y-73454819D02*
X116690476Y-73407200D01*
X116690476Y-73407200D02*
X116642857Y-73359580D01*
X71457142Y-74054819D02*
X71123809Y-73578628D01*
X70885714Y-74054819D02*
X70885714Y-73054819D01*
X70885714Y-73054819D02*
X71266666Y-73054819D01*
X71266666Y-73054819D02*
X71361904Y-73102438D01*
X71361904Y-73102438D02*
X71409523Y-73150057D01*
X71409523Y-73150057D02*
X71457142Y-73245295D01*
X71457142Y-73245295D02*
X71457142Y-73388152D01*
X71457142Y-73388152D02*
X71409523Y-73483390D01*
X71409523Y-73483390D02*
X71361904Y-73531009D01*
X71361904Y-73531009D02*
X71266666Y-73578628D01*
X71266666Y-73578628D02*
X70885714Y-73578628D01*
X72409523Y-74054819D02*
X71838095Y-74054819D01*
X72123809Y-74054819D02*
X72123809Y-73054819D01*
X72123809Y-73054819D02*
X72028571Y-73197676D01*
X72028571Y-73197676D02*
X71933333Y-73292914D01*
X71933333Y-73292914D02*
X71838095Y-73340533D01*
X73028571Y-73054819D02*
X73123809Y-73054819D01*
X73123809Y-73054819D02*
X73219047Y-73102438D01*
X73219047Y-73102438D02*
X73266666Y-73150057D01*
X73266666Y-73150057D02*
X73314285Y-73245295D01*
X73314285Y-73245295D02*
X73361904Y-73435771D01*
X73361904Y-73435771D02*
X73361904Y-73673866D01*
X73361904Y-73673866D02*
X73314285Y-73864342D01*
X73314285Y-73864342D02*
X73266666Y-73959580D01*
X73266666Y-73959580D02*
X73219047Y-74007200D01*
X73219047Y-74007200D02*
X73123809Y-74054819D01*
X73123809Y-74054819D02*
X73028571Y-74054819D01*
X73028571Y-74054819D02*
X72933333Y-74007200D01*
X72933333Y-74007200D02*
X72885714Y-73959580D01*
X72885714Y-73959580D02*
X72838095Y-73864342D01*
X72838095Y-73864342D02*
X72790476Y-73673866D01*
X72790476Y-73673866D02*
X72790476Y-73435771D01*
X72790476Y-73435771D02*
X72838095Y-73245295D01*
X72838095Y-73245295D02*
X72885714Y-73150057D01*
X72885714Y-73150057D02*
X72933333Y-73102438D01*
X72933333Y-73102438D02*
X73028571Y-73054819D01*
X129749405Y-85454819D02*
X129749405Y-84454819D01*
X129749405Y-84454819D02*
X129987500Y-84454819D01*
X129987500Y-84454819D02*
X130130357Y-84502438D01*
X130130357Y-84502438D02*
X130225595Y-84597676D01*
X130225595Y-84597676D02*
X130273214Y-84692914D01*
X130273214Y-84692914D02*
X130320833Y-84883390D01*
X130320833Y-84883390D02*
X130320833Y-85026247D01*
X130320833Y-85026247D02*
X130273214Y-85216723D01*
X130273214Y-85216723D02*
X130225595Y-85311961D01*
X130225595Y-85311961D02*
X130130357Y-85407200D01*
X130130357Y-85407200D02*
X129987500Y-85454819D01*
X129987500Y-85454819D02*
X129749405Y-85454819D01*
X131177976Y-84788152D02*
X131177976Y-85454819D01*
X130939881Y-84407200D02*
X130701786Y-85121485D01*
X130701786Y-85121485D02*
X131320833Y-85121485D01*
X71554819Y-92583333D02*
X72269104Y-92583333D01*
X72269104Y-92583333D02*
X72411961Y-92630952D01*
X72411961Y-92630952D02*
X72507200Y-92726190D01*
X72507200Y-92726190D02*
X72554819Y-92869047D01*
X72554819Y-92869047D02*
X72554819Y-92964285D01*
X72554819Y-92107142D02*
X71554819Y-92107142D01*
X71554819Y-92107142D02*
X71554819Y-91726190D01*
X71554819Y-91726190D02*
X71602438Y-91630952D01*
X71602438Y-91630952D02*
X71650057Y-91583333D01*
X71650057Y-91583333D02*
X71745295Y-91535714D01*
X71745295Y-91535714D02*
X71888152Y-91535714D01*
X71888152Y-91535714D02*
X71983390Y-91583333D01*
X71983390Y-91583333D02*
X72031009Y-91630952D01*
X72031009Y-91630952D02*
X72078628Y-91726190D01*
X72078628Y-91726190D02*
X72078628Y-92107142D01*
X72554819Y-90583333D02*
X72554819Y-91154761D01*
X72554819Y-90869047D02*
X71554819Y-90869047D01*
X71554819Y-90869047D02*
X71697676Y-90964285D01*
X71697676Y-90964285D02*
X71792914Y-91059523D01*
X71792914Y-91059523D02*
X71840533Y-91154761D01*
X78133333Y-149659580D02*
X78085714Y-149707200D01*
X78085714Y-149707200D02*
X77942857Y-149754819D01*
X77942857Y-149754819D02*
X77847619Y-149754819D01*
X77847619Y-149754819D02*
X77704762Y-149707200D01*
X77704762Y-149707200D02*
X77609524Y-149611961D01*
X77609524Y-149611961D02*
X77561905Y-149516723D01*
X77561905Y-149516723D02*
X77514286Y-149326247D01*
X77514286Y-149326247D02*
X77514286Y-149183390D01*
X77514286Y-149183390D02*
X77561905Y-148992914D01*
X77561905Y-148992914D02*
X77609524Y-148897676D01*
X77609524Y-148897676D02*
X77704762Y-148802438D01*
X77704762Y-148802438D02*
X77847619Y-148754819D01*
X77847619Y-148754819D02*
X77942857Y-148754819D01*
X77942857Y-148754819D02*
X78085714Y-148802438D01*
X78085714Y-148802438D02*
X78133333Y-148850057D01*
X78704762Y-149183390D02*
X78609524Y-149135771D01*
X78609524Y-149135771D02*
X78561905Y-149088152D01*
X78561905Y-149088152D02*
X78514286Y-148992914D01*
X78514286Y-148992914D02*
X78514286Y-148945295D01*
X78514286Y-148945295D02*
X78561905Y-148850057D01*
X78561905Y-148850057D02*
X78609524Y-148802438D01*
X78609524Y-148802438D02*
X78704762Y-148754819D01*
X78704762Y-148754819D02*
X78895238Y-148754819D01*
X78895238Y-148754819D02*
X78990476Y-148802438D01*
X78990476Y-148802438D02*
X79038095Y-148850057D01*
X79038095Y-148850057D02*
X79085714Y-148945295D01*
X79085714Y-148945295D02*
X79085714Y-148992914D01*
X79085714Y-148992914D02*
X79038095Y-149088152D01*
X79038095Y-149088152D02*
X78990476Y-149135771D01*
X78990476Y-149135771D02*
X78895238Y-149183390D01*
X78895238Y-149183390D02*
X78704762Y-149183390D01*
X78704762Y-149183390D02*
X78609524Y-149231009D01*
X78609524Y-149231009D02*
X78561905Y-149278628D01*
X78561905Y-149278628D02*
X78514286Y-149373866D01*
X78514286Y-149373866D02*
X78514286Y-149564342D01*
X78514286Y-149564342D02*
X78561905Y-149659580D01*
X78561905Y-149659580D02*
X78609524Y-149707200D01*
X78609524Y-149707200D02*
X78704762Y-149754819D01*
X78704762Y-149754819D02*
X78895238Y-149754819D01*
X78895238Y-149754819D02*
X78990476Y-149707200D01*
X78990476Y-149707200D02*
X79038095Y-149659580D01*
X79038095Y-149659580D02*
X79085714Y-149564342D01*
X79085714Y-149564342D02*
X79085714Y-149373866D01*
X79085714Y-149373866D02*
X79038095Y-149278628D01*
X79038095Y-149278628D02*
X78990476Y-149231009D01*
X78990476Y-149231009D02*
X78895238Y-149183390D01*
X133838095Y-63407200D02*
X133980952Y-63454819D01*
X133980952Y-63454819D02*
X134219047Y-63454819D01*
X134219047Y-63454819D02*
X134314285Y-63407200D01*
X134314285Y-63407200D02*
X134361904Y-63359580D01*
X134361904Y-63359580D02*
X134409523Y-63264342D01*
X134409523Y-63264342D02*
X134409523Y-63169104D01*
X134409523Y-63169104D02*
X134361904Y-63073866D01*
X134361904Y-63073866D02*
X134314285Y-63026247D01*
X134314285Y-63026247D02*
X134219047Y-62978628D01*
X134219047Y-62978628D02*
X134028571Y-62931009D01*
X134028571Y-62931009D02*
X133933333Y-62883390D01*
X133933333Y-62883390D02*
X133885714Y-62835771D01*
X133885714Y-62835771D02*
X133838095Y-62740533D01*
X133838095Y-62740533D02*
X133838095Y-62645295D01*
X133838095Y-62645295D02*
X133885714Y-62550057D01*
X133885714Y-62550057D02*
X133933333Y-62502438D01*
X133933333Y-62502438D02*
X134028571Y-62454819D01*
X134028571Y-62454819D02*
X134266666Y-62454819D01*
X134266666Y-62454819D02*
X134409523Y-62502438D01*
X135361904Y-63454819D02*
X134790476Y-63454819D01*
X135076190Y-63454819D02*
X135076190Y-62454819D01*
X135076190Y-62454819D02*
X134980952Y-62597676D01*
X134980952Y-62597676D02*
X134885714Y-62692914D01*
X134885714Y-62692914D02*
X134790476Y-62740533D01*
X129773214Y-83254819D02*
X129773214Y-82254819D01*
X129773214Y-82254819D02*
X130011309Y-82254819D01*
X130011309Y-82254819D02*
X130154166Y-82302438D01*
X130154166Y-82302438D02*
X130249404Y-82397676D01*
X130249404Y-82397676D02*
X130297023Y-82492914D01*
X130297023Y-82492914D02*
X130344642Y-82683390D01*
X130344642Y-82683390D02*
X130344642Y-82826247D01*
X130344642Y-82826247D02*
X130297023Y-83016723D01*
X130297023Y-83016723D02*
X130249404Y-83111961D01*
X130249404Y-83111961D02*
X130154166Y-83207200D01*
X130154166Y-83207200D02*
X130011309Y-83254819D01*
X130011309Y-83254819D02*
X129773214Y-83254819D01*
X131297023Y-83254819D02*
X130725595Y-83254819D01*
X131011309Y-83254819D02*
X131011309Y-82254819D01*
X131011309Y-82254819D02*
X130916071Y-82397676D01*
X130916071Y-82397676D02*
X130820833Y-82492914D01*
X130820833Y-82492914D02*
X130725595Y-82540533D01*
X132154166Y-82588152D02*
X132154166Y-83254819D01*
X131916071Y-82207200D02*
X131677976Y-82921485D01*
X131677976Y-82921485D02*
X132297023Y-82921485D01*
X90804762Y-133404819D02*
X91138095Y-134404819D01*
X91138095Y-134404819D02*
X91471428Y-133404819D01*
X91804762Y-134404819D02*
X91804762Y-133404819D01*
X91804762Y-133881009D02*
X92376190Y-133881009D01*
X92376190Y-134404819D02*
X92376190Y-133404819D01*
X92852381Y-134404819D02*
X92852381Y-133404819D01*
X93852380Y-133452438D02*
X93757142Y-133404819D01*
X93757142Y-133404819D02*
X93614285Y-133404819D01*
X93614285Y-133404819D02*
X93471428Y-133452438D01*
X93471428Y-133452438D02*
X93376190Y-133547676D01*
X93376190Y-133547676D02*
X93328571Y-133642914D01*
X93328571Y-133642914D02*
X93280952Y-133833390D01*
X93280952Y-133833390D02*
X93280952Y-133976247D01*
X93280952Y-133976247D02*
X93328571Y-134166723D01*
X93328571Y-134166723D02*
X93376190Y-134261961D01*
X93376190Y-134261961D02*
X93471428Y-134357200D01*
X93471428Y-134357200D02*
X93614285Y-134404819D01*
X93614285Y-134404819D02*
X93709523Y-134404819D01*
X93709523Y-134404819D02*
X93852380Y-134357200D01*
X93852380Y-134357200D02*
X93899999Y-134309580D01*
X93899999Y-134309580D02*
X93899999Y-133976247D01*
X93899999Y-133976247D02*
X93709523Y-133976247D01*
X94328571Y-134404819D02*
X94328571Y-133404819D01*
X94328571Y-133881009D02*
X94899999Y-133881009D01*
X94899999Y-134404819D02*
X94899999Y-133404819D01*
X95899999Y-134404819D02*
X95328571Y-134404819D01*
X95614285Y-134404819D02*
X95614285Y-133404819D01*
X95614285Y-133404819D02*
X95519047Y-133547676D01*
X95519047Y-133547676D02*
X95423809Y-133642914D01*
X95423809Y-133642914D02*
X95328571Y-133690533D01*
X129749405Y-90154819D02*
X129749405Y-89154819D01*
X129749405Y-89154819D02*
X129987500Y-89154819D01*
X129987500Y-89154819D02*
X130130357Y-89202438D01*
X130130357Y-89202438D02*
X130225595Y-89297676D01*
X130225595Y-89297676D02*
X130273214Y-89392914D01*
X130273214Y-89392914D02*
X130320833Y-89583390D01*
X130320833Y-89583390D02*
X130320833Y-89726247D01*
X130320833Y-89726247D02*
X130273214Y-89916723D01*
X130273214Y-89916723D02*
X130225595Y-90011961D01*
X130225595Y-90011961D02*
X130130357Y-90107200D01*
X130130357Y-90107200D02*
X129987500Y-90154819D01*
X129987500Y-90154819D02*
X129749405Y-90154819D01*
X130797024Y-90154819D02*
X130987500Y-90154819D01*
X130987500Y-90154819D02*
X131082738Y-90107200D01*
X131082738Y-90107200D02*
X131130357Y-90059580D01*
X131130357Y-90059580D02*
X131225595Y-89916723D01*
X131225595Y-89916723D02*
X131273214Y-89726247D01*
X131273214Y-89726247D02*
X131273214Y-89345295D01*
X131273214Y-89345295D02*
X131225595Y-89250057D01*
X131225595Y-89250057D02*
X131177976Y-89202438D01*
X131177976Y-89202438D02*
X131082738Y-89154819D01*
X131082738Y-89154819D02*
X130892262Y-89154819D01*
X130892262Y-89154819D02*
X130797024Y-89202438D01*
X130797024Y-89202438D02*
X130749405Y-89250057D01*
X130749405Y-89250057D02*
X130701786Y-89345295D01*
X130701786Y-89345295D02*
X130701786Y-89583390D01*
X130701786Y-89583390D02*
X130749405Y-89678628D01*
X130749405Y-89678628D02*
X130797024Y-89726247D01*
X130797024Y-89726247D02*
X130892262Y-89773866D01*
X130892262Y-89773866D02*
X131082738Y-89773866D01*
X131082738Y-89773866D02*
X131177976Y-89726247D01*
X131177976Y-89726247D02*
X131225595Y-89678628D01*
X131225595Y-89678628D02*
X131273214Y-89583390D01*
X107519048Y-86904819D02*
X107519048Y-85904819D01*
X107519048Y-85904819D02*
X107900000Y-85904819D01*
X107900000Y-85904819D02*
X107995238Y-85952438D01*
X107995238Y-85952438D02*
X108042857Y-86000057D01*
X108042857Y-86000057D02*
X108090476Y-86095295D01*
X108090476Y-86095295D02*
X108090476Y-86238152D01*
X108090476Y-86238152D02*
X108042857Y-86333390D01*
X108042857Y-86333390D02*
X107995238Y-86381009D01*
X107995238Y-86381009D02*
X107900000Y-86428628D01*
X107900000Y-86428628D02*
X107519048Y-86428628D01*
X108423810Y-85904819D02*
X108661905Y-86904819D01*
X108661905Y-86904819D02*
X108852381Y-86190533D01*
X108852381Y-86190533D02*
X109042857Y-86904819D01*
X109042857Y-86904819D02*
X109280953Y-85904819D01*
X109661905Y-86904819D02*
X109661905Y-85904819D01*
X109661905Y-85904819D02*
X109995238Y-86619104D01*
X109995238Y-86619104D02*
X110328571Y-85904819D01*
X110328571Y-85904819D02*
X110328571Y-86904819D01*
X111328571Y-86904819D02*
X110757143Y-86904819D01*
X111042857Y-86904819D02*
X111042857Y-85904819D01*
X111042857Y-85904819D02*
X110947619Y-86047676D01*
X110947619Y-86047676D02*
X110852381Y-86142914D01*
X110852381Y-86142914D02*
X110757143Y-86190533D01*
X75442557Y-161855238D02*
X75394938Y-161950476D01*
X75394938Y-161950476D02*
X75299700Y-162045714D01*
X75299700Y-162045714D02*
X75156842Y-162188571D01*
X75156842Y-162188571D02*
X75109223Y-162283809D01*
X75109223Y-162283809D02*
X75109223Y-162379047D01*
X75347319Y-162331428D02*
X75299700Y-162426666D01*
X75299700Y-162426666D02*
X75204461Y-162521904D01*
X75204461Y-162521904D02*
X75013985Y-162569523D01*
X75013985Y-162569523D02*
X74680652Y-162569523D01*
X74680652Y-162569523D02*
X74490176Y-162521904D01*
X74490176Y-162521904D02*
X74394938Y-162426666D01*
X74394938Y-162426666D02*
X74347319Y-162331428D01*
X74347319Y-162331428D02*
X74347319Y-162140952D01*
X74347319Y-162140952D02*
X74394938Y-162045714D01*
X74394938Y-162045714D02*
X74490176Y-161950476D01*
X74490176Y-161950476D02*
X74680652Y-161902857D01*
X74680652Y-161902857D02*
X75013985Y-161902857D01*
X75013985Y-161902857D02*
X75204461Y-161950476D01*
X75204461Y-161950476D02*
X75299700Y-162045714D01*
X75299700Y-162045714D02*
X75347319Y-162140952D01*
X75347319Y-162140952D02*
X75347319Y-162331428D01*
X74347319Y-161569523D02*
X74347319Y-160950476D01*
X74347319Y-160950476D02*
X74728271Y-161283809D01*
X74728271Y-161283809D02*
X74728271Y-161140952D01*
X74728271Y-161140952D02*
X74775890Y-161045714D01*
X74775890Y-161045714D02*
X74823509Y-160998095D01*
X74823509Y-160998095D02*
X74918747Y-160950476D01*
X74918747Y-160950476D02*
X75156842Y-160950476D01*
X75156842Y-160950476D02*
X75252080Y-160998095D01*
X75252080Y-160998095D02*
X75299700Y-161045714D01*
X75299700Y-161045714D02*
X75347319Y-161140952D01*
X75347319Y-161140952D02*
X75347319Y-161426666D01*
X75347319Y-161426666D02*
X75299700Y-161521904D01*
X75299700Y-161521904D02*
X75252080Y-161569523D01*
X62638095Y-145454819D02*
X62638095Y-146264342D01*
X62638095Y-146264342D02*
X62685714Y-146359580D01*
X62685714Y-146359580D02*
X62733333Y-146407200D01*
X62733333Y-146407200D02*
X62828571Y-146454819D01*
X62828571Y-146454819D02*
X63019047Y-146454819D01*
X63019047Y-146454819D02*
X63114285Y-146407200D01*
X63114285Y-146407200D02*
X63161904Y-146359580D01*
X63161904Y-146359580D02*
X63209523Y-146264342D01*
X63209523Y-146264342D02*
X63209523Y-145454819D01*
X64209523Y-146454819D02*
X63638095Y-146454819D01*
X63923809Y-146454819D02*
X63923809Y-145454819D01*
X63923809Y-145454819D02*
X63828571Y-145597676D01*
X63828571Y-145597676D02*
X63733333Y-145692914D01*
X63733333Y-145692914D02*
X63638095Y-145740533D01*
X107863095Y-80742200D02*
X108005952Y-80789819D01*
X108005952Y-80789819D02*
X108244047Y-80789819D01*
X108244047Y-80789819D02*
X108339285Y-80742200D01*
X108339285Y-80742200D02*
X108386904Y-80694580D01*
X108386904Y-80694580D02*
X108434523Y-80599342D01*
X108434523Y-80599342D02*
X108434523Y-80504104D01*
X108434523Y-80504104D02*
X108386904Y-80408866D01*
X108386904Y-80408866D02*
X108339285Y-80361247D01*
X108339285Y-80361247D02*
X108244047Y-80313628D01*
X108244047Y-80313628D02*
X108053571Y-80266009D01*
X108053571Y-80266009D02*
X107958333Y-80218390D01*
X107958333Y-80218390D02*
X107910714Y-80170771D01*
X107910714Y-80170771D02*
X107863095Y-80075533D01*
X107863095Y-80075533D02*
X107863095Y-79980295D01*
X107863095Y-79980295D02*
X107910714Y-79885057D01*
X107910714Y-79885057D02*
X107958333Y-79837438D01*
X107958333Y-79837438D02*
X108053571Y-79789819D01*
X108053571Y-79789819D02*
X108291666Y-79789819D01*
X108291666Y-79789819D02*
X108434523Y-79837438D01*
X109291666Y-80123152D02*
X109291666Y-80789819D01*
X109053571Y-79742200D02*
X108815476Y-80456485D01*
X108815476Y-80456485D02*
X109434523Y-80456485D01*
X133157142Y-141859580D02*
X133109523Y-141907200D01*
X133109523Y-141907200D02*
X132966666Y-141954819D01*
X132966666Y-141954819D02*
X132871428Y-141954819D01*
X132871428Y-141954819D02*
X132728571Y-141907200D01*
X132728571Y-141907200D02*
X132633333Y-141811961D01*
X132633333Y-141811961D02*
X132585714Y-141716723D01*
X132585714Y-141716723D02*
X132538095Y-141526247D01*
X132538095Y-141526247D02*
X132538095Y-141383390D01*
X132538095Y-141383390D02*
X132585714Y-141192914D01*
X132585714Y-141192914D02*
X132633333Y-141097676D01*
X132633333Y-141097676D02*
X132728571Y-141002438D01*
X132728571Y-141002438D02*
X132871428Y-140954819D01*
X132871428Y-140954819D02*
X132966666Y-140954819D01*
X132966666Y-140954819D02*
X133109523Y-141002438D01*
X133109523Y-141002438D02*
X133157142Y-141050057D01*
X134109523Y-141954819D02*
X133538095Y-141954819D01*
X133823809Y-141954819D02*
X133823809Y-140954819D01*
X133823809Y-140954819D02*
X133728571Y-141097676D01*
X133728571Y-141097676D02*
X133633333Y-141192914D01*
X133633333Y-141192914D02*
X133538095Y-141240533D01*
X134966666Y-140954819D02*
X134776190Y-140954819D01*
X134776190Y-140954819D02*
X134680952Y-141002438D01*
X134680952Y-141002438D02*
X134633333Y-141050057D01*
X134633333Y-141050057D02*
X134538095Y-141192914D01*
X134538095Y-141192914D02*
X134490476Y-141383390D01*
X134490476Y-141383390D02*
X134490476Y-141764342D01*
X134490476Y-141764342D02*
X134538095Y-141859580D01*
X134538095Y-141859580D02*
X134585714Y-141907200D01*
X134585714Y-141907200D02*
X134680952Y-141954819D01*
X134680952Y-141954819D02*
X134871428Y-141954819D01*
X134871428Y-141954819D02*
X134966666Y-141907200D01*
X134966666Y-141907200D02*
X135014285Y-141859580D01*
X135014285Y-141859580D02*
X135061904Y-141764342D01*
X135061904Y-141764342D02*
X135061904Y-141526247D01*
X135061904Y-141526247D02*
X135014285Y-141431009D01*
X135014285Y-141431009D02*
X134966666Y-141383390D01*
X134966666Y-141383390D02*
X134871428Y-141335771D01*
X134871428Y-141335771D02*
X134680952Y-141335771D01*
X134680952Y-141335771D02*
X134585714Y-141383390D01*
X134585714Y-141383390D02*
X134538095Y-141431009D01*
X134538095Y-141431009D02*
X134490476Y-141526247D01*
X107469642Y-170204819D02*
X107136309Y-169728628D01*
X106898214Y-170204819D02*
X106898214Y-169204819D01*
X106898214Y-169204819D02*
X107279166Y-169204819D01*
X107279166Y-169204819D02*
X107374404Y-169252438D01*
X107374404Y-169252438D02*
X107422023Y-169300057D01*
X107422023Y-169300057D02*
X107469642Y-169395295D01*
X107469642Y-169395295D02*
X107469642Y-169538152D01*
X107469642Y-169538152D02*
X107422023Y-169633390D01*
X107422023Y-169633390D02*
X107374404Y-169681009D01*
X107374404Y-169681009D02*
X107279166Y-169728628D01*
X107279166Y-169728628D02*
X106898214Y-169728628D01*
X107802976Y-169204819D02*
X108422023Y-169204819D01*
X108422023Y-169204819D02*
X108088690Y-169585771D01*
X108088690Y-169585771D02*
X108231547Y-169585771D01*
X108231547Y-169585771D02*
X108326785Y-169633390D01*
X108326785Y-169633390D02*
X108374404Y-169681009D01*
X108374404Y-169681009D02*
X108422023Y-169776247D01*
X108422023Y-169776247D02*
X108422023Y-170014342D01*
X108422023Y-170014342D02*
X108374404Y-170109580D01*
X108374404Y-170109580D02*
X108326785Y-170157200D01*
X108326785Y-170157200D02*
X108231547Y-170204819D01*
X108231547Y-170204819D02*
X107945833Y-170204819D01*
X107945833Y-170204819D02*
X107850595Y-170157200D01*
X107850595Y-170157200D02*
X107802976Y-170109580D01*
X109374404Y-170204819D02*
X108802976Y-170204819D01*
X109088690Y-170204819D02*
X109088690Y-169204819D01*
X109088690Y-169204819D02*
X108993452Y-169347676D01*
X108993452Y-169347676D02*
X108898214Y-169442914D01*
X108898214Y-169442914D02*
X108802976Y-169490533D01*
X66233333Y-69654819D02*
X65900000Y-69178628D01*
X65661905Y-69654819D02*
X65661905Y-68654819D01*
X65661905Y-68654819D02*
X66042857Y-68654819D01*
X66042857Y-68654819D02*
X66138095Y-68702438D01*
X66138095Y-68702438D02*
X66185714Y-68750057D01*
X66185714Y-68750057D02*
X66233333Y-68845295D01*
X66233333Y-68845295D02*
X66233333Y-68988152D01*
X66233333Y-68988152D02*
X66185714Y-69083390D01*
X66185714Y-69083390D02*
X66138095Y-69131009D01*
X66138095Y-69131009D02*
X66042857Y-69178628D01*
X66042857Y-69178628D02*
X65661905Y-69178628D01*
X66709524Y-69654819D02*
X66900000Y-69654819D01*
X66900000Y-69654819D02*
X66995238Y-69607200D01*
X66995238Y-69607200D02*
X67042857Y-69559580D01*
X67042857Y-69559580D02*
X67138095Y-69416723D01*
X67138095Y-69416723D02*
X67185714Y-69226247D01*
X67185714Y-69226247D02*
X67185714Y-68845295D01*
X67185714Y-68845295D02*
X67138095Y-68750057D01*
X67138095Y-68750057D02*
X67090476Y-68702438D01*
X67090476Y-68702438D02*
X66995238Y-68654819D01*
X66995238Y-68654819D02*
X66804762Y-68654819D01*
X66804762Y-68654819D02*
X66709524Y-68702438D01*
X66709524Y-68702438D02*
X66661905Y-68750057D01*
X66661905Y-68750057D02*
X66614286Y-68845295D01*
X66614286Y-68845295D02*
X66614286Y-69083390D01*
X66614286Y-69083390D02*
X66661905Y-69178628D01*
X66661905Y-69178628D02*
X66709524Y-69226247D01*
X66709524Y-69226247D02*
X66804762Y-69273866D01*
X66804762Y-69273866D02*
X66995238Y-69273866D01*
X66995238Y-69273866D02*
X67090476Y-69226247D01*
X67090476Y-69226247D02*
X67138095Y-69178628D01*
X67138095Y-69178628D02*
X67185714Y-69083390D01*
X71157142Y-63759580D02*
X71109523Y-63807200D01*
X71109523Y-63807200D02*
X70966666Y-63854819D01*
X70966666Y-63854819D02*
X70871428Y-63854819D01*
X70871428Y-63854819D02*
X70728571Y-63807200D01*
X70728571Y-63807200D02*
X70633333Y-63711961D01*
X70633333Y-63711961D02*
X70585714Y-63616723D01*
X70585714Y-63616723D02*
X70538095Y-63426247D01*
X70538095Y-63426247D02*
X70538095Y-63283390D01*
X70538095Y-63283390D02*
X70585714Y-63092914D01*
X70585714Y-63092914D02*
X70633333Y-62997676D01*
X70633333Y-62997676D02*
X70728571Y-62902438D01*
X70728571Y-62902438D02*
X70871428Y-62854819D01*
X70871428Y-62854819D02*
X70966666Y-62854819D01*
X70966666Y-62854819D02*
X71109523Y-62902438D01*
X71109523Y-62902438D02*
X71157142Y-62950057D01*
X71538095Y-62950057D02*
X71585714Y-62902438D01*
X71585714Y-62902438D02*
X71680952Y-62854819D01*
X71680952Y-62854819D02*
X71919047Y-62854819D01*
X71919047Y-62854819D02*
X72014285Y-62902438D01*
X72014285Y-62902438D02*
X72061904Y-62950057D01*
X72061904Y-62950057D02*
X72109523Y-63045295D01*
X72109523Y-63045295D02*
X72109523Y-63140533D01*
X72109523Y-63140533D02*
X72061904Y-63283390D01*
X72061904Y-63283390D02*
X71490476Y-63854819D01*
X71490476Y-63854819D02*
X72109523Y-63854819D01*
X72966666Y-63188152D02*
X72966666Y-63854819D01*
X72728571Y-62807200D02*
X72490476Y-63521485D01*
X72490476Y-63521485D02*
X73109523Y-63521485D01*
X129573214Y-81054819D02*
X129573214Y-80054819D01*
X129573214Y-80054819D02*
X129811309Y-80054819D01*
X129811309Y-80054819D02*
X129954166Y-80102438D01*
X129954166Y-80102438D02*
X130049404Y-80197676D01*
X130049404Y-80197676D02*
X130097023Y-80292914D01*
X130097023Y-80292914D02*
X130144642Y-80483390D01*
X130144642Y-80483390D02*
X130144642Y-80626247D01*
X130144642Y-80626247D02*
X130097023Y-80816723D01*
X130097023Y-80816723D02*
X130049404Y-80911961D01*
X130049404Y-80911961D02*
X129954166Y-81007200D01*
X129954166Y-81007200D02*
X129811309Y-81054819D01*
X129811309Y-81054819D02*
X129573214Y-81054819D01*
X131097023Y-81054819D02*
X130525595Y-81054819D01*
X130811309Y-81054819D02*
X130811309Y-80054819D01*
X130811309Y-80054819D02*
X130716071Y-80197676D01*
X130716071Y-80197676D02*
X130620833Y-80292914D01*
X130620833Y-80292914D02*
X130525595Y-80340533D01*
X131430357Y-80054819D02*
X132049404Y-80054819D01*
X132049404Y-80054819D02*
X131716071Y-80435771D01*
X131716071Y-80435771D02*
X131858928Y-80435771D01*
X131858928Y-80435771D02*
X131954166Y-80483390D01*
X131954166Y-80483390D02*
X132001785Y-80531009D01*
X132001785Y-80531009D02*
X132049404Y-80626247D01*
X132049404Y-80626247D02*
X132049404Y-80864342D01*
X132049404Y-80864342D02*
X132001785Y-80959580D01*
X132001785Y-80959580D02*
X131954166Y-81007200D01*
X131954166Y-81007200D02*
X131858928Y-81054819D01*
X131858928Y-81054819D02*
X131573214Y-81054819D01*
X131573214Y-81054819D02*
X131477976Y-81007200D01*
X131477976Y-81007200D02*
X131430357Y-80959580D01*
X133914285Y-180754819D02*
X134104761Y-180754819D01*
X134104761Y-180754819D02*
X134199999Y-180802438D01*
X134199999Y-180802438D02*
X134295237Y-180897676D01*
X134295237Y-180897676D02*
X134342856Y-181088152D01*
X134342856Y-181088152D02*
X134342856Y-181421485D01*
X134342856Y-181421485D02*
X134295237Y-181611961D01*
X134295237Y-181611961D02*
X134199999Y-181707200D01*
X134199999Y-181707200D02*
X134104761Y-181754819D01*
X134104761Y-181754819D02*
X133914285Y-181754819D01*
X133914285Y-181754819D02*
X133819047Y-181707200D01*
X133819047Y-181707200D02*
X133723809Y-181611961D01*
X133723809Y-181611961D02*
X133676190Y-181421485D01*
X133676190Y-181421485D02*
X133676190Y-181088152D01*
X133676190Y-181088152D02*
X133723809Y-180897676D01*
X133723809Y-180897676D02*
X133819047Y-180802438D01*
X133819047Y-180802438D02*
X133914285Y-180754819D01*
X134771428Y-180754819D02*
X134771428Y-181564342D01*
X134771428Y-181564342D02*
X134819047Y-181659580D01*
X134819047Y-181659580D02*
X134866666Y-181707200D01*
X134866666Y-181707200D02*
X134961904Y-181754819D01*
X134961904Y-181754819D02*
X135152380Y-181754819D01*
X135152380Y-181754819D02*
X135247618Y-181707200D01*
X135247618Y-181707200D02*
X135295237Y-181659580D01*
X135295237Y-181659580D02*
X135342856Y-181564342D01*
X135342856Y-181564342D02*
X135342856Y-180754819D01*
X135676190Y-180754819D02*
X136247618Y-180754819D01*
X135961904Y-181754819D02*
X135961904Y-180754819D01*
X137819047Y-181754819D02*
X137342857Y-181754819D01*
X137342857Y-181754819D02*
X137342857Y-180754819D01*
X57054761Y-168587557D02*
X56959523Y-168539938D01*
X56959523Y-168539938D02*
X56864285Y-168444700D01*
X56864285Y-168444700D02*
X56721428Y-168301842D01*
X56721428Y-168301842D02*
X56626190Y-168254223D01*
X56626190Y-168254223D02*
X56530952Y-168254223D01*
X56578571Y-168492319D02*
X56483333Y-168444700D01*
X56483333Y-168444700D02*
X56388095Y-168349461D01*
X56388095Y-168349461D02*
X56340476Y-168158985D01*
X56340476Y-168158985D02*
X56340476Y-167825652D01*
X56340476Y-167825652D02*
X56388095Y-167635176D01*
X56388095Y-167635176D02*
X56483333Y-167539938D01*
X56483333Y-167539938D02*
X56578571Y-167492319D01*
X56578571Y-167492319D02*
X56769047Y-167492319D01*
X56769047Y-167492319D02*
X56864285Y-167539938D01*
X56864285Y-167539938D02*
X56959523Y-167635176D01*
X56959523Y-167635176D02*
X57007142Y-167825652D01*
X57007142Y-167825652D02*
X57007142Y-168158985D01*
X57007142Y-168158985D02*
X56959523Y-168349461D01*
X56959523Y-168349461D02*
X56864285Y-168444700D01*
X56864285Y-168444700D02*
X56769047Y-168492319D01*
X56769047Y-168492319D02*
X56578571Y-168492319D01*
X57864285Y-167825652D02*
X57864285Y-168492319D01*
X57626190Y-167444700D02*
X57388095Y-168158985D01*
X57388095Y-168158985D02*
X58007142Y-168158985D01*
X113166666Y-100684819D02*
X113166666Y-101399104D01*
X113166666Y-101399104D02*
X113119047Y-101541961D01*
X113119047Y-101541961D02*
X113023809Y-101637200D01*
X113023809Y-101637200D02*
X112880952Y-101684819D01*
X112880952Y-101684819D02*
X112785714Y-101684819D01*
X114119047Y-100684819D02*
X113642857Y-100684819D01*
X113642857Y-100684819D02*
X113595238Y-101161009D01*
X113595238Y-101161009D02*
X113642857Y-101113390D01*
X113642857Y-101113390D02*
X113738095Y-101065771D01*
X113738095Y-101065771D02*
X113976190Y-101065771D01*
X113976190Y-101065771D02*
X114071428Y-101113390D01*
X114071428Y-101113390D02*
X114119047Y-101161009D01*
X114119047Y-101161009D02*
X114166666Y-101256247D01*
X114166666Y-101256247D02*
X114166666Y-101494342D01*
X114166666Y-101494342D02*
X114119047Y-101589580D01*
X114119047Y-101589580D02*
X114071428Y-101637200D01*
X114071428Y-101637200D02*
X113976190Y-101684819D01*
X113976190Y-101684819D02*
X113738095Y-101684819D01*
X113738095Y-101684819D02*
X113642857Y-101637200D01*
X113642857Y-101637200D02*
X113595238Y-101589580D01*
X68104819Y-96216666D02*
X67628628Y-96549999D01*
X68104819Y-96788094D02*
X67104819Y-96788094D01*
X67104819Y-96788094D02*
X67104819Y-96407142D01*
X67104819Y-96407142D02*
X67152438Y-96311904D01*
X67152438Y-96311904D02*
X67200057Y-96264285D01*
X67200057Y-96264285D02*
X67295295Y-96216666D01*
X67295295Y-96216666D02*
X67438152Y-96216666D01*
X67438152Y-96216666D02*
X67533390Y-96264285D01*
X67533390Y-96264285D02*
X67581009Y-96311904D01*
X67581009Y-96311904D02*
X67628628Y-96407142D01*
X67628628Y-96407142D02*
X67628628Y-96788094D01*
X67200057Y-95835713D02*
X67152438Y-95788094D01*
X67152438Y-95788094D02*
X67104819Y-95692856D01*
X67104819Y-95692856D02*
X67104819Y-95454761D01*
X67104819Y-95454761D02*
X67152438Y-95359523D01*
X67152438Y-95359523D02*
X67200057Y-95311904D01*
X67200057Y-95311904D02*
X67295295Y-95264285D01*
X67295295Y-95264285D02*
X67390533Y-95264285D01*
X67390533Y-95264285D02*
X67533390Y-95311904D01*
X67533390Y-95311904D02*
X68104819Y-95883332D01*
X68104819Y-95883332D02*
X68104819Y-95264285D01*
X120083333Y-85454819D02*
X119750000Y-84978628D01*
X119511905Y-85454819D02*
X119511905Y-84454819D01*
X119511905Y-84454819D02*
X119892857Y-84454819D01*
X119892857Y-84454819D02*
X119988095Y-84502438D01*
X119988095Y-84502438D02*
X120035714Y-84550057D01*
X120035714Y-84550057D02*
X120083333Y-84645295D01*
X120083333Y-84645295D02*
X120083333Y-84788152D01*
X120083333Y-84788152D02*
X120035714Y-84883390D01*
X120035714Y-84883390D02*
X119988095Y-84931009D01*
X119988095Y-84931009D02*
X119892857Y-84978628D01*
X119892857Y-84978628D02*
X119511905Y-84978628D01*
X120654762Y-84883390D02*
X120559524Y-84835771D01*
X120559524Y-84835771D02*
X120511905Y-84788152D01*
X120511905Y-84788152D02*
X120464286Y-84692914D01*
X120464286Y-84692914D02*
X120464286Y-84645295D01*
X120464286Y-84645295D02*
X120511905Y-84550057D01*
X120511905Y-84550057D02*
X120559524Y-84502438D01*
X120559524Y-84502438D02*
X120654762Y-84454819D01*
X120654762Y-84454819D02*
X120845238Y-84454819D01*
X120845238Y-84454819D02*
X120940476Y-84502438D01*
X120940476Y-84502438D02*
X120988095Y-84550057D01*
X120988095Y-84550057D02*
X121035714Y-84645295D01*
X121035714Y-84645295D02*
X121035714Y-84692914D01*
X121035714Y-84692914D02*
X120988095Y-84788152D01*
X120988095Y-84788152D02*
X120940476Y-84835771D01*
X120940476Y-84835771D02*
X120845238Y-84883390D01*
X120845238Y-84883390D02*
X120654762Y-84883390D01*
X120654762Y-84883390D02*
X120559524Y-84931009D01*
X120559524Y-84931009D02*
X120511905Y-84978628D01*
X120511905Y-84978628D02*
X120464286Y-85073866D01*
X120464286Y-85073866D02*
X120464286Y-85264342D01*
X120464286Y-85264342D02*
X120511905Y-85359580D01*
X120511905Y-85359580D02*
X120559524Y-85407200D01*
X120559524Y-85407200D02*
X120654762Y-85454819D01*
X120654762Y-85454819D02*
X120845238Y-85454819D01*
X120845238Y-85454819D02*
X120940476Y-85407200D01*
X120940476Y-85407200D02*
X120988095Y-85359580D01*
X120988095Y-85359580D02*
X121035714Y-85264342D01*
X121035714Y-85264342D02*
X121035714Y-85073866D01*
X121035714Y-85073866D02*
X120988095Y-84978628D01*
X120988095Y-84978628D02*
X120940476Y-84931009D01*
X120940476Y-84931009D02*
X120845238Y-84883390D01*
X129549405Y-92454819D02*
X129549405Y-91454819D01*
X129549405Y-91454819D02*
X129787500Y-91454819D01*
X129787500Y-91454819D02*
X129930357Y-91502438D01*
X129930357Y-91502438D02*
X130025595Y-91597676D01*
X130025595Y-91597676D02*
X130073214Y-91692914D01*
X130073214Y-91692914D02*
X130120833Y-91883390D01*
X130120833Y-91883390D02*
X130120833Y-92026247D01*
X130120833Y-92026247D02*
X130073214Y-92216723D01*
X130073214Y-92216723D02*
X130025595Y-92311961D01*
X130025595Y-92311961D02*
X129930357Y-92407200D01*
X129930357Y-92407200D02*
X129787500Y-92454819D01*
X129787500Y-92454819D02*
X129549405Y-92454819D01*
X130692262Y-91883390D02*
X130597024Y-91835771D01*
X130597024Y-91835771D02*
X130549405Y-91788152D01*
X130549405Y-91788152D02*
X130501786Y-91692914D01*
X130501786Y-91692914D02*
X130501786Y-91645295D01*
X130501786Y-91645295D02*
X130549405Y-91550057D01*
X130549405Y-91550057D02*
X130597024Y-91502438D01*
X130597024Y-91502438D02*
X130692262Y-91454819D01*
X130692262Y-91454819D02*
X130882738Y-91454819D01*
X130882738Y-91454819D02*
X130977976Y-91502438D01*
X130977976Y-91502438D02*
X131025595Y-91550057D01*
X131025595Y-91550057D02*
X131073214Y-91645295D01*
X131073214Y-91645295D02*
X131073214Y-91692914D01*
X131073214Y-91692914D02*
X131025595Y-91788152D01*
X131025595Y-91788152D02*
X130977976Y-91835771D01*
X130977976Y-91835771D02*
X130882738Y-91883390D01*
X130882738Y-91883390D02*
X130692262Y-91883390D01*
X130692262Y-91883390D02*
X130597024Y-91931009D01*
X130597024Y-91931009D02*
X130549405Y-91978628D01*
X130549405Y-91978628D02*
X130501786Y-92073866D01*
X130501786Y-92073866D02*
X130501786Y-92264342D01*
X130501786Y-92264342D02*
X130549405Y-92359580D01*
X130549405Y-92359580D02*
X130597024Y-92407200D01*
X130597024Y-92407200D02*
X130692262Y-92454819D01*
X130692262Y-92454819D02*
X130882738Y-92454819D01*
X130882738Y-92454819D02*
X130977976Y-92407200D01*
X130977976Y-92407200D02*
X131025595Y-92359580D01*
X131025595Y-92359580D02*
X131073214Y-92264342D01*
X131073214Y-92264342D02*
X131073214Y-92073866D01*
X131073214Y-92073866D02*
X131025595Y-91978628D01*
X131025595Y-91978628D02*
X130977976Y-91931009D01*
X130977976Y-91931009D02*
X130882738Y-91883390D01*
D14*
X84432380Y-66304318D02*
X84432380Y-67332413D01*
X84432380Y-67332413D02*
X84492857Y-67453365D01*
X84492857Y-67453365D02*
X84553333Y-67513842D01*
X84553333Y-67513842D02*
X84674285Y-67574318D01*
X84674285Y-67574318D02*
X84916190Y-67574318D01*
X84916190Y-67574318D02*
X85037142Y-67513842D01*
X85037142Y-67513842D02*
X85097619Y-67453365D01*
X85097619Y-67453365D02*
X85158095Y-67332413D01*
X85158095Y-67332413D02*
X85158095Y-66304318D01*
X86307142Y-66727651D02*
X86307142Y-67574318D01*
X86004761Y-66243842D02*
X85702380Y-67150984D01*
X85702380Y-67150984D02*
X86488571Y-67150984D01*
D11*
X67590476Y-183454819D02*
X67923809Y-184454819D01*
X67923809Y-184454819D02*
X68257142Y-183454819D01*
X68923809Y-183931009D02*
X69066666Y-183978628D01*
X69066666Y-183978628D02*
X69114285Y-184026247D01*
X69114285Y-184026247D02*
X69161904Y-184121485D01*
X69161904Y-184121485D02*
X69161904Y-184264342D01*
X69161904Y-184264342D02*
X69114285Y-184359580D01*
X69114285Y-184359580D02*
X69066666Y-184407200D01*
X69066666Y-184407200D02*
X68971428Y-184454819D01*
X68971428Y-184454819D02*
X68590476Y-184454819D01*
X68590476Y-184454819D02*
X68590476Y-183454819D01*
X68590476Y-183454819D02*
X68923809Y-183454819D01*
X68923809Y-183454819D02*
X69019047Y-183502438D01*
X69019047Y-183502438D02*
X69066666Y-183550057D01*
X69066666Y-183550057D02*
X69114285Y-183645295D01*
X69114285Y-183645295D02*
X69114285Y-183740533D01*
X69114285Y-183740533D02*
X69066666Y-183835771D01*
X69066666Y-183835771D02*
X69019047Y-183883390D01*
X69019047Y-183883390D02*
X68923809Y-183931009D01*
X68923809Y-183931009D02*
X68590476Y-183931009D01*
X69590476Y-183454819D02*
X69590476Y-184264342D01*
X69590476Y-184264342D02*
X69638095Y-184359580D01*
X69638095Y-184359580D02*
X69685714Y-184407200D01*
X69685714Y-184407200D02*
X69780952Y-184454819D01*
X69780952Y-184454819D02*
X69971428Y-184454819D01*
X69971428Y-184454819D02*
X70066666Y-184407200D01*
X70066666Y-184407200D02*
X70114285Y-184359580D01*
X70114285Y-184359580D02*
X70161904Y-184264342D01*
X70161904Y-184264342D02*
X70161904Y-183454819D01*
X70590476Y-184407200D02*
X70733333Y-184454819D01*
X70733333Y-184454819D02*
X70971428Y-184454819D01*
X70971428Y-184454819D02*
X71066666Y-184407200D01*
X71066666Y-184407200D02*
X71114285Y-184359580D01*
X71114285Y-184359580D02*
X71161904Y-184264342D01*
X71161904Y-184264342D02*
X71161904Y-184169104D01*
X71161904Y-184169104D02*
X71114285Y-184073866D01*
X71114285Y-184073866D02*
X71066666Y-184026247D01*
X71066666Y-184026247D02*
X70971428Y-183978628D01*
X70971428Y-183978628D02*
X70780952Y-183931009D01*
X70780952Y-183931009D02*
X70685714Y-183883390D01*
X70685714Y-183883390D02*
X70638095Y-183835771D01*
X70638095Y-183835771D02*
X70590476Y-183740533D01*
X70590476Y-183740533D02*
X70590476Y-183645295D01*
X70590476Y-183645295D02*
X70638095Y-183550057D01*
X70638095Y-183550057D02*
X70685714Y-183502438D01*
X70685714Y-183502438D02*
X70780952Y-183454819D01*
X70780952Y-183454819D02*
X71019047Y-183454819D01*
X71019047Y-183454819D02*
X71161904Y-183502438D01*
X72114285Y-184454819D02*
X71542857Y-184454819D01*
X71828571Y-184454819D02*
X71828571Y-183454819D01*
X71828571Y-183454819D02*
X71733333Y-183597676D01*
X71733333Y-183597676D02*
X71638095Y-183692914D01*
X71638095Y-183692914D02*
X71542857Y-183740533D01*
X94323214Y-178754819D02*
X94323214Y-177754819D01*
X94323214Y-177754819D02*
X94561309Y-177754819D01*
X94561309Y-177754819D02*
X94704166Y-177802438D01*
X94704166Y-177802438D02*
X94799404Y-177897676D01*
X94799404Y-177897676D02*
X94847023Y-177992914D01*
X94847023Y-177992914D02*
X94894642Y-178183390D01*
X94894642Y-178183390D02*
X94894642Y-178326247D01*
X94894642Y-178326247D02*
X94847023Y-178516723D01*
X94847023Y-178516723D02*
X94799404Y-178611961D01*
X94799404Y-178611961D02*
X94704166Y-178707200D01*
X94704166Y-178707200D02*
X94561309Y-178754819D01*
X94561309Y-178754819D02*
X94323214Y-178754819D01*
X95847023Y-178754819D02*
X95275595Y-178754819D01*
X95561309Y-178754819D02*
X95561309Y-177754819D01*
X95561309Y-177754819D02*
X95466071Y-177897676D01*
X95466071Y-177897676D02*
X95370833Y-177992914D01*
X95370833Y-177992914D02*
X95275595Y-178040533D01*
X96799404Y-178754819D02*
X96227976Y-178754819D01*
X96513690Y-178754819D02*
X96513690Y-177754819D01*
X96513690Y-177754819D02*
X96418452Y-177897676D01*
X96418452Y-177897676D02*
X96323214Y-177992914D01*
X96323214Y-177992914D02*
X96227976Y-178040533D01*
X68347619Y-181107200D02*
X68490476Y-181154819D01*
X68490476Y-181154819D02*
X68728571Y-181154819D01*
X68728571Y-181154819D02*
X68823809Y-181107200D01*
X68823809Y-181107200D02*
X68871428Y-181059580D01*
X68871428Y-181059580D02*
X68919047Y-180964342D01*
X68919047Y-180964342D02*
X68919047Y-180869104D01*
X68919047Y-180869104D02*
X68871428Y-180773866D01*
X68871428Y-180773866D02*
X68823809Y-180726247D01*
X68823809Y-180726247D02*
X68728571Y-180678628D01*
X68728571Y-180678628D02*
X68538095Y-180631009D01*
X68538095Y-180631009D02*
X68442857Y-180583390D01*
X68442857Y-180583390D02*
X68395238Y-180535771D01*
X68395238Y-180535771D02*
X68347619Y-180440533D01*
X68347619Y-180440533D02*
X68347619Y-180345295D01*
X68347619Y-180345295D02*
X68395238Y-180250057D01*
X68395238Y-180250057D02*
X68442857Y-180202438D01*
X68442857Y-180202438D02*
X68538095Y-180154819D01*
X68538095Y-180154819D02*
X68776190Y-180154819D01*
X68776190Y-180154819D02*
X68919047Y-180202438D01*
X69204762Y-180154819D02*
X69776190Y-180154819D01*
X69490476Y-181154819D02*
X69490476Y-180154819D01*
X70061905Y-180869104D02*
X70538095Y-180869104D01*
X69966667Y-181154819D02*
X70300000Y-180154819D01*
X70300000Y-180154819D02*
X70633333Y-181154819D01*
X70823810Y-180154819D02*
X71395238Y-180154819D01*
X71109524Y-181154819D02*
X71109524Y-180154819D01*
X72252381Y-181154819D02*
X71680953Y-181154819D01*
X71966667Y-181154819D02*
X71966667Y-180154819D01*
X71966667Y-180154819D02*
X71871429Y-180297676D01*
X71871429Y-180297676D02*
X71776191Y-180392914D01*
X71776191Y-180392914D02*
X71680953Y-180440533D01*
X72404819Y-96154166D02*
X71928628Y-96487499D01*
X72404819Y-96725594D02*
X71404819Y-96725594D01*
X71404819Y-96725594D02*
X71404819Y-96344642D01*
X71404819Y-96344642D02*
X71452438Y-96249404D01*
X71452438Y-96249404D02*
X71500057Y-96201785D01*
X71500057Y-96201785D02*
X71595295Y-96154166D01*
X71595295Y-96154166D02*
X71738152Y-96154166D01*
X71738152Y-96154166D02*
X71833390Y-96201785D01*
X71833390Y-96201785D02*
X71881009Y-96249404D01*
X71881009Y-96249404D02*
X71928628Y-96344642D01*
X71928628Y-96344642D02*
X71928628Y-96725594D01*
X72404819Y-95201785D02*
X72404819Y-95773213D01*
X72404819Y-95487499D02*
X71404819Y-95487499D01*
X71404819Y-95487499D02*
X71547676Y-95582737D01*
X71547676Y-95582737D02*
X71642914Y-95677975D01*
X71642914Y-95677975D02*
X71690533Y-95773213D01*
X53819819Y-178667857D02*
X53819819Y-179144047D01*
X53819819Y-179144047D02*
X52819819Y-179144047D01*
X53772200Y-178382142D02*
X53819819Y-178239285D01*
X53819819Y-178239285D02*
X53819819Y-178001190D01*
X53819819Y-178001190D02*
X53772200Y-177905952D01*
X53772200Y-177905952D02*
X53724580Y-177858333D01*
X53724580Y-177858333D02*
X53629342Y-177810714D01*
X53629342Y-177810714D02*
X53534104Y-177810714D01*
X53534104Y-177810714D02*
X53438866Y-177858333D01*
X53438866Y-177858333D02*
X53391247Y-177905952D01*
X53391247Y-177905952D02*
X53343628Y-178001190D01*
X53343628Y-178001190D02*
X53296009Y-178191666D01*
X53296009Y-178191666D02*
X53248390Y-178286904D01*
X53248390Y-178286904D02*
X53200771Y-178334523D01*
X53200771Y-178334523D02*
X53105533Y-178382142D01*
X53105533Y-178382142D02*
X53010295Y-178382142D01*
X53010295Y-178382142D02*
X52915057Y-178334523D01*
X52915057Y-178334523D02*
X52867438Y-178286904D01*
X52867438Y-178286904D02*
X52819819Y-178191666D01*
X52819819Y-178191666D02*
X52819819Y-177953571D01*
X52819819Y-177953571D02*
X52867438Y-177810714D01*
X53819819Y-176858333D02*
X53819819Y-177429761D01*
X53819819Y-177144047D02*
X52819819Y-177144047D01*
X52819819Y-177144047D02*
X52962676Y-177239285D01*
X52962676Y-177239285D02*
X53057914Y-177334523D01*
X53057914Y-177334523D02*
X53105533Y-177429761D01*
X67063866Y-182580951D02*
X67063866Y-181819047D01*
X55803866Y-182580951D02*
X55803866Y-181819047D01*
X56184819Y-182199999D02*
X55422914Y-182199999D01*
X74094642Y-159054819D02*
X73761309Y-158578628D01*
X73523214Y-159054819D02*
X73523214Y-158054819D01*
X73523214Y-158054819D02*
X73904166Y-158054819D01*
X73904166Y-158054819D02*
X73999404Y-158102438D01*
X73999404Y-158102438D02*
X74047023Y-158150057D01*
X74047023Y-158150057D02*
X74094642Y-158245295D01*
X74094642Y-158245295D02*
X74094642Y-158388152D01*
X74094642Y-158388152D02*
X74047023Y-158483390D01*
X74047023Y-158483390D02*
X73999404Y-158531009D01*
X73999404Y-158531009D02*
X73904166Y-158578628D01*
X73904166Y-158578628D02*
X73523214Y-158578628D01*
X75047023Y-159054819D02*
X74475595Y-159054819D01*
X74761309Y-159054819D02*
X74761309Y-158054819D01*
X74761309Y-158054819D02*
X74666071Y-158197676D01*
X74666071Y-158197676D02*
X74570833Y-158292914D01*
X74570833Y-158292914D02*
X74475595Y-158340533D01*
X75904166Y-158054819D02*
X75713690Y-158054819D01*
X75713690Y-158054819D02*
X75618452Y-158102438D01*
X75618452Y-158102438D02*
X75570833Y-158150057D01*
X75570833Y-158150057D02*
X75475595Y-158292914D01*
X75475595Y-158292914D02*
X75427976Y-158483390D01*
X75427976Y-158483390D02*
X75427976Y-158864342D01*
X75427976Y-158864342D02*
X75475595Y-158959580D01*
X75475595Y-158959580D02*
X75523214Y-159007200D01*
X75523214Y-159007200D02*
X75618452Y-159054819D01*
X75618452Y-159054819D02*
X75808928Y-159054819D01*
X75808928Y-159054819D02*
X75904166Y-159007200D01*
X75904166Y-159007200D02*
X75951785Y-158959580D01*
X75951785Y-158959580D02*
X75999404Y-158864342D01*
X75999404Y-158864342D02*
X75999404Y-158626247D01*
X75999404Y-158626247D02*
X75951785Y-158531009D01*
X75951785Y-158531009D02*
X75904166Y-158483390D01*
X75904166Y-158483390D02*
X75808928Y-158435771D01*
X75808928Y-158435771D02*
X75618452Y-158435771D01*
X75618452Y-158435771D02*
X75523214Y-158483390D01*
X75523214Y-158483390D02*
X75475595Y-158531009D01*
X75475595Y-158531009D02*
X75427976Y-158626247D01*
X130557142Y-73559580D02*
X130509523Y-73607200D01*
X130509523Y-73607200D02*
X130366666Y-73654819D01*
X130366666Y-73654819D02*
X130271428Y-73654819D01*
X130271428Y-73654819D02*
X130128571Y-73607200D01*
X130128571Y-73607200D02*
X130033333Y-73511961D01*
X130033333Y-73511961D02*
X129985714Y-73416723D01*
X129985714Y-73416723D02*
X129938095Y-73226247D01*
X129938095Y-73226247D02*
X129938095Y-73083390D01*
X129938095Y-73083390D02*
X129985714Y-72892914D01*
X129985714Y-72892914D02*
X130033333Y-72797676D01*
X130033333Y-72797676D02*
X130128571Y-72702438D01*
X130128571Y-72702438D02*
X130271428Y-72654819D01*
X130271428Y-72654819D02*
X130366666Y-72654819D01*
X130366666Y-72654819D02*
X130509523Y-72702438D01*
X130509523Y-72702438D02*
X130557142Y-72750057D01*
X130938095Y-72750057D02*
X130985714Y-72702438D01*
X130985714Y-72702438D02*
X131080952Y-72654819D01*
X131080952Y-72654819D02*
X131319047Y-72654819D01*
X131319047Y-72654819D02*
X131414285Y-72702438D01*
X131414285Y-72702438D02*
X131461904Y-72750057D01*
X131461904Y-72750057D02*
X131509523Y-72845295D01*
X131509523Y-72845295D02*
X131509523Y-72940533D01*
X131509523Y-72940533D02*
X131461904Y-73083390D01*
X131461904Y-73083390D02*
X130890476Y-73654819D01*
X130890476Y-73654819D02*
X131509523Y-73654819D01*
X132128571Y-72654819D02*
X132223809Y-72654819D01*
X132223809Y-72654819D02*
X132319047Y-72702438D01*
X132319047Y-72702438D02*
X132366666Y-72750057D01*
X132366666Y-72750057D02*
X132414285Y-72845295D01*
X132414285Y-72845295D02*
X132461904Y-73035771D01*
X132461904Y-73035771D02*
X132461904Y-73273866D01*
X132461904Y-73273866D02*
X132414285Y-73464342D01*
X132414285Y-73464342D02*
X132366666Y-73559580D01*
X132366666Y-73559580D02*
X132319047Y-73607200D01*
X132319047Y-73607200D02*
X132223809Y-73654819D01*
X132223809Y-73654819D02*
X132128571Y-73654819D01*
X132128571Y-73654819D02*
X132033333Y-73607200D01*
X132033333Y-73607200D02*
X131985714Y-73559580D01*
X131985714Y-73559580D02*
X131938095Y-73464342D01*
X131938095Y-73464342D02*
X131890476Y-73273866D01*
X131890476Y-73273866D02*
X131890476Y-73035771D01*
X131890476Y-73035771D02*
X131938095Y-72845295D01*
X131938095Y-72845295D02*
X131985714Y-72750057D01*
X131985714Y-72750057D02*
X132033333Y-72702438D01*
X132033333Y-72702438D02*
X132128571Y-72654819D01*
X94934642Y-182359580D02*
X94887023Y-182407200D01*
X94887023Y-182407200D02*
X94744166Y-182454819D01*
X94744166Y-182454819D02*
X94648928Y-182454819D01*
X94648928Y-182454819D02*
X94506071Y-182407200D01*
X94506071Y-182407200D02*
X94410833Y-182311961D01*
X94410833Y-182311961D02*
X94363214Y-182216723D01*
X94363214Y-182216723D02*
X94315595Y-182026247D01*
X94315595Y-182026247D02*
X94315595Y-181883390D01*
X94315595Y-181883390D02*
X94363214Y-181692914D01*
X94363214Y-181692914D02*
X94410833Y-181597676D01*
X94410833Y-181597676D02*
X94506071Y-181502438D01*
X94506071Y-181502438D02*
X94648928Y-181454819D01*
X94648928Y-181454819D02*
X94744166Y-181454819D01*
X94744166Y-181454819D02*
X94887023Y-181502438D01*
X94887023Y-181502438D02*
X94934642Y-181550057D01*
X95887023Y-182454819D02*
X95315595Y-182454819D01*
X95601309Y-182454819D02*
X95601309Y-181454819D01*
X95601309Y-181454819D02*
X95506071Y-181597676D01*
X95506071Y-181597676D02*
X95410833Y-181692914D01*
X95410833Y-181692914D02*
X95315595Y-181740533D01*
X96267976Y-181550057D02*
X96315595Y-181502438D01*
X96315595Y-181502438D02*
X96410833Y-181454819D01*
X96410833Y-181454819D02*
X96648928Y-181454819D01*
X96648928Y-181454819D02*
X96744166Y-181502438D01*
X96744166Y-181502438D02*
X96791785Y-181550057D01*
X96791785Y-181550057D02*
X96839404Y-181645295D01*
X96839404Y-181645295D02*
X96839404Y-181740533D01*
X96839404Y-181740533D02*
X96791785Y-181883390D01*
X96791785Y-181883390D02*
X96220357Y-182454819D01*
X96220357Y-182454819D02*
X96839404Y-182454819D01*
X94508214Y-177054819D02*
X94508214Y-176054819D01*
X94508214Y-176054819D02*
X94746309Y-176054819D01*
X94746309Y-176054819D02*
X94889166Y-176102438D01*
X94889166Y-176102438D02*
X94984404Y-176197676D01*
X94984404Y-176197676D02*
X95032023Y-176292914D01*
X95032023Y-176292914D02*
X95079642Y-176483390D01*
X95079642Y-176483390D02*
X95079642Y-176626247D01*
X95079642Y-176626247D02*
X95032023Y-176816723D01*
X95032023Y-176816723D02*
X94984404Y-176911961D01*
X94984404Y-176911961D02*
X94889166Y-177007200D01*
X94889166Y-177007200D02*
X94746309Y-177054819D01*
X94746309Y-177054819D02*
X94508214Y-177054819D01*
X96032023Y-177054819D02*
X95460595Y-177054819D01*
X95746309Y-177054819D02*
X95746309Y-176054819D01*
X95746309Y-176054819D02*
X95651071Y-176197676D01*
X95651071Y-176197676D02*
X95555833Y-176292914D01*
X95555833Y-176292914D02*
X95460595Y-176340533D01*
X96651071Y-176054819D02*
X96746309Y-176054819D01*
X96746309Y-176054819D02*
X96841547Y-176102438D01*
X96841547Y-176102438D02*
X96889166Y-176150057D01*
X96889166Y-176150057D02*
X96936785Y-176245295D01*
X96936785Y-176245295D02*
X96984404Y-176435771D01*
X96984404Y-176435771D02*
X96984404Y-176673866D01*
X96984404Y-176673866D02*
X96936785Y-176864342D01*
X96936785Y-176864342D02*
X96889166Y-176959580D01*
X96889166Y-176959580D02*
X96841547Y-177007200D01*
X96841547Y-177007200D02*
X96746309Y-177054819D01*
X96746309Y-177054819D02*
X96651071Y-177054819D01*
X96651071Y-177054819D02*
X96555833Y-177007200D01*
X96555833Y-177007200D02*
X96508214Y-176959580D01*
X96508214Y-176959580D02*
X96460595Y-176864342D01*
X96460595Y-176864342D02*
X96412976Y-176673866D01*
X96412976Y-176673866D02*
X96412976Y-176435771D01*
X96412976Y-176435771D02*
X96460595Y-176245295D01*
X96460595Y-176245295D02*
X96508214Y-176150057D01*
X96508214Y-176150057D02*
X96555833Y-176102438D01*
X96555833Y-176102438D02*
X96651071Y-176054819D01*
X134971428Y-158831009D02*
X135114285Y-158878628D01*
X135114285Y-158878628D02*
X135161904Y-158926247D01*
X135161904Y-158926247D02*
X135209523Y-159021485D01*
X135209523Y-159021485D02*
X135209523Y-159164342D01*
X135209523Y-159164342D02*
X135161904Y-159259580D01*
X135161904Y-159259580D02*
X135114285Y-159307200D01*
X135114285Y-159307200D02*
X135019047Y-159354819D01*
X135019047Y-159354819D02*
X134638095Y-159354819D01*
X134638095Y-159354819D02*
X134638095Y-158354819D01*
X134638095Y-158354819D02*
X134971428Y-158354819D01*
X134971428Y-158354819D02*
X135066666Y-158402438D01*
X135066666Y-158402438D02*
X135114285Y-158450057D01*
X135114285Y-158450057D02*
X135161904Y-158545295D01*
X135161904Y-158545295D02*
X135161904Y-158640533D01*
X135161904Y-158640533D02*
X135114285Y-158735771D01*
X135114285Y-158735771D02*
X135066666Y-158783390D01*
X135066666Y-158783390D02*
X134971428Y-158831009D01*
X134971428Y-158831009D02*
X134638095Y-158831009D01*
X136209523Y-159259580D02*
X136161904Y-159307200D01*
X136161904Y-159307200D02*
X136019047Y-159354819D01*
X136019047Y-159354819D02*
X135923809Y-159354819D01*
X135923809Y-159354819D02*
X135780952Y-159307200D01*
X135780952Y-159307200D02*
X135685714Y-159211961D01*
X135685714Y-159211961D02*
X135638095Y-159116723D01*
X135638095Y-159116723D02*
X135590476Y-158926247D01*
X135590476Y-158926247D02*
X135590476Y-158783390D01*
X135590476Y-158783390D02*
X135638095Y-158592914D01*
X135638095Y-158592914D02*
X135685714Y-158497676D01*
X135685714Y-158497676D02*
X135780952Y-158402438D01*
X135780952Y-158402438D02*
X135923809Y-158354819D01*
X135923809Y-158354819D02*
X136019047Y-158354819D01*
X136019047Y-158354819D02*
X136161904Y-158402438D01*
X136161904Y-158402438D02*
X136209523Y-158450057D01*
X136638095Y-159354819D02*
X136638095Y-158354819D01*
X137209523Y-159354819D02*
X136780952Y-158783390D01*
X137209523Y-158354819D02*
X136638095Y-158926247D01*
X88933333Y-151859580D02*
X88885714Y-151907200D01*
X88885714Y-151907200D02*
X88742857Y-151954819D01*
X88742857Y-151954819D02*
X88647619Y-151954819D01*
X88647619Y-151954819D02*
X88504762Y-151907200D01*
X88504762Y-151907200D02*
X88409524Y-151811961D01*
X88409524Y-151811961D02*
X88361905Y-151716723D01*
X88361905Y-151716723D02*
X88314286Y-151526247D01*
X88314286Y-151526247D02*
X88314286Y-151383390D01*
X88314286Y-151383390D02*
X88361905Y-151192914D01*
X88361905Y-151192914D02*
X88409524Y-151097676D01*
X88409524Y-151097676D02*
X88504762Y-151002438D01*
X88504762Y-151002438D02*
X88647619Y-150954819D01*
X88647619Y-150954819D02*
X88742857Y-150954819D01*
X88742857Y-150954819D02*
X88885714Y-151002438D01*
X88885714Y-151002438D02*
X88933333Y-151050057D01*
X89790476Y-151288152D02*
X89790476Y-151954819D01*
X89552381Y-150907200D02*
X89314286Y-151621485D01*
X89314286Y-151621485D02*
X89933333Y-151621485D01*
X99657142Y-185759580D02*
X99609523Y-185807200D01*
X99609523Y-185807200D02*
X99466666Y-185854819D01*
X99466666Y-185854819D02*
X99371428Y-185854819D01*
X99371428Y-185854819D02*
X99228571Y-185807200D01*
X99228571Y-185807200D02*
X99133333Y-185711961D01*
X99133333Y-185711961D02*
X99085714Y-185616723D01*
X99085714Y-185616723D02*
X99038095Y-185426247D01*
X99038095Y-185426247D02*
X99038095Y-185283390D01*
X99038095Y-185283390D02*
X99085714Y-185092914D01*
X99085714Y-185092914D02*
X99133333Y-184997676D01*
X99133333Y-184997676D02*
X99228571Y-184902438D01*
X99228571Y-184902438D02*
X99371428Y-184854819D01*
X99371428Y-184854819D02*
X99466666Y-184854819D01*
X99466666Y-184854819D02*
X99609523Y-184902438D01*
X99609523Y-184902438D02*
X99657142Y-184950057D01*
X100609523Y-185854819D02*
X100038095Y-185854819D01*
X100323809Y-185854819D02*
X100323809Y-184854819D01*
X100323809Y-184854819D02*
X100228571Y-184997676D01*
X100228571Y-184997676D02*
X100133333Y-185092914D01*
X100133333Y-185092914D02*
X100038095Y-185140533D01*
X101561904Y-185854819D02*
X100990476Y-185854819D01*
X101276190Y-185854819D02*
X101276190Y-184854819D01*
X101276190Y-184854819D02*
X101180952Y-184997676D01*
X101180952Y-184997676D02*
X101085714Y-185092914D01*
X101085714Y-185092914D02*
X100990476Y-185140533D01*
X89011905Y-146454819D02*
X89011905Y-145454819D01*
X89011905Y-145454819D02*
X89250000Y-145454819D01*
X89250000Y-145454819D02*
X89392857Y-145502438D01*
X89392857Y-145502438D02*
X89488095Y-145597676D01*
X89488095Y-145597676D02*
X89535714Y-145692914D01*
X89535714Y-145692914D02*
X89583333Y-145883390D01*
X89583333Y-145883390D02*
X89583333Y-146026247D01*
X89583333Y-146026247D02*
X89535714Y-146216723D01*
X89535714Y-146216723D02*
X89488095Y-146311961D01*
X89488095Y-146311961D02*
X89392857Y-146407200D01*
X89392857Y-146407200D02*
X89250000Y-146454819D01*
X89250000Y-146454819D02*
X89011905Y-146454819D01*
X89916667Y-145454819D02*
X90535714Y-145454819D01*
X90535714Y-145454819D02*
X90202381Y-145835771D01*
X90202381Y-145835771D02*
X90345238Y-145835771D01*
X90345238Y-145835771D02*
X90440476Y-145883390D01*
X90440476Y-145883390D02*
X90488095Y-145931009D01*
X90488095Y-145931009D02*
X90535714Y-146026247D01*
X90535714Y-146026247D02*
X90535714Y-146264342D01*
X90535714Y-146264342D02*
X90488095Y-146359580D01*
X90488095Y-146359580D02*
X90440476Y-146407200D01*
X90440476Y-146407200D02*
X90345238Y-146454819D01*
X90345238Y-146454819D02*
X90059524Y-146454819D01*
X90059524Y-146454819D02*
X89964286Y-146407200D01*
X89964286Y-146407200D02*
X89916667Y-146359580D01*
D12*
%TO.C,J1*%
X106130000Y-181450000D02*
X106130000Y-182700000D01*
X106130000Y-185420000D02*
X106130000Y-186700000D01*
X115070000Y-181450000D02*
X115070000Y-182700000D01*
X115070000Y-186700000D02*
X115070000Y-185420000D01*
X107450000Y-178100000D02*
G75*
G02*
X107250000Y-178100000I-100000J0D01*
G01*
X107250000Y-178100000D02*
G75*
G02*
X107450000Y-178100000I100000J0D01*
G01*
D15*
%TO.C,J3*%
X131521100Y-186726999D02*
X131521100Y-173546850D01*
X131521100Y-172853146D02*
X131521100Y-172477599D01*
X131521100Y-172477599D02*
X131285873Y-172477599D01*
X129814009Y-172477599D02*
X125785874Y-172477599D01*
X127927000Y-186726999D02*
X127927000Y-186472999D01*
X127927000Y-186472999D02*
X127673000Y-186472999D01*
X127673000Y-186726999D02*
X127927000Y-186726999D01*
X127673000Y-186472999D02*
X127673000Y-186726999D01*
X124314010Y-172477599D02*
X124078900Y-172477599D01*
X124078900Y-186726999D02*
X131521100Y-186726999D01*
X124078900Y-173547177D02*
X124078900Y-186726999D01*
X124078900Y-172477599D02*
X124078900Y-172852819D01*
D12*
%TO.C,J2*%
X78952500Y-181550000D02*
X78952500Y-182800000D01*
X78952500Y-185520000D02*
X78952500Y-186800000D01*
X87892500Y-181550000D02*
X87892500Y-182800000D01*
X87892500Y-186800000D02*
X87892500Y-185520000D01*
X80272500Y-178200000D02*
G75*
G02*
X80072500Y-178200000I-100000J0D01*
G01*
X80072500Y-178200000D02*
G75*
G02*
X80272500Y-178200000I100000J0D01*
G01*
D16*
%TO.C,R4*%
X67027064Y-138765000D02*
X66572936Y-138765000D01*
X67027064Y-140235000D02*
X66572936Y-140235000D01*
%TO.C,R29*%
X121427064Y-141990000D02*
X120972936Y-141990000D01*
X121427064Y-143460000D02*
X120972936Y-143460000D01*
%TO.C,C10*%
X92888748Y-86765000D02*
X93411252Y-86765000D01*
X92888748Y-88235000D02*
X93411252Y-88235000D01*
%TO.C,T1*%
X56322500Y-135185000D02*
X55992500Y-134945000D01*
X56322500Y-134705000D01*
X56322500Y-135185000D01*
G36*
X56322500Y-135185000D02*
G01*
X55992500Y-134945000D01*
X56322500Y-134705000D01*
X56322500Y-135185000D01*
G37*
%TO.C,R25*%
X100127064Y-79265000D02*
X99672936Y-79265000D01*
X100127064Y-80735000D02*
X99672936Y-80735000D01*
%TO.C,R32*%
X135027064Y-70065000D02*
X134572936Y-70065000D01*
X135027064Y-71535000D02*
X134572936Y-71535000D01*
%TO.C,D5*%
X117240000Y-176900000D02*
X117240000Y-177700000D01*
X118600000Y-176900000D02*
X117240000Y-176900000D01*
X118600000Y-177700000D02*
X117240000Y-177700000D01*
%TO.C,3.3V1*%
X87351000Y-131100000D02*
G75*
G02*
X84849000Y-131100000I-1251000J0D01*
G01*
X84849000Y-131100000D02*
G75*
G02*
X87351000Y-131100000I1251000J0D01*
G01*
D11*
%TO.C,U5*%
X79115000Y-168382500D02*
X79115000Y-172532500D01*
X79115000Y-168382500D02*
X80225000Y-168382500D01*
X79115000Y-172532500D02*
X80225000Y-172532500D01*
X86955000Y-168382500D02*
X88065000Y-168382500D01*
X88065000Y-168382500D02*
X88065000Y-172532500D01*
X88065000Y-172532500D02*
X86955000Y-172532500D01*
D16*
X87285000Y-168060000D02*
X86955000Y-167820000D01*
X87285000Y-167580000D01*
X87285000Y-168060000D01*
G36*
X87285000Y-168060000D02*
G01*
X86955000Y-167820000D01*
X87285000Y-167580000D01*
X87285000Y-168060000D01*
G37*
%TO.C,Q1*%
X57037500Y-73790000D02*
X56387500Y-73790000D01*
X57037500Y-73790000D02*
X57687500Y-73790000D01*
X57037500Y-76910000D02*
X56387500Y-76910000D01*
X57037500Y-76910000D02*
X57687500Y-76910000D01*
X55875000Y-73840000D02*
X55635000Y-73510000D01*
X56115000Y-73510000D01*
X55875000Y-73840000D01*
G36*
X55875000Y-73840000D02*
G01*
X55635000Y-73510000D01*
X56115000Y-73510000D01*
X55875000Y-73840000D01*
G37*
%TO.C,R14*%
X103527064Y-182265000D02*
X103072936Y-182265000D01*
X103527064Y-183735000D02*
X103072936Y-183735000D01*
%TO.C,Q2*%
X69190000Y-167900000D02*
X69190000Y-171500000D01*
X69201522Y-167861522D02*
G75*
G02*
X73640001Y-169700000I1838478J-1838478D01*
G01*
X73640000Y-169700000D02*
G75*
G02*
X69201522Y-171538478I-2600000J0D01*
G01*
%TO.C,TP5*%
X62251000Y-67600000D02*
G75*
G02*
X59749000Y-67600000I-1251000J0D01*
G01*
X59749000Y-67600000D02*
G75*
G02*
X62251000Y-67600000I1251000J0D01*
G01*
%TO.C,R17*%
X123060436Y-91165000D02*
X123514564Y-91165000D01*
X123060436Y-92635000D02*
X123514564Y-92635000D01*
%TO.C,TP3*%
X57751000Y-67500000D02*
G75*
G02*
X55249000Y-67500000I-1251000J0D01*
G01*
X55249000Y-67500000D02*
G75*
G02*
X57751000Y-67500000I1251000J0D01*
G01*
%TO.C,5V1*%
X94751000Y-148900000D02*
G75*
G02*
X92249000Y-148900000I-1251000J0D01*
G01*
X92249000Y-148900000D02*
G75*
G02*
X94751000Y-148900000I1251000J0D01*
G01*
%TO.C,R30*%
X121427064Y-139790000D02*
X120972936Y-139790000D01*
X121427064Y-141260000D02*
X120972936Y-141260000D01*
%TO.C,R33*%
X128227064Y-70165000D02*
X127772936Y-70165000D01*
X128227064Y-71635000D02*
X127772936Y-71635000D01*
%TO.C,R21*%
X74649564Y-173165000D02*
X74195436Y-173165000D01*
X74649564Y-174635000D02*
X74195436Y-174635000D01*
%TO.C,F1*%
X41642500Y-70452500D02*
X41642500Y-76702500D01*
X41642500Y-76702500D02*
X43417500Y-76702500D01*
X41642500Y-174602500D02*
X41642500Y-180852500D01*
X41642500Y-174602500D02*
X47687500Y-174602500D01*
X41642500Y-180852500D02*
X47687500Y-180852500D01*
X42317500Y-76702500D02*
X42317500Y-174602501D01*
X43417500Y-70452500D02*
X41642500Y-70452500D01*
X43417500Y-70452500D02*
X49262500Y-70452500D01*
X48587500Y-76702500D02*
X48587500Y-174602500D01*
X49262500Y-76702500D02*
X43417500Y-76702500D01*
X49262500Y-76702500D02*
X49262500Y-70452500D01*
X49262500Y-174602500D02*
X47687500Y-174602500D01*
X49262500Y-174602500D02*
X49262500Y-180852500D01*
X49262500Y-180852500D02*
X47687500Y-180852500D01*
%TO.C,R26*%
X100027064Y-77065000D02*
X99572936Y-77065000D01*
X100027064Y-78535000D02*
X99572936Y-78535000D01*
%TO.C,R18*%
X74649564Y-175465000D02*
X74195436Y-175465000D01*
X74649564Y-176935000D02*
X74195436Y-176935000D01*
%TO.C,C14*%
X125801248Y-139790000D02*
X126323752Y-139790000D01*
X125801248Y-141260000D02*
X126323752Y-141260000D01*
%TO.C,C7*%
X81038748Y-146055000D02*
X81561252Y-146055000D01*
X81038748Y-147525000D02*
X81561252Y-147525000D01*
%TO.C,C19*%
X125401248Y-153790000D02*
X125923752Y-153790000D01*
X125401248Y-155260000D02*
X125923752Y-155260000D01*
%TO.C,JP2*%
X65000000Y-92400000D02*
X65000000Y-91000000D01*
X65700000Y-90300000D02*
X66300000Y-90300000D01*
X66300000Y-93100000D02*
X65700000Y-93100000D01*
X67000000Y-91000000D02*
X67000000Y-92400000D01*
X65000000Y-91000000D02*
G75*
G02*
X65700000Y-90300000I699999J1D01*
G01*
X65700000Y-93100000D02*
G75*
G02*
X65000000Y-92400000I0J700000D01*
G01*
X66300000Y-90300000D02*
G75*
G02*
X67000000Y-91000000I1J-699999D01*
G01*
X67000000Y-92400000D02*
G75*
G02*
X66300000Y-93100000I-700000J0D01*
G01*
%TO.C,C6*%
X81938748Y-125565000D02*
X82461252Y-125565000D01*
X81938748Y-127035000D02*
X82461252Y-127035000D01*
%TO.C,R34*%
X119627064Y-70236500D02*
X119172936Y-70236500D01*
X119627064Y-71706500D02*
X119172936Y-71706500D01*
%TO.C,C5*%
X81938748Y-123165000D02*
X82461252Y-123165000D01*
X81938748Y-124635000D02*
X82461252Y-124635000D01*
%TO.C,C1*%
X55184252Y-80190000D02*
X58015748Y-80190000D01*
X55184252Y-85410000D02*
X58015748Y-85410000D01*
%TO.C,HI-V1*%
X62351000Y-77600000D02*
G75*
G02*
X59849000Y-77600000I-1251000J0D01*
G01*
X59849000Y-77600000D02*
G75*
G02*
X62351000Y-77600000I1251000J0D01*
G01*
%TO.C,R6*%
X123614564Y-86565000D02*
X123160436Y-86565000D01*
X123614564Y-88035000D02*
X123160436Y-88035000D01*
D17*
%TO.C,S2*%
X126300000Y-65470000D02*
X126300000Y-67930000D01*
X129500000Y-65470000D02*
X129500000Y-67930000D01*
D12*
X129130000Y-63482000D02*
G75*
G02*
X128930000Y-63482000I-100000J0D01*
G01*
X128930000Y-63482000D02*
G75*
G02*
X129130000Y-63482000I100000J0D01*
G01*
D16*
%TO.C,C22*%
X127738748Y-72465000D02*
X128261252Y-72465000D01*
X127738748Y-73935000D02*
X128261252Y-73935000D01*
%TO.C,U2*%
X86200000Y-122740000D02*
X88700000Y-122740000D01*
X88700000Y-127460000D02*
X86200000Y-127460000D01*
X85680000Y-122890000D02*
X85440000Y-122560000D01*
X85920000Y-122560000D01*
X85680000Y-122890000D01*
G36*
X85680000Y-122890000D02*
G01*
X85440000Y-122560000D01*
X85920000Y-122560000D01*
X85680000Y-122890000D01*
G37*
%TO.C,C18*%
X125401248Y-151590000D02*
X125923752Y-151590000D01*
X125401248Y-153060000D02*
X125923752Y-153060000D01*
%TO.C,D12*%
X92062500Y-179400000D02*
X92062500Y-180200000D01*
X93422500Y-179400000D02*
X92062500Y-179400000D01*
X93422500Y-180200000D02*
X92062500Y-180200000D01*
%TO.C,R28*%
X61077064Y-164002500D02*
X60622936Y-164002500D01*
X61077064Y-165472500D02*
X60622936Y-165472500D01*
%TO.C,R11*%
X68565000Y-75772936D02*
X68565000Y-76227064D01*
X70035000Y-75772936D02*
X70035000Y-76227064D01*
%TO.C,R15*%
X107972936Y-173065000D02*
X108427064Y-173065000D01*
X107972936Y-174535000D02*
X108427064Y-174535000D01*
%TO.C,L1*%
X86686252Y-143790000D02*
X86163748Y-143790000D01*
X86686252Y-146010000D02*
X86163748Y-146010000D01*
%TO.C,C2*%
X61938748Y-141465000D02*
X62461252Y-141465000D01*
X61938748Y-142935000D02*
X62461252Y-142935000D01*
%TO.C,D7*%
X117240000Y-178200000D02*
X117240000Y-179000000D01*
X118600000Y-178200000D02*
X117240000Y-178200000D01*
X118600000Y-179000000D02*
X117240000Y-179000000D01*
%TO.C,R23*%
X123614564Y-79965000D02*
X123160436Y-79965000D01*
X123614564Y-81435000D02*
X123160436Y-81435000D01*
%TO.C,C25*%
X90538748Y-168865000D02*
X91061252Y-168865000D01*
X90538748Y-170335000D02*
X91061252Y-170335000D01*
%TO.C,C9*%
X92938748Y-84565000D02*
X93461252Y-84565000D01*
X92938748Y-86035000D02*
X93461252Y-86035000D01*
%TO.C,R19*%
X123060436Y-88865000D02*
X123514564Y-88865000D01*
X123060436Y-90335000D02*
X123514564Y-90335000D01*
%TO.C,R7*%
X86427064Y-153065000D02*
X85972936Y-153065000D01*
X86427064Y-154535000D02*
X85972936Y-154535000D01*
%TO.C,R27*%
X98127064Y-74765000D02*
X97672936Y-74765000D01*
X98127064Y-76235000D02*
X97672936Y-76235000D01*
%TO.C,C26*%
X118911252Y-152065000D02*
X118388748Y-152065000D01*
X118911252Y-153535000D02*
X118388748Y-153535000D01*
%TO.C,C3*%
X66961252Y-150265000D02*
X66438748Y-150265000D01*
X66961252Y-151735000D02*
X66438748Y-151735000D01*
%TO.C,TP8*%
X53451000Y-67500000D02*
G75*
G02*
X50949000Y-67500000I-1251000J0D01*
G01*
X50949000Y-67500000D02*
G75*
G02*
X53451000Y-67500000I1251000J0D01*
G01*
%TO.C,U6*%
X122900000Y-144115000D02*
X120700000Y-144115000D01*
X122900000Y-144115000D02*
X125100000Y-144115000D01*
X122900000Y-150885000D02*
X120700000Y-150885000D01*
X122900000Y-150885000D02*
X125100000Y-150885000D01*
X119040000Y-144575000D02*
X118710000Y-144815000D01*
X118710000Y-144335000D01*
X119040000Y-144575000D01*
G36*
X119040000Y-144575000D02*
G01*
X118710000Y-144815000D01*
X118710000Y-144335000D01*
X119040000Y-144575000D01*
G37*
%TO.C,D2*%
X126387500Y-88260000D02*
X129072500Y-88260000D01*
X129072500Y-86340000D02*
X126387500Y-86340000D01*
X129072500Y-88260000D02*
X129072500Y-86340000D01*
%TO.C,R22*%
X91972936Y-183865000D02*
X92427064Y-183865000D01*
X91972936Y-185335000D02*
X92427064Y-185335000D01*
%TO.C,R13*%
X68165000Y-65872936D02*
X68165000Y-66327064D01*
X69635000Y-65872936D02*
X69635000Y-66327064D01*
%TO.C,LRCK*%
X136051000Y-148000000D02*
G75*
G02*
X133549000Y-148000000I-1251000J0D01*
G01*
X133549000Y-148000000D02*
G75*
G02*
X136051000Y-148000000I1251000J0D01*
G01*
%TO.C,D6*%
X117240000Y-175800000D02*
X117240000Y-176600000D01*
X118600000Y-175800000D02*
X117240000Y-175800000D01*
X118600000Y-176600000D02*
X117240000Y-176600000D01*
%TO.C,C13*%
X116365000Y-145638748D02*
X116365000Y-146161252D01*
X117835000Y-145638748D02*
X117835000Y-146161252D01*
%TO.C,DOUT1*%
X136751000Y-151900000D02*
G75*
G02*
X134249000Y-151900000I-1251000J0D01*
G01*
X134249000Y-151900000D02*
G75*
G02*
X136751000Y-151900000I1251000J0D01*
G01*
%TO.C,R12*%
X108427064Y-175465000D02*
X107972936Y-175465000D01*
X108427064Y-176935000D02*
X107972936Y-176935000D01*
D17*
%TO.C,D1*%
X57412500Y-89150000D02*
X57412500Y-89450000D01*
X57412500Y-91850000D02*
X57412500Y-91550000D01*
X61712500Y-89150000D02*
X57412500Y-89150000D01*
X61712500Y-89450000D02*
X61712500Y-89150000D01*
X61712500Y-91550000D02*
X61712500Y-91850000D01*
X61712500Y-91850000D02*
X57412500Y-91850000D01*
D12*
X62412500Y-91750000D02*
G75*
G02*
X62212500Y-91750000I-100000J0D01*
G01*
X62212500Y-91750000D02*
G75*
G02*
X62412500Y-91750000I100000J0D01*
G01*
D16*
%TO.C,JP3*%
X114400000Y-136000000D02*
X114400000Y-135400000D01*
X115100000Y-134700000D02*
X116500000Y-134700000D01*
X116500000Y-136700000D02*
X115100000Y-136700000D01*
X117200000Y-135400000D02*
X117200000Y-136000000D01*
X114400000Y-135400000D02*
G75*
G02*
X115100000Y-134700000I699999J1D01*
G01*
X115100000Y-136700000D02*
G75*
G02*
X114400000Y-136000000I-1J699999D01*
G01*
X116500000Y-134700000D02*
G75*
G02*
X117200000Y-135400000I0J-700000D01*
G01*
X117200000Y-136000000D02*
G75*
G02*
X116500000Y-136700000I-700000J0D01*
G01*
%TO.C,OUT R*%
X137051000Y-174100000D02*
G75*
G02*
X134549000Y-174100000I-1251000J0D01*
G01*
X134549000Y-174100000D02*
G75*
G02*
X137051000Y-174100000I1251000J0D01*
G01*
%TO.C,R5*%
X104460436Y-83465000D02*
X104914564Y-83465000D01*
X104460436Y-84935000D02*
X104914564Y-84935000D01*
%TO.C,R20*%
X71352064Y-155465000D02*
X70897936Y-155465000D01*
X71352064Y-156935000D02*
X70897936Y-156935000D01*
%TO.C,R3*%
X57222936Y-94290000D02*
X61577064Y-94290000D01*
X57222936Y-97710000D02*
X61577064Y-97710000D01*
%TO.C,C15*%
X125751248Y-141990000D02*
X126273752Y-141990000D01*
X125751248Y-143460000D02*
X126273752Y-143460000D01*
%TO.C,C21*%
X117838748Y-99265000D02*
X118361252Y-99265000D01*
X117838748Y-100735000D02*
X118361252Y-100735000D01*
D17*
%TO.C,S3*%
X117700000Y-65441500D02*
X117700000Y-67901500D01*
X120900000Y-65441500D02*
X120900000Y-67901500D01*
D12*
X120530000Y-63453500D02*
G75*
G02*
X120330000Y-63453500I-100000J0D01*
G01*
X120330000Y-63453500D02*
G75*
G02*
X120530000Y-63453500I100000J0D01*
G01*
D16*
%TO.C,C17*%
X130038748Y-144465000D02*
X130561252Y-144465000D01*
X130038748Y-145935000D02*
X130561252Y-145935000D01*
%TO.C,R24*%
X123614564Y-82065000D02*
X123160436Y-82065000D01*
X123614564Y-83535000D02*
X123160436Y-83535000D01*
%TO.C,U3*%
X86062500Y-146890000D02*
X85262500Y-146890000D01*
X86062500Y-146890000D02*
X86862500Y-146890000D01*
X86062500Y-150010000D02*
X85262500Y-150010000D01*
X86062500Y-150010000D02*
X86862500Y-150010000D01*
X84762500Y-146940000D02*
X84522500Y-146610000D01*
X85002500Y-146610000D01*
X84762500Y-146940000D01*
G36*
X84762500Y-146940000D02*
G01*
X84522500Y-146610000D01*
X85002500Y-146610000D01*
X84762500Y-146940000D01*
G37*
%TO.C,C23*%
X119138748Y-72665000D02*
X119661252Y-72665000D01*
X119138748Y-74135000D02*
X119661252Y-74135000D01*
%TO.C,R10*%
X71065000Y-75785436D02*
X71065000Y-76239564D01*
X72535000Y-75785436D02*
X72535000Y-76239564D01*
%TO.C,D4*%
X126387500Y-85960000D02*
X129072500Y-85960000D01*
X129072500Y-84040000D02*
X126387500Y-84040000D01*
X129072500Y-85960000D02*
X129072500Y-84040000D01*
%TO.C,JP1*%
X69300000Y-92450000D02*
X69300000Y-91050000D01*
X70000000Y-90350000D02*
X70600000Y-90350000D01*
X70600000Y-93150000D02*
X70000000Y-93150000D01*
X71300000Y-91050000D02*
X71300000Y-92450000D01*
X69300000Y-91050000D02*
G75*
G02*
X70000000Y-90350000I699999J1D01*
G01*
X70000000Y-93150000D02*
G75*
G02*
X69300000Y-92450000I0J700000D01*
G01*
X70600000Y-90350000D02*
G75*
G02*
X71300000Y-91050000I1J-699999D01*
G01*
X71300000Y-92450000D02*
G75*
G02*
X70600000Y-93150000I-700000J0D01*
G01*
%TO.C,C8*%
X81038748Y-148565000D02*
X81561252Y-148565000D01*
X81038748Y-150035000D02*
X81561252Y-150035000D01*
D17*
%TO.C,S1*%
X133100000Y-65370000D02*
X133100000Y-67830000D01*
X136300000Y-65370000D02*
X136300000Y-67830000D01*
D12*
X135930000Y-63382000D02*
G75*
G02*
X135730000Y-63382000I-100000J0D01*
G01*
X135730000Y-63382000D02*
G75*
G02*
X135930000Y-63382000I100000J0D01*
G01*
D16*
%TO.C,D14*%
X126387500Y-83760000D02*
X129072500Y-83760000D01*
X129072500Y-81840000D02*
X126387500Y-81840000D01*
X129072500Y-83760000D02*
X129072500Y-81840000D01*
%TO.C,VHIGH1*%
X94651000Y-131700000D02*
G75*
G02*
X92149000Y-131700000I-1251000J0D01*
G01*
X92149000Y-131700000D02*
G75*
G02*
X94651000Y-131700000I1251000J0D01*
G01*
%TO.C,D9*%
X126387500Y-90560000D02*
X129072500Y-90560000D01*
X129072500Y-88640000D02*
X126387500Y-88640000D01*
X129072500Y-90560000D02*
X129072500Y-88640000D01*
%TO.C,PWM1*%
X110651000Y-84200000D02*
G75*
G02*
X108149000Y-84200000I-1251000J0D01*
G01*
X108149000Y-84200000D02*
G75*
G02*
X110651000Y-84200000I1251000J0D01*
G01*
%TO.C,Q3*%
X69265000Y-161330000D02*
X69265000Y-164930000D01*
X69276522Y-161291522D02*
G75*
G02*
X73715001Y-163130000I1838478J-1838478D01*
G01*
X73715000Y-163130000D02*
G75*
G02*
X69276522Y-164968478I-2600000J0D01*
G01*
D15*
%TO.C,U1*%
X65150600Y-142752100D02*
X65150600Y-147247900D01*
X68249400Y-147247900D02*
X68249400Y-142752100D01*
X68249400Y-145304800D02*
G75*
G02*
X68249400Y-144695200I0J304800D01*
G01*
D17*
%TO.C,S4*%
X105700000Y-62980000D02*
X111900000Y-62980000D01*
X105700000Y-79220000D02*
X105700000Y-62980000D01*
X111900000Y-62980000D02*
X111900000Y-79220000D01*
X111900000Y-79220000D02*
X105700000Y-79220000D01*
D12*
X114650000Y-77880000D02*
G75*
G02*
X114450000Y-77880000I-100000J0D01*
G01*
X114450000Y-77880000D02*
G75*
G02*
X114650000Y-77880000I100000J0D01*
G01*
D16*
%TO.C,C16*%
X130038748Y-142065000D02*
X130561252Y-142065000D01*
X130038748Y-143535000D02*
X130561252Y-143535000D01*
%TO.C,R31*%
X107885436Y-170665000D02*
X108339564Y-170665000D01*
X107885436Y-172135000D02*
X108339564Y-172135000D01*
%TO.C,R9*%
X68165000Y-69872936D02*
X68165000Y-70327064D01*
X69635000Y-69872936D02*
X69635000Y-70327064D01*
%TO.C,C24*%
X71065000Y-66361252D02*
X71065000Y-65838748D01*
X72535000Y-66361252D02*
X72535000Y-65838748D01*
%TO.C,D13*%
X126387500Y-81660000D02*
X129072500Y-81660000D01*
X129072500Y-79740000D02*
X126387500Y-79740000D01*
X129072500Y-81660000D02*
X129072500Y-79740000D01*
%TO.C,OUT L*%
X137051000Y-178800000D02*
G75*
G02*
X134549000Y-178800000I-1251000J0D01*
G01*
X134549000Y-178800000D02*
G75*
G02*
X137051000Y-178800000I1251000J0D01*
G01*
%TO.C,Q4*%
X59290000Y-168337500D02*
X59290000Y-167687500D01*
X59290000Y-168337500D02*
X59290000Y-168987500D01*
X62410000Y-168337500D02*
X62410000Y-167687500D01*
X62410000Y-168337500D02*
X62410000Y-168987500D01*
X62690000Y-167415000D02*
X62360000Y-167175000D01*
X62690000Y-166935000D01*
X62690000Y-167415000D01*
G36*
X62690000Y-167415000D02*
G01*
X62360000Y-167175000D01*
X62690000Y-166935000D01*
X62690000Y-167415000D01*
G37*
%TO.C,J5*%
X112170000Y-102230000D02*
X113500000Y-102230000D01*
X112170000Y-103560000D02*
X112170000Y-102230000D01*
X112170000Y-104830000D02*
X112170000Y-117590000D01*
X112170000Y-104830000D02*
X114830000Y-104830000D01*
X112170000Y-117590000D02*
X114830000Y-117590000D01*
X114830000Y-104830000D02*
X114830000Y-117590000D01*
%TO.C,R2*%
X65265000Y-95822936D02*
X65265000Y-96277064D01*
X66735000Y-95822936D02*
X66735000Y-96277064D01*
%TO.C,R8*%
X123614564Y-84265000D02*
X123160436Y-84265000D01*
X123614564Y-85735000D02*
X123160436Y-85735000D01*
%TO.C,D8*%
X126387500Y-92860000D02*
X129072500Y-92860000D01*
X129072500Y-90940000D02*
X126387500Y-90940000D01*
X129072500Y-92860000D02*
X129072500Y-90940000D01*
D10*
%TO.C,U4*%
X75200000Y-62710000D02*
X75200000Y-62710000D01*
X75300000Y-62710000D02*
X75300000Y-62710000D01*
D12*
X76300000Y-55360000D02*
X94300000Y-55360000D01*
X76300000Y-61110000D02*
X76300000Y-55360000D01*
X94300000Y-55360000D02*
X94300000Y-61110000D01*
D10*
X75200000Y-62710000D02*
G75*
G02*
X75300000Y-62710000I50000J0D01*
G01*
X75300000Y-62710000D02*
G75*
G02*
X75200000Y-62710000I-50000J0D01*
G01*
D16*
%TO.C,VBUS1*%
X75251000Y-184037500D02*
G75*
G02*
X72749000Y-184037500I-1251000J0D01*
G01*
X72749000Y-184037500D02*
G75*
G02*
X75251000Y-184037500I1251000J0D01*
G01*
%TO.C,D11*%
X92062500Y-177900000D02*
X92062500Y-178700000D01*
X93422500Y-177900000D02*
X92062500Y-177900000D01*
X93422500Y-178700000D02*
X92062500Y-178700000D01*
%TO.C,STAT1*%
X75373500Y-180400000D02*
G75*
G02*
X72871500Y-180400000I-1251000J0D01*
G01*
X72871500Y-180400000D02*
G75*
G02*
X75373500Y-180400000I1251000J0D01*
G01*
%TO.C,R1*%
X69565000Y-95760436D02*
X69565000Y-96214564D01*
X71035000Y-95760436D02*
X71035000Y-96214564D01*
D17*
%TO.C,LS1*%
X67000000Y-178200000D02*
G75*
G02*
X55000000Y-178200000I-6000000J0D01*
G01*
X55000000Y-178200000D02*
G75*
G02*
X67000000Y-178200000I6000000J0D01*
G01*
D16*
%TO.C,R16*%
X71352064Y-157865000D02*
X70897936Y-157865000D01*
X71352064Y-159335000D02*
X70897936Y-159335000D01*
%TO.C,C20*%
X134538748Y-72465000D02*
X135061252Y-72465000D01*
X134538748Y-73935000D02*
X135061252Y-73935000D01*
%TO.C,C12*%
X91938748Y-181765000D02*
X92461252Y-181765000D01*
X91938748Y-183235000D02*
X92461252Y-183235000D01*
%TO.C,D10*%
X92077500Y-176400000D02*
X92077500Y-177200000D01*
X93437500Y-176400000D02*
X92077500Y-176400000D01*
X93437500Y-177200000D02*
X92077500Y-177200000D01*
%TO.C,BCK*%
X137351000Y-156000000D02*
G75*
G02*
X134849000Y-156000000I-1251000J0D01*
G01*
X134849000Y-156000000D02*
G75*
G02*
X137351000Y-156000000I1251000J0D01*
G01*
%TO.C,C4*%
X86461252Y-150765000D02*
X85938748Y-150765000D01*
X86461252Y-152235000D02*
X85938748Y-152235000D01*
%TO.C,C11*%
X103051248Y-184665000D02*
X103573752Y-184665000D01*
X103051248Y-186135000D02*
X103573752Y-186135000D01*
%TO.C,D3*%
X88850000Y-150010000D02*
X88850000Y-147350000D01*
X88850000Y-150010000D02*
X90550000Y-150010000D01*
X90550000Y-150010000D02*
X90550000Y-147350000D01*
%TD*%
M02*
